# Smooth hollow entry-port ring for Gazebo Sim
v 0.145000000 -0.020000000 0.000000000
v 0.144689544 -0.020000000 0.009483454
v 0.143759505 -0.020000000 0.018926298
v 0.142213866 -0.020000000 0.028288097
v 0.140059245 -0.020000000 0.037528762
v 0.137304869 -0.020000000 0.046608722
v 0.133962532 -0.020000000 0.055489098
v 0.130046548 -0.020000000 0.064131860
v 0.125573684 -0.020000000 0.072500000
v 0.120563094 -0.020000000 0.080557684
v 0.115036234 -0.020000000 0.088270407
v 0.109016772 -0.020000000 0.095605143
v 0.102530483 -0.020000000 0.102530483
v 0.095605143 -0.020000000 0.109016772
v 0.088270407 -0.020000000 0.115036234
v 0.080557684 -0.020000000 0.120563094
v 0.072500000 -0.020000000 0.125573684
v 0.064131860 -0.020000000 0.130046548
v 0.055489098 -0.020000000 0.133962532
v 0.046608722 -0.020000000 0.137304869
v 0.037528762 -0.020000000 0.140059245
v 0.028288097 -0.020000000 0.142213866
v 0.018926298 -0.020000000 0.143759505
v 0.009483454 -0.020000000 0.144689544
v 0.000000000 -0.020000000 0.145000000
v -0.009483454 -0.020000000 0.144689544
v -0.018926298 -0.020000000 0.143759505
v -0.028288097 -0.020000000 0.142213866
v -0.037528762 -0.020000000 0.140059245
v -0.046608722 -0.020000000 0.137304869
v -0.055489098 -0.020000000 0.133962532
v -0.064131860 -0.020000000 0.130046548
v -0.072500000 -0.020000000 0.125573684
v -0.080557684 -0.020000000 0.120563094
v -0.088270407 -0.020000000 0.115036234
v -0.095605143 -0.020000000 0.109016772
v -0.102530483 -0.020000000 0.102530483
v -0.109016772 -0.020000000 0.095605143
v -0.115036234 -0.020000000 0.088270407
v -0.120563094 -0.020000000 0.080557684
v -0.125573684 -0.020000000 0.072500000
v -0.130046548 -0.020000000 0.064131860
v -0.133962532 -0.020000000 0.055489098
v -0.137304869 -0.020000000 0.046608722
v -0.140059245 -0.020000000 0.037528762
v -0.142213866 -0.020000000 0.028288097
v -0.143759505 -0.020000000 0.018926298
v -0.144689544 -0.020000000 0.009483454
v -0.145000000 -0.020000000 0.000000000
v -0.144689544 -0.020000000 -0.009483454
v -0.143759505 -0.020000000 -0.018926298
v -0.142213866 -0.020000000 -0.028288097
v -0.140059245 -0.020000000 -0.037528762
v -0.137304869 -0.020000000 -0.046608722
v -0.133962532 -0.020000000 -0.055489098
v -0.130046548 -0.020000000 -0.064131860
v -0.125573684 -0.020000000 -0.072500000
v -0.120563094 -0.020000000 -0.080557684
v -0.115036234 -0.020000000 -0.088270407
v -0.109016772 -0.020000000 -0.095605143
v -0.102530483 -0.020000000 -0.102530483
v -0.095605143 -0.020000000 -0.109016772
v -0.088270407 -0.020000000 -0.115036234
v -0.080557684 -0.020000000 -0.120563094
v -0.072500000 -0.020000000 -0.125573684
v -0.064131860 -0.020000000 -0.130046548
v -0.055489098 -0.020000000 -0.133962532
v -0.046608722 -0.020000000 -0.137304869
v -0.037528762 -0.020000000 -0.140059245
v -0.028288097 -0.020000000 -0.142213866
v -0.018926298 -0.020000000 -0.143759505
v -0.009483454 -0.020000000 -0.144689544
v -0.000000000 -0.020000000 -0.145000000
v 0.009483454 -0.020000000 -0.144689544
v 0.018926298 -0.020000000 -0.143759505
v 0.028288097 -0.020000000 -0.142213866
v 0.037528762 -0.020000000 -0.140059245
v 0.046608722 -0.020000000 -0.137304869
v 0.055489098 -0.020000000 -0.133962532
v 0.064131860 -0.020000000 -0.130046548
v 0.072500000 -0.020000000 -0.125573684
v 0.080557684 -0.020000000 -0.120563094
v 0.088270407 -0.020000000 -0.115036234
v 0.095605143 -0.020000000 -0.109016772
v 0.102530483 -0.020000000 -0.102530483
v 0.109016772 -0.020000000 -0.095605143
v 0.115036234 -0.020000000 -0.088270407
v 0.120563094 -0.020000000 -0.080557684
v 0.125573684 -0.020000000 -0.072500000
v 0.130046548 -0.020000000 -0.064131860
v 0.133962532 -0.020000000 -0.055489098
v 0.137304869 -0.020000000 -0.046608722
v 0.140059245 -0.020000000 -0.037528762
v 0.142213866 -0.020000000 -0.028288097
v 0.143759505 -0.020000000 -0.018926298
v 0.144689544 -0.020000000 -0.009483454
v 0.092000000 -0.020000000 0.000000000
v 0.091803021 -0.020000000 0.006017088
v 0.091212927 -0.020000000 0.012008410
v 0.090232246 -0.020000000 0.017948310
v 0.088865176 -0.020000000 0.023811352
v 0.087117572 -0.020000000 0.029572431
v 0.084996917 -0.020000000 0.035206876
v 0.082512292 -0.020000000 0.040690560
v 0.079674337 -0.020000000 0.046000000
v 0.076495204 -0.020000000 0.051112461
v 0.072988507 -0.020000000 0.056006051
v 0.069169262 -0.020000000 0.060659815
v 0.065053824 -0.020000000 0.065053824
v 0.060659815 -0.020000000 0.069169262
v 0.056006051 -0.020000000 0.072988507
v 0.051112461 -0.020000000 0.076495204
v 0.046000000 -0.020000000 0.079674337
v 0.040690560 -0.020000000 0.082512292
v 0.035206876 -0.020000000 0.084996917
v 0.029572431 -0.020000000 0.087117572
v 0.023811352 -0.020000000 0.088865176
v 0.017948310 -0.020000000 0.090232246
v 0.012008410 -0.020000000 0.091212927
v 0.006017088 -0.020000000 0.091803021
v 0.000000000 -0.020000000 0.092000000
v -0.006017088 -0.020000000 0.091803021
v -0.012008410 -0.020000000 0.091212927
v -0.017948310 -0.020000000 0.090232246
v -0.023811352 -0.020000000 0.088865176
v -0.029572431 -0.020000000 0.087117572
v -0.035206876 -0.020000000 0.084996917
v -0.040690560 -0.020000000 0.082512292
v -0.046000000 -0.020000000 0.079674337
v -0.051112461 -0.020000000 0.076495204
v -0.056006051 -0.020000000 0.072988507
v -0.060659815 -0.020000000 0.069169262
v -0.065053824 -0.020000000 0.065053824
v -0.069169262 -0.020000000 0.060659815
v -0.072988507 -0.020000000 0.056006051
v -0.076495204 -0.020000000 0.051112461
v -0.079674337 -0.020000000 0.046000000
v -0.082512292 -0.020000000 0.040690560
v -0.084996917 -0.020000000 0.035206876
v -0.087117572 -0.020000000 0.029572431
v -0.088865176 -0.020000000 0.023811352
v -0.090232246 -0.020000000 0.017948310
v -0.091212927 -0.020000000 0.012008410
v -0.091803021 -0.020000000 0.006017088
v -0.092000000 -0.020000000 0.000000000
v -0.091803021 -0.020000000 -0.006017088
v -0.091212927 -0.020000000 -0.012008410
v -0.090232246 -0.020000000 -0.017948310
v -0.088865176 -0.020000000 -0.023811352
v -0.087117572 -0.020000000 -0.029572431
v -0.084996917 -0.020000000 -0.035206876
v -0.082512292 -0.020000000 -0.040690560
v -0.079674337 -0.020000000 -0.046000000
v -0.076495204 -0.020000000 -0.051112461
v -0.072988507 -0.020000000 -0.056006051
v -0.069169262 -0.020000000 -0.060659815
v -0.065053824 -0.020000000 -0.065053824
v -0.060659815 -0.020000000 -0.069169262
v -0.056006051 -0.020000000 -0.072988507
v -0.051112461 -0.020000000 -0.076495204
v -0.046000000 -0.020000000 -0.079674337
v -0.040690560 -0.020000000 -0.082512292
v -0.035206876 -0.020000000 -0.084996917
v -0.029572431 -0.020000000 -0.087117572
v -0.023811352 -0.020000000 -0.088865176
v -0.017948310 -0.020000000 -0.090232246
v -0.012008410 -0.020000000 -0.091212927
v -0.006017088 -0.020000000 -0.091803021
v -0.000000000 -0.020000000 -0.092000000
v 0.006017088 -0.020000000 -0.091803021
v 0.012008410 -0.020000000 -0.091212927
v 0.017948310 -0.020000000 -0.090232246
v 0.023811352 -0.020000000 -0.088865176
v 0.029572431 -0.020000000 -0.087117572
v 0.035206876 -0.020000000 -0.084996917
v 0.040690560 -0.020000000 -0.082512292
v 0.046000000 -0.020000000 -0.079674337
v 0.051112461 -0.020000000 -0.076495204
v 0.056006051 -0.020000000 -0.072988507
v 0.060659815 -0.020000000 -0.069169262
v 0.065053824 -0.020000000 -0.065053824
v 0.069169262 -0.020000000 -0.060659815
v 0.072988507 -0.020000000 -0.056006051
v 0.076495204 -0.020000000 -0.051112461
v 0.079674337 -0.020000000 -0.046000000
v 0.082512292 -0.020000000 -0.040690560
v 0.084996917 -0.020000000 -0.035206876
v 0.087117572 -0.020000000 -0.029572431
v 0.088865176 -0.020000000 -0.023811352
v 0.090232246 -0.020000000 -0.017948310
v 0.091212927 -0.020000000 -0.012008410
v 0.091803021 -0.020000000 -0.006017088
v 0.145000000 0.020000000 0.000000000
v 0.144689544 0.020000000 0.009483454
v 0.143759505 0.020000000 0.018926298
v 0.142213866 0.020000000 0.028288097
v 0.140059245 0.020000000 0.037528762
v 0.137304869 0.020000000 0.046608722
v 0.133962532 0.020000000 0.055489098
v 0.130046548 0.020000000 0.064131860
v 0.125573684 0.020000000 0.072500000
v 0.120563094 0.020000000 0.080557684
v 0.115036234 0.020000000 0.088270407
v 0.109016772 0.020000000 0.095605143
v 0.102530483 0.020000000 0.102530483
v 0.095605143 0.020000000 0.109016772
v 0.088270407 0.020000000 0.115036234
v 0.080557684 0.020000000 0.120563094
v 0.072500000 0.020000000 0.125573684
v 0.064131860 0.020000000 0.130046548
v 0.055489098 0.020000000 0.133962532
v 0.046608722 0.020000000 0.137304869
v 0.037528762 0.020000000 0.140059245
v 0.028288097 0.020000000 0.142213866
v 0.018926298 0.020000000 0.143759505
v 0.009483454 0.020000000 0.144689544
v 0.000000000 0.020000000 0.145000000
v -0.009483454 0.020000000 0.144689544
v -0.018926298 0.020000000 0.143759505
v -0.028288097 0.020000000 0.142213866
v -0.037528762 0.020000000 0.140059245
v -0.046608722 0.020000000 0.137304869
v -0.055489098 0.020000000 0.133962532
v -0.064131860 0.020000000 0.130046548
v -0.072500000 0.020000000 0.125573684
v -0.080557684 0.020000000 0.120563094
v -0.088270407 0.020000000 0.115036234
v -0.095605143 0.020000000 0.109016772
v -0.102530483 0.020000000 0.102530483
v -0.109016772 0.020000000 0.095605143
v -0.115036234 0.020000000 0.088270407
v -0.120563094 0.020000000 0.080557684
v -0.125573684 0.020000000 0.072500000
v -0.130046548 0.020000000 0.064131860
v -0.133962532 0.020000000 0.055489098
v -0.137304869 0.020000000 0.046608722
v -0.140059245 0.020000000 0.037528762
v -0.142213866 0.020000000 0.028288097
v -0.143759505 0.020000000 0.018926298
v -0.144689544 0.020000000 0.009483454
v -0.145000000 0.020000000 0.000000000
v -0.144689544 0.020000000 -0.009483454
v -0.143759505 0.020000000 -0.018926298
v -0.142213866 0.020000000 -0.028288097
v -0.140059245 0.020000000 -0.037528762
v -0.137304869 0.020000000 -0.046608722
v -0.133962532 0.020000000 -0.055489098
v -0.130046548 0.020000000 -0.064131860
v -0.125573684 0.020000000 -0.072500000
v -0.120563094 0.020000000 -0.080557684
v -0.115036234 0.020000000 -0.088270407
v -0.109016772 0.020000000 -0.095605143
v -0.102530483 0.020000000 -0.102530483
v -0.095605143 0.020000000 -0.109016772
v -0.088270407 0.020000000 -0.115036234
v -0.080557684 0.020000000 -0.120563094
v -0.072500000 0.020000000 -0.125573684
v -0.064131860 0.020000000 -0.130046548
v -0.055489098 0.020000000 -0.133962532
v -0.046608722 0.020000000 -0.137304869
v -0.037528762 0.020000000 -0.140059245
v -0.028288097 0.020000000 -0.142213866
v -0.018926298 0.020000000 -0.143759505
v -0.009483454 0.020000000 -0.144689544
v -0.000000000 0.020000000 -0.145000000
v 0.009483454 0.020000000 -0.144689544
v 0.018926298 0.020000000 -0.143759505
v 0.028288097 0.020000000 -0.142213866
v 0.037528762 0.020000000 -0.140059245
v 0.046608722 0.020000000 -0.137304869
v 0.055489098 0.020000000 -0.133962532
v 0.064131860 0.020000000 -0.130046548
v 0.072500000 0.020000000 -0.125573684
v 0.080557684 0.020000000 -0.120563094
v 0.088270407 0.020000000 -0.115036234
v 0.095605143 0.020000000 -0.109016772
v 0.102530483 0.020000000 -0.102530483
v 0.109016772 0.020000000 -0.095605143
v 0.115036234 0.020000000 -0.088270407
v 0.120563094 0.020000000 -0.080557684
v 0.125573684 0.020000000 -0.072500000
v 0.130046548 0.020000000 -0.064131860
v 0.133962532 0.020000000 -0.055489098
v 0.137304869 0.020000000 -0.046608722
v 0.140059245 0.020000000 -0.037528762
v 0.142213866 0.020000000 -0.028288097
v 0.143759505 0.020000000 -0.018926298
v 0.144689544 0.020000000 -0.009483454
v 0.092000000 0.020000000 0.000000000
v 0.091803021 0.020000000 0.006017088
v 0.091212927 0.020000000 0.012008410
v 0.090232246 0.020000000 0.017948310
v 0.088865176 0.020000000 0.023811352
v 0.087117572 0.020000000 0.029572431
v 0.084996917 0.020000000 0.035206876
v 0.082512292 0.020000000 0.040690560
v 0.079674337 0.020000000 0.046000000
v 0.076495204 0.020000000 0.051112461
v 0.072988507 0.020000000 0.056006051
v 0.069169262 0.020000000 0.060659815
v 0.065053824 0.020000000 0.065053824
v 0.060659815 0.020000000 0.069169262
v 0.056006051 0.020000000 0.072988507
v 0.051112461 0.020000000 0.076495204
v 0.046000000 0.020000000 0.079674337
v 0.040690560 0.020000000 0.082512292
v 0.035206876 0.020000000 0.084996917
v 0.029572431 0.020000000 0.087117572
v 0.023811352 0.020000000 0.088865176
v 0.017948310 0.020000000 0.090232246
v 0.012008410 0.020000000 0.091212927
v 0.006017088 0.020000000 0.091803021
v 0.000000000 0.020000000 0.092000000
v -0.006017088 0.020000000 0.091803021
v -0.012008410 0.020000000 0.091212927
v -0.017948310 0.020000000 0.090232246
v -0.023811352 0.020000000 0.088865176
v -0.029572431 0.020000000 0.087117572
v -0.035206876 0.020000000 0.084996917
v -0.040690560 0.020000000 0.082512292
v -0.046000000 0.020000000 0.079674337
v -0.051112461 0.020000000 0.076495204
v -0.056006051 0.020000000 0.072988507
v -0.060659815 0.020000000 0.069169262
v -0.065053824 0.020000000 0.065053824
v -0.069169262 0.020000000 0.060659815
v -0.072988507 0.020000000 0.056006051
v -0.076495204 0.020000000 0.051112461
v -0.079674337 0.020000000 0.046000000
v -0.082512292 0.020000000 0.040690560
v -0.084996917 0.020000000 0.035206876
v -0.087117572 0.020000000 0.029572431
v -0.088865176 0.020000000 0.023811352
v -0.090232246 0.020000000 0.017948310
v -0.091212927 0.020000000 0.012008410
v -0.091803021 0.020000000 0.006017088
v -0.092000000 0.020000000 0.000000000
v -0.091803021 0.020000000 -0.006017088
v -0.091212927 0.020000000 -0.012008410
v -0.090232246 0.020000000 -0.017948310
v -0.088865176 0.020000000 -0.023811352
v -0.087117572 0.020000000 -0.029572431
v -0.084996917 0.020000000 -0.035206876
v -0.082512292 0.020000000 -0.040690560
v -0.079674337 0.020000000 -0.046000000
v -0.076495204 0.020000000 -0.051112461
v -0.072988507 0.020000000 -0.056006051
v -0.069169262 0.020000000 -0.060659815
v -0.065053824 0.020000000 -0.065053824
v -0.060659815 0.020000000 -0.069169262
v -0.056006051 0.020000000 -0.072988507
v -0.051112461 0.020000000 -0.076495204
v -0.046000000 0.020000000 -0.079674337
v -0.040690560 0.020000000 -0.082512292
v -0.035206876 0.020000000 -0.084996917
v -0.029572431 0.020000000 -0.087117572
v -0.023811352 0.020000000 -0.088865176
v -0.017948310 0.020000000 -0.090232246
v -0.012008410 0.020000000 -0.091212927
v -0.006017088 0.020000000 -0.091803021
v -0.000000000 0.020000000 -0.092000000
v 0.006017088 0.020000000 -0.091803021
v 0.012008410 0.020000000 -0.091212927
v 0.017948310 0.020000000 -0.090232246
v 0.023811352 0.020000000 -0.088865176
v 0.029572431 0.020000000 -0.087117572
v 0.035206876 0.020000000 -0.084996917
v 0.040690560 0.020000000 -0.082512292
v 0.046000000 0.020000000 -0.079674337
v 0.051112461 0.020000000 -0.076495204
v 0.056006051 0.020000000 -0.072988507
v 0.060659815 0.020000000 -0.069169262
v 0.065053824 0.020000000 -0.065053824
v 0.069169262 0.020000000 -0.060659815
v 0.072988507 0.020000000 -0.056006051
v 0.076495204 0.020000000 -0.051112461
v 0.079674337 0.020000000 -0.046000000
v 0.082512292 0.020000000 -0.040690560
v 0.084996917 0.020000000 -0.035206876
v 0.087117572 0.020000000 -0.029572431
v 0.088865176 0.020000000 -0.023811352
v 0.090232246 0.020000000 -0.017948310
v 0.091212927 0.020000000 -0.012008410
v 0.091803021 0.020000000 -0.006017088
s 1
f 1 2 98 97
f 193 289 290 194
f 1 193 194 2
f 97 98 290 289
f 2 3 99 98
f 194 290 291 195
f 2 194 195 3
f 98 99 291 290
f 3 4 100 99
f 195 291 292 196
f 3 195 196 4
f 99 100 292 291
f 4 5 101 100
f 196 292 293 197
f 4 196 197 5
f 100 101 293 292
f 5 6 102 101
f 197 293 294 198
f 5 197 198 6
f 101 102 294 293
f 6 7 103 102
f 198 294 295 199
f 6 198 199 7
f 102 103 295 294
f 7 8 104 103
f 199 295 296 200
f 7 199 200 8
f 103 104 296 295
f 8 9 105 104
f 200 296 297 201
f 8 200 201 9
f 104 105 297 296
f 9 10 106 105
f 201 297 298 202
f 9 201 202 10
f 105 106 298 297
f 10 11 107 106
f 202 298 299 203
f 10 202 203 11
f 106 107 299 298
f 11 12 108 107
f 203 299 300 204
f 11 203 204 12
f 107 108 300 299
f 12 13 109 108
f 204 300 301 205
f 12 204 205 13
f 108 109 301 300
f 13 14 110 109
f 205 301 302 206
f 13 205 206 14
f 109 110 302 301
f 14 15 111 110
f 206 302 303 207
f 14 206 207 15
f 110 111 303 302
f 15 16 112 111
f 207 303 304 208
f 15 207 208 16
f 111 112 304 303
f 16 17 113 112
f 208 304 305 209
f 16 208 209 17
f 112 113 305 304
f 17 18 114 113
f 209 305 306 210
f 17 209 210 18
f 113 114 306 305
f 18 19 115 114
f 210 306 307 211
f 18 210 211 19
f 114 115 307 306
f 19 20 116 115
f 211 307 308 212
f 19 211 212 20
f 115 116 308 307
f 20 21 117 116
f 212 308 309 213
f 20 212 213 21
f 116 117 309 308
f 21 22 118 117
f 213 309 310 214
f 21 213 214 22
f 117 118 310 309
f 22 23 119 118
f 214 310 311 215
f 22 214 215 23
f 118 119 311 310
f 23 24 120 119
f 215 311 312 216
f 23 215 216 24
f 119 120 312 311
f 24 25 121 120
f 216 312 313 217
f 24 216 217 25
f 120 121 313 312
f 25 26 122 121
f 217 313 314 218
f 25 217 218 26
f 121 122 314 313
f 26 27 123 122
f 218 314 315 219
f 26 218 219 27
f 122 123 315 314
f 27 28 124 123
f 219 315 316 220
f 27 219 220 28
f 123 124 316 315
f 28 29 125 124
f 220 316 317 221
f 28 220 221 29
f 124 125 317 316
f 29 30 126 125
f 221 317 318 222
f 29 221 222 30
f 125 126 318 317
f 30 31 127 126
f 222 318 319 223
f 30 222 223 31
f 126 127 319 318
f 31 32 128 127
f 223 319 320 224
f 31 223 224 32
f 127 128 320 319
f 32 33 129 128
f 224 320 321 225
f 32 224 225 33
f 128 129 321 320
f 33 34 130 129
f 225 321 322 226
f 33 225 226 34
f 129 130 322 321
f 34 35 131 130
f 226 322 323 227
f 34 226 227 35
f 130 131 323 322
f 35 36 132 131
f 227 323 324 228
f 35 227 228 36
f 131 132 324 323
f 36 37 133 132
f 228 324 325 229
f 36 228 229 37
f 132 133 325 324
f 37 38 134 133
f 229 325 326 230
f 37 229 230 38
f 133 134 326 325
f 38 39 135 134
f 230 326 327 231
f 38 230 231 39
f 134 135 327 326
f 39 40 136 135
f 231 327 328 232
f 39 231 232 40
f 135 136 328 327
f 40 41 137 136
f 232 328 329 233
f 40 232 233 41
f 136 137 329 328
f 41 42 138 137
f 233 329 330 234
f 41 233 234 42
f 137 138 330 329
f 42 43 139 138
f 234 330 331 235
f 42 234 235 43
f 138 139 331 330
f 43 44 140 139
f 235 331 332 236
f 43 235 236 44
f 139 140 332 331
f 44 45 141 140
f 236 332 333 237
f 44 236 237 45
f 140 141 333 332
f 45 46 142 141
f 237 333 334 238
f 45 237 238 46
f 141 142 334 333
f 46 47 143 142
f 238 334 335 239
f 46 238 239 47
f 142 143 335 334
f 47 48 144 143
f 239 335 336 240
f 47 239 240 48
f 143 144 336 335
f 48 49 145 144
f 240 336 337 241
f 48 240 241 49
f 144 145 337 336
f 49 50 146 145
f 241 337 338 242
f 49 241 242 50
f 145 146 338 337
f 50 51 147 146
f 242 338 339 243
f 50 242 243 51
f 146 147 339 338
f 51 52 148 147
f 243 339 340 244
f 51 243 244 52
f 147 148 340 339
f 52 53 149 148
f 244 340 341 245
f 52 244 245 53
f 148 149 341 340
f 53 54 150 149
f 245 341 342 246
f 53 245 246 54
f 149 150 342 341
f 54 55 151 150
f 246 342 343 247
f 54 246 247 55
f 150 151 343 342
f 55 56 152 151
f 247 343 344 248
f 55 247 248 56
f 151 152 344 343
f 56 57 153 152
f 248 344 345 249
f 56 248 249 57
f 152 153 345 344
f 57 58 154 153
f 249 345 346 250
f 57 249 250 58
f 153 154 346 345
f 58 59 155 154
f 250 346 347 251
f 58 250 251 59
f 154 155 347 346
f 59 60 156 155
f 251 347 348 252
f 59 251 252 60
f 155 156 348 347
f 60 61 157 156
f 252 348 349 253
f 60 252 253 61
f 156 157 349 348
f 61 62 158 157
f 253 349 350 254
f 61 253 254 62
f 157 158 350 349
f 62 63 159 158
f 254 350 351 255
f 62 254 255 63
f 158 159 351 350
f 63 64 160 159
f 255 351 352 256
f 63 255 256 64
f 159 160 352 351
f 64 65 161 160
f 256 352 353 257
f 64 256 257 65
f 160 161 353 352
f 65 66 162 161
f 257 353 354 258
f 65 257 258 66
f 161 162 354 353
f 66 67 163 162
f 258 354 355 259
f 66 258 259 67
f 162 163 355 354
f 67 68 164 163
f 259 355 356 260
f 67 259 260 68
f 163 164 356 355
f 68 69 165 164
f 260 356 357 261
f 68 260 261 69
f 164 165 357 356
f 69 70 166 165
f 261 357 358 262
f 69 261 262 70
f 165 166 358 357
f 70 71 167 166
f 262 358 359 263
f 70 262 263 71
f 166 167 359 358
f 71 72 168 167
f 263 359 360 264
f 71 263 264 72
f 167 168 360 359
f 72 73 169 168
f 264 360 361 265
f 72 264 265 73
f 168 169 361 360
f 73 74 170 169
f 265 361 362 266
f 73 265 266 74
f 169 170 362 361
f 74 75 171 170
f 266 362 363 267
f 74 266 267 75
f 170 171 363 362
f 75 76 172 171
f 267 363 364 268
f 75 267 268 76
f 171 172 364 363
f 76 77 173 172
f 268 364 365 269
f 76 268 269 77
f 172 173 365 364
f 77 78 174 173
f 269 365 366 270
f 77 269 270 78
f 173 174 366 365
f 78 79 175 174
f 270 366 367 271
f 78 270 271 79
f 174 175 367 366
f 79 80 176 175
f 271 367 368 272
f 79 271 272 80
f 175 176 368 367
f 80 81 177 176
f 272 368 369 273
f 80 272 273 81
f 176 177 369 368
f 81 82 178 177
f 273 369 370 274
f 81 273 274 82
f 177 178 370 369
f 82 83 179 178
f 274 370 371 275
f 82 274 275 83
f 178 179 371 370
f 83 84 180 179
f 275 371 372 276
f 83 275 276 84
f 179 180 372 371
f 84 85 181 180
f 276 372 373 277
f 84 276 277 85
f 180 181 373 372
f 85 86 182 181
f 277 373 374 278
f 85 277 278 86
f 181 182 374 373
f 86 87 183 182
f 278 374 375 279
f 86 278 279 87
f 182 183 375 374
f 87 88 184 183
f 279 375 376 280
f 87 279 280 88
f 183 184 376 375
f 88 89 185 184
f 280 376 377 281
f 88 280 281 89
f 184 185 377 376
f 89 90 186 185
f 281 377 378 282
f 89 281 282 90
f 185 186 378 377
f 90 91 187 186
f 282 378 379 283
f 90 282 283 91
f 186 187 379 378
f 91 92 188 187
f 283 379 380 284
f 91 283 284 92
f 187 188 380 379
f 92 93 189 188
f 284 380 381 285
f 92 284 285 93
f 188 189 381 380
f 93 94 190 189
f 285 381 382 286
f 93 285 286 94
f 189 190 382 381
f 94 95 191 190
f 286 382 383 287
f 94 286 287 95
f 190 191 383 382
f 95 96 192 191
f 287 383 384 288
f 95 287 288 96
f 191 192 384 383
f 96 1 97 192
f 288 384 289 193
f 96 288 193 1
f 192 97 289 384
