# Blender 4.5.10 LTS
# www.blender.org
mtllib converted_band_999999ff.mtl
o converted_band_999999ff
v 0.004059 0.057665 0.036047
v 0.004059 0.058881 0.034023
v 0.001134 0.056991 0.037085
v 0.001134 0.059479 0.032942
v -0.001790 0.056317 0.038121
v -0.001790 0.060077 0.031860
v -0.001794 -0.058156 -0.034946
v -0.001794 -0.056291 -0.038048
v 0.001130 -0.056994 -0.037012
v 0.004055 -0.057698 -0.035975
v 0.004055 -0.058854 -0.033959
v -0.001794 -0.060051 -0.031797
v 0.004059 0.058766 0.034022
v 0.001134 0.059365 0.032941
v -0.001790 0.059965 0.031859
v -0.001790 0.056220 0.038087
v -0.001790 0.056198 0.038120
v -0.001790 0.058081 0.034992
v 0.001134 0.056873 0.037083
v 0.004059 0.057548 0.036046
v 0.004059 0.058155 0.035036
v 0.001130 -0.056936 -0.037012
v 0.004055 -0.057580 -0.035975
v 0.004055 -0.058211 -0.034978
v -0.000042 0.062248 0.027119
v -0.000056 0.062251 0.027114
v -0.005041 -0.066620 -0.012670
v -0.005044 -0.066620 -0.012674
v -0.002086 -0.065929 -0.016269
v 0.008102 -0.062993 0.025420
v 0.004147 -0.060934 0.029832
v 0.008102 -0.063020 0.025352
v 0.005114 0.066602 0.012816
v 0.005054 0.066616 0.012747
v 0.000148 0.066539 0.013735
v -0.002496 0.067826 -0.002767
v 0.008102 0.067875 -0.002767
v 0.008102 0.067769 -0.004117
v -0.008273 0.067457 -0.007502
v -0.008233 0.067512 -0.007061
v -0.007321 0.067698 -0.004982
v -0.008167 0.059887 -0.031933
v -0.008167 0.059921 -0.031868
v -0.005044 0.058031 -0.035007
v 0.000146 0.058620 -0.034203
v -0.005039 0.058028 -0.035013
v 0.002273 0.059915 -0.031881
v 0.005135 0.058163 -0.034972
v 0.005119 0.058154 -0.034989
v -0.005310 0.055410 0.039345
v -0.006737 0.055087 0.039835
v -0.006737 0.055026 0.039834
v -0.008164 0.054764 0.040324
v -0.008164 0.054641 0.040323
v -0.008163 0.050937 0.044984
v 0.008103 0.060850 0.030242
v -0.000042 0.062357 0.027121
v -0.003612 0.062900 0.025721
v -0.008164 0.063592 0.023937
v -0.000053 0.062360 0.027117
v 0.008099 -0.059224 -0.033407
v 0.008099 -0.060939 -0.030171
v 0.008099 -0.060827 -0.030170
v 0.008099 -0.059124 -0.033382
v 0.008099 -0.058176 -0.034957
v 0.008099 -0.057351 -0.036527
v 0.008099 -0.057251 -0.036497
v 0.008099 -0.055628 -0.038996
v 0.008099 -0.055254 -0.039531
v -0.008168 -0.063678 -0.023864
v -0.008168 -0.063571 -0.023863
v -0.003597 -0.062908 -0.025637
v -0.000035 -0.062199 -0.027017
v -0.000035 -0.062308 -0.027018
v -0.008168 -0.061269 -0.029373
v -0.008168 -0.062904 -0.025634
v -0.005314 -0.055670 -0.039026
v -0.005314 -0.055503 -0.039272
v -0.005314 -0.055381 -0.039272
v -0.005314 -0.057187 -0.036781
v -0.005314 -0.057406 -0.036252
v -0.005314 -0.058176 -0.034958
v -0.005314 -0.059069 -0.033678
v -0.005314 -0.059265 -0.033129
v -0.005314 -0.060738 -0.030457
v -0.006741 -0.055150 -0.039762
v -0.006741 -0.055027 -0.039760
v -0.008168 -0.054797 -0.040251
v -0.008168 -0.054673 -0.040250
v -0.008169 -0.050970 -0.044911
v -0.008167 -0.067994 -0.001696
v -0.008167 -0.067894 -0.001695
v 0.008100 -0.067945 -0.001696
v -0.008167 -0.067614 -0.006874
v -0.001921 -0.067392 -0.009150
v -0.001921 -0.067292 -0.009149
v -0.001921 -0.067614 -0.006874
v -0.003558 -0.067041 -0.010998
v -0.005044 -0.066721 -0.012674
v -0.008167 -0.066049 -0.016200
v -0.008167 -0.065947 -0.016198
v -0.008168 -0.063809 -0.023219
v -0.008168 -0.063938 -0.023159
v -0.008168 -0.063916 -0.023221
v -0.003999 -0.065367 -0.018455
v 0.000146 -0.066621 -0.013666
v 0.000146 -0.066519 -0.013666
v -0.002088 -0.066032 -0.016271
v -0.003999 -0.065263 -0.018453
v 0.004109 -0.065366 -0.018455
v 0.008099 -0.063916 -0.023221
v 0.008099 -0.063810 -0.023220
v 0.005973 -0.064776 -0.020707
v 0.005963 -0.064674 -0.020695
v 0.004109 -0.065263 -0.018455
v 0.008100 -0.066049 -0.016201
v 0.008100 -0.065947 -0.016199
v 0.008100 -0.066034 -0.016264
v 0.005112 -0.066686 -0.012744
v 0.005112 -0.066635 -0.012744
v 0.005052 -0.066649 -0.012675
v 0.003597 -0.067010 -0.010993
v 0.002123 -0.067324 -0.009288
v 0.008100 -0.067614 -0.006874
v 0.005112 -0.067564 -0.006874
v 0.005112 -0.067664 -0.006875
v 0.002123 -0.067614 -0.006874
v 0.008101 -0.067547 0.008010
v 0.008101 -0.067447 0.008011
v 0.008100 -0.067851 0.004193
v 0.008100 -0.067859 0.002839
v 0.008100 -0.067958 0.002838
v -0.001420 -0.067497 0.008009
v 0.008101 -0.065397 0.018728
v 0.008101 -0.065293 0.018729
v -0.001420 -0.065345 0.018721
v 0.008101 -0.063781 0.023658
v 0.008101 -0.063674 0.023660
v 0.008101 -0.065246 0.019190
v -0.002497 -0.063674 0.023660
v -0.002497 -0.063781 0.023659
v -0.008326 -0.065275 0.019149
v -0.008468 -0.065805 0.017036
v -0.008328 -0.065173 0.019139
v -0.003730 -0.063827 0.023535
v -0.003730 -0.063720 0.023536
v -0.004709 -0.063756 0.023438
v -0.004710 -0.063863 0.023436
v -0.006148 -0.064024 0.022692
v -0.006149 -0.064130 0.022692
v -0.006373 -0.064066 0.022575
v -0.006367 -0.064171 0.022580
v -0.007605 -0.064558 0.021127
v -0.007595 -0.064658 0.021142
v -0.007775 -0.064703 0.020660
v -0.007773 -0.064808 0.020658
v -0.008309 -0.065260 0.019195
v -0.002498 -0.067908 0.002837
v 0.008102 -0.054951 0.040028
v 0.008102 -0.051804 0.044105
v 0.008102 -0.051671 0.044106
v -0.008165 -0.051737 0.044106
v -0.001919 -0.054951 0.040028
v -0.005042 -0.054889 0.040029
v -0.005042 -0.055013 0.040028
v -0.008165 -0.054951 0.040028
v -0.008165 -0.063128 0.025352
v -0.008165 -0.063020 0.025353
v -0.008165 -0.063104 0.025413
v -0.008165 -0.059977 0.031998
v 0.000148 -0.058769 0.034274
v 0.000148 -0.058652 0.034275
v -0.000854 -0.059351 0.033228
v -0.004030 -0.060936 0.029833
v -0.005919 -0.061969 0.027825
v -0.004030 -0.061045 0.029833
v -0.002068 -0.060058 0.031959
v 0.008102 -0.063129 0.025352
v 0.005959 -0.062083 0.027816
v 0.004147 -0.061049 0.029831
v 0.002276 -0.059948 0.031953
v 0.001107 -0.059315 0.033208
v 0.008102 -0.059920 0.032006
v 0.008102 -0.060063 0.031947
v 0.008102 -0.060033 0.032005
v 0.002125 -0.056347 0.038037
v 0.005034 -0.058086 0.035101
v 0.005114 -0.058190 0.035021
v 0.005114 -0.058133 0.035021
v 0.006920 -0.059303 0.033197
v 0.008102 0.067912 0.001768
v -0.000032 0.067962 0.001768
v -0.000032 0.067862 0.001767
v -0.008165 0.067912 0.001769
v -0.008165 0.067581 0.006947
v -0.001919 0.067631 0.006947
v -0.001919 0.067531 0.006946
v -0.001919 0.067310 0.009219
v -0.008164 0.065967 0.016268
v -0.008164 0.065044 0.019816
v -0.008164 0.064944 0.019800
v -0.008164 0.063831 0.023288
v 0.008103 0.063883 0.023293
v 0.008103 0.063777 0.023291
v 0.005977 0.064743 0.020779
v 0.005967 0.064641 0.020767
v 0.004114 0.065316 0.018526
v 0.004113 0.065246 0.018526
v 0.008103 0.066017 0.016272
v 0.008103 0.065914 0.016270
v 0.008103 0.066002 0.016335
v 0.002125 0.067291 0.009360
v 0.003599 0.066977 0.011065
v 0.005114 0.066654 0.012816
v 0.008101 0.067464 -0.007940
v -0.001420 0.067514 -0.007938
v -0.001420 0.067414 -0.007939
v -0.004293 0.067113 -0.010810
v -0.004293 0.067012 -0.010811
v -0.004223 0.067254 -0.009895
v -0.004220 0.067156 -0.009881
v -0.003960 0.067332 -0.009339
v -0.003960 0.067231 -0.009341
v -0.003731 0.067400 -0.008857
v -0.003725 0.067300 -0.008849
v -0.003233 0.067449 -0.008465
v -0.003234 0.067349 -0.008466
v -0.002887 0.067484 -0.008193
v -0.002884 0.067384 -0.008192
v -0.002151 0.067500 -0.008066
v -0.002151 0.067398 -0.008066
v -0.004293 0.066553 -0.013342
v -0.004293 0.066051 -0.015849
v -0.001420 0.065313 -0.018649
v 0.008101 0.065365 -0.018656
v 0.008101 0.065260 -0.018657
v 0.008101 0.063749 -0.023587
v 0.008101 0.063642 -0.023588
v 0.008101 0.065213 -0.019118
v -0.002497 0.063749 -0.023586
v -0.002497 0.063642 -0.023588
v -0.008468 0.065825 -0.016964
v -0.008468 0.065721 -0.016964
v -0.008317 0.065229 -0.019122
v -0.008316 0.065123 -0.019128
v -0.008317 0.065229 -0.019123
v -0.007770 0.064776 -0.020583
v -0.007770 0.064670 -0.020585
v -0.007574 0.064613 -0.021105
v -0.007574 0.064508 -0.021107
v -0.006335 0.064129 -0.022532
v -0.006329 0.064022 -0.022538
v -0.006149 0.064095 -0.022628
v -0.006150 0.063989 -0.022629
v -0.004695 0.063829 -0.023369
v -0.004683 0.063721 -0.023373
v -0.003734 0.063794 -0.023464
v -0.003734 0.063686 -0.023466
v -0.008468 0.066553 -0.013341
v -0.008468 0.067264 -0.009834
v -0.008468 0.067185 -0.009678
v -0.008468 0.067287 -0.009677
v -0.002496 0.067926 -0.002766
v -0.004220 0.067921 -0.002886
v -0.004266 0.067821 -0.002895
v -0.005260 0.067900 -0.003309
v -0.005258 0.067800 -0.003312
v -0.005927 0.067888 -0.003581
v -0.005974 0.067786 -0.003614
v -0.006458 0.067852 -0.004124
v -0.007097 0.067713 -0.004755
v -0.007085 0.067811 -0.004766
v -0.007375 0.067792 -0.005063
v -0.008254 0.067603 -0.007146
v -0.008284 0.067559 -0.007500
v 0.008100 0.059943 -0.031934
v 0.006926 0.059284 -0.033137
v 0.005135 0.058279 -0.034971
v 0.005113 0.058267 -0.034994
v 0.005046 0.058108 -0.035061
v 0.002123 0.056314 -0.037965
v 0.008100 0.054919 -0.039956
v 0.005112 0.054857 -0.039956
v 0.005112 0.054981 -0.039956
v 0.002123 0.054919 -0.039956
v -0.008167 0.051638 -0.044033
v 0.008100 0.051704 -0.044034
v -0.008167 0.051772 -0.044033
v -0.008167 0.054857 -0.039956
v -0.008167 0.054981 -0.039955
v -0.001921 0.054857 -0.039956
v -0.001921 0.054981 -0.039956
v -0.001921 0.056175 -0.038081
v -0.001921 0.056297 -0.038080
v -0.005044 0.058149 -0.035006
v -0.006950 0.059279 -0.033131
v -0.008167 0.060000 -0.031932
v -0.008166 0.063096 -0.025279
v -0.008166 0.062988 -0.025280
v -0.008166 0.063071 -0.025340
v 0.000146 0.058736 -0.034202
v -0.000856 0.059318 -0.033155
v -0.004032 0.060904 -0.029761
v -0.005920 0.061937 -0.027753
v -0.004032 0.061013 -0.029760
v -0.002070 0.060025 -0.031886
v 0.001105 0.059282 -0.033136
v 0.004145 0.061016 -0.029759
v 0.004145 0.060919 -0.029760
v 0.005958 0.062050 -0.027744
v 0.008101 0.063042 -0.025281
v 0.016447 -0.004472 -0.067818
v -0.016553 -0.004472 -0.067817
v 0.016447 -0.004173 -0.067837
v -0.016553 -0.004172 -0.067836
v 0.008102 0.067581 0.006946
v 0.002125 0.067581 0.006946
v -0.006966 -0.059266 0.033178
v -0.016549 -0.059313 0.033209
v -0.005310 0.058165 0.035042
v -0.005310 0.060707 0.030526
v -0.008160 0.061239 0.029444
v -0.016548 0.056895 0.037255
v -0.016548 0.055576 0.039053
v -0.005310 0.055588 0.039066
v -0.016547 0.052593 0.043122
v 0.016452 0.062940 0.025736
v 0.016452 0.055643 0.039100
v -0.016547 0.047689 0.048496
v -0.016547 0.045493 0.050438
v 0.008103 0.055224 0.039598
v 0.016453 0.045554 0.050507
v 0.008103 0.055573 0.039056
v 0.008103 0.058164 0.035042
v 0.016451 0.067080 0.011082
v -0.002074 0.065906 0.016306
v -0.016548 0.060545 0.030962
v -0.008163 0.062840 0.025695
v -0.016548 0.062882 0.025711
v -0.016548 0.063502 0.024314
v -0.016548 0.065733 0.017390
v -0.016549 0.067042 0.011076
v -0.005050 0.066637 0.012752
v 0.016447 -0.045587 -0.050436
v 0.016447 -0.050951 -0.045016
v 0.016448 -0.055676 -0.039029
v -0.016552 -0.055602 -0.038979
v 0.016448 -0.062973 -0.025665
v 0.016449 -0.067113 -0.011011
v -0.016551 -0.066366 -0.014851
v -0.016552 -0.064396 -0.021854
v -0.016551 -0.067017 -0.010994
v -0.016552 -0.058275 -0.035033
v -0.016552 -0.061688 -0.028608
v -0.016552 -0.062883 -0.025628
v -0.016551 -0.067577 -0.007676
v -0.016551 -0.068015 -0.000414
v -0.016551 -0.067799 0.004193
v -0.006515 -0.067786 0.004191
v -0.005858 -0.067822 0.003600
v -0.003900 -0.067854 0.002932
v 0.016449 -0.067889 0.004196
v -0.004293 -0.066588 0.013401
v -0.002856 -0.065779 0.017337
v -0.004293 -0.066084 0.015919
v -0.003393 -0.065448 0.018176
v -0.004020 -0.065661 0.017389
v -0.004293 -0.067095 0.010879
v -0.004197 -0.067197 0.009888
v -0.002856 -0.067361 0.009452
v -0.003752 -0.067335 0.008900
v -0.002943 -0.067415 0.008272
v -0.002402 -0.065327 0.018608
v 0.016450 -0.065261 0.019194
v 0.016451 -0.059362 0.033232
v -0.016549 -0.062063 0.027860
v -0.016550 -0.064681 0.021072
v -0.016550 -0.065187 0.019176
v -0.007210 -0.067748 0.004816
v -0.008125 -0.067581 0.006774
v -0.016550 -0.067674 0.006854
v -0.008468 -0.067268 0.009746
v -0.016550 -0.066558 0.014043
v -0.008468 -0.066588 0.013402
v -0.001919 -0.056278 0.038139
v -0.004999 -0.058102 0.035111
v -0.016548 -0.050465 0.045590
v -0.016549 -0.054736 0.040407
v -0.016549 -0.058736 0.034330
v 0.016452 -0.050488 0.045606
v 0.002125 -0.054951 0.040028
v -0.003551 0.066959 0.011061
v 0.016451 0.067864 -0.003994
v -0.016549 0.067211 0.010266
v -0.016549 0.067918 0.003024
v -0.016549 0.067850 -0.004123
v -0.002402 0.065295 -0.018535
v -0.002856 0.065745 -0.017266
v -0.003393 0.065416 -0.018103
v -0.004020 0.065629 -0.017317
v 0.016450 0.065229 -0.019123
v 0.016450 0.066963 -0.011699
v 0.016451 0.067856 -0.004125
v 0.016449 0.059330 -0.033162
v 0.016450 0.062673 -0.026309
v -0.016550 0.065203 -0.019113
v -0.016550 0.063025 -0.025454
v -0.016551 0.059942 -0.032043
v -0.016551 0.059282 -0.033131
v -0.016549 0.067849 -0.004251
v -0.016550 0.067002 -0.011478
v -0.016550 0.065388 -0.018573
v -0.016551 0.056171 -0.038265
v -0.016551 0.051758 -0.044048
v -0.016552 0.050400 -0.045481
v 0.016448 0.050455 -0.045535
v -0.016553 -0.011695 -0.066953
v 0.016447 -0.011896 -0.066919
v -0.016553 -0.018785 -0.065321
v 0.016447 -0.019175 -0.065210
v 0.016447 0.003450 -0.067876
v -0.016553 0.011014 -0.066966
v 0.016447 0.011030 -0.067061
v -0.016553 0.007861 -0.067506
v -0.016553 0.000600 -0.067960
v 0.016447 -0.033214 -0.059311
v -0.016553 -0.032242 -0.059842
v 0.016447 -0.026360 -0.062654
v -0.016553 -0.025660 -0.062942
v -0.016553 -0.019169 -0.065189
v -0.016552 -0.054195 -0.041056
v -0.016553 -0.049495 -0.046610
v -0.016553 -0.045536 -0.050382
v -0.016553 -0.044228 -0.051629
v 0.016447 -0.039649 -0.055220
v -0.016553 -0.038455 -0.056056
v -0.016553 -0.033187 -0.059266
v -0.016548 -0.039195 0.055616
v -0.016548 -0.044909 0.051111
v -0.016548 -0.050109 0.046023
v -0.016548 -0.039077 0.055690
v 0.016452 -0.039081 0.055695
v -0.016548 -0.033033 0.059483
v 0.016453 -0.025717 0.062992
v -0.016547 -0.026493 0.062671
v -0.016547 -0.011055 0.067069
v -0.016547 -0.012581 0.066866
v 0.016453 -0.011063 0.067132
v -0.016547 -0.019649 0.065141
v -0.016547 -0.025703 0.062955
v -0.016547 -0.005370 0.067825
v 0.016453 0.004144 0.067908
v -0.016547 0.001903 0.068010
v -0.016547 0.019116 0.065192
v -0.016547 0.016300 0.066050
v 0.016453 0.019142 0.065280
v -0.016547 0.009155 0.067416
v -0.016547 0.004137 0.067827
v -0.016547 0.023261 0.063929
v 0.016453 0.033181 0.059381
v -0.016547 0.029954 0.061077
v -0.016547 0.042239 0.053315
v -0.016547 0.036304 0.057524
v -0.016547 0.033134 0.059298
v -0.016552 0.046751 -0.049327
v 0.016448 0.039048 -0.055624
v -0.016552 0.041210 -0.054042
v -0.016552 0.038998 -0.055547
v -0.016552 0.035196 -0.058136
v 0.016447 0.025684 -0.062921
v -0.016552 0.028779 -0.061565
v -0.016553 0.015033 -0.066277
v -0.016553 0.022032 -0.064290
v -0.016553 0.025648 -0.062829
vn -0.0149 0.8572 0.5147
vn -0.0148 0.8572 0.5148
vn -0.0151 0.8572 0.5148
vn -0.0234 -0.8567 -0.5153
vn -0.0323 -0.8670 -0.4973
vn -0.0130 -0.8594 -0.5112
vn -0.0236 -0.8566 -0.5155
vn 0.3483 0.0082 -0.9373
vn 0.3483 0.0083 -0.9373
vn 0.3484 0.0083 -0.9373
vn 0.3486 0.0094 -0.9372
vn -1.0000 -0.0000 -0.0000
vn 0.3355 -0.0055 0.9420
vn 0.3369 -0.0141 0.9414
vn 0.3368 -0.0141 0.9415
vn 0.3356 -0.0066 0.9420
vn 1.0000 -0.0000 -0.0000
vn 0.3354 0.0072 -0.9420
vn 0.3357 0.0072 -0.9419
vn 0.3355 0.0067 -0.9420
vn 0.0109 0.8993 0.4371
vn -0.0399 -0.9752 -0.2177
vn -0.0711 -0.9268 0.3688
vn 0.0205 0.9836 0.1791
vn -0.0046 0.9969 -0.0789
vn 0.1015 0.9860 -0.1324
vn 0.0702 0.8838 -0.4626
vn -0.0411 0.9142 -0.4031
vn 0.0087 0.8734 -0.4870
vn 0.3254 -0.0040 0.9456
vn 0.3266 -0.0112 0.9451
vn -0.3598 -0.0119 0.9330
vn -0.3660 -0.0075 0.9306
vn -0.3486 -0.0119 0.9372
vn -0.3573 -0.0106 0.9339
vn -0.3664 -0.0103 0.9304
vn -0.3635 0.0131 -0.9315
vn -0.3632 0.0116 -0.9316
vn -0.3632 0.0112 -0.9316
vn -0.3631 0.0112 -0.9317
vn -0.3629 0.0100 -0.9318
vn 0.3253 0.0040 -0.9456
vn 0.3263 0.0112 -0.9452
vn 0.3269 0.0112 -0.9450
vn -0.0001 0.0087 -1.0000
vn 0.7491 0.0057 -0.6625
vn 0.7491 0.0071 -0.6624
vn 0.7487 0.0031 -0.6629
vn 0.7145 0.0056 -0.6996
vn 0.7491 0.0053 -0.6625
vn 0.7495 0.0113 -0.6620
vn 1.0000 -0.0000 -0.0001
vn -0.7540 -0.0093 0.6568
vn -0.7596 -0.0047 0.6504
vn -0.7594 -0.0026 0.6506
vn -0.7531 -0.0029 0.6579
vn -0.7540 -0.0102 0.6568
vn -0.7542 -0.0102 0.6566
vn 0.7710 -0.0047 0.6369
vn 0.7651 -0.0091 0.6438
vn 0.7634 0.0002 0.6459
vn 0.7701 0.0017 0.6380
vn 0.7710 -0.0042 0.6369
vn 0.7709 -0.0042 0.6369
vn -0.7575 0.0111 -0.6527
vn -0.7563 -0.0016 -0.6543
vn -0.7545 -0.0016 -0.6563
vn -0.7557 -0.0066 -0.6549
vn -0.7565 0.0030 -0.6540
vn -0.0001 -0.0087 1.0000
vn 0.0002 -0.0087 1.0000
vn 0.0002 0.0087 -1.0000
vn -0.0007 -0.0060 1.0000
vn -0.0000 0.0134 -0.9999
vn 0.9975 0.0125 -0.0703
vn 0.0991 0.0133 -0.9950
vn 0.1002 0.0041 -0.9950
vn 0.0994 0.0041 -0.9950
vn 0.1000 0.0124 -0.9949
vn 0.4591 0.0076 -0.8884
vn 0.4605 -0.0085 -0.8876
vn 0.4614 -0.0085 -0.8871
vn 0.4608 -0.0111 -0.8874
vn 0.7589 0.0159 -0.6510
vn 0.7638 -0.0214 -0.6451
vn 0.9349 0.0399 -0.3527
vn 0.9359 0.0230 -0.3516
vn 0.9372 0.0230 -0.3479
vn 0.9404 -0.0150 -0.3398
vn 0.9399 -0.0158 -0.3410
vn -0.0001 -0.0094 1.0000
vn -0.0001 0.0063 -1.0000
vn -0.0000 -0.0032 1.0000
vn -0.7207 -0.0053 0.6932
vn -0.7460 0.0789 0.6612
vn -0.7396 -0.0023 0.6730
vn -0.2204 -0.7907 0.5711
vn -0.7279 -0.0020 0.6857
vn -0.7345 -0.0020 0.6786
vn -0.7589 0.1819 0.6252
vn 0.7542 -0.0023 0.6567
vn 0.7713 0.1197 0.6251
vn 0.7420 -0.0059 0.6704
vn 0.7485 -0.0059 0.6631
vn 0.2298 -0.7661 0.6002
vn 0.6720 -0.1825 0.7177
vn 0.7420 -0.0051 0.6704
vn -1.0000 -0.0000 0.0001
vn -0.7100 0.0008 -0.7042
vn -0.7064 0.0063 -0.7077
vn -0.7086 0.0063 -0.7056
vn -0.7074 0.0099 -0.7068
vn -0.7082 0.0067 -0.7059
vn -0.0000 -0.0087 1.0000
vn 0.0001 -0.0087 1.0000
vn -0.0000 0.0087 -1.0000
vn 0.7651 0.0091 -0.6439
vn 0.7633 -0.0002 -0.6460
vn 0.7702 -0.0018 -0.6378
vn 0.7700 -0.0045 -0.6381
vn 0.7698 -0.0045 -0.6382
vn -0.7566 -0.0030 0.6538
vn -0.7556 0.0066 0.6550
vn -0.7543 0.0016 0.6565
vn -0.7562 0.0016 0.6544
vn -0.7575 -0.0111 0.6528
vn -0.9971 -0.0006 0.0764
vn -0.9965 -0.0188 0.0812
vn -0.9053 0.0328 0.4235
vn -0.9007 -0.0077 0.4344
vn -0.9027 -0.0077 0.4302
vn -0.9010 -0.0190 0.4333
vn -0.6196 0.0266 0.7845
vn -0.6147 -0.0007 0.7887
vn -0.6184 -0.0006 0.7858
vn -0.6164 -0.0096 0.7874
vn -0.1705 0.0060 0.9853
vn -0.1698 0.0019 0.9855
vn -0.1702 0.0019 0.9854
vn -0.1714 -0.0085 0.9852
vn -0.0008 0.0060 -1.0000
vn -0.0000 -0.0134 0.9999
vn 0.9976 -0.0004 0.0699
vn 0.9976 0.0059 0.0684
vn 1.0000 0.0095 -0.0007
vn 0.9358 -0.0064 0.3525
vn 0.9359 -0.0052 0.3523
vn 0.9357 -0.0052 0.3528
vn 0.9357 -0.0052 0.3529
vn 0.7535 -0.0098 0.6574
vn 0.7560 0.0091 0.6546
vn 0.4524 -0.0198 0.8916
vn 0.4513 -0.0169 0.8922
vn 0.4517 -0.0169 0.8920
vn 0.4544 0.0144 0.8907
vn 0.0973 -0.0293 0.9948
vn 0.0968 -0.0226 0.9950
vn 0.0970 -0.0226 0.9950
vn 0.0981 -0.0133 0.9951
vn 0.0693 0.0093 -0.9975
vn 0.0717 0.0548 -0.9959
vn 0.3771 -0.0912 -0.9217
vn 0.3870 0.0340 -0.9214
vn 0.3765 0.0339 -0.9258
vn 0.3835 0.1176 -0.9160
vn 0.7142 -0.1064 -0.6918
vn 0.7112 -0.1265 -0.6915
vn 0.7114 -0.1633 -0.6835
vn 0.7104 -0.1633 -0.6846
vn 0.7048 -0.1842 -0.6851
vn 0.9012 0.1766 -0.3959
vn 0.9106 -0.1489 -0.3856
vn 0.9859 0.1343 -0.1002
vn 0.9888 0.1081 -0.1034
vn 0.9889 0.1080 -0.1021
vn 0.9964 0.0007 -0.0843
vn -0.0001 0.0094 -1.0000
vn -0.7146 -0.0040 0.6996
vn -0.7141 -0.0053 0.7000
vn -0.7157 -0.0053 0.6984
vn -0.7096 -0.0070 0.7046
vn -0.7019 -0.0063 0.7122
vn -0.7031 -0.0053 0.7111
vn -0.0000 0.0032 -1.0000
vn 0.0001 -0.0063 1.0000
vn 0.6987 -0.0089 0.7154
vn 0.6983 -0.0104 0.7157
vn 0.7599 -0.0042 0.6500
vn 0.7000 -0.0046 0.7141
vn 0.7004 -0.0035 0.7138
vn 0.6995 -0.0068 0.7146
vn -0.7208 0.0053 -0.6931
vn -0.7461 -0.0789 -0.6611
vn -0.7397 0.0024 -0.6729
vn -0.2134 0.7958 -0.5667
vn -0.7280 0.0020 -0.6856
vn -0.7344 0.0020 -0.6788
vn -0.7585 -0.1762 -0.6274
vn 0.7420 0.0051 -0.6704
vn 0.6739 0.1784 -0.7170
vn 0.2348 0.7626 -0.6027
vn 0.7480 0.0072 -0.6637
vn 0.7416 0.0072 -0.6708
vn 0.7746 -0.1435 -0.6159
vn -0.0000 -0.0645 -0.9979
vn 0.0207 0.8820 -0.4708
vn -0.0000 0.9929 0.1192
vn 0.0208 -0.8820 0.4708
vn 0.0058 -0.8592 0.5116
vn -0.0122 -0.8277 -0.5611
vn -0.0237 0.8711 0.4904
vn -0.0016 0.8064 0.5913
vn 0.0279 0.8061 0.5911
vn -0.0053 0.8421 0.5393
vn -0.0015 0.8389 0.5442
vn -0.0018 0.8375 0.5465
vn -0.0214 0.7726 0.6345
vn -0.0021 0.9306 0.3659
vn 0.0140 0.8519 0.5235
vn 0.0038 0.9044 0.4266
vn 0.0389 0.8770 0.4789
vn -0.0039 0.7387 0.6740
vn 0.0571 0.6613 0.7479
vn 0.0867 0.6352 0.7675
vn -0.0028 0.7473 0.6645
vn 0.2570 0.8124 0.5234
vn -0.0098 0.7490 0.6625
vn -0.0099 0.8401 0.5423
vn 0.0262 0.8724 0.4881
vn -0.0081 0.9820 0.1885
vn 0.0073 0.9385 0.3453
vn -0.0082 0.9821 0.1880
vn 0.0216 0.9720 0.2339
vn 0.0467 0.9613 0.2716
vn 0.0229 0.9564 0.2912
vn -0.0021 0.9304 0.3665
vn 0.0052 0.9700 0.2431
vn -0.0083 0.9605 0.2782
vn 0.0150 0.9429 0.3327
vn -0.0410 0.9596 0.2782
vn -0.0105 0.9434 0.3315
vn 0.0110 0.8421 0.5392
vn -0.0039 0.8757 0.4829
vn 0.0193 0.8648 0.5017
vn -0.0049 0.9196 0.3929
vn 0.0053 0.9136 0.4065
vn 0.0053 0.9138 0.4061
vn 0.0078 0.9194 0.3931
vn 0.0055 0.9385 0.3453
vn 0.0002 0.9518 0.3066
vn -0.0179 0.9439 0.3298
vn 0.0217 0.9789 0.2030
vn -0.0317 0.9673 0.2515
vn 0.0065 0.9812 0.1928
vn 0.0180 -0.7550 -0.6555
vn -0.0954 -0.7075 -0.7002
vn 0.0458 -0.8187 -0.5724
vn -0.0070 -0.7850 -0.6195
vn -0.0070 -0.8200 -0.5723
vn -0.0077 -0.8210 -0.5708
vn -0.0035 -0.9140 -0.4058
vn -0.0035 -0.9139 -0.4060
vn 0.0448 -0.8768 -0.4787
vn 0.0603 -0.8821 -0.4673
vn 0.0176 -0.8571 -0.5148
vn -0.0082 -0.9820 -0.1885
vn -0.0082 -0.9821 -0.1880
vn 0.0215 -0.9720 -0.2339
vn 0.0467 -0.9613 -0.2716
vn 0.0228 -0.9564 -0.2912
vn -0.0035 -0.9288 -0.3705
vn -0.0208 -0.9405 -0.3392
vn -0.0076 -0.9585 -0.2851
vn 0.0205 -0.9711 -0.2376
vn 0.0206 -0.9712 -0.2375
vn 0.0175 -0.9625 -0.2708
vn -0.0176 -0.9160 -0.4007
vn -0.0145 -0.9457 -0.3246
vn 0.0385 -0.9460 -0.3218
vn 0.0235 -0.9377 -0.3467
vn -0.1568 -0.9263 -0.3425
vn 0.1359 -0.9769 -0.1650
vn -0.1475 -0.9299 -0.3371
vn -0.0696 -0.9546 -0.2896
vn -0.0018 -0.9826 -0.1856
vn -0.0092 -0.8880 -0.4598
vn -0.0073 -0.8234 -0.5674
vn -0.0073 -0.8286 -0.5597
vn -0.0070 -0.8279 -0.5608
vn 0.0021 -0.8549 -0.5187
vn -0.0075 -0.8884 -0.4589
vn 0.0013 -0.8831 -0.4691
vn 0.0092 -0.9163 -0.4005
vn -0.0025 -0.9281 -0.3722
vn -0.0025 -0.9282 -0.3721
vn -0.1040 -0.9899 -0.0962
vn -0.0000 -0.9905 -0.1376
vn -0.0018 -0.9826 -0.1860
vn -0.0018 -0.9902 -0.1395
vn 0.0117 -0.9860 -0.1664
vn 0.0027 -0.9973 -0.0734
vn -0.0068 -0.9982 -0.0601
vn 0.0096 -0.9989 0.0469
vn 0.0031 -1.0000 -0.0030
vn -0.0047 -0.9997 0.0250
vn 0.0013 -0.9980 0.0626
vn -0.0004 -0.9995 0.0327
vn -0.0045 -0.9994 0.0345
vn -0.0342 -0.9975 0.0618
vn -0.0167 -0.9927 -0.1192
vn 0.0204 -0.9862 -0.1642
vn 0.0166 -0.9865 -0.1629
vn -0.0082 -0.9906 -0.1364
vn 0.0283 -0.9976 -0.0637
vn 0.0426 -0.9978 -0.0509
vn 0.0088 -1.0000 -0.0030
vn -0.0046 -0.9969 0.0788
vn 0.2510 -0.9197 0.3019
vn 0.0147 -0.9804 0.1963
vn -0.1026 -0.9459 0.3077
vn -0.0252 -0.9595 0.2806
vn -0.0910 -0.9915 0.0931
vn -0.0894 -0.9912 0.0979
vn 0.0099 -0.9803 0.1971
vn 0.0086 -0.9815 0.1915
vn -0.0053 -0.9961 0.0883
vn -0.0539 -0.9977 0.0401
vn -0.0412 -0.9965 0.0732
vn -0.0046 -0.9968 0.0794
vn 0.0496 -0.9793 0.1964
vn 0.0097 -0.9804 0.1967
vn -0.0055 -0.9731 0.2303
vn 0.1563 -0.9772 0.1438
vn -0.0579 -0.9340 0.3526
vn -0.0370 -0.9374 0.3463
vn 0.0789 -0.9040 0.4201
vn 0.0178 -0.9218 0.3873
vn 0.0015 -0.8822 0.4709
vn -0.0997 -0.9395 0.3278
vn -0.1014 -0.9394 0.3276
vn -0.0234 -0.9407 0.3385
vn -0.0046 -0.9370 0.3494
vn 0.0484 -0.9221 0.3840
vn -0.0072 -0.9122 0.4096
vn 0.0216 -0.9142 0.4048
vn -0.0070 -0.9149 0.4037
vn -0.0407 -0.9128 0.4064
vn 0.0208 -0.8817 0.4714
vn -0.0020 -0.9850 0.1726
vn -0.0020 -0.9457 0.3249
vn -0.0415 -0.9322 0.3594
vn -0.0000 -0.9257 0.3782
vn -0.0322 -0.9006 0.4334
vn -0.0052 -0.9123 0.4095
vn 0.0209 -0.8816 0.4715
vn -0.0096 -0.9033 0.4289
vn 0.0231 -0.8891 0.4572
vn -0.0045 -0.9257 0.3782
vn -0.0109 -0.9330 0.3598
vn 0.0081 -0.9450 0.3270
vn -0.0092 -0.9661 0.2579
vn -0.0091 -0.9509 0.3095
vn -0.0002 -0.9964 0.0845
vn 0.0114 -0.9988 0.0469
vn 0.0119 -0.9943 0.1062
vn -0.0053 -0.9882 0.1534
vn 0.0108 -0.9831 0.1829
vn 0.0169 -0.9660 0.2580
vn -0.0190 -0.9774 0.2105
vn -0.0096 -0.9697 0.2440
vn -0.0803 -0.8157 0.5729
vn 0.0168 -0.8466 0.5319
vn -0.0168 -0.8468 0.5317
vn 0.0089 -0.7717 0.6359
vn -0.0005 -0.8422 0.5392
vn 0.0901 -0.8856 0.4556
vn 0.0034 -0.8353 0.5498
vn 0.0789 -0.7891 0.6092
vn 0.0233 -0.8124 0.5827
vn -0.0030 -0.7435 0.6688
vn -0.0000 -0.8189 0.5739
vn 0.0190 -0.8447 0.5350
vn -0.0011 -0.8394 0.5435
vn -0.0072 -0.8566 0.5160
vn -0.0072 -0.8563 0.5165
vn -0.0546 0.9886 0.1399
vn -0.0079 0.9874 0.1583
vn 0.2202 0.9724 -0.0769
vn -0.0122 0.9986 0.0519
vn 0.0065 0.9812 0.1927
vn 0.0065 0.9898 0.1425
vn 0.0375 0.9783 0.2039
vn -0.0189 0.9978 0.0637
vn 0.0153 0.9951 0.0972
vn -0.0146 0.9998 -0.0107
vn -0.0007 1.0000 -0.0096
vn -0.0033 1.0000 -0.0059
vn -0.0003 0.9979 -0.0646
vn 0.0190 0.9860 0.1654
vn -0.0081 0.9906 0.1364
vn 0.0283 0.9976 0.0637
vn 0.1080 0.9941 -0.0080
vn 0.0062 0.9999 -0.0081
vn 0.0047 0.9999 -0.0106
vn -0.0061 1.0000 -0.0047
vn -0.0025 1.0000 -0.0001
vn -0.0156 0.9998 -0.0112
vn 0.0345 0.9873 -0.1550
vn -0.0579 0.9342 -0.3521
vn -0.0367 0.9376 -0.3458
vn -0.0055 0.9742 -0.2257
vn 0.1207 0.9762 -0.1800
vn 0.0044 0.9785 -0.2063
vn -0.1020 0.9461 -0.3073
vn -0.0247 0.9596 -0.2802
vn 0.0403 0.9869 -0.1563
vn 0.0395 0.9868 -0.1572
vn 0.0328 0.9857 -0.1651
vn 0.0125 0.9825 -0.1860
vn 0.0201 0.9837 -0.1788
vn 0.0007 0.9918 -0.1274
vn -0.0439 0.9728 -0.2273
vn 0.0241 0.9966 -0.0794
vn -0.0105 0.9931 -0.1171
vn -0.0105 0.9981 -0.0612
vn 0.0015 0.8987 -0.4385
vn -0.0120 0.9064 -0.4222
vn 0.0004 0.9422 -0.3351
vn -0.0958 0.9398 -0.3280
vn -0.0225 0.9406 -0.3387
vn -0.0071 0.9375 -0.3478
vn 0.0483 0.9220 -0.3841
vn -0.0077 0.9122 -0.4097
vn 0.0219 0.9142 -0.4047
vn -0.0058 0.9149 -0.4037
vn -0.0403 0.9128 -0.4064
vn 0.0207 0.8817 -0.4714
vn 0.0052 0.9813 -0.1923
vn -0.0020 0.9501 -0.3119
vn -0.0020 0.9432 -0.3323
vn 0.0157 0.9227 -0.3851
vn -0.0000 0.9257 -0.3782
vn -0.0321 0.9007 -0.4333
vn -0.0053 0.9123 -0.4096
vn 0.0207 0.8817 -0.4713
vn -0.0012 0.9458 -0.3247
vn 0.0001 0.9257 -0.3782
vn 0.0008 0.9057 -0.4239
vn -0.0008 0.9065 -0.4223
vn 0.0008 0.8552 -0.5183
vn -0.0003 0.9980 -0.0640
vn -0.0003 0.9979 -0.0642
vn 0.0056 1.0000 -0.0066
vn -0.0017 0.9960 -0.0895
vn -0.0130 0.9925 -0.1215
vn -0.0110 0.9931 -0.1164
vn -0.0074 0.9923 -0.1237
vn -0.0030 0.9897 -0.1429
vn 0.0135 0.9750 -0.2218
vn -0.0136 0.9801 -0.1978
vn 0.0134 0.9458 -0.3244
vn -0.0034 0.9638 -0.2664
vn -0.0034 0.9449 -0.3274
vn -0.9962 -0.0863 0.0063
vn -0.0967 0.9397 -0.3279
vn -0.0797 0.8160 -0.5725
vn -0.0000 0.8423 -0.5391
vn -0.0193 0.8476 -0.5303
vn 0.0003 0.8568 -0.5157
vn 0.0003 0.8462 -0.5329
vn 0.0168 0.8551 -0.5182
vn -0.0132 0.7857 -0.6185
vn -0.0002 0.7950 -0.6066
vn 0.0001 0.7257 -0.6880
vn 0.0168 0.8125 -0.5827
vn 0.0885 0.7823 -0.6166
vn -0.0170 0.8188 -0.5738
vn 0.0041 0.8338 -0.5521
vn 0.0173 0.8337 -0.5520
vn 0.0631 0.8445 -0.5318
vn 0.0114 0.8323 -0.5543
vn -0.0055 0.8793 -0.4763
vn -0.0000 -0.1187 -0.9929
vn 0.0003 -0.1202 -0.9927
vn -0.0004 -0.2243 -0.9745
vn 0.0006 -0.2286 -0.9735
vn -0.0000 -0.0050 -1.0000
vn -0.0029 0.1688 -0.9856
vn 0.0031 0.1069 -0.9943
vn -0.0028 0.0625 -0.9980
vn 0.0048 -0.0260 -0.9997
vn 0.0015 -0.4385 -0.8987
vn -0.0011 -0.4262 -0.9046
vn 0.0011 -0.3351 -0.9422
vn -0.0007 -0.3270 -0.9450
vn -0.0056 -0.8278 -0.5610
vn 0.0072 -0.7633 -0.6460
vn -0.0073 -0.7728 -0.6347
vn 0.0254 -0.6895 -0.7238
vn -0.0023 -0.7112 -0.7030
vn -0.0023 -0.6901 -0.7237
vn 0.0023 -0.6274 -0.7787
vn -0.0019 -0.6086 -0.7935
vn 0.0020 -0.5364 -0.8440
vn -0.0016 -0.5203 -0.8540
vn -0.0016 -0.5202 -0.8540
vn 0.0264 -0.6189 0.7850
vn -0.0095 -0.7853 0.6190
vn -0.0008 -0.7616 0.6480
vn -0.0008 -0.7723 0.6352
vn 0.0010 -0.6994 0.7147
vn 0.0747 -0.5303 0.8445
vn -0.0002 -0.6625 0.7490
vn -0.0002 -0.5316 0.8470
vn 0.0129 -0.4792 0.8776
vn 0.0016 -0.4381 0.8989
vn -0.0019 -0.1318 0.9913
vn 0.0031 -0.2371 0.9715
vn 0.0127 -0.2719 0.9623
vn -0.0012 -0.3396 0.9406
vn -0.0012 -0.3386 0.9409
vn -0.0019 -0.1319 0.9913
vn 0.0122 -0.0510 0.9986
vn 0.0048 -0.0253 0.9997
vn -0.0028 0.2914 0.9566
vn 0.0067 0.1877 0.9822
vn 0.0115 0.1726 0.9849
vn -0.0025 0.0816 0.9967
vn -0.0025 0.0817 0.9967
vn -0.0028 0.2915 0.9566
vn 0.0106 0.3874 0.9219
vn 0.0089 0.3921 0.9199
vn -0.0028 0.6624 0.7491
vn 0.0113 0.5785 0.8156
vn 0.0094 0.5828 0.8126
vn -0.0029 0.4882 0.8728
vn -0.0029 0.4882 0.8727
vn 0.0029 0.7175 -0.6965
vn -0.0023 0.7621 -0.6474
vn -0.0023 0.7255 -0.6882
vn 0.0117 0.6625 -0.7490
vn 0.0059 0.6480 -0.7616
vn -0.0028 0.5628 -0.8266
vn 0.0109 0.4792 -0.8776
vn 0.0080 0.4713 -0.8820
vn 0.0103 0.2732 -0.9619
vn 0.0098 0.2719 -0.9623
vn -0.0030 0.3745 -0.9272
vn -0.0030 0.3743 -0.9273
s 0
usemtl material
f 1//1 2//1 3//1
f 3//2 2//2 4//2
f 3//3 4//3 5//3
f 5//3 4//3 6//3
f 7//4 8//4 9//4
f 10//5 11//5 9//5
f 9//6 11//6 12//6
f 9//7 12//7 7//7
f 2//8 13//8 14//8
f 2//9 14//9 4//9
f 4//10 14//10 15//10
f 4//11 15//11 6//11
f 16//12 17//12 5//12
f 16//12 5//12 18//12
f 18//12 5//12 6//12
f 18//12 6//12 15//12
f 5//13 17//13 19//13
f 5//14 19//14 3//14
f 3//15 19//15 20//15
f 3//16 20//16 1//16
f 13//17 2//17 21//17
f 21//17 2//17 1//17
f 21//17 1//17 20//17
f 8//18 22//18 9//18
f 9//19 22//19 23//19
f 9//20 23//20 10//20
f 11//17 10//17 24//17
f 24//17 10//17 23//17
f 15//21 25//21 26//21
f 27//22 28//22 29//22
f 30//23 31//23 32//23
f 33//24 34//24 35//24
f 36//25 37//25 38//25
f 39//26 40//26 41//26
f 42//27 43//27 44//27
f 44//28 45//28 46//28
f 47//29 48//29 49//29
f 50//30 51//30 52//30
f 52//30 51//30 53//30
f 52//31 53//31 54//31
f 55//17 54//17 53//17
f 56//32 57//32 25//32
f 58//33 59//33 26//33
f 25//34 57//34 26//34
f 26//35 57//35 60//35
f 26//36 60//36 58//36
f 61//12 62//12 63//12
f 63//12 64//12 61//12
f 61//12 64//12 65//12
f 61//12 65//12 66//12
f 66//12 65//12 67//12
f 66//12 67//12 68//12
f 68//12 67//12 69//12
f 70//37 71//37 72//37
f 72//38 71//38 73//38
f 72//39 73//39 74//39
f 74//40 73//40 63//40
f 74//41 63//41 62//41
f 75//17 71//17 76//17
f 76//17 71//17 70//17
f 77//17 78//17 79//17
f 77//17 79//17 80//17
f 79//17 81//17 80//17
f 80//17 81//17 82//17
f 80//17 82//17 83//17
f 83//17 82//17 84//17
f 83//17 84//17 85//17
f 79//42 78//42 86//42
f 79//43 86//43 87//43
f 87//44 86//44 88//44
f 87//44 88//44 89//44
f 88//17 90//17 89//17
f 91//45 92//45 93//45
f 94//17 92//17 91//17
f 95//17 96//17 97//17
f 96//46 95//46 98//46
f 96//47 98//47 27//47
f 27//48 98//48 99//48
f 27//49 99//49 28//49
f 28//50 99//50 100//50
f 28//51 100//51 101//51
f 101//17 100//17 102//17
f 102//17 100//17 103//17
f 102//52 103//52 104//52
f 102//53 104//53 105//53
f 106//54 107//54 108//54
f 108//55 107//55 29//55
f 108//56 29//56 105//56
f 105//57 29//57 109//57
f 105//58 109//58 102//58
f 107//59 106//59 110//59
f 111//60 112//60 113//60
f 113//61 112//61 114//61
f 113//62 114//62 110//62
f 110//63 114//63 115//63
f 110//64 115//64 107//64
f 116//12 117//12 118//12
f 118//12 117//12 112//12
f 118//12 112//12 111//12
f 116//65 119//65 117//65
f 117//66 119//66 120//66
f 120//67 119//67 121//67
f 121//68 119//68 122//68
f 121//69 122//69 123//69
f 124//70 125//70 126//70
f 126//71 125//71 127//71
f 128//12 129//12 130//12
f 130//12 129//12 131//12
f 130//12 131//12 132//12
f 133//72 129//72 128//72
f 134//73 135//73 136//73
f 137//12 138//12 139//12
f 139//12 138//12 135//12
f 139//12 135//12 134//12
f 140//74 138//74 141//74
f 141//74 138//74 137//74
f 142//75 143//75 144//75
f 141//76 145//76 140//76
f 140//77 145//77 146//77
f 146//78 145//78 147//78
f 147//79 145//79 148//79
f 147//80 148//80 149//80
f 149//81 148//81 150//81
f 149//82 150//82 151//82
f 151//83 150//83 152//83
f 151//84 152//84 153//84
f 153//85 152//85 154//85
f 153//86 154//86 155//86
f 155//87 154//87 156//87
f 155//88 156//88 144//88
f 144//89 156//89 157//89
f 144//90 157//90 142//90
f 132//91 131//91 158//91
f 159//12 160//12 161//12
f 160//92 162//92 161//92
f 163//93 164//93 165//93
f 165//93 164//93 166//93
f 167//17 168//17 169//17
f 169//17 168//17 170//17
f 171//94 172//94 173//94
f 173//95 172//95 174//95
f 168//96 167//96 175//96
f 175//97 167//97 176//97
f 175//98 176//98 174//98
f 174//99 176//99 177//99
f 174//100 177//100 173//100
f 178//101 32//101 179//101
f 179//102 32//102 31//102
f 179//103 31//103 180//103
f 180//104 31//104 181//104
f 180//105 181//105 182//105
f 182//106 181//106 172//106
f 182//107 172//107 171//107
f 30//108 32//108 178//108
f 30//12 178//12 183//12
f 183//12 178//12 184//12
f 183//12 184//12 185//12
f 186//109 187//109 188//109
f 188//110 187//110 189//110
f 188//111 189//111 190//111
f 190//112 189//112 183//112
f 190//113 183//113 185//113
f 191//114 192//114 193//114
f 193//115 192//115 194//115
f 195//116 196//116 197//116
f 197//17 196//17 198//17
f 199//17 200//17 201//17
f 201//17 200//17 202//17
f 203//117 204//117 205//117
f 205//118 204//118 206//118
f 205//119 206//119 207//119
f 207//120 206//120 208//120
f 207//121 208//121 35//121
f 209//12 210//12 211//12
f 211//12 210//12 204//12
f 211//12 204//12 203//12
f 212//122 34//122 213//122
f 213//123 34//123 214//123
f 34//124 33//124 214//124
f 214//125 33//125 210//125
f 214//126 210//126 209//126
f 215//115 216//115 217//115
f 218//127 219//127 220//127
f 220//128 219//128 221//128
f 220//129 221//129 222//129
f 222//130 221//130 223//130
f 222//131 223//131 224//131
f 224//132 223//132 225//132
f 224//133 225//133 226//133
f 226//134 225//134 227//134
f 226//135 227//135 228//135
f 228//136 227//136 229//136
f 228//137 229//137 230//137
f 229//138 231//138 230//138
f 230//139 231//139 217//139
f 230//140 217//140 216//140
f 219//12 218//12 232//12
f 232//12 218//12 233//12
f 234//141 235//141 236//141
f 237//12 238//12 239//12
f 239//12 238//12 236//12
f 239//12 236//12 235//12
f 237//142 240//142 238//142
f 238//142 240//142 241//142
f 242//143 243//143 244//143
f 244//144 243//144 245//144
f 244//145 245//145 246//145
f 246//146 245//146 247//146
f 247//147 245//147 248//147
f 247//148 248//148 249//148
f 249//149 248//149 250//149
f 249//150 250//150 251//150
f 251//151 250//151 252//151
f 251//152 252//152 253//152
f 253//153 252//153 254//153
f 253//154 254//154 255//154
f 255//155 254//155 256//155
f 255//156 256//156 257//156
f 256//157 258//157 257//157
f 257//158 258//158 241//158
f 257//159 241//159 240//159
f 243//17 242//17 259//17
f 259//52 242//52 260//52
f 259//17 260//17 261//17
f 261//17 260//17 262//17
f 263//160 36//160 264//160
f 264//161 36//161 265//161
f 264//162 265//162 266//162
f 266//163 265//163 267//163
f 266//164 267//164 268//164
f 268//165 267//165 269//165
f 268//166 269//166 270//166
f 270//167 269//167 271//167
f 270//168 271//168 272//168
f 272//169 271//169 273//169
f 273//170 271//170 41//170
f 273//171 41//171 274//171
f 274//172 41//172 40//172
f 274//173 40//173 275//173
f 40//174 39//174 275//174
f 275//175 39//175 261//175
f 275//176 261//176 262//176
f 36//177 263//177 37//177
f 276//178 277//178 48//178
f 48//179 277//179 278//179
f 48//180 278//180 49//180
f 49//181 278//181 279//181
f 49//182 279//182 280//182
f 280//183 279//183 281//183
f 282//184 283//184 284//184
f 284//184 283//184 285//184
f 286//185 287//185 288//185
f 286//17 288//17 289//17
f 289//17 288//17 290//17
f 289//184 290//184 291//184
f 291//184 290//184 292//184
f 291//17 292//17 293//17
f 293//17 292//17 294//17
f 293//186 294//186 46//186
f 46//187 294//187 295//187
f 46//188 295//188 44//188
f 44//189 295//189 296//189
f 44//190 296//190 42//190
f 42//191 296//191 297//191
f 298//17 299//17 300//17
f 300//17 299//17 43//17
f 300//17 43//17 297//17
f 297//17 43//17 42//17
f 301//192 45//192 302//192
f 302//193 45//193 303//193
f 299//194 298//194 304//194
f 304//195 298//195 305//195
f 304//196 305//196 303//196
f 303//197 305//197 306//197
f 303//198 306//198 302//198
f 45//199 301//199 307//199
f 45//200 307//200 47//200
f 47//201 307//201 308//201
f 47//202 308//202 309//202
f 309//203 308//203 310//203
f 309//204 310//204 311//204
f 312//205 313//205 314//205
f 314//205 313//205 315//205
f 301//206 302//206 307//206
f 316//207 317//207 212//207
f 173//208 182//208 171//208
f 170//209 318//209 319//209
f 86//210 78//210 77//210
f 320//211 321//211 322//211
f 323//212 324//212 325//212
f 324//213 326//213 55//213
f 50//214 325//214 51//214
f 51//215 325//215 324//215
f 51//216 324//216 53//216
f 53//217 324//217 55//217
f 327//218 58//218 60//218
f 60//219 57//219 327//219
f 327//220 57//220 56//220
f 327//221 56//221 328//221
f 326//222 329//222 55//222
f 55//223 329//223 330//223
f 55//224 330//224 331//224
f 331//225 330//225 332//225
f 331//226 332//226 333//226
f 333//227 332//227 328//227
f 333//228 328//228 334//228
f 334//229 328//229 56//229
f 335//230 213//230 214//230
f 202//231 59//231 58//231
f 214//232 209//232 335//232
f 335//233 209//233 211//233
f 335//234 211//234 327//234
f 327//235 211//235 203//235
f 327//236 203//236 58//236
f 207//237 35//237 336//237
f 336//238 202//238 207//238
f 207//239 202//239 58//239
f 207//240 58//240 205//240
f 205//241 58//241 203//241
f 325//242 320//242 323//242
f 323//243 320//243 322//243
f 323//244 322//244 337//244
f 337//245 322//245 338//245
f 337//246 338//246 339//246
f 339//247 338//247 340//247
f 338//248 59//248 340//248
f 340//249 59//249 202//249
f 340//250 202//250 341//250
f 341//251 202//251 200//251
f 341//252 200//252 342//252
f 342//253 200//253 199//253
f 342//254 199//254 343//254
f 90//255 344//255 69//255
f 69//256 344//256 345//256
f 69//257 345//257 68//257
f 68//258 345//258 346//258
f 68//259 346//259 66//259
f 347//260 88//260 86//260
f 72//261 74//261 348//261
f 348//262 74//262 62//262
f 348//263 62//263 346//263
f 346//264 62//264 61//264
f 346//265 61//265 66//265
f 349//266 122//266 119//266
f 119//267 116//267 349//267
f 349//268 116//268 118//268
f 349//269 118//269 348//269
f 348//270 118//270 111//270
f 348//271 111//271 72//271
f 105//272 111//272 113//272
f 105//273 113//273 108//273
f 108//274 113//274 110//274
f 108//275 110//275 106//275
f 70//276 350//276 351//276
f 70//277 351//277 76//277
f 111//278 105//278 72//278
f 72//279 105//279 104//279
f 72//280 104//280 70//280
f 70//281 104//281 352//281
f 70//282 352//282 350//282
f 104//283 103//283 352//283
f 352//284 103//284 100//284
f 352//285 100//285 99//285
f 83//286 85//286 75//286
f 86//287 77//287 347//287
f 347//288 77//288 80//288
f 347//289 80//289 353//289
f 80//290 83//290 353//290
f 353//291 83//291 75//291
f 353//292 75//292 354//292
f 354//293 75//293 76//293
f 354//294 76//294 355//294
f 355//295 76//295 351//295
f 95//296 97//296 98//296
f 98//297 97//297 94//297
f 99//298 98//298 352//298
f 352//299 98//299 94//299
f 352//300 94//300 356//300
f 356//301 94//301 91//301
f 356//302 91//302 357//302
f 357//303 91//303 358//303
f 93//304 132//304 91//304
f 91//305 132//305 158//305
f 359//306 358//306 360//306
f 360//307 358//307 91//307
f 360//308 91//308 361//308
f 361//309 91//309 158//309
f 127//310 123//310 126//310
f 126//311 123//311 122//311
f 126//312 122//312 124//312
f 124//313 122//313 349//313
f 124//314 349//314 93//314
f 93//315 349//315 362//315
f 93//316 362//316 132//316
f 132//317 362//317 130//317
f 139//318 134//318 362//318
f 363//319 364//319 365//319
f 365//320 364//320 366//320
f 365//321 366//321 367//321
f 368//322 369//322 370//322
f 370//323 369//323 371//323
f 363//324 368//324 128//324
f 128//325 368//325 370//325
f 128//326 370//326 133//326
f 133//327 370//327 371//327
f 133//328 371//328 372//328
f 130//329 362//329 128//329
f 128//330 362//330 134//330
f 128//331 134//331 363//331
f 363//332 134//332 136//332
f 363//333 136//333 364//333
f 364//334 136//334 373//334
f 364//335 373//335 366//335
f 178//336 374//336 184//336
f 184//337 374//337 375//337
f 184//338 375//338 185//338
f 154//339 167//339 156//339
f 156//340 167//340 157//340
f 154//341 152//341 167//341
f 167//342 152//342 150//342
f 167//343 150//343 176//343
f 141//344 177//344 145//344
f 145//345 177//345 176//345
f 145//346 176//346 148//346
f 148//347 176//347 150//347
f 182//348 173//348 180//348
f 362//349 374//349 139//349
f 139//350 374//350 178//350
f 139//17 178//17 137//17
f 137//351 178//351 179//351
f 137//352 179//352 141//352
f 141//353 179//353 180//353
f 141//354 180//354 177//354
f 177//355 180//355 173//355
f 170//356 319//356 169//356
f 169//357 319//357 376//357
f 169//358 376//358 167//358
f 167//359 376//359 377//359
f 167//360 377//360 157//360
f 157//361 377//361 378//361
f 157//362 378//362 142//362
f 359//306 379//306 358//306
f 358//363 379//363 380//363
f 358//364 380//364 381//364
f 381//365 380//365 382//365
f 381//366 382//366 383//366
f 383//367 382//367 384//367
f 383//368 384//368 378//368
f 378//369 384//369 143//369
f 378//370 143//370 142//370
f 385//371 163//371 386//371
f 386//372 163//372 165//372
f 386//373 165//373 166//373
f 387//374 388//374 166//374
f 318//209 386//209 319//209
f 319//375 386//375 166//375
f 319//376 166//376 389//376
f 389//377 166//377 388//377
f 159//378 375//378 160//378
f 160//379 375//379 390//379
f 160//380 390//380 162//380
f 391//381 186//381 159//381
f 159//382 186//382 188//382
f 159//383 188//383 375//383
f 375//384 188//384 190//384
f 375//385 190//385 185//385
f 198//386 196//386 392//386
f 392//387 196//387 195//387
f 37//388 335//388 38//388
f 38//389 335//389 393//389
f 343//390 392//390 342//390
f 342//391 392//391 195//391
f 342//392 195//392 394//392
f 394//393 195//393 194//393
f 394//394 194//394 395//394
f 266//395 268//395 194//395
f 395//396 194//396 396//396
f 396//397 194//397 268//397
f 396//398 268//398 270//398
f 212//399 213//399 316//399
f 316//400 213//400 335//400
f 316//401 335//401 191//401
f 191//402 335//402 37//402
f 191//403 37//403 192//403
f 192//404 37//404 263//404
f 192//405 263//405 194//405
f 194//406 263//406 264//406
f 194//407 264//407 266//407
f 218//408 220//408 222//408
f 234//409 397//409 398//409
f 398//410 397//410 399//410
f 235//411 234//411 218//411
f 218//412 234//412 398//412
f 218//413 398//413 233//413
f 233//414 398//414 399//414
f 233//415 399//415 400//415
f 218//416 222//416 235//416
f 235//417 222//417 224//417
f 235//418 224//418 226//418
f 216//419 235//419 230//419
f 230//420 235//420 226//420
f 230//421 226//421 228//421
f 401//422 215//422 402//422
f 402//423 215//423 38//423
f 402//424 38//424 403//424
f 403//425 38//425 393//425
f 404//426 276//426 405//426
f 405//427 276//427 311//427
f 405//428 311//428 401//428
f 247//429 249//429 298//429
f 249//430 251//430 298//430
f 298//431 251//431 253//431
f 298//432 253//432 305//432
f 240//433 306//433 257//433
f 257//434 306//434 305//434
f 257//435 305//435 255//435
f 255//436 305//436 253//436
f 307//437 302//437 308//437
f 216//438 215//438 235//438
f 235//438 215//438 401//438
f 235//439 401//439 239//439
f 239//440 401//440 311//440
f 239//17 311//17 237//17
f 237//441 311//441 310//441
f 237//442 310//442 240//442
f 240//443 310//443 308//443
f 240//444 308//444 306//444
f 306//445 308//445 302//445
f 406//446 298//446 407//446
f 407//447 298//447 300//447
f 407//448 300//448 408//448
f 408//449 300//449 297//449
f 408//450 297//450 409//450
f 270//451 272//451 396//451
f 396//452 272//452 273//452
f 396//453 273//453 410//453
f 273//454 274//454 410//454
f 410//455 274//455 275//455
f 410//456 275//456 411//456
f 275//457 262//457 411//457
f 411//458 262//458 260//458
f 411//459 260//459 412//459
f 412//460 260//460 242//460
f 412//461 242//461 406//461
f 406//462 242//462 244//462
f 406//463 244//463 298//463
f 298//464 244//464 246//464
f 298//465 246//465 247//465
f 294//466 292//466 295//466
f 295//467 292//467 290//467
f 295//468 290//468 296//468
f 297//469 296//469 409//469
f 409//470 296//470 290//470
f 409//471 290//471 413//471
f 413//472 290//472 288//472
f 413//473 288//473 414//473
f 414//474 288//474 415//474
f 416//475 287//475 404//475
f 404//476 287//476 282//476
f 285//477 281//477 284//477
f 284//478 281//478 279//478
f 284//479 279//479 282//479
f 282//480 279//480 278//480
f 282//481 278//481 404//481
f 404//482 278//482 277//482
f 404//482 277//482 276//482
f 313//483 312//483 417//483
f 417//484 312//484 418//484
f 417//485 418//485 419//485
f 419//486 418//486 420//486
f 421//487 314//487 315//487
f 422//488 423//488 424//488
f 424//489 423//489 421//489
f 424//490 421//490 425//490
f 425//491 421//491 315//491
f 426//492 427//492 428//492
f 428//493 427//493 429//493
f 428//494 429//494 420//494
f 420//495 429//495 430//495
f 420//495 430//495 419//495
f 347//496 431//496 88//496
f 88//497 431//497 432//497
f 88//498 432//498 90//498
f 90//499 432//499 433//499
f 90//500 433//500 344//500
f 344//501 433//501 434//501
f 344//502 434//502 435//502
f 435//503 434//503 436//503
f 435//504 436//504 426//504
f 426//505 436//505 437//505
f 426//506 437//506 427//506
f 390//507 438//507 439//507
f 166//508 162//508 387//508
f 387//509 162//509 390//509
f 387//510 390//510 440//510
f 440//511 390//511 439//511
f 438//512 390//512 441//512
f 441//513 390//513 442//513
f 441//514 442//514 443//514
f 443//515 442//515 444//515
f 443//516 444//516 445//516
f 446//517 447//517 448//517
f 448//518 447//518 449//518
f 448//519 449//519 444//519
f 444//520 449//520 450//520
f 444//521 450//521 445//521
f 446//522 448//522 451//522
f 451//523 448//523 452//523
f 451//524 452//524 453//524
f 454//525 455//525 456//525
f 456//526 455//526 457//526
f 456//527 457//527 452//527
f 452//528 457//528 458//528
f 452//529 458//529 453//529
f 454//530 456//530 459//530
f 459//531 456//531 460//531
f 459//532 460//532 461//532
f 330//533 462//533 332//533
f 332//534 462//534 463//534
f 332//535 463//535 460//535
f 460//536 463//536 464//536
f 460//537 464//537 461//537
f 288//538 287//538 415//538
f 415//539 287//539 416//539
f 415//540 416//540 465//540
f 465//541 416//541 466//541
f 465//542 466//542 467//542
f 467//543 466//543 468//543
f 468//543 466//543 469//543
f 469//544 466//544 470//544
f 469//545 470//545 471//545
f 422//488 472//488 423//488
f 423//546 472//546 473//546
f 423//547 473//547 470//547
f 470//548 473//548 474//548
f 470//549 474//549 471//549
