# Blender 4.5.10 LTS
# www.blender.org
mtllib converted_kuka_000000ff.mtl
o converted_kuka_000000ff
v -0.006324 -0.039901 0.054964
v -0.007751 -0.040389 0.054578
v -0.007751 -0.045043 0.050865
v -0.004897 -0.039134 0.055527
v -0.001377 -0.038189 0.056139
v -0.001377 -0.038156 0.056161
v -0.004897 -0.039412 0.055348
v -0.007747 -0.029522 0.061196
v -0.004897 -0.030604 0.060663
v -0.007750 -0.025776 0.062805
v -0.007751 -0.024019 0.063560
v -0.004897 -0.035115 0.058112
v -0.001377 -0.035065 0.058028
v -0.001377 -0.031935 0.059918
v 0.001547 -0.037153 0.056816
v 0.008516 -0.039666 0.055162
v 0.004472 -0.036118 0.057493
v 0.008516 -0.039124 0.055513
v 0.004472 -0.035110 0.058102
v 0.008516 -0.035115 0.058112
v 0.004472 -0.034096 0.058715
v 0.008516 -0.030321 0.060806
v 0.001547 -0.033016 0.059316
v 0.000371 -0.027200 0.062210
v 0.000357 -0.027195 0.062213
v -0.001377 0.031948 -0.059978
v -0.004897 0.030609 -0.060667
v -0.004897 0.033278 -0.059189
v -0.001377 0.035093 -0.058077
v -0.007751 0.029526 -0.061200
v -0.007751 0.024020 -0.063513
v 0.000382 0.027172 -0.062134
v 0.004472 0.034107 -0.058777
v 0.004472 0.035125 -0.058131
v 0.008516 0.033530 -0.059047
v 0.008516 0.030322 -0.060757
v -0.001377 0.038192 -0.056205
v -0.007751 0.045045 -0.050871
v 0.001547 0.037156 -0.056852
v 0.008516 0.039672 -0.055165
v 0.004472 0.036120 -0.057499
v 0.008516 0.036642 -0.057168
v 0.008516 0.035104 -0.058097
v -0.004897 0.035105 -0.058097
v -0.004897 0.036398 -0.057324
v -0.004897 0.039414 -0.055293
v -0.006324 0.039902 -0.054938
v -0.007751 0.040391 -0.054584
v 0.005528 0.012907 -0.066597
v 0.005468 0.012838 -0.066611
v 0.000562 0.013828 -0.066480
v -0.004625 0.012834 -0.066583
v -0.004628 0.012837 -0.066582
v -0.001670 0.016430 -0.065885
v -0.003582 0.018614 -0.065214
v -0.007751 0.016360 -0.065903
v -0.007751 0.023377 -0.063752
v 0.006380 0.020854 -0.064621
v 0.008516 0.023377 -0.063752
v 0.008516 0.016360 -0.065903
v 0.004526 0.018615 -0.065214
v 0.002539 0.007039 -0.067587
v -0.001505 0.007039 -0.067587
v 0.002539 0.009453 -0.067293
v -0.001505 0.009313 -0.067261
v -0.007751 0.007039 -0.067587
v -0.007751 0.001861 -0.067878
v 0.008516 0.001862 -0.067928
v 0.005528 0.007039 -0.067537
v 0.008516 0.007039 -0.067587
v -0.001987 -0.018447 -0.065349
v -0.004294 -0.023280 -0.063787
v -0.002978 -0.018015 -0.065469
v -0.005733 -0.022534 -0.064053
v -0.005958 -0.022417 -0.064095
v 0.008516 -0.018568 -0.065315
v 0.008516 -0.023503 -0.063705
v -0.001005 -0.018561 -0.065367
v -0.002082 -0.023503 -0.063705
v -0.003315 -0.023378 -0.063751
v 0.008516 -0.002674 -0.067851
v 0.008516 -0.007847 -0.067448
v -0.002082 -0.002672 -0.067900
v -0.001005 -0.007844 -0.067499
v -0.003484 -0.002767 -0.067846
v -0.002528 -0.008108 -0.067417
v -0.003337 -0.008735 -0.067338
v -0.006099 -0.004025 -0.067780
v -0.005442 -0.003434 -0.067816
v -0.007190 -0.020967 -0.064584
v -0.007360 -0.020500 -0.064728
v -0.003605 -0.017228 -0.065681
v -0.007913 -0.018978 -0.065196
v -0.003878 -0.015757 -0.066101
v -0.008053 -0.016875 -0.065824
v -0.003878 -0.013238 -0.066600
v -0.008053 -0.013238 -0.066600
v -0.003878 -0.010715 -0.067103
v -0.008053 -0.009582 -0.067273
v -0.003782 -0.009724 -0.067203
v -0.007710 -0.006609 -0.067581
v -0.006795 -0.004651 -0.067743
v 0.002539 -0.039887 -0.055014
v 0.008516 -0.039887 -0.055014
v 0.008516 -0.043971 -0.051741
v -0.004585 -0.034964 -0.058155
v -0.006552 -0.033028 -0.059316
v -0.003616 -0.029681 -0.060979
v -0.005505 -0.027670 -0.062008
v -0.007751 -0.031847 -0.060024
v -0.007751 -0.025196 -0.063055
v 0.005448 -0.034955 -0.058139
v 0.000562 -0.034127 -0.058704
v 0.005528 -0.034874 -0.058185
v 0.002690 -0.031802 -0.059995
v 0.008516 -0.031856 -0.059967
v 0.004561 -0.029680 -0.060977
v 0.008516 -0.025265 -0.063028
v -0.007751 -0.039887 -0.055014
v -0.004628 -0.039887 -0.054951
v -0.007751 -0.043971 -0.051807
v -0.001505 -0.039887 -0.055014
v -0.001505 -0.037995 -0.056337
v 0.002539 -0.037893 -0.056405
v -0.007751 -0.019886 0.064919
v -0.007751 -0.023371 0.063800
v -0.001661 -0.016394 0.065888
v 0.005528 -0.012905 0.066592
v 0.005468 -0.012836 0.066605
v 0.000562 -0.013824 0.066526
v -0.004636 -0.012841 0.066626
v -0.007751 -0.016355 0.065949
v 0.006380 -0.020852 0.064615
v 0.008516 -0.023375 0.063746
v 0.008516 -0.016358 0.065897
v 0.004526 -0.018612 0.065224
v 0.002539 -0.007037 0.067581
v -0.001505 -0.007037 0.067531
v 0.002539 -0.009451 0.067287
v -0.001505 -0.009309 0.067306
v -0.003137 -0.011151 0.066951
v 0.008516 -0.007037 0.067581
v 0.008516 -0.001860 0.067922
v -0.007751 -0.007037 0.067581
v -0.007751 -0.001860 0.067922
v 0.000382 -0.001859 0.067872
v -0.001987 0.018449 0.065343
v -0.004268 0.023290 0.063778
v -0.002978 0.018016 0.065463
v -0.005735 0.022545 0.064045
v -0.005914 0.022454 0.064077
v 0.008516 0.018570 0.065309
v 0.008516 0.023504 0.063700
v -0.001005 0.018562 0.065361
v -0.002082 0.023504 0.063700
v -0.003319 0.023383 0.063744
v -0.002082 0.002676 0.067845
v 0.008516 0.002675 0.067894
v 0.008516 0.004026 0.067790
v -0.002469 0.008101 0.067412
v -0.003852 0.002803 0.067839
v -0.001736 0.007975 0.067427
v -0.001005 0.007849 0.067442
v 0.008516 0.007849 0.067492
v -0.002819 0.008376 0.067378
v -0.005560 0.003523 0.067806
v -0.004844 0.003221 0.067819
v -0.008053 0.009589 0.067217
v -0.007858 0.007412 0.067484
v -0.003545 0.009251 0.067262
v -0.003310 0.008759 0.067330
v -0.006907 0.004891 0.067720
v -0.006683 0.004665 0.067735
v -0.007159 0.021022 0.064561
v -0.007355 0.020500 0.064722
v -0.003605 0.017230 0.065675
v -0.007901 0.019042 0.065173
v -0.003878 0.015761 0.066094
v -0.008053 0.016877 0.065766
v -0.003878 0.013253 0.066591
v -0.008053 0.013253 0.066591
v -0.003878 0.010721 0.067045
v -0.003805 0.009791 0.067188
v 0.005528 0.039889 0.054946
v 0.008516 0.039889 0.055008
v 0.008516 0.043973 0.051801
v -0.007751 0.043973 0.051735
v -0.007751 0.039889 0.054946
v -0.001505 0.039889 0.054946
v 0.002539 0.039889 0.055008
v 0.002539 0.037895 0.056399
v -0.001505 0.038012 0.056260
v 0.005462 0.034988 0.058188
v -0.004628 0.034934 0.058110
v -0.007751 0.031792 0.059995
v 0.000562 0.034129 0.058698
v -0.004623 0.034940 0.058108
v -0.007751 0.025198 0.063049
v -0.005504 0.027673 0.062002
v -0.003616 0.029683 0.060973
v 0.008516 0.025198 0.063103
v 0.008516 0.031857 0.060017
v 0.004561 0.029682 0.060988
v 0.005551 0.034899 0.058242
v 0.002689 0.031804 0.059989
v 0.005535 0.034915 0.058233
vn 0.0018 -0.6236 0.7818
vn 0.0031 -0.5515 0.8342
vn 0.0029 -0.6238 0.7816
vn 0.0224 -0.3945 0.9186
vn 0.0217 -0.3948 0.9185
vn -0.0012 -0.5408 0.8411
vn 0.0276 -0.5168 0.8557
vn 0.0276 -0.4920 0.8701
vn -0.0145 -0.5169 0.8559
vn 0.0496 -0.3842 0.9219
vn -0.0011 -0.5409 0.8411
vn 0.0485 -0.6371 0.7693
vn 0.0473 -0.6364 0.7699
vn -0.0196 -0.5872 0.8092
vn 0.0006 -0.5486 0.8361
vn 0.0074 -0.5432 0.8396
vn 0.0349 -0.5166 0.8555
vn -0.0027 -0.5439 0.8391
vn -0.0027 -0.5177 0.8556
vn 0.0067 -0.4899 0.8717
vn 0.0006 -0.4849 0.8746
vn -0.0177 -0.4483 0.8937
vn 0.0213 -0.4420 0.8968
vn 0.0112 -0.4390 0.8984
vn -0.0185 -0.4302 0.9026
vn -0.0130 0.4842 -0.8749
vn 0.0037 0.5172 -0.8558
vn 0.0255 0.3871 -0.9217
vn 0.0346 0.3837 -0.9228
vn -0.0043 0.4102 -0.9120
vn 0.0309 0.4207 -0.9067
vn 0.0200 0.5355 -0.8443
vn 0.0081 0.4703 -0.8825
vn -0.0210 0.4457 -0.8949
vn 0.0615 0.6480 -0.7591
vn -0.0179 0.5906 -0.8068
vn 0.0070 0.5435 -0.8394
vn -0.0029 0.5514 -0.8342
vn -0.0001 0.5361 -0.8441
vn 0.0099 0.5168 -0.8560
vn 0.0065 0.5132 -0.8582
vn 0.0065 0.5129 -0.8584
vn 0.0086 0.5170 -0.8559
vn -0.0210 0.5584 -0.8293
vn 0.0129 0.6216 -0.7833
vn 0.0188 0.6234 -0.7817
vn 0.0193 0.6235 -0.7816
vn 0.0117 0.1884 -0.9820
vn -0.0386 0.2221 -0.9743
vn -0.0645 0.2410 -0.9684
vn 0.0401 0.2233 -0.9739
vn -0.0005 0.2931 -0.9561
vn 0.0428 0.2928 -0.9552
vn 0.0115 0.1875 -0.9822
vn -0.0152 0.2673 -0.9635
vn -0.0150 0.2677 -0.9634
vn -0.0000 0.1211 -0.9926
vn -0.0126 0.1418 -0.9898
vn -0.0148 0.2096 -0.9777
vn -0.0028 0.1868 -0.9824
vn -0.0028 0.1178 -0.9930
vn -0.0201 0.2064 -0.9783
vn -0.0000 0.0560 -0.9984
vn -0.0031 0.0621 -0.9981
vn 0.0167 0.0848 -0.9963
vn -0.0167 0.0656 -0.9977
vn -0.0159 -0.3007 -0.9536
vn 0.0165 -0.3080 -0.9512
vn 0.0175 -0.3085 -0.9511
vn 0.0050 -0.3101 -0.9507
vn -0.0000 -0.3187 -0.9478
vn -0.0532 -0.3079 -0.9499
vn 0.0038 -0.3093 -0.9510
vn 0.0039 -0.3093 -0.9510
vn 0.0046 -0.0776 -0.9970
vn 0.0052 -0.0763 -0.9971
vn -0.0325 -0.0840 -0.9959
vn -0.0384 -0.0869 -0.9955
vn -0.0164 -0.1030 -0.9945
vn 0.0149 -0.0758 -0.9970
vn 0.0111 -0.0782 -0.9969
vn 0.0157 -0.3075 -0.9514
vn 0.0045 -0.2929 -0.9561
vn -0.0107 -0.2681 -0.9633
vn 0.0104 -0.2905 -0.9568
vn 0.0032 -0.2740 -0.9617
vn 0.0128 -0.2852 -0.9584
vn -0.0130 -0.1944 -0.9808
vn -0.0000 -0.2087 -0.9780
vn -0.0000 -0.1953 -0.9807
vn -0.0090 -0.1810 -0.9834
vn 0.0130 -0.1016 -0.9947
vn 0.0130 -0.1045 -0.9944
vn -0.0093 -0.1320 -0.9912
vn 0.0123 -0.0883 -0.9960
vn 0.0202 -0.0817 -0.9965
vn -0.0000 -0.6254 -0.7803
vn 0.0476 -0.4777 -0.8772
vn 0.0073 -0.4501 -0.8929
vn 0.0711 -0.4589 -0.8856
vn -0.0328 -0.4144 -0.9095
vn 0.0124 -0.5128 -0.8584
vn 0.0158 -0.4965 -0.8679
vn -0.0005 -0.5078 -0.8615
vn 0.0005 -0.4205 -0.9073
vn -0.0000 -0.4212 -0.9070
vn 0.0156 -0.6175 -0.7864
vn -0.0158 -0.6024 -0.7980
vn -0.0179 -0.4688 -0.8831
vn 0.0019 -0.5562 -0.8310
vn 0.0019 -0.5129 -0.8585
vn -0.0017 -0.5068 -0.8621
vn 0.0007 -0.5732 -0.8194
vn -0.0000 -0.5723 -0.8200
vn -0.0000 -0.6176 -0.7865
vn 0.0032 -0.6225 -0.7826
vn 0.0238 -0.3057 0.9518
vn 0.0205 -0.1810 0.9833
vn 0.0020 -0.0904 0.9959
vn -0.0232 -0.2218 0.9748
vn 0.0085 -0.1964 0.9805
vn 0.0078 -0.2799 0.9600
vn 0.0428 -0.2928 0.9552
vn 0.0203 -0.1802 0.9834
vn -0.0099 -0.2698 0.9629
vn -0.0098 -0.2700 0.9628
vn -0.0123 -0.1211 0.9926
vn 0.0011 -0.0988 0.9951
vn -0.0025 -0.1994 0.9799
vn 0.0021 -0.1908 0.9816
vn -0.0000 -0.0656 0.9978
vn 0.0080 -0.0656 0.9978
vn -0.0123 -0.0900 0.9959
vn 0.0062 -0.0534 0.9986
vn -0.0062 -0.0586 0.9983
vn -0.0160 0.3007 0.9536
vn 0.0166 0.3080 0.9513
vn 0.0158 0.3075 0.9514
vn 0.0050 0.3101 0.9507
vn -0.0000 0.3187 0.9478
vn -0.0532 0.3079 0.9499
vn 0.0036 0.3093 0.9510
vn 0.0043 0.3094 0.9509
vn -0.0046 0.0770 0.9970
vn -0.0056 0.0818 0.9966
vn 0.0025 0.0785 0.9969
vn -0.0075 0.0791 0.9968
vn -0.0048 0.0786 0.9969
vn -0.0052 0.0775 0.9970
vn -0.0200 0.0989 0.9949
vn 0.0130 0.0768 0.9970
vn 0.0125 0.0771 0.9969
vn -0.0008 0.1219 0.9925
vn -0.0063 0.1346 0.9909
vn 0.0055 0.0952 0.9954
vn -0.0108 0.1102 0.9938
vn 0.0159 0.0793 0.9967
vn 0.0168 0.0783 0.9968
vn 0.0159 0.3076 0.9514
vn 0.0047 0.2934 0.9560
vn -0.0108 0.2682 0.9633
vn 0.0110 0.2913 0.9566
vn 0.0030 0.2737 0.9618
vn -0.0049 0.2647 0.9643
vn -0.0250 0.1946 0.9806
vn -0.0000 0.2220 0.9750
vn -0.0000 0.1765 0.9843
vn -0.0052 0.1682 0.9857
vn -0.0005 0.1513 0.9885
vn 0.0003 0.1361 0.9907
vn -0.0163 0.6175 0.7864
vn -0.0032 0.6181 0.7861
vn -0.0000 0.6101 0.7923
vn 0.0165 0.6024 0.7980
vn -0.0119 0.6282 0.7779
vn -0.0126 0.5723 0.8200
vn -0.0116 0.5736 0.8191
vn -0.0147 0.5132 0.8582
vn -0.0149 0.5252 0.8509
vn -0.0411 0.4020 0.9147
vn -0.0403 0.4199 0.9067
vn 0.0149 0.4446 0.8956
vn 0.0148 0.4445 0.8956
vn -0.0084 0.4205 0.9073
vn -0.0431 0.4717 0.8807
vn 0.0459 0.4585 0.8875
vn 0.0088 0.4854 0.8742
vn 0.0042 0.4885 0.8726
vn -0.0042 0.5278 0.8494
vn -0.0093 0.5488 0.8359
vn -0.0093 0.5222 0.8527
s 0
usemtl material
f 1//1 2//1 3//1
f 4//2 5//2 6//2
f 1//3 3//3 7//3
f 8//4 9//4 10//4
f 10//5 9//5 11//5
f 4//6 6//6 12//6
f 12//7 6//7 13//7
f 12//8 13//8 9//8
f 9//9 13//9 14//9
f 9//10 14//10 11//10
f 4//11 7//11 5//11
f 5//12 7//12 3//12
f 5//13 3//13 15//13
f 15//14 3//14 16//14
f 15//15 16//15 17//15
f 17//16 16//16 18//16
f 17//17 18//17 19//17
f 19//18 18//18 20//18
f 19//19 20//19 21//19
f 21//20 20//20 22//20
f 21//21 22//21 23//21
f 23//22 22//22 24//22
f 23//23 24//23 14//23
f 14//24 24//24 25//24
f 14//25 25//25 11//25
f 26//26 27//26 28//26
f 26//27 28//27 29//27
f 30//28 27//28 31//28
f 31//29 27//29 26//29
f 31//30 26//30 32//30
f 32//31 26//31 33//31
f 34//32 35//32 33//32
f 33//33 35//33 36//33
f 33//34 36//34 32//34
f 37//35 38//35 39//35
f 39//36 38//36 40//36
f 39//37 40//37 41//37
f 41//38 40//38 42//38
f 41//39 42//39 34//39
f 34//40 42//40 43//40
f 34//40 43//40 35//40
f 28//41 44//41 29//41
f 29//42 44//42 45//42
f 29//43 45//43 37//43
f 37//44 45//44 46//44
f 37//45 46//45 38//45
f 38//46 46//46 47//46
f 38//47 47//47 48//47
f 49//48 50//48 51//48
f 52//49 53//49 54//49
f 54//50 53//50 55//50
f 55//51 53//51 56//51
f 55//52 56//52 57//52
f 58//53 59//53 60//53
f 49//54 51//54 60//54
f 60//55 51//55 61//55
f 60//56 61//56 58//56
f 62//57 63//57 64//57
f 64//58 63//58 65//58
f 64//59 65//59 50//59
f 50//60 65//60 52//60
f 50//61 52//61 51//61
f 51//62 52//62 54//62
f 66//63 63//63 67//63
f 67//63 63//63 62//63
f 67//64 62//64 68//64
f 68//65 62//65 69//65
f 68//66 69//66 70//66
f 71//67 72//67 73//67
f 73//68 72//68 74//68
f 73//69 74//69 75//69
f 76//70 77//70 78//70
f 78//71 77//71 79//71
f 78//72 79//72 71//72
f 71//73 79//73 80//73
f 71//74 80//74 72//74
f 81//75 82//75 83//75
f 83//76 82//76 84//76
f 83//77 84//77 85//77
f 85//78 84//78 86//78
f 87//79 88//79 86//79
f 86//80 88//80 89//80
f 86//81 89//81 85//81
f 75//82 90//82 73//82
f 73//83 90//83 91//83
f 73//84 91//84 92//84
f 92//85 91//85 93//85
f 92//86 93//86 94//86
f 94//87 93//87 95//87
f 94//88 95//88 96//88
f 96//89 95//89 97//89
f 96//90 97//90 98//90
f 98//91 97//91 99//91
f 98//92 99//92 100//92
f 100//93 99//93 101//93
f 100//94 101//94 87//94
f 87//95 101//95 102//95
f 87//96 102//96 88//96
f 103//97 104//97 105//97
f 106//98 107//98 108//98
f 108//99 107//99 109//99
f 109//100 107//100 110//100
f 109//101 110//101 111//101
f 112//102 113//102 114//102
f 114//103 113//103 115//103
f 114//104 115//104 116//104
f 116//105 115//105 117//105
f 116//106 117//106 118//106
f 119//107 120//107 121//107
f 121//108 120//108 122//108
f 108//109 113//109 106//109
f 106//110 113//110 112//110
f 106//111 112//111 123//111
f 123//112 112//112 124//112
f 123//113 124//113 122//113
f 122//114 124//114 103//114
f 122//115 103//115 121//115
f 121//116 103//116 105//116
f 125//117 126//117 127//117
f 128//118 129//118 130//118
f 130//119 129//119 131//119
f 130//120 131//120 127//120
f 127//121 131//121 132//121
f 127//122 132//122 125//122
f 133//123 134//123 135//123
f 128//124 130//124 135//124
f 135//125 130//125 136//125
f 135//126 136//126 133//126
f 137//127 138//127 139//127
f 139//128 138//128 140//128
f 139//129 140//129 129//129
f 129//130 140//130 141//130
f 129//130 141//130 131//130
f 137//131 142//131 143//131
f 144//132 138//132 145//132
f 145//133 138//133 137//133
f 145//134 137//134 146//134
f 146//135 137//135 143//135
f 147//136 148//136 149//136
f 149//137 148//137 150//137
f 149//138 150//138 151//138
f 152//139 153//139 154//139
f 154//140 153//140 155//140
f 154//141 155//141 147//141
f 147//142 155//142 156//142
f 147//143 156//143 148//143
f 157//144 158//144 159//144
f 160//145 161//145 162//145
f 162//146 161//146 157//146
f 162//147 157//147 163//147
f 163//148 157//148 159//148
f 163//149 159//149 164//149
f 165//150 166//150 160//150
f 160//151 166//151 167//151
f 160//152 167//152 161//152
f 168//153 169//153 170//153
f 170//154 169//154 171//154
f 171//155 169//155 172//155
f 171//156 172//156 165//156
f 165//157 172//157 173//157
f 165//158 173//158 166//158
f 151//159 174//159 149//159
f 149//160 174//160 175//160
f 149//161 175//161 176//161
f 176//162 175//162 177//162
f 176//163 177//163 178//163
f 178//164 177//164 179//164
f 178//165 179//165 180//165
f 180//166 179//166 181//166
f 180//167 181//167 182//167
f 182//168 181//168 168//168
f 182//169 168//169 183//169
f 183//170 168//170 170//170
f 184//171 185//171 186//171
f 187//172 188//172 186//172
f 186//173 188//173 189//173
f 184//174 186//174 190//174
f 190//175 186//175 189//175
f 190//176 189//176 191//176
f 191//177 189//177 192//177
f 191//178 192//178 193//178
f 194//179 195//179 196//179
f 194//180 196//180 197//180
f 198//181 199//181 195//181
f 195//182 199//182 200//182
f 195//183 200//183 196//183
f 201//184 202//184 203//184
f 203//185 202//185 204//185
f 203//186 204//186 205//186
f 205//187 204//187 206//187
f 205//188 206//188 196//188
f 196//189 206//189 193//189
f 196//190 193//190 197//190
f 197//191 193//191 192//191
