# Blender 4.5.10 LTS
# www.blender.org
mtllib iiwa_link3_resp_coll_2.mtl
o node
v -0.065925 0.034772 0.012252
v 0.067087 -0.006087 0.005782
v -0.069196 0.013448 0.010965
v -0.066276 -0.016752 0.145013
v -0.065925 0.034772 0.012252
v -0.069196 0.013448 0.010965
v 0.067087 -0.006087 0.005782
v 0.065451 0.035528 0.015048
v 0.069507 0.013453 0.011002
v -0.065925 0.034772 0.012252
v 0.065451 0.035528 0.015048
v 0.067087 -0.006087 0.005782
v 0.067875 -0.038771 0.145015
v 0.067087 -0.006087 0.005782
v 0.069507 0.013453 0.011002
v 0.066331 -0.014858 0.145014
v 0.067875 -0.038771 0.145015
v 0.069507 0.013453 0.011002
v -0.057252 -0.013216 0.018401
v 0.000159 -0.092767 0.112649
v -0.020227 -0.085873 0.106632
v 0.061383 0.038822 0.027304
v 0.065451 0.035528 0.015048
v -0.065925 0.034772 0.012252
v 0.065451 0.035528 0.015048
v 0.061383 0.038822 0.027304
v 0.066331 -0.014858 0.145014
v 0.067886 0.021192 0.018601
v 0.066331 -0.014858 0.145014
v 0.069507 0.013453 0.011002
v 0.065451 0.035528 0.015048
v 0.067886 0.021192 0.018601
v 0.069507 0.013453 0.011002
v 0.067886 0.021192 0.018601
v 0.065451 0.035528 0.015048
v 0.066331 -0.014858 0.145014
v -0.056849 0.041447 0.037101
v 0.061383 0.038822 0.027304
v -0.065925 0.034772 0.012252
v -0.064305 -0.054598 0.145013
v -0.033511 -0.091115 0.145020
v -0.066276 -0.016752 0.145013
v 0.067087 -0.006087 0.005782
v -0.067638 0.003224 0.013530
v -0.069196 0.013448 0.010965
v -0.057252 -0.013216 0.018401
v -0.067638 0.003224 0.013530
v 0.067087 -0.006087 0.005782
v -0.067638 0.003224 0.013530
v -0.066108 -0.041515 0.124663
v -0.069196 0.013448 0.010965
v -0.033511 -0.091115 0.145020
v -0.011684 -0.099060 0.145015
v 0.005241 -0.100047 0.145016
v 0.006130 -0.080773 0.096910
v -0.057252 -0.013216 0.018401
v 0.067087 -0.006087 0.005782
v 0.006130 -0.080773 0.096910
v 0.000159 -0.092767 0.112649
v -0.057252 -0.013216 0.018401
v -0.056849 0.041447 0.037101
v 0.031464 0.049827 0.068375
v 0.061383 0.038822 0.027304
v -0.061237 0.038653 0.026732
v -0.056849 0.041447 0.037101
v -0.065925 0.034772 0.012252
v 0.043501 -0.084588 0.145027
v -0.033511 -0.091115 0.145020
v 0.005241 -0.100047 0.145016
v 0.056537 -0.066623 0.125669
v 0.043046 -0.081455 0.123621
v 0.067087 -0.006087 0.005782
v 0.031146 -0.092561 0.145013
v 0.043501 -0.084588 0.145027
v 0.005241 -0.100047 0.145016
v 0.043501 -0.084588 0.145027
v 0.031146 -0.092561 0.145013
v 0.043046 -0.081455 0.123621
v 0.020546 -0.085872 0.106631
v 0.006130 -0.080773 0.096910
v 0.067087 -0.006087 0.005782
v 0.006130 -0.080773 0.096910
v 0.020546 -0.085872 0.106631
v 0.000159 -0.092767 0.112649
v -0.033511 -0.091115 0.145020
v -0.060514 -0.001181 0.145013
v -0.066276 -0.016752 0.145013
v -0.060514 -0.001181 0.145013
v -0.065925 0.034772 0.012252
v -0.066276 -0.016752 0.145013
v -0.060514 -0.001181 0.145013
v -0.061237 0.038653 0.026732
v -0.065925 0.034772 0.012252
v -0.056849 0.041447 0.037101
v -0.049705 0.044703 0.049607
v -0.042517 0.047595 0.060164
v -0.049705 0.044703 0.049607
v -0.037917 0.025376 0.145006
v -0.042517 0.047595 0.060164
v -0.014130 0.051750 0.075554
v -0.033751 0.049395 0.066764
v -0.023812 0.050806 0.072181
v -0.033751 0.049395 0.066764
v -0.056849 0.041447 0.037101
v -0.042517 0.047595 0.060164
v -0.033751 0.049395 0.066764
v -0.014130 0.051750 0.075554
v 0.000333 0.052249 0.077416
v 0.031464 0.049827 0.068375
v -0.033751 0.049395 0.066764
v 0.000333 0.052249 0.077416
v -0.033751 0.049395 0.066764
v 0.031464 0.049827 0.068375
v -0.056849 0.041447 0.037101
v -0.060514 -0.001181 0.145013
v -0.021701 0.032586 0.145013
v -0.037917 0.025376 0.145006
v -0.033751 0.049395 0.066764
v -0.021701 0.032586 0.145013
v -0.023812 0.050806 0.072181
v -0.037917 0.025376 0.145006
v -0.021701 0.032586 0.145013
v -0.042517 0.047595 0.060164
v -0.021701 0.032586 0.145013
v -0.033751 0.049395 0.066764
v -0.042517 0.047595 0.060164
v -0.068115 -0.032135 0.145012
v -0.064305 -0.054598 0.145013
v -0.066276 -0.016752 0.145013
v -0.064305 -0.054598 0.145013
v -0.068115 -0.032135 0.145012
v -0.066108 -0.041515 0.124663
v -0.068115 -0.032135 0.145012
v -0.066276 -0.016752 0.145013
v -0.069196 0.013448 0.010965
v -0.066108 -0.041515 0.124663
v -0.068115 -0.032135 0.145012
v -0.069196 0.013448 0.010965
v -0.042648 -0.081321 0.123204
v -0.042074 -0.085327 0.145013
v -0.052844 -0.075246 0.145008
v -0.042074 -0.085327 0.145013
v -0.042648 -0.081321 0.123204
v -0.033511 -0.091115 0.145020
v -0.042074 -0.085327 0.145013
v -0.064305 -0.054598 0.145013
v -0.052844 -0.075246 0.145008
v -0.064305 -0.054598 0.145013
v -0.042074 -0.085327 0.145013
v -0.033511 -0.091115 0.145020
v -0.019726 -0.095205 0.125951
v -0.042648 -0.081321 0.123204
v -0.020227 -0.085873 0.106632
v -0.042648 -0.081321 0.123204
v -0.019726 -0.095205 0.125951
v -0.033511 -0.091115 0.145020
v 0.000159 -0.092767 0.112649
v -0.019726 -0.095205 0.125951
v -0.020227 -0.085873 0.106632
v -0.037948 -0.074320 0.103246
v -0.057252 -0.013216 0.018401
v -0.020227 -0.085873 0.106632
v -0.042648 -0.081321 0.123204
v -0.037948 -0.074320 0.103246
v -0.020227 -0.085873 0.106632
v -0.037948 -0.074320 0.103246
v -0.042648 -0.081321 0.123204
v -0.057252 -0.013216 0.018401
v -0.062447 -0.054322 0.125176
v -0.064305 -0.054598 0.145013
v -0.066108 -0.041515 0.124663
v -0.067638 0.003224 0.013530
v -0.062447 -0.054322 0.125176
v -0.066108 -0.041515 0.124663
v -0.042648 -0.081321 0.123204
v -0.056276 -0.066666 0.125919
v -0.057252 -0.013216 0.018401
v -0.056276 -0.066666 0.125919
v -0.067638 0.003224 0.013530
v -0.057252 -0.013216 0.018401
v -0.056276 -0.066666 0.125919
v -0.062447 -0.054322 0.125176
v -0.067638 0.003224 0.013530
v -0.056276 -0.066666 0.125919
v -0.042648 -0.081321 0.123204
v -0.052844 -0.075246 0.145008
v -0.064305 -0.054598 0.145013
v -0.056276 -0.066666 0.125919
v -0.052844 -0.075246 0.145008
v -0.062447 -0.054322 0.125176
v -0.056276 -0.066666 0.125919
v -0.064305 -0.054598 0.145013
v 0.061383 0.038822 0.027304
v 0.040336 0.024115 0.145022
v 0.066331 -0.014858 0.145014
v 0.040336 0.024115 0.145022
v 0.067875 -0.038771 0.145015
v 0.066331 -0.014858 0.145014
v 0.040336 0.024115 0.145022
v 0.043501 -0.084588 0.145027
v 0.067875 -0.038771 0.145015
v 0.040336 0.024115 0.145022
v -0.021701 0.032586 0.145013
v -0.060514 -0.001181 0.145013
v 0.043501 -0.084588 0.145027
v 0.040336 0.024115 0.145022
v -0.033511 -0.091115 0.145020
v 0.040336 0.024115 0.145022
v -0.060514 -0.001181 0.145013
v -0.033511 -0.091115 0.145020
v 0.043046 -0.081455 0.123621
v 0.038266 -0.074320 0.103245
v 0.067087 -0.006087 0.005782
v 0.038266 -0.074320 0.103245
v 0.020546 -0.085872 0.106631
v 0.067087 -0.006087 0.005782
v 0.020546 -0.085872 0.106631
v 0.006500 -0.098388 0.126746
v 0.000159 -0.092767 0.112649
v 0.006500 -0.098388 0.126746
v -0.019726 -0.095205 0.125951
v 0.000159 -0.092767 0.112649
v 0.006500 -0.098388 0.126746
v 0.031146 -0.092561 0.145013
v 0.005241 -0.100047 0.145016
v -0.011684 -0.099060 0.145015
v 0.006500 -0.098388 0.126746
v 0.005241 -0.100047 0.145016
v -0.019726 -0.095205 0.125951
v 0.006500 -0.098388 0.126746
v -0.011684 -0.099060 0.145015
v -0.004520 0.052195 0.077215
v 0.001819 0.036020 0.145013
v 0.000333 0.052249 0.077416
v -0.014130 0.051750 0.075554
v -0.004520 0.052195 0.077215
v 0.000333 0.052249 0.077416
v -0.054940 0.008226 0.145004
v -0.060514 -0.001181 0.145013
v -0.037917 0.025376 0.145006
v -0.054940 0.008226 0.145004
v -0.049705 0.044703 0.049607
v -0.056849 0.041447 0.037101
v -0.049705 0.044703 0.049607
v -0.054940 0.008226 0.145004
v -0.037917 0.025376 0.145006
v -0.061237 0.038653 0.026732
v -0.054940 0.008226 0.145004
v -0.056849 0.041447 0.037101
v -0.060514 -0.001181 0.145013
v -0.054940 0.008226 0.145004
v -0.061237 0.038653 0.026732
v -0.004520 0.052195 0.077215
v -0.010028 0.035229 0.145013
v 0.001819 0.036020 0.145013
v -0.010028 0.035229 0.145013
v -0.004520 0.052195 0.077215
v -0.014130 0.051750 0.075554
v -0.010028 0.035229 0.145013
v 0.040336 0.024115 0.145022
v 0.001819 0.036020 0.145013
v 0.040336 0.024115 0.145022
v -0.010028 0.035229 0.145013
v -0.021701 0.032586 0.145013
v -0.010028 0.035229 0.145013
v -0.014130 0.051750 0.075554
v -0.023812 0.050806 0.072181
v -0.021701 0.032586 0.145013
v -0.010028 0.035229 0.145013
v -0.023812 0.050806 0.072181
v -0.023059 -0.095946 0.145013
v -0.011684 -0.099060 0.145015
v -0.033511 -0.091115 0.145020
v -0.019726 -0.095205 0.125951
v -0.023059 -0.095946 0.145013
v -0.033511 -0.091115 0.145020
v -0.023059 -0.095946 0.145013
v -0.019726 -0.095205 0.125951
v -0.011684 -0.099060 0.145015
v 0.001819 0.036020 0.145013
v 0.009650 0.052029 0.076595
v 0.000333 0.052249 0.077416
v 0.014788 0.051726 0.075464
v 0.009650 0.052029 0.076595
v 0.001819 0.036020 0.145013
v 0.009650 0.052029 0.076595
v 0.031464 0.049827 0.068375
v 0.000333 0.052249 0.077416
v 0.009650 0.052029 0.076595
v 0.014788 0.051726 0.075464
v 0.031464 0.049827 0.068375
v 0.013751 0.034649 0.145013
v 0.014788 0.051726 0.075464
v 0.001819 0.036020 0.145013
v 0.040336 0.024115 0.145022
v 0.013751 0.034649 0.145013
v 0.001819 0.036020 0.145013
v 0.067875 -0.038771 0.145015
v 0.066464 -0.041613 0.125037
v 0.067087 -0.006087 0.005782
v 0.063204 -0.058055 0.145011
v 0.066464 -0.041613 0.125037
v 0.067875 -0.038771 0.145015
v 0.062713 -0.054502 0.125286
v 0.056537 -0.066623 0.125669
v 0.067087 -0.006087 0.005782
v 0.062713 -0.054502 0.125286
v 0.063204 -0.058055 0.145011
v 0.056537 -0.066623 0.125669
v 0.066464 -0.041613 0.125037
v 0.062713 -0.054502 0.125286
v 0.067087 -0.006087 0.005782
v 0.062713 -0.054502 0.125286
v 0.066464 -0.041613 0.125037
v 0.063204 -0.058055 0.145011
v 0.063204 -0.058055 0.145011
v 0.053953 -0.073614 0.145018
v 0.056537 -0.066623 0.125669
v 0.053953 -0.073614 0.145018
v 0.043501 -0.084588 0.145027
v 0.043046 -0.081455 0.123621
v 0.056537 -0.066623 0.125669
v 0.053953 -0.073614 0.145018
v 0.043046 -0.081455 0.123621
v 0.043501 -0.084588 0.145027
v 0.053953 -0.073614 0.145018
v 0.067875 -0.038771 0.145015
v 0.053953 -0.073614 0.145018
v 0.063204 -0.058055 0.145011
v 0.067875 -0.038771 0.145015
v 0.026375 -0.092246 0.125344
v 0.038266 -0.074320 0.103245
v 0.043046 -0.081455 0.123621
v 0.038266 -0.074320 0.103245
v 0.026375 -0.092246 0.125344
v 0.020546 -0.085872 0.106631
v 0.026375 -0.092246 0.125344
v 0.006500 -0.098388 0.126746
v 0.020546 -0.085872 0.106631
v 0.031146 -0.092561 0.145013
v 0.026375 -0.092246 0.125344
v 0.043046 -0.081455 0.123621
v 0.006500 -0.098388 0.126746
v 0.026375 -0.092246 0.125344
v 0.031146 -0.092561 0.145013
v 0.014788 0.051726 0.075464
v 0.024184 0.050754 0.072084
v 0.031464 0.049827 0.068375
v 0.024184 0.050754 0.072084
v 0.013751 0.034649 0.145013
v 0.031464 0.049827 0.068375
v 0.013751 0.034649 0.145013
v 0.024184 0.050754 0.072084
v 0.014788 0.051726 0.075464
v 0.013751 0.034649 0.145013
v 0.025118 0.031501 0.145013
v 0.031464 0.049827 0.068375
v 0.025118 0.031501 0.145013
v 0.013751 0.034649 0.145013
v 0.040336 0.024115 0.145022
v 0.031464 0.049827 0.068375
v 0.055569 0.042301 0.040290
v 0.061383 0.038822 0.027304
v 0.051011 0.044215 0.047918
v 0.055569 0.042301 0.040290
v 0.031464 0.049827 0.068375
v 0.055569 0.042301 0.040290
v 0.040336 0.024115 0.145022
v 0.061383 0.038822 0.027304
v 0.055569 0.042301 0.040290
v 0.051011 0.044215 0.047918
v 0.040336 0.024115 0.145022
v 0.041708 0.047297 0.060717
v 0.051011 0.044215 0.047918
v 0.031464 0.049827 0.068375
v 0.051011 0.044215 0.047918
v 0.041708 0.047297 0.060717
v 0.040336 0.024115 0.145022
v 0.025118 0.031501 0.145013
v 0.041708 0.047297 0.060717
v 0.031464 0.049827 0.068375
v 0.041708 0.047297 0.060717
v 0.025118 0.031501 0.145013
v 0.040336 0.024115 0.145022
vn -0.0287 0.0646 -0.9975
vn -0.9874 0.1482 0.0549
vn 0.2566 0.2197 -0.9412
vn 0.0195 0.2180 -0.9757
vn 0.9929 -0.1143 -0.0325
vn 0.9972 0.0644 0.0372
vn -0.0854 -0.7864 -0.6118
vn -0.0000 0.9657 -0.2596
vn 0.8759 0.4519 0.1693
vn 0.9868 0.1521 0.0555
vn 0.9841 0.1750 0.0317
vn 0.9811 0.1825 0.0641
vn -0.0001 0.9658 -0.2594
vn -0.0003 -0.0000 1.0000
vn -0.0730 -0.2532 -0.9647
vn -0.0768 -0.3275 -0.9417
vn -0.9852 -0.1632 -0.0521
vn -0.0001 -0.0009 1.0000
vn -0.0212 -0.7662 -0.6422
vn -0.0648 -0.7817 -0.6203
vn -0.0000 0.9659 -0.2588
vn -0.0132 0.9669 -0.2549
vn -0.0000 -0.0006 1.0000
vn 0.7327 -0.6313 -0.2543
vn 0.0011 -0.0034 1.0000
vn 0.5375 -0.8327 -0.1333
vn 0.1102 -0.8036 -0.5849
vn 0.1033 -0.8096 -0.5778
vn -0.0001 -0.0000 1.0000
vn -0.9297 0.3441 0.1311
vn -0.8740 0.4589 0.1599
vn -0.1208 0.9753 -0.1849
vn -0.6327 0.7400 0.2281
vn -0.0185 0.9753 -0.2201
vn -0.0084 0.9675 -0.2527
vn -0.0000 0.9660 -0.2587
vn -0.0009 0.0011 1.0000
vn -0.2640 0.9338 0.2413
vn -0.3931 0.8840 0.2528
vn -0.3714 0.8944 0.2493
vn -0.0004 -0.0000 1.0000
vn -0.9857 -0.1672 -0.0201
vn -0.9918 0.1185 0.0483
vn -0.9906 -0.1319 -0.0369
vn -0.6788 -0.7252 -0.1153
vn -0.5548 -0.8208 -0.1361
vn -0.0016 -0.0011 1.0000
vn -0.0015 -0.0011 1.0000
vn -0.4455 -0.8106 -0.3801
vn -0.4947 -0.8513 -0.1750
vn -0.1751 -0.8883 -0.4246
vn -0.4190 -0.7793 -0.4659
vn -0.4501 -0.8042 -0.3881
vn -0.5747 -0.7205 -0.3881
vn -0.9563 -0.2771 -0.0934
vn -0.9558 -0.2772 -0.0984
vn -0.7255 -0.6189 -0.3011
vn -0.7734 -0.5705 -0.2766
vn -0.8735 -0.4481 -0.1904
vn -0.7374 -0.6557 -0.1621
vn -0.8727 -0.4844 -0.0608
vn -0.8887 -0.4497 -0.0895
vn 0.8128 0.5421 0.2131
vn 0.0005 0.0001 1.0000
vn 0.0004 0.0001 1.0000
vn -0.0001 0.0002 1.0000
vn 0.5075 -0.7691 -0.3884
vn 0.4354 -0.7929 -0.4263
vn 0.1725 -0.8858 -0.4307
vn -0.1040 -0.9391 -0.3276
vn 0.2770 -0.9585 -0.0679
vn -0.0579 -0.9939 -0.0942
vn -0.1146 -0.9820 -0.1502
vn -0.0205 0.9721 0.2338
vn -0.0001 0.9661 -0.2582
vn -0.0026 0.0025 1.0000
vn -0.6985 0.6804 0.2218
vn -0.6916 0.6865 0.2245
vn -0.8037 0.5646 0.1880
vn -0.8471 0.5021 0.1743
vn -0.0647 0.9693 0.2373
vn -0.0855 0.9681 0.2353
vn -0.0000 0.0008 1.0000
vn -0.1760 0.9553 0.2376
vn -0.2143 0.9461 0.2429
vn -0.0014 -0.0043 1.0000
vn -0.4172 -0.9024 -0.1080
vn -0.2631 -0.9612 -0.0834
vn 0.0434 0.9717 0.2323
vn 0.1093 0.9650 0.2383
vn 0.0001 0.9660 -0.2585
vn 0.1108 0.9648 0.2385
vn -0.0000 0.0009 1.0000
vn 0.9845 -0.1696 -0.0454
vn 0.9713 -0.2353 -0.0351
vn 0.8788 -0.4526 -0.1512
vn 0.8849 -0.4541 -0.1038
vn 0.9568 -0.2800 -0.0784
vn 0.9571 -0.2800 -0.0743
vn 0.8574 -0.5098 -0.0697
vn 0.7192 -0.6851 -0.1156
vn 0.7421 -0.6559 -0.1379
vn 0.0013 -0.0004 1.0000
vn 0.0018 -0.0006 1.0000
vn 0.4722 -0.7915 -0.3880
vn 0.4722 -0.7915 -0.3879
vn 0.4420 -0.7981 -0.4095
vn 0.2484 -0.8907 -0.3807
vn 0.5276 -0.8377 -0.1414
vn 0.2887 -0.9536 -0.0853
vn 0.0453 0.9865 -0.1576
vn 0.2430 0.9393 0.2422
vn 0.1839 0.9539 0.2370
vn 0.2588 0.9344 0.2449
vn 0.0009 0.0032 1.0000
vn 0.0001 0.9659 -0.2587
vn 0.0641 0.9763 -0.2066
vn 0.8062 0.5519 0.2131
vn 0.6676 0.7111 0.2206
vn 0.1439 0.9808 -0.1316
vn 0.5722 0.7883 0.2261
vn 0.4008 0.8830 0.2443
vn 0.4230 0.8719 0.2466
s 1
usemtl material_0
f 1//1 2//1 3//1
f 4//2 5//2 6//2
f 7//3 8//3 9//3
f 10//4 11//4 12//4
f 13//5 14//5 15//5
f 16//6 17//6 18//6
f 19//7 20//7 21//7
f 22//8 23//8 24//8
f 25//9 26//9 27//9
f 28//10 29//10 30//10
f 31//11 32//11 33//11
f 34//12 35//12 36//12
f 37//13 38//13 39//13
f 40//14 41//14 42//14
f 43//15 44//15 45//15
f 46//16 47//16 48//16
f 49//17 50//17 51//17
f 52//18 53//18 54//18
f 55//19 56//19 57//19
f 58//20 59//20 60//20
f 61//21 62//21 63//21
f 64//22 65//22 66//22
f 67//23 68//23 69//23
f 70//24 71//24 72//24
f 73//25 74//25 75//25
f 76//26 77//26 78//26
f 79//27 80//27 81//27
f 82//28 83//28 84//28
f 85//29 86//29 87//29
f 88//30 89//30 90//30
f 91//31 92//31 93//31
f 94//32 95//32 96//32
f 97//33 98//33 99//33
f 100//34 101//34 102//34
f 103//35 104//35 105//35
f 106//36 107//36 108//36
f 109//21 110//21 111//21
f 112//21 113//21 114//21
f 115//37 116//37 117//37
f 118//38 119//38 120//38
f 121//39 122//39 123//39
f 124//40 125//40 126//40
f 127//41 128//41 129//41
f 130//42 131//42 132//42
f 133//43 134//43 135//43
f 136//44 137//44 138//44
f 139//45 140//45 141//45
f 142//46 143//46 144//46
f 145//47 146//47 147//47
f 148//48 149//48 150//48
f 151//49 152//49 153//49
f 154//50 155//50 156//50
f 157//51 158//51 159//51
f 160//52 161//52 162//52
f 163//53 164//53 165//53
f 166//54 167//54 168//54
f 169//55 170//55 171//55
f 172//56 173//56 174//56
f 175//57 176//57 177//57
f 178//58 179//58 180//58
f 181//59 182//59 183//59
f 184//60 185//60 186//60
f 187//61 188//61 189//61
f 190//62 191//62 192//62
f 193//63 194//63 195//63
f 196//64 197//64 198//64
f 199//65 200//65 201//65
f 202//66 203//66 204//66
f 205//29 206//29 207//29
f 208//29 209//29 210//29
f 211//67 212//67 213//67
f 214//68 215//68 216//68
f 217//69 218//69 219//69
f 220//70 221//70 222//70
f 223//71 224//71 225//71
f 226//72 227//72 228//72
f 229//73 230//73 231//73
f 232//74 233//74 234//74
f 235//75 236//75 237//75
f 238//76 239//76 240//76
f 241//77 242//77 243//77
f 244//78 245//78 246//78
f 247//79 248//79 249//79
f 250//80 251//80 252//80
f 253//81 254//81 255//81
f 256//82 257//82 258//82
f 259//83 260//83 261//83
f 262//66 263//66 264//66
f 265//84 266//84 267//84
f 268//85 269//85 270//85
f 271//86 272//86 273//86
f 274//87 275//87 276//87
f 277//88 278//88 279//88
f 280//89 281//89 282//89
f 283//90 284//90 285//90
f 286//21 287//21 288//21
f 289//91 290//91 291//91
f 292//92 293//92 294//92
f 295//93 296//93 297//93
f 298//94 299//94 300//94
f 301//95 302//95 303//95
f 304//96 305//96 306//96
f 307//97 308//97 309//97
f 310//98 311//98 312//98
f 313//99 314//99 315//99
f 316//100 317//100 318//100
f 319//101 320//101 321//101
f 322//102 323//102 324//102
f 325//103 326//103 327//103
f 328//104 329//104 330//104
f 331//105 332//105 333//106
f 334//107 335//107 336//107
f 337//108 338//108 339//108
f 340//109 341//109 342//109
f 343//110 344//110 345//110
f 346//111 347//111 348//111
f 349//112 350//112 351//112
f 352//113 353//113 354//113
f 355//114 356//114 357//114
f 358//115 359//115 360//115
f 361//116 362//116 363//116
f 364//117 365//117 366//117
f 367//118 368//118 369//118
f 370//119 371//119 372//119
f 373//120 374//120 375//120
f 376//121 377//121 378//121
f 379//122 380//122 381//122
f 382//123 383//123 384//123
