# Blender 4.5.10 LTS
# www.blender.org
mtllib iiwa_link4_resp_coll_2.mtl
o node
v -0.041865 0.034861 -0.076396
v -0.039567 0.068857 0.010020
v -0.021830 0.044635 -0.082930
v -0.039567 0.068857 0.010020
v -0.041865 0.034861 -0.076396
v -0.049143 0.035764 -0.049196
v -0.055754 0.029302 -0.011124
v -0.049143 0.035764 -0.049196
v -0.068499 -0.022750 0.071403
v 0.000003 0.048501 -0.082040
v 0.021824 0.044685 -0.082852
v -0.021830 0.044635 -0.082930
v -0.041865 0.034861 -0.076396
v 0.041919 0.034922 -0.076258
v 0.018634 -0.020195 -0.011370
v 0.021824 0.044685 -0.082852
v 0.041919 0.034922 -0.076258
v -0.021830 0.044635 -0.082930
v 0.041919 0.034922 -0.076258
v -0.041865 0.034861 -0.076396
v -0.021830 0.044635 -0.082930
v 0.032467 -0.022845 0.013147
v -0.004177 -0.022633 0.005960
v 0.018634 -0.020195 -0.011370
v 0.032467 -0.022845 0.013147
v -0.052260 -0.022761 0.117829
v -0.068499 -0.022750 0.071403
v 0.032467 -0.022845 0.013147
v 0.062311 -0.022748 0.046735
v 0.068120 -0.022751 0.067311
v -0.019345 -0.022756 0.139252
v 0.003451 -0.022759 0.141813
v -0.005031 0.017486 0.139095
v -0.019345 -0.022756 0.139252
v 0.032467 -0.022845 0.013147
v 0.003451 -0.022759 0.141813
v 0.032467 -0.022845 0.013147
v -0.019345 -0.022756 0.139252
v -0.052260 -0.022761 0.117829
v -0.027075 0.016373 0.134269
v -0.019345 -0.022756 0.139252
v -0.005031 0.017486 0.139095
v 0.055644 0.027288 -0.034171
v 0.041919 0.034922 -0.076258
v 0.049210 0.035751 -0.049256
v 0.062311 -0.022748 0.046735
v 0.055644 0.027288 -0.034171
v 0.068120 -0.022751 0.067311
v 0.041919 0.034922 -0.076258
v 0.055644 0.027288 -0.034171
v 0.062311 -0.022748 0.046735
v 0.000003 0.048501 -0.082040
v 0.000284 0.084991 0.017259
v 0.021824 0.044685 -0.082852
v 0.000284 0.084991 0.017259
v 0.000003 0.048501 -0.082040
v -0.021830 0.044635 -0.082930
v -0.004177 -0.022633 0.005960
v -0.006259 -0.020203 -0.009571
v 0.018634 -0.020195 -0.011370
v -0.006259 -0.020203 -0.009571
v -0.041865 0.034861 -0.076396
v 0.018634 -0.020195 -0.011370
v -0.052150 0.049786 0.010222
v -0.061567 0.027755 0.073730
v -0.050715 0.061395 0.049490
v -0.055754 0.029302 -0.011124
v -0.052150 0.049786 0.010222
v -0.049143 0.035764 -0.049196
v -0.052150 0.049786 0.010222
v -0.039567 0.068857 0.010020
v -0.049143 0.035764 -0.049196
v -0.040097 0.077019 0.043676
v -0.052150 0.049786 0.010222
v -0.050715 0.061395 0.049490
v -0.052150 0.049786 0.010222
v -0.040097 0.077019 0.043676
v -0.039567 0.068857 0.010020
v -0.010418 0.090320 0.073184
v 0.016296 0.088932 0.071787
v -0.003475 0.091255 0.051235
v -0.026127 0.085545 0.047174
v -0.010418 0.090320 0.073184
v -0.003475 0.091255 0.051235
v -0.010418 0.090320 0.073184
v -0.005195 0.084995 0.093897
v 0.016296 0.088932 0.071787
v -0.061567 0.027755 0.073730
v -0.052125 0.056726 0.073811
v -0.050715 0.061395 0.049490
v -0.053912 0.042080 0.095677
v -0.052125 0.056726 0.073811
v -0.061567 0.027755 0.073730
v -0.052260 -0.022761 0.117829
v -0.063450 -0.022723 0.101370
v -0.068499 -0.022750 0.071403
v 0.041919 0.034922 -0.076258
v 0.049242 -0.022654 0.027399
v 0.018634 -0.020195 -0.011370
v 0.049242 -0.022654 0.027399
v 0.041919 0.034922 -0.076258
v 0.062311 -0.022748 0.046735
v 0.049242 -0.022654 0.027399
v 0.032467 -0.022845 0.013147
v 0.018634 -0.020195 -0.011370
v 0.032467 -0.022845 0.013147
v 0.049242 -0.022654 0.027399
v 0.062311 -0.022748 0.046735
v 0.039640 0.068851 0.010027
v 0.041919 0.034922 -0.076258
v 0.021824 0.044685 -0.082852
v 0.041919 0.034922 -0.076258
v 0.039640 0.068851 0.010027
v 0.049210 0.035751 -0.049256
v -0.062231 -0.022749 0.046708
v 0.032467 -0.022845 0.013147
v -0.068499 -0.022750 0.071403
v -0.049143 0.035764 -0.049196
v -0.062231 -0.022749 0.046708
v -0.068499 -0.022750 0.071403
v -0.041865 0.034861 -0.076396
v -0.062231 -0.022749 0.046708
v -0.049143 0.035764 -0.049196
v -0.019345 -0.022756 0.139252
v -0.039795 -0.022755 0.129933
v -0.052260 -0.022761 0.117829
v -0.027075 0.016373 0.134269
v -0.039795 -0.022755 0.129933
v -0.019345 -0.022756 0.139252
v -0.039795 -0.022755 0.129933
v -0.041735 0.023783 0.125542
v -0.052260 -0.022761 0.117829
v -0.041735 0.023783 0.125542
v -0.039795 -0.022755 0.129933
v -0.027075 0.016373 0.134269
v 0.055644 0.027288 -0.034171
v 0.065788 0.007389 0.068067
v 0.068120 -0.022751 0.067311
v 0.065788 0.007389 0.068067
v 0.055644 0.027288 -0.034171
v 0.056194 0.046754 0.048215
v 0.065788 0.007389 0.068067
v 0.066889 -0.022751 0.087777
v 0.068120 -0.022751 0.067311
v 0.052193 0.056729 0.073811
v 0.039300 0.079362 0.066277
v 0.041222 0.070901 0.093934
v 0.052193 0.056729 0.073811
v 0.050785 0.061395 0.049504
v 0.039300 0.079362 0.066277
v 0.053981 0.042080 0.095677
v 0.052193 0.056729 0.073811
v 0.041222 0.070901 0.093934
v 0.050785 0.061395 0.049504
v 0.052193 0.056729 0.073811
v 0.056194 0.046754 0.048215
v -0.039567 0.068857 0.010020
v -0.021231 0.080584 0.014756
v -0.021830 0.044635 -0.082930
v -0.021231 0.080584 0.014756
v 0.000284 0.084991 0.017259
v -0.021830 0.044635 -0.082930
v -0.040097 0.077019 0.043676
v -0.021231 0.080584 0.014756
v -0.039567 0.068857 0.010020
v -0.026127 0.085545 0.047174
v -0.021231 0.080584 0.014756
v -0.040097 0.077019 0.043676
v 0.000284 0.084991 0.017259
v -0.021231 0.080584 0.014756
v -0.003475 0.091255 0.051235
v -0.021231 0.080584 0.014756
v -0.026127 0.085545 0.047174
v -0.003475 0.091255 0.051235
v -0.052150 0.049786 0.010222
v -0.058203 0.032780 0.035219
v -0.061567 0.027755 0.073730
v -0.058203 0.032780 0.035219
v -0.052150 0.049786 0.010222
v -0.055754 0.029302 -0.011124
v -0.005322 0.073580 0.111768
v -0.016089 0.057872 0.123810
v 0.020172 0.057148 0.122767
v -0.016089 0.057872 0.123810
v -0.005322 0.073580 0.111768
v -0.027005 0.071603 0.106510
v -0.005322 0.073580 0.111768
v -0.005195 0.084995 0.093897
v -0.027005 0.071603 0.106510
v -0.016089 0.057872 0.123810
v 0.000034 0.038231 0.133988
v 0.020172 0.057148 0.122767
v 0.000034 0.038231 0.133988
v 0.021984 0.037343 0.130929
v 0.020172 0.057148 0.122767
v 0.021984 0.037343 0.130929
v 0.041382 0.051984 0.114830
v 0.020172 0.057148 0.122767
v 0.041382 0.051984 0.114830
v 0.053981 0.042080 0.095677
v 0.041222 0.070901 0.093934
v -0.005195 0.084995 0.093897
v -0.026515 0.081720 0.088584
v -0.027005 0.071603 0.106510
v -0.026515 0.081720 0.088584
v -0.005195 0.084995 0.093897
v -0.010418 0.090320 0.073184
v -0.041153 0.070883 0.093977
v -0.052125 0.056726 0.073811
v -0.053912 0.042080 0.095677
v -0.026515 0.081720 0.088584
v -0.041153 0.070883 0.093977
v -0.027005 0.071603 0.106510
v -0.066825 -0.001141 0.079081
v -0.053912 0.042080 0.095677
v -0.061567 0.027755 0.073730
v -0.066825 -0.001141 0.079081
v -0.063450 -0.022723 0.101370
v -0.053912 0.042080 0.095677
v -0.063450 -0.022723 0.101370
v -0.066825 -0.001141 0.079081
v -0.068499 -0.022750 0.071403
v -0.066825 -0.001141 0.079081
v -0.055754 0.029302 -0.011124
v -0.068499 -0.022750 0.071403
v -0.058203 0.032780 0.035219
v -0.066825 -0.001141 0.079081
v -0.061567 0.027755 0.073730
v -0.066825 -0.001141 0.079081
v -0.058203 0.032780 0.035219
v -0.055754 0.029302 -0.011124
v 0.000284 0.084991 0.017259
v 0.021282 0.080589 0.014771
v 0.021824 0.044685 -0.082852
v 0.021282 0.080589 0.014771
v 0.039640 0.068851 0.010027
v 0.021824 0.044685 -0.082852
v 0.039640 0.068851 0.010027
v 0.051028 0.050783 0.006917
v 0.049210 0.035751 -0.049256
v 0.051028 0.050783 0.006917
v 0.055644 0.027288 -0.034171
v 0.049210 0.035751 -0.049256
v 0.055644 0.027288 -0.034171
v 0.051028 0.050783 0.006917
v 0.056194 0.046754 0.048215
v 0.051028 0.050783 0.006917
v 0.050785 0.061395 0.049504
v 0.056194 0.046754 0.048215
v 0.032467 -0.022845 0.013147
v -0.036698 -0.022625 0.017287
v -0.004177 -0.022633 0.005960
v -0.062231 -0.022749 0.046708
v -0.036698 -0.022625 0.017287
v 0.032467 -0.022845 0.013147
v -0.006259 -0.020203 -0.009571
v -0.036698 -0.022625 0.017287
v -0.041865 0.034861 -0.076396
v -0.052371 0.017748 0.113035
v -0.063450 -0.022723 0.101370
v -0.052260 -0.022761 0.117829
v -0.041735 0.023783 0.125542
v -0.052371 0.017748 0.113035
v -0.052260 -0.022761 0.117829
v -0.063450 -0.022723 0.101370
v -0.052371 0.017748 0.113035
v -0.053912 0.042080 0.095677
v -0.021915 0.037343 0.130929
v -0.041735 0.023783 0.125542
v -0.027075 0.016373 0.134269
v -0.021915 0.037343 0.130929
v 0.000034 0.038231 0.133988
v -0.016089 0.057872 0.123810
v -0.021915 0.037343 0.130929
v -0.027075 0.016373 0.134269
v -0.005031 0.017486 0.139095
v 0.000034 0.038231 0.133988
v -0.021915 0.037343 0.130929
v -0.005031 0.017486 0.139095
v 0.064533 0.011131 0.083599
v 0.052193 0.056729 0.073811
v 0.053981 0.042080 0.095677
v 0.064533 0.011131 0.083599
v 0.053981 0.042080 0.095677
v 0.060627 -0.000330 0.102362
v 0.064533 0.011131 0.083599
v 0.065788 0.007389 0.068067
v 0.056194 0.046754 0.048215
v 0.052193 0.056729 0.073811
v 0.064533 0.011131 0.083599
v 0.056194 0.046754 0.048215
v 0.066889 -0.022751 0.087777
v 0.064533 0.011131 0.083599
v 0.060627 -0.000330 0.102362
v 0.065788 0.007389 0.068067
v 0.064533 0.011131 0.083599
v 0.066889 -0.022751 0.087777
v 0.021894 0.073133 0.108097
v -0.005322 0.073580 0.111768
v 0.020172 0.057148 0.122767
v 0.021894 0.073133 0.108097
v 0.041382 0.051984 0.114830
v 0.041222 0.070901 0.093934
v 0.041382 0.051984 0.114830
v 0.021894 0.073133 0.108097
v 0.020172 0.057148 0.122767
v -0.005322 0.073580 0.111768
v 0.021894 0.073133 0.108097
v -0.005195 0.084995 0.093897
v 0.057316 -0.022774 0.111278
v 0.066889 -0.022751 0.087777
v 0.060627 -0.000330 0.102362
v 0.057316 -0.022774 0.111278
v 0.032467 -0.022845 0.013147
v 0.068120 -0.022751 0.067311
v 0.066889 -0.022751 0.087777
v 0.057316 -0.022774 0.111278
v 0.068120 -0.022751 0.067311
v 0.032467 -0.022845 0.013147
v 0.057316 -0.022774 0.111278
v 0.003451 -0.022759 0.141813
v 0.057316 -0.022774 0.111278
v 0.021623 -0.022755 0.138453
v 0.003451 -0.022759 0.141813
v 0.021623 -0.022755 0.138453
v 0.057316 -0.022774 0.111278
v 0.037755 -0.022756 0.131329
v 0.041735 0.023452 0.125711
v 0.041382 0.051984 0.114830
v 0.021984 0.037343 0.130929
v 0.057316 -0.022774 0.111278
v 0.041735 0.023452 0.125711
v 0.037755 -0.022756 0.131329
v -0.041316 0.051979 0.114829
v -0.041153 0.070883 0.093977
v -0.053912 0.042080 0.095677
v -0.052371 0.017748 0.113035
v -0.041316 0.051979 0.114829
v -0.053912 0.042080 0.095677
v -0.041316 0.051979 0.114829
v -0.052371 0.017748 0.113035
v -0.041735 0.023783 0.125542
v -0.041153 0.070883 0.093977
v -0.041316 0.051979 0.114829
v -0.027005 0.071603 0.106510
v -0.041316 0.051979 0.114829
v -0.016089 0.057872 0.123810
v -0.027005 0.071603 0.106510
v -0.041316 0.051979 0.114829
v -0.021915 0.037343 0.130929
v -0.016089 0.057872 0.123810
v -0.021915 0.037343 0.130929
v -0.041316 0.051979 0.114829
v -0.041735 0.023783 0.125542
v -0.052125 0.056726 0.073811
v -0.039231 0.079360 0.066322
v -0.050715 0.061395 0.049490
v -0.041153 0.070883 0.093977
v -0.039231 0.079360 0.066322
v -0.052125 0.056726 0.073811
v -0.039231 0.079360 0.066322
v -0.040097 0.077019 0.043676
v -0.050715 0.061395 0.049490
v -0.039231 0.079360 0.066322
v -0.041153 0.070883 0.093977
v -0.026515 0.081720 0.088584
v -0.039231 0.079360 0.066322
v -0.026127 0.085545 0.047174
v -0.040097 0.077019 0.043676
v -0.039231 0.079360 0.066322
v -0.010418 0.090320 0.073184
v -0.026127 0.085545 0.047174
v -0.039231 0.079360 0.066322
v -0.026515 0.081720 0.088584
v -0.010418 0.090320 0.073184
v 0.021282 0.080589 0.014771
v 0.040160 0.077013 0.043598
v 0.039640 0.068851 0.010027
v 0.050785 0.061395 0.049504
v 0.040160 0.077013 0.043598
v 0.039300 0.079362 0.066277
v 0.051028 0.050783 0.006917
v 0.040160 0.077013 0.043598
v 0.050785 0.061395 0.049504
v 0.040160 0.077013 0.043598
v 0.051028 0.050783 0.006917
v 0.039640 0.068851 0.010027
v -0.015935 -0.022431 0.008246
v -0.006259 -0.020203 -0.009571
v -0.004177 -0.022633 0.005960
v -0.036698 -0.022625 0.017287
v -0.015935 -0.022431 0.008246
v -0.004177 -0.022633 0.005960
v -0.015935 -0.022431 0.008246
v -0.036698 -0.022625 0.017287
v -0.006259 -0.020203 -0.009571
v -0.049101 -0.022647 0.027393
v -0.062231 -0.022749 0.046708
v -0.041865 0.034861 -0.076396
v -0.036698 -0.022625 0.017287
v -0.049101 -0.022647 0.027393
v -0.041865 0.034861 -0.076396
v -0.049101 -0.022647 0.027393
v -0.036698 -0.022625 0.017287
v -0.062231 -0.022749 0.046708
v -0.005195 0.084995 0.093897
v 0.021393 0.083622 0.089972
v 0.016296 0.088932 0.071787
v 0.021894 0.073133 0.108097
v 0.021393 0.083622 0.089972
v -0.005195 0.084995 0.093897
v 0.021393 0.083622 0.089972
v 0.021894 0.073133 0.108097
v 0.041222 0.070901 0.093934
v 0.039300 0.079362 0.066277
v 0.021393 0.083622 0.089972
v 0.041222 0.070901 0.093934
v 0.016296 0.088932 0.071787
v 0.021393 0.083622 0.089972
v 0.039300 0.079362 0.066277
v 0.022006 0.018226 0.136163
v 0.041735 0.023452 0.125711
v 0.021984 0.037343 0.130929
v 0.022006 0.018226 0.136163
v 0.021623 -0.022755 0.138453
v 0.037755 -0.022756 0.131329
v 0.041735 0.023452 0.125711
v 0.022006 0.018226 0.136163
v 0.037755 -0.022756 0.131329
v 0.022006 0.018226 0.136163
v 0.000034 0.038231 0.133988
v -0.005031 0.017486 0.139095
v 0.000034 0.038231 0.133988
v 0.022006 0.018226 0.136163
v 0.021984 0.037343 0.130929
v 0.003451 -0.022759 0.141813
v 0.022006 0.018226 0.136163
v -0.005031 0.017486 0.139095
v 0.021623 -0.022755 0.138453
v 0.022006 0.018226 0.136163
v 0.003451 -0.022759 0.141813
v 0.052500 0.017560 0.113005
v 0.057316 -0.022774 0.111278
v 0.060627 -0.000330 0.102362
v 0.052500 0.017560 0.113005
v 0.041735 0.023452 0.125711
v 0.057316 -0.022774 0.111278
v 0.041735 0.023452 0.125711
v 0.052500 0.017560 0.113005
v 0.041382 0.051984 0.114830
v 0.053981 0.042080 0.095677
v 0.052500 0.017560 0.113005
v 0.060627 -0.000330 0.102362
v 0.041382 0.051984 0.114830
v 0.052500 0.017560 0.113005
v 0.053981 0.042080 0.095677
v 0.024083 0.086574 0.047326
v 0.040160 0.077013 0.043598
v 0.021282 0.080589 0.014771
v 0.016296 0.088932 0.071787
v 0.024083 0.086574 0.047326
v -0.003475 0.091255 0.051235
v 0.024083 0.086574 0.047326
v 0.016296 0.088932 0.071787
v 0.039300 0.079362 0.066277
v 0.040160 0.077013 0.043598
v 0.024083 0.086574 0.047326
v 0.039300 0.079362 0.066277
v 0.024083 0.086574 0.047326
v 0.000284 0.084991 0.017259
v -0.003475 0.091255 0.051235
v 0.024083 0.086574 0.047326
v 0.021282 0.080589 0.014771
v 0.000284 0.084991 0.017259
vn -0.4963 0.8123 -0.3064
vn -0.7551 0.6167 -0.2225
vn -0.9832 -0.0410 -0.1777
vn 0.0015 0.2162 -0.9763
vn 0.0016 -0.7624 -0.6471
vn 0.0021 -0.5567 -0.8307
vn 0.0018 -0.5583 -0.8296
vn 0.0172 -0.9930 -0.1170
vn -0.0009 -1.0000 0.0001
vn 0.0050 -1.0000 -0.0016
vn -0.1115 0.0435 0.9928
vn -0.0002 -1.0000 0.0006
vn -0.2170 0.0810 0.9728
vn 0.9336 0.2469 -0.2597
vn 0.9189 -0.2972 -0.2595
vn 0.8182 -0.4563 -0.3496
vn 0.1496 0.9279 -0.3414
vn -0.1504 0.9281 -0.3406
vn -0.0108 -0.9881 -0.1532
vn -0.0447 -0.7825 -0.6210
vn -0.9600 0.2761 -0.0466
vn -0.9505 0.2883 -0.1161
vn -0.8235 0.5415 -0.1694
vn -0.8416 0.5256 -0.1246
vn -0.8266 0.5438 -0.1449
vn 0.0549 0.9967 0.0598
vn -0.2385 0.9705 -0.0341
vn 0.0626 0.9703 0.2337
vn -0.9508 0.3098 0.0044
vn -0.9430 0.3070 0.1285
vn -0.0062 -1.0000 0.0020
vn 0.5056 -0.7386 -0.4460
vn 0.6117 -0.6724 -0.4167
vn 0.1900 -0.9589 -0.2108
vn 0.0364 -0.9989 -0.0295
vn 0.4955 0.8128 -0.3065
vn 0.7547 0.6171 -0.2227
vn -0.0011 -1.0000 -0.0004
vn -0.9529 -0.1832 -0.2418
vn -0.9493 -0.1935 -0.2476
vn -0.0005 -1.0000 0.0010
vn -0.4144 0.0339 0.9095
vn -0.6962 0.0386 0.7169
vn -0.4873 0.0619 0.8711
vn 0.9934 0.0790 -0.0832
vn 0.9762 0.2096 -0.0560
vn 0.9953 0.0755 0.0599
vn 0.8501 0.5173 0.0992
vn 0.8611 0.5063 0.0473
vn 0.8915 0.4067 0.1996
vn 0.9383 0.3456 0.0120
vn -0.4560 0.8361 -0.3049
vn -0.1505 0.9281 -0.3406
vn -0.4868 0.8471 -0.2131
vn -0.4727 0.8576 -0.2026
vn -0.1747 0.9647 -0.1972
vn -0.2102 0.9612 -0.1788
vn -0.9614 0.2707 -0.0487
vn -0.9677 0.2425 -0.0693
vn 0.0350 0.5928 0.8046
vn -0.2299 0.6864 0.6899
vn -0.2029 0.8259 0.5261
vn 0.0348 0.4822 0.8754
vn 0.1426 0.3883 0.9104
vn 0.4039 0.3799 0.8322
vn 0.8476 0.3966 0.3525
vn -0.2474 0.8467 0.4710
vn -0.2163 0.9310 0.2939
vn -0.8915 0.4067 0.1996
vn -0.4264 0.7927 0.4357
vn -0.9576 0.2107 0.1965
vn -0.9391 0.1647 0.3017
vn -0.9860 0.0173 0.1661
vn -0.9906 0.1071 -0.0854
vn -0.9838 0.1672 -0.0641
vn -0.9839 0.1667 -0.0645
vn 0.1541 0.9276 -0.3403
vn 0.4558 0.8362 -0.3050
vn 0.8196 0.5463 -0.1727
vn 0.8938 0.4251 -0.1427
vn 0.9391 0.3331 -0.0850
vn 0.9325 0.3518 -0.0823
vn -0.0038 -0.9999 -0.0102
vn -0.0036 -1.0000 -0.0073
vn -0.3547 -0.8055 -0.4747
vn -0.8252 0.0641 0.5612
vn -0.7767 0.0719 0.6258
vn -0.9347 0.1652 0.3146
vn -0.4041 0.2400 0.8826
vn -0.1430 0.3603 0.9218
vn -0.2192 0.2058 0.9537
vn -0.1436 0.2695 0.9522
vn 0.9531 0.2817 0.1108
vn 0.9297 0.1950 0.3126
vn 0.9691 0.2458 0.0191
vn 0.9618 0.2700 0.0451
vn 0.9604 0.0989 0.2603
vn 0.9951 0.0768 0.0619
vn 0.1105 0.6655 0.7382
vn 0.4990 0.6443 0.5795
vn 0.4047 0.5942 0.6950
vn 0.0862 0.8394 0.5367
vn 0.9260 0.0132 0.3772
vn 0.0025 -1.0000 0.0001
vn 0.0027 -1.0000 0.0001
vn 0.0001 -1.0000 0.0007
vn 0.0004 -1.0000 0.0012
vn 0.0005 -1.0000 0.0014
vn 0.4477 0.3234 0.8336
vn 0.7156 0.0232 0.6981
vn -0.8477 0.3963 0.3526
vn -0.8631 0.2559 0.4354
vn -0.7932 0.2265 0.5652
vn -0.5333 0.6288 0.5658
vn -0.3898 0.5856 0.7108
vn -0.3888 0.3984 0.8307
vn -0.4478 0.3234 0.8336
vn -0.8611 0.5062 0.0473
vn -0.8501 0.5172 0.0995
vn -0.8312 0.5554 -0.0257
vn -0.5287 0.8211 0.2150
vn -0.5070 0.8591 -0.0695
vn -0.3655 0.9295 0.0501
vn -0.3775 0.9184 0.1183
vn 0.4865 0.8472 -0.2135
vn 0.8311 0.5555 -0.0260
vn 0.8417 0.5250 -0.1260
vn 0.8255 0.5453 -0.1454
vn -0.0458 -0.9879 -0.1484
vn -0.0383 -0.9933 -0.1094
vn -0.0582 -0.9862 -0.1549
vn -0.6079 -0.6758 -0.4168
vn -0.3803 -0.7975 -0.4684
vn -0.0058 -0.9999 -0.0092
vn 0.0876 0.9626 0.2565
vn 0.1175 0.8609 0.4950
vn 0.4184 0.7911 0.4462
vn 0.4945 0.8402 0.2227
vn 0.4099 0.9001 0.1479
vn 0.4034 0.2420 0.8824
vn 0.4035 0.0473 0.9138
vn 0.4527 0.0691 0.8890
vn 0.0995 0.2149 0.9716
vn 0.1436 0.2615 0.9545
vn 0.1050 0.0890 0.9905
vn 0.1816 0.0532 0.9819
vn 0.8523 0.0796 0.5169
vn 0.7762 0.0658 0.6271
vn 0.7924 0.2259 0.5667
vn 0.9112 0.1996 0.3603
vn 0.8631 0.2557 0.4355
vn 0.4665 0.8619 -0.1986
vn 0.1613 0.9859 -0.0437
vn 0.3912 0.9196 0.0359
vn 0.4977 0.8645 -0.0706
vn 0.1425 0.9761 -0.1642
vn 0.1794 0.9647 -0.1928
s 1
usemtl material_0
f 1//1 2//1 3//1
f 4//2 5//2 6//2
f 7//3 8//3 9//3
f 10//4 11//4 12//4
f 13//5 14//5 15//5
f 16//6 17//6 18//6
f 19//7 20//7 21//7
f 22//8 23//8 24//8
f 25//9 26//9 27//9
f 28//10 29//10 30//10
f 31//11 32//11 33//11
f 34//12 35//12 36//12
f 37//12 38//12 39//12
f 40//13 41//13 42//13
f 43//14 44//14 45//14
f 46//15 47//15 48//15
f 49//16 50//16 51//16
f 52//17 53//17 54//17
f 55//18 56//18 57//18
f 58//19 59//19 60//19
f 61//20 62//20 63//20
f 64//21 65//21 66//21
f 67//22 68//22 69//22
f 70//23 71//23 72//23
f 73//24 74//24 75//24
f 76//25 77//25 78//25
f 79//26 80//26 81//26
f 82//27 83//27 84//27
f 85//28 86//28 87//28
f 88//29 89//29 90//29
f 91//30 92//30 93//30
f 94//31 95//31 96//31
f 97//32 98//32 99//32
f 100//33 101//33 102//33
f 103//34 104//34 105//34
f 106//35 107//35 108//35
f 109//36 110//36 111//36
f 112//37 113//37 114//37
f 115//38 116//38 117//38
f 118//39 119//39 120//39
f 121//40 122//40 123//40
f 124//41 125//41 126//41
f 127//42 128//42 129//42
f 130//43 131//43 132//43
f 133//44 134//44 135//44
f 136//45 137//45 138//45
f 139//46 140//46 141//46
f 142//47 143//47 144//47
f 145//48 146//48 147//48
f 148//49 149//49 150//49
f 151//50 152//50 153//50
f 154//51 155//51 156//51
f 157//52 158//52 159//52
f 160//53 161//53 162//53
f 163//54 164//54 165//54
f 166//55 167//55 168//55
f 169//56 170//56 171//56
f 172//57 173//57 174//57
f 175//58 176//58 177//58
f 178//59 179//59 180//59
f 181//60 182//60 183//60
f 184//61 185//61 186//61
f 187//62 188//62 189//62
f 190//63 191//63 192//63
f 193//64 194//64 195//64
f 196//65 197//65 198//65
f 199//66 200//66 201//66
f 202//67 203//67 204//67
f 205//68 206//68 207//68
f 208//69 209//69 210//69
f 211//70 212//70 213//70
f 214//71 215//71 216//71
f 217//72 218//72 219//72
f 220//73 221//73 222//73
f 223//74 224//74 225//74
f 226//75 227//75 228//75
f 229//76 230//76 231//76
f 232//77 233//77 234//77
f 235//78 236//78 237//78
f 238//79 239//79 240//79
f 241//80 242//80 243//80
f 244//81 245//81 246//81
f 247//82 248//82 249//82
f 250//83 251//83 252//83
f 253//84 254//84 255//84
f 256//85 257//85 258//85
f 259//86 260//86 261//86
f 262//87 263//87 264//87
f 265//88 266//88 267//88
f 268//89 269//89 270//89
f 271//90 272//90 273//90
f 274//91 275//91 276//91
f 277//92 278//92 279//92
f 280//93 281//93 282//93
f 283//94 284//94 285//94
f 286//95 287//95 288//95
f 289//96 290//96 291//96
f 292//97 293//97 294//97
f 295//98 296//98 297//98
f 298//99 299//99 300//99
f 301//100 302//100 303//100
f 304//101 305//101 306//101
f 307//102 308//102 309//102
f 310//103 311//103 312//103
f 313//104 314//104 315//104
f 316//105 317//105 318//105
f 319//106 320//106 321//106
f 322//107 323//107 324//107
f 325//108 326//108 327//108
f 328//109 329//109 330//109
f 331//110 332//110 333//110
f 334//111 335//111 336//111
f 337//112 338//112 339//112
f 340//113 341//113 342//113
f 343//114 344//114 345//114
f 346//115 347//115 348//115
f 349//116 350//116 351//116
f 352//117 353//117 354//117
f 355//118 356//118 357//118
f 358//119 359//119 360//119
f 361//120 362//120 363//120
f 364//121 365//121 366//121
f 367//122 368//122 369//122
f 370//123 371//123 372//123
f 373//124 374//124 375//124
f 376//125 377//125 378//125
f 379//126 380//126 381//126
f 382//127 383//127 384//127
f 385//128 386//128 387//128
f 388//129 389//129 390//129
f 391//130 392//130 393//130
f 394//131 395//131 396//131
f 397//132 398//132 399//132
f 400//133 401//133 402//133
f 403//134 404//134 405//134
f 406//135 407//135 408//135
f 409//136 410//136 411//136
f 412//137 413//137 414//137
f 415//138 416//138 417//138
f 418//139 419//139 420//139
f 421//140 422//140 423//140
f 424//141 425//141 426//141
f 427//142 428//142 429//142
f 430//143 431//143 432//143
f 433//144 434//144 435//144
f 436//145 437//145 438//145
f 439//146 440//146 441//146
f 442//147 443//147 444//147
f 445//148 446//148 447//148
f 448//149 449//149 450//149
f 451//150 452//150 453//150
f 454//151 455//151 456//151
f 457//152 458//152 459//152
f 460//153 461//153 462//153
f 463//154 464//154 465//154
f 466//155 467//155 468//155
f 469//156 470//156 471//156
f 472//157 473//157 474//157
