# Blender 4.5.10 LTS
# www.blender.org
mtllib iiwa_robot_base_coll_1.mtl
o node
v -0.067130 0.062121 -0.066564
v -0.067075 -0.061906 -0.065294
v -0.081402 0.006519 0.073563
v -0.055184 -0.083835 -0.020787
v -0.064973 -0.060170 0.025402
v -0.067075 -0.061906 -0.065294
v -0.056625 0.082828 -0.066631
v 0.007261 0.111054 -0.078663
v -0.067130 0.062121 -0.066564
v -0.064973 -0.060170 0.025402
v -0.077901 -0.020541 0.072554
v -0.067075 -0.061906 -0.065294
v -0.070209 -0.036355 0.078837
v -0.077901 -0.020541 0.072554
v -0.064973 -0.060170 0.025402
v -0.067075 -0.061906 -0.065294
v -0.077901 -0.020541 0.072554
v -0.081402 0.006519 0.073563
v -0.019582 -0.095219 -0.001279
v 0.043541 -0.092038 -0.001275
v 0.002647 -0.095710 0.011419
v 0.003141 -0.085446 0.078837
v -0.019582 -0.095219 -0.001279
v 0.002647 -0.095710 0.011419
v -0.056108 -0.081790 -0.067072
v -0.055184 -0.083835 -0.020787
v -0.067075 -0.061906 -0.065294
v -0.056108 -0.081790 -0.067072
v -0.019582 -0.095219 -0.001279
v -0.055184 -0.083835 -0.020787
v 0.043541 -0.092038 -0.001275
v -0.056108 -0.081790 -0.067072
v 0.069209 -0.074283 -0.065285
v -0.019582 -0.095219 -0.001279
v -0.056108 -0.081790 -0.067072
v 0.043541 -0.092038 -0.001275
v 0.102635 -0.009738 0.011419
v 0.100935 -0.031922 -0.001273
v 0.105703 0.010361 -0.001270
v 0.102635 -0.009738 0.011419
v 0.092890 -0.006014 0.078840
v 0.100935 -0.031922 -0.001273
v 0.092890 -0.006014 0.078840
v 0.102635 -0.009738 0.011419
v 0.105703 0.010361 -0.001270
v 0.092890 -0.006014 0.078840
v 0.054871 0.071191 0.078837
v 0.038465 0.079763 0.078837
v 0.054871 0.071191 0.078837
v 0.044273 0.091848 -0.001249
v 0.038465 0.079763 0.078837
v 0.044273 0.091848 -0.001249
v 0.054871 0.071191 0.078837
v 0.067120 0.076174 0.009822
v 0.007261 0.111054 -0.078663
v -0.056462 0.086147 -0.029436
v 0.010602 0.114764 -0.053021
v -0.056462 0.086147 -0.029436
v 0.007261 0.111054 -0.078663
v -0.056625 0.082828 -0.066631
v -0.056462 0.086147 -0.029436
v -0.056625 0.082828 -0.066631
v -0.067130 0.062121 -0.066564
v 0.081598 0.062002 -0.065285
v 0.073104 -0.066296 -0.067313
v 0.073102 0.066409 -0.067314
v 0.073104 -0.066296 -0.067313
v 0.007261 0.111054 -0.078663
v 0.073102 0.066409 -0.067314
v -0.056108 -0.081790 -0.067072
v 0.073104 -0.066296 -0.067313
v 0.069209 -0.074283 -0.065285
v 0.073104 -0.066296 -0.067313
v -0.056108 -0.081790 -0.067072
v 0.007261 0.111054 -0.078663
v 0.081598 0.062002 -0.065285
v 0.092068 0.050898 -0.000881
v 0.105703 0.010361 -0.001270
v 0.070963 0.082549 -0.066981
v 0.044273 0.091848 -0.001249
v 0.067120 0.076174 0.009822
v 0.092068 0.050898 -0.000881
v 0.070963 0.082549 -0.066981
v 0.067120 0.076174 0.009822
v 0.070963 0.082549 -0.066981
v 0.092068 0.050898 -0.000881
v 0.081598 0.062002 -0.065285
v 0.007261 0.111054 -0.078663
v 0.070963 0.082549 -0.066981
v 0.073102 0.066409 -0.067314
v 0.070963 0.082549 -0.066981
v 0.081598 0.062002 -0.065285
v 0.073102 0.066409 -0.067314
v 0.002112 0.085498 0.078837
v 0.020601 0.084607 0.078837
v 0.010602 0.114764 -0.053021
v 0.020601 0.084607 0.078837
v 0.092890 -0.006014 0.078840
v 0.038465 0.079763 0.078837
v 0.092890 -0.006014 0.078840
v 0.020601 0.084607 0.078837
v 0.002112 0.085498 0.078837
v -0.016135 0.082394 0.078837
v 0.002112 0.085498 0.078837
v 0.010602 0.114764 -0.053021
v -0.016135 0.082394 0.078837
v -0.056462 0.086147 -0.029436
v -0.033289 0.075439 0.078837
v 0.092890 -0.006014 0.078840
v -0.016135 0.082394 0.078837
v -0.033289 0.075439 0.078837
v -0.016135 0.082394 0.078837
v 0.092890 -0.006014 0.078840
v 0.002112 0.085498 0.078837
v -0.077901 -0.020541 0.072554
v -0.076224 -0.018850 0.078837
v -0.081402 0.006519 0.073563
v -0.076224 -0.018850 0.078837
v -0.077901 -0.020541 0.072554
v -0.070209 -0.036355 0.078837
v 0.092890 -0.006014 0.078840
v -0.076224 -0.018850 0.078837
v -0.070209 -0.036355 0.078837
v -0.076224 -0.018850 0.078837
v 0.092890 -0.006014 0.078840
v -0.076446 0.017952 0.078837
v 0.067648 -0.078861 -0.000255
v 0.043541 -0.092038 -0.001275
v 0.069209 -0.074283 -0.065285
v 0.043541 -0.092038 -0.001275
v 0.023341 -0.094463 0.011419
v 0.002647 -0.095710 0.011419
v 0.023341 -0.094463 0.011419
v 0.003141 -0.085446 0.078837
v 0.002647 -0.095710 0.011419
v -0.067130 0.062121 -0.066564
v -0.059398 -0.065583 -0.066848
v -0.067075 -0.061906 -0.065294
v -0.059398 -0.065583 -0.066848
v -0.056108 -0.081790 -0.067072
v -0.067075 -0.061906 -0.065294
v 0.007261 0.111054 -0.078663
v -0.059398 -0.065583 -0.066848
v -0.067130 0.062121 -0.066564
v -0.056108 -0.081790 -0.067072
v -0.059398 -0.065583 -0.066848
v 0.007261 0.111054 -0.078663
v 0.092890 -0.006014 0.078840
v 0.088542 -0.026789 0.078837
v 0.100935 -0.031922 -0.001273
v 0.092890 -0.006014 0.078840
v 0.088213 0.027874 0.078837
v 0.080340 0.044625 0.078837
v 0.088213 0.027874 0.078837
v 0.092068 0.050898 -0.000881
v 0.080340 0.044625 0.078837
v -0.061194 0.051445 0.078837
v 0.092890 -0.006014 0.078840
v -0.033289 0.075439 0.078837
v 0.054871 0.071191 0.078837
v 0.069050 0.059293 0.078837
v 0.067120 0.076174 0.009822
v 0.092068 0.050898 -0.000881
v 0.069050 0.059293 0.078837
v 0.080340 0.044625 0.078837
v 0.069050 0.059293 0.078837
v 0.092890 -0.006014 0.078840
v 0.080340 0.044625 0.078837
v 0.069050 0.059293 0.078837
v 0.054871 0.071191 0.078837
v 0.092890 -0.006014 0.078840
v 0.024342 0.108321 -0.036862
v 0.070963 0.082549 -0.066981
v 0.010602 0.114764 -0.053021
v 0.070963 0.082549 -0.066981
v 0.024342 0.108321 -0.036862
v 0.044273 0.091848 -0.001249
v 0.044273 0.091848 -0.001249
v 0.024342 0.108321 -0.036862
v 0.038465 0.079763 0.078837
v 0.020601 0.084607 0.078837
v 0.024342 0.108321 -0.036862
v 0.010602 0.114764 -0.053021
v 0.024342 0.108321 -0.036862
v 0.020601 0.084607 0.078837
v 0.038465 0.079763 0.078837
v 0.012348 0.112212 -0.076689
v 0.007261 0.111054 -0.078663
v 0.010602 0.114764 -0.053021
v 0.070963 0.082549 -0.066981
v 0.012348 0.112212 -0.076689
v 0.010602 0.114764 -0.053021
v 0.012348 0.112212 -0.076689
v 0.070963 0.082549 -0.066981
v 0.007261 0.111054 -0.078663
v -0.016135 0.082394 0.078837
v -0.018819 0.095535 -0.001262
v -0.056462 0.086147 -0.029436
v -0.078002 0.000903 0.078773
v -0.076446 0.017952 0.078837
v -0.081402 0.006519 0.073563
v -0.076224 -0.018850 0.078837
v -0.078002 0.000903 0.078773
v -0.081402 0.006519 0.073563
v -0.078002 0.000903 0.078773
v -0.076224 -0.018850 0.078837
v -0.076446 0.017952 0.078837
v 0.081584 -0.061881 -0.065270
v 0.067648 -0.078861 -0.000255
v 0.069209 -0.074283 -0.065285
v 0.073104 -0.066296 -0.067313
v 0.081584 -0.061881 -0.065270
v 0.069209 -0.074283 -0.065285
v 0.100935 -0.031922 -0.001273
v 0.081584 -0.061881 -0.065270
v 0.105703 0.010361 -0.001270
v 0.081584 -0.061881 -0.065270
v 0.081598 0.062002 -0.065285
v 0.105703 0.010361 -0.001270
v 0.081584 -0.061881 -0.065270
v 0.073104 -0.066296 -0.067313
v 0.081598 0.062002 -0.065285
v 0.067648 -0.078861 -0.000255
v 0.092026 -0.050953 -0.001289
v 0.069759 -0.058437 0.078837
v 0.092026 -0.050953 -0.001289
v 0.081584 -0.061881 -0.065270
v 0.100935 -0.031922 -0.001273
v 0.081584 -0.061881 -0.065270
v 0.092026 -0.050953 -0.001289
v 0.067648 -0.078861 -0.000255
v 0.055724 -0.070505 0.078837
v 0.067648 -0.078861 -0.000255
v 0.069759 -0.058437 0.078837
v 0.092890 -0.006014 0.078840
v 0.055724 -0.070505 0.078837
v 0.069759 -0.058437 0.078837
v 0.039422 -0.079273 0.078837
v 0.055724 -0.070505 0.078837
v 0.092890 -0.006014 0.078840
v 0.067648 -0.078861 -0.000255
v 0.055724 -0.070505 0.078837
v 0.043541 -0.092038 -0.001275
v 0.055724 -0.070505 0.078837
v 0.039422 -0.079273 0.078837
v 0.043541 -0.092038 -0.001275
v 0.021617 -0.084332 0.078837
v 0.092890 -0.006014 0.078840
v 0.003141 -0.085446 0.078837
v 0.021617 -0.084332 0.078837
v 0.039422 -0.079273 0.078837
v 0.092890 -0.006014 0.078840
v 0.023341 -0.094463 0.011419
v 0.021617 -0.084332 0.078837
v 0.003141 -0.085446 0.078837
v 0.021617 -0.084332 0.078837
v 0.023341 -0.094463 0.011419
v 0.043541 -0.092038 -0.001275
v 0.039422 -0.079273 0.078837
v 0.021617 -0.084332 0.078837
v 0.043541 -0.092038 -0.001275
v -0.060571 -0.052157 0.078837
v 0.092890 -0.006014 0.078840
v -0.070209 -0.036355 0.078837
v -0.060571 -0.052157 0.078837
v -0.070209 -0.036355 0.078837
v -0.064973 -0.060170 0.025402
v -0.055184 -0.083835 -0.020787
v -0.060571 -0.052157 0.078837
v -0.064973 -0.060170 0.025402
v -0.047460 -0.064990 0.078797
v -0.060571 -0.052157 0.078837
v -0.055184 -0.083835 -0.020787
v -0.019582 -0.095219 -0.001279
v -0.038796 -0.087343 -0.000870
v -0.055184 -0.083835 -0.020787
v -0.032378 -0.075814 0.078837
v -0.060571 -0.052157 0.078837
v -0.047460 -0.064990 0.078797
v -0.032378 -0.075814 0.078837
v -0.038796 -0.087343 -0.000870
v -0.019582 -0.095219 -0.001279
v -0.060571 -0.052157 0.078837
v -0.032378 -0.075814 0.078837
v 0.092890 -0.006014 0.078840
v -0.032378 -0.075814 0.078837
v -0.047460 -0.064990 0.078797
v -0.055184 -0.083835 -0.020787
v -0.038796 -0.087343 -0.000870
v -0.032378 -0.075814 0.078837
v -0.055184 -0.083835 -0.020787
v 0.092301 0.009821 0.078837
v 0.092890 -0.006014 0.078840
v 0.105703 0.010361 -0.001270
v 0.088213 0.027874 0.078837
v 0.092301 0.009821 0.078837
v 0.105703 0.010361 -0.001270
v 0.092301 0.009821 0.078837
v 0.088213 0.027874 0.078837
v 0.092890 -0.006014 0.078840
v 0.092068 0.050898 -0.000881
v 0.097931 0.031213 0.011419
v 0.105703 0.010361 -0.001270
v 0.097931 0.031213 0.011419
v 0.088213 0.027874 0.078837
v 0.105703 0.010361 -0.001270
v 0.088213 0.027874 0.078837
v 0.097931 0.031213 0.011419
v 0.092068 0.050898 -0.000881
v -0.056462 0.086147 -0.029436
v -0.048289 0.064494 0.078800
v -0.033289 0.075439 0.078837
v -0.048289 0.064494 0.078800
v -0.061194 0.051445 0.078837
v -0.033289 0.075439 0.078837
v -0.076446 0.017952 0.078837
v -0.071271 0.048873 0.064080
v -0.081402 0.006519 0.073563
v -0.071271 0.048873 0.064080
v -0.048289 0.064494 0.078800
v -0.056462 0.086147 -0.029436
v -0.048289 0.064494 0.078800
v -0.071271 0.048873 0.064080
v -0.061194 0.051445 0.078837
v -0.071271 0.048873 0.064080
v -0.067130 0.062121 -0.066564
v -0.081402 0.006519 0.073563
v -0.071271 0.048873 0.064080
v -0.056462 0.086147 -0.029436
v -0.067130 0.062121 -0.066564
v 0.081877 0.060157 0.010674
v 0.092068 0.050898 -0.000881
v 0.067120 0.076174 0.009822
v 0.069050 0.059293 0.078837
v 0.081877 0.060157 0.010674
v 0.067120 0.076174 0.009822
v 0.081877 0.060157 0.010674
v 0.069050 0.059293 0.078837
v 0.092068 0.050898 -0.000881
v -0.056462 0.086147 -0.029436
v 0.005209 0.110644 -0.039112
v 0.010602 0.114764 -0.053021
v -0.018819 0.095535 -0.001262
v 0.005209 0.110644 -0.039112
v -0.056462 0.086147 -0.029436
v 0.005209 0.110644 -0.039112
v -0.016135 0.082394 0.078837
v 0.010602 0.114764 -0.053021
v 0.005209 0.110644 -0.039112
v -0.018819 0.095535 -0.001262
v -0.016135 0.082394 0.078837
v 0.088542 -0.026789 0.078837
v 0.080871 -0.043635 0.078837
v 0.100935 -0.031922 -0.001273
v 0.080871 -0.043635 0.078837
v 0.092026 -0.050953 -0.001289
v 0.100935 -0.031922 -0.001273
v 0.092026 -0.050953 -0.001289
v 0.080871 -0.043635 0.078837
v 0.069759 -0.058437 0.078837
v 0.080871 -0.043635 0.078837
v 0.092890 -0.006014 0.078840
v 0.069759 -0.058437 0.078837
v 0.080871 -0.043635 0.078837
v 0.088542 -0.026789 0.078837
v 0.092890 -0.006014 0.078840
v -0.015142 -0.082561 0.078837
v -0.019582 -0.095219 -0.001279
v 0.003141 -0.085446 0.078837
v -0.015142 -0.082561 0.078837
v -0.032378 -0.075814 0.078837
v -0.019582 -0.095219 -0.001279
v 0.092890 -0.006014 0.078840
v -0.015142 -0.082561 0.078837
v 0.003141 -0.085446 0.078837
v -0.032378 -0.075814 0.078837
v -0.015142 -0.082561 0.078837
v 0.092890 -0.006014 0.078840
v -0.070641 0.035528 0.078837
v -0.071271 0.048873 0.064080
v -0.076446 0.017952 0.078837
v -0.071271 0.048873 0.064080
v -0.070641 0.035528 0.078837
v -0.061194 0.051445 0.078837
v 0.092890 -0.006014 0.078840
v -0.070641 0.035528 0.078837
v -0.076446 0.017952 0.078837
v -0.061194 0.051445 0.078837
v -0.070641 0.035528 0.078837
v 0.092890 -0.006014 0.078840
vn -0.9948 -0.0015 -0.1019
vn -0.9023 -0.4301 0.0291
vn -0.2327 0.1149 -0.9657
vn -0.9399 -0.3403 0.0283
vn -0.9093 -0.4058 0.0918
vn -0.9911 -0.1268 -0.0398
vn 0.0499 -0.9908 -0.1257
vn -0.1076 -0.9827 0.1504
vn -0.8758 -0.4827 -0.0038
vn -0.2861 -0.9575 -0.0366
vn 0.0615 -0.9679 -0.2438
vn 0.0490 -0.9729 -0.2258
vn 0.9917 -0.1118 0.0627
vn 0.9756 -0.1605 0.1499
vn 0.9876 -0.0586 0.1460
vn -0.0000 -0.0000 1.0000
vn 0.4567 0.8742 0.1650
vn 0.5083 0.8478 0.1514
vn -0.4142 0.9069 -0.0772
vn -0.4153 0.9062 -0.0791
vn -0.8912 0.4520 -0.0365
vn 0.2323 -0.0000 -0.9727
vn 0.1699 -0.0000 -0.9855
vn 0.0293 -0.2594 -0.9653
vn 0.0055 -0.0618 -0.9981
vn 0.9429 0.3181 -0.0984
vn 0.5309 0.8419 0.0965
vn 0.7280 0.6793 0.0928
vn 0.8884 0.4544 -0.0661
vn 0.2004 0.0468 -0.9786
vn 0.2584 0.0542 -0.9645
vn 0.0470 0.9745 0.2193
vn -0.1642 0.9652 0.2036
vn -0.3703 0.9133 0.1696
vn -0.9480 -0.1335 0.2889
vn -0.8954 -0.3077 0.3217
vn 0.4807 -0.8755 -0.0501
vn 0.0599 -0.9937 -0.0945
vn 0.0595 -0.9869 0.1498
vn -0.2031 -0.0101 -0.9791
vn -0.2120 -0.0296 -0.9768
vn -0.1559 -0.0072 -0.9877
vn -0.1377 -0.0143 -0.9904
vn 0.9658 -0.2022 0.1624
vn 0.0002 0.0001 1.0000
vn 0.8927 0.4196 0.1644
vn 0.6338 0.7553 0.1670
vn 0.7819 0.6018 0.1624
vn 0.0001 0.0001 1.0000
vn 0.4631 0.8854 -0.0408
vn 0.5279 0.8440 0.0949
vn 0.4361 0.8846 0.1651
vn 0.2100 0.9564 0.2028
vn 0.2563 0.9452 0.2020
vn -0.1764 0.9772 -0.1184
vn 0.4588 0.8864 -0.0617
vn 0.2920 0.2774 -0.9153
vn -0.3519 0.9217 0.1630
vn -0.7987 0.0706 0.5975
vn -0.8708 -0.0768 0.4856
vn -0.0386 -0.0002 0.9993
vn 0.7075 -0.7059 -0.0327
vn 0.4087 -0.4068 -0.8170
vn 0.9645 -0.1087 -0.2407
vn 0.9358 -0.0002 -0.3525
vn 0.2343 -0.0001 -0.9722
vn 0.7476 -0.6476 0.1473
vn 0.9031 -0.4227 -0.0752
vn 0.7529 -0.6581 -0.0105
vn 0.6418 -0.7465 0.1756
vn 0.0001 -0.0001 1.0000
vn -0.0000 -0.0001 1.0000
vn 0.4680 -0.8687 0.1623
vn 0.4674 -0.8690 0.1625
vn 0.2106 -0.9659 0.1505
vn 0.2696 -0.9487 0.1650
vn -0.8445 -0.5151 0.1468
vn -0.7667 -0.6227 0.1565
vn -0.6870 -0.7024 0.1862
vn -0.3726 -0.9166 0.1452
vn -0.0185 -0.0221 0.9996
vn -0.3713 -0.9142 0.1621
vn -0.5722 -0.7966 0.1951
vn -0.3914 -0.9058 0.1625
vn 0.9856 0.0367 0.1651
vn 0.9623 0.2179 0.1625
vn 0.0009 0.0002 1.0000
vn 0.9464 0.3178 0.0575
vn 0.9528 0.2636 0.1504
vn 0.9178 0.3674 0.1505
vn -0.5776 0.7909 0.2019
vn -0.0162 0.0189 0.9997
vn -0.9237 0.2796 0.2619
vn -0.6344 0.7473 0.1974
vn -0.6680 0.6616 0.3408
vn -0.9729 0.2311 -0.0074
vn -0.9199 0.3920 0.0106
vn 0.7290 0.6770 0.1005
vn 0.7238 0.6746 0.1448
vn 0.7525 0.6414 0.1497
vn -0.3464 0.9275 0.1404
vn -0.3443 0.9266 0.1513
vn -0.2601 0.9486 0.1801
vn -0.3274 0.9306 0.1636
vn 0.8976 -0.4087 0.1651
vn 0.8936 -0.4185 0.1626
vn 0.7889 -0.5922 0.1639
vn 0.0002 -0.0001 1.0000
vn 0.0005 -0.0002 1.0000
vn -0.1538 -0.9746 0.1625
vn -0.3595 -0.9184 0.1650
vn -0.9033 0.2983 0.3083
vn -0.7697 0.4568 0.4459
s 1
usemtl material_0
f 1//1 2//1 3//1
f 4//2 5//2 6//2
f 7//3 8//3 9//3
f 10//4 11//4 12//4
f 13//5 14//5 15//5
f 16//6 17//6 18//6
f 19//7 20//7 21//7
f 22//8 23//8 24//8
f 25//9 26//9 27//9
f 28//10 29//10 30//10
f 31//11 32//11 33//11
f 34//12 35//12 36//12
f 37//13 38//13 39//13
f 40//14 41//14 42//14
f 43//15 44//15 45//15
f 46//16 47//16 48//16
f 49//17 50//17 51//17
f 52//18 53//18 54//18
f 55//19 56//19 57//19
f 58//20 59//20 60//20
f 61//21 62//21 63//21
f 64//22 65//22 66//22
f 67//23 68//23 69//23
f 70//24 71//24 72//24
f 73//25 74//25 75//25
f 76//26 77//26 78//26
f 79//27 80//27 81//27
f 82//28 83//28 84//28
f 85//29 86//29 87//29
f 88//30 89//30 90//30
f 91//31 92//31 93//31
f 94//32 95//32 96//32
f 97//16 98//16 99//16
f 100//16 101//16 102//16
f 103//33 104//33 105//33
f 106//34 107//34 108//34
f 109//16 110//16 111//16
f 112//16 113//16 114//16
f 115//35 116//35 117//35
f 118//36 119//36 120//36
f 121//16 122//16 123//16
f 124//16 125//16 126//16
f 127//37 128//37 129//37
f 130//38 131//38 132//38
f 133//39 134//39 135//39
f 136//40 137//40 138//40
f 139//41 140//41 141//41
f 142//42 143//42 144//42
f 145//43 146//43 147//43
f 148//44 149//44 150//44
f 151//45 152//45 153//45
f 154//46 155//46 156//46
f 157//16 158//16 159//16
f 160//47 161//47 162//47
f 163//48 164//48 165//48
f 166//49 167//49 168//49
f 169//49 170//49 171//49
f 172//50 173//50 174//50
f 175//51 176//51 177//51
f 178//52 179//52 180//52
f 181//53 182//53 183//53
f 184//54 185//54 186//54
f 187//55 188//55 189//55
f 190//56 191//56 192//56
f 193//57 194//57 195//57
f 196//58 197//58 198//58
f 199//59 200//59 201//59
f 202//60 203//60 204//60
f 205//61 206//61 207//61
f 208//62 209//62 210//62
f 211//63 212//63 213//63
f 214//64 215//64 216//64
f 217//65 218//65 219//65
f 220//66 221//66 222//66
f 223//67 224//67 225//67
f 226//68 227//68 228//68
f 229//69 230//69 231//69
f 232//70 233//70 234//70
f 235//71 236//71 237//71
f 238//72 239//72 240//72
f 241//73 242//73 243//73
f 244//74 245//74 246//74
f 247//16 248//16 249//16
f 250//16 251//16 252//16
f 253//39 254//39 255//39
f 256//75 257//75 258//75
f 259//76 260//76 261//76
f 262//16 263//16 264//16
f 265//77 266//77 267//77
f 268//78 269//78 270//78
f 271//79 272//79 273//79
f 274//80 275//80 276//80
f 277//81 278//81 279//81
f 280//82 281//82 282//82
f 283//16 284//16 285//16
f 286//83 287//83 288//83
f 289//84 290//84 291//84
f 292//85 293//85 294//85
f 295//86 296//86 297//86
f 298//87 299//87 300//87
f 301//88 302//88 303//88
f 304//89 305//89 306//89
f 307//90 308//90 309//90
f 310//91 311//91 312//91
f 313//92 314//92 315//92
f 316//93 317//93 318//93
f 319//94 320//94 321//94
f 322//95 323//95 324//95
f 325//96 326//96 327//96
f 328//97 329//97 330//97
f 331//98 332//98 333//98
f 334//99 335//99 336//99
f 337//100 338//100 339//100
f 340//101 341//101 342//101
f 343//102 344//102 345//102
f 346//103 347//103 348//103
f 349//104 350//104 351//104
f 352//105 353//105 354//105
f 355//106 356//106 357//106
f 358//107 359//107 360//107
f 361//108 362//108 363//108
f 364//109 365//109 366//109
f 367//110 368//110 369//110
f 370//111 371//111 372//111
f 373//16 374//16 375//16
f 376//16 377//16 378//16
f 379//112 380//112 381//112
f 382//113 383//113 384//113
f 385//16 386//16 387//16
f 388//16 389//16 390//16
