# Blender 4.5.10 LTS
# www.blender.org
mtllib iiwa_robot_base_coll_6.mtl
o node
v 0.081908 0.093002 -0.066874
v 0.077829 0.099980 -0.077113
v 0.061225 0.074509 -0.076681
v 0.081806 0.083241 -0.065135
v 0.081908 0.093002 -0.066874
v 0.061225 0.074509 -0.076681
v 0.083950 0.070844 -0.065663
v 0.081806 0.083241 -0.065135
v 0.061225 0.074509 -0.076681
v 0.089974 0.063920 -0.067002
v 0.083950 0.070844 -0.065663
v 0.061225 0.074509 -0.076681
v 0.100212 0.074298 -0.066561
v 0.089974 0.063920 -0.067002
v 0.112630 0.061873 -0.076347
v 0.100212 0.074298 -0.066561
v 0.081908 0.093002 -0.066874
v 0.081806 0.083241 -0.065135
v 0.100212 0.074298 -0.066561
v 0.083950 0.070844 -0.065663
v 0.089974 0.063920 -0.067002
v 0.077829 0.099980 -0.077113
v 0.064843 0.078954 -0.078683
v 0.061225 0.074509 -0.076681
v 0.064843 0.078954 -0.078683
v 0.083283 0.056839 -0.078729
v 0.061225 0.074509 -0.076681
v 0.083283 0.056839 -0.078729
v 0.104819 0.071625 -0.077794
v 0.112630 0.061873 -0.076347
v 0.089974 0.063920 -0.067002
v 0.085361 0.054822 -0.076669
v 0.112630 0.061873 -0.076347
v 0.085361 0.054822 -0.076669
v 0.083283 0.056839 -0.078729
v 0.112630 0.061873 -0.076347
v 0.085361 0.054822 -0.076669
v 0.089974 0.063920 -0.067002
v 0.061225 0.074509 -0.076681
v 0.083283 0.056839 -0.078729
v 0.085361 0.054822 -0.076669
v 0.061225 0.074509 -0.076681
v 0.083950 0.070844 -0.065663
v 0.088783 0.078975 -0.065663
v 0.081806 0.083241 -0.065135
v 0.088783 0.078975 -0.065663
v 0.100212 0.074298 -0.066561
v 0.081806 0.083241 -0.065135
v 0.100212 0.074298 -0.066561
v 0.088783 0.078975 -0.065663
v 0.083950 0.070844 -0.065663
v 0.081908 0.093002 -0.066874
v 0.094374 0.083542 -0.067858
v 0.077829 0.099980 -0.077113
v 0.100212 0.074298 -0.066561
v 0.094374 0.083542 -0.067858
v 0.081908 0.093002 -0.066874
v 0.094374 0.083542 -0.067858
v 0.104819 0.071625 -0.077794
v 0.077829 0.099980 -0.077113
v 0.094374 0.083542 -0.067858
v 0.100212 0.074298 -0.066561
v 0.112630 0.061873 -0.076347
v 0.104819 0.071625 -0.077794
v 0.094374 0.083542 -0.067858
v 0.112630 0.061873 -0.076347
v 0.064843 0.078954 -0.078683
v 0.083950 0.081999 -0.078663
v 0.083283 0.056839 -0.078729
v 0.083950 0.081999 -0.078663
v 0.064843 0.078954 -0.078683
v 0.077829 0.099980 -0.077113
v 0.104819 0.071625 -0.077794
v 0.083950 0.081999 -0.078663
v 0.077829 0.099980 -0.077113
v 0.088785 0.073872 -0.078659
v 0.104819 0.071625 -0.077794
v 0.083283 0.056839 -0.078729
v 0.083950 0.081999 -0.078663
v 0.088785 0.073872 -0.078659
v 0.083283 0.056839 -0.078729
v 0.088785 0.073872 -0.078659
v 0.083950 0.081999 -0.078663
v 0.104819 0.071625 -0.077794
vn -0.6787 0.4523 0.5786
vn -0.5323 0.1538 0.8325
vn -0.4484 -0.1152 0.8864
vn -0.4483 -0.1152 0.8864
vn -0.4387 -0.5230 0.7308
vn 0.3276 -0.3604 0.8734
vn 0.1586 0.1715 0.9723
vn 0.0804 -0.1214 0.9893
vn -0.8015 0.5174 -0.2998
vn -0.2587 -0.2137 -0.9420
vn 0.0931 -0.0728 -0.9930
vn 0.1887 -0.7585 0.6238
vn 0.1680 -0.6143 -0.7710
vn -0.4403 -0.5394 0.7178
vn -0.6274 -0.7693 -0.1204
vn 0.0553 -0.0329 0.9979
vn 0.0843 0.0147 0.9963
vn 0.0630 -0.0375 0.9973
vn 0.5946 0.7546 0.2775
vn 0.3172 0.3254 0.8908
vn 0.7219 0.6887 -0.0672
vn 0.7834 0.5384 0.3106
vn 0.7748 0.6294 0.0595
vn 0.0006 0.0026 -1.0000
vn -0.0120 0.0818 -0.9966
vn 0.1004 0.1193 -0.9878
vn 0.0520 -0.0127 -0.9986
vn 0.0051 0.0025 -1.0000
vn 0.0586 0.0343 -0.9977
s 1
usemtl material_0
f 1//1 2//1 3//1
f 4//2 5//2 6//2
f 7//3 8//3 9//4
f 10//5 11//5 12//5
f 13//6 14//6 15//6
f 16//7 17//7 18//7
f 19//8 20//8 21//8
f 22//9 23//9 24//9
f 25//10 26//10 27//10
f 28//11 29//11 30//11
f 31//12 32//12 33//12
f 34//13 35//13 36//13
f 37//14 38//14 39//14
f 40//15 41//15 42//15
f 43//16 44//16 45//16
f 46//17 47//17 48//17
f 49//18 50//18 51//18
f 52//19 53//19 54//19
f 55//20 56//20 57//20
f 58//21 59//21 60//21
f 61//22 62//22 63//22
f 64//23 65//23 66//23
f 67//24 68//24 69//24
f 70//25 71//25 72//25
f 73//26 74//26 75//26
f 76//27 77//27 78//27
f 79//28 80//28 81//28
f 82//29 83//29 84//29
