# Blender 4.5.10 LTS
# www.blender.org
mtllib iiwa_robot_base_coll_14.mtl
o node
v 0.063582 -0.071471 -0.078840
v 0.077716 -0.100037 -0.077091
v 0.061258 -0.074248 -0.076680
v 0.077716 -0.100037 -0.077091
v 0.070961 -0.082826 -0.066924
v 0.061258 -0.074248 -0.076680
v 0.100301 -0.076895 -0.069045
v 0.077716 -0.100037 -0.077091
v 0.104796 -0.071581 -0.077798
v 0.086958 -0.055411 -0.076916
v 0.100301 -0.076895 -0.069045
v 0.104796 -0.071581 -0.077798
v 0.073104 -0.066296 -0.067313
v 0.063582 -0.071471 -0.078840
v 0.061258 -0.074248 -0.076680
v 0.063582 -0.071471 -0.078840
v 0.073104 -0.066296 -0.067313
v 0.086958 -0.055411 -0.076916
v 0.073104 -0.066296 -0.067313
v 0.100301 -0.076895 -0.069045
v 0.086958 -0.055411 -0.076916
v 0.077716 -0.100037 -0.077091
v 0.089016 -0.078839 -0.078661
v 0.104796 -0.071581 -0.077798
v 0.088965 -0.080755 -0.065150
v 0.073104 -0.066296 -0.067313
v 0.076879 -0.074946 -0.064953
v 0.073104 -0.066296 -0.067313
v 0.088965 -0.080755 -0.065150
v 0.100301 -0.076895 -0.069045
v 0.070961 -0.082826 -0.066924
v 0.069209 -0.074283 -0.065285
v 0.061258 -0.074248 -0.076680
v 0.069209 -0.074283 -0.065285
v 0.073104 -0.066296 -0.067313
v 0.061258 -0.074248 -0.076680
v 0.073104 -0.066296 -0.067313
v 0.069209 -0.074283 -0.065285
v 0.076879 -0.074946 -0.064953
v 0.089016 -0.078839 -0.078661
v 0.083183 -0.070868 -0.078663
v 0.104796 -0.071581 -0.077798
v 0.083183 -0.070868 -0.078663
v 0.089016 -0.078839 -0.078661
v 0.063582 -0.071471 -0.078840
v 0.083183 -0.070868 -0.078663
v 0.086958 -0.055411 -0.076916
v 0.104796 -0.071581 -0.077798
v 0.083183 -0.070868 -0.078663
v 0.063582 -0.071471 -0.078840
v 0.086958 -0.055411 -0.076916
v 0.063582 -0.071471 -0.078840
v 0.079984 -0.080191 -0.078662
v 0.077716 -0.100037 -0.077091
v 0.079984 -0.080191 -0.078662
v 0.089016 -0.078839 -0.078661
v 0.077716 -0.100037 -0.077091
v 0.089016 -0.078839 -0.078661
v 0.079984 -0.080191 -0.078662
v 0.063582 -0.071471 -0.078840
v 0.081408 -0.092997 -0.066529
v 0.069209 -0.074283 -0.065285
v 0.070961 -0.082826 -0.066924
v 0.081408 -0.092997 -0.066529
v 0.070961 -0.082826 -0.066924
v 0.077716 -0.100037 -0.077091
v 0.100301 -0.076895 -0.069045
v 0.081408 -0.092997 -0.066529
v 0.077716 -0.100037 -0.077091
v 0.088965 -0.080755 -0.065150
v 0.081408 -0.092997 -0.066529
v 0.100301 -0.076895 -0.069045
v 0.069209 -0.074283 -0.065285
v 0.081134 -0.082760 -0.065097
v 0.076879 -0.074946 -0.064953
v 0.081408 -0.092997 -0.066529
v 0.081134 -0.082760 -0.065097
v 0.069209 -0.074283 -0.065285
v 0.081134 -0.082760 -0.065097
v 0.088965 -0.080755 -0.065150
v 0.076879 -0.074946 -0.064953
v 0.081134 -0.082760 -0.065097
v 0.081408 -0.092997 -0.066529
v 0.088965 -0.080755 -0.065150
vn -0.4554 -0.2771 -0.8461
vn -0.7909 -0.5101 0.3381
vn 0.7230 -0.6892 -0.0471
vn 0.5427 0.5648 0.6216
vn -0.6574 0.7210 0.2194
vn -0.5690 0.8158 0.1038
vn 0.2335 0.4590 0.8572
vn 0.1158 -0.1346 -0.9841
vn 0.1732 0.3289 0.9283
vn 0.1951 0.3511 0.9158
vn -0.7905 -0.2678 0.5508
vn -0.7193 0.4787 0.5034
vn -0.0198 0.2552 0.9667
vn 0.0409 0.0298 -0.9987
vn 0.0088 0.0063 -0.9999
vn 0.0431 0.1018 -0.9939
vn 0.0056 0.1110 -0.9938
vn -0.0294 -0.0756 -0.9967
vn 0.0122 -0.0803 -0.9967
vn 0.0025 -0.0157 -0.9999
vn -0.2627 -0.2334 0.9362
vn -0.5781 -0.5711 0.5827
vn 0.6468 -0.7193 0.2534
vn 0.4083 -0.3472 0.8442
vn -0.0471 -0.0441 0.9979
vn -0.1155 -0.1406 0.9833
vn 0.0100 -0.0130 0.9999
vn 0.0418 -0.1373 0.9896
s 1
usemtl material_0
f 1//1 2//1 3//1
f 4//2 5//2 6//2
f 7//3 8//3 9//3
f 10//4 11//4 12//4
f 13//5 14//5 15//5
f 16//6 17//6 18//6
f 19//7 20//7 21//7
f 22//8 23//8 24//8
f 25//9 26//9 27//9
f 28//10 29//10 30//10
f 31//11 32//11 33//11
f 34//12 35//12 36//12
f 37//13 38//13 39//13
f 40//14 41//14 42//14
f 43//15 44//15 45//15
f 46//16 47//16 48//16
f 49//17 50//17 51//17
f 52//18 53//18 54//18
f 55//19 56//19 57//19
f 58//20 59//20 60//20
f 61//21 62//21 63//21
f 64//22 65//22 66//22
f 67//23 68//23 69//23
f 70//24 71//24 72//24
f 73//25 74//25 75//25
f 76//26 77//26 78//26
f 79//27 80//27 81//27
f 82//28 83//28 84//28
