# Blender 4.5.10 LTS
# www.blender.org
mtllib iiwa_link8_resp_coll_2.mtl
o node
v 0.010145 0.030434 0.008918
v 0.005017 0.013598 0.002099
v -0.003089 0.031825 0.008918
v 0.010145 0.030434 0.008918
v 0.021668 0.023781 0.008918
v 0.005017 0.013598 0.002099
v -0.015744 0.027713 0.008918
v -0.012830 0.028653 0.013918
v -0.003089 0.031825 0.008918
v 0.005017 0.013598 0.002099
v -0.015744 0.027713 0.008918
v -0.003089 0.031825 0.008918
v -0.017422 0.020428 0.006918
v -0.015744 0.027713 0.008918
v 0.005017 0.013598 0.002099
v -0.026243 0.017030 0.013918
v -0.025229 0.018515 0.009418
v -0.031244 0.000000 0.013918
v 0.021668 0.023781 0.008918
v 0.020684 0.017678 0.006918
v 0.005017 0.013598 0.002099
v 0.020684 0.017678 0.006918
v 0.029489 0.013016 0.008918
v 0.005017 0.013598 0.002099
v 0.029489 0.013016 0.008918
v 0.020684 0.017678 0.006918
v 0.021668 0.023781 0.008918
v 0.027201 -0.001945 0.006918
v 0.017934 -0.020428 0.006918
v 0.005017 0.013598 0.002099
v 0.000331 0.000047 0.016320
v 0.020229 0.023051 0.014918
v 0.004597 0.030190 0.014918
v 0.029489 0.013016 0.008918
v 0.030480 0.008875 0.013918
v 0.034201 -0.000000 0.013589
v 0.004739 0.031179 0.013918
v 0.010145 0.030434 0.008918
v -0.003089 0.031825 0.008918
v -0.012830 0.028653 0.013918
v 0.004739 0.031179 0.013918
v -0.003089 0.031825 0.008918
v -0.012414 -0.027744 0.014918
v -0.012830 -0.028653 0.013918
v 0.004596 -0.030190 0.014918
v 0.000331 0.000047 0.016320
v -0.012414 -0.027744 0.014918
v 0.004596 -0.030190 0.014918
v 0.017934 -0.020428 0.006918
v 0.002881 -0.025750 0.006917
v 0.005017 0.013598 0.002099
v 0.002881 -0.025750 0.006917
v -0.001689 -0.026945 0.006918
v 0.005017 0.013598 0.002099
v 0.027201 -0.001945 0.006918
v 0.029489 -0.013016 0.008918
v 0.017934 -0.020428 0.006918
v 0.013964 -0.029732 0.009372
v 0.002881 -0.025750 0.006917
v 0.017934 -0.020428 0.006918
v 0.029489 -0.013016 0.008918
v 0.013964 -0.029732 0.009372
v 0.017934 -0.020428 0.006918
v 0.013964 -0.029732 0.009372
v 0.029489 -0.013016 0.008918
v 0.020884 -0.023806 0.013918
v -0.001689 -0.026945 0.006918
v 0.013964 -0.029732 0.009372
v -0.003037 -0.031327 0.009418
v 0.002881 -0.025750 0.006917
v 0.013964 -0.029732 0.009372
v -0.001689 -0.026945 0.006918
v -0.020737 0.024307 0.009543
v -0.017422 0.020428 0.006918
v -0.025229 0.018515 0.009418
v -0.020737 0.024307 0.009543
v -0.015744 0.027713 0.008918
v -0.017422 0.020428 0.006918
v -0.026243 0.017030 0.013918
v -0.020737 0.024307 0.009543
v -0.025229 0.018515 0.009418
v -0.015744 0.027713 0.008918
v -0.020737 0.024307 0.009543
v -0.012830 0.028653 0.013918
v -0.020737 0.024307 0.009543
v -0.026243 0.017030 0.013918
v -0.012830 0.028653 0.013918
v 0.029489 0.013016 0.008918
v 0.025967 0.002656 0.006918
v 0.005017 0.013598 0.002099
v 0.025967 0.002656 0.006918
v 0.027201 -0.001945 0.006918
v 0.005017 0.013598 0.002099
v 0.027201 -0.001945 0.006918
v 0.025967 0.002656 0.006918
v 0.029489 0.013016 0.008918
v 0.020884 -0.023806 0.013918
v 0.020229 -0.023051 0.014918
v 0.004596 -0.030190 0.014918
v 0.020229 -0.023051 0.014918
v 0.000331 0.000047 0.016320
v 0.004596 -0.030190 0.014918
v 0.000331 0.000047 0.016320
v 0.029521 0.008592 0.014918
v 0.020229 0.023051 0.014918
v 0.029521 0.008592 0.014918
v 0.000331 0.000047 0.016320
v 0.030756 0.000000 0.014918
v 0.029521 0.008592 0.014918
v 0.030480 0.008875 0.013918
v 0.020229 0.023051 0.014918
v 0.029521 0.008592 0.014918
v 0.030756 0.000000 0.014918
v 0.034201 -0.000000 0.013589
v 0.030480 0.008875 0.013918
v 0.029521 0.008592 0.014918
v 0.034201 -0.000000 0.013589
v 0.020884 0.023806 0.013918
v 0.030480 0.008875 0.013918
v 0.029489 0.013016 0.008918
v 0.030480 0.008875 0.013918
v 0.020884 0.023806 0.013918
v 0.020229 0.023051 0.014918
v 0.020884 0.023806 0.013918
v 0.029489 0.013016 0.008918
v 0.021668 0.023781 0.008918
v 0.010145 0.030434 0.008918
v 0.020884 0.023806 0.013918
v 0.021668 0.023781 0.008918
v 0.004739 0.031179 0.013918
v 0.020884 0.023806 0.013918
v 0.010145 0.030434 0.008918
v 0.020229 0.023051 0.014918
v 0.020884 0.023806 0.013918
v 0.004597 0.030190 0.014918
v 0.020884 0.023806 0.013918
v 0.004739 0.031179 0.013918
v 0.004597 0.030190 0.014918
v -0.001689 -0.026945 0.006918
v -0.020172 -0.017678 0.006918
v 0.005017 0.013598 0.002099
v 0.030480 -0.008875 0.013918
v 0.029489 -0.013016 0.008918
v 0.034201 -0.000000 0.013589
v 0.029489 -0.013016 0.008918
v 0.030480 -0.008875 0.013918
v 0.020884 -0.023806 0.013918
v 0.030480 -0.008875 0.013918
v 0.020229 -0.023051 0.014918
v 0.020884 -0.023806 0.013918
v 0.033016 0.001123 0.009341
v 0.029489 0.013016 0.008918
v 0.034201 -0.000000 0.013589
v 0.029489 -0.013016 0.008918
v 0.033016 0.001123 0.009341
v 0.034201 -0.000000 0.013589
v 0.013964 -0.029732 0.009372
v 0.004739 -0.031179 0.013918
v -0.003037 -0.031327 0.009418
v 0.004739 -0.031179 0.013918
v -0.012830 -0.028653 0.013918
v -0.003037 -0.031327 0.009418
v -0.012830 -0.028653 0.013918
v 0.004739 -0.031179 0.013918
v 0.004596 -0.030190 0.014918
v 0.004739 -0.031179 0.013918
v 0.020884 -0.023806 0.013918
v 0.004596 -0.030190 0.014918
v 0.004739 -0.031179 0.013918
v 0.013964 -0.029732 0.009372
v 0.020884 -0.023806 0.013918
v 0.000331 0.000047 0.016320
v 0.029521 -0.008591 0.014918
v 0.030756 0.000000 0.014918
v 0.020229 -0.023051 0.014918
v 0.029521 -0.008591 0.014918
v 0.000331 0.000047 0.016320
v 0.030480 -0.008875 0.013918
v 0.029521 -0.008591 0.014918
v 0.020229 -0.023051 0.014918
v 0.030756 0.000000 0.014918
v 0.029521 -0.008591 0.014918
v 0.034201 -0.000000 0.013589
v 0.029521 -0.008591 0.014918
v 0.030480 -0.008875 0.013918
v 0.034201 -0.000000 0.013589
v -0.025402 -0.016490 0.014918
v -0.012414 -0.027744 0.014918
v 0.000331 0.000047 0.016320
v -0.030245 0.000000 0.014918
v -0.025402 -0.016490 0.014918
v 0.000331 0.000047 0.016320
v -0.012830 -0.028653 0.013918
v -0.025402 -0.016490 0.014918
v -0.026243 -0.017030 0.013918
v -0.012414 -0.027744 0.014918
v -0.025402 -0.016490 0.014918
v -0.012830 -0.028653 0.013918
v -0.026243 -0.017030 0.013918
v -0.025402 -0.016490 0.014918
v -0.031244 0.000000 0.013918
v -0.025402 -0.016490 0.014918
v -0.030245 0.000000 0.014918
v -0.031244 0.000000 0.013918
v -0.025402 0.016490 0.014918
v -0.030245 0.000000 0.014918
v 0.000331 0.000047 0.016320
v -0.026243 0.017030 0.013918
v -0.025402 0.016490 0.014918
v -0.012830 0.028653 0.013918
v -0.025402 0.016490 0.014918
v -0.026243 0.017030 0.013918
v -0.031244 0.000000 0.013918
v -0.030245 0.000000 0.014918
v -0.025402 0.016490 0.014918
v -0.031244 0.000000 0.013918
v -0.020737 -0.024307 0.009543
v -0.001689 -0.026945 0.006918
v -0.003037 -0.031327 0.009418
v -0.020737 -0.024307 0.009543
v -0.020172 -0.017678 0.006918
v -0.001689 -0.026945 0.006918
v -0.012830 -0.028653 0.013918
v -0.020737 -0.024307 0.009543
v -0.003037 -0.031327 0.009418
v -0.020737 -0.024307 0.009543
v -0.012830 -0.028653 0.013918
v -0.026243 -0.017030 0.013918
v 0.032256 0.000000 0.008918
v 0.027201 -0.001945 0.006918
v 0.029489 0.013016 0.008918
v 0.033016 0.001123 0.009341
v 0.032256 0.000000 0.008918
v 0.029489 0.013016 0.008918
v 0.032256 0.000000 0.008918
v 0.029489 -0.013016 0.008918
v 0.027201 -0.001945 0.006918
v 0.032256 0.000000 0.008918
v 0.033016 0.001123 0.009341
v 0.029489 -0.013016 0.008918
v -0.012414 0.027744 0.014918
v 0.000331 0.000047 0.016320
v 0.004597 0.030190 0.014918
v -0.012414 0.027744 0.014918
v -0.025402 0.016490 0.014918
v 0.000331 0.000047 0.016320
v -0.025402 0.016490 0.014918
v -0.012414 0.027744 0.014918
v -0.012830 0.028653 0.013918
v 0.004739 0.031179 0.013918
v -0.012414 0.027744 0.014918
v 0.004597 0.030190 0.014918
v -0.012414 0.027744 0.014918
v 0.004739 0.031179 0.013918
v -0.012830 0.028653 0.013918
v -0.020737 -0.024307 0.009543
v -0.030036 0.000000 0.009566
v -0.020172 -0.017678 0.006918
v -0.030036 0.000000 0.009566
v -0.026243 -0.017030 0.013918
v -0.031244 0.000000 0.013918
v -0.030036 0.000000 0.009566
v -0.020737 -0.024307 0.009543
v -0.026243 -0.017030 0.013918
v -0.025229 0.018515 0.009418
v -0.030036 0.000000 0.009566
v -0.031244 0.000000 0.013918
v -0.026689 0.001945 0.006918
v -0.030036 0.000000 0.009566
v -0.025229 0.018515 0.009418
v -0.026689 0.001945 0.006918
v -0.017422 0.020428 0.006918
v 0.005017 0.013598 0.002099
v -0.017422 0.020428 0.006918
v -0.026689 0.001945 0.006918
v -0.025229 0.018515 0.009418
v -0.030036 0.000000 0.009566
v -0.025494 -0.002626 0.006917
v -0.020172 -0.017678 0.006918
v -0.026689 0.001945 0.006918
v -0.025494 -0.002626 0.006917
v -0.030036 0.000000 0.009566
v -0.020172 -0.017678 0.006918
v -0.025494 -0.002626 0.006917
v 0.005017 0.013598 0.002099
v -0.025494 -0.002626 0.006917
v -0.026689 0.001945 0.006918
v 0.005017 0.013598 0.002099
vn 0.0384 0.3650 -0.9302
vn 0.1848 0.3200 -0.9292
vn -0.3090 0.9511 0.0013
vn -0.1005 0.3091 -0.9457
vn -0.1165 0.2878 -0.9506
vn -0.9523 0.2796 -0.1224
vn 0.2174 0.2722 -0.9374
vn 0.2693 0.0975 -0.9581
vn 0.3359 0.2440 -0.9098
vn 0.1582 -0.0793 -0.9842
vn 0.0199 0.0436 0.9988
vn 0.9159 0.3791 0.1324
vn 0.1045 0.9939 -0.0352
vn -0.1343 0.9341 0.3309
vn -0.1027 -0.7145 0.6920
vn -0.0068 -0.0473 0.9989
vn 0.0438 -0.1238 -0.9913
vn 0.0320 -0.1232 -0.9919
vn 0.2453 -0.1230 -0.9616
vn 0.1044 -0.2951 -0.9497
vn 0.3930 -0.3877 -0.8338
vn 0.7128 -0.6678 -0.2145
vn 0.0451 -0.5055 -0.8616
vn 0.0875 -0.3351 -0.9381
vn -0.3563 0.2955 -0.8864
vn -0.3294 0.3198 -0.8884
vn -0.7903 0.6123 0.0239
vn -0.5424 0.8246 0.1611
vn -0.6010 0.6936 0.3972
vn 0.2693 0.0935 -0.9585
vn 0.2578 0.0691 -0.9637
vn 0.3016 0.0809 -0.9500
vn 0.2998 -0.6565 0.6922
vn 0.0199 -0.0435 0.9989
vn 0.0404 0.0259 0.9988
vn 0.0460 0.0066 0.9989
vn 0.6069 0.3900 0.6925
vn 0.3594 0.0516 0.9318
vn 0.6620 0.2514 0.7061
vn 0.8099 0.5205 0.2705
vn 0.6071 0.3902 0.6922
vn 0.8029 0.5833 0.1229
vn 0.4987 0.8637 0.0738
vn 0.3964 0.8680 0.2992
vn 0.2998 0.6565 0.6922
vn 0.2998 0.6566 0.6921
vn -0.0546 -0.1089 -0.9925
vn 0.9159 -0.3791 0.1324
vn 0.8099 -0.5205 0.2705
vn 0.6071 -0.3902 0.6922
vn 0.9429 0.2729 -0.1908
vn 0.9228 -0.2208 -0.3157
vn 0.0923 -0.9876 -0.1270
vn -0.1371 -0.9535 0.2683
vn 0.3634 -0.7959 0.4843
vn 0.0460 -0.0066 0.9989
vn 0.0403 -0.0259 0.9989
vn 0.6069 -0.3900 0.6926
vn 0.3594 -0.0516 0.9318
vn 0.6620 -0.2514 0.7061
vn -0.0312 -0.0361 0.9989
vn -0.0458 -0.0134 0.9989
vn -0.4726 -0.5454 0.6922
vn -0.4726 -0.5454 0.6923
vn -0.6924 -0.2033 0.6922
vn -0.0458 0.0135 0.9989
vn -0.4727 0.5455 0.6921
vn -0.6926 0.2034 0.6921
vn -0.6924 0.2033 0.6922
vn -0.1824 -0.4443 -0.8771
vn -0.1753 -0.3496 -0.9204
vn -0.3589 -0.9004 -0.2459
vn -0.6010 -0.6936 0.3972
vn 0.3426 0.0728 -0.9367
vn 0.3884 0.0826 -0.9178
vn 0.3943 -0.0838 -0.9151
vn 0.6241 -0.1327 -0.7700
vn -0.0068 0.0474 0.9989
vn -0.0313 0.0361 0.9989
vn -0.4726 0.5454 0.6923
vn -0.1027 0.7144 0.6922
vn -0.1027 0.7145 0.6921
vn -0.6282 -0.2397 -0.7402
vn -0.9272 -0.2723 -0.2574
vn -0.8073 -0.3084 -0.5031
vn -0.9352 0.2407 -0.2596
vn -0.6699 0.1682 -0.7232
vn -0.1824 0.0914 -0.9790
vn -0.3380 0.1695 -0.9258
vn -0.5787 -0.2046 -0.7895
vn -0.5601 -0.1463 -0.8154
vn -0.1316 -0.0466 -0.9902
vn -0.1373 -0.0357 -0.9899
s 1
usemtl material_0
f 1//1 2//1 3//1
f 4//2 5//2 6//2
f 7//3 8//3 9//3
f 10//4 11//4 12//4
f 13//5 14//5 15//5
f 16//6 17//6 18//6
f 19//7 20//7 21//7
f 22//8 23//8 24//8
f 25//9 26//9 27//9
f 28//10 29//10 30//10
f 31//11 32//11 33//11
f 34//12 35//12 36//12
f 37//13 38//13 39//13
f 40//14 41//14 42//14
f 43//15 44//15 45//15
f 46//16 47//16 48//16
f 49//17 50//17 51//17
f 52//18 53//18 54//18
f 55//19 56//19 57//19
f 58//20 59//20 60//20
f 61//21 62//21 63//21
f 64//22 65//22 66//22
f 67//23 68//23 69//23
f 70//24 71//24 72//24
f 73//25 74//25 75//25
f 76//26 77//26 78//26
f 79//27 80//27 81//27
f 82//28 83//28 84//28
f 85//29 86//29 87//29
f 88//30 89//30 90//30
f 91//31 92//31 93//31
f 94//32 95//32 96//32
f 97//33 98//33 99//33
f 100//34 101//34 102//34
f 103//35 104//35 105//35
f 106//36 107//36 108//36
f 109//37 110//37 111//37
f 112//38 113//38 114//38
f 115//39 116//39 117//39
f 118//40 119//40 120//40
f 121//41 122//41 123//41
f 124//42 125//42 126//42
f 127//43 128//43 129//43
f 130//44 131//44 132//44
f 133//45 134//45 135//45
f 136//46 137//46 138//46
f 139//47 140//47 141//47
f 142//48 143//48 144//48
f 145//49 146//49 147//49
f 148//50 149//50 150//50
f 151//51 152//51 153//51
f 154//52 155//52 156//52
f 157//53 158//53 159//53
f 160//54 161//54 162//54
f 163//15 164//15 165//15
f 166//33 167//33 168//33
f 169//55 170//55 171//55
f 172//56 173//56 174//56
f 175//57 176//57 177//57
f 178//58 179//58 180//58
f 181//59 182//59 183//59
f 184//60 185//60 186//60
f 187//61 188//61 189//61
f 190//62 191//62 192//62
f 193//63 194//63 195//63
f 196//64 197//64 198//64
f 199//65 200//65 201//65
f 202//65 203//65 204//65
f 205//66 206//66 207//66
f 208//67 209//67 210//67
f 211//68 212//68 213//68
f 214//69 215//69 216//69
f 217//70 218//70 219//70
f 220//71 221//71 222//71
f 223//72 224//72 225//72
f 226//73 227//73 228//73
f 229//74 230//74 231//74
f 232//75 233//75 234//75
f 235//76 236//76 237//76
f 238//77 239//77 240//77
f 241//78 242//78 243//78
f 244//79 245//79 246//79
f 247//80 248//80 249//80
f 250//81 251//81 252//81
f 253//82 254//82 255//82
f 256//83 257//83 258//83
f 259//84 260//84 261//84
f 262//85 263//85 264//85
f 265//86 266//86 267//86
f 268//87 269//87 270//87
f 271//88 272//88 273//88
f 274//89 275//89 276//89
f 277//90 278//90 279//90
f 280//91 281//91 282//91
f 283//92 284//92 285//92
f 286//93 287//93 288//93
