# Blender 4.5.10 LTS
# www.blender.org
mtllib iiwa_link3_resp_coll_1.mtl
o node
v 0.047006 -0.032041 -0.132771
v -0.044500 -0.032035 -0.133577
v -0.006682 -0.032035 -0.145027
v 0.045444 -0.019653 0.029285
v 0.064964 -0.032019 -0.003573
v 0.067957 0.003225 0.013528
v -0.044500 -0.032035 -0.133577
v -0.020038 -0.006672 -0.142459
v -0.006682 -0.032035 -0.145027
v -0.044138 0.086308 -0.051755
v -0.064058 0.057218 -0.038730
v -0.053057 0.066156 -0.008804
v -0.076897 0.022438 -0.033946
v -0.081648 -0.002059 -0.037593
v -0.067470 0.021118 0.019319
v 0.060060 0.061485 -0.082437
v 0.057891 0.070440 -0.053030
v 0.069850 0.047550 -0.061484
v 0.057891 0.070440 -0.053030
v 0.060060 0.061485 -0.082437
v 0.045998 0.083573 -0.080011
v -0.082609 -0.032034 -0.081151
v -0.079218 -0.032035 -0.027114
v -0.085774 -0.032029 -0.059418
v -0.044500 -0.032035 -0.133577
v -0.079218 -0.032035 -0.027114
v -0.082609 -0.032034 -0.081151
v 0.047006 -0.032041 -0.132771
v -0.079218 -0.032035 -0.027114
v -0.044500 -0.032035 -0.133577
v -0.079218 -0.032035 -0.027114
v -0.081648 -0.002059 -0.037593
v -0.085774 -0.032029 -0.059418
v -0.081648 -0.002059 -0.037593
v -0.079218 -0.032035 -0.027114
v -0.067470 0.021118 0.019319
v -0.025690 -0.024789 0.034407
v -0.003237 -0.031966 0.025828
v 0.012078 -0.025887 0.036299
v -0.025690 -0.024789 0.034407
v -0.056798 -0.032019 0.004292
v -0.003237 -0.031966 0.025828
v -0.025690 -0.024789 0.034407
v 0.012078 -0.025887 0.036299
v -0.004084 0.052195 0.077217
v 0.040907 -0.032042 0.016105
v 0.045444 -0.019653 0.029285
v 0.012078 -0.025887 0.036299
v 0.045444 -0.019653 0.029285
v 0.040907 -0.032042 0.016105
v 0.064964 -0.032019 -0.003573
v -0.003237 -0.031966 0.025828
v 0.040907 -0.032042 0.016105
v 0.012078 -0.025887 0.036299
v -0.056798 -0.032019 0.004292
v 0.040907 -0.032042 0.016105
v -0.003237 -0.031966 0.025828
v -0.079218 -0.032035 -0.027114
v 0.040907 -0.032042 0.016105
v -0.056798 -0.032019 0.004292
v 0.040907 -0.032042 0.016105
v -0.079218 -0.032035 -0.027114
v 0.047006 -0.032041 -0.132771
v 0.043303 0.047525 0.060045
v 0.063434 0.037837 0.023565
v 0.054929 0.065095 -0.008382
v 0.043303 0.047525 0.060045
v 0.045444 -0.019653 0.029285
v 0.067957 0.003225 0.013528
v -0.041935 0.047549 0.060226
v -0.056415 0.041446 0.037099
v -0.067470 0.021118 0.019319
v -0.064058 0.057218 -0.038730
v -0.065925 0.034772 0.012252
v -0.053057 0.066156 -0.008804
v -0.065925 0.034772 0.012252
v -0.056415 0.041446 0.037099
v -0.053057 0.066156 -0.008804
v -0.076897 0.022438 -0.033946
v -0.065925 0.034772 0.012252
v -0.064058 0.057218 -0.038730
v -0.056415 0.041446 0.037099
v -0.065925 0.034772 0.012252
v -0.067470 0.021118 0.019319
v -0.065925 0.034772 0.012252
v -0.076897 0.022438 -0.033946
v -0.067470 0.021118 0.019319
v 0.012110 0.082463 0.010061
v -0.010920 0.082463 0.010060
v -0.004084 0.052195 0.077217
v -0.027743 0.094917 -0.058936
v -0.044138 0.086308 -0.051755
v -0.027461 0.089765 -0.022910
v 0.076410 -0.032031 -0.099896
v 0.084289 -0.032033 -0.076388
v 0.047006 -0.032041 -0.132771
v 0.084289 -0.032033 -0.076388
v 0.040907 -0.032042 0.016105
v 0.047006 -0.032041 -0.132771
v 0.018522 -0.032035 -0.143353
v 0.047006 -0.032041 -0.132771
v -0.006682 -0.032035 -0.145027
v 0.063336 0.000380 -0.116154
v 0.076410 -0.032031 -0.099896
v 0.047006 -0.032041 -0.132771
v 0.046713 0.074563 -0.099326
v 0.029305 0.093233 -0.077707
v 0.045998 0.083573 -0.080011
v 0.046713 0.074563 -0.099326
v 0.060060 0.061485 -0.082437
v 0.046965 0.060797 -0.113573
v 0.060060 0.061485 -0.082437
v 0.046713 0.074563 -0.099326
v 0.045998 0.083573 -0.080011
v 0.029305 0.093233 -0.077707
v 0.012429 0.099164 -0.063778
v 0.029157 0.093293 -0.040485
v 0.045312 0.086320 -0.051762
v 0.057891 0.070440 -0.053030
v 0.045998 0.083573 -0.080011
v 0.029305 0.093233 -0.077707
v 0.045312 0.086320 -0.051762
v 0.045998 0.083573 -0.080011
v 0.045312 0.086320 -0.051762
v 0.029305 0.093233 -0.077707
v 0.029157 0.093293 -0.040485
v 0.043676 0.066704 0.019748
v 0.043303 0.047525 0.060045
v 0.054929 0.065095 -0.008382
v 0.015223 0.051726 0.075465
v 0.012110 0.082463 0.010061
v -0.004084 0.052195 0.077217
v 0.012110 0.082463 0.010061
v 0.015223 0.051726 0.075465
v 0.026517 0.078858 0.010396
v 0.012078 -0.025887 0.036299
v 0.015223 0.051726 0.075465
v -0.004084 0.052195 0.077217
v 0.045444 -0.019653 0.029285
v 0.015223 0.051726 0.075465
v 0.012078 -0.025887 0.036299
v 0.067886 0.021192 0.018601
v 0.043303 0.047525 0.060045
v 0.067957 0.003225 0.013528
v 0.043303 0.047525 0.060045
v 0.067886 0.021192 0.018601
v 0.063434 0.037837 0.023565
v 0.067886 0.021192 0.018601
v 0.073515 0.036303 -0.031478
v 0.063434 0.037837 0.023565
v 0.057891 0.070440 -0.053030
v 0.066622 0.054004 -0.035334
v 0.069850 0.047550 -0.061484
v 0.066622 0.054004 -0.035334
v 0.073515 0.036303 -0.031478
v 0.069850 0.047550 -0.061484
v 0.066622 0.054004 -0.035334
v 0.057891 0.070440 -0.053030
v 0.054929 0.065095 -0.008382
v 0.063434 0.037837 0.023565
v 0.066622 0.054004 -0.035334
v 0.054929 0.065095 -0.008382
v 0.073515 0.036303 -0.031478
v 0.066622 0.054004 -0.035334
v 0.063434 0.037837 0.023565
v 0.073515 0.036303 -0.031478
v 0.080133 0.012481 -0.071001
v 0.069850 0.047550 -0.061484
v 0.084289 -0.032033 -0.076388
v 0.080133 0.012481 -0.071001
v 0.085774 -0.032032 -0.054072
v -0.043648 0.080244 -0.018768
v -0.044138 0.086308 -0.051755
v -0.053057 0.066156 -0.008804
v -0.044138 0.086308 -0.051755
v -0.043648 0.080244 -0.018768
v -0.027461 0.089765 -0.022910
v -0.056415 0.041446 0.037099
v -0.042691 0.066282 0.020208
v -0.053057 0.066156 -0.008804
v -0.041935 0.047549 0.060226
v -0.042691 0.066282 0.020208
v -0.056415 0.041446 0.037099
v -0.042691 0.066282 0.020208
v -0.043648 0.080244 -0.018768
v -0.053057 0.066156 -0.008804
v -0.061967 -0.007240 0.022970
v -0.041935 0.047549 0.060226
v -0.067470 0.021118 0.019319
v -0.079218 -0.032035 -0.027114
v -0.061967 -0.007240 0.022970
v -0.067470 0.021118 0.019319
v -0.061967 -0.007240 0.022970
v -0.079218 -0.032035 -0.027114
v -0.056798 -0.032019 0.004292
v 0.029157 0.093293 -0.040485
v 0.012261 0.094709 -0.026025
v 0.026517 0.078858 0.010396
v 0.012261 0.094709 -0.026025
v 0.012110 0.082463 0.010061
v 0.026517 0.078858 0.010396
v 0.012429 0.099164 -0.063778
v 0.012261 0.094709 -0.026025
v 0.029157 0.093293 -0.040485
v 0.079176 -0.032034 -0.026071
v 0.084289 -0.032033 -0.076388
v 0.085774 -0.032032 -0.054072
v 0.084289 -0.032033 -0.076388
v 0.079176 -0.032034 -0.026071
v 0.040907 -0.032042 0.016105
v 0.040907 -0.032042 0.016105
v 0.079176 -0.032034 -0.026071
v 0.064964 -0.032019 -0.003573
v 0.064964 -0.032019 -0.003573
v 0.079176 -0.032034 -0.026071
v 0.067957 0.003225 0.013528
v 0.079176 -0.032034 -0.026071
v 0.067886 0.021192 0.018601
v 0.067957 0.003225 0.013528
v 0.018522 -0.032035 -0.143353
v 0.048509 -0.003564 -0.131426
v 0.047006 -0.032041 -0.132771
v 0.048509 -0.003564 -0.131426
v 0.063336 0.000380 -0.116154
v 0.047006 -0.032041 -0.132771
v 0.063336 0.000380 -0.116154
v 0.048509 -0.003564 -0.131426
v 0.048215 0.037647 -0.124492
v 0.057891 0.070440 -0.053030
v 0.044827 0.080208 -0.018637
v 0.054929 0.065095 -0.008382
v 0.045312 0.086320 -0.051762
v 0.044827 0.080208 -0.018637
v 0.057891 0.070440 -0.053030
v 0.044827 0.080208 -0.018637
v 0.043676 0.066704 0.019748
v 0.054929 0.065095 -0.008382
v 0.044827 0.080208 -0.018637
v 0.045312 0.086320 -0.051762
v 0.029157 0.093293 -0.040485
v 0.044827 0.080208 -0.018637
v 0.029157 0.093293 -0.040485
v 0.026517 0.078858 0.010396
v 0.043676 0.066704 0.019748
v 0.044827 0.080208 -0.018637
v 0.026517 0.078858 0.010396
v 0.015223 0.051726 0.075465
v 0.031900 0.049827 0.068376
v 0.026517 0.078858 0.010396
v 0.031900 0.049827 0.068376
v 0.043676 0.066704 0.019748
v 0.026517 0.078858 0.010396
v 0.043676 0.066704 0.019748
v 0.031900 0.049827 0.068376
v 0.043303 0.047525 0.060045
v 0.043303 0.047525 0.060045
v 0.031900 0.049827 0.068376
v 0.045444 -0.019653 0.029285
v 0.031900 0.049827 0.068376
v 0.015223 0.051726 0.075465
v 0.045444 -0.019653 0.029285
v 0.067886 0.021192 0.018601
v 0.081893 -0.001799 -0.037332
v 0.073515 0.036303 -0.031478
v 0.080133 0.012481 -0.071001
v 0.081893 -0.001799 -0.037332
v 0.085774 -0.032032 -0.054072
v 0.081893 -0.001799 -0.037332
v 0.080133 0.012481 -0.071001
v 0.073515 0.036303 -0.031478
v 0.081893 -0.001799 -0.037332
v 0.079176 -0.032034 -0.026071
v 0.085774 -0.032032 -0.054072
v 0.079176 -0.032034 -0.026071
v 0.081893 -0.001799 -0.037332
v 0.067886 0.021192 0.018601
v 0.078128 0.008512 -0.085925
v 0.084289 -0.032033 -0.076388
v 0.076410 -0.032031 -0.099896
v 0.078128 0.008512 -0.085925
v 0.080133 0.012481 -0.071001
v 0.084289 -0.032033 -0.076388
v 0.063336 0.000380 -0.116154
v 0.078128 0.008512 -0.085925
v 0.076410 -0.032031 -0.099896
v 0.078128 0.008512 -0.085925
v 0.060060 0.061485 -0.082437
v 0.069850 0.047550 -0.061484
v 0.080133 0.012481 -0.071001
v 0.078128 0.008512 -0.085925
v 0.069850 0.047550 -0.061484
v -0.043648 0.080244 -0.018768
v -0.025666 0.078645 0.010638
v -0.027461 0.089765 -0.022910
v -0.042691 0.066282 0.020208
v -0.025666 0.078645 0.010638
v -0.043648 0.080244 -0.018768
v -0.025666 0.078645 0.010638
v -0.010920 0.082463 0.010060
v -0.027461 0.089765 -0.022910
v -0.061967 -0.007240 0.022970
v -0.045125 -0.019653 0.029284
v -0.041935 0.047549 0.060226
v -0.025690 -0.024789 0.034407
v -0.045125 -0.019653 0.029284
v -0.056798 -0.032019 0.004292
v -0.045125 -0.019653 0.029284
v -0.061967 -0.007240 0.022970
v -0.056798 -0.032019 0.004292
v -0.005189 0.095950 -0.027448
v 0.012429 0.099164 -0.063778
v -0.005187 0.100047 -0.065153
v -0.005189 0.095950 -0.027448
v 0.012261 0.094709 -0.026025
v 0.012429 0.099164 -0.063778
v -0.027743 0.094917 -0.058936
v -0.005189 0.095950 -0.027448
v -0.005187 0.100047 -0.065153
v -0.005189 0.095950 -0.027448
v -0.027743 0.094917 -0.058936
v -0.027461 0.089765 -0.022910
v -0.010920 0.082463 0.010060
v -0.005189 0.095950 -0.027448
v -0.027461 0.089765 -0.022910
v 0.012110 0.082463 0.010061
v -0.005189 0.095950 -0.027448
v -0.010920 0.082463 0.010060
v 0.012261 0.094709 -0.026025
v -0.005189 0.095950 -0.027448
v 0.012110 0.082463 0.010061
v 0.046713 0.074563 -0.099326
v 0.029592 0.077267 -0.111456
v 0.029305 0.093233 -0.077707
v 0.029592 0.077267 -0.111456
v 0.006481 0.090681 -0.101802
v 0.029305 0.093233 -0.077707
v 0.029592 0.077267 -0.111456
v 0.046713 0.074563 -0.099326
v 0.046965 0.060797 -0.113573
v 0.009230 -0.007177 -0.144366
v 0.018522 -0.032035 -0.143353
v -0.006682 -0.032035 -0.145027
v -0.075865 -0.032032 -0.100178
v -0.044500 -0.032035 -0.133577
v -0.082609 -0.032034 -0.081151
v -0.047626 -0.003512 -0.131305
v -0.020038 -0.006672 -0.142459
v -0.044500 -0.032035 -0.133577
v -0.047626 -0.003512 -0.131305
v -0.028008 0.026877 -0.136947
v -0.020038 -0.006672 -0.142459
v -0.044138 0.086308 -0.051755
v -0.044781 0.083593 -0.079999
v -0.064058 0.057218 -0.038730
v -0.079054 0.011246 -0.075708
v -0.082609 -0.032034 -0.081151
v -0.085774 -0.032029 -0.059418
v -0.047626 -0.003512 -0.131305
v -0.046242 0.039349 -0.124406
v -0.028008 0.026877 -0.136947
v -0.046242 0.039349 -0.124406
v -0.047626 -0.003512 -0.131305
v -0.064150 0.000858 -0.114482
v 0.064569 0.026870 -0.106679
v 0.063336 0.000380 -0.116154
v 0.048215 0.037647 -0.124492
v 0.064569 0.026870 -0.106679
v 0.078128 0.008512 -0.085925
v 0.063336 0.000380 -0.116154
v 0.064569 0.026870 -0.106679
v 0.048215 0.037647 -0.124492
v 0.046965 0.060797 -0.113573
v 0.060060 0.061485 -0.082437
v 0.064569 0.026870 -0.106679
v 0.046965 0.060797 -0.113573
v 0.078128 0.008512 -0.085925
v 0.064569 0.026870 -0.106679
v 0.060060 0.061485 -0.082437
v -0.033107 0.049431 0.066899
v -0.042691 0.066282 0.020208
v -0.041935 0.047549 0.060226
v -0.033107 0.049431 0.066899
v -0.025666 0.078645 0.010638
v -0.042691 0.066282 0.020208
v -0.045125 -0.019653 0.029284
v -0.033107 0.049431 0.066899
v -0.041935 0.047549 0.060226
v -0.011421 0.090246 -0.100526
v 0.006411 0.097425 -0.083974
v 0.006481 0.090681 -0.101802
v 0.012429 0.099164 -0.063778
v 0.006411 0.097425 -0.083974
v -0.005187 0.100047 -0.065153
v 0.006411 0.097425 -0.083974
v 0.012429 0.099164 -0.063778
v 0.029305 0.093233 -0.077707
v 0.006481 0.090681 -0.101802
v 0.006411 0.097425 -0.083974
v 0.029305 0.093233 -0.077707
v -0.075865 -0.032032 -0.100178
v -0.059896 -0.032030 -0.121342
v -0.044500 -0.032035 -0.133577
v -0.059896 -0.032030 -0.121342
v -0.075865 -0.032032 -0.100178
v -0.064150 0.000858 -0.114482
v -0.059896 -0.032030 -0.121342
v -0.047626 -0.003512 -0.131305
v -0.044500 -0.032035 -0.133577
v -0.047626 -0.003512 -0.131305
v -0.059896 -0.032030 -0.121342
v -0.064150 0.000858 -0.114482
v -0.028114 0.093233 -0.077707
v -0.027743 0.094917 -0.058936
v -0.005187 0.100047 -0.065153
v -0.027743 0.094917 -0.058936
v -0.028114 0.093233 -0.077707
v -0.044138 0.086308 -0.051755
v -0.028114 0.093233 -0.077707
v -0.044781 0.083593 -0.079999
v -0.044138 0.086308 -0.051755
v -0.028114 0.093233 -0.077707
v -0.011421 0.090246 -0.100526
v -0.028401 0.077267 -0.111457
v 0.006411 0.097425 -0.083974
v -0.028114 0.093233 -0.077707
v -0.005187 0.100047 -0.065153
v -0.028114 0.093233 -0.077707
v 0.006411 0.097425 -0.083974
v -0.011421 0.090246 -0.100526
v -0.045536 0.074423 -0.099519
v -0.028114 0.093233 -0.077707
v -0.028401 0.077267 -0.111457
v -0.044781 0.083593 -0.079999
v -0.028114 0.093233 -0.077707
v -0.045536 0.074423 -0.099519
v -0.076897 0.022438 -0.033946
v -0.079689 0.014538 -0.063822
v -0.081648 -0.002059 -0.037593
v -0.081648 -0.002059 -0.037593
v -0.079689 0.014538 -0.063822
v -0.085774 -0.032029 -0.059418
v -0.079689 0.014538 -0.063822
v -0.079054 0.011246 -0.075708
v -0.085774 -0.032029 -0.059418
v -0.045914 0.061177 -0.113162
v -0.045536 0.074423 -0.099519
v -0.028401 0.077267 -0.111457
v -0.033107 0.049431 0.066899
v -0.023339 0.050869 0.072228
v -0.025666 0.078645 0.010638
v -0.010920 0.082463 0.010060
v -0.023339 0.050869 0.072228
v -0.004084 0.052195 0.077217
v -0.025666 0.078645 0.010638
v -0.023339 0.050869 0.072228
v -0.010920 0.082463 0.010060
v -0.023339 0.050869 0.072228
v -0.025690 -0.024789 0.034407
v -0.004084 0.052195 0.077217
v -0.023339 0.050869 0.072228
v -0.045125 -0.019653 0.029284
v -0.025690 -0.024789 0.034407
v -0.023339 0.050869 0.072228
v -0.033107 0.049431 0.066899
v -0.045125 -0.019653 0.029284
v 0.048509 -0.003564 -0.131426
v 0.029180 0.026918 -0.136946
v 0.048215 0.037647 -0.124492
v 0.029180 0.026918 -0.136946
v 0.048509 -0.003564 -0.131426
v 0.018522 -0.032035 -0.143353
v 0.009230 -0.007177 -0.144366
v 0.029180 0.026918 -0.136946
v 0.018522 -0.032035 -0.143353
v -0.011421 0.090246 -0.100526
v -0.005374 0.079467 -0.117282
v -0.028401 0.077267 -0.111457
v -0.005374 0.079467 -0.117282
v -0.011421 0.090246 -0.100526
v 0.006481 0.090681 -0.101802
v 0.029592 0.077267 -0.111456
v -0.005374 0.079467 -0.117282
v 0.006481 0.090681 -0.101802
v 0.012771 0.064471 -0.127962
v -0.005374 0.079467 -0.117282
v 0.029592 0.077267 -0.111456
v -0.045914 0.061177 -0.113162
v -0.059154 0.047677 -0.099939
v -0.045536 0.074423 -0.099519
v -0.059154 0.047677 -0.099939
v -0.045914 0.061177 -0.113162
v -0.046242 0.039349 -0.124406
v 0.029180 0.026918 -0.136946
v 0.029348 0.045688 -0.132143
v 0.048215 0.037647 -0.124492
v 0.048215 0.037647 -0.124492
v 0.029348 0.045688 -0.132143
v 0.046965 0.060797 -0.113573
v 0.029348 0.045688 -0.132143
v 0.029592 0.077267 -0.111456
v 0.046965 0.060797 -0.113573
v 0.029348 0.045688 -0.132143
v 0.012771 0.064471 -0.127962
v 0.029592 0.077267 -0.111456
v -0.005055 0.029439 -0.141551
v 0.029180 0.026918 -0.136946
v 0.009230 -0.007177 -0.144366
v 0.029348 0.045688 -0.132143
v -0.005055 0.029439 -0.141551
v 0.012771 0.064471 -0.127962
v -0.005055 0.029439 -0.141551
v 0.029348 0.045688 -0.132143
v 0.029180 0.026918 -0.136946
v -0.028008 0.026877 -0.136947
v -0.005055 0.029439 -0.141551
v -0.020038 -0.006672 -0.142459
v -0.020038 -0.006672 -0.142459
v -0.005055 0.029439 -0.141551
v -0.006682 -0.032035 -0.145027
v -0.005055 0.029439 -0.141551
v 0.009230 -0.007177 -0.144366
v -0.006682 -0.032035 -0.145027
v -0.079689 0.014538 -0.063822
v -0.067097 0.050389 -0.065514
v -0.079054 0.011246 -0.075708
v -0.067097 0.050389 -0.065514
v -0.059154 0.047677 -0.099939
v -0.079054 0.011246 -0.075708
v -0.067097 0.050389 -0.065514
v -0.076897 0.022438 -0.033946
v -0.064058 0.057218 -0.038730
v -0.067097 0.050389 -0.065514
v -0.079689 0.014538 -0.063822
v -0.076897 0.022438 -0.033946
v -0.044781 0.083593 -0.079999
v -0.067097 0.050389 -0.065514
v -0.064058 0.057218 -0.038730
v -0.067097 0.050389 -0.065514
v -0.044781 0.083593 -0.079999
v -0.045536 0.074423 -0.099519
v -0.059154 0.047677 -0.099939
v -0.067097 0.050389 -0.065514
v -0.045536 0.074423 -0.099519
v -0.059154 0.047677 -0.099939
v -0.071886 0.004258 -0.102090
v -0.079054 0.011246 -0.075708
v -0.075865 -0.032032 -0.100178
v -0.071886 0.004258 -0.102090
v -0.064150 0.000858 -0.114482
v -0.071886 0.004258 -0.102090
v -0.046242 0.039349 -0.124406
v -0.064150 0.000858 -0.114482
v -0.071886 0.004258 -0.102090
v -0.059154 0.047677 -0.099939
v -0.046242 0.039349 -0.124406
v -0.071886 0.004258 -0.102090
v -0.075865 -0.032032 -0.100178
v -0.082609 -0.032034 -0.081151
v -0.079054 0.011246 -0.075708
v -0.071886 0.004258 -0.102090
v -0.082609 -0.032034 -0.081151
v -0.026765 0.045878 -0.132718
v -0.005055 0.029439 -0.141551
v -0.028008 0.026877 -0.136947
v -0.046242 0.039349 -0.124406
v -0.026765 0.045878 -0.132718
v -0.028008 0.026877 -0.136947
v -0.026765 0.045878 -0.132718
v -0.045914 0.061177 -0.113162
v -0.028401 0.077267 -0.111457
v -0.045914 0.061177 -0.113162
v -0.026765 0.045878 -0.132718
v -0.046242 0.039349 -0.124406
v -0.005055 0.029439 -0.141551
v -0.004882 0.064482 -0.129129
v 0.012771 0.064471 -0.127962
v -0.026765 0.045878 -0.132718
v -0.004882 0.064482 -0.129129
v -0.005055 0.029439 -0.141551
v -0.004882 0.064482 -0.129129
v -0.005374 0.079467 -0.117282
v 0.012771 0.064471 -0.127962
v -0.005374 0.079467 -0.117282
v -0.004882 0.064482 -0.129129
v -0.028401 0.077267 -0.111457
v -0.004882 0.064482 -0.129129
v -0.026765 0.045878 -0.132718
v -0.028401 0.077267 -0.111457
vn -0.0001 -1.0000 -0.0002
vn 0.7464 -0.3408 0.5717
vn -0.2893 -0.0556 -0.9556
vn -0.7951 0.5956 0.1144
vn -0.9710 0.1621 0.1759
vn 0.8702 0.4855 -0.0836
vn 0.8338 0.5422 -0.1036
vn -0.0013 -1.0000 0.0001
vn -0.0001 -1.0000 -0.0000
vn -0.9800 -0.0099 0.1989
vn -0.9708 0.0051 0.2398
vn -0.0520 -0.8287 0.5572
vn -0.1496 -0.9152 0.3742
vn -0.0578 -0.4727 0.8793
vn 0.2676 -0.7463 0.6095
vn 0.4360 -0.7258 0.5322
vn 0.0870 -0.9115 0.4020
vn -0.0008 -1.0000 0.0043
vn -0.0003 -1.0000 0.0007
vn 0.7756 0.5671 0.2774
vn 0.7208 -0.2695 0.6386
vn -0.8471 -0.0041 0.5314
vn -0.8636 0.4724 0.1764
vn -0.8536 0.4823 0.1972
vn -0.9252 0.3586 0.1240
vn -0.9244 0.2526 0.2860
vn -0.9640 0.1999 0.1756
vn -0.0000 0.9117 0.4109
vn -0.4149 0.9002 0.1320
vn 0.0007 -1.0000 -0.0003
vn 0.0002 -1.0000 -0.0000
vn 0.0001 -1.0000 -0.0008
vn 0.7449 -0.0337 -0.6663
vn 0.4267 0.8255 -0.3693
vn 0.8448 0.3921 -0.3640
vn 0.8112 0.5409 -0.2223
vn 0.3314 0.9435 -0.0002
vn 0.7816 0.6224 -0.0415
vn 0.4920 0.8676 -0.0724
vn 0.3964 0.9181 0.0001
vn 0.7749 0.5679 0.2775
vn 0.0603 0.9045 0.4222
vn 0.2128 0.8882 0.4073
vn 0.0697 -0.4517 0.8895
vn 0.2630 -0.4431 0.8570
vn 0.8012 -0.1597 0.5767
vn 0.8821 0.0986 0.4606
vn 0.9634 0.2068 0.1707
vn 0.8855 0.4646 -0.0054
vn 0.9298 0.3674 0.0241
vn 0.8163 0.5647 0.1217
vn 0.8610 0.4766 0.1774
vn 0.9085 0.3877 0.1556
vn 0.9588 0.2841 -0.0107
vn 0.9927 0.1007 -0.0661
vn -0.7825 0.6102 0.1238
vn -0.4679 0.8679 0.1665
vn -0.7550 0.5989 0.2672
vn -0.7344 0.6092 0.2991
vn -0.7130 0.6543 0.2519
vn -0.8193 -0.0860 0.5669
vn -0.9162 -0.1289 0.3794
vn -0.6953 -0.5194 0.4967
vn 0.3110 0.9100 0.2743
vn 0.2236 0.9227 0.3141
vn 0.1812 0.9766 0.1160
vn 0.0005 -1.0000 -0.0000
vn 0.0030 -1.0000 0.0026
vn 0.8025 -0.3143 0.5072
vn 0.9325 -0.0947 0.3485
vn 0.3481 0.0259 -0.9371
vn 0.7181 -0.0051 -0.6959
vn 0.6958 0.1240 -0.7075
vn 0.7837 0.6085 0.1248
vn 0.7826 0.6100 0.1240
vn 0.7180 0.6496 0.2501
vn 0.4860 0.8582 0.1655
vn 0.3650 0.8905 0.2716
vn 0.4306 0.8473 0.3110
vn 0.2735 0.8700 0.4102
vn 0.3848 0.8391 0.3844
vn 0.4463 0.8064 0.3880
vn 0.5071 -0.3454 0.7896
vn 0.3146 -0.4181 0.8522
vn 0.9682 0.1875 0.1654
vn 0.9920 0.1264 0.0018
vn 0.9772 0.2091 0.0376
vn 0.9733 -0.0020 0.2293
vn 0.9703 0.0029 0.2418
vn 0.9459 0.0692 -0.3170
vn 0.9806 0.1111 -0.1614
vn 0.9806 0.1111 -0.1613
vn 0.8781 0.1222 -0.4626
vn 0.9206 0.3279 -0.2120
vn 0.9211 0.3273 -0.2109
vn -0.4235 0.8529 0.3054
vn -0.4366 0.8435 0.3129
vn -0.2260 0.9210 0.3174
vn -0.5357 -0.3320 0.7764
vn -0.3453 -0.7670 0.5408
vn -0.6170 -0.5517 0.5612
vn 0.0414 0.9933 0.1079
vn 0.0609 0.9912 0.1172
vn -0.1926 0.9755 0.1060
vn -0.2385 0.9611 0.1393
vn -0.1966 0.9318 0.3050
vn -0.0000 0.9410 0.3384
vn 0.0411 0.9461 0.3212
vn 0.4056 0.8276 -0.3880
vn 0.3284 0.8549 -0.4016
vn 0.5163 0.6204 -0.5904
vn 0.0663 -0.0159 -0.9977
vn -0.0003 -1.0000 -0.0002
vn -0.3713 0.0332 -0.9279
vn -0.3676 0.0651 -0.9277
vn -0.8317 0.5541 -0.0343
vn -0.9847 0.0989 -0.1434
vn -0.4862 0.1542 -0.8602
vn -0.6887 0.1369 -0.7120
vn 0.7764 0.1799 -0.6040
vn 0.8775 0.1248 -0.4630
vn 0.7862 0.2979 -0.5415
vn 0.8540 0.3685 -0.3673
vn 0.8973 0.3257 -0.2981
vn -0.4605 0.8006 0.3835
vn -0.3925 0.8365 0.3825
vn -0.5211 -0.3364 0.7844
vn -0.0479 0.9342 -0.3535
vn 0.0578 0.9930 -0.1027
vn 0.2172 0.9649 -0.1478
vn 0.2588 0.9038 -0.3408
vn -0.0010 -1.0000 -0.0009
vn -0.7981 0.0224 -0.6022
vn -0.6221 -0.0058 -0.7829
vn -0.7049 0.0563 -0.7070
vn -0.2424 0.9667 -0.0820
vn -0.4872 0.8706 -0.0685
vn -0.4919 0.8677 -0.0722
vn -0.3862 0.8351 -0.3918
vn -0.1586 0.9598 -0.2314
vn -0.1602 0.9569 -0.2424
vn -0.4073 0.8269 -0.3877
vn -0.4261 0.8250 -0.3711
vn -0.9820 0.1840 0.0431
vn -0.9914 0.1304 0.0085
vn -0.9889 0.1211 -0.0864
vn -0.5143 0.6224 -0.5900
vn -0.3420 0.8517 0.3970
vn -0.1700 0.8918 0.4192
vn -0.2138 0.8875 0.4083
vn -0.1979 -0.4334 0.8792
vn -0.3327 -0.4134 0.8476
vn -0.3980 -0.3843 0.8330
vn 0.4813 0.1488 -0.8638
vn 0.3347 0.0418 -0.9414
vn 0.2597 0.0578 -0.9639
vn -0.2222 0.7816 -0.5829
vn -0.0597 0.8296 -0.5552
vn 0.1556 0.7395 -0.6549
vn 0.1606 0.6941 -0.7017
vn -0.8188 0.4230 -0.3880
vn -0.8062 0.2804 -0.5209
vn 0.4452 0.2182 -0.8684
vn 0.4847 0.3944 -0.7807
vn 0.3835 0.5040 -0.7739
vn 0.3771 0.5055 -0.7761
vn 0.1416 0.1307 -0.9813
vn 0.1122 0.3092 -0.9443
vn 0.1469 0.2440 -0.9586
vn -0.2073 0.1104 -0.9720
vn -0.0804 0.0584 -0.9950
vn -0.0487 0.0577 -0.9972
vn -0.9363 0.3223 -0.1393
vn -0.9102 0.3397 -0.2368
vn -0.9372 0.3484 0.0175
vn -0.9435 0.3314 0.0005
vn -0.8379 0.5441 -0.0437
vn -0.8513 0.4868 -0.1957
vn -0.8648 0.4440 -0.2345
vn -0.9047 0.2812 -0.3202
vn -0.8386 0.0634 -0.5410
vn -0.7971 0.2265 -0.5598
vn -0.8130 0.2641 -0.5189
vn -0.9391 0.0854 -0.3328
vn -0.9506 0.1144 -0.2886
vn -0.2158 0.2255 -0.9500
vn -0.4448 0.2222 -0.8677
vn -0.3870 0.5032 -0.7727
vn -0.4708 0.4096 -0.7814
vn 0.0624 0.3332 -0.9408
vn -0.1289 0.3319 -0.9345
vn 0.0521 0.6204 -0.7826
vn -0.2500 0.5954 -0.7635
vn -0.3131 0.5214 -0.7938
s 1
usemtl material_0
f 1//1 2//1 3//1
f 4//2 5//2 6//2
f 7//3 8//3 9//3
f 10//4 11//4 12//4
f 13//5 14//5 15//5
f 16//6 17//6 18//6
f 19//7 20//7 21//7
f 22//8 23//8 24//8
f 25//9 26//9 27//9
f 28//9 29//9 30//9
f 31//10 32//10 33//10
f 34//11 35//11 36//11
f 37//12 38//12 39//12
f 40//13 41//13 42//13
f 43//14 44//14 45//14
f 46//15 47//15 48//15
f 49//16 50//16 51//16
f 52//17 53//17 54//17
f 55//18 56//18 57//18
f 58//19 59//19 60//19
f 61//9 62//9 63//9
f 64//20 65//20 66//20
f 67//21 68//21 69//21
f 70//22 71//22 72//22
f 73//23 74//23 75//23
f 76//24 77//24 78//24
f 79//25 80//25 81//25
f 82//26 83//26 84//26
f 85//27 86//27 87//27
f 88//28 89//28 90//28
f 91//29 92//29 93//29
f 94//30 95//30 96//30
f 97//31 98//31 99//31
f 100//32 101//32 102//32
f 103//33 104//33 105//33
f 106//34 107//34 108//34
f 109//35 110//35 111//35
f 112//36 113//36 114//36
f 115//37 116//37 117//37
f 118//38 119//38 120//38
f 121//39 122//39 123//39
f 124//40 125//40 126//40
f 127//41 128//41 129//41
f 130//42 131//42 132//42
f 133//43 134//43 135//43
f 136//44 137//44 138//44
f 139//45 140//45 141//45
f 142//46 143//46 144//46
f 145//47 146//47 147//47
f 148//48 149//48 150//48
f 151//49 152//49 153//49
f 154//50 155//50 156//50
f 157//51 158//51 159//51
f 160//52 161//52 162//52
f 163//53 164//53 165//53
f 166//54 167//54 168//54
f 169//55 170//55 171//55
f 172//56 173//56 174//56
f 175//57 176//57 177//57
f 178//58 179//58 180//58
f 181//59 182//59 183//59
f 184//60 185//60 186//60
f 187//61 188//61 189//61
f 190//62 191//62 192//62
f 193//63 194//63 195//63
f 196//64 197//64 198//64
f 199//65 200//65 201//65
f 202//66 203//66 204//66
f 205//67 206//67 207//67
f 208//31 209//31 210//31
f 211//68 212//68 213//68
f 214//69 215//69 216//69
f 217//70 218//70 219//70
f 220//71 221//71 222//71
f 223//72 224//72 225//72
f 226//73 227//73 228//73
f 229//74 230//74 231//74
f 232//75 233//75 234//75
f 235//76 236//76 237//76
f 238//77 239//77 240//77
f 241//78 242//78 243//78
f 244//79 245//79 246//79
f 247//80 248//80 249//80
f 250//81 251//81 252//81
f 253//82 254//82 255//82
f 256//83 257//83 258//83
f 259//84 260//84 261//84
f 262//85 263//85 264//85
f 265//86 266//86 267//86
f 268//87 269//87 270//87
f 271//88 272//88 273//88
f 274//89 275//89 276//89
f 277//90 278//90 279//90
f 280//91 281//92 282//92
f 283//93 284//93 285//93
f 286//94 287//94 288//94
f 289//95 290//95 291//95
f 292//96 293//96 294//96
f 295//97 296//97 297//97
f 298//98 299//98 300//98
f 301//99 302//99 303//99
f 304//100 305//100 306//100
f 307//101 308//101 309//101
f 310//102 311//102 312//102
f 313//103 314//103 315//103
f 316//104 317//104 318//104
f 319//105 320//105 321//105
f 322//106 323//106 324//106
f 325//107 326//107 327//107
f 328//108 329//108 330//108
f 331//109 332//109 333//109
f 334//110 335//110 336//110
f 337//111 338//111 339//111
f 340//112 341//112 342//112
f 343//113 344//113 345//113
f 346//114 347//114 348//114
f 349//115 350//115 351//115
f 352//116 353//116 354//116
f 355//117 356//117 357//117
f 358//118 359//118 360//118
f 361//119 362//119 363//119
f 364//120 365//120 366//120
f 367//121 368//121 369//121
f 370//122 371//122 372//122
f 373//123 374//123 375//123
f 376//124 377//124 378//124
f 379//125 380//125 381//125
f 382//126 383//126 384//126
f 385//127 386//127 387//127
f 388//128 389//128 390//128
f 391//129 392//129 393//129
f 394//130 395//130 396//130
f 397//131 398//131 399//131
f 400//132 401//132 402//132
f 403//133 404//133 405//133
f 406//134 407//134 408//134
f 409//135 410//135 411//135
f 412//136 413//136 414//136
f 415//137 416//137 417//137
f 418//138 419//138 420//138
f 421//139 422//139 423//139
f 424//140 425//140 426//140
f 427//141 428//141 429//141
f 430//142 431//142 432//142
f 433//143 434//143 435//143
f 436//144 437//144 438//144
f 439//145 440//145 441//145
f 442//146 443//146 444//146
f 445//147 446//147 447//147
f 448//148 449//148 450//148
f 451//149 452//149 453//149
f 454//150 455//150 456//150
f 457//151 458//151 459//151
f 460//152 461//152 462//152
f 463//153 464//153 465//153
f 466//154 467//154 468//154
f 469//155 470//155 471//155
f 472//156 473//156 474//156
f 475//157 476//157 477//157
f 478//158 479//158 480//158
f 481//159 482//159 483//159
f 484//160 485//160 486//160
f 487//161 488//161 489//161
f 490//162 491//162 492//162
f 493//163 494//163 495//163
f 496//164 497//164 498//164
f 499//165 500//165 501//165
f 502//166 503//166 504//166
f 505//167 506//167 507//167
f 508//168 509//168 510//168
f 511//169 512//169 513//169
f 514//170 515//170 516//170
f 517//171 518//171 519//171
f 520//172 521//172 522//172
f 523//173 524//173 525//173
f 526//174 527//174 528//174
f 529//175 530//175 531//175
f 532//176 533//176 534//176
f 535//177 536//177 537//177
f 538//178 539//178 540//178
f 541//179 542//179 543//179
f 544//180 545//180 546//180
f 547//181 548//181 549//181
f 550//182 551//182 552//182
f 553//183 554//183 555//183
f 556//184 557//184 558//184
f 559//185 560//185 561//185
f 562//186 563//186 564//186
f 565//187 566//187 567//187
f 568//188 569//188 570//188
f 571//189 572//189 573//189
f 574//190 575//190 576//190
f 577//191 578//191 579//191
f 580//192 581//192 582//192
f 583//193 584//193 585//193
f 586//194 587//194 588//194
