# Blender 4.5.10 LTS
# www.blender.org
mtllib iiwa_link_6_vis_2.mtl
o node
v -0.045476 0.065844 -0.116975
v -0.044216 0.067010 -0.112917
v -0.040480 0.069984 -0.115817
v -0.044216 0.067010 -0.112917
v -0.042894 0.068113 -0.108849
v -0.039483 0.070717 -0.112893
v -0.039483 0.070717 -0.112893
v -0.039985 0.070355 -0.114356
v -0.044216 0.067010 -0.112917
v -0.039985 0.070355 -0.114356
v -0.040480 0.069984 -0.115817
v -0.044216 0.067010 -0.112917
v -0.033888 0.074312 -0.108849
v -0.037537 0.072055 -0.112893
v -0.039483 0.070717 -0.112893
v -0.033888 0.074312 -0.108849
v -0.030842 0.075915 -0.116988
v -0.036497 0.072726 -0.115818
v -0.030842 0.075915 -0.116988
v -0.029322 0.076713 -0.121048
v -0.035451 0.073385 -0.118742
v -0.035451 0.073385 -0.118742
v -0.035977 0.073060 -0.117280
v -0.030842 0.075915 -0.116988
v -0.029322 0.076713 -0.121048
v -0.027761 0.077436 -0.125116
v -0.035451 0.073385 -0.118742
v -0.035977 0.073060 -0.117280
v -0.036497 0.072726 -0.115818
v -0.030842 0.075915 -0.116988
v -0.036497 0.072726 -0.115818
v -0.037537 0.072055 -0.112893
v -0.033888 0.074312 -0.108849
v -0.039483 0.070717 -0.112893
v -0.042894 0.068113 -0.108849
v -0.033888 0.074312 -0.108849
v -0.048004 0.063503 -0.125116
v -0.043108 0.067938 -0.123689
v -0.043225 0.067844 -0.124046
v -0.048004 0.063503 -0.125116
v -0.041470 0.069242 -0.118742
v -0.042640 0.068321 -0.122262
v -0.042640 0.068321 -0.122262
v -0.043108 0.067938 -0.123689
v -0.048004 0.063503 -0.125116
v -0.034172 0.074148 -0.122262
v -0.042640 0.068321 -0.122262
v -0.041470 0.069242 -0.118742
v -0.041470 0.069242 -0.118742
v -0.035451 0.073385 -0.118742
v -0.034172 0.074148 -0.122262
v -0.027761 0.077436 -0.125116
v -0.033780 0.074374 -0.123332
v -0.034172 0.074148 -0.122262
v -0.027761 0.077436 -0.125116
v -0.033648 0.074448 -0.123690
v -0.033780 0.074374 -0.123332
v -0.027761 0.077436 -0.125116
v -0.033123 0.074746 -0.125116
v -0.033648 0.074448 -0.123690
v -0.034172 0.074148 -0.122262
v -0.035451 0.073385 -0.118742
v -0.027761 0.077436 -0.125116
v -0.043225 0.067844 -0.124046
v -0.043573 0.067553 -0.125116
v -0.048004 0.063503 -0.125116
v -0.040480 0.069984 -0.115817
v -0.041470 0.069242 -0.118742
v -0.045476 0.065844 -0.116975
v -0.041470 0.069242 -0.118742
v -0.048004 0.063503 -0.125116
v -0.045476 0.065844 -0.116975
v -0.028269 -0.046284 -0.108849
v -0.026036 -0.047160 -0.112806
v -0.023787 -0.048143 -0.110842
v -0.030611 -0.045158 -0.116803
v -0.031403 -0.044726 -0.111819
v -0.032208 -0.044325 -0.112583
v -0.026036 -0.047160 -0.112806
v -0.028269 -0.046284 -0.108849
v -0.031403 -0.044726 -0.111819
v -0.031403 -0.044726 -0.111819
v -0.030611 -0.045158 -0.116803
v -0.026036 -0.047160 -0.112806
v -0.032208 -0.044325 -0.112583
v -0.034511 -0.043026 -0.114826
v -0.030611 -0.045158 -0.116803
v -0.023787 -0.048143 -0.110842
v -0.021439 -0.048973 -0.108849
v -0.028269 -0.046284 -0.108849
v -0.040851 -0.038791 -0.108849
v -0.036584 -0.041754 -0.118870
v -0.036584 -0.041754 -0.114826
v -0.029894 -0.045514 -0.123553
v -0.028269 -0.046284 -0.125116
v -0.026044 -0.047203 -0.120990
v -0.027233 -0.046748 -0.119925
v -0.031459 -0.044668 -0.122006
v -0.029894 -0.045514 -0.123553
v -0.028269 -0.046284 -0.125116
v -0.021439 -0.048972 -0.125116
v -0.026044 -0.047203 -0.120990
v -0.031459 -0.044668 -0.122006
v -0.027233 -0.046748 -0.119925
v -0.030611 -0.045158 -0.116803
v -0.030611 -0.045158 -0.116803
v -0.034632 -0.042956 -0.118870
v -0.031459 -0.044668 -0.122006
v -0.036584 -0.041754 -0.114826
v -0.036584 -0.041754 -0.118870
v -0.034632 -0.042956 -0.118870
v -0.034632 -0.042956 -0.118870
v -0.030611 -0.045158 -0.116803
v -0.036584 -0.041754 -0.114826
v -0.026044 -0.047203 -0.120990
v -0.027233 -0.046748 -0.119925
v -0.029894 -0.045514 -0.123553
v -0.040851 -0.038790 -0.125116
v -0.036584 -0.041753 -0.125116
v -0.036584 -0.041754 -0.118870
v -0.036584 -0.041754 -0.118870
v -0.040851 -0.038791 -0.108849
v -0.040851 -0.038790 -0.125116
v -0.036584 -0.041754 -0.114826
v -0.036584 -0.041753 -0.108849
v -0.040851 -0.038791 -0.108849
v -0.034511 -0.043026 -0.114826
v -0.036584 -0.041754 -0.114826
v -0.030611 -0.045158 -0.116803
v -0.019709 -0.049522 -0.108849
v -0.019709 -0.049522 -0.119447
v -0.014688 -0.050836 -0.118370
v -0.019569 -0.049563 -0.121304
v -0.013484 -0.051085 -0.120171
v -0.014688 -0.050836 -0.118370
v -0.014688 -0.050836 -0.118370
v -0.019709 -0.049522 -0.119447
v -0.019569 -0.049563 -0.121304
v -0.012824 -0.051221 -0.121158
v -0.013484 -0.051085 -0.120171
v -0.017758 -0.050078 -0.123975
v -0.017758 -0.050078 -0.123975
v -0.017541 -0.050139 -0.124295
v -0.012824 -0.051221 -0.121158
v -0.019569 -0.049563 -0.121304
v -0.017758 -0.050078 -0.123975
v -0.013484 -0.051085 -0.120171
v -0.012971 -0.051193 -0.125418
v -0.011845 -0.051401 -0.121243
v -0.012824 -0.051221 -0.121158
v -0.005609 -0.052208 -0.125418
v -0.006750 -0.052105 -0.121243
v -0.011845 -0.051401 -0.121243
v -0.011845 -0.051401 -0.121243
v -0.012971 -0.051193 -0.125418
v -0.005609 -0.052208 -0.125418
v -0.002631 -0.052388 -0.125089
v -0.004931 -0.052248 -0.120024
v -0.006750 -0.052105 -0.121243
v -0.000736 -0.052422 -0.123888
v -0.003948 -0.052324 -0.119365
v -0.004931 -0.052248 -0.120024
v -0.004931 -0.052248 -0.120024
v -0.002631 -0.052388 -0.125089
v -0.000736 -0.052422 -0.123888
v -0.006750 -0.052105 -0.121243
v -0.005609 -0.052208 -0.125418
v -0.002631 -0.052388 -0.125089
v -0.000736 -0.052422 -0.123888
v 0.000199 -0.052438 -0.123296
v -0.003948 -0.052324 -0.119365
v -0.012824 -0.051221 -0.121158
v -0.017541 -0.050139 -0.124295
v -0.012971 -0.051193 -0.125418
v 0.001328 -0.052426 -0.119447
v -0.003860 -0.052329 -0.118370
v -0.003948 -0.052324 -0.119365
v 0.001328 -0.052426 -0.108849
v -0.003860 -0.052330 -0.108849
v -0.003860 -0.052329 -0.118370
v -0.003860 -0.052329 -0.118370
v 0.001328 -0.052426 -0.119447
v 0.001328 -0.052426 -0.108849
v -0.003948 -0.052324 -0.119365
v 0.000199 -0.052438 -0.123296
v 0.001328 -0.052426 -0.119447
v -0.014688 -0.050836 -0.118370
v -0.014688 -0.050836 -0.108849
v -0.019709 -0.049522 -0.108849
v 0.016816 -0.050295 -0.111843
v 0.013397 -0.051100 -0.114826
v 0.017720 -0.050080 -0.116803
v 0.017677 -0.050091 -0.111092
v 0.020111 -0.049386 -0.114810
v 0.022421 -0.048527 -0.112837
v 0.022421 -0.048527 -0.112837
v 0.020214 -0.049354 -0.108849
v 0.017677 -0.050091 -0.111092
v 0.017677 -0.050091 -0.111092
v 0.016816 -0.050295 -0.111843
v 0.020111 -0.049386 -0.114810
v 0.017720 -0.050080 -0.116803
v 0.020111 -0.049386 -0.114810
v 0.016816 -0.050295 -0.111843
v 0.022421 -0.048527 -0.112837
v 0.027091 -0.046791 -0.108849
v 0.020214 -0.049354 -0.108849
v 0.005857 -0.052184 -0.108849
v 0.011005 -0.051538 -0.118870
v 0.011005 -0.051538 -0.114826
v 0.022431 -0.048571 -0.120941
v 0.017720 -0.050080 -0.116803
v 0.016744 -0.050288 -0.121989
v 0.017720 -0.050080 -0.116803
v 0.013260 -0.051128 -0.118870
v 0.015017 -0.050753 -0.120433
v 0.015017 -0.050753 -0.120433
v 0.016744 -0.050288 -0.121989
v 0.017720 -0.050080 -0.116803
v 0.020214 -0.049354 -0.125116
v 0.027091 -0.046791 -0.125116
v 0.023629 -0.048187 -0.121994
v 0.023629 -0.048187 -0.121994
v 0.022431 -0.048571 -0.120941
v 0.020214 -0.049354 -0.125116
v 0.011005 -0.051538 -0.114826
v 0.011005 -0.051538 -0.118870
v 0.013260 -0.051128 -0.118870
v 0.013260 -0.051128 -0.118870
v 0.017720 -0.050080 -0.116803
v 0.011005 -0.051538 -0.114826
v 0.016744 -0.050288 -0.121989
v 0.020214 -0.049354 -0.125116
v 0.022431 -0.048571 -0.120941
v 0.005857 -0.052184 -0.125116
v 0.011005 -0.051538 -0.125116
v 0.011005 -0.051538 -0.118870
v 0.011005 -0.051538 -0.118870
v 0.005857 -0.052184 -0.108849
v 0.005857 -0.052184 -0.125116
v 0.011005 -0.051538 -0.114826
v 0.011005 -0.051538 -0.108849
v 0.005857 -0.052184 -0.108849
v 0.013397 -0.051100 -0.114826
v 0.011005 -0.051538 -0.114826
v 0.017720 -0.050080 -0.116803
v 0.045434 -0.034921 -0.116975
v 0.044174 -0.036087 -0.112917
v 0.040438 -0.039062 -0.115817
v 0.044174 -0.036087 -0.112917
v 0.042852 -0.037191 -0.108849
v 0.039441 -0.039793 -0.112893
v 0.039441 -0.039793 -0.112893
v 0.039943 -0.039432 -0.114356
v 0.044174 -0.036087 -0.112917
v 0.039943 -0.039432 -0.114356
v 0.040438 -0.039062 -0.115817
v 0.044174 -0.036087 -0.112917
v 0.033846 -0.043390 -0.108849
v 0.037495 -0.041132 -0.112893
v 0.039441 -0.039793 -0.112893
v 0.035409 -0.042462 -0.118742
v 0.030800 -0.044992 -0.116988
v 0.029280 -0.045791 -0.121048
v 0.033846 -0.043390 -0.108849
v 0.030800 -0.044992 -0.116988
v 0.036455 -0.041803 -0.115818
v 0.030800 -0.044992 -0.116988
v 0.035409 -0.042462 -0.118742
v 0.035935 -0.042137 -0.117280
v 0.035935 -0.042137 -0.117280
v 0.036455 -0.041803 -0.115818
v 0.030800 -0.044992 -0.116988
v 0.036455 -0.041803 -0.115818
v 0.037495 -0.041132 -0.112893
v 0.033846 -0.043390 -0.108849
v 0.029280 -0.045791 -0.121048
v 0.027719 -0.046514 -0.125116
v 0.035409 -0.042462 -0.118742
v 0.039441 -0.039793 -0.112893
v 0.042852 -0.037191 -0.108849
v 0.033846 -0.043390 -0.108849
v 0.047962 -0.032581 -0.125116
v 0.043066 -0.037015 -0.123689
v 0.043183 -0.036921 -0.124046
v 0.047962 -0.032581 -0.125116
v 0.041428 -0.038320 -0.118742
v 0.042598 -0.037398 -0.122262
v 0.042598 -0.037398 -0.122262
v 0.043066 -0.037015 -0.123689
v 0.047962 -0.032581 -0.125116
v 0.034130 -0.043226 -0.122262
v 0.042598 -0.037398 -0.122262
v 0.041428 -0.038320 -0.118742
v 0.041428 -0.038320 -0.118742
v 0.035409 -0.042462 -0.118742
v 0.034130 -0.043226 -0.122262
v 0.027719 -0.046514 -0.125116
v 0.033738 -0.043452 -0.123332
v 0.034130 -0.043226 -0.122262
v 0.027719 -0.046514 -0.125116
v 0.033606 -0.043526 -0.123690
v 0.033738 -0.043452 -0.123332
v 0.027719 -0.046514 -0.125116
v 0.033081 -0.043824 -0.125116
v 0.033606 -0.043526 -0.123690
v 0.034130 -0.043226 -0.122262
v 0.035409 -0.042462 -0.118742
v 0.027719 -0.046514 -0.125116
v 0.043183 -0.036921 -0.124046
v 0.043531 -0.036631 -0.125116
v 0.047962 -0.032581 -0.125116
v 0.040438 -0.039062 -0.115817
v 0.041428 -0.038320 -0.118742
v 0.045434 -0.034921 -0.116975
v 0.041428 -0.038320 -0.118742
v 0.047962 -0.032581 -0.125116
v 0.045434 -0.034921 -0.116975
v 0.028227 0.077206 -0.108849
v 0.025994 0.078082 -0.112806
v 0.023745 0.079067 -0.110841
v 0.030569 0.076081 -0.116803
v 0.031361 0.075649 -0.111819
v 0.032166 0.075248 -0.112583
v 0.025994 0.078082 -0.112806
v 0.028227 0.077206 -0.108849
v 0.031361 0.075649 -0.111819
v 0.031361 0.075649 -0.111819
v 0.030569 0.076081 -0.116803
v 0.025994 0.078082 -0.112806
v 0.032166 0.075248 -0.112583
v 0.034469 0.073950 -0.114826
v 0.030569 0.076081 -0.116803
v 0.023745 0.079067 -0.110841
v 0.021397 0.079895 -0.108849
v 0.028227 0.077206 -0.108849
v 0.040809 0.069713 -0.108849
v 0.036542 0.072676 -0.118870
v 0.036542 0.072676 -0.114826
v 0.029852 0.076437 -0.123553
v 0.028227 0.077206 -0.125116
v 0.026002 0.078126 -0.120990
v 0.027190 0.077670 -0.119925
v 0.031418 0.075591 -0.122005
v 0.029852 0.076437 -0.123553
v 0.031418 0.075591 -0.122005
v 0.027190 0.077670 -0.119925
v 0.030569 0.076081 -0.116803
v 0.030569 0.076081 -0.116803
v 0.034590 0.073879 -0.118870
v 0.031418 0.075591 -0.122005
v 0.028227 0.077206 -0.125116
v 0.021397 0.079895 -0.125116
v 0.026002 0.078126 -0.120990
v 0.036542 0.072676 -0.114826
v 0.036542 0.072676 -0.118870
v 0.034590 0.073879 -0.118870
v 0.034590 0.073879 -0.118870
v 0.030569 0.076081 -0.116803
v 0.036542 0.072676 -0.114826
v 0.026002 0.078126 -0.120990
v 0.027190 0.077670 -0.119925
v 0.029852 0.076437 -0.123553
v 0.040809 0.069714 -0.125116
v 0.036542 0.072676 -0.125116
v 0.036542 0.072676 -0.118870
v 0.036542 0.072676 -0.118870
v 0.040809 0.069713 -0.108849
v 0.040809 0.069714 -0.125116
v 0.036542 0.072676 -0.114826
v 0.036542 0.072676 -0.108849
v 0.040809 0.069713 -0.108849
v 0.034469 0.073950 -0.114826
v 0.036542 0.072676 -0.114826
v 0.030569 0.076081 -0.116803
v 0.019667 0.080445 -0.108849
v 0.019667 0.080445 -0.119447
v 0.014646 0.081759 -0.118370
v 0.014111 0.081875 -0.120302
v 0.014646 0.081759 -0.118370
v 0.019667 0.080445 -0.119447
v 0.019667 0.080445 -0.119447
v 0.019539 0.080483 -0.121246
v 0.014111 0.081875 -0.120302
v 0.019539 0.080483 -0.121246
v 0.017741 0.080995 -0.123978
v 0.014111 0.081875 -0.120302
v 0.017561 0.081046 -0.124251
v 0.013896 0.081918 -0.120440
v 0.014111 0.081875 -0.120302
v 0.017561 0.081046 -0.124251
v 0.012929 0.082115 -0.125418
v 0.012781 0.082144 -0.121158
v 0.012781 0.082144 -0.121158
v 0.013896 0.081918 -0.120440
v 0.017561 0.081046 -0.124251
v 0.005567 0.083131 -0.125418
v 0.006708 0.083028 -0.121243
v 0.011803 0.082325 -0.121243
v 0.011803 0.082325 -0.121243
v 0.012929 0.082115 -0.125418
v 0.005567 0.083131 -0.125418
v 0.011803 0.082325 -0.121243
v 0.012781 0.082144 -0.121158
v 0.012929 0.082115 -0.125418
v 0.004783 0.083192 -0.125409
v 0.004890 0.083171 -0.120012
v 0.006708 0.083028 -0.121243
v 0.006708 0.083028 -0.121243
v 0.005567 0.083131 -0.125418
v 0.004783 0.083192 -0.125409
v 0.000726 0.083345 -0.123890
v 0.003900 0.083249 -0.119342
v 0.004890 0.083171 -0.120012
v 0.004890 0.083171 -0.120012
v 0.002267 0.083323 -0.124984
v 0.000726 0.083345 -0.123890
v 0.004783 0.083192 -0.125409
v 0.002267 0.083323 -0.124984
v 0.004890 0.083171 -0.120012
v 0.000726 0.083345 -0.123890
v -0.000407 0.083361 -0.123086
v 0.003900 0.083249 -0.119342
v 0.014111 0.081875 -0.120302
v 0.017741 0.080995 -0.123978
v 0.017561 0.081046 -0.124251
v -0.001370 0.083349 -0.119447
v 0.003818 0.083253 -0.118370
v 0.003900 0.083249 -0.119342
v -0.001370 0.083349 -0.108849
v 0.003818 0.083252 -0.108849
v 0.003818 0.083253 -0.118370
v 0.003818 0.083253 -0.118370
v -0.001370 0.083349 -0.119447
v -0.001370 0.083349 -0.108849
v 0.003900 0.083249 -0.119342
v -0.000407 0.083361 -0.123086
v -0.001370 0.083349 -0.119447
v 0.014646 0.081759 -0.118370
v 0.014646 0.081759 -0.108849
v 0.019667 0.080445 -0.108849
v -0.016858 0.081218 -0.111843
v -0.013439 0.082023 -0.114826
v -0.017762 0.081003 -0.116803
v -0.017719 0.081015 -0.111092
v -0.020153 0.080308 -0.114810
v -0.022463 0.079449 -0.112837
v -0.022463 0.079449 -0.112837
v -0.020256 0.080276 -0.108849
v -0.017719 0.081015 -0.111092
v -0.017719 0.081015 -0.111092
v -0.016858 0.081218 -0.111843
v -0.020153 0.080308 -0.114810
v -0.022463 0.079449 -0.112837
v -0.027133 0.077713 -0.108849
v -0.020256 0.080276 -0.108849
v -0.017762 0.081003 -0.116803
v -0.020153 0.080308 -0.114810
v -0.016858 0.081218 -0.111843
v -0.005899 0.083107 -0.108849
v -0.011047 0.082461 -0.118870
v -0.011047 0.082461 -0.114826
v -0.022473 0.079494 -0.120941
v -0.017762 0.081003 -0.116803
v -0.016786 0.081210 -0.121989
v -0.020256 0.080277 -0.125116
v -0.027133 0.077714 -0.125116
v -0.023671 0.079110 -0.121994
v -0.023671 0.079110 -0.121994
v -0.022473 0.079494 -0.120941
v -0.020256 0.080277 -0.125116
v -0.017762 0.081003 -0.116803
v -0.013302 0.082051 -0.118870
v -0.015059 0.081676 -0.120433
v -0.015059 0.081676 -0.120433
v -0.016786 0.081210 -0.121989
v -0.017762 0.081003 -0.116803
v -0.011047 0.082461 -0.114826
v -0.011047 0.082461 -0.118870
v -0.013302 0.082051 -0.118870
v -0.013302 0.082051 -0.118870
v -0.017762 0.081003 -0.116803
v -0.011047 0.082461 -0.114826
v -0.016786 0.081210 -0.121989
v -0.020256 0.080277 -0.125116
v -0.022473 0.079494 -0.120941
v -0.005899 0.083106 -0.125116
v -0.011047 0.082461 -0.125116
v -0.011047 0.082461 -0.118870
v -0.011047 0.082461 -0.118870
v -0.005899 0.083107 -0.108849
v -0.005899 0.083106 -0.125116
v -0.011047 0.082461 -0.114826
v -0.011047 0.082461 -0.108849
v -0.005899 0.083107 -0.108849
v -0.013439 0.082023 -0.114826
v -0.011047 0.082461 -0.114826
v -0.017762 0.081003 -0.116803
vn -0.6345 0.7725 -0.0251
vn -0.6164 0.7873 -0.0132
vn -0.6165 0.7872 0.0173
vn -0.6181 0.7860 0.0098
vn -0.5661 0.8227 0.0516
vn -0.4933 0.8698 -0.0134
vn -0.4791 0.8777 -0.0066
vn -0.4865 0.8734 0.0191
vn -0.4860 0.8734 -0.0313
vn -0.4868 0.8731 0.0269
vn -0.5305 0.8477 0.0056
vn -0.5662 0.8226 0.0519
vn -0.6751 0.7373 0.0251
vn -0.6774 0.7349 0.0327
vn -0.6750 0.7374 0.0240
vn -0.5667 0.8235 -0.0273
vn -0.5668 0.8234 -0.0274
vn -0.4474 0.8940 0.0249
vn -0.4488 0.8934 0.0191
vn -0.4483 0.8936 0.0217
vn -0.4446 0.8951 0.0325
vn -0.6745 0.7380 0.0193
vn -0.6411 0.7672 0.0223
vn -0.6510 0.7589 -0.0160
vn -0.3892 -0.9210 -0.0157
vn -0.4503 -0.8929 0.0058
vn -0.4181 -0.9077 -0.0350
vn -0.4109 -0.9116 0.0137
vn -0.4834 -0.8753 -0.0102
vn -0.3660 -0.9296 0.0445
vn -0.5704 -0.8214 -0.0000
vn -0.4124 -0.9108 0.0193
vn -0.4528 -0.8911 0.0293
vn -0.3663 -0.9304 -0.0099
vn -0.4360 -0.8998 -0.0135
vn -0.4785 -0.8781 -0.0045
vn -0.5243 -0.8515 -0.0000
vn -0.4893 -0.8718 0.0230
vn -0.3832 -0.9231 -0.0326
vn -0.5199 -0.8467 -0.1130
vn -0.2532 -0.9674 -0.0000
vn -0.2381 -0.9709 -0.0249
vn -0.2537 -0.9673 0.0027
vn -0.2191 -0.9756 -0.0121
vn -0.2395 -0.9706 0.0257
vn -0.2459 -0.9691 0.0198
vn -0.1818 -0.9833 -0.0002
vn -0.1367 -0.9905 -0.0127
vn -0.0744 -0.9972 -0.0060
vn -0.0626 -0.9978 -0.0231
vn -0.0272 -0.9995 0.0154
vn -0.0612 -0.9981 0.0081
vn -0.0219 -0.9997 0.0059
vn -0.2242 -0.9745 0.0013
vn -0.0192 -0.9998 -0.0033
vn -0.0185 -0.9998 -0.0000
vn -0.0190 -0.9998 0.0089
vn 0.2295 -0.9733 -0.0004
vn 0.3239 -0.9455 0.0325
vn 0.3033 -0.9524 -0.0297
vn 0.2475 -0.9686 -0.0219
vn 0.2726 -0.9621 0.0080
vn 0.3492 -0.9370 -0.0011
vn 0.1245 -0.9922 -0.0000
vn 0.2918 -0.9563 -0.0166
vn 0.2219 -0.9749 0.0155
vn 0.2526 -0.9675 -0.0087
vn 0.3491 -0.9366 -0.0317
vn 0.3142 -0.9493 0.0112
vn 0.1789 -0.9839 -0.0000
vn 0.2186 -0.9755 0.0230
vn 0.2840 -0.9584 0.0289
vn 0.1790 -0.9774 -0.1129
vn 0.6345 -0.7725 -0.0251
vn 0.6164 -0.7873 -0.0132
vn 0.6165 -0.7872 0.0173
vn 0.6181 -0.7860 0.0098
vn 0.5661 -0.8227 0.0516
vn 0.4791 -0.8777 -0.0066
vn 0.4933 -0.8698 -0.0134
vn 0.4865 -0.8734 0.0191
vn 0.4868 -0.8731 0.0269
vn 0.5305 -0.8477 0.0056
vn 0.4860 -0.8734 -0.0313
vn 0.5662 -0.8226 0.0519
vn 0.6752 -0.7372 0.0252
vn 0.6774 -0.7349 0.0326
vn 0.6750 -0.7374 0.0239
vn 0.5667 -0.8235 -0.0273
vn 0.5668 -0.8234 -0.0274
vn 0.4474 -0.8940 0.0249
vn 0.4488 -0.8934 0.0192
vn 0.4483 -0.8936 0.0217
vn 0.4446 -0.8951 0.0325
vn 0.6745 -0.7380 0.0194
vn 0.6411 -0.7672 0.0224
vn 0.6510 -0.7589 -0.0160
vn 0.3892 0.9210 -0.0158
vn 0.4503 0.8929 0.0058
vn 0.4181 0.9077 -0.0350
vn 0.4109 0.9116 0.0137
vn 0.4834 0.8753 -0.0102
vn 0.3660 0.9296 0.0445
vn 0.5704 0.8214 -0.0000
vn 0.4124 0.9108 0.0193
vn 0.4526 0.8912 0.0292
vn 0.4359 0.8999 -0.0135
vn 0.4786 0.8780 -0.0044
vn 0.3663 0.9304 -0.0099
vn 0.5244 0.8515 -0.0000
vn 0.4893 0.8718 0.0230
vn 0.3834 0.9230 -0.0324
vn 0.5199 0.8467 -0.1131
vn 0.2532 0.9674 -0.0000
vn 0.2509 0.9680 -0.0114
vn 0.2488 0.9686 0.0033
vn 0.2508 0.9679 0.0160
vn 0.2097 0.9775 -0.0221
vn 0.2247 0.9744 0.0014
vn 0.2113 0.9772 -0.0204
vn 0.1367 0.9905 -0.0127
vn 0.1820 0.9833 -0.0002
vn 0.0799 0.9968 0.0023
vn 0.0764 0.9971 0.0039
vn 0.0631 0.9977 -0.0230
vn 0.0262 0.9995 0.0168
vn 0.0525 0.9986 0.0028
vn 0.0194 0.9998 0.0075
vn 0.2505 0.9680 0.0156
vn 0.0190 0.9998 -0.0025
vn 0.0185 0.9998 -0.0000
vn 0.0188 0.9998 0.0083
vn -0.2295 0.9733 -0.0004
vn -0.3239 0.9455 0.0325
vn -0.3033 0.9524 -0.0297
vn -0.2475 0.9686 -0.0220
vn -0.3492 0.9370 -0.0011
vn -0.2726 0.9621 0.0080
vn -0.1245 0.9922 -0.0000
vn -0.2918 0.9563 -0.0166
vn -0.3491 0.9366 -0.0317
vn -0.3141 0.9493 0.0112
vn -0.2219 0.9749 0.0155
vn -0.2526 0.9675 -0.0088
vn -0.1789 0.9839 -0.0000
vn -0.2186 0.9755 0.0230
vn -0.2840 0.9584 0.0289
vn -0.1790 0.9774 -0.1129
s 1
usemtl material_0
f 1//1 2//1 3//1
f 4//2 5//2 6//2
f 7//3 8//3 9//3
f 10//4 11//4 12//4
f 13//5 14//5 15//5
f 16//6 17//6 18//6
f 19//7 20//7 21//7
f 22//8 23//8 24//8
f 25//9 26//9 27//9
f 28//10 29//10 30//10
f 31//11 32//11 33//11
f 34//12 35//12 36//12
f 37//13 38//13 39//13
f 40//14 41//14 42//14
f 43//15 44//15 45//15
f 46//16 47//16 48//16
f 49//17 50//17 51//17
f 52//18 53//18 54//18
f 55//19 56//19 57//19
f 58//20 59//20 60//20
f 61//21 62//21 63//21
f 64//22 65//22 66//22
f 67//23 68//23 69//23
f 70//24 71//24 72//24
f 73//25 74//25 75//25
f 76//26 77//26 78//26
f 79//27 80//27 81//27
f 82//28 83//28 84//28
f 85//29 86//29 87//29
f 88//30 89//30 90//30
f 91//31 92//31 93//31
f 94//32 95//32 96//32
f 97//33 98//33 99//33
f 100//34 101//34 102//34
f 103//35 104//35 105//35
f 106//36 107//36 108//36
f 109//37 110//37 111//37
f 112//38 113//38 114//38
f 115//39 116//39 117//39
f 118//31 119//31 120//31
f 121//31 122//31 123//31
f 124//31 125//31 126//31
f 127//40 128//40 129//40
f 130//41 131//41 132//41
f 133//42 134//42 135//42
f 136//43 137//43 138//43
f 139//44 140//44 141//44
f 142//45 143//45 144//45
f 145//46 146//46 147//46
f 148//47 149//47 150//47
f 151//48 152//48 153//48
f 154//48 155//48 156//48
f 157//49 158//49 159//49
f 160//50 161//50 162//50
f 163//51 164//51 165//51
f 166//52 167//52 168//52
f 169//53 170//53 171//53
f 172//54 173//54 174//54
f 175//55 176//55 177//55
f 178//56 179//56 180//56
f 181//56 182//56 183//56
f 184//57 185//57 186//57
f 187//41 188//41 189//41
f 190//58 191//58 192//58
f 193//59 194//59 195//59
f 196//60 197//60 198//60
f 199//61 200//61 201//61
f 202//62 203//62 204//62
f 205//63 206//63 207//63
f 208//64 209//64 210//64
f 211//65 212//65 213//65
f 214//66 215//66 216//66
f 217//67 218//67 219//67
f 220//68 221//68 222//68
f 223//69 224//69 225//69
f 226//70 227//70 228//70
f 229//71 230//71 231//71
f 232//72 233//72 234//72
f 235//64 236//64 237//64
f 238//64 239//64 240//64
f 241//64 242//64 243//64
f 244//73 245//73 246//73
f 247//74 248//74 249//74
f 250//75 251//75 252//75
f 253//76 254//76 255//76
f 256//77 257//77 258//77
f 259//78 260//78 261//78
f 262//79 263//79 264//79
f 265//80 266//80 267//80
f 268//81 269//81 270//81
f 271//82 272//82 273//82
f 274//83 275//83 276//83
f 277//84 278//84 279//84
f 280//85 281//85 282//85
f 283//86 284//86 285//86
f 286//87 287//87 288//87
f 289//88 290//88 291//88
f 292//89 293//89 294//89
f 295//90 296//90 297//90
f 298//91 299//91 300//91
f 301//92 302//92 303//92
f 304//93 305//93 306//93
f 307//94 308//94 309//94
f 310//95 311//95 312//95
f 313//96 314//96 315//96
f 316//97 317//97 318//97
f 319//98 320//98 321//98
f 322//99 323//99 324//99
f 325//100 326//100 327//100
f 328//101 329//101 330//101
f 331//102 332//102 333//102
f 334//103 335//103 336//103
f 337//104 338//104 339//104
f 340//105 341//105 342//105
f 343//106 344//106 345//106
f 346//107 347//107 348//107
f 349//108 350//108 351//108
f 352//109 353//109 354//109
f 355//110 356//110 357//110
f 358//111 359//111 360//111
f 361//112 362//112 363//112
f 364//104 365//104 366//104
f 367//104 368//104 369//104
f 370//104 371//104 372//104
f 373//113 374//113 375//113
f 376//114 377//114 378//114
f 379//115 380//115 381//115
f 382//116 383//116 384//116
f 385//117 386//117 387//117
f 388//118 389//118 390//118
f 391//119 392//119 393//119
f 394//120 395//120 396//120
f 397//121 398//121 399//121
f 400//121 401//121 402//121
f 403//122 404//122 405//122
f 406//123 407//123 408//123
f 409//124 410//124 411//124
f 412//125 413//125 414//125
f 415//126 416//126 417//126
f 418//127 419//127 420//127
f 421//128 422//128 423//128
f 424//129 425//129 426//129
f 427//130 428//130 429//130
f 430//131 431//131 432//131
f 433//131 434//131 435//131
f 436//132 437//132 438//132
f 439//114 440//114 441//114
f 442//133 443//133 444//133
f 445//134 446//134 447//134
f 448//135 449//135 450//135
f 451//136 452//136 453//136
f 454//137 455//137 456//137
f 457//138 458//138 459//138
f 460//139 461//139 462//139
f 463//140 464//140 465//140
f 466//141 467//141 468//141
f 469//142 470//142 471//142
f 472//143 473//143 474//143
f 475//144 476//144 477//144
f 478//145 479//145 480//145
f 481//146 482//146 483//146
f 484//147 485//147 486//147
f 487//139 488//139 489//139
f 490//139 491//139 492//139
f 493//139 494//139 495//139
f 496//148 497//148 498//148
