# Blender 4.5.10 LTS
# www.blender.org
mtllib iiwa_robot_base_coll_12.mtl
o node
v 0.104796 -0.071581 -0.077798
v 0.086958 -0.055411 -0.076916
v 0.123299 -0.038553 -0.076425
v 0.086958 -0.055411 -0.076916
v 0.104796 -0.071581 -0.077798
v 0.100301 -0.076895 -0.069045
v 0.100301 -0.076895 -0.069045
v 0.113035 -0.061097 -0.076307
v 0.080793 -0.060477 0.013849
v 0.113035 -0.061097 -0.076307
v 0.104796 -0.071581 -0.077798
v 0.123299 -0.038553 -0.076425
v 0.104796 -0.071581 -0.077798
v 0.113035 -0.061097 -0.076307
v 0.100301 -0.076895 -0.069045
v 0.081584 -0.061881 -0.065270
v 0.100301 -0.076895 -0.069045
v 0.080793 -0.060477 0.013849
v 0.086958 -0.055411 -0.076916
v 0.081584 -0.061881 -0.065270
v 0.080793 -0.060477 0.013849
v 0.081584 -0.061881 -0.065270
v 0.086958 -0.055411 -0.076916
v 0.100301 -0.076895 -0.069045
v 0.113035 -0.061097 -0.076307
v 0.092026 -0.050953 -0.001289
v 0.080793 -0.060477 0.013849
v 0.092026 -0.050953 -0.001289
v 0.113035 -0.061097 -0.076307
v 0.123299 -0.038553 -0.076425
v 0.092026 -0.050953 -0.001289
v 0.086958 -0.055411 -0.076916
v 0.080793 -0.060477 0.013849
v 0.086958 -0.055411 -0.076916
v 0.092026 -0.050953 -0.001289
v 0.123299 -0.038553 -0.076425
vn -0.0078 0.0459 -0.9989
vn -0.5427 -0.5648 -0.6216
vn 0.8058 -0.5154 0.2917
vn 0.4002 -0.1869 -0.8972
vn 0.7842 -0.6200 0.0263
vn -0.6248 -0.7808 0.0076
vn -0.7854 0.6187 -0.0188
vn -0.5764 -0.5718 -0.5837
vn 0.8175 -0.4941 0.2958
vn 0.8697 -0.3944 0.2969
vn -0.6479 0.7617 -0.0015
vn -0.4204 0.9070 -0.0253
s 1
usemtl material_0
f 1//1 2//1 3//1
f 4//2 5//2 6//2
f 7//3 8//3 9//3
f 10//4 11//4 12//4
f 13//5 14//5 15//5
f 16//6 17//6 18//6
f 19//7 20//7 21//7
f 22//8 23//8 24//8
f 25//9 26//9 27//9
f 28//10 29//10 30//10
f 31//11 32//11 33//11
f 34//12 35//12 36//12
