# Blender 4.5.10 LTS
# www.blender.org
mtllib iiwa_link_5_vis_1.mtl
o node
v -0.010664 -0.087667 -0.018528
v -0.021051 -0.084779 -0.016834
v -0.021140 -0.087948 -0.047714
v -0.021051 -0.084779 -0.016834
v -0.030890 -0.080006 -0.014039
v -0.031026 -0.083872 -0.044278
v -0.021130 -0.076245 0.013078
v -0.031006 -0.071150 0.015193
v -0.030890 -0.080006 -0.014039
v -0.000000 -0.080365 0.011365
v -0.021130 -0.076245 0.013078
v -0.021051 -0.084779 -0.016834
v -0.021051 -0.084779 -0.016834
v -0.010664 -0.087667 -0.018528
v -0.000000 -0.080365 0.011365
v -0.000000 -0.088634 -0.019097
v -0.010664 -0.087667 -0.018528
v -0.010708 -0.090413 -0.049797
v -0.030890 -0.080006 -0.014039
v -0.031006 -0.071150 0.015193
v -0.039493 -0.069086 0.005366
v -0.031026 -0.083872 -0.044278
v -0.030890 -0.080006 -0.014039
v -0.039332 -0.077262 -0.026149
v -0.030890 -0.080006 -0.014039
v -0.039370 -0.073752 -0.010524
v -0.039340 -0.074881 -0.014368
v -0.039340 -0.074881 -0.014368
v -0.039332 -0.077262 -0.026149
v -0.030890 -0.080006 -0.014039
v -0.031026 -0.083872 -0.044278
v -0.039398 -0.078651 -0.040000
v -0.039407 -0.078840 -0.041885
v -0.039332 -0.077262 -0.026149
v -0.039398 -0.078651 -0.040000
v -0.031026 -0.083872 -0.044278
v -0.039493 -0.069086 0.005366
v -0.039370 -0.073752 -0.010524
v -0.030890 -0.080006 -0.014039
v -0.010708 -0.090413 -0.049797
v -0.000000 -0.091240 -0.050497
v -0.000000 -0.088634 -0.019097
v -0.010664 -0.087667 -0.018528
v -0.000000 -0.088634 -0.019097
v -0.000000 -0.080365 0.011365
v -0.030890 -0.080006 -0.014039
v -0.021051 -0.084779 -0.016834
v -0.021130 -0.076245 0.013078
v -0.031026 -0.083872 -0.044278
v -0.021140 -0.087948 -0.047714
v -0.021051 -0.084779 -0.016834
v -0.021140 -0.087948 -0.047714
v -0.010708 -0.090413 -0.049797
v -0.010664 -0.087667 -0.018528
v -0.040378 -0.073933 -0.014597
v -0.039340 -0.074881 -0.014368
v -0.039370 -0.073752 -0.010524
v -0.039340 -0.074881 -0.014368
v -0.040378 -0.073933 -0.014597
v -0.040450 -0.075878 -0.024681
v -0.040450 -0.075878 -0.024681
v -0.039332 -0.077262 -0.026149
v -0.039340 -0.074881 -0.014368
v -0.040462 -0.076192 -0.026318
v -0.040649 -0.077621 -0.041908
v -0.039398 -0.078651 -0.040000
v -0.040649 -0.077621 -0.041908
v -0.039407 -0.078840 -0.041885
v -0.039398 -0.078651 -0.040000
v -0.039398 -0.078651 -0.040000
v -0.039332 -0.077262 -0.026149
v -0.040462 -0.076192 -0.026318
v -0.040450 -0.075878 -0.024681
v -0.040462 -0.076192 -0.026318
v -0.039332 -0.077262 -0.026149
v -0.040356 -0.069827 -0.000081
v -0.040378 -0.073933 -0.014597
v -0.039370 -0.073752 -0.010524
v -0.051923 -0.057196 -0.027754
v -0.046870 -0.068024 -0.040041
v -0.040462 -0.076192 -0.026318
v -0.040462 -0.076192 -0.026318
v -0.040450 -0.075878 -0.024681
v -0.051923 -0.057196 -0.027754
v -0.040649 -0.077621 -0.041908
v -0.040462 -0.076192 -0.026318
v -0.046870 -0.068024 -0.040041
v -0.021561 -0.073630 -0.091246
v -0.031661 -0.071485 -0.087525
v -0.031910 -0.061047 -0.098605
v -0.021393 -0.081573 -0.077934
v -0.031408 -0.078753 -0.074165
v -0.031661 -0.071485 -0.087525
v -0.021248 -0.086245 -0.063146
v -0.031189 -0.082735 -0.059475
v -0.031408 -0.078753 -0.074165
v -0.000000 -0.075367 -0.094264
v -0.021561 -0.073630 -0.091246
v -0.021727 -0.062685 -0.102240
v -0.011118 -0.035722 -0.118530
v -0.000000 -0.050600 -0.113480
v -0.021864 -0.049538 -0.110512
v -0.000000 -0.064014 -0.105193
v -0.021727 -0.062685 -0.102240
v -0.021864 -0.049538 -0.110512
v -0.000000 -0.089079 -0.066120
v -0.021248 -0.086245 -0.063146
v -0.021393 -0.081573 -0.077934
v -0.000000 -0.083852 -0.080989
v -0.021393 -0.081573 -0.077934
v -0.021561 -0.073630 -0.091246
v -0.000000 -0.089079 -0.066120
v -0.000000 -0.091240 -0.050497
v -0.010708 -0.090413 -0.049797
v -0.010708 -0.090413 -0.049797
v -0.021248 -0.086245 -0.063146
v -0.000000 -0.089079 -0.066120
v -0.031189 -0.082735 -0.059475
v -0.031026 -0.083872 -0.044278
v -0.039497 -0.078714 -0.051009
v -0.039407 -0.078840 -0.041885
v -0.039497 -0.078714 -0.051009
v -0.031026 -0.083872 -0.044278
v -0.021140 -0.087948 -0.047714
v -0.031026 -0.083872 -0.044278
v -0.031189 -0.082735 -0.059475
v -0.031189 -0.082735 -0.059475
v -0.021248 -0.086245 -0.063146
v -0.021140 -0.087948 -0.047714
v -0.031408 -0.078753 -0.074165
v -0.031189 -0.082735 -0.059475
v -0.039665 -0.076932 -0.063636
v -0.031189 -0.082735 -0.059475
v -0.039549 -0.078164 -0.054905
v -0.039665 -0.076932 -0.063636
v -0.031408 -0.078753 -0.074165
v -0.039827 -0.074155 -0.072700
v -0.040061 -0.068964 -0.082846
v -0.031408 -0.078753 -0.074165
v -0.039770 -0.075135 -0.069501
v -0.039827 -0.074155 -0.072700
v -0.031910 -0.061047 -0.098605
v -0.031661 -0.071485 -0.087525
v -0.040223 -0.064806 -0.088401
v -0.031661 -0.071485 -0.087525
v -0.040061 -0.068964 -0.082846
v -0.040223 -0.064806 -0.088401
v -0.021727 -0.062685 -0.102240
v -0.040517 -0.056453 -0.096253
v -0.040700 -0.050759 -0.100075
v -0.040700 -0.050759 -0.100075
v -0.021864 -0.049538 -0.110512
v -0.021727 -0.062685 -0.102240
v -0.040517 -0.056453 -0.096253
v -0.021727 -0.062685 -0.102240
v -0.031910 -0.061047 -0.098605
v -0.031910 -0.061047 -0.098605
v -0.040432 -0.058870 -0.093981
v -0.040517 -0.056453 -0.096253
v -0.021864 -0.049538 -0.110512
v -0.040824 -0.046479 -0.102068
v -0.041051 -0.038653 -0.105714
v -0.040700 -0.050759 -0.100075
v -0.040824 -0.046479 -0.102068
v -0.021864 -0.049538 -0.110512
v -0.040223 -0.064806 -0.088401
v -0.040432 -0.058870 -0.093981
v -0.031910 -0.061047 -0.098605
v -0.040061 -0.068964 -0.082846
v -0.031661 -0.071485 -0.087525
v -0.031408 -0.078753 -0.074165
v -0.039665 -0.076932 -0.063636
v -0.039770 -0.075135 -0.069501
v -0.031408 -0.078753 -0.074165
v -0.039497 -0.078714 -0.051009
v -0.039549 -0.078164 -0.054905
v -0.031189 -0.082735 -0.059475
v -0.010708 -0.090413 -0.049797
v -0.021140 -0.087948 -0.047714
v -0.021248 -0.086245 -0.063146
v -0.021561 -0.073630 -0.091246
v -0.000000 -0.075367 -0.094264
v -0.000000 -0.083852 -0.080989
v -0.021393 -0.081573 -0.077934
v -0.000000 -0.083852 -0.080989
v -0.000000 -0.089079 -0.066120
v -0.021864 -0.049538 -0.110512
v -0.000000 -0.050600 -0.113480
v -0.000000 -0.064014 -0.105193
v -0.021727 -0.062685 -0.102240
v -0.000000 -0.064014 -0.105193
v -0.000000 -0.075367 -0.094264
v -0.031408 -0.078753 -0.074165
v -0.021393 -0.081573 -0.077934
v -0.021248 -0.086245 -0.063146
v -0.031661 -0.071485 -0.087525
v -0.021561 -0.073630 -0.091246
v -0.021393 -0.081573 -0.077934
v -0.031910 -0.061047 -0.098605
v -0.021727 -0.062685 -0.102240
v -0.021561 -0.073630 -0.091246
v -0.039407 -0.078840 -0.041885
v -0.040649 -0.077621 -0.041908
v -0.040787 -0.077442 -0.049996
v -0.040787 -0.077442 -0.049996
v -0.039497 -0.078714 -0.051009
v -0.039407 -0.078840 -0.041885
v -0.041044 -0.075682 -0.062578
v -0.039665 -0.076932 -0.063636
v -0.039549 -0.078164 -0.054905
v -0.039549 -0.078164 -0.054905
v -0.040802 -0.077422 -0.050907
v -0.041044 -0.075682 -0.062578
v -0.041044 -0.075682 -0.062578
v -0.041059 -0.075576 -0.063293
v -0.039665 -0.076932 -0.063636
v -0.041059 -0.075576 -0.063293
v -0.041276 -0.072810 -0.072133
v -0.039770 -0.075135 -0.069501
v -0.041276 -0.072810 -0.072133
v -0.039827 -0.074155 -0.072700
v -0.039770 -0.075135 -0.069501
v -0.040061 -0.068964 -0.082846
v -0.039827 -0.074155 -0.072700
v -0.041343 -0.071566 -0.074552
v -0.039827 -0.074155 -0.072700
v -0.041276 -0.072810 -0.072133
v -0.041343 -0.071566 -0.074552
v -0.040061 -0.068964 -0.082846
v -0.041547 -0.067736 -0.081997
v -0.041650 -0.065147 -0.085480
v -0.041650 -0.065147 -0.085480
v -0.040223 -0.064806 -0.088401
v -0.040061 -0.068964 -0.082846
v -0.041707 -0.063715 -0.087405
v -0.041924 -0.056272 -0.094535
v -0.040432 -0.058870 -0.093981
v -0.041924 -0.056272 -0.094535
v -0.040517 -0.056453 -0.096253
v -0.040432 -0.058870 -0.093981
v -0.040432 -0.058870 -0.093981
v -0.040223 -0.064806 -0.088401
v -0.041707 -0.063715 -0.087405
v -0.040517 -0.056453 -0.096253
v -0.041943 -0.055652 -0.095128
v -0.042054 -0.050140 -0.098953
v -0.042054 -0.050140 -0.098953
v -0.042110 -0.045524 -0.101213
v -0.040824 -0.046479 -0.102068
v -0.040824 -0.046479 -0.102068
v -0.040700 -0.050759 -0.100075
v -0.042054 -0.050140 -0.098953
v -0.042054 -0.050140 -0.098953
v -0.040700 -0.050759 -0.100075
v -0.040517 -0.056453 -0.096253
v -0.041924 -0.056272 -0.094535
v -0.041943 -0.055652 -0.095128
v -0.040517 -0.056453 -0.096253
v -0.041650 -0.065147 -0.085480
v -0.041707 -0.063715 -0.087405
v -0.040223 -0.064806 -0.088401
v -0.041343 -0.071566 -0.074552
v -0.041547 -0.067736 -0.081997
v -0.040061 -0.068964 -0.082846
v -0.039770 -0.075135 -0.069501
v -0.039665 -0.076932 -0.063636
v -0.041059 -0.075576 -0.063293
v -0.039549 -0.078164 -0.054905
v -0.039497 -0.078714 -0.051009
v -0.040802 -0.077422 -0.050907
v -0.040787 -0.077442 -0.049996
v -0.040802 -0.077422 -0.050907
v -0.039497 -0.078714 -0.051009
v -0.053587 -0.053964 -0.049554
v -0.047433 -0.066719 -0.051930
v -0.046870 -0.068024 -0.040041
v -0.053587 -0.053964 -0.049554
v -0.048103 -0.063398 -0.063374
v -0.047433 -0.066719 -0.051930
v -0.042054 -0.050140 -0.098953
v -0.041943 -0.055652 -0.095128
v -0.049601 -0.049995 -0.082696
v -0.049601 -0.049995 -0.082696
v -0.041707 -0.063715 -0.087405
v -0.041650 -0.065147 -0.085480
v -0.049601 -0.049995 -0.082696
v -0.041924 -0.056272 -0.094535
v -0.041707 -0.063715 -0.087405
v -0.048839 -0.057797 -0.073829
v -0.041547 -0.067736 -0.081997
v -0.041343 -0.071566 -0.074552
v -0.048839 -0.057797 -0.073829
v -0.041650 -0.065147 -0.085480
v -0.041547 -0.067736 -0.081997
v -0.048103 -0.063398 -0.063374
v -0.041059 -0.075576 -0.063293
v -0.041044 -0.075682 -0.062578
v -0.048103 -0.063398 -0.063374
v -0.041343 -0.071566 -0.074552
v -0.041276 -0.072810 -0.072133
v -0.041276 -0.072810 -0.072133
v -0.041059 -0.075576 -0.063293
v -0.048103 -0.063398 -0.063374
v -0.047433 -0.066719 -0.051930
v -0.040802 -0.077422 -0.050907
v -0.040787 -0.077442 -0.049996
v -0.047433 -0.066719 -0.051930
v -0.041044 -0.075682 -0.062578
v -0.040802 -0.077422 -0.050907
v -0.046870 -0.068024 -0.040041
v -0.040787 -0.077442 -0.049996
v -0.040649 -0.077621 -0.041908
v -0.040787 -0.077442 -0.049996
v -0.046870 -0.068024 -0.040041
v -0.047433 -0.066719 -0.051930
v -0.041044 -0.075682 -0.062578
v -0.047433 -0.066719 -0.051930
v -0.048103 -0.063398 -0.063374
v -0.041343 -0.071566 -0.074552
v -0.048103 -0.063398 -0.063374
v -0.048839 -0.057797 -0.073829
v -0.041650 -0.065147 -0.085480
v -0.048839 -0.057797 -0.073829
v -0.049601 -0.049995 -0.082696
v -0.041943 -0.055652 -0.095128
v -0.041924 -0.056272 -0.094535
v -0.049601 -0.049995 -0.082696
v -0.054639 -0.049445 -0.059525
v -0.048839 -0.057797 -0.073829
v -0.048103 -0.063398 -0.063374
v 0.051923 -0.057196 -0.027754
v 0.040450 -0.075878 -0.024681
v 0.040461 -0.076190 -0.026296
v 0.040461 -0.076190 -0.026296
v 0.046870 -0.068024 -0.040041
v 0.051923 -0.057196 -0.027754
v 0.046870 -0.068024 -0.040041
v 0.040461 -0.076190 -0.026296
v 0.040648 -0.077621 -0.041887
v 0.040648 -0.077621 -0.041887
v 0.040787 -0.077442 -0.049996
v 0.046870 -0.068024 -0.040041
v 0.047433 -0.066719 -0.051930
v 0.046870 -0.068024 -0.040041
v 0.040787 -0.077442 -0.049996
v -0.000000 -0.088634 -0.019097
v -0.000000 -0.091240 -0.050497
v 0.010708 -0.090414 -0.049797
v 0.021051 -0.084779 -0.016834
v 0.021140 -0.087948 -0.047714
v 0.031026 -0.083871 -0.044278
v -0.000000 -0.080365 0.011365
v 0.010663 -0.087667 -0.018528
v 0.021051 -0.084779 -0.016834
v -0.000000 -0.080365 0.011365
v -0.000000 -0.088634 -0.019097
v 0.010663 -0.087667 -0.018528
v 0.010663 -0.087667 -0.018528
v 0.010708 -0.090414 -0.049797
v 0.021140 -0.087948 -0.047714
v 0.021130 -0.076246 0.013078
v 0.021051 -0.084779 -0.016834
v 0.030889 -0.080005 -0.014039
v 0.031026 -0.083871 -0.044278
v 0.039497 -0.078714 -0.051008
v 0.039407 -0.078839 -0.041863
v 0.039407 -0.078839 -0.041863
v 0.039398 -0.078653 -0.040000
v 0.031026 -0.083871 -0.044278
v 0.030889 -0.080005 -0.014039
v 0.039332 -0.077259 -0.026127
v 0.039340 -0.074882 -0.014377
v 0.031026 -0.083871 -0.044278
v 0.039398 -0.078653 -0.040000
v 0.039332 -0.077259 -0.026127
v 0.039332 -0.077259 -0.026127
v 0.030889 -0.080005 -0.014039
v 0.031026 -0.083871 -0.044278
v 0.030889 -0.080005 -0.014039
v 0.039370 -0.073752 -0.010524
v 0.039493 -0.069089 0.005359
v 0.039340 -0.074882 -0.014377
v 0.039370 -0.073752 -0.010524
v 0.030889 -0.080005 -0.014039
v 0.030889 -0.080005 -0.014039
v 0.031006 -0.071150 0.015193
v 0.021130 -0.076246 0.013078
v 0.021140 -0.087948 -0.047714
v 0.021051 -0.084779 -0.016834
v 0.010663 -0.087667 -0.018528
v 0.021051 -0.084779 -0.016834
v 0.021130 -0.076246 0.013078
v -0.000000 -0.080365 0.011365
v 0.031026 -0.083871 -0.044278
v 0.030889 -0.080005 -0.014039
v 0.021051 -0.084779 -0.016834
v 0.010708 -0.090414 -0.049797
v 0.010663 -0.087667 -0.018528
v -0.000000 -0.088634 -0.019097
v 0.039370 -0.073752 -0.010524
v 0.040378 -0.073936 -0.014606
v 0.040356 -0.069827 -0.000081
v 0.039340 -0.074882 -0.014377
v 0.039332 -0.077259 -0.026127
v 0.040450 -0.075878 -0.024681
v 0.039332 -0.077259 -0.026127
v 0.040461 -0.076190 -0.026296
v 0.040450 -0.075878 -0.024681
v 0.040461 -0.076190 -0.026296
v 0.039332 -0.077259 -0.026127
v 0.039398 -0.078653 -0.040000
v 0.039398 -0.078653 -0.040000
v 0.040648 -0.077621 -0.041887
v 0.040461 -0.076190 -0.026296
v 0.039407 -0.078839 -0.041863
v 0.039497 -0.078714 -0.051008
v 0.040787 -0.077442 -0.049996
v 0.040787 -0.077442 -0.049996
v 0.040648 -0.077621 -0.041887
v 0.039407 -0.078839 -0.041863
v 0.039398 -0.078653 -0.040000
v 0.039407 -0.078839 -0.041863
v 0.040648 -0.077621 -0.041887
v 0.040450 -0.075878 -0.024681
v 0.040378 -0.073936 -0.014606
v 0.039340 -0.074882 -0.014377
v 0.039370 -0.073752 -0.010524
v 0.039340 -0.074882 -0.014377
v 0.040378 -0.073936 -0.014606
v 0.046870 -0.068024 -0.040041
v 0.047433 -0.066719 -0.051930
v 0.053587 -0.053965 -0.049554
v 0.048103 -0.063397 -0.063374
v 0.048839 -0.057797 -0.073829
v 0.054639 -0.049445 -0.059525
v 0.040787 -0.077442 -0.049996
v 0.040802 -0.077422 -0.050906
v 0.047433 -0.066719 -0.051930
v 0.048103 -0.063397 -0.063374
v 0.041059 -0.075576 -0.063293
v 0.041276 -0.072810 -0.072133
v 0.048103 -0.063397 -0.063374
v 0.047433 -0.066719 -0.051930
v 0.041044 -0.075683 -0.062578
v 0.041044 -0.075683 -0.062578
v 0.041059 -0.075576 -0.063293
v 0.048103 -0.063397 -0.063374
v 0.048839 -0.057797 -0.073829
v 0.048103 -0.063397 -0.063374
v 0.041343 -0.071566 -0.074552
v 0.041343 -0.071566 -0.074552
v 0.041547 -0.067736 -0.081996
v 0.048839 -0.057797 -0.073829
v 0.049601 -0.049995 -0.082696
v 0.048839 -0.057797 -0.073829
v 0.041650 -0.065147 -0.085480
v 0.041650 -0.065147 -0.085480
v 0.041707 -0.063714 -0.087406
v 0.049601 -0.049995 -0.082696
v 0.049601 -0.049995 -0.082696
v 0.041943 -0.055653 -0.095128
v 0.042054 -0.050140 -0.098953
v 0.049601 -0.049995 -0.082696
v 0.041924 -0.056272 -0.094535
v 0.041943 -0.055653 -0.095128
v 0.041707 -0.063714 -0.087406
v 0.041924 -0.056272 -0.094535
v 0.049601 -0.049995 -0.082696
v 0.041547 -0.067736 -0.081996
v 0.041650 -0.065147 -0.085480
v 0.048839 -0.057797 -0.073829
v 0.041276 -0.072810 -0.072133
v 0.041343 -0.071566 -0.074552
v 0.048103 -0.063397 -0.063374
v 0.040802 -0.077422 -0.050906
v 0.041044 -0.075683 -0.062578
v 0.047433 -0.066719 -0.051930
v 0.047433 -0.066719 -0.051930
v 0.048103 -0.063397 -0.063374
v 0.053587 -0.053965 -0.049554
v -0.000000 -0.075367 -0.094264
v -0.000000 -0.064014 -0.105193
v 0.021727 -0.062684 -0.102240
v 0.021864 -0.049538 -0.110512
v -0.000000 -0.050600 -0.113480
v 0.011118 -0.035722 -0.118530
v -0.000000 -0.064014 -0.105193
v -0.000000 -0.050600 -0.113480
v 0.021864 -0.049538 -0.110512
v 0.021561 -0.073630 -0.091246
v 0.021727 -0.062684 -0.102240
v 0.031910 -0.061047 -0.098605
v -0.000000 -0.089079 -0.066120
v -0.000000 -0.083852 -0.080989
v 0.021393 -0.081573 -0.077934
v -0.000000 -0.083852 -0.080989
v -0.000000 -0.075367 -0.094264
v 0.021561 -0.073630 -0.091246
v -0.000000 -0.089079 -0.066120
v 0.021248 -0.086245 -0.063146
v 0.010708 -0.090414 -0.049797
v 0.021248 -0.086245 -0.063146
v 0.021140 -0.087948 -0.047714
v 0.010708 -0.090414 -0.049797
v 0.021248 -0.086245 -0.063146
v 0.021393 -0.081573 -0.077934
v 0.031408 -0.078752 -0.074165
v 0.021393 -0.081573 -0.077934
v 0.021561 -0.073630 -0.091246
v 0.031660 -0.071485 -0.087525
v 0.040517 -0.056454 -0.096252
v 0.040432 -0.058870 -0.093981
v 0.031910 -0.061047 -0.098605
v 0.021727 -0.062684 -0.102240
v 0.021864 -0.049538 -0.110512
v 0.040700 -0.050758 -0.100075
v 0.021864 -0.049538 -0.110512
v 0.040824 -0.046479 -0.102068
v 0.040700 -0.050758 -0.100075
v 0.040700 -0.050758 -0.100075
v 0.040517 -0.056454 -0.096252
v 0.021727 -0.062684 -0.102240
v 0.031910 -0.061047 -0.098605
v 0.040432 -0.058870 -0.093981
v 0.040223 -0.064806 -0.088401
v 0.040223 -0.064806 -0.088401
v 0.031660 -0.071485 -0.087525
v 0.031910 -0.061047 -0.098605
v 0.031408 -0.078752 -0.074165
v 0.031660 -0.071485 -0.087525
v 0.040061 -0.068965 -0.082846
v 0.040061 -0.068965 -0.082846
v 0.039827 -0.074156 -0.072700
v 0.031408 -0.078752 -0.074165
v 0.031408 -0.078752 -0.074165
v 0.039770 -0.075135 -0.069501
v 0.039665 -0.076932 -0.063635
v 0.039665 -0.076932 -0.063635
v 0.031189 -0.082734 -0.059475
v 0.031408 -0.078752 -0.074165
v 0.021140 -0.087948 -0.047714
v 0.021248 -0.086245 -0.063146
v 0.031189 -0.082734 -0.059475
v 0.031189 -0.082734 -0.059475
v 0.039549 -0.078164 -0.054905
v 0.039497 -0.078714 -0.051008
v 0.039497 -0.078714 -0.051008
v 0.031026 -0.083871 -0.044278
v 0.031189 -0.082734 -0.059475
v 0.031189 -0.082734 -0.059475
v 0.031026 -0.083871 -0.044278
v 0.021140 -0.087948 -0.047714
v 0.039665 -0.076932 -0.063635
v 0.039549 -0.078164 -0.054905
v 0.031189 -0.082734 -0.059475
v 0.039827 -0.074156 -0.072700
v 0.039770 -0.075135 -0.069501
v 0.031408 -0.078752 -0.074165
v 0.040223 -0.064806 -0.088401
v 0.040061 -0.068965 -0.082846
v 0.031660 -0.071485 -0.087525
v 0.031910 -0.061047 -0.098605
v 0.021727 -0.062684 -0.102240
v 0.040517 -0.056454 -0.096252
v 0.031660 -0.071485 -0.087525
v 0.031408 -0.078752 -0.074165
v 0.021393 -0.081573 -0.077934
v 0.031408 -0.078752 -0.074165
v 0.031189 -0.082734 -0.059475
v 0.021248 -0.086245 -0.063146
v 0.010708 -0.090414 -0.049797
v -0.000000 -0.091240 -0.050497
v -0.000000 -0.089079 -0.066120
v 0.021561 -0.073630 -0.091246
v 0.021393 -0.081573 -0.077934
v -0.000000 -0.083852 -0.080989
v 0.021393 -0.081573 -0.077934
v 0.021248 -0.086245 -0.063146
v -0.000000 -0.089079 -0.066120
v 0.031910 -0.061047 -0.098605
v 0.031660 -0.071485 -0.087525
v 0.021561 -0.073630 -0.091246
v 0.021864 -0.049538 -0.110512
v 0.021727 -0.062684 -0.102240
v -0.000000 -0.064014 -0.105193
v 0.021727 -0.062684 -0.102240
v 0.021561 -0.073630 -0.091246
v -0.000000 -0.075367 -0.094264
v 0.039497 -0.078714 -0.051008
v 0.040802 -0.077422 -0.050906
v 0.040787 -0.077442 -0.049996
v 0.041044 -0.075683 -0.062578
v 0.040802 -0.077422 -0.050906
v 0.039549 -0.078164 -0.054905
v 0.039665 -0.076932 -0.063635
v 0.041059 -0.075576 -0.063293
v 0.041044 -0.075683 -0.062578
v 0.040802 -0.077422 -0.050906
v 0.039497 -0.078714 -0.051008
v 0.039549 -0.078164 -0.054905
v 0.041059 -0.075576 -0.063293
v 0.039665 -0.076932 -0.063635
v 0.039770 -0.075135 -0.069501
v 0.039770 -0.075135 -0.069501
v 0.041276 -0.072810 -0.072133
v 0.041059 -0.075576 -0.063293
v 0.040061 -0.068965 -0.082846
v 0.041547 -0.067736 -0.081996
v 0.041343 -0.071566 -0.074552
v 0.041343 -0.071566 -0.074552
v 0.039827 -0.074156 -0.072700
v 0.040061 -0.068965 -0.082846
v 0.040061 -0.068965 -0.082846
v 0.040223 -0.064806 -0.088401
v 0.041650 -0.065147 -0.085480
v 0.040223 -0.064806 -0.088401
v 0.041707 -0.063714 -0.087406
v 0.041650 -0.065147 -0.085480
v 0.040517 -0.056454 -0.096252
v 0.041943 -0.055653 -0.095128
v 0.041924 -0.056272 -0.094535
v 0.041707 -0.063714 -0.087406
v 0.040223 -0.064806 -0.088401
v 0.040432 -0.058870 -0.093981
v 0.040432 -0.058870 -0.093981
v 0.041924 -0.056272 -0.094535
v 0.041707 -0.063714 -0.087406
v 0.040517 -0.056454 -0.096252
v 0.040700 -0.050758 -0.100075
v 0.042054 -0.050140 -0.098953
v 0.042054 -0.050140 -0.098953
v 0.040700 -0.050758 -0.100075
v 0.040824 -0.046479 -0.102068
v 0.040824 -0.046479 -0.102068
v 0.042110 -0.045524 -0.101213
v 0.042054 -0.050140 -0.098953
v 0.042054 -0.050140 -0.098953
v 0.041943 -0.055653 -0.095128
v 0.040517 -0.056454 -0.096252
v 0.041924 -0.056272 -0.094535
v 0.040432 -0.058870 -0.093981
v 0.040517 -0.056454 -0.096252
v 0.041650 -0.065147 -0.085480
v 0.041547 -0.067736 -0.081996
v 0.040061 -0.068965 -0.082846
v 0.041343 -0.071566 -0.074552
v 0.041276 -0.072810 -0.072133
v 0.039827 -0.074156 -0.072700
v 0.039770 -0.075135 -0.069501
v 0.039827 -0.074156 -0.072700
v 0.041276 -0.072810 -0.072133
v 0.039549 -0.078164 -0.054905
v 0.039665 -0.076932 -0.063635
v 0.041044 -0.075683 -0.062578
v -0.000000 -0.080365 0.011365
v -0.016525 -0.057525 0.065517
v -0.021579 -0.056794 0.062788
v -0.000000 -0.080365 0.011365
v 0.000074 -0.058457 0.068995
v -0.008315 -0.058223 0.068124
v -0.008315 -0.058223 0.068124
v -0.016525 -0.057525 0.065517
v -0.000000 -0.080365 0.011365
v -0.039837 -0.061293 0.025930
v -0.039703 -0.064338 0.017895
v -0.031006 -0.071150 0.015193
v -0.031805 -0.054867 0.055606
v -0.040340 -0.052474 0.046666
v -0.039837 -0.061293 0.025930
v -0.021130 -0.076245 0.013078
v -0.021579 -0.056794 0.062788
v -0.024592 -0.056357 0.061161
v -0.024592 -0.056357 0.061161
v -0.031805 -0.054867 0.055606
v -0.021130 -0.076245 0.013078
v -0.039837 -0.061293 0.025930
v -0.021130 -0.076245 0.013078
v -0.031805 -0.054867 0.055606
v -0.031006 -0.071150 0.015193
v -0.039703 -0.064338 0.017895
v -0.039493 -0.069086 0.005366
v -0.031006 -0.071150 0.015193
v -0.021130 -0.076245 0.013078
v -0.039837 -0.061293 0.025930
v -0.021579 -0.056794 0.062788
v -0.021130 -0.076245 0.013078
v -0.000000 -0.080365 0.011365
v 0.007795 -0.058250 0.068229
v 0.000074 -0.058457 0.068995
v -0.000000 -0.080365 0.011365
v -0.040349 -0.068358 0.005108
v -0.039493 -0.069086 0.005366
v -0.039703 -0.064338 0.017895
v -0.039703 -0.064338 0.017895
v -0.040465 -0.060789 0.025715
v -0.040349 -0.068358 0.005108
v -0.039370 -0.073752 -0.010524
v -0.039493 -0.069086 0.005366
v -0.040356 -0.069827 -0.000081
v -0.039493 -0.069086 0.005366
v -0.040349 -0.068358 0.005108
v -0.040356 -0.069827 -0.000081
v -0.039837 -0.061293 0.025930
v -0.040654 -0.052362 0.046249
v -0.040730 -0.052331 0.046135
v -0.039837 -0.061293 0.025930
v -0.040340 -0.052474 0.046666
v -0.040423 -0.052447 0.046564
v -0.040423 -0.052447 0.046564
v -0.040654 -0.052362 0.046249
v -0.039837 -0.061293 0.025930
v -0.040730 -0.052331 0.046135
v -0.040465 -0.060789 0.025715
v -0.039837 -0.061293 0.025930
v -0.039703 -0.064338 0.017895
v -0.039837 -0.061293 0.025930
v -0.040465 -0.060789 0.025715
v -0.051923 -0.057196 -0.027754
v -0.055028 -0.045769 -0.014534
v -0.056856 -0.044103 -0.034681
v -0.040450 -0.075878 -0.024681
v -0.051088 -0.054684 -0.005644
v -0.051923 -0.057196 -0.027754
v -0.051088 -0.054684 -0.005644
v -0.040378 -0.073933 -0.014597
v -0.040356 -0.069827 -0.000081
v -0.051088 -0.054684 -0.005644
v -0.040450 -0.075878 -0.024681
v -0.040378 -0.073933 -0.014597
v -0.040349 -0.068358 0.005108
v -0.050809 -0.046604 0.024749
v -0.051330 -0.045979 0.022421
v -0.050809 -0.046604 0.024749
v -0.040349 -0.068358 0.005108
v -0.040465 -0.060789 0.025715
v -0.040465 -0.060789 0.025715
v -0.044787 -0.050409 0.038938
v -0.046839 -0.049438 0.035298
v -0.040465 -0.060789 0.025715
v -0.046839 -0.049438 0.035298
v -0.050809 -0.046604 0.024749
v -0.051165 -0.048590 0.015819
v -0.040356 -0.069827 -0.000081
v -0.040349 -0.068358 0.005108
v -0.040465 -0.060789 0.025715
v -0.040730 -0.052331 0.046135
v -0.044787 -0.050409 0.038938
v -0.051165 -0.048590 0.015819
v -0.051596 -0.045661 0.021237
v -0.052139 -0.045010 0.018811
v -0.051165 -0.048590 0.015819
v -0.051330 -0.045979 0.022421
v -0.051596 -0.045661 0.021237
v -0.051088 -0.054684 -0.005644
v -0.051165 -0.048590 0.015819
v -0.053364 -0.043542 0.013340
v -0.051165 -0.048590 0.015819
v -0.052228 -0.044902 0.018412
v -0.053364 -0.043542 0.013340
v -0.051088 -0.054684 -0.005644
v -0.055078 -0.040078 0.000405
v -0.055939 -0.038337 -0.006093
v -0.055939 -0.038337 -0.006093
v -0.055028 -0.045769 -0.014534
v -0.051088 -0.054684 -0.005644
v -0.051088 -0.054684 -0.005644
v -0.054350 -0.041549 0.005898
v -0.054669 -0.040904 0.003492
v -0.054669 -0.040904 0.003492
v -0.055078 -0.040078 0.000405
v -0.051088 -0.054684 -0.005644
v -0.056856 -0.044103 -0.034681
v -0.055028 -0.045769 -0.014534
v -0.057812 -0.034722 -0.019590
v -0.055028 -0.045769 -0.014534
v -0.056275 -0.037631 -0.008730
v -0.057812 -0.034722 -0.019590
v -0.055028 -0.045769 -0.014534
v -0.055939 -0.038337 -0.006093
v -0.056053 -0.038106 -0.006953
v -0.056053 -0.038106 -0.006953
v -0.056231 -0.037725 -0.008378
v -0.055028 -0.045769 -0.014534
v -0.056231 -0.037725 -0.008378
v -0.056275 -0.037631 -0.008730
v -0.055028 -0.045769 -0.014534
v -0.056856 -0.044103 -0.034681
v -0.057979 -0.034406 -0.020771
v -0.058726 -0.032990 -0.026057
v -0.058726 -0.032990 -0.026057
v -0.059667 -0.031169 -0.032852
v -0.056856 -0.044103 -0.034681
v -0.057812 -0.034722 -0.019590
v -0.057979 -0.034406 -0.020771
v -0.056856 -0.044103 -0.034681
v -0.055028 -0.045769 -0.014534
v -0.051923 -0.057196 -0.027754
v -0.051088 -0.054684 -0.005644
v -0.053364 -0.043542 0.013340
v -0.054350 -0.041549 0.005898
v -0.051088 -0.054684 -0.005644
v -0.052139 -0.045010 0.018811
v -0.052228 -0.044902 0.018412
v -0.051165 -0.048590 0.015819
v -0.051330 -0.045979 0.022421
v -0.051165 -0.048590 0.015819
v -0.040349 -0.068358 0.005108
v -0.040356 -0.069827 -0.000081
v -0.051165 -0.048590 0.015819
v -0.051088 -0.054684 -0.005644
v -0.021864 -0.049538 -0.110512
v -0.021963 -0.035080 -0.116226
v -0.011118 -0.035722 -0.118530
v -0.041051 -0.038653 -0.105714
v -0.041199 -0.032621 -0.107445
v -0.032266 -0.034022 -0.112440
v -0.041051 -0.038653 -0.105714
v -0.021963 -0.035080 -0.116226
v -0.021864 -0.049538 -0.110512
v -0.032380 -0.008554 -0.117243
v -0.032266 -0.034022 -0.112440
v -0.041335 -0.027094 -0.109031
v -0.032266 -0.034022 -0.112440
v -0.041199 -0.032621 -0.107445
v -0.041335 -0.027094 -0.109031
v -0.021963 -0.035080 -0.116226
v -0.032266 -0.034022 -0.112440
v -0.032380 -0.008554 -0.117243
v -0.032380 -0.008554 -0.117243
v -0.031976 -0.008489 -0.117487
v -0.021963 -0.035080 -0.116226
v -0.011118 -0.035722 -0.118530
v -0.021963 -0.035080 -0.116226
v -0.021363 -0.007339 -0.121783
v -0.021963 -0.035080 -0.116226
v -0.022033 -0.007411 -0.121512
v -0.021363 -0.007339 -0.121783
v -0.000000 -0.035938 -0.119306
v -0.011118 -0.035722 -0.118530
v -0.010497 -0.006668 -0.124281
v -0.011118 -0.035722 -0.118530
v -0.011153 -0.006708 -0.124130
v -0.010497 -0.006668 -0.124281
v -0.021363 -0.007339 -0.121783
v -0.011153 -0.006708 -0.124130
v -0.011118 -0.035722 -0.118530
v -0.031976 -0.008489 -0.117487
v -0.022033 -0.007411 -0.121512
v -0.021963 -0.035080 -0.116226
v -0.041335 -0.027094 -0.109031
v -0.041644 -0.010053 -0.111652
v -0.032380 -0.008554 -0.117243
v -0.032266 -0.034022 -0.112440
v -0.021963 -0.035080 -0.116226
v -0.041051 -0.038653 -0.105714
v -0.041051 -0.038653 -0.105714
v -0.040824 -0.046479 -0.102068
v -0.042110 -0.045524 -0.101213
v -0.042110 -0.045524 -0.101213
v -0.042197 -0.038327 -0.104738
v -0.041051 -0.038653 -0.105714
v -0.041051 -0.038653 -0.105714
v -0.042197 -0.038327 -0.104738
v -0.042215 -0.033843 -0.106129
v -0.042243 -0.026940 -0.108271
v -0.041335 -0.027094 -0.109031
v -0.041199 -0.032621 -0.107445
v -0.041199 -0.032621 -0.107445
v -0.042215 -0.033843 -0.106129
v -0.042243 -0.026940 -0.108271
v -0.041335 -0.027094 -0.109031
v -0.042243 -0.026940 -0.108271
v -0.042210 -0.010179 -0.111179
v -0.042210 -0.010179 -0.111179
v -0.042097 -0.010150 -0.111286
v -0.041335 -0.027094 -0.109031
v -0.042097 -0.010150 -0.111286
v -0.041768 -0.010076 -0.111561
v -0.041335 -0.027094 -0.109031
v -0.041768 -0.010076 -0.111561
v -0.041644 -0.010053 -0.111652
v -0.041335 -0.027094 -0.109031
v -0.042215 -0.033843 -0.106129
v -0.041199 -0.032621 -0.107445
v -0.041051 -0.038653 -0.105714
v -0.054639 -0.049445 -0.059525
v -0.058105 -0.040736 -0.044126
v -0.059504 -0.035522 -0.052607
v -0.053587 -0.053964 -0.049554
v -0.056856 -0.044103 -0.034681
v -0.058105 -0.040736 -0.044126
v -0.048839 -0.057797 -0.073829
v -0.054639 -0.049445 -0.059525
v -0.055771 -0.042909 -0.068215
v -0.050342 -0.040462 -0.089633
v -0.056919 -0.034685 -0.075279
v -0.058007 -0.025245 -0.080661
v -0.049601 -0.049995 -0.082696
v -0.055771 -0.042909 -0.068215
v -0.056919 -0.034685 -0.075279
v -0.048103 -0.063398 -0.063374
v -0.053587 -0.053964 -0.049554
v -0.054639 -0.049445 -0.059525
v -0.050342 -0.040462 -0.089633
v -0.051022 -0.029790 -0.094683
v -0.042197 -0.038327 -0.104738
v -0.051022 -0.029790 -0.094683
v -0.042215 -0.033843 -0.106129
v -0.042197 -0.038327 -0.104738
v -0.049601 -0.049995 -0.082696
v -0.050342 -0.040462 -0.089633
v -0.042054 -0.050140 -0.098953
v -0.050342 -0.040462 -0.089633
v -0.042110 -0.045524 -0.101213
v -0.042054 -0.050140 -0.098953
v -0.058105 -0.040736 -0.044126
v -0.056856 -0.044103 -0.034681
v -0.059667 -0.031169 -0.032852
v -0.060673 -0.029222 -0.040116
v -0.059504 -0.035522 -0.052607
v -0.058105 -0.040736 -0.044126
v -0.059504 -0.035522 -0.052607
v -0.061605 -0.026523 -0.050187
v -0.062098 -0.024454 -0.057908
v -0.059504 -0.035522 -0.052607
v -0.060673 -0.029222 -0.040116
v -0.061209 -0.028186 -0.043982
v -0.061209 -0.028186 -0.043982
v -0.061605 -0.026523 -0.050187
v -0.059504 -0.035522 -0.052607
v -0.062098 -0.024454 -0.057908
v -0.061947 -0.023621 -0.061012
v -0.059504 -0.035522 -0.052607
v -0.061811 -0.022873 -0.063802
v -0.056919 -0.034685 -0.075279
v -0.055771 -0.042909 -0.068215
v -0.056919 -0.034685 -0.075279
v -0.061811 -0.022873 -0.063802
v -0.061561 -0.021493 -0.068943
v -0.061561 -0.021493 -0.068943
v -0.058007 -0.025245 -0.080661
v -0.056919 -0.034685 -0.075279
v -0.058007 -0.025245 -0.080661
v -0.060771 -0.020093 -0.074167
v -0.059475 -0.018222 -0.081152
v -0.059475 -0.018222 -0.081152
v -0.059093 -0.017926 -0.082257
v -0.058007 -0.025245 -0.080661
v -0.058007 -0.025245 -0.080661
v -0.061561 -0.021493 -0.068943
v -0.061497 -0.021141 -0.070258
v -0.061497 -0.021141 -0.070258
v -0.060771 -0.020093 -0.074167
v -0.058007 -0.025245 -0.080661
v -0.051022 -0.029790 -0.094683
v -0.058007 -0.025245 -0.080661
v -0.058624 -0.017562 -0.083619
v -0.058624 -0.017562 -0.083619
v -0.056020 -0.015541 -0.091164
v -0.051022 -0.029790 -0.094683
v -0.056020 -0.015541 -0.091164
v -0.052054 -0.013559 -0.098559
v -0.051022 -0.029790 -0.094683
v -0.042243 -0.026940 -0.108271
v -0.045798 -0.011228 -0.107264
v -0.045049 -0.010967 -0.108239
v -0.051063 -0.013064 -0.100407
v -0.045798 -0.011228 -0.107264
v -0.042243 -0.026940 -0.108271
v -0.042215 -0.033843 -0.106129
v -0.051022 -0.029790 -0.094683
v -0.051741 -0.013403 -0.099142
v -0.051741 -0.013403 -0.099142
v -0.051063 -0.013064 -0.100407
v -0.042215 -0.033843 -0.106129
v -0.042243 -0.026940 -0.108271
v -0.042215 -0.033843 -0.106129
v -0.051063 -0.013064 -0.100407
v -0.045049 -0.010967 -0.108239
v -0.042210 -0.010179 -0.111179
v -0.042243 -0.026940 -0.108271
v -0.052054 -0.013559 -0.098559
v -0.051741 -0.013403 -0.099142
v -0.051022 -0.029790 -0.094683
v -0.059093 -0.017926 -0.082257
v -0.058624 -0.017562 -0.083619
v -0.058007 -0.025245 -0.080661
v -0.055771 -0.042909 -0.068215
v -0.059504 -0.035522 -0.052607
v -0.061811 -0.022873 -0.063802
v -0.061947 -0.023621 -0.061012
v -0.061811 -0.022873 -0.063802
v -0.059504 -0.035522 -0.052607
v -0.059667 -0.031169 -0.032852
v -0.060673 -0.029222 -0.040116
v -0.058105 -0.040736 -0.044126
v -0.042197 -0.038327 -0.104738
v -0.042110 -0.045524 -0.101213
v -0.050342 -0.040462 -0.089633
v -0.046870 -0.068024 -0.040041
v -0.051923 -0.057196 -0.027754
v -0.053587 -0.053964 -0.049554
v -0.056919 -0.034685 -0.075279
v -0.050342 -0.040462 -0.089633
v -0.049601 -0.049995 -0.082696
v -0.058007 -0.025245 -0.080661
v -0.051022 -0.029790 -0.094683
v -0.050342 -0.040462 -0.089633
v -0.055771 -0.042909 -0.068215
v -0.049601 -0.049995 -0.082696
v -0.048839 -0.057797 -0.073829
v -0.058105 -0.040736 -0.044126
v -0.054639 -0.049445 -0.059525
v -0.053587 -0.053964 -0.049554
v -0.056856 -0.044103 -0.034681
v -0.053587 -0.053964 -0.049554
v -0.051923 -0.057196 -0.027754
v -0.059504 -0.035522 -0.052607
v -0.055771 -0.042909 -0.068215
v -0.054639 -0.049445 -0.059525
v 0.051923 -0.057196 -0.027754
v 0.053587 -0.053965 -0.049554
v 0.056856 -0.044104 -0.034681
v 0.053587 -0.053965 -0.049554
v 0.051923 -0.057196 -0.027754
v 0.046870 -0.068024 -0.040041
v 0.051088 -0.054684 -0.005644
v 0.051165 -0.048589 0.015819
v 0.040356 -0.069827 -0.000081
v 0.040356 -0.069827 -0.000081
v 0.040378 -0.073936 -0.014606
v 0.051088 -0.054684 -0.005644
v 0.056856 -0.044104 -0.034681
v 0.059631 -0.031246 -0.032565
v 0.059260 -0.032054 -0.029551
v 0.059631 -0.031246 -0.032565
v 0.056856 -0.044104 -0.034681
v 0.058105 -0.040735 -0.044126
v 0.055028 -0.045769 -0.014534
v 0.056231 -0.037724 -0.008378
v 0.056047 -0.038120 -0.006903
v 0.055028 -0.045769 -0.014534
v 0.056275 -0.037631 -0.008730
v 0.056231 -0.037724 -0.008378
v 0.055028 -0.045769 -0.014534
v 0.056856 -0.044104 -0.034681
v 0.057881 -0.034630 -0.019928
v 0.056856 -0.044104 -0.034681
v 0.058056 -0.034304 -0.021151
v 0.057881 -0.034630 -0.019928
v 0.057881 -0.034630 -0.019928
v 0.056275 -0.037631 -0.008730
v 0.055028 -0.045769 -0.014534
v 0.051088 -0.054684 -0.005644
v 0.055028 -0.045769 -0.014534
v 0.055940 -0.038343 -0.006072
v 0.051088 -0.054684 -0.005644
v 0.051923 -0.057196 -0.027754
v 0.055028 -0.045769 -0.014534
v 0.055940 -0.038343 -0.006072
v 0.055093 -0.040107 0.000515
v 0.051088 -0.054684 -0.005644
v 0.055093 -0.040107 0.000515
v 0.054644 -0.041043 0.004007
v 0.051088 -0.054684 -0.005644
v 0.053758 -0.042889 0.010902
v 0.052231 -0.044903 0.018409
v 0.051165 -0.048589 0.015819
v 0.051088 -0.054684 -0.005644
v 0.054380 -0.041592 0.006060
v 0.053758 -0.042889 0.010902
v 0.051165 -0.048589 0.015819
v 0.052231 -0.044903 0.018409
v 0.052149 -0.045011 0.018815
v 0.052149 -0.045011 0.018815
v 0.051623 -0.045703 0.021400
v 0.051165 -0.048589 0.015819
v 0.040465 -0.060792 0.025711
v 0.044793 -0.050409 0.038939
v 0.042443 -0.051611 0.043440
v 0.051296 -0.046136 0.023009
v 0.047728 -0.048908 0.033318
v 0.040465 -0.060792 0.025711
v 0.040465 -0.060792 0.025711
v 0.040349 -0.068361 0.005103
v 0.051296 -0.046136 0.023009
v 0.040349 -0.068361 0.005103
v 0.040356 -0.069827 -0.000081
v 0.051165 -0.048589 0.015819
v 0.051165 -0.048589 0.015819
v 0.051368 -0.046042 0.022657
v 0.040349 -0.068361 0.005103
v 0.051368 -0.046042 0.022657
v 0.051296 -0.046136 0.023009
v 0.040349 -0.068361 0.005103
v 0.047728 -0.048908 0.033318
v 0.044793 -0.050409 0.038939
v 0.040465 -0.060792 0.025711
v 0.042443 -0.051611 0.043440
v 0.040730 -0.052332 0.046135
v 0.040465 -0.060792 0.025711
v 0.051623 -0.045703 0.021400
v 0.051368 -0.046042 0.022657
v 0.051165 -0.048589 0.015819
v 0.051165 -0.048589 0.015819
v 0.051088 -0.054684 -0.005644
v 0.053758 -0.042889 0.010902
v 0.054644 -0.041043 0.004007
v 0.054380 -0.041592 0.006060
v 0.051088 -0.054684 -0.005644
v 0.056047 -0.038120 -0.006903
v 0.055940 -0.038343 -0.006072
v 0.055028 -0.045769 -0.014534
v 0.059260 -0.032054 -0.029551
v 0.058056 -0.034304 -0.021151
v 0.056856 -0.044104 -0.034681
v 0.051923 -0.057196 -0.027754
v 0.051088 -0.054684 -0.005644
v 0.040450 -0.075878 -0.024681
v 0.040378 -0.073936 -0.014606
v 0.040450 -0.075878 -0.024681
v 0.051088 -0.054684 -0.005644
v 0.056856 -0.044104 -0.034681
v 0.055028 -0.045769 -0.014534
v 0.051923 -0.057196 -0.027754
v 0.039493 -0.069089 0.005359
v 0.031006 -0.071150 0.015193
v 0.030889 -0.080005 -0.014039
v 0.021130 -0.076246 0.013078
v 0.032059 -0.054807 0.055380
v 0.024172 -0.056431 0.061434
v 0.032059 -0.054807 0.055380
v 0.021130 -0.076246 0.013078
v 0.039837 -0.061294 0.025927
v 0.039837 -0.061294 0.025927
v 0.040340 -0.052474 0.046666
v 0.032059 -0.054807 0.055380
v 0.039837 -0.061294 0.025927
v 0.021130 -0.076246 0.013078
v 0.031006 -0.071150 0.015193
v 0.031006 -0.071150 0.015193
v 0.039703 -0.064338 0.017895
v 0.039837 -0.061294 0.025927
v -0.000000 -0.080365 0.011365
v 0.015719 -0.057614 0.065852
v 0.007795 -0.058250 0.068229
v -0.000000 -0.080365 0.011365
v 0.021579 -0.056794 0.062790
v 0.015719 -0.057614 0.065852
v -0.000000 -0.080365 0.011365
v 0.021130 -0.076246 0.013078
v 0.021579 -0.056794 0.062790
v 0.024172 -0.056431 0.061434
v 0.021579 -0.056794 0.062790
v 0.021130 -0.076246 0.013078
v 0.039493 -0.069089 0.005359
v 0.039703 -0.064338 0.017895
v 0.031006 -0.071150 0.015193
v 0.040349 -0.068361 0.005103
v 0.040465 -0.060792 0.025711
v 0.039703 -0.064338 0.017895
v 0.040465 -0.060792 0.025711
v 0.039837 -0.061294 0.025927
v 0.039703 -0.064338 0.017895
v 0.040356 -0.069827 -0.000081
v 0.039493 -0.069089 0.005359
v 0.039370 -0.073752 -0.010524
v 0.040356 -0.069827 -0.000081
v 0.040349 -0.068361 0.005103
v 0.039493 -0.069089 0.005359
v 0.039837 -0.061294 0.025927
v 0.040652 -0.052362 0.046250
v 0.040421 -0.052446 0.046566
v 0.039837 -0.061294 0.025927
v 0.040465 -0.060792 0.025711
v 0.040730 -0.052332 0.046135
v 0.040730 -0.052332 0.046135
v 0.040652 -0.052362 0.046250
v 0.039837 -0.061294 0.025927
v 0.040421 -0.052446 0.046566
v 0.040340 -0.052474 0.046666
v 0.039837 -0.061294 0.025927
v 0.039703 -0.064338 0.017895
v 0.039493 -0.069089 0.005359
v 0.040349 -0.068361 0.005103
v 0.054639 -0.049445 -0.059525
v 0.055771 -0.042909 -0.068215
v 0.059504 -0.035522 -0.052607
v 0.053587 -0.053965 -0.049554
v 0.054639 -0.049445 -0.059525
v 0.058105 -0.040735 -0.044126
v 0.048839 -0.057797 -0.073829
v 0.049601 -0.049995 -0.082696
v 0.055771 -0.042909 -0.068215
v 0.050342 -0.040462 -0.089634
v 0.051022 -0.029789 -0.094683
v 0.058007 -0.025245 -0.080661
v 0.049601 -0.049995 -0.082696
v 0.050342 -0.040462 -0.089634
v 0.056919 -0.034685 -0.075279
v 0.042054 -0.050140 -0.098953
v 0.050342 -0.040462 -0.089634
v 0.049601 -0.049995 -0.082696
v 0.050342 -0.040462 -0.089634
v 0.042110 -0.045524 -0.101213
v 0.042197 -0.038329 -0.104738
v 0.042197 -0.038329 -0.104738
v 0.051022 -0.029789 -0.094683
v 0.050342 -0.040462 -0.089634
v 0.042215 -0.033843 -0.106129
v 0.049016 -0.012268 -0.103373
v 0.051667 -0.013421 -0.099073
v 0.049016 -0.012268 -0.103373
v 0.042215 -0.033843 -0.106129
v 0.042243 -0.026939 -0.108271
v 0.042243 -0.026939 -0.108271
v 0.045599 -0.011220 -0.107291
v 0.049016 -0.012268 -0.103373
v 0.042243 -0.026939 -0.108271
v 0.042210 -0.010180 -0.111179
v 0.045599 -0.011220 -0.107291
v 0.051022 -0.029789 -0.094683
v 0.058535 -0.017349 -0.084419
v 0.058706 -0.017546 -0.083682
v 0.051022 -0.029789 -0.094683
v 0.052012 -0.013571 -0.098515
v 0.054296 -0.014564 -0.094811
v 0.054296 -0.014564 -0.094811
v 0.058535 -0.017349 -0.084419
v 0.051022 -0.029789 -0.094683
v 0.051022 -0.029789 -0.094683
v 0.051667 -0.013421 -0.099073
v 0.052012 -0.013571 -0.098515
v 0.058007 -0.025245 -0.080661
v 0.060954 -0.020138 -0.073991
v 0.061042 -0.020241 -0.073611
v 0.058007 -0.025245 -0.080661
v 0.059044 -0.017936 -0.082224
v 0.060954 -0.020138 -0.073991
v 0.058007 -0.025245 -0.080661
v 0.058706 -0.017546 -0.083682
v 0.059044 -0.017936 -0.082224
v 0.056919 -0.034685 -0.075279
v 0.058007 -0.025245 -0.080661
v 0.061462 -0.021464 -0.069052
v 0.061931 -0.022829 -0.063969
v 0.059504 -0.035522 -0.052607
v 0.055771 -0.042909 -0.068215
v 0.055771 -0.042909 -0.068215
v 0.056919 -0.034685 -0.075279
v 0.061931 -0.022829 -0.063969
v 0.059504 -0.035522 -0.052607
v 0.061728 -0.026642 -0.049742
v 0.061724 -0.026691 -0.049558
v 0.059504 -0.035522 -0.052607
v 0.062007 -0.023606 -0.061067
v 0.061728 -0.026642 -0.049742
v 0.059504 -0.035522 -0.052607
v 0.061931 -0.022829 -0.063969
v 0.062048 -0.023169 -0.062701
v 0.062048 -0.023169 -0.062701
v 0.062007 -0.023606 -0.061067
v 0.059504 -0.035522 -0.052607
v 0.058105 -0.040735 -0.044126
v 0.060614 -0.029107 -0.040545
v 0.059631 -0.031246 -0.032565
v 0.058105 -0.040735 -0.044126
v 0.059504 -0.035522 -0.052607
v 0.060614 -0.029107 -0.040545
v 0.061724 -0.026691 -0.049558
v 0.060614 -0.029107 -0.040545
v 0.059504 -0.035522 -0.052607
v 0.061462 -0.021464 -0.069052
v 0.061931 -0.022829 -0.063969
v 0.056919 -0.034685 -0.075279
v 0.061042 -0.020241 -0.073611
v 0.061462 -0.021464 -0.069052
v 0.058007 -0.025245 -0.080661
v 0.058706 -0.017546 -0.083682
v 0.058007 -0.025245 -0.080661
v 0.051022 -0.029789 -0.094683
v 0.051667 -0.013421 -0.099073
v 0.051022 -0.029789 -0.094683
v 0.042215 -0.033843 -0.106129
v 0.042197 -0.038329 -0.104738
v 0.042215 -0.033843 -0.106129
v 0.051022 -0.029789 -0.094683
v 0.042054 -0.050140 -0.098953
v 0.042110 -0.045524 -0.101213
v 0.050342 -0.040462 -0.089634
v 0.054639 -0.049445 -0.059525
v 0.053587 -0.053965 -0.049554
v 0.048103 -0.063397 -0.063374
v 0.056919 -0.034685 -0.075279
v 0.055771 -0.042909 -0.068215
v 0.049601 -0.049995 -0.082696
v 0.058007 -0.025245 -0.080661
v 0.056919 -0.034685 -0.075279
v 0.050342 -0.040462 -0.089634
v 0.055771 -0.042909 -0.068215
v 0.054639 -0.049445 -0.059525
v 0.048839 -0.057797 -0.073829
v 0.058105 -0.040735 -0.044126
v 0.056856 -0.044104 -0.034681
v 0.053587 -0.053965 -0.049554
v 0.059504 -0.035522 -0.052607
v 0.058105 -0.040735 -0.044126
v 0.054639 -0.049445 -0.059525
v -0.000000 -0.050600 -0.113480
v -0.000000 -0.035938 -0.119306
v 0.011118 -0.035722 -0.118530
v 0.021864 -0.049538 -0.110512
v 0.021963 -0.035080 -0.116226
v 0.041051 -0.038652 -0.105715
v 0.041051 -0.038652 -0.105715
v 0.021963 -0.035080 -0.116226
v 0.032266 -0.034022 -0.112440
v 0.032266 -0.034022 -0.112440
v 0.041199 -0.032621 -0.107445
v 0.041051 -0.038652 -0.105715
v -0.000000 -0.035938 -0.119306
v 0.000725 -0.006461 -0.125057
v 0.011158 -0.006708 -0.124129
v -0.000000 -0.035938 -0.119306
v 0.000003 -0.006474 -0.125007
v 0.000725 -0.006461 -0.125057
v 0.011118 -0.035722 -0.118530
v 0.011833 -0.006725 -0.124069
v 0.022042 -0.007409 -0.121520
v 0.011118 -0.035722 -0.118530
v 0.011158 -0.006708 -0.124129
v 0.011833 -0.006725 -0.124069
v 0.021963 -0.035080 -0.116226
v 0.022611 -0.007447 -0.121378
v 0.032380 -0.008558 -0.117230
v 0.021963 -0.035080 -0.116226
v 0.022042 -0.007409 -0.121520
v 0.022611 -0.007447 -0.121378
v 0.032971 -0.008624 -0.116979
v 0.041644 -0.010053 -0.111652
v 0.041335 -0.027095 -0.109031
v 0.032266 -0.034022 -0.112440
v 0.032380 -0.008558 -0.117230
v 0.032971 -0.008624 -0.116979
v 0.041335 -0.027095 -0.109031
v 0.032266 -0.034022 -0.112440
v 0.032971 -0.008624 -0.116979
v 0.041335 -0.027095 -0.109031
v 0.041199 -0.032621 -0.107445
v 0.032266 -0.034022 -0.112440
v 0.032380 -0.008558 -0.117230
v 0.032266 -0.034022 -0.112440
v 0.021963 -0.035080 -0.116226
v 0.022042 -0.007409 -0.121520
v 0.021963 -0.035080 -0.116226
v 0.011118 -0.035722 -0.118530
v 0.011158 -0.006708 -0.124129
v 0.011118 -0.035722 -0.118530
v -0.000000 -0.035938 -0.119306
v -0.010497 -0.006668 -0.124281
v 0.000003 -0.006474 -0.125007
v -0.000000 -0.035938 -0.119306
v 0.041051 -0.038652 -0.105715
v 0.040824 -0.046479 -0.102068
v 0.021864 -0.049538 -0.110512
v -0.011118 -0.035722 -0.118530
v -0.000000 -0.035938 -0.119306
v -0.000000 -0.050600 -0.113480
v 0.011118 -0.035722 -0.118530
v 0.021963 -0.035080 -0.116226
v 0.021864 -0.049538 -0.110512
v 0.041051 -0.038652 -0.105715
v 0.042197 -0.038329 -0.104738
v 0.042110 -0.045524 -0.101213
v 0.042110 -0.045524 -0.101213
v 0.040824 -0.046479 -0.102068
v 0.041051 -0.038652 -0.105715
v 0.042243 -0.026939 -0.108271
v 0.042215 -0.033843 -0.106129
v 0.041199 -0.032621 -0.107445
v 0.041051 -0.038652 -0.105715
v 0.041199 -0.032621 -0.107445
v 0.042215 -0.033843 -0.106129
v 0.042215 -0.033843 -0.106129
v 0.042197 -0.038329 -0.104738
v 0.041051 -0.038652 -0.105715
v 0.041335 -0.027095 -0.109031
v 0.042098 -0.010150 -0.111286
v 0.042210 -0.010180 -0.111179
v 0.041335 -0.027095 -0.109031
v 0.041768 -0.010077 -0.111561
v 0.042098 -0.010150 -0.111286
v 0.041335 -0.027095 -0.109031
v 0.041644 -0.010053 -0.111652
v 0.041768 -0.010077 -0.111561
v 0.042210 -0.010180 -0.111179
v 0.042243 -0.026939 -0.108271
v 0.041335 -0.027095 -0.109031
v 0.041199 -0.032621 -0.107445
v 0.041335 -0.027095 -0.109031
v 0.042243 -0.026939 -0.108271
vn -0.2514 -0.9628 0.0995
vn -0.4062 -0.9062 0.1177
vn -0.3968 -0.8789 0.2647
vn -0.1631 -0.9489 0.2703
vn -0.2093 -0.9301 0.3019
vn -0.0854 -0.9925 0.0873
vn -0.4927 -0.8334 0.2505
vn -0.4524 -0.8843 0.1151
vn -0.5104 -0.8262 0.2387
vn -0.5159 -0.8397 0.1694
vn -0.4938 -0.8650 0.0891
vn -0.5104 -0.8262 0.2386
vn -0.0713 -0.9940 0.0825
vn -0.0734 -0.9625 0.2613
vn -0.3626 -0.8964 0.2548
vn -0.3506 -0.9315 0.0966
vn -0.2129 -0.9733 0.0858
vn -0.6841 -0.7013 0.2006
vn -0.6841 -0.7153 0.1428
vn -0.6906 -0.7090 0.1429
vn -0.6984 -0.7119 0.0736
vn -0.6992 -0.7110 0.0747
vn -0.6915 -0.7184 0.0753
vn -0.6917 -0.7082 0.1413
vn -0.6817 -0.7038 0.2001
vn -0.8554 -0.5088 0.0966
vn -0.8550 -0.5080 0.1040
vn -0.8322 -0.5512 0.0605
vn -0.3765 -0.6785 -0.6308
vn -0.3918 -0.8113 -0.4339
vn -0.3995 -0.8863 -0.2343
vn -0.1540 -0.7014 -0.6960
vn -0.1422 -0.4118 -0.9001
vn -0.1460 -0.5279 -0.8366
vn -0.1668 -0.9406 -0.2955
vn -0.1624 -0.8483 -0.5041
vn -0.0851 -0.9870 -0.1365
vn -0.1549 -0.9712 -0.1810
vn -0.4838 -0.8731 -0.0601
vn -0.5161 -0.8565 -0.0068
vn -0.3994 -0.9145 -0.0641
vn -0.3638 -0.9261 -0.0997
vn -0.4734 -0.8519 -0.2239
vn -0.5232 -0.8448 -0.1122
vn -0.4929 -0.7791 -0.3873
vn -0.4972 -0.8319 -0.2463
vn -0.4491 -0.6554 -0.6073
vn -0.4955 -0.7022 -0.5112
vn -0.4108 -0.5172 -0.7509
vn -0.3974 -0.4916 -0.7748
vn -0.3581 -0.2045 -0.9110
vn -0.4936 -0.6048 -0.6249
vn -0.4263 -0.3921 -0.8152
vn -0.4263 -0.3920 -0.8152
vn -0.4661 -0.7809 -0.4160
vn -0.4971 -0.8321 -0.2459
vn -0.5233 -0.8447 -0.1123
vn -0.2484 -0.9630 -0.1046
vn -0.1419 -0.8341 -0.5331
vn -0.1463 -0.9333 -0.3280
vn -0.1396 -0.5204 -0.8424
vn -0.1390 -0.6868 -0.7135
vn -0.3559 -0.8921 -0.2784
vn -0.3473 -0.8072 -0.4773
vn -0.3431 -0.6682 -0.6601
vn -0.7004 -0.7137 -0.0039
vn -0.7033 -0.7109 -0.0030
vn -0.7056 -0.7029 -0.0898
vn -0.7047 -0.7037 -0.0902
vn -0.7057 -0.7027 -0.0903
vn -0.7077 -0.6790 -0.1951
vn -0.7072 -0.6794 -0.1957
vn -0.7078 -0.6353 -0.3087
vn -0.7092 -0.6347 -0.3068
vn -0.7085 -0.5761 -0.4075
vn -0.7049 -0.5776 -0.4118
vn -0.6951 -0.5078 -0.5089
vn -0.6922 -0.5071 -0.5135
vn -0.7050 -0.4988 -0.5042
vn -0.6955 -0.4190 -0.5837
vn -0.6799 -0.3292 -0.6553
vn -0.6871 -0.3230 -0.6509
vn -0.6851 -0.4210 -0.5944
vn -0.6905 -0.5113 -0.5116
vn -0.7028 -0.5806 -0.4111
vn -0.7043 -0.6390 -0.3093
vn -0.7081 -0.6786 -0.1951
vn -0.7042 -0.7042 -0.0900
vn -0.7037 -0.7105 -0.0040
vn -0.9010 -0.4338 -0.0050
vn -0.9035 -0.4229 -0.0698
vn -0.8676 -0.2951 -0.4002
vn -0.8710 -0.4062 -0.2764
vn -0.8568 -0.3695 -0.3597
vn -0.8629 -0.4586 -0.2122
vn -0.8691 -0.4089 -0.2783
vn -0.8641 -0.5002 -0.0567
vn -0.8728 -0.4434 -0.2038
vn -0.8728 -0.4434 -0.2039
vn -0.8574 -0.4968 -0.1344
vn -0.8502 -0.5265 0.0025
vn -0.8458 -0.5299 -0.0614
vn -0.8390 -0.5442 0.0022
vn -0.8484 -0.5291 -0.0179
vn -0.8605 -0.5006 -0.0949
vn -0.8669 -0.4622 -0.1866
vn -0.8700 -0.4048 -0.2814
vn -0.8566 -0.3704 -0.3591
vn -0.9108 -0.3871 -0.1433
vn 0.8550 -0.5080 0.1040
vn 0.8554 -0.5088 0.0966
vn 0.8322 -0.5512 0.0606
vn 0.8389 -0.5443 0.0024
vn 0.8484 -0.5291 -0.0179
vn 0.0713 -0.9940 0.0825
vn 0.3506 -0.9315 0.0966
vn 0.2093 -0.9301 0.3018
vn 0.0734 -0.9625 0.2613
vn 0.2129 -0.9733 0.0858
vn 0.3626 -0.8964 0.2548
vn 0.5162 -0.8565 -0.0067
vn 0.4937 -0.8651 0.0892
vn 0.5158 -0.8398 0.1695
vn 0.4937 -0.8651 0.0893
vn 0.4525 -0.8843 0.1151
vn 0.5104 -0.8262 0.2386
vn 0.5104 -0.8262 0.2385
vn 0.3968 -0.8789 0.2647
vn 0.2513 -0.9628 0.0995
vn 0.1631 -0.9489 0.2703
vn 0.4063 -0.9061 0.1177
vn 0.0854 -0.9925 0.0873
vn 0.6818 -0.7036 0.2001
vn 0.6908 -0.7088 0.1429
vn 0.6917 -0.7082 0.1415
vn 0.6915 -0.7184 0.0755
vn 0.6987 -0.7116 0.0737
vn 0.7033 -0.7109 -0.0029
vn 0.7007 -0.7134 -0.0037
vn 0.6995 -0.7107 0.0747
vn 0.6841 -0.7153 0.1428
vn 0.6841 -0.7013 0.2005
vn 0.9010 -0.4338 -0.0050
vn 0.9108 -0.3871 -0.1433
vn 0.8502 -0.5265 0.0025
vn 0.8574 -0.4968 -0.1344
vn 0.8605 -0.5006 -0.0949
vn 0.8641 -0.5002 -0.0567
vn 0.8669 -0.4622 -0.1866
vn 0.8629 -0.4586 -0.2123
vn 0.8700 -0.4048 -0.2814
vn 0.8710 -0.4062 -0.2764
vn 0.8677 -0.2950 -0.4002
vn 0.8566 -0.3707 -0.3589
vn 0.8568 -0.3695 -0.3597
vn 0.8691 -0.4089 -0.2783
vn 0.8728 -0.4434 -0.2038
vn 0.8458 -0.5299 -0.0614
vn 0.9035 -0.4229 -0.0698
vn 0.1390 -0.6868 -0.7135
vn 0.1422 -0.4118 -0.9001
vn 0.1396 -0.5204 -0.8424
vn 0.3431 -0.6682 -0.6601
vn 0.1463 -0.9333 -0.3280
vn 0.1419 -0.8341 -0.5331
vn 0.1549 -0.9712 -0.1810
vn 0.2484 -0.9630 -0.1046
vn 0.3559 -0.8921 -0.2784
vn 0.3473 -0.8072 -0.4773
vn 0.4936 -0.6048 -0.6249
vn 0.3974 -0.4916 -0.7748
vn 0.4263 -0.3920 -0.8152
vn 0.4108 -0.5172 -0.7508
vn 0.4491 -0.6554 -0.6073
vn 0.4660 -0.7809 -0.4160
vn 0.4928 -0.7792 -0.3873
vn 0.4971 -0.8321 -0.2459
vn 0.4734 -0.8519 -0.2239
vn 0.3638 -0.9261 -0.0997
vn 0.5232 -0.8448 -0.1122
vn 0.4838 -0.8731 -0.0601
vn 0.3994 -0.9145 -0.0641
vn 0.5233 -0.8448 -0.1123
vn 0.4971 -0.8321 -0.2460
vn 0.4954 -0.7022 -0.5113
vn 0.3581 -0.2043 -0.9111
vn 0.3918 -0.8113 -0.4340
vn 0.3995 -0.8863 -0.2343
vn 0.0851 -0.9870 -0.1365
vn 0.1624 -0.8483 -0.5041
vn 0.1668 -0.9406 -0.2955
vn 0.3765 -0.6785 -0.6307
vn 0.1460 -0.5279 -0.8366
vn 0.1540 -0.7014 -0.6959
vn 0.7037 -0.7105 -0.0040
vn 0.7047 -0.7037 -0.0902
vn 0.7057 -0.7027 -0.0903
vn 0.7042 -0.7042 -0.0900
vn 0.7080 -0.6787 -0.1951
vn 0.7078 -0.6790 -0.1951
vn 0.7046 -0.6387 -0.3092
vn 0.7081 -0.6351 -0.3086
vn 0.7049 -0.5775 -0.4118
vn 0.7027 -0.5806 -0.4111
vn 0.6902 -0.5119 -0.5114
vn 0.7050 -0.4988 -0.5042
vn 0.6951 -0.5077 -0.5089
vn 0.6851 -0.4211 -0.5944
vn 0.6871 -0.3230 -0.6509
vn 0.6799 -0.3292 -0.6553
vn 0.6953 -0.4190 -0.5839
vn 0.6922 -0.5071 -0.5135
vn 0.7089 -0.5759 -0.4072
vn 0.7094 -0.6346 -0.3067
vn 0.7074 -0.6792 -0.1955
vn 0.7055 -0.7030 -0.0898
vn -0.2910 -0.9101 0.2951
vn -0.0628 -0.9329 0.3547
vn -0.1845 -0.9245 0.3336
vn -0.5317 -0.7948 0.2924
vn -0.5482 -0.7744 0.3160
vn -0.3136 -0.8852 0.3436
vn -0.4220 -0.8481 0.3204
vn -0.4581 -0.8350 0.3048
vn -0.3155 -0.8140 0.4877
vn -0.1504 -0.9211 0.3591
vn 0.0601 -0.9331 0.3546
vn -0.6698 -0.6980 0.2534
vn -0.6627 -0.7042 0.2549
vn -0.6740 -0.7102 0.2033
vn -0.6690 -0.7149 0.2031
vn -0.6827 -0.6787 0.2708
vn -0.6066 -0.7368 0.2987
vn -0.6463 -0.7078 0.2851
vn -0.6568 -0.6997 0.2813
vn -0.6563 -0.7091 0.2578
vn -0.9440 -0.3246 0.0588
vn -0.8552 -0.5104 0.0903
vn -0.8319 -0.5336 0.1522
vn -0.8470 -0.5208 0.1064
vn -0.8744 -0.4806 0.0667
vn -0.7976 -0.5677 0.2040
vn -0.7391 -0.6257 0.2496
vn -0.8039 -0.5761 0.1478
vn -0.8297 -0.5368 0.1530
vn -0.9302 -0.3488 0.1146
vn -0.9298 -0.3496 0.1150
vn -0.9291 -0.3566 0.0979
vn -0.9301 -0.3488 0.1147
vn -0.9578 -0.2828 0.0511
vn -0.9500 -0.2780 0.1422
vn -0.9578 -0.2828 0.0512
vn -0.9578 -0.2829 0.0512
vn -0.9744 -0.2132 0.0708
vn -0.9747 -0.2080 0.0822
vn -0.9760 -0.2045 0.0747
vn -0.9776 -0.1989 0.0688
vn -0.9776 -0.1990 0.0690
vn -0.9716 -0.2236 0.0774
vn -0.9722 -0.2219 0.0752
vn -0.9716 -0.2237 0.0775
vn -0.9374 -0.3404 0.0741
vn -0.9304 -0.3484 0.1140
vn -0.8110 -0.5507 0.1975
vn -0.8318 -0.5348 0.1489
vn -0.2142 -0.3603 -0.9079
vn -0.5021 -0.2499 -0.8279
vn -0.4045 -0.3385 -0.8496
vn -0.4561 -0.1669 -0.8741
vn -0.3554 -0.1748 -0.9182
vn -0.4781 -0.2203 -0.8502
vn -0.2147 -0.1874 -0.9585
vn -0.3527 -0.1765 -0.9189
vn -0.0721 -0.1922 -0.9787
vn -0.2097 -0.1855 -0.9600
vn -0.2092 -0.1856 -0.9601
vn -0.3528 -0.1764 -0.9189
vn -0.4948 -0.1409 -0.8575
vn -0.3433 -0.5019 -0.7939
vn -0.6791 -0.3261 -0.6576
vn -0.6641 -0.3353 -0.6682
vn -0.6679 -0.2230 -0.7101
vn -0.6475 -0.2249 -0.7281
vn -0.6585 -0.2254 -0.7180
vn -0.6492 -0.1288 -0.7496
vn -0.6644 -0.1279 -0.7364
vn -0.6182 -0.1310 -0.7750
vn -0.5686 -0.1351 -0.8114
vn -0.6611 -0.2219 -0.7167
vn -0.9489 -0.3136 -0.0362
vn -0.9452 -0.3263 0.0086
vn -0.9166 -0.3676 -0.1571
vn -0.9106 -0.2788 -0.3050
vn -0.9166 -0.3263 -0.2309
vn -0.9111 -0.4029 -0.0865
vn -0.8271 -0.2826 -0.4859
vn -0.8093 -0.1770 -0.5600
vn -0.8505 -0.3511 -0.3917
vn -0.8375 -0.2485 -0.4867
vn -0.9744 -0.2189 0.0508
vn -0.9741 -0.2250 0.0223
vn -0.9737 -0.2277 0.0012
vn -0.9562 -0.2875 0.0555
vn -0.9737 -0.2276 0.0011
vn -0.9518 -0.2814 -0.1218
vn -0.9558 -0.2566 -0.1434
vn -0.9531 -0.2774 -0.1208
vn -0.9491 -0.2313 -0.2138
vn -0.9484 -0.2146 -0.2334
vn -0.9039 -0.2148 -0.3700
vn -0.9073 -0.3930 -0.1494
vn -0.9484 -0.2143 -0.2336
vn -0.9000 -0.2177 -0.3777
vn -0.9011 -0.2244 -0.3711
vn -0.8477 -0.1736 -0.5012
vn -0.7683 -0.1337 -0.6260
vn -0.7684 -0.1338 -0.6258
vn -0.8095 -0.1870 -0.5566
vn -0.8352 -0.2164 -0.5056
vn -0.7980 -0.1815 -0.5747
vn -0.6977 -0.1211 -0.7061
vn -0.8476 -0.1736 -0.5015
vn -0.9044 -0.2146 -0.3688
vn -0.9584 -0.2662 -0.1032
vn -0.9518 -0.2814 -0.1219
vn -0.9682 -0.2402 0.0697
vn -0.9037 -0.4280 0.0055
vn -0.9090 -0.2891 -0.3002
vn -0.8985 -0.2333 -0.3720
vn -0.9133 -0.3415 -0.2220
vn -0.9504 -0.3084 -0.0395
vn -0.9392 -0.3428 0.0209
vn -0.9534 -0.2874 -0.0920
vn 0.9392 -0.3428 0.0209
vn 0.9037 -0.4280 0.0055
vn 0.8318 -0.5348 0.1489
vn 0.8319 -0.5336 0.1522
vn 0.9736 -0.2201 0.0608
vn 0.9745 -0.2187 0.0509
vn 0.9776 -0.1988 0.0687
vn 0.9775 -0.1991 0.0691
vn 0.9740 -0.2153 0.0706
vn 0.9708 -0.2269 0.0783
vn 0.9743 -0.2090 0.0837
vn 0.9499 -0.2783 0.1419
vn 0.9374 -0.3404 0.0741
vn 0.9579 -0.2832 0.0473
vn 0.9352 -0.3400 0.0990
vn 0.9579 -0.2831 0.0472
vn 0.9354 -0.3397 0.0985
vn 0.9352 -0.3401 0.0991
vn 0.7568 -0.6111 0.2320
vn 0.8088 -0.5746 0.1254
vn 0.8052 -0.5581 0.2004
vn 0.8297 -0.5368 0.1529
vn 0.8191 -0.5450 0.1788
vn 0.8783 -0.4751 0.0528
vn 0.7569 -0.6110 0.2319
vn 0.6982 -0.6646 0.2662
vn 0.9356 -0.3391 0.0986
vn 0.9343 -0.3437 0.0942
vn 0.9579 -0.2833 0.0474
vn 0.9768 -0.2016 0.0717
vn 0.9707 -0.2270 0.0783
vn 0.8552 -0.5104 0.0903
vn 0.8470 -0.5208 0.1064
vn 0.9440 -0.3246 0.0588
vn 0.4926 -0.8334 0.2505
vn 0.4211 -0.8483 0.3211
vn 0.4580 -0.8350 0.3049
vn 0.5499 -0.7733 0.3155
vn 0.3155 -0.8139 0.4878
vn 0.5317 -0.7948 0.2924
vn 0.1752 -0.9255 0.3359
vn 0.2836 -0.9112 0.2987
vn 0.1504 -0.9211 0.3591
vn 0.3046 -0.8879 0.3447
vn 0.5317 -0.7949 0.2923
vn 0.6625 -0.7044 0.2550
vn 0.6558 -0.7095 0.2580
vn 0.6740 -0.7102 0.2033
vn 0.6689 -0.7151 0.2031
vn 0.6463 -0.7078 0.2851
vn 0.6563 -0.7000 0.2815
vn 0.6770 -0.6834 0.2732
vn 0.6116 -0.7333 0.2970
vn 0.6696 -0.6982 0.2534
vn 0.9534 -0.2874 -0.0920
vn 0.9504 -0.3084 -0.0395
vn 0.9133 -0.3415 -0.2220
vn 0.8985 -0.2333 -0.3720
vn 0.9090 -0.2891 -0.3002
vn 0.8505 -0.3511 -0.3917
vn 0.8375 -0.2485 -0.4867
vn 0.8271 -0.2826 -0.4859
vn 0.8133 -0.1860 -0.5513
vn 0.8019 -0.1800 -0.5697
vn 0.7332 -0.1148 -0.6702
vn 0.7334 -0.1148 -0.6700
vn 0.9061 -0.3062 -0.2921
vn 0.8150 -0.1799 -0.5508
vn 0.8889 -0.1946 -0.4147
vn 0.8145 -0.1800 -0.5516
vn 0.9435 -0.1918 -0.2700
vn 0.9435 -0.1916 -0.2702
vn 0.9436 -0.1916 -0.2700
vn 0.9509 -0.2285 -0.2086
vn 0.9570 -0.2724 -0.0999
vn 0.9538 -0.2611 -0.1490
vn 0.9722 -0.2305 -0.0403
vn 0.9722 -0.2312 -0.0380
vn 0.9263 -0.3337 -0.1750
vn 0.9723 -0.2309 -0.0375
vn 0.9719 -0.2278 0.0587
vn 0.9754 -0.2186 0.0265
vn 0.9645 -0.2595 0.0492
vn 0.9544 -0.2543 -0.1563
vn 0.9309 -0.3220 -0.1722
vn 0.8990 -0.2283 -0.3738
vn 0.8094 -0.1817 -0.5584
vn 0.8093 -0.1770 -0.5601
vn 0.9111 -0.4029 -0.0865
vn 0.9166 -0.3263 -0.2309
vn 0.9106 -0.2788 -0.3050
vn 0.9166 -0.3676 -0.1571
vn 0.9452 -0.3263 0.0086
vn 0.9489 -0.3136 -0.0362
vn 0.0719 -0.3683 -0.9269
vn 0.4045 -0.3385 -0.8496
vn 0.3433 -0.5019 -0.7939
vn 0.5021 -0.2499 -0.8279
vn 0.0824 -0.1928 -0.9778
vn -0.0640 -0.1896 -0.9798
vn 0.2260 -0.1881 -0.9558
vn 0.0826 -0.1890 -0.9785
vn 0.3672 -0.1788 -0.9128
vn 0.2265 -0.1837 -0.9565
vn 0.5013 -0.1404 -0.8538
vn 0.3682 -0.1735 -0.9134
vn 0.4572 -0.1688 -0.8732
vn 0.3554 -0.1743 -0.9183
vn 0.2147 -0.1841 -0.9592
vn 0.0720 -0.1891 -0.9793
vn -0.0643 -0.1896 -0.9798
vn 0.4263 -0.3921 -0.8152
vn -0.0719 -0.3683 -0.9269
vn 0.2142 -0.3603 -0.9079
vn 0.6640 -0.3354 -0.6683
vn 0.6791 -0.3261 -0.6576
vn 0.6586 -0.2254 -0.7179
vn 0.6612 -0.2219 -0.7167
vn 0.6679 -0.2229 -0.7101
vn 0.6676 -0.1277 -0.7335
vn 0.6175 -0.1310 -0.7756
vn 0.5677 -0.1352 -0.8121
vn 0.6493 -0.1288 -0.7496
vn 0.6476 -0.2249 -0.7280
s 1
usemtl material_0
f 1//1 2//1 3//1
f 4//2 5//2 6//2
f 7//3 8//3 9//3
f 10//4 11//4 12//4
f 13//5 14//5 15//5
f 16//6 17//6 18//6
f 19//7 20//7 21//7
f 22//8 23//8 24//8
f 25//9 26//9 27//9
f 28//10 29//10 30//10
f 31//11 32//11 33//11
f 34//11 35//11 36//11
f 37//12 38//12 39//12
f 40//13 41//13 42//13
f 43//14 44//14 45//14
f 46//15 47//15 48//15
f 49//16 50//16 51//16
f 52//17 53//17 54//17
f 55//18 56//18 57//18
f 58//19 59//19 60//19
f 61//20 62//20 63//20
f 64//21 65//21 66//21
f 67//22 68//22 69//22
f 70//23 71//23 72//23
f 73//24 74//24 75//24
f 76//25 77//25 78//25
f 79//26 80//26 81//26
f 82//27 83//27 84//27
f 85//28 86//28 87//28
f 88//29 89//29 90//29
f 91//30 92//30 93//30
f 94//31 95//31 96//31
f 97//32 98//32 99//32
f 100//33 101//33 102//33
f 103//34 104//34 105//34
f 106//35 107//35 108//35
f 109//36 110//36 111//36
f 112//37 113//37 114//37
f 115//38 116//38 117//38
f 118//39 119//39 120//39
f 121//40 122//40 123//40
f 124//41 125//41 126//41
f 127//42 128//42 129//42
f 130//43 131//43 132//43
f 133//44 134//44 135//44
f 136//45 137//45 138//45
f 139//46 140//46 141//46
f 142//47 143//47 144//47
f 145//48 146//48 147//48
f 148//49 149//49 150//49
f 151//50 152//50 153//50
f 154//51 155//51 156//51
f 157//52 158//52 159//52
f 160//53 161//53 162//53
f 163//54 164//54 165//54
f 166//52 167//52 168//52
f 169//55 170//55 171//55
f 172//56 173//56 174//56
f 175//57 176//57 177//57
f 178//58 179//58 180//58
f 181//59 182//59 183//59
f 184//60 185//60 186//60
f 187//61 188//61 189//61
f 190//62 191//62 192//62
f 193//63 194//63 195//63
f 196//64 197//64 198//64
f 199//65 200//65 201//65
f 202//66 203//66 204//66
f 205//67 206//67 207//67
f 208//68 209//68 210//68
f 211//69 212//69 213//69
f 214//70 215//70 216//70
f 217//71 218//71 219//71
f 220//72 221//72 222//72
f 223//73 224//73 225//73
f 226//74 227//74 228//74
f 229//75 230//75 231//75
f 232//76 233//76 234//76
f 235//77 236//77 237//77
f 238//78 239//78 240//78
f 241//79 242//79 243//79
f 244//80 245//80 246//80
f 247//81 248//81 249//81
f 250//82 251//82 252//82
f 253//83 254//83 255//83
f 256//84 257//84 258//84
f 259//85 260//85 261//85
f 262//86 263//86 264//86
f 265//87 266//87 267//87
f 268//88 269//88 270//88
f 271//89 272//89 273//89
f 274//90 275//90 276//90
f 277//91 278//91 279//91
f 280//92 281//92 282//92
f 283//93 284//93 285//93
f 286//94 287//94 288//94
f 289//95 290//95 291//95
f 292//96 293//96 294//96
f 295//97 296//97 297//97
f 298//98 299//99 300//99
f 301//100 302//100 303//100
f 304//101 305//101 306//101
f 307//102 308//102 309//102
f 310//103 311//103 312//103
f 313//104 314//104 315//104
f 316//105 317//105 318//105
f 319//106 320//106 321//106
f 322//107 323//107 324//107
f 325//108 326//108 327//108
f 328//109 329//109 330//109
f 331//110 332//110 333//110
f 334//111 335//111 336//111
f 337//112 338//112 339//112
f 340//113 341//113 342//113
f 343//114 344//114 345//114
f 346//115 347//115 348//115
f 349//116 350//116 351//116
f 352//117 353//117 354//117
f 355//118 356//118 357//118
f 358//119 359//119 360//119
f 361//120 362//120 363//120
f 364//121 365//121 366//121
f 367//122 368//122 369//122
f 370//123 371//123 372//123
f 373//124 374//124 375//124
f 376//125 377//125 378//125
f 379//126 380//126 381//126
f 382//127 383//127 384//127
f 385//128 386//128 387//128
f 388//129 389//129 390//129
f 391//130 392//130 393//130
f 394//131 395//131 396//131
f 397//132 398//132 399//132
f 400//133 401//133 402//133
f 403//134 404//134 405//134
f 406//135 407//135 408//135
f 409//136 410//136 411//136
f 412//137 413//137 414//137
f 415//138 416//138 417//138
f 418//139 419//139 420//139
f 421//140 422//140 423//140
f 424//141 425//141 426//141
f 427//142 428//142 429//142
f 430//143 431//143 432//143
f 433//144 434//144 435//144
f 436//145 437//145 438//145
f 439//146 440//146 441//146
f 442//147 443//147 444//147
f 445//148 446//148 447//148
f 448//149 449//149 450//149
f 451//150 452//150 453//150
f 454//151 455//151 456//151
f 457//152 458//152 459//152
f 460//153 461//153 462//153
f 463//154 464//154 465//154
f 466//155 467//155 468//155
f 469//156 470//156 471//156
f 472//157 473//157 474//157
f 475//158 476//158 477//158
f 478//159 479//159 480//159
f 481//160 482//160 483//160
f 484//161 485//161 486//161
f 487//162 488//162 489//162
f 490//163 491//163 492//163
f 493//164 494//164 495//164
f 496//165 497//165 498//165
f 499//166 500//166 501//166
f 502//167 503//167 504//167
f 505//168 506//168 507//168
f 508//169 509//169 510//169
f 511//170 512//170 513//170
f 514//171 515//171 516//171
f 517//172 518//172 519//172
f 520//173 521//173 522//173
f 523//170 524//170 525//170
f 526//174 527//174 528//174
f 529//175 530//175 531//175
f 532//176 533//176 534//176
f 535//177 536//177 537//177
f 538//178 539//178 540//178
f 541//179 542//179 543//179
f 544//180 545//180 546//180
f 547//181 548//181 549//181
f 550//182 551//182 552//182
f 553//183 554//183 555//183
f 556//184 557//184 558//184
f 559//185 560//185 561//185
f 562//186 563//186 564//186
f 565//187 566//187 567//187
f 568//188 569//188 570//188
f 571//189 572//189 573//189
f 574//190 575//190 576//190
f 577//191 578//191 579//191
f 580//192 581//192 582//192
f 583//193 584//193 585//193
f 586//194 587//194 588//194
f 589//195 590//195 591//195
f 592//196 593//196 594//196
f 595//197 596//197 597//197
f 598//198 599//198 600//198
f 601//199 602//199 603//199
f 604//200 605//200 606//200
f 607//201 608//201 609//201
f 610//202 611//202 612//202
f 613//203 614//203 615//203
f 616//204 617//204 618//204
f 619//205 620//205 621//205
f 622//206 623//206 624//206
f 625//207 626//207 627//207
f 628//208 629//208 630//208
f 631//209 632//209 633//209
f 634//210 635//210 636//210
f 637//211 638//211 639//211
f 640//212 641//212 642//212
f 643//213 644//213 645//213
f 646//214 647//214 648//214
f 649//215 650//215 651//215
f 652//216 653//216 654//216
f 655//217 656//217 657//217
f 658//218 659//218 660//218
f 661//219 662//219 663//219
f 664//220 665//220 666//220
f 667//221 668//221 669//221
f 670//222 671//222 672//222
f 673//223 674//223 675//223
f 676//224 677//224 678//224
f 679//220 680//220 681//220
f 682//225 683//225 684//225
f 685//226 686//226 687//226
f 688//227 689//227 690//227
f 691//228 692//228 693//228
f 694//229 695//229 696//229
f 697//230 698//230 699//230
f 700//231 701//231 702//231
f 703//232 704//232 705//232
f 706//233 707//233 708//233
f 709//234 710//234 711//234
f 712//235 713//235 714//235
f 715//236 716//236 717//236
f 718//237 719//237 720//237
f 721//238 722//238 723//238
f 724//239 725//239 726//239
f 727//240 728//240 729//240
f 730//241 731//241 732//241
f 733//242 734//242 735//242
f 736//243 737//243 738//243
f 739//244 740//244 741//244
f 742//245 743//245 744//245
f 745//243 746//243 747//243
f 748//246 749//246 750//246
f 751//247 752//247 753//247
f 754//248 755//248 756//248
f 757//249 758//249 759//249
f 760//250 761//250 762//250
f 763//251 764//251 765//251
f 766//252 767//252 768//252
f 769//253 770//253 771//253
f 772//254 773//254 774//254
f 775//255 776//255 777//255
f 778//256 779//256 780//256
f 781//257 782//257 783//257
f 784//258 785//258 786//258
f 787//259 788//259 789//259
f 790//260 791//260 792//260
f 793//261 794//261 795//261
f 796//262 797//262 798//262
f 799//252 800//252 801//252
f 802//263 803//263 804//263
f 805//264 806//264 807//264
f 808//265 809//265 810//265
f 811//266 812//266 813//266
f 814//267 815//267 816//267
f 817//268 818//268 819//268
f 820//269 821//269 822//269
f 823//267 824//267 825//267
f 826//270 827//270 828//270
f 829//271 830//271 831//271
f 832//272 833//272 834//272
f 835//273 836//273 837//273
f 838//274 839//274 840//274
f 841//275 842//275 843//275
f 844//276 845//276 846//276
f 847//277 848//277 849//277
f 850//278 851//278 852//278
f 853//279 854//279 855//279
f 856//280 857//280 858//280
f 859//281 860//281 861//281
f 862//282 863//282 864//282
f 865//283 866//283 867//283
f 868//284 869//284 870//284
f 871//285 872//285 873//285
f 874//286 875//286 876//286
f 877//287 878//287 879//287
f 880//288 881//288 882//288
f 883//289 884//289 885//289
f 886//290 887//290 888//290
f 889//291 890//291 891//291
f 892//292 893//292 894//292
f 895//293 896//293 897//293
f 898//294 899//294 900//294
f 901//295 902//295 903//295
f 904//296 905//296 906//296
f 907//297 908//297 909//297
f 910//298 911//298 912//298
f 913//299 914//299 915//299
f 916//300 917//300 918//300
f 919//301 920//301 921//301
f 922//302 923//302 924//302
f 925//303 926//303 927//303
f 928//304 929//304 930//304
f 931//305 932//305 933//305
f 934//306 935//306 936//306
f 937//307 938//307 939//307
f 940//308 941//308 942//308
f 943//309 944//309 945//309
f 946//310 947//310 948//310
f 949//311 950//311 951//311
f 952//312 953//312 954//312
f 955//313 956//313 957//313
f 958//314 959//314 960//314
f 961//315 962//315 963//315
f 964//316 965//316 966//316
f 967//317 968//317 969//317
f 970//318 971//318 972//318
f 973//319 974//319 975//319
f 976//320 977//320 978//320
f 979//321 980//321 981//321
f 982//322 983//322 984//322
f 985//323 986//323 987//323
f 988//324 989//324 990//324
f 991//325 992//325 993//325
f 994//326 995//326 996//326
f 997//299 998//299 999//299
f 1000//327 1001//327 1002//327
f 1003//328 1004//328 1005//328
f 1006//329 1007//329 1008//329
f 1009//330 1010//330 1011//330
f 1012//331 1013//331 1014//331
f 1015//332 1016//332 1017//332
f 1018//333 1019//333 1020//333
f 1021//334 1022//334 1023//334
f 1024//335 1025//335 1026//335
f 1027//336 1028//336 1029//336
f 1030//337 1031//337 1032//337
f 1033//338 1034//338 1035//338
f 1036//339 1037//339 1038//339
f 1039//340 1040//340 1041//340
f 1042//341 1043//341 1044//341
f 1045//342 1046//342 1047//342
f 1048//343 1049//343 1050//343
f 1051//344 1052//344 1053//344
f 1054//345 1055//345 1056//345
f 1057//346 1058//346 1059//346
f 1060//347 1061//347 1062//347
f 1063//347 1064//347 1065//347
f 1066//348 1067//348 1068//348
f 1069//349 1070//349 1071//349
f 1072//350 1073//350 1074//350
f 1075//351 1076//351 1077//351
f 1078//352 1079//352 1080//352
f 1081//353 1082//353 1083//353
f 1084//354 1085//354 1086//354
f 1087//355 1088//355 1089//355
f 1090//356 1091//356 1092//356
f 1093//357 1094//357 1095//357
f 1096//358 1097//358 1098//358
f 1099//359 1100//359 1101//359
f 1102//360 1103//360 1104//360
f 1105//361 1106//361 1107//361
f 1108//362 1109//362 1110//362
f 1111//363 1112//363 1113//363
f 1114//364 1115//364 1116//364
f 1117//365 1118//365 1119//365
f 1120//366 1121//366 1122//366
f 1123//367 1124//367 1125//367
f 1126//368 1127//368 1128//368
f 1129//369 1130//369 1131//369
f 1132//370 1133//370 1134//370
f 1135//371 1136//371 1137//371
f 1138//372 1139//372 1140//372
f 1141//373 1142//373 1143//373
f 1144//374 1145//374 1146//374
f 1147//375 1148//375 1149//375
f 1150//376 1151//376 1152//376
f 1153//377 1154//377 1155//377
f 1156//378 1157//378 1158//378
f 1159//379 1160//379 1161//379
f 1162//380 1163//380 1164//380
f 1165//381 1166//381 1167//381
f 1168//382 1169//382 1170//382
f 1171//383 1172//383 1173//383
f 1174//384 1175//384 1176//384
f 1177//385 1178//385 1179//385
f 1180//386 1181//386 1182//386
f 1183//387 1184//387 1185//387
f 1186//388 1187//388 1188//388
f 1189//389 1190//389 1191//389
f 1192//390 1193//390 1194//390
f 1195//391 1196//391 1197//391
f 1198//392 1199//392 1200//392
f 1201//393 1202//393 1203//393
f 1204//394 1205//394 1206//394
f 1207//395 1208//395 1209//395
f 1210//396 1211//396 1212//396
f 1213//397 1214//397 1215//397
f 1216//398 1217//398 1218//398
f 1219//399 1220//399 1221//399
f 1222//400 1223//400 1224//400
f 1225//401 1226//401 1227//401
f 1228//402 1229//402 1230//402
f 1231//403 1232//403 1233//403
f 1234//404 1235//404 1236//404
f 1237//405 1238//405 1239//405
f 1240//406 1241//406 1242//406
f 1243//407 1244//407 1245//407
f 1246//408 1247//408 1248//408
f 1249//409 1250//409 1251//409
f 1252//410 1253//410 1254//410
f 1255//411 1256//411 1257//411
f 1258//412 1259//412 1260//412
f 1261//413 1262//413 1263//413
f 1264//414 1265//414 1266//414
f 1267//415 1268//415 1269//415
f 1270//416 1271//416 1272//416
f 1273//417 1274//417 1275//417
f 1276//418 1277//418 1278//418
f 1279//419 1280//419 1281//419
f 1282//420 1283//420 1284//420
f 1285//421 1286//421 1287//421
f 1288//394 1289//394 1290//394
f 1291//422 1292//422 1293//422
f 1294//423 1295//423 1296//423
f 1297//424 1298//424 1299//424
f 1300//425 1301//425 1302//425
f 1303//426 1304//426 1305//426
f 1306//427 1307//427 1308//427
f 1309//428 1310//428 1311//428
f 1312//429 1313//429 1314//429
f 1315//430 1316//430 1317//430
f 1318//431 1319//431 1320//431
f 1321//432 1322//432 1323//432
f 1324//433 1325//433 1326//433
f 1327//434 1328//434 1329//434
f 1330//435 1331//435 1332//435
f 1333//436 1334//436 1335//436
f 1336//437 1337//437 1338//437
f 1339//438 1340//438 1341//438
f 1342//439 1343//439 1344//439
f 1345//440 1346//440 1347//440
f 1348//431 1349//431 1350//431
f 1351//441 1352//441 1353//441
f 1354//442 1355//442 1356//442
f 1357//443 1358//443 1359//443
f 1360//444 1361//444 1362//444
f 1363//445 1364//445 1365//445
f 1366//446 1367//446 1368//446
f 1369//447 1370//447 1371//447
f 1372//448 1373//448 1374//448
f 1375//449 1376//449 1377//449
f 1378//450 1379//450 1380//450
f 1381//451 1382//451 1383//451
f 1384//452 1385//452 1386//452
f 1387//453 1388//453 1389//453
f 1390//454 1391//454 1392//454
f 1393//455 1394//455 1395//455
f 1396//456 1397//456 1398//456
f 1399//457 1400//457 1401//457
