# Blender 4.5.10 LTS
# www.blender.org
mtllib iiwa_link_4_vis_2.mtl
o node
v 0.053580 -0.065005 -0.141746
v 0.065975 -0.039591 -0.141746
v 0.061113 -0.052949 -0.108746
v 0.061113 -0.052949 -0.108746
v 0.057662 -0.059175 -0.108746
v 0.053580 -0.065005 -0.141746
v 0.065975 -0.039591 -0.141746
v 0.062589 -0.049710 -0.108746
v 0.061113 -0.052949 -0.108746
v 0.065975 -0.039591 -0.141746
v 0.063894 -0.046397 -0.108746
v 0.062589 -0.049710 -0.108746
v 0.065975 -0.039591 -0.141746
v 0.065024 -0.043021 -0.108746
v 0.063894 -0.046397 -0.108746
v 0.065975 -0.039591 -0.141746
v 0.065975 -0.039591 -0.108746
v 0.065024 -0.043021 -0.108746
v 0.066962 -0.011332 -0.141746
v 0.065361 -0.004397 -0.108746
v 0.066252 -0.007843 -0.108746
v 0.066962 -0.011332 -0.141746
v 0.064290 -0.001001 -0.108746
v 0.065361 -0.004397 -0.108746
v 0.066962 -0.011332 -0.141746
v 0.056370 0.014885 -0.141746
v 0.063044 0.002333 -0.108746
v 0.063044 0.002333 -0.108746
v 0.064290 -0.001001 -0.108746
v 0.066962 -0.011332 -0.141746
v 0.056370 0.014885 -0.141746
v 0.060035 0.008784 -0.108746
v 0.063044 0.002333 -0.108746
v 0.056370 0.014885 -0.141746
v 0.056370 0.014885 -0.108746
v 0.060035 0.008784 -0.108746
v -0.061123 0.006669 -0.141746
v -0.067964 -0.020767 -0.141746
v -0.067092 -0.012033 -0.108746
v -0.067964 -0.020767 -0.141746
v -0.067964 -0.020767 -0.108746
v -0.067092 -0.012033 -0.108746
v -0.067964 -0.020767 -0.141746
v -0.067839 -0.027883 -0.108746
v -0.067995 -0.024327 -0.108746
v -0.067964 -0.020767 -0.141746
v -0.067498 -0.031427 -0.108746
v -0.067839 -0.027883 -0.108746
v -0.067964 -0.020767 -0.141746
v -0.063054 -0.048613 -0.141746
v -0.066972 -0.034948 -0.108746
v -0.066972 -0.034948 -0.108746
v -0.067498 -0.031427 -0.108746
v -0.067964 -0.020767 -0.141746
v -0.063054 -0.048613 -0.141746
v -0.066262 -0.038437 -0.108746
v -0.066972 -0.034948 -0.108746
v -0.063054 -0.048613 -0.141746
v -0.065371 -0.041883 -0.108746
v -0.066262 -0.038437 -0.108746
v -0.063054 -0.048613 -0.141746
v -0.064300 -0.045279 -0.108746
v -0.065371 -0.041883 -0.108746
v -0.063054 -0.048613 -0.141746
v -0.063054 -0.048613 -0.108746
v -0.064300 -0.045279 -0.108746
v -0.063054 -0.048613 -0.141746
v -0.047242 -0.072055 -0.141746
v -0.056380 -0.061165 -0.108746
v -0.056380 -0.061165 -0.108746
v -0.060045 -0.055064 -0.108746
v -0.063054 -0.048613 -0.141746
v -0.047242 -0.072055 -0.141746
v -0.052096 -0.066850 -0.108746
v -0.056380 -0.061165 -0.108746
v -0.047242 -0.072055 -0.141746
v -0.049737 -0.069516 -0.108746
v -0.052096 -0.066850 -0.108746
v -0.047242 -0.072055 -0.141746
v -0.047242 -0.072055 -0.108746
v -0.049737 -0.069516 -0.108746
v -0.043715 0.028951 -0.141746
v -0.061123 0.006669 -0.141746
v -0.047997 0.025035 -0.133362
v -0.061123 0.006669 -0.108746
v -0.046135 0.026820 -0.127261
v -0.047997 0.025035 -0.133362
v -0.061123 0.006669 -0.108746
v -0.045482 0.027386 -0.125217
v -0.046135 0.026820 -0.127261
v -0.061123 0.006669 -0.108746
v -0.043715 0.028951 -0.108746
v -0.043698 0.028933 -0.119633
v -0.043698 0.028933 -0.119633
v -0.045482 0.027386 -0.125217
v -0.061123 0.006669 -0.108746
v -0.047997 0.025035 -0.133362
v -0.061123 0.006669 -0.141746
v -0.061123 0.006669 -0.108746
v 0.022445 -0.087232 -0.121083
v 0.030824 -0.083701 -0.125234
v 0.031897 -0.083138 -0.122367
v 0.023652 -0.086892 -0.130240
v 0.027115 -0.085498 -0.133362
v 0.029304 -0.084499 -0.129295
v 0.030824 -0.083701 -0.125234
v 0.022454 -0.087276 -0.129187
v 0.023652 -0.086892 -0.130240
v 0.022454 -0.087276 -0.129187
v 0.030824 -0.083701 -0.125234
v 0.022445 -0.087232 -0.121083
v 0.022445 -0.087232 -0.121083
v 0.020134 -0.088089 -0.123056
v 0.022454 -0.087276 -0.129187
v 0.020134 -0.088089 -0.123056
v 0.017743 -0.088783 -0.125049
v 0.022454 -0.087276 -0.129187
v 0.029304 -0.084499 -0.129295
v 0.030824 -0.083701 -0.125234
v 0.023652 -0.086892 -0.130240
v 0.031897 -0.083138 -0.122367
v 0.031919 -0.083180 -0.108746
v 0.027115 -0.085498 -0.117095
v 0.027115 -0.085498 -0.117095
v 0.025468 -0.086189 -0.108746
v 0.022134 -0.087435 -0.108746
v 0.022134 -0.087435 -0.108746
v 0.020237 -0.088057 -0.117095
v 0.027115 -0.085498 -0.117095
v 0.027115 -0.085498 -0.117095
v 0.028733 -0.084769 -0.108746
v 0.025468 -0.086189 -0.108746
v 0.027115 -0.085498 -0.117095
v 0.031919 -0.083180 -0.108746
v 0.028733 -0.084769 -0.108746
v 0.018738 -0.088506 -0.108746
v 0.011028 -0.090239 -0.117095
v 0.017700 -0.088795 -0.119338
v 0.011028 -0.090239 -0.117095
v 0.016839 -0.088997 -0.120089
v 0.017700 -0.088795 -0.119338
v 0.011028 -0.090239 -0.117095
v 0.011028 -0.090239 -0.123072
v 0.013420 -0.089802 -0.123072
v 0.013420 -0.089802 -0.123072
v 0.016839 -0.088997 -0.120089
v 0.011028 -0.090239 -0.117095
v 0.017700 -0.088795 -0.119338
v 0.020237 -0.088057 -0.117095
v 0.018738 -0.088506 -0.108746
v 0.005879 -0.090885 -0.117095
v 0.008282 -0.090633 -0.108746
v 0.006513 -0.090827 -0.108746
v 0.011028 -0.090239 -0.117095
v 0.011803 -0.090107 -0.108746
v 0.008282 -0.090633 -0.108746
v 0.008282 -0.090633 -0.108746
v 0.005879 -0.090885 -0.117095
v 0.011028 -0.090239 -0.117095
v 0.011028 -0.090239 -0.117095
v 0.015292 -0.089397 -0.108746
v 0.011803 -0.090107 -0.108746
v 0.011028 -0.090239 -0.117095
v 0.018738 -0.088506 -0.108746
v 0.015292 -0.089397 -0.108746
v 0.006513 -0.090827 -0.108746
v 0.004738 -0.090974 -0.108746
v 0.005879 -0.090885 -0.117095
v 0.004738 -0.090974 -0.108746
v 0.004738 -0.090974 -0.141746
v 0.005879 -0.090885 -0.133362
v 0.004738 -0.090974 -0.141746
v 0.027115 -0.085498 -0.133362
v 0.020237 -0.088057 -0.133362
v 0.020237 -0.088057 -0.133362
v 0.011028 -0.090239 -0.133362
v 0.004738 -0.090974 -0.141746
v 0.004738 -0.090974 -0.141746
v 0.027743 -0.085221 -0.133362
v 0.027115 -0.085498 -0.133362
v 0.027743 -0.085221 -0.133362
v 0.029304 -0.084499 -0.129295
v 0.027115 -0.085498 -0.133362
v 0.011028 -0.090239 -0.133362
v 0.005879 -0.090885 -0.133362
v 0.004738 -0.090974 -0.141746
v 0.011028 -0.090239 -0.133362
v 0.015040 -0.089455 -0.128679
v 0.013283 -0.089829 -0.127116
v 0.011028 -0.090239 -0.133362
v 0.016767 -0.088990 -0.130235
v 0.015040 -0.089455 -0.128679
v 0.011028 -0.090239 -0.133362
v 0.020237 -0.088057 -0.133362
v 0.016767 -0.088990 -0.130235
v 0.013283 -0.089829 -0.127116
v 0.011028 -0.090239 -0.127116
v 0.011028 -0.090239 -0.133362
v 0.005879 -0.090885 -0.133362
v 0.005879 -0.090885 -0.117095
v 0.004738 -0.090974 -0.108746
v 0.031919 -0.083180 -0.141746
v 0.031919 -0.083180 -0.133362
v 0.027743 -0.085221 -0.133362
v 0.027743 -0.085221 -0.133362
v 0.004738 -0.090974 -0.141746
v 0.031919 -0.083180 -0.141746
v 0.022134 -0.087435 -0.108746
v 0.018738 -0.088506 -0.108746
v 0.020237 -0.088057 -0.117095
v 0.031919 -0.083180 -0.141746
v 0.053580 -0.065005 -0.141746
v 0.033105 -0.082535 -0.133362
v 0.043090 -0.075739 -0.131935
v 0.042622 -0.076120 -0.130508
v 0.034154 -0.081938 -0.130508
v 0.034154 -0.081938 -0.130508
v 0.033762 -0.082164 -0.131578
v 0.043090 -0.075739 -0.131935
v 0.033630 -0.082238 -0.131936
v 0.043556 -0.075355 -0.133362
v 0.043208 -0.075644 -0.132292
v 0.043208 -0.075644 -0.132292
v 0.043090 -0.075739 -0.131935
v 0.033630 -0.082238 -0.131936
v 0.033762 -0.082164 -0.131578
v 0.033630 -0.082238 -0.131936
v 0.043090 -0.075739 -0.131935
v 0.053580 -0.065005 -0.141746
v 0.047987 -0.071314 -0.133362
v 0.043556 -0.075355 -0.133362
v 0.043556 -0.075355 -0.133362
v 0.033105 -0.082535 -0.133362
v 0.053580 -0.065005 -0.141746
v 0.033630 -0.082238 -0.131936
v 0.033105 -0.082535 -0.133362
v 0.043556 -0.075355 -0.133362
v 0.048910 -0.070377 -0.108746
v 0.046371 -0.072872 -0.108746
v 0.042877 -0.075914 -0.117095
v 0.042877 -0.075914 -0.117095
v 0.044198 -0.074813 -0.121163
v 0.048910 -0.070377 -0.108746
v 0.044198 -0.074813 -0.121163
v 0.045459 -0.073649 -0.125221
v 0.048910 -0.070377 -0.108746
v 0.053580 -0.065005 -0.108746
v 0.048910 -0.070377 -0.108746
v 0.047987 -0.071314 -0.133362
v 0.047987 -0.071314 -0.133362
v 0.053580 -0.065005 -0.141746
v 0.053580 -0.065005 -0.108746
v 0.042877 -0.075914 -0.117095
v 0.043705 -0.075231 -0.108746
v 0.038020 -0.079515 -0.108746
v 0.038020 -0.079515 -0.108746
v 0.033870 -0.082102 -0.117095
v 0.042877 -0.075914 -0.117095
v 0.042877 -0.075914 -0.117095
v 0.046371 -0.072872 -0.108746
v 0.043705 -0.075231 -0.108746
v 0.038020 -0.079515 -0.108746
v 0.031919 -0.083180 -0.108746
v 0.033870 -0.082102 -0.117095
v 0.031919 -0.083180 -0.108746
v 0.031897 -0.083138 -0.122367
v 0.033870 -0.082102 -0.117095
v 0.045459 -0.073649 -0.125221
v 0.047987 -0.071314 -0.133362
v 0.048910 -0.070377 -0.108746
v 0.067995 -0.023140 -0.141746
v 0.066962 -0.011332 -0.141746
v 0.067082 -0.012033 -0.108746
v 0.066962 -0.011332 -0.141746
v 0.066962 -0.011332 -0.108746
v 0.067082 -0.012033 -0.108746
v 0.065975 -0.039591 -0.141746
v 0.067994 -0.023440 -0.141746
v 0.067470 -0.031576 -0.108746
v 0.067470 -0.031576 -0.108746
v 0.066843 -0.035606 -0.108746
v 0.065975 -0.039591 -0.141746
v 0.067994 -0.023440 -0.141746
v 0.067854 -0.027516 -0.108746
v 0.067470 -0.031576 -0.108746
v 0.067994 -0.023440 -0.141746
v 0.067994 -0.023440 -0.108746
v 0.067854 -0.027516 -0.108746
v -0.026012 -0.085873 -0.121052
v -0.027209 -0.085461 -0.128171
v -0.026020 -0.085917 -0.129236
v -0.026012 -0.085873 -0.121052
v -0.030587 -0.083875 -0.125049
v -0.027209 -0.085461 -0.128171
v -0.023241 -0.086982 -0.131727
v -0.023763 -0.086854 -0.119087
v -0.026012 -0.085873 -0.121052
v -0.023241 -0.086982 -0.131727
v -0.023260 -0.087032 -0.118660
v -0.023763 -0.086854 -0.119087
v -0.023262 -0.087039 -0.141746
v 0.004738 -0.090974 -0.141746
v -0.021415 -0.087681 -0.133362
v 0.001351 -0.091126 -0.117095
v 0.004738 -0.090974 -0.108746
v -0.000005 -0.091135 -0.108746
v -0.014665 -0.089541 -0.117095
v -0.014665 -0.089541 -0.126616
v -0.003837 -0.091032 -0.117095
v -0.003837 -0.091032 -0.117095
v -0.000005 -0.091135 -0.108746
v -0.014665 -0.089541 -0.117095
v -0.000005 -0.091135 -0.108746
v -0.021415 -0.087681 -0.117095
v -0.019686 -0.088230 -0.117095
v -0.019686 -0.088230 -0.117095
v -0.014665 -0.089541 -0.117095
v -0.000005 -0.091135 -0.108746
v -0.004908 -0.090950 -0.128270
v -0.003925 -0.091027 -0.127611
v -0.003837 -0.091032 -0.126616
v -0.003837 -0.091032 -0.117095
v -0.011822 -0.090105 -0.129489
v -0.006727 -0.090807 -0.129489
v -0.003837 -0.091032 -0.117095
v -0.013461 -0.089789 -0.128417
v -0.012800 -0.089924 -0.129404
v -0.012800 -0.089924 -0.129404
v -0.011822 -0.090105 -0.129489
v -0.003837 -0.091032 -0.117095
v -0.003837 -0.091032 -0.117095
v -0.014665 -0.089541 -0.126616
v -0.013461 -0.089789 -0.128417
v -0.006727 -0.090807 -0.129489
v -0.004908 -0.090950 -0.128270
v -0.003837 -0.091032 -0.117095
v -0.003837 -0.091032 -0.126616
v -0.003837 -0.091032 -0.117095
v -0.004908 -0.090950 -0.128270
v -0.000005 -0.091135 -0.108746
v -0.003837 -0.091032 -0.117095
v 0.001351 -0.091126 -0.117095
v -0.019686 -0.088230 -0.127693
v -0.021415 -0.087681 -0.117095
v -0.023260 -0.087032 -0.118660
v -0.019686 -0.088230 -0.127693
v -0.019686 -0.088230 -0.117095
v -0.021415 -0.087681 -0.117095
v -0.023241 -0.086982 -0.131727
v -0.019546 -0.088272 -0.129550
v -0.019686 -0.088230 -0.127693
v -0.019546 -0.088272 -0.129550
v -0.023241 -0.086982 -0.131727
v -0.021415 -0.087681 -0.133362
v -0.021415 -0.087681 -0.133362
v -0.017518 -0.088846 -0.132541
v -0.017735 -0.088785 -0.132221
v -0.021415 -0.087681 -0.133362
v -0.017735 -0.088785 -0.132221
v -0.019546 -0.088272 -0.129550
v -0.021415 -0.087681 -0.133362
v 0.004738 -0.090974 -0.141746
v -0.012948 -0.089897 -0.133664
v 0.004738 -0.090974 -0.141746
v -0.002608 -0.091090 -0.133335
v -0.005586 -0.090911 -0.133664
v -0.005586 -0.090911 -0.133664
v -0.012948 -0.089897 -0.133664
v 0.004738 -0.090974 -0.141746
v 0.004738 -0.090974 -0.141746
v 0.000222 -0.091140 -0.131542
v -0.000713 -0.091123 -0.132134
v -0.000713 -0.091123 -0.132134
v -0.002608 -0.091090 -0.133335
v 0.004738 -0.090974 -0.141746
v 0.004738 -0.090974 -0.108746
v 0.001351 -0.091126 -0.117095
v 0.001351 -0.091126 -0.127693
v 0.001351 -0.091126 -0.127693
v 0.004738 -0.090974 -0.141746
v 0.004738 -0.090974 -0.108746
v 0.001351 -0.091126 -0.127693
v 0.000222 -0.091140 -0.131542
v 0.004738 -0.090974 -0.141746
v -0.012948 -0.089897 -0.133664
v -0.017518 -0.088846 -0.132541
v -0.021415 -0.087681 -0.133362
v -0.023260 -0.087032 -0.118660
v -0.023241 -0.086982 -0.131727
v -0.019686 -0.088230 -0.127693
v -0.023262 -0.087039 -0.108746
v -0.023234 -0.086967 -0.117095
v -0.021415 -0.087681 -0.117095
v -0.021415 -0.087681 -0.117095
v -0.017605 -0.088823 -0.108746
v -0.020453 -0.087993 -0.108746
v -0.021415 -0.087681 -0.117095
v -0.014723 -0.089528 -0.108746
v -0.017605 -0.088823 -0.108746
v -0.021415 -0.087681 -0.117095
v -0.011813 -0.090107 -0.108746
v -0.014723 -0.089528 -0.108746
v -0.021415 -0.087681 -0.117095
v -0.008881 -0.090558 -0.108746
v -0.011813 -0.090107 -0.108746
v -0.021415 -0.087681 -0.117095
v -0.007408 -0.090736 -0.108746
v -0.008881 -0.090558 -0.108746
v -0.021415 -0.087681 -0.117095
v -0.005932 -0.090881 -0.108746
v -0.007408 -0.090736 -0.108746
v -0.021415 -0.087681 -0.117095
v -0.002971 -0.091075 -0.108746
v -0.005932 -0.090881 -0.108746
v -0.021415 -0.087681 -0.117095
v -0.000005 -0.091135 -0.108746
v -0.002971 -0.091075 -0.108746
v -0.021415 -0.087681 -0.117095
v -0.020453 -0.087993 -0.108746
v -0.023262 -0.087039 -0.108746
v -0.023234 -0.086967 -0.117095
v -0.023262 -0.087039 -0.108746
v -0.026575 -0.085734 -0.108746
v -0.026575 -0.085734 -0.108746
v -0.028245 -0.084999 -0.117095
v -0.023234 -0.086967 -0.117095
v -0.036560 -0.080479 -0.117095
v -0.031379 -0.083444 -0.120065
v -0.028245 -0.084999 -0.117095
v -0.036560 -0.080479 -0.117095
v -0.036560 -0.080479 -0.123072
v -0.034487 -0.081749 -0.123072
v -0.034487 -0.081749 -0.123072
v -0.032184 -0.083044 -0.120829
v -0.036560 -0.080479 -0.117095
v -0.032184 -0.083044 -0.120829
v -0.031379 -0.083444 -0.120065
v -0.036560 -0.080479 -0.117095
v -0.028245 -0.084999 -0.117095
v -0.029814 -0.084258 -0.108746
v -0.036560 -0.080479 -0.117095
v -0.036040 -0.080807 -0.108746
v -0.041870 -0.076725 -0.108746
v -0.040826 -0.077524 -0.117095
v -0.040826 -0.077524 -0.117095
v -0.036560 -0.080479 -0.117095
v -0.036040 -0.080807 -0.108746
v -0.036560 -0.080479 -0.117095
v -0.032972 -0.082613 -0.108746
v -0.036040 -0.080807 -0.108746
v -0.036560 -0.080479 -0.117095
v -0.029814 -0.084258 -0.108746
v -0.032972 -0.082613 -0.108746
v -0.047242 -0.072055 -0.108746
v -0.047242 -0.072055 -0.141746
v -0.040826 -0.077524 -0.133362
v -0.040826 -0.077524 -0.133362
v -0.040826 -0.077524 -0.117095
v -0.047242 -0.072055 -0.108746
v -0.041870 -0.076725 -0.108746
v -0.047242 -0.072055 -0.108746
v -0.040826 -0.077524 -0.117095
v -0.047242 -0.072055 -0.141746
v -0.023262 -0.087039 -0.141746
v -0.036560 -0.080479 -0.133362
v -0.036560 -0.080479 -0.133362
v -0.031435 -0.083387 -0.130252
v -0.034607 -0.081678 -0.127116
v -0.036560 -0.080479 -0.133362
v -0.023262 -0.087039 -0.141746
v -0.028245 -0.084999 -0.133362
v -0.028245 -0.084999 -0.133362
v -0.029870 -0.084231 -0.131799
v -0.036560 -0.080479 -0.133362
v -0.029870 -0.084231 -0.131799
v -0.031435 -0.083387 -0.130252
v -0.036560 -0.080479 -0.133362
v -0.023262 -0.087039 -0.141746
v -0.023234 -0.086967 -0.133362
v -0.028245 -0.084999 -0.133362
v -0.034607 -0.081678 -0.127116
v -0.036560 -0.080479 -0.127116
v -0.036560 -0.080479 -0.133362
v -0.036560 -0.080479 -0.133362
v -0.040826 -0.077524 -0.133362
v -0.047242 -0.072055 -0.141746
v -0.018748 0.042226 -0.141746
v -0.043715 0.028951 -0.141746
v -0.027125 0.039218 -0.133362
v -0.027125 0.039218 -0.133362
v -0.020247 0.041777 -0.133362
v -0.018748 0.042226 -0.141746
v -0.043715 0.028951 -0.108746
v -0.027125 0.039218 -0.117095
v -0.033880 0.035822 -0.117095
v -0.022455 0.040952 -0.129194
v -0.030843 0.037441 -0.125237
v -0.031619 0.037064 -0.123196
v -0.030843 0.037441 -0.125237
v -0.022455 0.040952 -0.129194
v -0.027125 0.039218 -0.133362
v -0.027125 0.039218 -0.133362
v -0.027753 0.038941 -0.133362
v -0.030843 0.037441 -0.125237
v -0.022463 0.040996 -0.121090
v -0.018737 0.042188 -0.124222
v -0.018745 0.042215 -0.125913
v -0.018745 0.042215 -0.125913
v -0.020144 0.041809 -0.127131
v -0.022463 0.040996 -0.121090
v -0.022455 0.040952 -0.129194
v -0.033880 0.035822 -0.117095
v -0.027125 0.039218 -0.117095
v -0.027125 0.039218 -0.117095
v -0.023662 0.040612 -0.120082
v -0.022455 0.040952 -0.129194
v -0.023662 0.040612 -0.120082
v -0.022463 0.040996 -0.121090
v -0.022455 0.040952 -0.129194
v -0.020144 0.041809 -0.127131
v -0.022455 0.040952 -0.129194
v -0.022463 0.040996 -0.121090
v -0.031619 0.037064 -0.123196
v -0.033880 0.035822 -0.117095
v -0.022455 0.040952 -0.129194
v -0.033880 0.035822 -0.117095
v -0.042887 0.029634 -0.117095
v -0.043715 0.028951 -0.108746
v -0.043715 0.028951 -0.141746
v -0.033115 0.036255 -0.133362
v -0.027753 0.038941 -0.133362
v -0.043100 0.029459 -0.131935
v -0.033640 0.035958 -0.131935
v -0.033378 0.036107 -0.132649
v -0.033640 0.035958 -0.131935
v -0.042867 0.029651 -0.131222
v -0.042632 0.029840 -0.130508
v -0.033640 0.035958 -0.131935
v -0.043100 0.029459 -0.131935
v -0.042867 0.029651 -0.131222
v -0.042632 0.029840 -0.130508
v -0.034164 0.035658 -0.130508
v -0.033640 0.035958 -0.131935
v -0.033115 0.036255 -0.133362
v -0.043715 0.028951 -0.141746
v -0.043566 0.029075 -0.133362
v -0.043566 0.029075 -0.133362
v -0.043100 0.029459 -0.131935
v -0.033115 0.036255 -0.133362
v -0.033378 0.036107 -0.132649
v -0.033115 0.036255 -0.133362
v -0.043100 0.029459 -0.131935
v -0.043715 0.028951 -0.141746
v -0.043715 0.028951 -0.133362
v -0.043566 0.029075 -0.133362
v -0.027753 0.038941 -0.133362
v -0.027125 0.039218 -0.133362
v -0.043715 0.028951 -0.141746
v -0.042887 0.029634 -0.117095
v -0.043698 0.028933 -0.119633
v -0.043715 0.028951 -0.108746
v -0.018748 0.042227 -0.108746
v -0.020247 0.041777 -0.117095
v -0.027125 0.039218 -0.117095
v -0.018748 0.042227 -0.108746
v -0.018737 0.042185 -0.118423
v -0.020247 0.041777 -0.117095
v -0.027125 0.039218 -0.117095
v -0.043715 0.028951 -0.108746
v -0.018748 0.042227 -0.108746
v -0.011038 0.043959 -0.117095
v -0.016845 0.042695 -0.120087
v -0.018737 0.042185 -0.118423
v -0.011038 0.043959 -0.117095
v -0.011038 0.043959 -0.123072
v -0.013430 0.043522 -0.123072
v -0.013430 0.043522 -0.123072
v -0.015152 0.043151 -0.121576
v -0.011038 0.043959 -0.117095
v -0.015152 0.043151 -0.121576
v -0.016845 0.042695 -0.120087
v -0.011038 0.043959 -0.117095
v -0.011813 0.043827 -0.108746
v -0.004748 0.044694 -0.108746
v -0.005889 0.044605 -0.117095
v -0.005889 0.044605 -0.117095
v -0.011038 0.043959 -0.117095
v -0.011813 0.043827 -0.108746
v -0.011038 0.043959 -0.117095
v -0.015302 0.043118 -0.108746
v -0.011813 0.043827 -0.108746
v -0.011038 0.043959 -0.117095
v -0.018748 0.042227 -0.108746
v -0.015302 0.043118 -0.108746
v -0.004748 0.044694 -0.108746
v 0.009459 0.044198 -0.108746
v -0.005889 0.044605 -0.117095
v 0.009459 0.044198 -0.141746
v -0.005889 0.044605 -0.133362
v 0.000805 0.044855 -0.132482
v 0.000805 0.044855 -0.132482
v 0.005576 0.044631 -0.133664
v 0.009459 0.044198 -0.141746
v -0.005889 0.044605 -0.133362
v -0.001230 0.044849 -0.129476
v 0.000669 0.044855 -0.132280
v -0.005889 0.044605 -0.117095
v -0.001361 0.044846 -0.117095
v -0.001361 0.044846 -0.127693
v -0.001361 0.044846 -0.127693
v -0.005889 0.044605 -0.133362
v -0.005889 0.044605 -0.117095
v -0.001361 0.044846 -0.127693
v -0.001230 0.044849 -0.129476
v -0.005889 0.044605 -0.133362
v 0.000669 0.044855 -0.132280
v 0.000805 0.044855 -0.132482
v -0.005889 0.044605 -0.133362
v -0.018748 0.042226 -0.141746
v -0.011038 0.043959 -0.133362
v -0.005889 0.044605 -0.133362
v -0.005889 0.044605 -0.133362
v 0.009459 0.044198 -0.141746
v -0.018748 0.042226 -0.141746
v 0.009459 0.044198 -0.108746
v 0.003827 0.044752 -0.117095
v -0.001361 0.044846 -0.117095
v -0.001361 0.044846 -0.117095
v -0.005889 0.044605 -0.117095
v 0.009459 0.044198 -0.108746
v -0.011038 0.043959 -0.133362
v -0.016781 0.042734 -0.130233
v -0.013293 0.043549 -0.127116
v -0.011038 0.043959 -0.133362
v -0.018748 0.042226 -0.141746
v -0.018745 0.042213 -0.132001
v -0.018745 0.042213 -0.132001
v -0.017659 0.042528 -0.131018
v -0.011038 0.043959 -0.133362
v -0.017659 0.042528 -0.131018
v -0.016781 0.042734 -0.130233
v -0.011038 0.043959 -0.133362
v -0.013293 0.043549 -0.127116
v -0.011038 0.043959 -0.127116
v -0.011038 0.043959 -0.133362
v 0.009459 0.044198 -0.108746
v 0.005049 0.044666 -0.128426
v 0.003827 0.044752 -0.126616
v 0.006717 0.044527 -0.129489
v 0.005706 0.044620 -0.129399
v 0.005049 0.044666 -0.128426
v 0.009459 0.044198 -0.108746
v 0.009459 0.044198 -0.129489
v 0.006717 0.044527 -0.129489
v 0.005049 0.044666 -0.128426
v 0.009459 0.044198 -0.108746
v 0.006717 0.044527 -0.129489
v 0.003827 0.044752 -0.126616
v 0.003827 0.044752 -0.117095
v 0.009459 0.044198 -0.108746
v 0.005576 0.044631 -0.133664
v 0.009459 0.044198 -0.133664
v 0.009459 0.044198 -0.141746
v 0.036025 0.034520 -0.123072
v 0.036030 0.034527 -0.108746
v 0.036550 0.034199 -0.117095
v 0.036030 0.034527 -0.108746
v 0.056370 0.014885 -0.108746
v 0.040816 0.031244 -0.117095
v 0.056370 0.014885 -0.108746
v 0.056370 0.014885 -0.141746
v 0.040816 0.031244 -0.133362
v 0.040816 0.031244 -0.133362
v 0.040816 0.031244 -0.117095
v 0.056370 0.014885 -0.108746
v 0.040816 0.031244 -0.117095
v 0.036550 0.034199 -0.117095
v 0.036030 0.034527 -0.108746
v 0.036030 0.034527 -0.141746
v 0.036550 0.034199 -0.133362
v 0.040816 0.031244 -0.133362
v 0.036026 0.034521 -0.127116
v 0.036550 0.034199 -0.127116
v 0.036550 0.034199 -0.133362
v 0.036550 0.034199 -0.133362
v 0.036030 0.034527 -0.141746
v 0.036026 0.034521 -0.127116
v 0.040816 0.031244 -0.133362
v 0.056370 0.014885 -0.141746
v 0.036030 0.034527 -0.141746
v 0.036030 0.034527 -0.141746
v 0.032251 0.036724 -0.129460
v 0.034597 0.035398 -0.127116
v 0.036030 0.034527 -0.141746
v 0.031430 0.037131 -0.130258
v 0.032251 0.036724 -0.129460
v 0.036030 0.034527 -0.141746
v 0.028235 0.038719 -0.133362
v 0.031430 0.037131 -0.130258
v 0.036030 0.034527 -0.141746
v 0.009459 0.044198 -0.141746
v 0.021405 0.041402 -0.133362
v 0.021405 0.041402 -0.133362
v 0.028235 0.038719 -0.133362
v 0.036030 0.034527 -0.141746
v 0.009459 0.044198 -0.108746
v 0.013866 0.043429 -0.128696
v 0.013670 0.043471 -0.128990
v 0.013670 0.043471 -0.128990
v 0.011812 0.043825 -0.129489
v 0.009459 0.044198 -0.108746
v 0.013866 0.043429 -0.128696
v 0.009459 0.044198 -0.108746
v 0.014655 0.043261 -0.126616
v 0.009459 0.044198 -0.108746
v 0.014655 0.043261 -0.117095
v 0.014655 0.043261 -0.126616
v 0.014655 0.043261 -0.126616
v 0.014558 0.043282 -0.127658
v 0.013866 0.043429 -0.128696
v 0.009459 0.044198 -0.108746
v 0.021405 0.041401 -0.117095
v 0.019676 0.041950 -0.117095
v 0.019676 0.041950 -0.117095
v 0.014655 0.043261 -0.117095
v 0.009459 0.044198 -0.108746
v 0.027198 0.039182 -0.122061
v 0.030577 0.037595 -0.125049
v 0.026003 0.039592 -0.129226
v 0.019676 0.041950 -0.127693
v 0.026009 0.039637 -0.121041
v 0.027198 0.039182 -0.122061
v 0.019676 0.041950 -0.127693
v 0.019676 0.041950 -0.117095
v 0.021405 0.041401 -0.117095
v 0.021405 0.041401 -0.117095
v 0.026009 0.039637 -0.121041
v 0.019676 0.041950 -0.127693
v 0.023753 0.040575 -0.131280
v 0.021405 0.041402 -0.133362
v 0.018712 0.042233 -0.131386
v 0.019676 0.041950 -0.127693
v 0.026003 0.039592 -0.129226
v 0.023753 0.040575 -0.131280
v 0.018712 0.042233 -0.131386
v 0.019676 0.041950 -0.127693
v 0.023753 0.040575 -0.131280
v 0.021405 0.041402 -0.133362
v 0.009459 0.044198 -0.141746
v 0.016090 0.042928 -0.133257
v 0.016090 0.042928 -0.133257
v 0.017710 0.042499 -0.132101
v 0.021405 0.041402 -0.133362
v 0.009459 0.044198 -0.141746
v 0.009459 0.044198 -0.133664
v 0.012938 0.043617 -0.133664
v 0.012938 0.043617 -0.133664
v 0.013577 0.043491 -0.133659
v 0.009459 0.044198 -0.141746
v 0.013577 0.043491 -0.133659
v 0.016090 0.042928 -0.133257
v 0.009459 0.044198 -0.141746
v 0.017710 0.042499 -0.132101
v 0.018712 0.042233 -0.131386
v 0.021405 0.041402 -0.133362
v 0.026003 0.039592 -0.129226
v 0.019676 0.041950 -0.127693
v 0.027198 0.039182 -0.122061
v 0.011812 0.043825 -0.129489
v 0.009459 0.044198 -0.129489
v 0.009459 0.044198 -0.108746
v 0.036030 0.034527 -0.108746
v 0.028235 0.038719 -0.117095
v 0.021405 0.041401 -0.117095
v 0.036030 0.034527 -0.108746
v 0.031364 0.037142 -0.120071
v 0.029828 0.037966 -0.118591
v 0.036030 0.034527 -0.108746
v 0.036025 0.034520 -0.123072
v 0.034477 0.035469 -0.123072
v 0.034477 0.035469 -0.123072
v 0.031364 0.037142 -0.120071
v 0.036030 0.034527 -0.108746
v 0.029828 0.037966 -0.118591
v 0.028235 0.038719 -0.117095
v 0.036030 0.034527 -0.108746
v 0.021405 0.041401 -0.117095
v 0.009459 0.044198 -0.108746
v 0.036030 0.034527 -0.108746
v 0.034597 0.035398 -0.127116
v 0.036026 0.034521 -0.127116
v 0.036030 0.034527 -0.141746
v 0.036550 0.034199 -0.117095
v 0.036550 0.034199 -0.123072
v 0.036025 0.034520 -0.123072
v -0.018737 0.042185 -0.118423
v -0.018748 0.042227 -0.108746
v -0.011038 0.043959 -0.117095
v -0.020247 0.041777 -0.133362
v -0.018745 0.042213 -0.132001
v -0.018748 0.042226 -0.141746
v -0.018745 0.042215 -0.125913
v -0.018737 0.042188 -0.124222
v -0.017753 0.042504 -0.125049
v -0.026575 -0.085734 -0.108746
v -0.029814 -0.084258 -0.108746
v -0.028245 -0.084999 -0.117095
v -0.021415 -0.087681 -0.133362
v -0.023234 -0.086967 -0.133362
v -0.023262 -0.087039 -0.141746
v -0.026020 -0.085917 -0.129236
v -0.023241 -0.086982 -0.131727
v -0.026012 -0.085873 -0.121052
v 0.066843 -0.035606 -0.108746
v 0.065975 -0.039591 -0.108746
v 0.065975 -0.039591 -0.141746
v 0.067082 -0.012033 -0.108746
v 0.067995 -0.023140 -0.108746
v 0.067995 -0.023140 -0.141746
v 0.033105 -0.082535 -0.133362
v 0.031919 -0.083180 -0.133362
v 0.031919 -0.083180 -0.141746
v 0.031897 -0.083138 -0.122367
v 0.027115 -0.085498 -0.117095
v 0.022445 -0.087232 -0.121083
v -0.047997 0.025035 -0.133362
v -0.043715 0.028951 -0.133362
v -0.043715 0.028951 -0.141746
v -0.060045 -0.055064 -0.108746
v -0.063054 -0.048613 -0.108746
v -0.063054 -0.048613 -0.141746
v -0.067995 -0.024327 -0.108746
v -0.067964 -0.020767 -0.108746
v -0.067964 -0.020767 -0.141746
v -0.067092 -0.012033 -0.108746
v -0.061123 0.006669 -0.108746
v -0.061123 0.006669 -0.141746
v 0.066252 -0.007843 -0.108746
v 0.066962 -0.011332 -0.108746
v 0.066962 -0.011332 -0.141746
v 0.057662 -0.059175 -0.108746
v 0.053580 -0.065005 -0.108746
v 0.053580 -0.065005 -0.141746
v 0.067994 -0.023440 -0.108746
v 0.067994 -0.023440 -0.141746
v 0.067995 -0.023140 -0.141746
v 0.067995 -0.023140 -0.141746
v 0.067995 -0.023140 -0.108746
v 0.067994 -0.023440 -0.108746
v -0.040473 0.031504 -0.124062
v -0.039475 0.032232 -0.121139
v -0.037529 0.033569 -0.121139
v -0.037529 0.033569 -0.121139
v -0.036752 0.034076 -0.123333
v -0.040473 0.031504 -0.124062
v -0.036752 0.034076 -0.123333
v -0.036490 0.034240 -0.124065
v -0.040473 0.031504 -0.124062
v -0.035442 0.034896 -0.126988
v -0.041463 0.030761 -0.126988
v -0.040724 0.031321 -0.124795
v -0.040724 0.031321 -0.124795
v -0.040473 0.031504 -0.124062
v -0.035442 0.034896 -0.126988
v -0.036490 0.034240 -0.124065
v -0.035442 0.034896 -0.126988
v -0.040473 0.031504 -0.124062
v 0.041453 -0.077041 -0.126988
v 0.036479 -0.080518 -0.124064
v 0.035959 -0.080851 -0.125526
v 0.036479 -0.080518 -0.124064
v 0.039967 -0.078151 -0.122602
v 0.039465 -0.078512 -0.121139
v 0.036479 -0.080518 -0.124064
v 0.040462 -0.077780 -0.124063
v 0.039967 -0.078151 -0.122602
v 0.036479 -0.080518 -0.124064
v 0.041453 -0.077041 -0.126988
v 0.040462 -0.077780 -0.124063
v 0.039465 -0.078512 -0.121139
v 0.037519 -0.079848 -0.121139
v 0.036479 -0.080518 -0.124064
v 0.035959 -0.080851 -0.125526
v 0.035432 -0.081176 -0.126988
v 0.041453 -0.077041 -0.126988
vn 0.8979 -0.4379 -0.0450
vn 0.8744 -0.4847 -0.0225
vn 0.9095 -0.4144 -0.0338
vn 0.9303 -0.3664 -0.0169
vn 0.9483 -0.3174 -0.0057
vn 0.9636 -0.2672 -0.0000
vn 0.9681 0.2503 -0.0056
vn 0.9536 0.3007 -0.0169
vn 0.9262 0.3742 -0.0450
vn 0.9362 0.3499 -0.0337
vn 0.9060 0.4226 -0.0225
vn 0.8572 0.5150 -0.0000
vn -0.9696 0.2418 -0.0384
vn -0.9951 0.0993 -0.0000
vn -0.9990 -0.0438 -0.0057
vn -0.9953 -0.0958 -0.0169
vn -0.9838 -0.1735 -0.0450
vn -0.9885 -0.1477 -0.0337
vn -0.9794 -0.1993 -0.0338
vn -0.9680 -0.2503 -0.0169
vn -0.9537 -0.3008 -0.0056
vn -0.9367 -0.3501 -0.0000
vn -0.8282 -0.5586 -0.0450
vn -0.8570 -0.5148 -0.0225
vn -0.7984 -0.6017 -0.0225
vn -0.7489 -0.6627 -0.0056
vn -0.7133 -0.7009 -0.0000
vn -0.7829 0.6116 -0.1141
vn -0.7770 0.6272 0.0536
vn -0.7688 0.6357 0.0696
vn -0.7880 0.6156 -0.0023
vn -0.8136 0.5815 -0.0000
vn 0.4007 -0.9157 0.0299
vn 0.3873 -0.9218 0.0180
vn 0.3623 -0.9292 0.0733
vn 0.3906 -0.9205 0.0054
vn 0.3436 -0.9391 0.0055
vn 0.2914 -0.9564 -0.0165
vn 0.3843 -0.9225 0.0374
vn 0.4395 -0.8983 -0.0035
vn 0.3501 -0.9367 -0.0085
vn 0.3487 -0.9372 -0.0094
vn 0.3988 -0.9170 0.0028
vn 0.4463 -0.8948 -0.0084
vn 0.2134 -0.9770 0.0057
vn 0.2162 -0.9762 0.0147
vn 0.1797 -0.9837 -0.0000
vn 0.2165 -0.9762 0.0153
vn 0.2804 -0.9599 -0.0013
vn 0.1090 -0.9940 -0.0014
vn 0.1477 -0.9890 0.0019
vn 0.1245 -0.9922 -0.0059
vn 0.1994 -0.9799 -0.0030
vn 0.2502 -0.9677 -0.0302
vn 0.0825 -0.9966 0.0007
vn 0.0778 -0.9970 -0.0000
vn 0.3323 -0.8930 -0.3035
vn 0.2297 -0.9693 -0.0873
vn 0.3639 -0.8251 -0.4322
vn 0.4035 -0.9149 0.0076
vn 0.1245 -0.9922 -0.0064
vn 0.2011 -0.9795 -0.0083
vn 0.2306 -0.9724 -0.0347
vn 0.2304 -0.9725 -0.0345
vn 0.1789 -0.9839 -0.0000
vn 0.0777 -0.9970 -0.0000
vn 0.4391 -0.8984 -0.0000
vn 0.2744 -0.9568 -0.0963
vn 0.3008 -0.9537 0.0027
vn 0.6424 -0.7657 -0.0320
vn 0.5660 -0.8237 -0.0343
vn 0.5661 -0.8237 -0.0334
vn 0.5657 -0.8237 -0.0385
vn 0.5659 -0.8238 -0.0321
vn 0.5658 -0.8236 -0.0385
vn 0.6701 -0.7347 -0.1059
vn 0.5360 -0.7802 -0.3223
vn 0.5659 -0.8237 -0.0368
vn 0.7005 -0.7129 -0.0334
vn 0.6654 -0.7463 0.0141
vn 0.6823 -0.7311 0.0023
vn 0.7547 -0.6561 -0.0033
vn 0.7483 -0.6634 -0.0000
vn 0.6018 -0.7986 0.0056
vn 0.5661 -0.8239 -0.0261
vn 0.6627 -0.7489 -0.0045
vn 0.5149 -0.8572 0.0097
vn 0.4722 -0.8815 -0.0035
vn 0.6824 -0.7310 0.0022
vn 0.9962 0.0871 -0.0018
vn 0.9857 0.1687 -0.0000
vn 0.9922 -0.1240 -0.0148
vn 0.9881 -0.1537 -0.0074
vn 0.9955 -0.0942 -0.0074
vn 0.9994 -0.0343 -0.0000
vn -0.3539 -0.9353 0.0054
vn -0.4123 -0.9109 0.0166
vn -0.3947 -0.9188 -0.0070
vn -0.3305 -0.9438 -0.0041
vn -0.1390 -0.9893 -0.0451
vn 0.0339 -0.9994 0.0044
vn -0.1364 -0.9907 -0.0000
vn -0.1362 -0.9894 0.0503
vn -0.2827 -0.8905 0.3566
vn -0.2446 -0.9367 0.2506
vn -0.0795 -0.9968 0.0020
vn -0.1365 -0.9905 0.0138
vn -0.1607 -0.9866 0.0283
vn -0.1775 -0.9833 0.0408
vn -0.1608 -0.9866 0.0284
vn -0.0785 -0.9969 0.0002
vn -0.0763 -0.9971 -0.0000
vn -0.0181 -0.9998 -0.0040
vn -0.3283 -0.9445 -0.0046
vn -0.3026 -0.9531 -0.0000
vn -0.3278 -0.9447 -0.0034
vn -0.3407 -0.9399 0.0213
vn -0.2845 -0.9586 -0.0101
vn -0.2848 -0.9586 -0.0090
vn -0.2440 -0.8754 -0.4173
vn -0.0533 -0.9968 -0.0603
vn -0.1346 -0.9772 -0.1643
vn -0.0062 -0.9998 -0.0190
vn -0.0056 -0.9998 -0.0187
vn 0.0449 -0.9990 -0.0000
vn 0.0448 -0.9990 -0.0000
vn 0.0271 -0.9996 -0.0043
vn -0.2554 -0.9560 -0.1445
vn -0.3271 -0.9450 -0.0041
vn -0.3654 -0.9308 -0.0092
vn -0.2798 -0.9600 -0.0036
vn -0.2376 -0.9711 -0.0244
vn -0.1948 -0.9790 -0.0605
vn -0.1511 -0.9822 -0.1116
vn -0.1184 -0.9800 -0.1599
vn -0.0959 -0.9759 -0.1962
vn -0.0633 -0.9655 -0.2527
vn -0.0190 -0.9402 -0.3402
vn -0.3216 -0.9469 0.0017
vn -0.3665 -0.9304 -0.0092
vn -0.3655 -0.9308 -0.0088
vn -0.4771 -0.8777 0.0439
vn -0.5224 -0.8527 -0.0000
vn -0.4984 -0.8668 0.0113
vn -0.4774 -0.8776 0.0434
vn -0.4776 -0.8785 -0.0118
vn -0.5735 -0.8191 0.0067
vn -0.5694 -0.8220 0.0032
vn -0.5075 -0.8617 -0.0022
vn -0.4616 -0.8866 -0.0284
vn -0.6487 -0.7610 -0.0000
vn -0.6560 -0.7547 -0.0098
vn -0.5218 -0.8351 -0.1742
vn -0.4862 -0.8737 -0.0157
vn -0.4764 -0.8764 -0.0699
vn -0.4766 -0.8767 -0.0647
vn -0.4864 -0.8736 -0.0154
vn -0.3655 -0.9307 0.0092
vn -0.5232 -0.8522 -0.0000
vn -0.5666 -0.8179 -0.1000
vn -0.4641 0.8729 -0.1506
vn -0.3487 0.9372 -0.0121
vn -0.4399 0.8750 0.2019
vn -0.3742 0.9269 0.0289
vn -0.3729 0.9273 0.0322
vn -0.4035 0.9148 0.0154
vn -0.2920 0.9563 0.0166
vn -0.4487 0.8925 -0.0454
vn -0.3858 0.9224 -0.0168
vn -0.3093 0.9510 -0.0056
vn -0.3437 0.9391 -0.0056
vn -0.3580 0.9320 0.0571
vn -0.5662 0.8242 0.0113
vn -0.4381 0.8745 -0.2080
vn -0.5659 0.8237 -0.0357
vn -0.5657 0.8240 -0.0319
vn -0.5659 0.8237 -0.0370
vn -0.5659 0.8237 -0.0346
vn -0.5663 0.8242 -0.0021
vn -0.5659 0.8237 -0.0368
vn -0.5659 0.8236 -0.0377
vn -0.6396 0.7687 -0.0000
vn -0.3842 0.8709 -0.3064
vn -0.6503 0.7597 -0.0023
vn -0.3487 0.9372 0.0122
vn -0.2644 0.9644 -0.0044
vn -0.4641 0.8728 0.1512
vn -0.2303 0.9724 0.0362
vn -0.1797 0.9837 -0.0000
vn -0.2027 0.9792 0.0095
vn -0.2302 0.9725 0.0360
vn -0.1218 0.9925 0.0061
vn -0.1245 0.9922 0.0041
vn -0.1994 0.9799 -0.0030
vn -0.2502 0.9677 -0.0302
vn 0.0349 0.9993 -0.0154
vn -0.0248 0.9953 -0.0938
vn 0.0382 0.9987 -0.0352
vn -0.0346 0.9992 -0.0213
vn -0.0532 0.9986 -0.0000
vn -0.0531 0.9986 -0.0000
vn -0.0506 0.9987 -0.0020
vn -0.0343 0.9991 -0.0230
vn -0.1240 0.9882 -0.0902
vn -0.0687 0.9824 -0.1734
vn 0.0181 0.9984 0.0541
vn -0.0526 0.9881 0.1448
vn -0.2158 0.9763 -0.0138
vn -0.2207 0.9753 0.0014
vn -0.2302 0.9715 -0.0570
vn -0.2161 0.9763 -0.0145
vn -0.1789 0.9839 -0.0000
vn 0.0790 0.9969 0.0060
vn 0.0930 0.9955 0.0157
vn 0.1191 0.9929 -0.0000
vn 0.0859 0.9963 0.0045
vn 0.0979 0.9952 -0.0000
vn 0.1108 0.9938 -0.0000
vn 0.5266 0.8501 -0.0006
vn 0.6901 0.7146 0.1146
vn 0.7247 0.6891 -0.0000
vn 0.5694 0.8220 0.0032
vn 0.5694 0.8220 -0.0032
vn 0.5236 0.8520 -0.0000
vn 0.5278 0.8494 0.0005
vn 0.6901 0.7146 -0.1141
vn 0.4943 0.8693 -0.0033
vn 0.4587 0.8884 -0.0177
vn 0.3370 0.9258 -0.1713
vn 0.3627 0.9236 -0.1246
vn 0.2002 0.9797 0.0065
vn 0.1863 0.9825 0.0035
vn 0.1950 0.9808 0.0053
vn 0.1775 0.9841 -0.0000
vn 0.2071 0.9783 0.0004
vn 0.3007 0.9470 0.1130
vn 0.2523 0.9664 0.0486
vn 0.4129 0.9106 -0.0168
vn 0.3510 0.9364 -0.0085
vn 0.3026 0.9531 -0.0000
vn 0.3512 0.9363 -0.0088
vn 0.3119 0.9498 0.0251
vn 0.3597 0.9316 0.0518
vn 0.3126 0.9498 -0.0088
vn 0.2741 0.9591 -0.0706
vn 0.2755 0.9609 -0.0295
vn 0.1647 0.9863 -0.0000
vn 0.1950 0.9807 -0.0134
vn 0.2225 0.9745 -0.0280
vn 0.2757 0.9608 -0.0288
vn 0.3483 0.9374 -0.0044
vn 0.1566 0.9877 -0.0000
vn 0.3626 0.9235 0.1251
vn 0.4776 0.8785 0.0060
vn 0.5226 0.8526 -0.0006
vn 0.4777 0.8785 0.0060
vn 0.4492 0.8929 0.0289
vn 0.3369 0.9257 0.1720
vn 0.5230 0.8523 0.0005
vn 0.5217 0.8531 -0.0000
vn -0.2238 0.9746 -0.0044
vn -0.2799 0.9600 0.0014
vn -0.2922 0.9562 0.0166
vn -0.4147 -0.9100 0.0028
vn -0.3654 -0.9308 0.0092
vn -0.3536 -0.9354 0.0054
vn 0.9771 -0.2128 -0.0000
vn 0.9966 0.0819 -0.0000
vn 0.4777 -0.8785 -0.0000
vn 0.3902 -0.9189 -0.0574
vn -0.6750 0.7379 -0.0000
vn -0.9063 -0.4227 -0.0000
vn -1.0000 0.0087 -0.0000
vn -0.9527 0.3041 -0.0000
vn 0.9799 0.1994 -0.0000
vn 0.8192 -0.5736 -0.0000
vn 1.0000 -0.0035 -0.0000
vn 1.0000 -0.0033 -0.0000
vn -0.5662 0.8242 -0.0119
vn -0.5672 0.8235 -0.0105
vn -0.5661 0.8241 -0.0180
vn -0.5660 0.8242 -0.0197
vn -0.5641 0.8256 -0.0129
vn 0.5673 -0.8234 -0.0142
vn 0.5644 -0.8255 -0.0100
vn 0.5663 -0.8240 -0.0169
vn 0.5663 -0.8240 -0.0166
vn 0.5662 -0.8242 -0.0128
vn 0.5660 -0.8242 -0.0208
s 1
usemtl material_0
f 1//1 2//1 3//1
f 4//2 5//2 6//2
f 7//3 8//3 9//3
f 10//4 11//4 12//4
f 13//5 14//5 15//5
f 16//6 17//6 18//6
f 19//7 20//7 21//7
f 22//8 23//8 24//8
f 25//9 26//9 27//9
f 28//10 29//10 30//10
f 31//11 32//11 33//11
f 34//12 35//12 36//12
f 37//13 38//13 39//13
f 40//14 41//14 42//14
f 43//15 44//15 45//15
f 46//16 47//16 48//16
f 49//17 50//17 51//17
f 52//18 53//18 54//18
f 55//19 56//19 57//19
f 58//20 59//20 60//20
f 61//21 62//21 63//21
f 64//22 65//22 66//22
f 67//23 68//23 69//23
f 70//24 71//24 72//24
f 73//25 74//25 75//25
f 76//26 77//26 78//26
f 79//27 80//27 81//27
f 82//28 83//28 84//28
f 85//29 86//29 87//29
f 88//30 89//30 90//30
f 91//31 92//31 93//31
f 94//30 95//30 96//30
f 97//32 98//32 99//32
f 100//33 101//33 102//33
f 103//34 104//34 105//34
f 106//35 107//35 108//35
f 109//36 110//36 111//36
f 112//37 113//37 114//37
f 115//38 116//38 117//38
f 118//39 119//39 120//39
f 121//40 122//40 123//40
f 124//41 125//41 126//41
f 127//42 128//42 129//42
f 130//43 131//43 132//43
f 133//44 134//44 135//44
f 136//45 137//45 138//45
f 139//46 140//46 141//46
f 142//47 143//47 144//47
f 145//48 146//48 147//48
f 148//49 149//49 150//49
f 151//50 152//50 153//50
f 154//51 155//51 156//51
f 157//52 158//52 159//52
f 160//53 161//53 162//53
f 163//54 164//54 165//54
f 166//55 167//55 168//55
f 169//56 170//56 171//56
f 172//57 173//57 174//57
f 175//58 176//58 177//58
f 178//59 179//59 180//59
f 181//60 182//60 183//60
f 184//61 185//61 186//61
f 187//62 188//62 189//62
f 190//63 191//63 192//63
f 193//64 194//64 195//64
f 196//65 197//65 198//65
f 199//66 200//66 201//66
f 202//67 203//67 204//67
f 205//68 206//68 207//68
f 208//69 209//69 210//69
f 211//70 212//70 213//70
f 214//71 215//71 216//71
f 217//72 218//72 219//72
f 220//73 221//73 222//73
f 223//74 224//74 225//74
f 226//75 227//75 228//75
f 229//76 230//76 231//76
f 232//77 233//77 234//77
f 235//78 236//78 237//78
f 238//79 239//79 240//79
f 241//80 242//80 243//80
f 244//81 245//81 246//81
f 247//82 248//82 249//82
f 250//83 251//83 252//83
f 253//84 254//84 255//84
f 256//85 257//85 258//85
f 259//86 260//86 261//86
f 262//87 263//87 264//87
f 265//88 266//88 267//88
f 268//89 269//89 270//89
f 271//90 272//90 273//90
f 274//91 275//91 276//91
f 277//92 278//92 279//92
f 280//93 281//93 282//93
f 283//94 284//94 285//94
f 286//95 287//95 288//95
f 289//96 290//96 291//96
f 292//97 293//97 294//97
f 295//98 296//98 297//98
f 298//99 299//99 300//99
f 301//100 302//100 303//100
f 304//101 305//101 306//101
f 307//102 308//102 309//102
f 310//103 311//103 312//103
f 313//104 314//104 315//104
f 316//105 317//105 318//105
f 319//106 320//106 321//106
f 322//107 323//107 324//107
f 325//108 326//108 327//108
f 328//109 329//109 330//109
f 331//110 332//110 333//110
f 334//111 335//111 336//111
f 337//112 338//112 339//112
f 340//113 341//113 342//113
f 343//114 344//114 345//114
f 346//115 347//115 348//115
f 349//116 350//116 351//116
f 352//117 353//117 354//117
f 355//118 356//118 357//118
f 358//119 359//119 360//119
f 361//120 362//120 363//120
f 364//121 365//121 366//121
f 367//122 368//122 369//122
f 370//123 371//123 372//123
f 373//124 374//124 375//124
f 376//125 377//125 378//125
f 379//126 380//126 381//126
f 382//127 383//127 384//127
f 385//128 386//128 387//128
f 388//129 389//129 390//129
f 391//130 392//130 393//130
f 394//131 395//131 396//131
f 397//132 398//132 399//132
f 400//133 401//133 402//133
f 403//134 404//134 405//134
f 406//135 407//135 408//135
f 409//136 410//136 411//136
f 412//137 413//137 414//137
f 415//138 416//138 417//138
f 418//139 419//139 420//139
f 421//140 422//140 423//140
f 424//141 425//141 426//141
f 427//142 428//142 429//142
f 430//143 431//143 432//143
f 433//144 434//144 435//144
f 436//145 437//145 438//145
f 439//146 440//146 441//146
f 442//147 443//147 444//147
f 445//148 446//148 447//148
f 448//149 449//149 450//149
f 451//150 452//150 453//150
f 454//151 455//151 456//151
f 457//151 458//151 459//151
f 460//152 461//152 462//152
f 463//153 464//153 465//153
f 466//154 467//154 468//154
f 469//155 470//155 471//155
f 472//156 473//156 474//156
f 475//157 476//157 477//157
f 478//158 479//158 480//158
f 481//159 482//159 483//159
f 484//160 485//160 486//160
f 487//161 488//161 489//161
f 490//162 491//162 492//162
f 493//163 494//163 495//163
f 496//164 497//164 498//164
f 499//165 500//165 501//165
f 502//166 503//166 504//166
f 505//167 506//167 507//167
f 508//167 509//167 510//167
f 511//168 512//168 513//168
f 514//169 515//169 516//169
f 517//170 518//170 519//170
f 520//171 521//171 522//171
f 523//172 524//172 525//172
f 526//173 527//173 528//173
f 529//174 530//174 531//174
f 532//175 533//175 534//175
f 535//176 536//176 537//176
f 538//177 539//177 540//177
f 541//178 542//178 543//178
f 544//179 545//179 546//179
f 547//180 548//180 549//180
f 550//181 551//181 552//181
f 553//182 554//182 555//182
f 556//183 557//183 558//183
f 559//184 560//184 561//184
f 562//185 563//185 564//185
f 565//186 566//186 567//186
f 568//187 569//187 570//187
f 571//188 572//188 573//188
f 574//189 575//189 576//189
f 577//190 578//190 579//190
f 580//191 581//191 582//191
f 583//192 584//192 585//192
f 586//193 587//193 588//193
f 589//194 590//194 591//194
f 592//195 593//195 594//195
f 595//196 596//196 597//196
f 598//197 599//197 600//197
f 601//198 602//198 603//198
f 604//199 605//199 606//199
f 607//200 608//200 609//200
f 610//201 611//201 612//201
f 613//202 614//202 615//202
f 616//203 617//203 618//203
f 619//204 620//204 621//204
f 622//205 623//205 624//205
f 625//206 626//206 627//206
f 628//207 629//207 630//207
f 631//208 632//208 633//208
f 634//209 635//209 636//209
f 637//210 638//210 639//210
f 640//211 641//211 642//211
f 643//212 644//212 645//212
f 646//213 647//213 648//213
f 649//214 650//214 651//214
f 652//215 653//215 654//215
f 655//216 656//216 657//216
f 658//217 659//217 660//217
f 661//218 662//218 663//218
f 664//219 665//219 666//219
f 667//220 668//220 669//220
f 670//221 671//221 672//221
f 673//221 674//221 675//221
f 676//222 677//222 678//222
f 679//223 680//223 681//223
f 682//224 683//224 684//224
f 685//225 686//225 687//225
f 688//226 689//226 690//226
f 691//227 692//227 693//227
f 694//228 695//228 696//228
f 697//228 698//228 699//228
f 700//229 701//229 702//229
f 703//230 704//230 705//230
f 706//231 707//231 708//231
f 709//232 710//232 711//232
f 712//233 713//233 714//233
f 715//234 716//234 717//234
f 718//235 719//235 720//235
f 721//236 722//236 723//236
f 724//237 725//237 726//237
f 727//238 728//238 729//238
f 730//239 731//239 732//239
f 733//240 734//240 735//240
f 736//241 737//241 738//241
f 739//242 740//242 741//242
f 742//243 743//243 744//243
f 745//244 746//244 747//244
f 748//245 749//245 750//245
f 751//246 752//246 753//246
f 754//247 755//247 756//247
f 757//248 758//248 759//248
f 760//249 761//249 762//249
f 763//250 764//250 765//250
f 766//251 767//251 768//251
f 769//252 770//252 771//252
f 772//253 773//253 774//253
f 775//254 776//254 777//254
f 778//255 779//255 780//255
f 781//256 782//256 783//256
f 784//257 785//257 786//257
f 787//258 788//258 789//258
f 790//259 791//259 792//259
f 793//260 794//260 795//260
f 796//261 797//261 798//261
f 799//262 800//262 801//262
f 802//263 803//263 804//263
f 805//264 806//264 807//264
f 808//265 809//265 810//265
f 811//266 812//266 813//266
f 814//267 815//267 816//267
f 817//268 818//268 819//268
f 820//269 821//269 822//269
f 823//270 824//270 825//270
f 826//271 827//271 828//271
f 829//272 830//272 831//272
f 832//273 833//273 834//273
f 835//274 836//274 837//274
f 838//275 839//275 840//275
f 841//276 842//276 843//276
f 844//277 845//277 846//277
f 847//278 848//278 849//278
f 850//279 851//279 852//279
f 853//280 854//280 855//280
f 856//281 857//281 858//281
f 859//282 860//282 861//282
f 862//283 863//283 864//283
f 865//281 866//281 867//281
f 868//284 869//284 870//284
f 871//285 872//285 873//285
f 874//286 875//286 876//286
f 877//287 878//287 879//287
f 880//288 881//288 882//288
f 883//289 884//289 885//289
