# Blender 4.5.10 LTS
# www.blender.org
mtllib iiwa_link4_resp_coll_1.mtl
o node
v 0.055332 0.030265 0.002583
v 0.021824 0.044685 -0.082852
v -0.052150 0.049786 0.010222
v 0.021824 0.044685 -0.082852
v 0.000003 0.048501 -0.082041
v -0.052150 0.049786 0.010222
v 0.004778 -0.091089 -0.141813
v 0.056410 0.014770 -0.141813
v 0.053620 -0.065120 -0.141813
v -0.043675 0.028836 -0.141813
v -0.061084 0.006554 -0.141813
v -0.052150 0.049786 0.010222
v -0.067925 -0.020882 -0.141813
v -0.061084 0.006554 -0.141813
v -0.063015 -0.048728 -0.141813
v 0.056410 0.014770 -0.141813
v 0.066015 -0.039706 -0.141813
v 0.053620 -0.065120 -0.141813
v 0.068182 -0.015107 -0.141805
v 0.066015 -0.039706 -0.141813
v 0.056410 0.014770 -0.141813
v 0.066015 -0.039706 -0.141813
v 0.068182 -0.015107 -0.141805
v 0.068499 -0.029762 -0.108764
v 0.049210 0.035751 -0.049256
v 0.021824 0.044685 -0.082852
v 0.055332 0.030265 0.002583
v 0.055644 0.027288 -0.034171
v 0.049210 0.035751 -0.049256
v 0.055332 0.030265 0.002583
v 0.049210 0.035751 -0.049256
v 0.055644 0.027288 -0.034171
v 0.056410 0.014770 -0.141813
v 0.031959 -0.083295 -0.141813
v 0.004778 -0.091089 -0.141813
v 0.053620 -0.065120 -0.141813
v 0.004778 -0.091089 -0.141813
v -0.023222 -0.087154 -0.141813
v 0.056410 0.014770 -0.141813
v -0.023222 -0.087154 -0.141813
v -0.047203 -0.072170 -0.141813
v -0.063015 -0.048728 -0.141813
v -0.047203 -0.072170 -0.141813
v -0.023222 -0.087154 -0.141813
v -0.036521 -0.080594 -0.133429
v 0.040384 -0.008618 0.000398
v -0.033910 -0.012084 0.000849
v -0.005469 -0.072490 -0.058481
v 0.040384 -0.008618 0.000398
v 0.055332 0.030265 0.002583
v -0.052150 0.049786 0.010222
v -0.033910 -0.012084 0.000849
v 0.040384 -0.008618 0.000398
v -0.052150 0.049786 0.010222
v -0.033076 0.036140 -0.133429
v -0.043675 0.028836 -0.141813
v -0.052150 0.049786 0.010222
v -0.043675 0.028836 -0.141813
v -0.033076 0.036140 -0.133429
v -0.018708 0.042111 -0.141813
v -0.061084 0.006554 -0.141813
v -0.064860 -0.000378 -0.108809
v -0.052150 0.049786 0.010222
v -0.067925 -0.020882 -0.141813
v -0.064860 -0.000378 -0.108809
v -0.061084 0.006554 -0.141813
v 0.068499 -0.029762 -0.108764
v 0.068473 -0.019566 -0.108810
v 0.055332 0.030265 0.002583
v 0.068182 -0.015107 -0.141805
v 0.068473 -0.019566 -0.108810
v 0.068499 -0.029762 -0.108764
v 0.064978 -0.029200 -0.089398
v 0.068499 -0.029762 -0.108764
v 0.055332 0.030265 0.002583
v 0.059826 -0.051023 -0.095602
v 0.043159 -0.071970 -0.091949
v 0.053125 -0.066294 -0.108811
v 0.062097 -0.050846 -0.108838
v 0.059826 -0.051023 -0.095602
v 0.053125 -0.066294 -0.108811
v 0.062097 -0.050846 -0.108838
v 0.053125 -0.066294 -0.108811
v 0.053620 -0.065120 -0.141813
v 0.009499 0.044083 -0.141813
v 0.000845 0.044740 -0.132549
v 0.000003 0.048501 -0.082041
v 0.009499 0.044083 -0.141813
v 0.021453 0.041321 -0.133433
v 0.036069 0.034412 -0.141813
v 0.009499 0.044083 -0.141813
v 0.036069 0.034412 -0.141813
v 0.056410 0.014770 -0.141813
v -0.023222 -0.087154 -0.141813
v 0.009499 0.044083 -0.141813
v 0.056410 0.014770 -0.141813
v 0.009499 0.044083 -0.141813
v -0.043675 0.028836 -0.141813
v -0.018708 0.042111 -0.141813
v -0.043675 0.028836 -0.141813
v 0.009499 0.044083 -0.141813
v -0.061084 0.006554 -0.141813
v -0.061084 0.006554 -0.141813
v 0.009499 0.044083 -0.141813
v -0.063015 -0.048728 -0.141813
v 0.009499 0.044083 -0.141813
v -0.023222 -0.087154 -0.141813
v -0.063015 -0.048728 -0.141813
v 0.021453 0.041321 -0.133433
v 0.028274 0.038604 -0.133429
v 0.036069 0.034412 -0.141813
v 0.028274 0.038604 -0.133429
v 0.049210 0.035751 -0.049256
v 0.036069 0.034412 -0.141813
v 0.028274 0.038604 -0.133429
v 0.021453 0.041321 -0.133433
v 0.021824 0.044685 -0.082852
v 0.049210 0.035751 -0.049256
v 0.028274 0.038604 -0.133429
v 0.021824 0.044685 -0.082852
v 0.036069 0.034412 -0.141813
v 0.040855 0.031129 -0.133429
v 0.056410 0.014770 -0.141813
v 0.040855 0.031129 -0.133429
v 0.049210 0.035751 -0.049256
v 0.056410 0.014770 -0.141813
v 0.049210 0.035751 -0.049256
v 0.040855 0.031129 -0.133429
v 0.036069 0.034412 -0.141813
v 0.043596 -0.075471 -0.133429
v 0.031959 -0.083295 -0.141813
v 0.053620 -0.065120 -0.141813
v -0.023222 -0.087154 -0.141813
v -0.028212 -0.085130 -0.133429
v -0.036521 -0.080594 -0.133429
v -0.012909 -0.090012 -0.133731
v -0.023222 -0.087154 -0.141813
v 0.004778 -0.091089 -0.141813
v 0.040384 -0.008618 0.000398
v 0.019076 -0.079742 -0.072105
v 0.036138 -0.066642 -0.069451
v 0.019076 -0.079742 -0.072105
v 0.043159 -0.071970 -0.091949
v 0.036138 -0.066642 -0.069451
v 0.043159 -0.071970 -0.091949
v 0.019076 -0.079742 -0.072105
v 0.018803 -0.087101 -0.091433
v 0.052330 0.007081 -0.008567
v 0.064978 -0.029200 -0.089398
v 0.055332 0.030265 0.002583
v 0.064978 -0.029200 -0.089398
v 0.052330 0.007081 -0.008567
v 0.059826 -0.051023 -0.095602
v -0.045945 -0.003397 -0.003156
v -0.033910 -0.012084 0.000849
v -0.052150 0.049786 0.010222
v -0.052248 0.007052 -0.008607
v -0.045945 -0.003397 -0.003156
v -0.052150 0.049786 0.010222
v 0.025150 -0.087366 -0.108816
v 0.043159 -0.071970 -0.091949
v 0.018803 -0.087101 -0.091433
v -0.018708 0.042111 -0.141813
v -0.027163 0.039215 -0.133436
v -0.052150 0.049786 0.010222
v -0.027163 0.039215 -0.133436
v -0.033076 0.036140 -0.133429
v -0.052150 0.049786 0.010222
v -0.033076 0.036140 -0.133429
v -0.027163 0.039215 -0.133436
v -0.018708 0.042111 -0.141813
v -0.068435 -0.017861 -0.108810
v -0.064860 -0.000378 -0.108809
v -0.067925 -0.020882 -0.141813
v -0.064860 -0.000378 -0.108809
v -0.068435 -0.017861 -0.108810
v -0.052150 0.049786 0.010222
v 0.068473 -0.019566 -0.108810
v 0.065430 -0.002420 -0.108813
v 0.055332 0.030265 0.002583
v 0.065430 -0.002420 -0.108813
v 0.068473 -0.019566 -0.108810
v 0.068182 -0.015107 -0.141805
v 0.065430 -0.002420 -0.108813
v 0.055644 0.027288 -0.034171
v 0.055332 0.030265 0.002583
v 0.065430 -0.002420 -0.108813
v 0.068182 -0.015107 -0.141805
v 0.056410 0.014770 -0.141813
v 0.055644 0.027288 -0.034171
v 0.065430 -0.002420 -0.108813
v 0.056410 0.014770 -0.141813
v 0.064978 -0.029200 -0.089398
v 0.064463 -0.046178 -0.108813
v 0.068499 -0.029762 -0.108764
v 0.064463 -0.046178 -0.108813
v 0.064978 -0.029200 -0.089398
v 0.059826 -0.051023 -0.095602
v 0.062097 -0.050846 -0.108838
v 0.064463 -0.046178 -0.108813
v 0.059826 -0.051023 -0.095602
v 0.064463 -0.046178 -0.108813
v 0.066015 -0.039706 -0.141813
v 0.068499 -0.029762 -0.108764
v 0.066015 -0.039706 -0.141813
v 0.064463 -0.046178 -0.108813
v 0.053620 -0.065120 -0.141813
v 0.064463 -0.046178 -0.108813
v 0.062097 -0.050846 -0.108838
v 0.053620 -0.065120 -0.141813
v 0.043159 -0.071970 -0.091949
v 0.049032 -0.049494 -0.066553
v 0.036138 -0.066642 -0.069451
v 0.049032 -0.049494 -0.066553
v 0.043159 -0.071970 -0.091949
v 0.059826 -0.051023 -0.095602
v 0.049032 -0.049494 -0.066553
v 0.040384 -0.008618 0.000398
v 0.036138 -0.066642 -0.069451
v 0.000845 0.044740 -0.132549
v -0.005849 0.044490 -0.133429
v 0.000003 0.048501 -0.082041
v 0.000003 0.048501 -0.082041
v -0.005849 0.044490 -0.133429
v -0.052150 0.049786 0.010222
v -0.005849 0.044490 -0.133429
v 0.009499 0.044083 -0.141813
v -0.018708 0.042111 -0.141813
v 0.009499 0.044083 -0.141813
v -0.005849 0.044490 -0.133429
v 0.000845 0.044740 -0.132549
v 0.021453 0.041321 -0.133433
v 0.015463 0.043461 -0.133614
v 0.021824 0.044685 -0.082852
v 0.009499 0.044083 -0.141813
v 0.015463 0.043461 -0.133614
v 0.021453 0.041321 -0.133433
v 0.053125 -0.066294 -0.108811
v 0.048027 -0.071429 -0.133429
v 0.053620 -0.065120 -0.141813
v 0.048027 -0.071429 -0.133429
v 0.043596 -0.075471 -0.133429
v 0.053620 -0.065120 -0.141813
v 0.012568 -0.066695 -0.054674
v 0.040384 -0.008618 0.000398
v -0.005469 -0.072490 -0.058481
v 0.019076 -0.079742 -0.072105
v 0.012568 -0.066695 -0.054674
v -0.005469 -0.072490 -0.058481
v 0.012568 -0.066695 -0.054674
v 0.019076 -0.079742 -0.072105
v 0.040384 -0.008618 0.000398
v 0.000016 -0.088012 -0.081241
v 0.019076 -0.079742 -0.072105
v -0.005469 -0.072490 -0.058481
v 0.019076 -0.079742 -0.072105
v 0.000016 -0.088012 -0.081241
v 0.018803 -0.087101 -0.091433
v 0.000016 -0.088012 -0.081241
v -0.018756 -0.087082 -0.091411
v -0.012628 -0.090752 -0.108800
v -0.012909 -0.090012 -0.133731
v -0.019669 -0.088590 -0.129458
v -0.023222 -0.087154 -0.141813
v -0.012628 -0.090752 -0.108800
v -0.019669 -0.088590 -0.129458
v -0.012909 -0.090012 -0.133731
v -0.019669 -0.088590 -0.129458
v -0.012628 -0.090752 -0.108800
v -0.021437 -0.087842 -0.117155
v -0.019669 -0.088590 -0.129458
v -0.028212 -0.085130 -0.133429
v -0.023222 -0.087154 -0.141813
v -0.006687 -0.090922 -0.129556
v -0.012909 -0.090012 -0.133731
v 0.004778 -0.091089 -0.141813
v -0.006687 -0.090922 -0.129556
v -0.012628 -0.090752 -0.108800
v -0.012909 -0.090012 -0.133731
v 0.031959 -0.083295 -0.141813
v 0.020276 -0.088172 -0.133429
v 0.004778 -0.091089 -0.141813
v 0.043159 -0.071970 -0.091949
v 0.036749 -0.080118 -0.108911
v 0.053125 -0.066294 -0.108811
v 0.025150 -0.087366 -0.108816
v 0.036749 -0.080118 -0.108911
v 0.043159 -0.071970 -0.091949
v -0.055754 0.029302 -0.011124
v -0.052248 0.007052 -0.008607
v -0.052150 0.049786 0.010222
v -0.068435 -0.017861 -0.108810
v -0.055754 0.029302 -0.011124
v -0.052150 0.049786 0.010222
v -0.059711 -0.050877 -0.095266
v -0.045945 -0.003397 -0.003156
v -0.052248 0.007052 -0.008607
v 0.049032 -0.049494 -0.066553
v 0.046600 -0.003237 -0.004795
v 0.040384 -0.008618 0.000398
v 0.040384 -0.008618 0.000398
v 0.046600 -0.003237 -0.004795
v 0.055332 0.030265 0.002583
v 0.046600 -0.003237 -0.004795
v 0.052330 0.007081 -0.008567
v 0.055332 0.030265 0.002583
v 0.052330 0.007081 -0.008567
v 0.046600 -0.003237 -0.004795
v 0.059826 -0.051023 -0.095602
v 0.046600 -0.003237 -0.004795
v 0.049032 -0.049494 -0.066553
v 0.059826 -0.051023 -0.095602
v -0.010999 0.043844 -0.133429
v -0.018708 0.042111 -0.141813
v -0.052150 0.049786 0.010222
v -0.005849 0.044490 -0.133429
v -0.010999 0.043844 -0.133429
v -0.052150 0.049786 0.010222
v -0.010999 0.043844 -0.133429
v -0.005849 0.044490 -0.133429
v -0.018708 0.042111 -0.141813
v 0.014740 0.043910 -0.128716
v 0.000003 0.048501 -0.082041
v 0.021824 0.044685 -0.082852
v 0.015463 0.043461 -0.133614
v 0.014740 0.043910 -0.128716
v 0.021824 0.044685 -0.082852
v 0.014740 0.043910 -0.128716
v 0.009499 0.044083 -0.141813
v 0.000003 0.048501 -0.082041
v 0.014740 0.043910 -0.128716
v 0.015463 0.043461 -0.133614
v 0.009499 0.044083 -0.141813
v -0.040786 -0.077639 -0.133429
v -0.047203 -0.072170 -0.141813
v -0.036521 -0.080594 -0.133429
v -0.031269 -0.083857 -0.108814
v -0.019669 -0.088590 -0.129458
v -0.021437 -0.087842 -0.117155
v -0.019669 -0.088590 -0.129458
v -0.031269 -0.083857 -0.108814
v -0.028212 -0.085130 -0.133429
v -0.012628 -0.090752 -0.108800
v -0.031269 -0.083857 -0.108814
v -0.021437 -0.087842 -0.117155
v -0.018756 -0.087082 -0.091411
v -0.031269 -0.083857 -0.108814
v -0.012628 -0.090752 -0.108800
v 0.014396 -0.090206 -0.108796
v 0.004778 -0.091089 -0.108813
v 0.004778 -0.091089 -0.141813
v 0.014396 -0.090206 -0.108796
v 0.025150 -0.087366 -0.108816
v 0.018803 -0.087101 -0.091433
v 0.000016 -0.088012 -0.081241
v 0.014396 -0.090206 -0.108796
v 0.018803 -0.087101 -0.091433
v 0.004778 -0.091089 -0.108813
v 0.014396 -0.090206 -0.108796
v 0.000016 -0.088012 -0.081241
v 0.004778 -0.091089 -0.108813
v 0.001390 -0.091241 -0.117162
v 0.004778 -0.091089 -0.141813
v 0.025150 -0.087366 -0.108816
v 0.027232 -0.085725 -0.133436
v 0.031959 -0.083295 -0.141813
v 0.027232 -0.085725 -0.133436
v 0.020276 -0.088172 -0.133429
v 0.031959 -0.083295 -0.141813
v 0.020276 -0.088172 -0.133429
v 0.027232 -0.085725 -0.133436
v 0.025150 -0.087366 -0.108816
v 0.036749 -0.080118 -0.108911
v 0.042941 -0.076058 -0.117163
v 0.053125 -0.066294 -0.108811
v 0.042941 -0.076058 -0.117163
v 0.048027 -0.071429 -0.133429
v 0.053125 -0.066294 -0.108811
v 0.048027 -0.071429 -0.133429
v 0.042941 -0.076058 -0.117163
v 0.043596 -0.075471 -0.133429
v -0.064873 -0.028869 -0.088964
v -0.059711 -0.050877 -0.095266
v -0.052248 0.007052 -0.008607
v -0.055754 0.029302 -0.011124
v -0.064873 -0.028869 -0.088964
v -0.052248 0.007052 -0.008607
v -0.045945 -0.003397 -0.003156
v -0.036069 -0.066642 -0.069451
v -0.033910 -0.012084 0.000849
v -0.036521 -0.080594 -0.117162
v -0.031269 -0.083857 -0.108814
v -0.036681 -0.080146 -0.108896
v 0.020276 -0.088172 -0.133429
v 0.011067 -0.090354 -0.133429
v 0.004778 -0.091089 -0.141813
v 0.011067 -0.090354 -0.133429
v 0.014396 -0.090206 -0.108796
v 0.004778 -0.091089 -0.141813
v -0.006687 -0.090922 -0.129556
v -0.003885 -0.091142 -0.127678
v -0.012628 -0.090752 -0.108800
v 0.043596 -0.075471 -0.133429
v 0.041493 -0.077156 -0.127055
v 0.031959 -0.083295 -0.141813
v 0.042941 -0.076058 -0.117163
v 0.041493 -0.077156 -0.127055
v 0.043596 -0.075471 -0.133429
v -0.068463 -0.022878 -0.108776
v -0.055754 0.029302 -0.011124
v -0.068435 -0.017861 -0.108810
v -0.068463 -0.022878 -0.108776
v -0.064873 -0.028869 -0.088964
v -0.055754 0.029302 -0.011124
v -0.068463 -0.022878 -0.108776
v -0.068435 -0.017861 -0.108810
v -0.067925 -0.020882 -0.141813
v -0.040786 -0.077639 -0.117162
v -0.036521 -0.080594 -0.117162
v -0.036681 -0.080146 -0.108896
v -0.040786 -0.077639 -0.117162
v -0.040786 -0.077639 -0.133429
v -0.036521 -0.080594 -0.133429
v -0.036521 -0.080594 -0.117162
v -0.040786 -0.077639 -0.117162
v -0.036521 -0.080594 -0.133429
v -0.059711 -0.050877 -0.095266
v -0.048963 -0.049494 -0.066553
v -0.045945 -0.003397 -0.003156
v -0.048963 -0.049494 -0.066553
v -0.036069 -0.066642 -0.069451
v -0.045945 -0.003397 -0.003156
v -0.019007 -0.079742 -0.072105
v 0.000016 -0.088012 -0.081241
v -0.005469 -0.072490 -0.058481
v -0.019007 -0.079742 -0.072105
v -0.018756 -0.087082 -0.091411
v 0.000016 -0.088012 -0.081241
v -0.033910 -0.012084 0.000849
v -0.019007 -0.079742 -0.072105
v -0.005469 -0.072490 -0.058481
v -0.036069 -0.066642 -0.069451
v -0.019007 -0.079742 -0.072105
v -0.033910 -0.012084 0.000849
v -0.043319 -0.071973 -0.092419
v -0.048963 -0.049494 -0.066553
v -0.059711 -0.050877 -0.095266
v -0.048963 -0.049494 -0.066553
v -0.043319 -0.071973 -0.092419
v -0.036069 -0.066642 -0.069451
v -0.043319 -0.071973 -0.092419
v -0.031269 -0.083857 -0.108814
v -0.018756 -0.087082 -0.091411
v -0.031269 -0.083857 -0.108814
v -0.043319 -0.071973 -0.092419
v -0.036681 -0.080146 -0.108896
v -0.019007 -0.079742 -0.072105
v -0.043319 -0.071973 -0.092419
v -0.018756 -0.087082 -0.091411
v -0.043319 -0.071973 -0.092419
v -0.019007 -0.079742 -0.072105
v -0.036069 -0.066642 -0.069451
v -0.034479 -0.081925 -0.123139
v -0.036521 -0.080594 -0.117162
v -0.036521 -0.080594 -0.133429
v -0.036521 -0.080594 -0.117162
v -0.034479 -0.081925 -0.123139
v -0.031269 -0.083857 -0.108814
v -0.028212 -0.085130 -0.133429
v -0.034479 -0.081925 -0.123139
v -0.036521 -0.080594 -0.133429
v -0.031269 -0.083857 -0.108814
v -0.034479 -0.081925 -0.123139
v -0.028212 -0.085130 -0.133429
v 0.017851 -0.089117 -0.125121
v 0.011067 -0.090354 -0.133429
v 0.020276 -0.088172 -0.133429
v 0.011067 -0.090354 -0.133429
v 0.017851 -0.089117 -0.125121
v 0.014396 -0.090206 -0.108796
v 0.017851 -0.089117 -0.125121
v 0.020276 -0.088172 -0.133429
v 0.025150 -0.087366 -0.108816
v 0.014396 -0.090206 -0.108796
v 0.017851 -0.089117 -0.125121
v 0.025150 -0.087366 -0.108816
v -0.003885 -0.091142 -0.127678
v -0.005947 -0.091064 -0.108809
v -0.012628 -0.090752 -0.108800
v -0.005947 -0.091064 -0.108809
v 0.001390 -0.091241 -0.117162
v 0.004778 -0.091089 -0.108813
v -0.005947 -0.091064 -0.108809
v 0.000016 -0.088012 -0.081241
v -0.012628 -0.090752 -0.108800
v -0.005947 -0.091064 -0.108809
v 0.004778 -0.091089 -0.108813
v 0.000016 -0.088012 -0.081241
v 0.001390 -0.091241 -0.117162
v 0.000262 -0.091255 -0.131608
v 0.004778 -0.091089 -0.141813
v 0.000262 -0.091255 -0.131608
v -0.006687 -0.090922 -0.129556
v 0.004778 -0.091089 -0.141813
v 0.000262 -0.091255 -0.131608
v -0.003885 -0.091142 -0.127678
v -0.006687 -0.090922 -0.129556
v -0.005947 -0.091064 -0.108809
v 0.000262 -0.091255 -0.131608
v 0.001390 -0.091241 -0.117162
v 0.000262 -0.091255 -0.131608
v -0.005947 -0.091064 -0.108809
v -0.003885 -0.091142 -0.127678
v 0.037558 -0.079964 -0.121206
v 0.042941 -0.076058 -0.117163
v 0.036749 -0.080118 -0.108911
v 0.037558 -0.079964 -0.121206
v 0.041493 -0.077156 -0.127055
v 0.042941 -0.076058 -0.117163
v 0.041493 -0.077156 -0.127055
v 0.037558 -0.079964 -0.121206
v 0.031959 -0.083295 -0.141813
v -0.064873 -0.028869 -0.088964
v -0.065592 -0.042213 -0.108814
v -0.059711 -0.050877 -0.095266
v -0.068463 -0.022878 -0.108776
v -0.065592 -0.042213 -0.108814
v -0.064873 -0.028869 -0.088964
v -0.065592 -0.042213 -0.108814
v -0.067925 -0.020882 -0.141813
v -0.063015 -0.048728 -0.141813
v -0.065592 -0.042213 -0.108814
v -0.068463 -0.022878 -0.108776
v -0.067925 -0.020882 -0.141813
v -0.056976 -0.060272 -0.108813
v -0.053039 -0.066613 -0.108816
v -0.059711 -0.050877 -0.095266
v -0.053039 -0.066613 -0.108816
v -0.043319 -0.071973 -0.092419
v -0.059711 -0.050877 -0.095266
v -0.047203 -0.072170 -0.141813
v -0.053039 -0.066613 -0.108816
v -0.063015 -0.048728 -0.141813
v -0.053039 -0.066613 -0.108816
v -0.056976 -0.060272 -0.108813
v -0.063015 -0.048728 -0.141813
v 0.033932 -0.082268 -0.117163
v 0.036749 -0.080118 -0.108911
v 0.025150 -0.087366 -0.108816
v 0.033932 -0.082268 -0.117163
v 0.037558 -0.079964 -0.121206
v 0.036749 -0.080118 -0.108911
v 0.033932 -0.082268 -0.117163
v 0.025150 -0.087366 -0.108816
v 0.031959 -0.083295 -0.141813
v 0.037558 -0.079964 -0.121206
v 0.033932 -0.082268 -0.117163
v 0.031959 -0.083295 -0.141813
v -0.064652 -0.044236 -0.108867
v -0.056976 -0.060272 -0.108813
v -0.059711 -0.050877 -0.095266
v -0.065592 -0.042213 -0.108814
v -0.064652 -0.044236 -0.108867
v -0.059711 -0.050877 -0.095266
v -0.056976 -0.060272 -0.108813
v -0.064652 -0.044236 -0.108867
v -0.063015 -0.048728 -0.141813
v -0.064652 -0.044236 -0.108867
v -0.065592 -0.042213 -0.108814
v -0.063015 -0.048728 -0.141813
v -0.043319 -0.071973 -0.092419
v -0.048715 -0.070915 -0.108791
v -0.036681 -0.080146 -0.108896
v -0.053039 -0.066613 -0.108816
v -0.048715 -0.070915 -0.108791
v -0.043319 -0.071973 -0.092419
v -0.048715 -0.070915 -0.108791
v -0.040786 -0.077639 -0.117162
v -0.036681 -0.080146 -0.108896
v -0.048715 -0.070915 -0.108791
v -0.053039 -0.066613 -0.108816
v -0.047203 -0.072170 -0.141813
v -0.040786 -0.077639 -0.133429
v -0.048715 -0.070915 -0.108791
v -0.047203 -0.072170 -0.141813
v -0.040786 -0.077639 -0.117162
v -0.048715 -0.070915 -0.108791
v -0.040786 -0.077639 -0.133429
vn 0.1843 0.9785 0.0929
vn 0.1747 0.9809 0.0851
vn -0.0000 -0.0000 -1.0000
vn -0.7816 0.6106 -0.1277
vn 0.0012 0.0002 -1.0000
vn 0.9950 -0.0876 -0.0484
vn 0.2232 0.9718 0.0765
vn 0.8273 0.5605 -0.0384
vn 0.8409 0.5383 -0.0566
vn -0.5218 -0.8351 -0.1742
vn 0.0366 -0.6914 0.7215
vn 0.0566 -0.0777 0.9954
vn 0.0128 -0.1461 0.9892
vn -0.4805 0.8648 -0.1459
vn -0.4624 0.8696 -0.1731
vn -0.9431 0.3303 -0.0385
vn -0.9685 0.2415 -0.0601
vn 0.9933 0.0030 0.1158
vn 1.0000 0.0025 -0.0085
vn 0.9759 -0.1216 0.1810
vn 0.7763 -0.5712 0.2665
vn 0.8563 -0.4971 0.1403
vn 0.8647 -0.5023 -0.0049
vn -0.0038 0.9972 -0.0743
vn 0.3367 0.9251 -0.1755
vn 0.3675 0.9223 -0.1194
vn 0.4116 0.9085 -0.0716
vn 0.3694 0.9270 -0.0644
vn 0.3783 0.9235 -0.0628
vn 0.6901 0.7146 -0.1141
vn 0.6923 0.7135 -0.1079
vn 0.6835 0.7220 -0.1075
vn 0.6329 -0.7543 -0.1745
vn -0.4779 -0.8754 -0.0731
vn -0.1371 -0.9758 -0.1701
vn 0.4511 -0.6998 0.5539
vn 0.5359 -0.7687 0.3492
vn 0.5079 -0.8074 0.3002
vn 0.9353 -0.2442 0.2560
vn 0.9152 -0.2943 0.2753
vn -0.4719 -0.2664 0.8404
vn -0.8244 -0.2266 0.5186
vn 0.5199 -0.8299 0.2025
vn -0.4441 0.8846 -0.1423
vn -0.4566 0.8779 -0.1440
vn -0.4557 0.8761 -0.1570
vn -0.9792 0.2002 -0.0335
vn -0.9795 0.2003 0.0202
vn 0.9839 0.1746 0.0380
vn 0.9845 0.1747 0.0149
vn 0.9324 0.3607 -0.0213
vn 0.9285 0.3658 -0.0632
vn 0.9145 0.4025 -0.0403
vn 0.9550 -0.2353 0.1805
vn 0.9326 -0.2836 0.2233
vn 0.8822 -0.4479 0.1454
vn 0.9711 -0.2387 -0.0012
vn 0.8979 -0.4379 -0.0437
vn 0.8915 -0.4517 -0.0337
vn 0.7137 -0.5982 0.3644
vn 0.7687 -0.5567 0.3149
vn 0.6781 -0.5851 0.4448
vn -0.0274 0.9968 -0.0747
vn -0.0938 0.9933 -0.0669
vn -0.0687 0.9824 -0.1734
vn -0.0248 0.9953 -0.0938
vn 0.3373 0.9391 -0.0649
vn 0.3358 0.9257 -0.1741
vn 0.7397 -0.6728 -0.0128
vn 0.6701 -0.7347 -0.1058
vn 0.0779 -0.7054 0.7045
vn 0.1171 -0.7736 0.6228
vn 0.2532 -0.7268 0.6385
vn 0.0781 -0.8148 0.5745
vn 0.2304 -0.9105 0.3434
vn -0.1346 -0.9781 0.1590
vn -0.2333 -0.9713 -0.0458
vn -0.2218 -0.9747 -0.0265
vn -0.3232 -0.9463 0.0111
vn -0.3755 -0.9268 0.0003
vn -0.0948 -0.9927 -0.0751
vn -0.1263 -0.9916 -0.0280
vn 0.2715 -0.9469 -0.1725
vn 0.6398 -0.7587 0.1227
vn 0.5202 -0.8298 0.2021
vn -0.9539 -0.1192 0.2755
vn -0.9927 0.0813 0.0896
vn -0.8761 -0.3626 0.3178
vn 0.7678 -0.4979 0.4032
vn 0.7556 -0.3225 0.5702
vn 0.8478 -0.3149 0.4266
vn 0.8730 -0.3676 0.3206
vn 0.8497 -0.4054 0.3371
vn -0.1354 0.9876 -0.0796
vn -0.1241 0.9893 -0.0765
vn -0.1240 0.9882 -0.0902
vn 0.1705 0.9844 -0.0430
vn 0.2405 0.9692 -0.0535
vn 0.1537 0.9869 -0.0485
vn 0.1878 0.9802 -0.0623
vn -0.5666 -0.8179 -0.1000
vn -0.3737 -0.9276 0.0027
vn -0.3759 -0.9267 0.0013
vn -0.3467 -0.9372 0.0391
vn -0.3460 -0.9352 0.0755
vn 0.0915 -0.9958 -0.0000
vn 0.2540 -0.9612 0.1074
vn 0.1255 -0.9816 0.1437
vn 0.0905 -0.9879 0.1259
vn 0.0448 -0.9990 -0.0000
vn 0.4221 -0.9062 -0.0247
vn 0.3306 -0.9399 -0.0861
vn 0.3316 -0.9428 -0.0348
vn 0.6410 -0.7601 0.1070
vn 0.6883 -0.7254 0.0088
vn 0.6739 -0.7388 0.0005
vn -0.9155 -0.2935 0.2750
vn -0.9692 -0.1290 0.2099
vn -0.6104 -0.6165 0.4972
vn -0.5656 -0.8240 0.0338
vn 0.2297 -0.9693 -0.0873
vn 0.1315 -0.9912 -0.0118
vn -0.0702 -0.9975 -0.0119
vn 0.5717 -0.8200 -0.0282
vn 0.6190 -0.7854 -0.0034
vn -0.9921 0.0065 0.1256
vn -0.9852 -0.0601 0.1604
vn -0.9999 0.0056 -0.0160
vn -0.5691 -0.8216 0.0336
vn -0.5694 -0.8220 -0.0000
vn -0.8483 -0.4082 0.3372
vn -0.6727 -0.5828 0.4558
vn -0.1010 -0.8331 0.5438
vn -0.2310 -0.9104 0.3431
vn -0.2426 -0.7355 0.6326
vn -0.4500 -0.6988 0.5561
vn -0.7696 -0.5555 0.3148
vn -0.7138 -0.5982 0.3641
vn -0.5177 -0.8270 0.2190
vn -0.5584 -0.8104 0.1770
vn -0.5087 -0.8069 0.3002
vn -0.5363 -0.7690 0.3478
vn -0.5460 -0.8378 -0.0000
vn -0.5342 -0.8453 0.0057
vn -0.4791 -0.8776 -0.0184
vn -0.4722 -0.8814 -0.0130
vn 0.2303 -0.9721 -0.0433
vn 0.2053 -0.9785 -0.0218
vn 0.2863 -0.9578 -0.0253
vn 0.2553 -0.9668 -0.0105
vn -0.0466 -0.9989 -0.0010
vn -0.0023 -0.9998 0.0192
vn -0.0461 -0.9917 0.1198
vn -0.0023 -0.9939 0.1105
vn 0.0330 -0.9995 -0.0016
vn -0.0604 -0.9972 -0.0430
vn -0.0571 -0.9979 -0.0315
vn -0.0212 -0.9998 0.0026
vn -0.0261 -0.9997 0.0013
vn 0.5736 -0.8187 0.0275
vn 0.5852 -0.8109 0.0043
vn 0.5620 -0.8269 -0.0190
vn -0.9326 -0.2829 0.2240
vn -0.9803 -0.1458 0.1336
vn -0.9839 -0.1735 -0.0426
vn -0.9889 -0.1468 -0.0250
vn -0.8340 -0.5178 0.1907
vn -0.7768 -0.5664 0.2753
vn -0.8279 -0.5584 -0.0524
vn -0.8493 -0.5272 -0.0290
vn 0.5297 -0.8472 0.0399
vn 0.5567 -0.8303 0.0262
vn 0.4993 -0.8664 -0.0039
vn 0.5305 -0.8476 -0.0072
vn -0.8960 -0.4285 0.1163
vn -0.8990 -0.4208 0.1211
vn -0.9019 -0.4317 0.0140
vn -0.9067 -0.4216 0.0124
vn -0.6012 -0.7854 0.1474
vn -0.6938 -0.6963 0.1837
vn -0.6071 -0.7922 0.0613
vn -0.7052 -0.7090 -0.0054
vn -0.6481 -0.7615 -0.0007
vn -0.6468 -0.7627 -0.0000
s 1
usemtl material_0
f 1//1 2//1 3//1
f 4//2 5//2 6//2
f 7//3 8//3 9//3
f 10//4 11//4 12//4
f 13//3 14//3 15//3
f 16//3 17//3 18//3
f 19//5 20//5 21//5
f 22//6 23//6 24//6
f 25//7 26//7 27//7
f 28//8 29//8 30//8
f 31//9 32//9 33//9
f 34//3 35//3 36//3
f 37//3 38//3 39//3
f 40//3 41//3 42//3
f 43//10 44//10 45//10
f 46//11 47//11 48//11
f 49//12 50//12 51//12
f 52//13 53//13 54//13
f 55//14 56//14 57//14
f 58//15 59//15 60//15
f 61//16 62//16 63//16
f 64//17 65//17 66//17
f 67//18 68//18 69//18
f 70//19 71//19 72//19
f 73//20 74//20 75//20
f 76//21 77//21 78//21
f 79//22 80//22 81//22
f 82//23 83//23 84//23
f 85//24 86//24 87//24
f 88//25 89//25 90//25
f 91//3 92//3 93//3
f 94//3 95//3 96//3
f 97//3 98//3 99//3
f 100//3 101//3 102//3
f 103//3 104//3 105//3
f 106//3 107//3 108//3
f 109//26 110//26 111//26
f 112//27 113//27 114//27
f 115//28 116//28 117//28
f 118//29 119//29 120//29
f 121//30 122//30 123//30
f 124//31 125//31 126//31
f 127//32 128//32 129//32
f 130//33 131//33 132//33
f 133//34 134//34 135//34
f 136//35 137//35 138//35
f 139//36 140//36 141//36
f 142//37 143//37 144//37
f 145//38 146//38 147//38
f 148//39 149//39 150//39
f 151//40 152//40 153//40
f 154//41 155//41 156//41
f 157//42 158//42 159//42
f 160//43 161//43 162//43
f 163//44 164//44 165//44
f 166//45 167//45 168//45
f 169//46 170//46 171//46
f 172//47 173//47 174//47
f 175//48 176//48 177//48
f 178//49 179//49 180//49
f 181//50 182//50 183//50
f 184//51 185//51 186//51
f 187//52 188//52 189//52
f 190//53 191//53 192//53
f 193//54 194//54 195//54
f 196//55 197//55 198//55
f 199//56 200//56 201//56
f 202//57 203//57 204//57
f 205//58 206//58 207//58
f 208//59 209//59 210//59
f 211//60 212//60 213//60
f 214//61 215//61 216//61
f 217//62 218//62 219//62
f 220//63 221//63 222//63
f 223//64 224//64 225//64
f 226//65 227//65 228//65
f 229//66 230//66 231//66
f 232//67 233//67 234//67
f 235//68 236//68 237//68
f 238//69 239//69 240//69
f 241//70 242//70 243//70
f 244//71 245//71 246//71
f 247//72 248//72 249//72
f 250//73 251//73 252//73
f 253//74 254//74 255//74
f 256//75 257//75 258//75
f 259//76 260//76 261//76
f 262//77 263//77 264//77
f 265//78 266//78 267//78
f 268//79 269//79 270//79
f 271//80 272//80 273//80
f 274//81 275//81 276//81
f 277//82 278//82 279//82
f 280//83 281//83 282//83
f 283//84 284//84 285//84
f 286//85 287//85 288//85
f 289//86 290//86 291//86
f 292//87 293//87 294//87
f 295//88 296//88 297//88
f 298//89 299//89 300//89
f 301//90 302//90 303//90
f 304//91 305//91 306//91
f 307//92 308//92 309//92
f 310//93 311//93 312//93
f 313//94 314//94 315//94
f 316//95 317//95 318//95
f 319//96 320//96 321//96
f 322//97 323//97 324//97
f 325//98 326//98 327//98
f 328//99 329//99 330//99
f 331//100 332//100 333//100
f 334//101 335//101 336//101
f 337//102 338//102 339//102
f 340//103 341//103 342//103
f 343//104 344//104 345//104
f 346//105 347//105 348//105
f 349//106 350//106 351//106
f 352//107 353//107 354//107
f 355//108 356//108 357//108
f 358//109 359//109 360//109
f 361//110 362//110 363//110
f 364//111 365//111 366//111
f 367//112 368//112 369//112
f 370//113 371//113 372//113
f 373//114 374//114 375//114
f 376//115 377//115 378//115
f 379//116 380//116 381//116
f 382//117 383//117 384//117
f 385//118 386//118 387//118
f 388//119 389//119 390//119
f 391//120 392//120 393//120
f 394//121 395//121 396//121
f 397//122 398//122 399//122
f 400//123 401//123 402//123
f 403//124 404//124 405//124
f 406//125 407//125 408//125
f 409//126 410//126 411//126
f 412//127 413//127 414//127
f 415//128 416//128 417//128
f 418//129 419//129 420//129
f 421//130 422//130 423//130
f 424//130 425//130 426//130
f 427//131 428//131 429//131
f 430//132 431//132 432//132
f 433//133 434//133 435//133
f 436//134 437//134 438//134
f 439//135 440//135 441//135
f 442//136 443//136 444//136
f 445//137 446//137 447//137
f 448//138 449//138 450//138
f 451//139 452//139 453//139
f 454//140 455//140 456//140
f 457//141 458//141 459//141
f 460//142 461//142 462//142
f 463//143 464//143 465//143
f 466//144 467//144 468//144
f 469//145 470//145 471//145
f 472//146 473//146 474//146
f 475//147 476//147 477//147
f 478//148 479//148 480//148
f 481//149 482//149 483//149
f 484//150 485//150 486//150
f 487//151 488//151 489//151
f 490//152 491//152 492//152
f 493//153 494//153 495//153
f 496//154 497//154 498//154
f 499//155 500//155 501//155
f 502//156 503//156 504//156
f 505//157 506//157 507//157
f 508//158 509//158 510//158
f 511//159 512//159 513//159
f 514//160 515//160 516//160
f 517//161 518//161 519//161
f 520//162 521//162 522//162
f 523//163 524//163 525//163
f 526//164 527//164 528//164
f 529//165 530//165 531//165
f 532//166 533//166 534//166
f 535//167 536//167 537//167
f 538//168 539//168 540//168
f 541//169 542//169 543//169
f 544//170 545//170 546//170
f 547//171 548//171 549//171
f 550//172 551//172 552//172
f 553//173 554//173 555//173
f 556//174 557//174 558//174
f 559//175 560//175 561//175
f 562//176 563//176 564//176
f 565//177 566//177 567//177
f 568//178 569//178 570//178
f 571//179 572//179 573//179
f 574//180 575//180 576//180
f 577//181 578//181 579//181
f 580//182 581//182 582//182
f 583//183 584//183 585//183
f 586//184 587//184 588//184
