# Blender 4.5.10 LTS
# www.blender.org
mtllib iiwa_robot_base_coll_8.mtl
o node
v 0.102635 -0.009738 0.011419
v 0.126858 -0.013112 -0.071479
v 0.128750 0.013354 -0.076638
v 0.126858 -0.013112 -0.071479
v 0.123299 -0.038553 -0.076425
v 0.128750 0.013354 -0.076638
v 0.123299 -0.038553 -0.076425
v 0.126858 -0.013112 -0.071479
v 0.102635 -0.009738 0.011419
v 0.005343 -0.115164 -0.078660
v 0.123299 -0.038553 -0.076425
v -0.000290 -0.121905 -0.076749
v 0.004799 -0.116019 -0.056807
v 0.005518 -0.110397 -0.039585
v -0.000290 -0.121905 -0.076749
v 0.092026 -0.050953 -0.001289
v 0.102635 -0.009738 0.011419
v -0.107516 0.053079 -0.016468
v 0.005518 -0.110397 -0.039585
v 0.092026 -0.050953 -0.001289
v -0.107516 0.053079 -0.016468
v 0.004799 -0.116019 -0.056807
v 0.092026 -0.050953 -0.001289
v 0.005518 -0.110397 -0.039585
v 0.123299 -0.038553 -0.076425
v 0.092026 -0.050953 -0.001289
v -0.000290 -0.121905 -0.076749
v 0.092026 -0.050953 -0.001289
v 0.004799 -0.116019 -0.056807
v -0.000290 -0.121905 -0.076749
v -0.106736 0.065271 -0.074646
v -0.106638 -0.065422 -0.076606
v -0.107516 0.053079 -0.016468
v -0.106638 -0.065422 -0.076606
v -0.106736 0.065271 -0.074646
v -0.091579 0.073348 -0.078366
v 0.005518 -0.110397 -0.039585
v -0.048828 -0.108531 -0.076335
v -0.000290 -0.121905 -0.076749
v -0.048828 -0.108531 -0.076335
v 0.005343 -0.115164 -0.078660
v -0.000290 -0.121905 -0.076749
v 0.005209 0.110644 -0.039112
v -0.001072 0.121905 -0.076692
v -0.107516 0.053079 -0.016468
v -0.001072 0.121905 -0.076692
v -0.106736 0.065271 -0.074646
v -0.107516 0.053079 -0.016468
v -0.106736 0.065271 -0.074646
v -0.001072 0.121905 -0.076692
v -0.091579 0.073348 -0.078366
v -0.001072 0.121905 -0.076692
v 0.005343 0.115272 -0.078660
v -0.091579 0.073348 -0.078366
v 0.100935 -0.031922 -0.001273
v 0.123299 -0.038553 -0.076425
v 0.102635 -0.009738 0.011419
v 0.092026 -0.050953 -0.001289
v 0.100935 -0.031922 -0.001273
v 0.102635 -0.009738 0.011419
v 0.100935 -0.031922 -0.001273
v 0.092026 -0.050953 -0.001289
v 0.123299 -0.038553 -0.076425
v -0.068261 -0.092195 -0.067293
v -0.048828 -0.108531 -0.076335
v 0.005518 -0.110397 -0.039585
v -0.072753 -0.080189 -0.078665
v -0.070380 -0.057711 -0.078691
v 0.005343 -0.115164 -0.078660
v 0.097931 0.031213 0.011419
v 0.092068 0.050898 -0.000881
v 0.005209 0.110644 -0.039112
v 0.121229 0.038241 -0.071065
v 0.097931 0.031213 0.011419
v 0.128750 0.013354 -0.076638
v 0.092068 0.050898 -0.000881
v 0.093624 0.063903 -0.030648
v 0.005209 0.110644 -0.039112
v 0.123299 -0.038553 -0.076425
v 0.007261 -0.110946 -0.078663
v 0.128750 0.013354 -0.076638
v 0.005343 -0.115164 -0.078660
v 0.007261 -0.110946 -0.078663
v 0.123299 -0.038553 -0.076425
v -0.070380 -0.057711 -0.078691
v 0.007261 -0.110946 -0.078663
v 0.005343 -0.115164 -0.078660
v 0.005343 0.115272 -0.078660
v -0.072753 0.072546 -0.078663
v -0.091579 0.073348 -0.078366
v -0.072753 0.072546 -0.078663
v -0.072753 -0.080189 -0.078665
v -0.091579 0.073348 -0.078366
v -0.106638 -0.065422 -0.076606
v -0.086205 -0.074998 -0.067485
v -0.107516 0.053079 -0.016468
v -0.091894 -0.072905 -0.078082
v -0.106638 -0.065422 -0.076606
v -0.091579 0.073348 -0.078366
v -0.072753 -0.080189 -0.078665
v -0.091894 -0.072905 -0.078082
v -0.091579 0.073348 -0.078366
v -0.048828 -0.108531 -0.076335
v -0.064981 -0.098131 -0.077191
v 0.005343 -0.115164 -0.078660
v -0.064981 -0.098131 -0.077191
v -0.072753 -0.080189 -0.078665
v 0.005343 -0.115164 -0.078660
v -0.064981 -0.098131 -0.077191
v -0.091894 -0.072905 -0.078082
v -0.072753 -0.080189 -0.078665
v -0.091894 -0.072905 -0.078082
v -0.064981 -0.098131 -0.077191
v -0.106638 -0.065422 -0.076606
v -0.064981 -0.098131 -0.077191
v -0.068261 -0.092195 -0.067293
v -0.106638 -0.065422 -0.076606
v -0.068261 -0.092195 -0.067293
v -0.064981 -0.098131 -0.077191
v -0.048828 -0.108531 -0.076335
v 0.105703 0.010361 -0.001270
v 0.102635 -0.009738 0.011419
v 0.128750 0.013354 -0.076638
v 0.097931 0.031213 0.011419
v 0.105703 0.010361 -0.001270
v 0.128750 0.013354 -0.076638
v 0.105703 0.010361 -0.001270
v 0.097931 0.031213 0.011419
v 0.102635 -0.009738 0.011419
v -0.087203 0.056707 -0.013297
v 0.005209 0.110644 -0.039112
v -0.107516 0.053079 -0.016468
v -0.087203 0.056707 -0.013297
v 0.097931 0.031213 0.011419
v 0.005209 0.110644 -0.039112
v 0.102635 -0.009738 0.011419
v -0.087203 0.056707 -0.013297
v -0.107516 0.053079 -0.016468
v 0.097931 0.031213 0.011419
v -0.087203 0.056707 -0.013297
v 0.102635 -0.009738 0.011419
v 0.112630 0.061873 -0.076347
v 0.005343 0.115272 -0.078660
v -0.001072 0.121905 -0.076692
v 0.005343 0.115272 -0.078660
v 0.112630 0.061873 -0.076347
v 0.128750 0.013354 -0.076638
v 0.112630 0.061873 -0.076347
v 0.121229 0.038241 -0.071065
v 0.128750 0.013354 -0.076638
v 0.112630 0.061873 -0.076347
v 0.093624 0.063903 -0.030648
v 0.092068 0.050898 -0.000881
v 0.097931 0.031213 0.011419
v 0.112630 0.061873 -0.076347
v 0.092068 0.050898 -0.000881
v 0.121229 0.038241 -0.071065
v 0.112630 0.061873 -0.076347
v 0.097931 0.031213 0.011419
v 0.004798 0.116129 -0.056863
v -0.001072 0.121905 -0.076692
v 0.005209 0.110644 -0.039112
v 0.093624 0.063903 -0.030648
v 0.004798 0.116129 -0.056863
v 0.005209 0.110644 -0.039112
v 0.004798 0.116129 -0.056863
v 0.112630 0.061873 -0.076347
v -0.001072 0.121905 -0.076692
v 0.112630 0.061873 -0.076347
v 0.004798 0.116129 -0.056863
v 0.093624 0.063903 -0.030648
v 0.007261 0.111054 -0.078663
v 0.005343 0.115272 -0.078660
v 0.128750 0.013354 -0.076638
v 0.007261 -0.110946 -0.078663
v 0.007261 0.111054 -0.078663
v 0.128750 0.013354 -0.076638
v -0.068261 -0.092195 -0.067293
v -0.075598 -0.084911 -0.066416
v -0.106638 -0.065422 -0.076606
v -0.075598 -0.084911 -0.066416
v -0.086205 -0.074998 -0.067485
v -0.106638 -0.065422 -0.076606
v -0.075598 -0.084911 -0.066416
v -0.068261 -0.092195 -0.067293
v 0.005518 -0.110397 -0.039585
v -0.075598 -0.084911 -0.066416
v 0.005518 -0.110397 -0.039585
v -0.107516 0.053079 -0.016468
v -0.086205 -0.074998 -0.067485
v -0.075598 -0.084911 -0.066416
v -0.107516 0.053079 -0.016468
v -0.049699 0.077082 -0.078712
v 0.007261 -0.110946 -0.078663
v -0.070380 -0.057711 -0.078691
v -0.049699 0.077082 -0.078712
v 0.007261 0.111054 -0.078663
v 0.007261 -0.110946 -0.078663
v -0.049699 0.077082 -0.078712
v -0.072753 0.072546 -0.078663
v 0.005343 0.115272 -0.078660
v 0.007261 0.111054 -0.078663
v -0.049699 0.077082 -0.078712
v 0.005343 0.115272 -0.078660
v -0.070668 0.057314 -0.078687
v -0.049699 0.077082 -0.078712
v -0.070380 -0.057711 -0.078691
v -0.049699 0.077082 -0.078712
v -0.070668 0.057314 -0.078687
v -0.072753 0.072546 -0.078663
v -0.072753 -0.080189 -0.078665
v -0.070668 0.057314 -0.078687
v -0.070380 -0.057711 -0.078691
v -0.072753 0.072546 -0.078663
v -0.070668 0.057314 -0.078687
v -0.072753 -0.080189 -0.078665
vn 0.9596 -0.0138 0.2810
vn 0.9796 -0.1036 -0.1722
vn 0.9409 -0.1866 0.2825
vn 0.3483 -0.5134 -0.7843
vn -0.1378 -0.9399 0.3126
vn -0.1983 -0.2418 0.9498
vn -0.2187 -0.2833 0.9338
vn 0.4676 -0.8459 0.2566
vn 0.5564 -0.8254 0.0954
vn 0.5515 -0.8277 0.1036
vn -0.9999 -0.0005 -0.0135
vn -0.2455 0.0144 -0.9693
vn -0.2490 -0.9135 0.3218
vn -0.0685 -0.2186 -0.9734
vn -0.3781 0.8675 0.3231
vn -0.4624 0.8690 0.1759
vn -0.4726 0.8812 -0.0120
vn -0.0903 0.2019 -0.9752
vn 0.9244 -0.2403 0.2963
vn 0.7694 -0.3606 0.5273
vn 0.8657 -0.4055 0.2934
vn -0.3858 -0.7536 0.5323
vn -0.0004 -0.0011 -1.0000
vn -0.0110 0.5275 0.8495
vn 0.9340 0.2190 0.2825
vn 0.4025 0.8309 0.3841
vn 0.0234 -0.0065 -0.9997
vn 0.0276 -0.0133 -0.9995
vn -0.0001 -0.0007 -1.0000
vn -0.0146 0.0268 -0.9995
vn -0.0158 -0.0000 -0.9999
vn -0.5214 -0.3892 0.7594
vn -0.1005 -0.0017 -0.9949
vn -0.0312 -0.0019 -0.9995
vn -0.0642 -0.1805 -0.9815
vn -0.0453 -0.1013 -0.9938
vn -0.0733 -0.1131 -0.9909
vn -0.2387 -0.2874 -0.9276
vn -0.5941 -0.7613 0.2597
vn -0.5274 -0.7943 0.3016
vn 0.9551 0.0396 0.2936
vn 0.9402 0.1714 0.2943
vn 0.9156 0.1052 0.3880
vn -0.2307 0.7124 0.6628
vn -0.0474 0.4962 0.8669
vn -0.1456 -0.0484 0.9882
vn -0.1344 -0.0154 0.9908
vn 0.2681 0.5030 -0.8216
vn 0.0294 0.0158 -0.9994
vn 0.9408 0.3133 -0.1297
vn 0.7632 0.5766 0.2918
vn 0.8495 0.4374 0.2951
vn 0.8799 0.3830 0.2812
vn -0.0618 0.9532 0.2960
vn 0.4323 0.8643 0.2570
vn 0.4633 0.8782 0.1187
vn 0.4663 0.8709 0.1552
vn 0.0272 0.0131 -0.9995
vn 0.0167 -0.0000 -0.9999
vn -0.5702 -0.6368 0.5190
vn -0.5377 -0.5024 0.6771
vn -0.4099 -0.5043 0.7601
vn -0.3976 -0.3922 0.8295
vn -0.4491 -0.3941 0.8019
vn 0.0002 -0.0002 -1.0000
vn 0.0009 -0.0000 -1.0000
vn -0.0034 0.0062 -1.0000
vn 0.0003 0.0009 -1.0000
vn -0.0012 -0.0000 -1.0000
vn -0.0024 0.0013 -1.0000
vn -0.0107 -0.0000 -0.9999
vn -0.0116 -0.0000 -0.9999
s 1
usemtl material_0
f 1//1 2//1 3//1
f 4//2 5//2 6//2
f 7//3 8//3 9//3
f 10//4 11//4 12//4
f 13//5 14//5 15//5
f 16//6 17//6 18//6
f 19//7 20//7 21//7
f 22//8 23//8 24//8
f 25//9 26//9 27//9
f 28//10 29//10 30//10
f 31//11 32//11 33//11
f 34//12 35//12 36//12
f 37//13 38//13 39//13
f 40//14 41//14 42//14
f 43//15 44//15 45//15
f 46//16 47//16 48//16
f 49//17 50//17 51//17
f 52//18 53//18 54//18
f 55//19 56//19 57//19
f 58//20 59//20 60//20
f 61//21 62//21 63//21
f 64//22 65//22 66//22
f 67//23 68//23 69//23
f 70//24 71//24 72//24
f 73//25 74//25 75//25
f 76//26 77//26 78//26
f 79//27 80//27 81//27
f 82//28 83//28 84//28
f 85//29 86//29 87//29
f 88//30 89//30 90//30
f 91//31 92//31 93//31
f 94//32 95//32 96//32
f 97//33 98//33 99//33
f 100//34 101//34 102//34
f 103//35 104//35 105//35
f 106//36 107//36 108//36
f 109//37 110//37 111//37
f 112//38 113//38 114//38
f 115//39 116//39 117//39
f 118//40 119//40 120//40
f 121//41 122//41 123//41
f 124//42 125//42 126//42
f 127//43 128//43 129//43
f 130//44 131//44 132//44
f 133//45 134//45 135//45
f 136//46 137//46 138//46
f 139//47 140//47 141//47
f 142//48 143//48 144//48
f 145//49 146//49 147//49
f 148//50 149//50 150//50
f 151//51 152//51 153//51
f 154//52 155//52 156//52
f 157//53 158//53 159//53
f 160//54 161//54 162//54
f 163//55 164//55 165//55
f 166//56 167//56 168//56
f 169//57 170//57 171//57
f 172//58 173//58 174//58
f 175//59 176//59 177//59
f 178//60 179//60 180//60
f 181//61 182//61 183//61
f 184//62 185//62 186//62
f 187//63 188//63 189//63
f 190//64 191//64 192//64
f 193//65 194//65 195//65
f 196//66 197//66 198//66
f 199//67 200//67 201//67
f 202//68 203//68 204//68
f 205//69 206//69 207//69
f 208//70 209//70 210//70
f 211//71 212//71 213//71
f 214//72 215//72 216//72
