# Blender 4.5.10 LTS
# www.blender.org
mtllib iiwa_link8_resp_coll_1.mtl
o node
v 0.051942 0.008551 -0.016320
v -0.028338 0.043667 -0.016130
v 0.000841 0.045452 0.002574
v -0.049251 -0.017000 -0.016269
v 0.051942 0.008551 -0.016320
v -0.012596 -0.050758 -0.016287
v 0.051942 0.008551 -0.016320
v -0.049251 -0.017000 -0.016269
v -0.028338 0.043667 -0.016130
v -0.028338 0.043667 -0.016130
v -0.022347 0.039981 0.002766
v 0.000841 0.045452 0.002574
v 0.051942 0.008551 -0.016320
v 0.042616 -0.019463 0.002507
v 0.051339 -0.008553 -0.015746
v 0.001373 -0.045940 0.002717
v 0.042616 -0.019463 0.002507
v -0.015747 -0.027712 0.009167
v -0.049251 -0.017000 -0.016269
v -0.049096 0.016999 -0.016129
v -0.028338 0.043667 -0.016130
v -0.028339 -0.043667 -0.016129
v -0.049251 -0.017000 -0.016269
v -0.012596 -0.050758 -0.016287
v -0.025229 0.018514 0.009418
v -0.022347 0.039981 0.002766
v -0.042385 0.019017 0.002052
v -0.049096 0.016999 -0.016129
v -0.040728 0.031902 -0.015885
v -0.028338 0.043667 -0.016130
v -0.040728 0.031902 -0.015885
v -0.049096 0.016999 -0.016129
v -0.042385 0.019017 0.002052
v -0.040728 0.031902 -0.015885
v -0.022347 0.039981 0.002766
v -0.028338 0.043667 -0.016130
v -0.022347 0.039981 0.002766
v -0.040728 0.031902 -0.015885
v -0.042385 0.019017 0.002052
v -0.017473 -0.038066 0.005064
v 0.001373 -0.045940 0.002717
v -0.015747 -0.027712 0.009167
v -0.051942 0.000046 -0.016131
v -0.049096 0.016999 -0.016129
v -0.049251 -0.017000 -0.016269
v -0.043986 -0.012297 0.002754
v -0.051942 0.000046 -0.016131
v -0.049251 -0.017000 -0.016269
v -0.049096 0.016999 -0.016129
v -0.051942 0.000046 -0.016131
v -0.042385 0.019017 0.002052
v -0.051942 0.000046 -0.016131
v -0.043986 -0.012297 0.002754
v -0.042385 0.019017 0.002052
v -0.028339 -0.043667 -0.016129
v -0.040728 -0.031902 -0.015885
v -0.049251 -0.017000 -0.016269
v -0.043986 -0.012297 0.002754
v -0.031045 0.006658 0.009288
v -0.042385 0.019017 0.002052
v -0.031045 0.006658 0.009288
v -0.025229 0.018514 0.009418
v -0.042385 0.019017 0.002052
v 0.042616 -0.019463 0.002507
v 0.010150 0.030432 0.009175
v -0.015747 -0.027712 0.009167
v 0.010150 0.030432 0.009175
v 0.051942 0.008551 -0.016320
v 0.000841 0.045452 0.002574
v 0.010150 0.030432 0.009175
v 0.042616 -0.019463 0.002507
v 0.051942 0.008551 -0.016320
v 0.004627 -0.052011 -0.016127
v 0.001373 -0.045940 0.002717
v -0.012596 -0.050758 -0.016287
v 0.035568 -0.038440 -0.016132
v 0.004627 -0.052011 -0.016127
v -0.012596 -0.050758 -0.016287
v 0.027816 -0.040846 -0.002473
v 0.042616 -0.019463 0.002507
v 0.001373 -0.045940 0.002717
v 0.027816 -0.040846 -0.002473
v 0.035568 -0.038440 -0.016132
v 0.042616 -0.019463 0.002507
v 0.042616 -0.019463 0.002507
v 0.046302 -0.024912 -0.016281
v 0.051339 -0.008553 -0.015746
v 0.035568 -0.038440 -0.016132
v 0.046302 -0.024912 -0.016281
v 0.042616 -0.019463 0.002507
v 0.046302 -0.024912 -0.016281
v 0.051942 0.008551 -0.016320
v 0.051339 -0.008553 -0.015746
v 0.051942 0.008551 -0.016320
v 0.046302 -0.024912 -0.016281
v -0.012596 -0.050758 -0.016287
v 0.046302 -0.024912 -0.016281
v 0.035568 -0.038440 -0.016132
v -0.012596 -0.050758 -0.016287
v -0.032648 -0.036714 -0.002498
v -0.017473 -0.038066 0.005064
v -0.043986 -0.012297 0.002754
v -0.032648 -0.036714 -0.002498
v -0.043986 -0.012297 0.002754
v -0.049251 -0.017000 -0.016269
v -0.040728 -0.031902 -0.015885
v -0.032648 -0.036714 -0.002498
v -0.049251 -0.017000 -0.016269
v -0.032648 -0.036714 -0.002498
v -0.040728 -0.031902 -0.015885
v -0.028339 -0.043667 -0.016129
v -0.032648 -0.036714 -0.002498
v -0.028339 -0.043667 -0.016129
v -0.012596 -0.050758 -0.016287
v 0.001373 -0.045940 0.002717
v -0.032648 -0.036714 -0.002498
v -0.012596 -0.050758 -0.016287
v -0.017473 -0.038066 0.005064
v -0.032648 -0.036714 -0.002498
v 0.001373 -0.045940 0.002717
v -0.031048 -0.006642 0.009334
v -0.031045 0.006658 0.009288
v -0.043986 -0.012297 0.002754
v -0.031045 0.006658 0.009288
v -0.031048 -0.006642 0.009334
v -0.025229 0.018514 0.009418
v -0.022347 0.039981 0.002766
v -0.003091 0.031825 0.009272
v 0.000841 0.045452 0.002574
v -0.003091 0.031825 0.009272
v 0.010150 0.030432 0.009175
v 0.000841 0.045452 0.002574
v 0.021127 -0.047557 -0.015885
v 0.004627 -0.052011 -0.016127
v 0.035568 -0.038440 -0.016132
v 0.027816 -0.040846 -0.002473
v 0.021127 -0.047557 -0.015885
v 0.035568 -0.038440 -0.016132
v 0.004627 -0.052011 -0.016127
v 0.021127 -0.047557 -0.015885
v 0.001373 -0.045940 0.002717
v 0.021127 -0.047557 -0.015885
v 0.027816 -0.040846 -0.002473
v 0.001373 -0.045940 0.002717
v -0.031048 -0.006642 0.009334
v -0.025229 -0.018514 0.009418
v -0.025229 0.018514 0.009418
v 0.010150 0.030432 0.009175
v -0.025229 -0.018514 0.009418
v -0.015747 -0.027712 0.009167
v -0.025229 -0.018514 0.009418
v -0.031048 -0.006642 0.009334
v -0.043986 -0.012297 0.002754
v -0.025229 -0.018514 0.009418
v -0.003091 0.031825 0.009272
v -0.025229 0.018514 0.009418
v -0.003091 0.031825 0.009272
v -0.025229 -0.018514 0.009418
v 0.010150 0.030432 0.009175
v -0.025229 -0.018514 0.009418
v -0.017473 -0.038066 0.005064
v -0.015747 -0.027712 0.009167
v -0.017473 -0.038066 0.005064
v -0.025229 -0.018514 0.009418
v -0.043986 -0.012297 0.002754
v -0.025229 0.018514 0.009418
v -0.015746 0.027712 0.009107
v -0.022347 0.039981 0.002766
v -0.015746 0.027712 0.009107
v -0.003091 0.031825 0.009272
v -0.022347 0.039981 0.002766
v -0.003091 0.031825 0.009272
v -0.015746 0.027712 0.009107
v -0.025229 0.018514 0.009418
vn 0.3255 0.7474 -0.5792
vn -0.0005 -0.0000 -1.0000
vn -0.0012 0.0027 -1.0000
vn -0.2202 0.9419 0.2536
vn 0.9062 -0.0178 0.4225
vn 0.1402 -0.2107 0.9675
vn -0.0054 0.0041 -1.0000
vn -0.0191 -0.0202 -0.9996
vn -0.3659 0.3200 0.8739
vn -0.0754 0.0586 -0.9954
vn -0.8439 0.4696 0.2594
vn -0.6445 0.6858 0.3381
vn -0.6723 0.6293 0.3900
vn -0.0357 -0.3630 0.9311
vn -0.0244 0.0042 -0.9997
vn -0.9424 -0.1512 0.2982
vn -0.9321 0.1565 0.3267
vn -0.9066 0.0557 0.4184
vn -0.0961 -0.0806 -0.9921
vn -0.5020 0.0450 0.8637
vn -0.3838 0.1783 0.9060
vn 0.1207 -0.0539 0.9912
vn 0.6210 0.6043 0.4993
vn 0.6054 0.2952 0.7391
vn -0.0721 -0.9529 0.2946
vn 0.0079 -0.0184 -0.9998
vn 0.2480 -0.3793 0.8914
vn 0.7432 -0.5885 0.3182
vn 0.9191 -0.2916 0.2649
vn 0.7448 -0.5875 0.3165
vn 0.2358 -0.0409 -0.9709
vn 0.0007 -0.0013 -1.0000
vn 0.0076 -0.0170 -0.9998
vn -0.4395 -0.3792 0.8142
vn -0.8228 -0.4552 0.3403
vn -0.8229 -0.4621 0.3305
vn -0.6790 -0.7183 0.1517
vn -0.3866 -0.8653 0.3191
vn -0.2972 -0.8505 0.4341
vn -0.2973 -0.8444 0.4457
vn -0.4544 0.0032 0.8908
vn -0.0294 0.0034 0.9996
vn -0.1018 0.4623 0.8808
vn 0.0517 0.4285 0.9021
vn 0.0383 -0.0877 -0.9954
vn 0.5294 -0.8344 0.1535
vn 0.2409 -0.9109 0.3351
vn 0.2413 -0.9107 0.3354
vn -0.0145 -0.0000 0.9999
vn 0.0184 -0.0083 0.9998
vn -0.3819 -0.1808 0.9063
vn 0.0066 -0.0000 1.0000
vn 0.0073 -0.0003 1.0000
vn -0.2796 -0.3131 0.9076
vn -0.4147 -0.3514 0.8394
vn -0.2789 0.3182 0.9061
vn -0.1400 0.3942 0.9083
vn -0.0361 0.0710 0.9968
s 1
usemtl material_0
f 1//1 2//1 3//1
f 4//2 5//2 6//2
f 7//3 8//3 9//3
f 10//4 11//4 12//4
f 13//5 14//5 15//5
f 16//6 17//6 18//6
f 19//7 20//7 21//7
f 22//8 23//8 24//8
f 25//9 26//9 27//9
f 28//10 29//10 30//10
f 31//11 32//11 33//11
f 34//12 35//12 36//12
f 37//13 38//13 39//13
f 40//14 41//14 42//14
f 43//15 44//15 45//15
f 46//16 47//16 48//16
f 49//17 50//17 51//17
f 52//18 53//18 54//18
f 55//19 56//19 57//19
f 58//20 59//20 60//20
f 61//21 62//21 63//21
f 64//22 65//22 66//22
f 67//23 68//23 69//23
f 70//24 71//24 72//24
f 73//25 74//25 75//25
f 76//26 77//26 78//26
f 79//27 80//27 81//27
f 82//28 83//28 84//28
f 85//29 86//29 87//29
f 88//30 89//30 90//30
f 91//31 92//31 93//31
f 94//32 95//32 96//32
f 97//33 98//33 99//33
f 100//34 101//34 102//34
f 103//35 104//35 105//35
f 106//36 107//36 108//36
f 109//37 110//37 111//37
f 112//38 113//38 114//38
f 115//39 116//39 117//39
f 118//40 119//40 120//40
f 121//41 122//41 123//41
f 124//42 125//42 126//42
f 127//43 128//43 129//43
f 130//44 131//44 132//44
f 133//45 134//45 135//45
f 136//46 137//46 138//46
f 139//47 140//47 141//47
f 142//48 143//48 144//48
f 145//49 146//49 147//49
f 148//50 149//50 150//50
f 151//51 152//51 153//51
f 154//52 155//52 156//52
f 157//53 158//53 159//53
f 160//54 161//54 162//54
f 163//55 164//55 165//55
f 166//56 167//56 168//56
f 169//57 170//57 171//57
f 172//58 173//58 174//58
