# Blender 4.5.10 LTS
# www.blender.org
mtllib iiwa_robot_base_coll_16.mtl
o node
v -0.128739 0.051104 -0.006112
v -0.086277 0.075467 -0.067554
v -0.091579 0.073348 -0.078366
v -0.107883 -0.053057 -0.017279
v -0.091579 0.073348 -0.078366
v -0.085652 -0.056773 -0.011750
v -0.128739 -0.050996 -0.006112
v -0.107883 -0.053057 -0.017279
v -0.085652 -0.056773 -0.011750
v -0.107883 -0.053057 -0.017279
v -0.128739 -0.050996 -0.006112
v -0.091579 0.073348 -0.078366
v -0.124239 -0.044838 0.061658
v -0.128739 -0.050996 -0.006112
v -0.085652 -0.056773 -0.011750
v -0.065877 0.047596 0.067658
v -0.077901 -0.020541 0.072554
v -0.072427 -0.040135 0.068909
v -0.128739 -0.050996 -0.006112
v -0.123759 0.051826 -0.016263
v -0.091579 0.073348 -0.078366
v -0.123759 0.051826 -0.016263
v -0.128739 0.051104 -0.006112
v -0.091579 0.073348 -0.078366
v -0.128739 0.051104 -0.006112
v -0.123759 0.051826 -0.016263
v -0.128739 -0.050996 -0.006112
v -0.128739 0.051104 -0.006112
v -0.128739 0.044946 0.061658
v -0.086277 0.075467 -0.067554
v -0.128739 0.044946 0.061658
v -0.066783 0.060025 0.021085
v -0.086277 0.075467 -0.067554
v -0.128739 0.044946 0.061658
v -0.128739 0.051104 -0.006112
v -0.128739 -0.050996 -0.006112
v -0.079929 -0.045957 0.064105
v -0.124239 -0.044838 0.061658
v -0.085652 -0.056773 -0.011750
v -0.124161 -0.042244 0.066522
v -0.079929 -0.045957 0.064105
v -0.072427 -0.040135 0.068909
v -0.066783 0.060025 0.021085
v -0.067130 0.062121 -0.066564
v -0.086277 0.075467 -0.067554
v -0.091579 0.073348 -0.078366
v -0.067130 0.062121 -0.066564
v -0.085652 -0.056773 -0.011750
v -0.086277 0.075467 -0.067554
v -0.067130 0.062121 -0.066564
v -0.091579 0.073348 -0.078366
v -0.067130 0.062121 -0.066564
v -0.072427 -0.040135 0.068909
v -0.085652 -0.056773 -0.011750
v -0.067130 0.062121 -0.066564
v -0.065877 0.047596 0.067658
v -0.072427 -0.040135 0.068909
v -0.067130 0.062121 -0.066564
v -0.066783 0.060025 0.021085
v -0.065877 0.047596 0.067658
v -0.074725 0.029502 0.071294
v -0.077901 -0.020541 0.072554
v -0.065877 0.047596 0.067658
v -0.077901 -0.020541 0.072554
v -0.074725 0.029502 0.071294
v -0.081403 0.006519 0.073563
v -0.074725 0.029502 0.071294
v -0.123739 0.021026 0.071818
v -0.081403 0.006519 0.073563
v -0.123511 0.043876 0.065861
v -0.128739 0.044946 0.061658
v -0.128739 0.042583 0.066008
v -0.066783 0.060025 0.021085
v -0.071271 0.048873 0.064080
v -0.065877 0.047596 0.067658
v -0.128739 0.044946 0.061658
v -0.071271 0.048873 0.064080
v -0.066783 0.060025 0.021085
v -0.071271 0.048873 0.064080
v -0.123511 0.043876 0.065861
v -0.065877 0.047596 0.067658
v -0.123511 0.043876 0.065861
v -0.071271 0.048873 0.064080
v -0.128739 0.044946 0.061658
v -0.123739 0.021026 0.071818
v -0.128739 0.000054 0.073837
v -0.081403 0.006519 0.073563
v -0.128739 0.000054 0.073837
v -0.077901 -0.020541 0.072554
v -0.081403 0.006519 0.073563
v -0.077901 -0.020541 0.072554
v -0.128739 0.000054 0.073837
v -0.124198 -0.010689 0.073278
v -0.124239 0.038820 0.069224
v -0.123511 0.043876 0.065861
v -0.128739 0.042583 0.066008
v -0.123511 0.043876 0.065861
v -0.124239 0.038820 0.069224
v -0.065877 0.047596 0.067658
v -0.124239 0.038820 0.069224
v -0.074725 0.029502 0.071294
v -0.065877 0.047596 0.067658
v -0.074725 0.029502 0.071294
v -0.124239 0.038820 0.069224
v -0.123739 0.021026 0.071818
v -0.072427 -0.040135 0.068909
v -0.081160 -0.050207 0.028445
v -0.085652 -0.056773 -0.011750
v -0.081160 -0.050207 0.028445
v -0.079929 -0.045957 0.064105
v -0.085652 -0.056773 -0.011750
v -0.079929 -0.045957 0.064105
v -0.081160 -0.050207 0.028445
v -0.072427 -0.040135 0.068909
v -0.079929 -0.045957 0.064105
v -0.128739 -0.042475 0.066008
v -0.124239 -0.044838 0.061658
v -0.124161 -0.042244 0.066522
v -0.128739 -0.042475 0.066008
v -0.079929 -0.045957 0.064105
v -0.128739 0.038471 0.068692
v -0.124239 0.038820 0.069224
v -0.128739 0.042583 0.066008
v -0.128739 0.044946 0.061658
v -0.128739 0.038471 0.068692
v -0.128739 0.042583 0.066008
v -0.128739 0.038471 0.068692
v -0.128739 0.000054 0.073837
v -0.123739 0.021026 0.071818
v -0.124239 0.038820 0.069224
v -0.128739 0.038471 0.068692
v -0.123739 0.021026 0.071818
v -0.124239 -0.044838 0.061658
v -0.128739 -0.044245 0.061427
v -0.128739 -0.050996 -0.006112
v -0.128739 -0.042475 0.066008
v -0.128739 -0.044245 0.061427
v -0.124239 -0.044838 0.061658
v -0.128739 -0.044245 0.061427
v -0.128739 0.044946 0.061658
v -0.128739 -0.050996 -0.006112
v -0.128739 -0.044245 0.061427
v -0.128739 0.038471 0.068692
v -0.128739 0.044946 0.061658
v -0.128739 -0.038712 0.069224
v -0.128739 -0.042475 0.066008
v -0.124161 -0.042244 0.066522
v -0.128739 -0.038712 0.069224
v -0.124161 -0.042244 0.066522
v -0.072427 -0.040135 0.068909
v -0.128739 0.000054 0.073837
v -0.128739 -0.038712 0.069224
v -0.124198 -0.010689 0.073278
v -0.077901 -0.020541 0.072554
v -0.128739 -0.038712 0.069224
v -0.072427 -0.040135 0.068909
v -0.128739 -0.038712 0.069224
v -0.077901 -0.020541 0.072554
v -0.124198 -0.010689 0.073278
v -0.128739 -0.038712 0.069224
v -0.128739 -0.044245 0.061427
v -0.128739 -0.042475 0.066008
v -0.128739 0.038471 0.068692
v -0.128739 -0.038712 0.069224
v -0.128739 0.000054 0.073837
v -0.128739 -0.044245 0.061427
v -0.128739 -0.038712 0.069224
v -0.128739 0.038471 0.068692
vn -0.4478 0.8930 0.0446
vn 0.1452 -0.4456 -0.8834
vn -0.1434 -0.9859 -0.0858
vn -0.4704 -0.3341 -0.8168
vn -0.1197 -0.9880 0.0977
vn 0.4922 -0.0243 0.8701
vn -0.8875 -0.0025 -0.4608
vn -0.8967 0.0899 -0.4335
vn -0.8978 -0.0000 -0.4404
vn -0.4031 0.9114 0.0828
vn -0.1102 0.9748 0.1940
vn -1.0000 -0.0000 -0.0000
vn -0.0329 -0.9891 0.1435
vn -0.0103 -0.6285 0.7777
vn 0.5711 0.8207 0.0174
vn 0.2206 -0.4365 -0.8722
vn 0.5362 0.7390 -0.4078
vn 0.9717 -0.2053 -0.1170
vn 0.9971 -0.0747 -0.0174
vn 0.9980 0.0637 -0.0024
vn 0.3818 -0.0010 0.9243
vn 0.3082 0.0044 0.9513
vn -0.0067 0.1002 0.9949
vn -0.1998 0.8610 0.4677
vn 0.0584 0.9648 0.2564
vn -0.0763 0.9671 0.2429
vn -0.0715 0.9004 0.4292
vn -0.0783 0.9385 0.3363
vn -0.0076 0.0976 0.9952
vn 0.0107 -0.0359 0.9993
vn 0.0050 -0.0499 0.9987
vn -0.1158 0.5616 0.8192
vn -0.0619 0.5589 0.8269
vn -0.0036 0.1987 0.9801
vn -0.0143 0.1439 0.9895
vn 0.6341 -0.7713 0.0551
vn 0.4946 -0.8649 0.0860
vn 0.5802 -0.8109 0.0766
vn -0.0469 -0.8973 0.4389
vn -0.0311 -0.7786 0.6267
vn -0.1400 0.5412 0.8292
vn -0.1546 0.1311 0.9792
vn -0.1269 0.1396 0.9820
vn -0.1349 -0.9859 0.0986
vn -0.1400 -0.9236 0.3569
vn -0.0525 -0.6488 0.7592
vn -0.0112 -0.6166 0.7872
vn -0.1553 -0.1167 0.9809
vn 0.0009 -0.1826 0.9832
vn -0.0145 -0.1409 0.9899
s 1
usemtl material_0
f 1//1 2//1 3//1
f 4//2 5//2 6//2
f 7//3 8//3 9//3
f 10//4 11//4 12//4
f 13//5 14//5 15//5
f 16//6 17//6 18//6
f 19//7 20//7 21//7
f 22//8 23//8 24//8
f 25//9 26//9 27//9
f 28//10 29//10 30//10
f 31//11 32//11 33//11
f 34//12 35//12 36//12
f 37//13 38//13 39//13
f 40//14 41//14 42//14
f 43//15 44//15 45//15
f 46//16 47//16 48//16
f 49//17 50//17 51//17
f 52//18 53//18 54//18
f 55//19 56//19 57//19
f 58//20 59//20 60//20
f 61//21 62//21 63//21
f 64//22 65//22 66//22
f 67//23 68//23 69//23
f 70//24 71//24 72//24
f 73//25 74//25 75//25
f 76//26 77//26 78//26
f 79//27 80//27 81//27
f 82//28 83//28 84//28
f 85//29 86//29 87//29
f 88//30 89//30 90//30
f 91//31 92//31 93//31
f 94//32 95//32 96//32
f 97//33 98//33 99//33
f 100//34 101//34 102//34
f 103//35 104//35 105//35
f 106//36 107//36 108//36
f 109//37 110//37 111//37
f 112//38 113//38 114//38
f 115//39 116//39 117//39
f 118//40 119//40 120//40
f 121//41 122//41 123//41
f 124//12 125//12 126//12
f 127//42 128//42 129//42
f 130//43 131//43 132//43
f 133//44 134//44 135//44
f 136//45 137//45 138//45
f 139//12 140//12 141//12
f 142//12 143//12 144//12
f 145//46 146//46 147//46
f 148//47 149//47 150//47
f 151//48 152//48 153//48
f 154//49 155//49 156//49
f 157//50 158//50 159//50
f 160//12 161//12 162//12
f 163//12 164//12 165//12
f 166//12 167//12 168//12
