# Blender 4.5.10 LTS
# www.blender.org
mtllib iiwa_link2_resp_coll_1.mtl
o node
v -0.027171 -0.096418 0.029550
v -0.000142 -0.098926 0.011230
v -0.000142 -0.100649 0.033997
v 0.068416 0.065939 -0.143629
v 0.081159 0.041321 -0.143622
v 0.052243 -0.053464 -0.143613
v -0.066464 0.068797 -0.143629
v 0.052243 -0.053464 -0.143613
v -0.003960 -0.070568 -0.143610
v -0.066464 0.068797 -0.143629
v 0.068416 0.065939 -0.143629
v 0.052243 -0.053464 -0.143613
v -0.056823 0.078979 -0.143608
v -0.066464 0.068797 -0.143629
v -0.060026 0.072286 -0.127179
v -0.056021 0.060665 -0.102838
v -0.059373 -0.006173 -0.035661
v -0.043963 -0.084265 0.070650
v -0.060026 0.072286 -0.127179
v -0.070150 0.057905 -0.124083
v -0.056021 0.060665 -0.102838
v -0.066464 0.068797 -0.143629
v -0.070150 0.057905 -0.124083
v -0.060026 0.072286 -0.127179
v -0.015618 0.086489 -0.105095
v -0.030689 0.083298 -0.107015
v -0.043963 -0.084265 0.070650
v -0.059373 -0.006173 -0.035661
v -0.068728 -0.029602 -0.035335
v -0.043963 -0.084265 0.070650
v -0.068728 -0.029602 -0.035335
v -0.059373 -0.006173 -0.035661
v -0.071795 0.024439 -0.092806
v -0.055498 -0.077464 0.036552
v -0.042634 -0.088729 0.049318
v -0.043963 -0.084265 0.070650
v -0.068728 -0.029602 -0.035335
v -0.055498 -0.077464 0.036552
v -0.043963 -0.084265 0.070650
v -0.055498 -0.077464 0.036552
v -0.068728 -0.029602 -0.035335
v -0.067332 -0.046654 -0.030694
v -0.066037 -0.040588 -0.143603
v -0.055498 -0.077464 0.036552
v -0.075922 -0.025065 -0.143606
v -0.023413 -0.093552 -0.003390
v -0.000142 -0.098926 0.011230
v -0.027171 -0.096418 0.029550
v -0.023413 -0.093552 -0.003390
v -0.018969 -0.068461 -0.143608
v -0.003960 -0.070568 -0.143610
v -0.000142 -0.098926 0.011230
v -0.023413 -0.093552 -0.003390
v -0.003960 -0.070568 -0.143610
v 0.017885 -0.097507 0.055335
v -0.000142 -0.099101 0.056763
v -0.000142 -0.100649 0.033997
v -0.017734 -0.092218 0.076983
v -0.000142 -0.099101 0.056763
v 0.017885 -0.097507 0.055335
v -0.017734 -0.092218 0.076983
v 0.043679 -0.084264 0.070654
v -0.043963 -0.084265 0.070650
v 0.043679 -0.084264 0.070654
v -0.017734 -0.092218 0.076983
v 0.017885 -0.097507 0.055335
v 0.052243 -0.053464 -0.143613
v 0.010852 -0.069793 -0.143608
v -0.003960 -0.070568 -0.143610
v 0.010852 -0.069793 -0.143608
v -0.000142 -0.098926 0.011230
v -0.003960 -0.070568 -0.143610
v -0.000142 -0.098926 0.011230
v 0.010852 -0.069793 -0.143608
v 0.023424 -0.095240 0.008976
v 0.039436 -0.061185 -0.143608
v 0.045237 -0.080548 -0.016364
v 0.023424 -0.095240 0.008976
v 0.045237 -0.080548 -0.016364
v 0.039436 -0.061185 -0.143608
v 0.052243 -0.053464 -0.143613
v 0.039436 -0.061185 -0.143608
v 0.010852 -0.069793 -0.143608
v 0.052243 -0.053464 -0.143613
v 0.010852 -0.069793 -0.143608
v 0.039436 -0.061185 -0.143608
v 0.025498 -0.066812 -0.143604
v -0.065504 0.040434 -0.095670
v -0.059373 -0.006173 -0.035661
v -0.056021 0.060665 -0.102838
v -0.070150 0.057905 -0.124083
v -0.065504 0.040434 -0.095670
v -0.056021 0.060665 -0.102838
v -0.044694 0.073186 -0.105117
v -0.056021 0.060665 -0.102838
v -0.043963 -0.084265 0.070650
v -0.030689 0.083298 -0.107015
v -0.044694 0.073186 -0.105117
v -0.043963 -0.084265 0.070650
v -0.044694 0.073186 -0.105117
v -0.060026 0.072286 -0.127179
v -0.056021 0.060665 -0.102838
v 0.011617 0.099708 -0.143608
v -0.032436 0.094169 -0.143608
v -0.002430 0.100649 -0.143605
v -0.032436 0.094169 -0.143608
v 0.011617 0.099708 -0.143608
v -0.066464 0.068797 -0.143629
v -0.066464 0.068797 -0.143629
v 0.011617 0.099708 -0.143608
v 0.068416 0.065939 -0.143629
v 0.011617 0.099708 -0.143608
v 0.023830 0.097082 -0.143608
v 0.068416 0.065939 -0.143629
v -0.068728 -0.029602 -0.035335
v -0.082888 0.008503 -0.116186
v -0.067332 -0.046654 -0.030694
v -0.081229 -0.007886 -0.119791
v -0.082888 0.008503 -0.116186
v -0.085698 0.011859 -0.143606
v -0.082888 0.008503 -0.116186
v -0.081229 -0.007886 -0.119791
v -0.067332 -0.046654 -0.030694
v -0.082888 0.008503 -0.116186
v -0.080859 0.043177 -0.143621
v -0.085698 0.011859 -0.143606
v -0.018169 -0.097507 0.055334
v -0.042634 -0.088729 0.049318
v -0.027171 -0.096418 0.029550
v -0.018169 -0.097507 0.055334
v -0.000142 -0.099101 0.056763
v -0.017734 -0.092218 0.076983
v -0.018169 -0.097507 0.055334
v -0.017734 -0.092218 0.076983
v -0.043963 -0.084265 0.070650
v -0.042634 -0.088729 0.049318
v -0.018169 -0.097507 0.055334
v -0.043963 -0.084265 0.070650
v -0.018169 -0.097507 0.055334
v -0.027171 -0.096418 0.029550
v -0.000142 -0.100649 0.033997
v -0.000142 -0.099101 0.056763
v -0.018169 -0.097507 0.055334
v -0.000142 -0.100649 0.033997
v -0.055498 -0.077464 0.036552
v -0.044412 -0.086805 0.018631
v -0.042634 -0.088729 0.049318
v -0.042634 -0.088729 0.049318
v -0.044412 -0.086805 0.018631
v -0.027171 -0.096418 0.029550
v -0.044412 -0.086805 0.018631
v -0.066037 -0.040588 -0.143603
v -0.045521 -0.080543 -0.016384
v -0.066037 -0.040588 -0.143603
v -0.044412 -0.086805 0.018631
v -0.055498 -0.077464 0.036552
v -0.023413 -0.093552 -0.003390
v -0.044412 -0.086805 0.018631
v -0.045521 -0.080543 -0.016384
v -0.044412 -0.086805 0.018631
v -0.023413 -0.093552 -0.003390
v -0.027171 -0.096418 0.029550
v -0.066037 -0.040588 -0.143603
v -0.032986 -0.064371 -0.143609
v -0.045521 -0.080543 -0.016384
v -0.032986 -0.064371 -0.143609
v -0.023413 -0.093552 -0.003390
v -0.045521 -0.080543 -0.016384
v -0.023413 -0.093552 -0.003390
v -0.032986 -0.064371 -0.143609
v -0.018969 -0.068461 -0.143608
v -0.032986 -0.064371 -0.143609
v -0.066037 -0.040588 -0.143603
v -0.075922 -0.025065 -0.143606
v -0.032986 -0.064371 -0.143609
v -0.080859 0.043177 -0.143621
v -0.066464 0.068797 -0.143629
v -0.018969 -0.068461 -0.143608
v -0.032986 -0.064371 -0.143609
v -0.003960 -0.070568 -0.143610
v -0.032986 -0.064371 -0.143609
v -0.066464 0.068797 -0.143629
v -0.003960 -0.070568 -0.143610
v -0.000142 0.083481 -0.100021
v -0.015618 0.086489 -0.105095
v -0.043963 -0.084265 0.070650
v 0.043679 -0.084264 0.070654
v -0.000142 0.083481 -0.100021
v -0.043963 -0.084265 0.070650
v 0.026888 -0.096418 0.029549
v 0.043679 -0.084264 0.070654
v 0.017885 -0.097507 0.055335
v 0.026888 -0.096418 0.029549
v 0.017885 -0.097507 0.055335
v -0.000142 -0.100649 0.033997
v -0.000142 -0.098926 0.011230
v 0.026888 -0.096418 0.029549
v -0.000142 -0.100649 0.033997
v 0.026888 -0.096418 0.029549
v -0.000142 -0.098926 0.011230
v 0.023424 -0.095240 0.008976
v 0.075713 -0.024934 -0.143607
v 0.068513 -0.036702 -0.143608
v 0.052243 -0.053464 -0.143613
v 0.081159 0.041321 -0.143622
v 0.081828 -0.009988 -0.143608
v 0.052243 -0.053464 -0.143613
v 0.081828 -0.009988 -0.143608
v 0.075713 -0.024934 -0.143607
v 0.052243 -0.053464 -0.143613
v 0.081828 -0.009988 -0.143608
v 0.081159 0.041321 -0.143622
v 0.085422 0.011586 -0.143606
v 0.054469 -0.072491 -0.011650
v 0.045237 -0.080548 -0.016364
v 0.052243 -0.053464 -0.143613
v 0.068513 -0.036702 -0.143608
v 0.054469 -0.072491 -0.011650
v 0.052243 -0.053464 -0.143613
v 0.023706 -0.091242 -0.013201
v 0.039436 -0.061185 -0.143608
v 0.023424 -0.095240 0.008976
v 0.039436 -0.061185 -0.143608
v 0.023706 -0.091242 -0.013201
v 0.025498 -0.066812 -0.143604
v 0.010852 -0.069793 -0.143608
v 0.023706 -0.091242 -0.013201
v 0.023424 -0.095240 0.008976
v 0.023706 -0.091242 -0.013201
v 0.010852 -0.069793 -0.143608
v 0.025498 -0.066812 -0.143604
v -0.080859 0.043177 -0.143621
v -0.081759 -0.011044 -0.143608
v -0.085698 0.011859 -0.143606
v -0.081759 -0.011044 -0.143608
v -0.081229 -0.007886 -0.119791
v -0.085698 0.011859 -0.143606
v -0.081759 -0.011044 -0.143608
v -0.032986 -0.064371 -0.143609
v -0.075922 -0.025065 -0.143606
v -0.032986 -0.064371 -0.143609
v -0.081759 -0.011044 -0.143608
v -0.080859 0.043177 -0.143621
v -0.081229 -0.007886 -0.119791
v -0.081759 -0.011044 -0.143608
v -0.067332 -0.046654 -0.030694
v -0.055498 -0.077464 0.036552
v -0.081759 -0.011044 -0.143608
v -0.075922 -0.025065 -0.143606
v -0.081759 -0.011044 -0.143608
v -0.055498 -0.077464 0.036552
v -0.067332 -0.046654 -0.030694
v -0.074803 0.056592 -0.143608
v -0.070150 0.057905 -0.124083
v -0.066464 0.068797 -0.143629
v -0.080859 0.043177 -0.143621
v -0.074803 0.056592 -0.143608
v -0.066464 0.068797 -0.143629
v -0.045086 0.087920 -0.143606
v -0.066464 0.068797 -0.143629
v -0.056823 0.078979 -0.143608
v -0.045086 0.087920 -0.143606
v -0.032436 0.094169 -0.143608
v -0.066464 0.068797 -0.143629
v -0.016092 0.092932 -0.114559
v -0.030689 0.083298 -0.107015
v -0.015618 0.086489 -0.105095
v -0.077586 0.043369 -0.123911
v -0.065504 0.040434 -0.095670
v -0.070150 0.057905 -0.124083
v -0.059373 -0.006173 -0.035661
v -0.077586 0.043369 -0.123911
v -0.071795 0.024439 -0.092806
v -0.065504 0.040434 -0.095670
v -0.077586 0.043369 -0.123911
v -0.059373 -0.006173 -0.035661
v -0.082888 0.008503 -0.116186
v -0.077586 0.043369 -0.123911
v -0.080859 0.043177 -0.143621
v -0.074803 0.056592 -0.143608
v -0.077586 0.043369 -0.123911
v -0.070150 0.057905 -0.124083
v -0.077586 0.043369 -0.123911
v -0.074803 0.056592 -0.143608
v -0.080859 0.043177 -0.143621
v -0.077586 0.043369 -0.123911
v -0.068728 -0.029602 -0.035335
v -0.071795 0.024439 -0.092806
v -0.077586 0.043369 -0.123911
v -0.082888 0.008503 -0.116186
v -0.068728 -0.029602 -0.035335
v -0.044694 0.073186 -0.105117
v -0.046989 0.083679 -0.127068
v -0.060026 0.072286 -0.127179
v -0.046989 0.083679 -0.127068
v -0.044694 0.073186 -0.105117
v -0.030689 0.083298 -0.107015
v -0.046989 0.083679 -0.127068
v -0.056823 0.078979 -0.143608
v -0.060026 0.072286 -0.127179
v -0.046989 0.083679 -0.127068
v -0.045086 0.087920 -0.143606
v -0.056823 0.078979 -0.143608
v 0.075891 0.054027 -0.143608
v 0.081159 0.041321 -0.143622
v 0.068416 0.065939 -0.143629
v 0.081159 0.041321 -0.143622
v 0.084535 0.026625 -0.143608
v 0.085422 0.011586 -0.143606
v 0.081890 0.027027 -0.122729
v 0.084535 0.026625 -0.143608
v 0.081159 0.041321 -0.143622
v 0.081828 -0.009988 -0.143608
v 0.055216 -0.077463 0.036553
v 0.075713 -0.024934 -0.143607
v 0.055216 -0.077463 0.036553
v 0.068513 -0.036702 -0.143608
v 0.075713 -0.024934 -0.143607
v 0.055216 -0.077463 0.036553
v 0.054469 -0.072491 -0.011650
v 0.068513 -0.036702 -0.143608
v -0.032436 0.094169 -0.143608
v -0.018812 0.098719 -0.143594
v -0.002430 0.100649 -0.143605
v -0.000142 0.083481 -0.100021
v -0.000142 0.093493 -0.112308
v -0.015618 0.086489 -0.105095
v -0.000142 0.093493 -0.112308
v -0.016092 0.092932 -0.114559
v -0.015618 0.086489 -0.105095
v -0.016483 0.096801 -0.124860
v -0.018812 0.098719 -0.143594
v -0.032436 0.094169 -0.143608
v -0.018812 0.098719 -0.143594
v -0.016483 0.096801 -0.124860
v -0.002430 0.100649 -0.143605
v 0.044411 0.073186 -0.105117
v 0.030406 0.083298 -0.107015
v 0.043679 -0.084264 0.070654
v 0.046744 0.083667 -0.127096
v 0.030406 0.083298 -0.107015
v 0.044411 0.073186 -0.105117
v 0.084535 0.026625 -0.143608
v 0.083352 0.011461 -0.121511
v 0.085422 0.011586 -0.143606
v 0.083352 0.011461 -0.121511
v 0.084535 0.026625 -0.143608
v 0.081890 0.027027 -0.122729
v 0.055216 -0.077463 0.036553
v 0.068607 -0.030856 -0.035076
v 0.043679 -0.084264 0.070654
v 0.068607 -0.030856 -0.035076
v 0.083352 0.011461 -0.121511
v 0.081890 0.027027 -0.122729
v 0.083352 0.011461 -0.121511
v 0.068607 -0.030856 -0.035076
v 0.055216 -0.077463 0.036553
v 0.081430 -0.006949 -0.121769
v 0.081828 -0.009988 -0.143608
v 0.085422 0.011586 -0.143606
v 0.081430 -0.006949 -0.121769
v 0.055216 -0.077463 0.036553
v 0.081828 -0.009988 -0.143608
v 0.083352 0.011461 -0.121511
v 0.081430 -0.006949 -0.121769
v 0.085422 0.011586 -0.143606
v 0.081430 -0.006949 -0.121769
v 0.083352 0.011461 -0.121511
v 0.055216 -0.077463 0.036553
v 0.054469 -0.072491 -0.011650
v 0.044128 -0.086806 0.018647
v 0.045237 -0.080548 -0.016364
v 0.055216 -0.077463 0.036553
v 0.044128 -0.086806 0.018647
v 0.054469 -0.072491 -0.011650
v 0.045237 -0.080548 -0.016364
v 0.044128 -0.086806 0.018647
v 0.023424 -0.095240 0.008976
v 0.044128 -0.086806 0.018647
v 0.026888 -0.096418 0.029549
v 0.023424 -0.095240 0.008976
v 0.026888 -0.096418 0.029549
v 0.044128 -0.086806 0.018647
v 0.043679 -0.084264 0.070654
v 0.044128 -0.086806 0.018647
v 0.055216 -0.077463 0.036553
v 0.043679 -0.084264 0.070654
v -0.032404 0.091052 -0.124026
v -0.016483 0.096801 -0.124860
v -0.032436 0.094169 -0.143608
v -0.045086 0.087920 -0.143606
v -0.032404 0.091052 -0.124026
v -0.032436 0.094169 -0.143608
v -0.046989 0.083679 -0.127068
v -0.032404 0.091052 -0.124026
v -0.045086 0.087920 -0.143606
v -0.032404 0.091052 -0.124026
v -0.046989 0.083679 -0.127068
v -0.030689 0.083298 -0.107015
v -0.016092 0.092932 -0.114559
v -0.032404 0.091052 -0.124026
v -0.030689 0.083298 -0.107015
v -0.016483 0.096801 -0.124860
v -0.032404 0.091052 -0.124026
v -0.016092 0.092932 -0.114559
v -0.000142 0.093493 -0.112308
v 0.000060 0.098827 -0.125604
v -0.016092 0.092932 -0.114559
v 0.000060 0.098827 -0.125604
v -0.016483 0.096801 -0.124860
v -0.016092 0.092932 -0.114559
v -0.016483 0.096801 -0.124860
v 0.000060 0.098827 -0.125604
v -0.002430 0.100649 -0.143605
v 0.000060 0.098827 -0.125604
v 0.011617 0.099708 -0.143608
v -0.002430 0.100649 -0.143605
v 0.015334 0.086489 -0.105095
v -0.000142 0.083481 -0.100021
v 0.043679 -0.084264 0.070654
v 0.030406 0.083298 -0.107015
v 0.015334 0.086489 -0.105095
v 0.043679 -0.084264 0.070654
v 0.015334 0.086489 -0.105095
v -0.000142 0.093493 -0.112308
v -0.000142 0.083481 -0.100021
v 0.055738 0.060665 -0.102838
v 0.044411 0.073186 -0.105117
v 0.043679 -0.084264 0.070654
v 0.069910 0.057910 -0.124174
v 0.081890 0.027027 -0.122729
v 0.081159 0.041321 -0.143622
v 0.075891 0.054027 -0.143608
v 0.069910 0.057910 -0.124174
v 0.081159 0.041321 -0.143622
v 0.069910 0.057910 -0.124174
v 0.055738 0.060665 -0.102838
v 0.065220 0.040434 -0.095670
v 0.069910 0.057910 -0.124174
v 0.075891 0.054027 -0.143608
v 0.068416 0.065939 -0.143629
v 0.071511 0.024439 -0.092806
v 0.068607 -0.030856 -0.035076
v 0.081890 0.027027 -0.122729
v 0.069910 0.057910 -0.124174
v 0.071511 0.024439 -0.092806
v 0.081890 0.027027 -0.122729
v 0.071511 0.024439 -0.092806
v 0.069910 0.057910 -0.124174
v 0.065220 0.040434 -0.095670
v 0.011617 0.099708 -0.143608
v 0.016199 0.096801 -0.124860
v 0.023830 0.097082 -0.143608
v 0.000060 0.098827 -0.125604
v 0.016199 0.096801 -0.124860
v 0.011617 0.099708 -0.143608
v 0.059090 -0.006173 -0.035661
v 0.055738 0.060665 -0.102838
v 0.043679 -0.084264 0.070654
v 0.055738 0.060665 -0.102838
v 0.059090 -0.006173 -0.035661
v 0.065220 0.040434 -0.095670
v 0.059090 -0.006173 -0.035661
v 0.071511 0.024439 -0.092806
v 0.065220 0.040434 -0.095670
v 0.068607 -0.030856 -0.035076
v 0.059090 -0.006173 -0.035661
v 0.043679 -0.084264 0.070654
v 0.071511 0.024439 -0.092806
v 0.059090 -0.006173 -0.035661
v 0.068607 -0.030856 -0.035076
v 0.069910 0.057910 -0.124174
v 0.059732 0.072262 -0.127112
v 0.055738 0.060665 -0.102838
v 0.059732 0.072262 -0.127112
v 0.046744 0.083667 -0.127096
v 0.044411 0.073186 -0.105117
v 0.055738 0.060665 -0.102838
v 0.059732 0.072262 -0.127112
v 0.044411 0.073186 -0.105117
v 0.059732 0.072262 -0.127112
v 0.069910 0.057910 -0.124174
v 0.068416 0.065939 -0.143629
v 0.058695 0.077000 -0.143608
v 0.059732 0.072262 -0.127112
v 0.068416 0.065939 -0.143629
v 0.058695 0.077000 -0.143608
v 0.047535 0.086289 -0.143593
v 0.046744 0.083667 -0.127096
v 0.059732 0.072262 -0.127112
v 0.058695 0.077000 -0.143608
v 0.046744 0.083667 -0.127096
v 0.058695 0.077000 -0.143608
v 0.034935 0.092972 -0.143608
v 0.047535 0.086289 -0.143593
v 0.023830 0.097082 -0.143608
v 0.034935 0.092972 -0.143608
v 0.068416 0.065939 -0.143629
v 0.034935 0.092972 -0.143608
v 0.058695 0.077000 -0.143608
v 0.068416 0.065939 -0.143629
v 0.015808 0.092932 -0.114559
v 0.015334 0.086489 -0.105095
v 0.030406 0.083298 -0.107015
v 0.015334 0.086489 -0.105095
v 0.015808 0.092932 -0.114559
v -0.000142 0.093493 -0.112308
v 0.015808 0.092932 -0.114559
v 0.000060 0.098827 -0.125604
v -0.000142 0.093493 -0.112308
v 0.015808 0.092932 -0.114559
v 0.016199 0.096801 -0.124860
v 0.000060 0.098827 -0.125604
v 0.046744 0.083667 -0.127096
v 0.032120 0.091052 -0.124026
v 0.030406 0.083298 -0.107015
v 0.032120 0.091052 -0.124026
v 0.015808 0.092932 -0.114559
v 0.030406 0.083298 -0.107015
v 0.015808 0.092932 -0.114559
v 0.032120 0.091052 -0.124026
v 0.016199 0.096801 -0.124860
v 0.047535 0.086289 -0.143593
v 0.032120 0.091052 -0.124026
v 0.046744 0.083667 -0.127096
v 0.034935 0.092972 -0.143608
v 0.032120 0.091052 -0.124026
v 0.047535 0.086289 -0.143593
v 0.016199 0.096801 -0.124860
v 0.032120 0.091052 -0.124026
v 0.023830 0.097082 -0.143608
v 0.032120 0.091052 -0.124026
v 0.034935 0.092972 -0.143608
v 0.023830 0.097082 -0.143608
vn -0.1422 -0.9870 -0.0747
vn 0.0002 -0.0002 -1.0000
vn -0.0000 -0.0001 -1.0000
vn -0.7194 0.6809 0.1371
vn -0.6997 0.5236 0.4861
vn -0.7088 0.5841 0.3955
vn -0.7852 0.5919 0.1818
vn -0.2353 0.7158 0.6575
vn -0.8574 0.3476 0.3796
vn -0.8597 0.3484 0.3735
vn -0.7105 -0.6964 0.1015
vn -0.8863 0.2932 0.3584
vn -0.9870 -0.0383 0.1561
vn -0.8419 -0.5362 -0.0605
vn -0.1614 -0.9814 -0.1038
vn -0.1368 -0.9744 -0.1787
vn -0.1150 -0.9776 -0.1762
vn 0.0932 -0.9934 0.0675
vn 0.1124 -0.9067 0.4064
vn -0.0001 0.6229 0.7823
vn 0.1610 -0.8645 0.4762
vn 0.0002 -0.0008 -1.0000
vn 0.0514 -0.9821 -0.1811
vn 0.1359 -0.9753 -0.1739
vn 0.4215 -0.8934 -0.1552
vn 0.5103 -0.8465 -0.1521
vn 0.0004 -0.0013 -1.0000
vn 0.0007 -0.0024 -1.0000
vn -0.7257 0.5055 0.4667
vn -0.7481 0.5037 0.4321
vn -0.5664 0.6127 0.5512
vn -0.4078 0.6793 0.6102
vn -0.6357 0.6507 0.4153
vn -0.0001 0.0011 -1.0000
vn -0.0001 0.0010 -1.0000
vn -0.0000 0.0007 -1.0000
vn 0.0002 0.0010 -1.0000
vn -0.9872 -0.0387 0.1547
vn -0.9891 -0.1192 0.0868
vn -0.9874 -0.1222 0.1009
vn -0.9812 0.1517 0.1191
vn -0.3549 -0.9311 0.0846
vn -0.1043 -0.9657 0.2380
vn -0.3329 -0.9145 0.2301
vn -0.3693 -0.9140 0.1683
vn -0.1567 -0.9876 0.0130
vn -0.0932 -0.9934 0.0675
vn -0.6533 -0.7570 -0.0096
vn -0.4734 -0.8804 -0.0278
vn -0.7184 -0.6883 -0.1003
vn -0.7278 -0.6790 -0.0964
vn -0.4372 -0.8876 -0.1449
vn -0.4210 -0.8982 -0.1262
vn -0.5767 -0.8014 -0.1587
vn -0.4315 -0.8886 -0.1555
vn -0.2756 -0.9447 -0.1778
vn -0.0006 -0.0006 -1.0000
vn -0.0002 -0.0002 -1.0000
vn -0.0004 -0.0014 -1.0000
vn -0.0001 -0.0002 -1.0000
vn -0.0851 0.7214 0.6872
vn -0.0001 0.7132 0.7010
vn 0.4052 -0.9084 0.1031
vn 0.1567 -0.9876 0.0130
vn 0.1422 -0.9870 -0.0747
vn 0.1464 -0.9859 -0.0811
vn 0.0007 -0.0004 -1.0000
vn 0.0006 -0.0003 -1.0000
vn 0.0018 -0.0003 -1.0000
vn 0.6859 -0.7186 -0.1152
vn 0.7131 -0.6921 -0.1118
vn 0.4167 -0.8955 -0.1561
vn 0.3691 -0.9144 -0.1662
vn 0.1384 -0.9750 -0.1740
vn 0.1963 -0.9643 -0.1779
vn -0.0018 -0.0002 -1.0000
vn -0.9846 -0.1693 0.0444
vn -0.0003 -0.0002 -1.0000
vn -0.9720 -0.2289 0.0520
vn -0.9232 -0.3844 -0.0071
vn -0.9473 -0.3197 0.0202
vn -0.8154 0.5573 0.1568
vn -0.0120 0.0064 -0.9999
vn -0.0053 0.0071 -1.0000
vn -0.0017 0.0031 -1.0000
vn -0.2394 0.7970 0.5546
vn -0.8167 0.4224 0.3933
vn -0.8504 0.3640 0.3798
vn -0.8268 0.4002 0.3953
vn -0.9701 0.1829 0.1593
vn -0.8752 0.4498 0.1783
vn -0.9017 0.4070 0.1458
vn -0.8623 0.3452 0.3706
vn -0.9443 0.2013 0.2603
vn -0.6068 0.6906 0.3935
vn -0.4945 0.7630 0.4164
vn -0.6487 0.7406 0.1752
vn -0.6006 0.7884 0.1331
vn 0.0136 0.0067 -0.9999
vn 0.0052 0.0002 -1.0000
vn 0.9677 0.2224 0.1183
vn 0.9255 -0.3787 -0.0051
vn 0.8517 -0.5211 -0.0550
vn 0.8073 -0.5856 -0.0729
vn -0.0016 0.0076 -1.0000
vn -0.0563 0.7740 0.6307
vn -0.1083 0.8192 0.5631
vn -0.3140 0.9397 0.1353
vn -0.1161 0.9865 0.1154
vn 0.4078 0.6793 0.6102
vn 0.4945 0.7630 0.4163
vn 0.9939 0.0586 0.0934
vn 0.9871 0.1024 0.1231
vn 0.8850 0.2968 0.3586
vn 0.9698 0.1082 0.2184
vn 0.9878 -0.1004 0.1194
vn 0.9856 -0.1642 0.0408
vn 0.9684 -0.2441 0.0516
vn 0.9902 -0.1047 0.0922
vn 0.9876 -0.1048 0.1169
vn 0.6842 -0.7213 -0.1073
vn 0.7167 -0.6924 -0.0825
vn 0.4308 -0.8906 -0.1456
vn 0.4230 -0.8978 -0.1226
vn 0.5087 -0.8597 0.0464
vn 0.6010 -0.7980 0.0442
vn -0.3289 0.9325 0.1490
vn -0.4384 0.8875 0.1420
vn -0.4724 0.8653 0.1676
vn -0.4784 0.7798 0.4037
vn -0.3398 0.8424 0.4182
vn -0.3027 0.8884 0.3452
vn -0.0847 0.9252 0.3699
vn -0.0981 0.9304 0.3532
vn -0.1156 0.9865 0.1158
vn 0.0666 0.9936 0.0914
vn 0.0851 0.7215 0.6872
vn 0.2353 0.7158 0.6575
vn 0.0563 0.7740 0.6307
vn 0.5664 0.6127 0.5512
vn 0.9069 0.3619 0.2159
vn 0.9045 0.3748 0.2035
vn 0.7482 0.5037 0.4319
vn 0.8370 0.5255 0.1526
vn 0.8918 0.3035 0.3356
vn 0.8735 0.3545 0.3336
vn 0.8353 0.3967 0.3806
vn 0.2092 0.9728 0.0997
vn 0.1180 0.9852 0.1240
vn 0.6998 0.5236 0.4860
vn 0.7257 0.5055 0.4667
vn 0.8297 0.3967 0.3928
vn 0.8617 0.3412 0.3755
vn 0.8636 0.3418 0.3708
vn 0.7090 0.5838 0.3956
vn 0.6068 0.6905 0.3937
vn 0.6357 0.6507 0.4154
vn 0.7834 0.5934 0.1847
vn 0.7438 0.6534 0.1409
vn 0.6325 0.7597 0.1511
vn 0.6501 0.7402 0.1717
vn 0.0054 0.0080 -1.0000
vn 0.0005 0.0015 -1.0000
vn 0.0031 0.0047 -1.0000
vn 0.2394 0.7970 0.5546
vn 0.1083 0.8192 0.5631
vn 0.0850 0.9243 0.3721
vn 0.1005 0.9301 0.3532
vn 0.4786 0.7798 0.4037
vn 0.3398 0.8424 0.4182
vn 0.3027 0.8884 0.3452
vn 0.4716 0.8671 0.1604
vn 0.4630 0.8732 0.1522
vn 0.3290 0.9327 0.1479
vn 0.3436 0.9285 0.1404
s 1
usemtl material_0
f 1//1 2//1 3//1
f 4//2 5//2 6//2
f 7//3 8//3 9//3
f 10//3 11//3 12//3
f 13//4 14//4 15//4
f 16//5 17//5 18//5
f 19//6 20//6 21//6
f 22//7 23//7 24//7
f 25//8 26//8 27//8
f 28//9 29//9 30//9
f 31//10 32//10 33//10
f 34//11 35//11 36//11
f 37//12 38//12 39//12
f 40//13 41//13 42//13
f 43//14 44//14 45//14
f 46//15 47//15 48//15
f 49//16 50//16 51//16
f 52//17 53//17 54//17
f 55//18 56//18 57//18
f 58//19 59//19 60//19
f 61//20 62//20 63//20
f 64//21 65//21 66//21
f 67//22 68//22 69//22
f 70//23 71//23 72//23
f 73//24 74//24 75//24
f 76//25 77//25 78//25
f 79//26 80//26 81//26
f 82//27 83//27 84//27
f 85//28 86//28 87//28
f 88//29 89//29 90//29
f 91//30 92//30 93//30
f 94//31 95//31 96//31
f 97//32 98//32 99//32
f 100//33 101//33 102//33
f 103//34 104//34 105//34
f 106//35 107//35 108//35
f 109//36 110//36 111//36
f 112//37 113//37 114//37
f 115//38 116//38 117//38
f 118//39 119//39 120//39
f 121//40 122//40 123//40
f 124//41 125//41 126//41
f 127//42 128//42 129//42
f 130//43 131//43 132//43
f 133//44 134//44 135//44
f 136//45 137//45 138//45
f 139//46 140//46 141//46
f 142//47 143//47 144//47
f 145//48 146//48 147//48
f 148//49 149//49 150//49
f 151//50 152//50 153//50
f 154//51 155//51 156//51
f 157//52 158//52 159//52
f 160//53 161//53 162//53
f 163//54 164//54 165//54
f 166//55 167//55 168//55
f 169//56 170//56 171//56
f 172//57 173//57 174//57
f 175//58 176//58 177//58
f 178//59 179//59 180//59
f 181//60 182//60 183//60
f 184//61 185//61 186//61
f 187//62 188//62 189//62
f 190//63 191//63 192//63
f 193//64 194//64 195//64
f 196//65 197//65 198//65
f 199//66 200//66 201//66
f 202//67 203//67 204//67
f 205//68 206//68 207//68
f 208//68 209//68 210//68
f 211//69 212//69 213//69
f 214//70 215//70 216//70
f 217//71 218//71 219//71
f 220//72 221//72 222//72
f 223//73 224//73 225//73
f 226//74 227//74 228//74
f 229//75 230//75 231//75
f 232//76 233//76 234//76
f 235//77 236//77 237//77
f 238//78 239//78 240//78
f 241//78 242//78 243//78
f 244//79 245//79 246//79
f 247//80 248//80 249//80
f 250//81 251//81 252//81
f 253//82 254//82 255//82
f 256//83 257//83 258//83
f 259//84 260//84 261//84
f 262//85 263//85 264//85
f 265//86 266//86 267//86
f 268//87 269//87 270//87
f 271//88 272//88 273//88
f 274//89 275//89 276//89
f 277//90 278//90 279//90
f 280//91 281//91 282//91
f 283//92 284//92 285//92
f 286//93 287//93 288//93
f 289//94 290//94 291//94
f 292//95 293//95 294//95
f 295//96 296//96 297//96
f 298//97 299//97 300//97
f 301//98 302//98 303//98
f 304//99 305//99 306//99
f 307//100 308//100 309//100
f 310//101 311//101 312//101
f 313//102 314//102 315//102
f 316//103 317//103 318//103
f 319//104 320//104 321//104
f 322//105 323//105 324//105
f 325//106 326//106 327//106
f 328//107 329//107 330//107
f 331//108 332//108 333//108
f 334//109 335//109 336//109
f 337//110 338//110 339//110
f 340//111 341//111 342//111
f 343//112 344//112 345//112
f 346//113 347//113 348//113
f 349//114 350//114 351//114
f 352//115 353//115 354//115
f 355//116 356//116 357//116
f 358//117 359//117 360//117
f 361//118 362//118 363//118
f 364//119 365//119 366//119
f 367//120 368//120 369//120
f 370//121 371//121 372//121
f 373//122 374//122 375//122
f 376//123 377//123 378//123
f 379//124 380//124 381//124
f 382//125 383//125 384//125
f 385//126 386//126 387//126
f 388//127 389//127 390//127
f 391//128 392//128 393//128
f 394//129 395//129 396//129
f 397//130 398//130 399//130
f 400//131 401//131 402//131
f 403//132 404//132 405//132
f 406//133 407//133 408//133
f 409//134 410//134 411//134
f 412//135 413//135 414//135
f 415//136 416//136 417//136
f 418//137 419//137 420//137
f 421//138 422//138 423//138
f 424//139 425//139 426//139
f 427//140 428//140 429//140
f 430//141 431//141 432//141
f 433//142 434//142 435//142
f 436//143 437//143 438//143
f 439//144 440//144 441//144
f 442//145 443//145 444//145
f 445//146 446//146 447//146
f 448//147 449//147 450//147
f 451//148 452//148 453//148
f 454//149 455//149 456//149
f 457//150 458//150 459//150
f 460//151 461//151 462//151
f 463//152 464//152 465//152
f 466//153 467//153 468//153
f 469//154 470//154 471//154
f 472//155 473//155 474//155
f 475//156 476//156 477//156
f 478//157 479//157 480//157
f 481//158 482//158 483//158
f 484//159 485//159 486//159
f 487//160 488//160 489//160
f 490//161 491//161 492//161
f 493//162 494//162 495//162
f 496//163 497//163 498//163
f 499//164 500//164 501//164
f 502//165 503//165 504//165
f 505//166 506//166 507//166
f 508//167 509//167 510//167
f 511//168 512//168 513//168
f 514//169 515//169 516//169
f 517//170 518//170 519//170
f 520//171 521//171 522//171
f 523//172 524//172 525//172
f 526//173 527//173 528//173
f 529//174 530//174 531//174
f 532//175 533//175 534//175
