# Blender 4.5.10 LTS
# www.blender.org
mtllib iiwa_link_6_vis_3.mtl
o node
v 0.053564 -0.026403 -0.133500
v 0.065959 -0.000990 -0.133500
v 0.061097 -0.014347 -0.100500
v 0.061097 -0.014347 -0.100500
v 0.057646 -0.020573 -0.100500
v 0.053564 -0.026403 -0.133500
v 0.065959 -0.000990 -0.133500
v 0.065959 -0.000989 -0.100500
v 0.061097 -0.014347 -0.100500
v 0.066946 0.027269 -0.133500
v 0.056354 0.053486 -0.133500
v 0.063028 0.040935 -0.100500
v 0.063028 0.040935 -0.100500
v 0.065345 0.034205 -0.100500
v 0.066946 0.027269 -0.133500
v 0.056354 0.053486 -0.133500
v 0.056354 0.053487 -0.100500
v 0.063028 0.040935 -0.100500
v -0.067980 0.017834 -0.133500
v -0.067979 0.017834 -0.100500
v -0.061138 0.045271 -0.100500
v -0.063070 -0.010012 -0.133500
v -0.063070 -0.010012 -0.100500
v -0.067979 0.017834 -0.100500
v -0.047257 -0.033453 -0.133500
v -0.047257 -0.033453 -0.100500
v -0.063070 -0.010012 -0.100500
v -0.043731 0.067552 -0.133500
v -0.061139 0.045271 -0.133500
v -0.048013 0.063636 -0.125116
v -0.061138 0.045271 -0.100500
v -0.046151 0.065422 -0.119015
v -0.048013 0.063636 -0.125116
v -0.061138 0.045271 -0.100500
v -0.045498 0.065987 -0.116971
v -0.046151 0.065422 -0.119015
v -0.061138 0.045271 -0.100500
v -0.043731 0.067552 -0.100500
v -0.043713 0.067534 -0.111387
v -0.043713 0.067534 -0.111387
v -0.045498 0.065987 -0.116971
v -0.061138 0.045271 -0.100500
v -0.048013 0.063636 -0.125116
v -0.061139 0.045271 -0.133500
v -0.061138 0.045271 -0.100500
v 0.022429 -0.048630 -0.112837
v 0.030808 -0.045099 -0.116988
v 0.031882 -0.044536 -0.114121
v 0.023636 -0.048290 -0.121994
v 0.027099 -0.046896 -0.125116
v 0.029288 -0.045897 -0.121049
v 0.030808 -0.045099 -0.116988
v 0.022438 -0.048674 -0.120941
v 0.023636 -0.048290 -0.121994
v 0.022438 -0.048674 -0.120941
v 0.030808 -0.045099 -0.116988
v 0.022429 -0.048630 -0.112837
v 0.022429 -0.048630 -0.112837
v 0.020118 -0.049487 -0.114810
v 0.022438 -0.048674 -0.120941
v 0.020118 -0.049487 -0.114810
v 0.017727 -0.050181 -0.116803
v 0.022438 -0.048674 -0.120941
v 0.029288 -0.045897 -0.121049
v 0.030808 -0.045099 -0.116988
v 0.023636 -0.048290 -0.121994
v 0.031882 -0.044536 -0.114121
v 0.031904 -0.044578 -0.100500
v 0.027099 -0.046896 -0.108849
v 0.018722 -0.049904 -0.100500
v 0.020221 -0.049455 -0.108849
v 0.027099 -0.046896 -0.108849
v 0.018722 -0.049904 -0.100500
v 0.011012 -0.051637 -0.108849
v 0.017684 -0.050193 -0.111092
v 0.011012 -0.051637 -0.108849
v 0.016823 -0.050396 -0.111843
v 0.017684 -0.050193 -0.111092
v 0.011012 -0.051637 -0.108849
v 0.011012 -0.051637 -0.114826
v 0.013404 -0.051200 -0.114826
v 0.013404 -0.051200 -0.114826
v 0.016823 -0.050396 -0.111843
v 0.011012 -0.051637 -0.108849
v 0.017684 -0.050193 -0.111092
v 0.020221 -0.049455 -0.108849
v 0.018722 -0.049904 -0.100500
v 0.004722 -0.052373 -0.100500
v 0.005863 -0.052283 -0.108849
v 0.011012 -0.051637 -0.108849
v 0.011012 -0.051637 -0.108849
v 0.018722 -0.049904 -0.100500
v 0.004722 -0.052373 -0.100500
v 0.004722 -0.052373 -0.100500
v 0.004722 -0.052373 -0.133500
v 0.005863 -0.052283 -0.125116
v 0.004722 -0.052373 -0.133500
v 0.027099 -0.046896 -0.125116
v 0.020221 -0.049455 -0.125116
v 0.020221 -0.049455 -0.125116
v 0.011012 -0.051637 -0.125116
v 0.004722 -0.052373 -0.133500
v 0.004722 -0.052373 -0.133500
v 0.027727 -0.046619 -0.125116
v 0.027099 -0.046896 -0.125116
v 0.027727 -0.046619 -0.125116
v 0.029288 -0.045897 -0.121049
v 0.027099 -0.046896 -0.125116
v 0.011012 -0.051637 -0.125116
v 0.005863 -0.052283 -0.125116
v 0.004722 -0.052373 -0.133500
v 0.011012 -0.051637 -0.125116
v 0.015024 -0.050853 -0.120433
v 0.013267 -0.051227 -0.118870
v 0.011012 -0.051637 -0.125116
v 0.016751 -0.050388 -0.121989
v 0.015024 -0.050853 -0.120433
v 0.011012 -0.051637 -0.125116
v 0.020221 -0.049455 -0.125116
v 0.016751 -0.050388 -0.121989
v 0.013267 -0.051227 -0.118870
v 0.011012 -0.051638 -0.118870
v 0.011012 -0.051637 -0.125116
v 0.005863 -0.052283 -0.125116
v 0.005863 -0.052283 -0.108849
v 0.004722 -0.052373 -0.100500
v 0.031904 -0.044578 -0.133500
v 0.031903 -0.044578 -0.125116
v 0.027727 -0.046619 -0.125116
v 0.027727 -0.046619 -0.125116
v 0.004722 -0.052373 -0.133500
v 0.031904 -0.044578 -0.133500
v 0.027099 -0.046896 -0.108849
v 0.031904 -0.044578 -0.100500
v 0.018722 -0.049904 -0.100500
v 0.031904 -0.044578 -0.133500
v 0.053564 -0.026403 -0.133500
v 0.033089 -0.043933 -0.125116
v 0.043074 -0.037138 -0.123689
v 0.042606 -0.037519 -0.122262
v 0.034138 -0.043336 -0.122262
v 0.034138 -0.043336 -0.122262
v 0.033746 -0.043562 -0.123332
v 0.043074 -0.037138 -0.123689
v 0.033614 -0.043636 -0.123690
v 0.043540 -0.036753 -0.125116
v 0.043193 -0.037042 -0.124046
v 0.043193 -0.037042 -0.124046
v 0.043074 -0.037138 -0.123689
v 0.033614 -0.043636 -0.123690
v 0.033746 -0.043562 -0.123332
v 0.033614 -0.043636 -0.123690
v 0.043074 -0.037138 -0.123689
v 0.053564 -0.026403 -0.133500
v 0.047971 -0.032713 -0.125116
v 0.043540 -0.036753 -0.125116
v 0.043540 -0.036753 -0.125116
v 0.033089 -0.043933 -0.125116
v 0.053564 -0.026403 -0.133500
v 0.033614 -0.043636 -0.123690
v 0.033089 -0.043933 -0.125116
v 0.043540 -0.036753 -0.125116
v 0.053564 -0.026404 -0.100500
v 0.045443 -0.035047 -0.116975
v 0.047971 -0.032713 -0.125116
v 0.044182 -0.036211 -0.112917
v 0.053564 -0.026404 -0.100500
v 0.048894 -0.031775 -0.100500
v 0.048894 -0.031775 -0.100500
v 0.042861 -0.037312 -0.108849
v 0.044182 -0.036211 -0.112917
v 0.044182 -0.036211 -0.112917
v 0.045443 -0.035047 -0.116975
v 0.053564 -0.026404 -0.100500
v 0.043689 -0.036629 -0.100500
v 0.031904 -0.044578 -0.100500
v 0.033855 -0.043501 -0.108849
v 0.042861 -0.037312 -0.108849
v 0.048894 -0.031775 -0.100500
v 0.043689 -0.036629 -0.100500
v 0.033855 -0.043501 -0.108849
v 0.042861 -0.037312 -0.108849
v 0.043689 -0.036629 -0.100500
v 0.031904 -0.044578 -0.100500
v 0.031882 -0.044536 -0.114121
v 0.033855 -0.043501 -0.108849
v 0.047971 -0.032713 -0.125116
v 0.053564 -0.026403 -0.133500
v 0.053564 -0.026404 -0.100500
v 0.066946 0.027269 -0.133500
v 0.066946 0.027270 -0.100500
v 0.067720 0.021388 -0.100500
v 0.067720 0.021388 -0.100500
v 0.067979 0.015461 -0.133500
v 0.066946 0.027269 -0.133500
v 0.067978 0.015162 -0.133500
v 0.067978 0.015161 -0.100500
v 0.067454 0.007026 -0.100500
v 0.067454 0.007026 -0.100500
v 0.065959 -0.000990 -0.133500
v 0.067978 0.015162 -0.133500
v -0.026028 -0.047271 -0.112806
v -0.027225 -0.046860 -0.119925
v -0.026036 -0.047315 -0.120990
v -0.026028 -0.047271 -0.112806
v -0.030603 -0.045274 -0.116803
v -0.027225 -0.046860 -0.119925
v -0.023256 -0.048380 -0.123481
v -0.023779 -0.048253 -0.110841
v -0.026028 -0.047271 -0.112806
v -0.023256 -0.048380 -0.123481
v -0.023276 -0.048430 -0.110414
v -0.023779 -0.048253 -0.110841
v -0.023278 -0.048438 -0.133500
v 0.004722 -0.052373 -0.133500
v -0.021431 -0.049079 -0.125116
v -0.019562 -0.049670 -0.121304
v -0.021431 -0.049080 -0.108849
v -0.023276 -0.048430 -0.110414
v -0.019562 -0.049670 -0.121304
v -0.023256 -0.048380 -0.123481
v -0.021431 -0.049079 -0.125116
v -0.021431 -0.049079 -0.125116
v -0.017533 -0.050244 -0.124295
v -0.017751 -0.050184 -0.123975
v -0.021431 -0.049079 -0.125116
v -0.017751 -0.050184 -0.123975
v -0.019562 -0.049670 -0.121304
v -0.021431 -0.049079 -0.125116
v 0.004722 -0.052373 -0.133500
v -0.012964 -0.051296 -0.125418
v 0.004722 -0.052373 -0.133500
v -0.002624 -0.052489 -0.125089
v -0.005602 -0.052310 -0.125418
v -0.005602 -0.052310 -0.125418
v -0.012964 -0.051296 -0.125418
v 0.004722 -0.052373 -0.133500
v 0.004722 -0.052373 -0.133500
v 0.000206 -0.052538 -0.123296
v -0.000729 -0.052522 -0.123888
v -0.000729 -0.052522 -0.123888
v -0.002624 -0.052489 -0.125089
v 0.004722 -0.052373 -0.133500
v 0.004722 -0.052373 -0.100500
v 0.001336 -0.052524 -0.108849
v 0.001335 -0.052525 -0.119447
v 0.001335 -0.052525 -0.119447
v 0.004722 -0.052373 -0.133500
v 0.004722 -0.052373 -0.100500
v 0.001335 -0.052525 -0.119447
v 0.000206 -0.052538 -0.123296
v 0.004722 -0.052373 -0.133500
v -0.012964 -0.051296 -0.125418
v -0.017533 -0.050244 -0.124295
v -0.021431 -0.049079 -0.125116
v -0.023276 -0.048430 -0.110414
v -0.023256 -0.048380 -0.123481
v -0.019562 -0.049670 -0.121304
v 0.004722 -0.052373 -0.100500
v -0.023278 -0.048438 -0.100500
v -0.003853 -0.052430 -0.108849
v -0.004924 -0.052348 -0.120024
v -0.003941 -0.052425 -0.119365
v -0.003853 -0.052431 -0.118370
v -0.003853 -0.052430 -0.108849
v -0.011838 -0.051503 -0.121243
v -0.006743 -0.052206 -0.121243
v -0.003853 -0.052430 -0.108849
v -0.013477 -0.051187 -0.120171
v -0.012816 -0.051323 -0.121158
v -0.012816 -0.051323 -0.121158
v -0.011838 -0.051503 -0.121243
v -0.003853 -0.052430 -0.108849
v -0.006743 -0.052206 -0.121243
v -0.004924 -0.052348 -0.120024
v -0.003853 -0.052430 -0.108849
v -0.003853 -0.052430 -0.108849
v -0.014681 -0.050939 -0.108849
v -0.014681 -0.050939 -0.118370
v -0.014681 -0.050939 -0.118370
v -0.013477 -0.051187 -0.120171
v -0.003853 -0.052430 -0.108849
v -0.023278 -0.048438 -0.100500
v -0.019702 -0.049628 -0.108849
v -0.014681 -0.050939 -0.108849
v -0.014681 -0.050939 -0.108849
v -0.003853 -0.052430 -0.108849
v -0.023278 -0.048438 -0.100500
v -0.003853 -0.052431 -0.118370
v -0.003853 -0.052430 -0.108849
v -0.004924 -0.052348 -0.120024
v -0.021431 -0.049080 -0.108849
v -0.019562 -0.049670 -0.121304
v -0.019702 -0.049628 -0.119447
v -0.023278 -0.048438 -0.100500
v -0.023250 -0.048365 -0.108849
v -0.021431 -0.049080 -0.108849
v -0.021431 -0.049080 -0.108849
v -0.019702 -0.049628 -0.108849
v -0.023278 -0.048438 -0.100500
v -0.019702 -0.049628 -0.119447
v -0.019702 -0.049628 -0.108849
v -0.021431 -0.049080 -0.108849
v -0.003853 -0.052430 -0.108849
v 0.001336 -0.052524 -0.108849
v 0.004722 -0.052373 -0.100500
v -0.036576 -0.041877 -0.108849
v -0.031395 -0.044843 -0.111819
v -0.028261 -0.046397 -0.108849
v -0.036576 -0.041877 -0.108849
v -0.036576 -0.041877 -0.114826
v -0.034503 -0.043148 -0.114826
v -0.034503 -0.043148 -0.114826
v -0.032200 -0.044442 -0.112583
v -0.036576 -0.041877 -0.108849
v -0.032200 -0.044442 -0.112583
v -0.031395 -0.044843 -0.111819
v -0.036576 -0.041877 -0.108849
v -0.028261 -0.046397 -0.108849
v -0.023278 -0.048438 -0.100500
v -0.036576 -0.041877 -0.108849
v -0.047257 -0.033453 -0.100500
v -0.040842 -0.038922 -0.108849
v -0.036576 -0.041877 -0.108849
v -0.047257 -0.033453 -0.100500
v -0.047257 -0.033453 -0.133500
v -0.040842 -0.038922 -0.125116
v -0.040842 -0.038922 -0.125116
v -0.040842 -0.038922 -0.108849
v -0.047257 -0.033453 -0.100500
v -0.036576 -0.041877 -0.108849
v -0.023278 -0.048438 -0.100500
v -0.047257 -0.033453 -0.100500
v -0.047257 -0.033453 -0.133500
v -0.023278 -0.048438 -0.133500
v -0.036576 -0.041877 -0.125116
v -0.036576 -0.041877 -0.125116
v -0.031451 -0.044785 -0.122006
v -0.034623 -0.043076 -0.118870
v -0.036576 -0.041877 -0.125116
v -0.023278 -0.048438 -0.133500
v -0.028261 -0.046397 -0.125116
v -0.028261 -0.046397 -0.125116
v -0.029886 -0.045630 -0.123553
v -0.036576 -0.041877 -0.125116
v -0.029886 -0.045630 -0.123553
v -0.031451 -0.044785 -0.122006
v -0.036576 -0.041877 -0.125116
v -0.023278 -0.048438 -0.133500
v -0.023250 -0.048365 -0.125116
v -0.028261 -0.046397 -0.125116
v -0.034623 -0.043076 -0.118870
v -0.036576 -0.041877 -0.118870
v -0.036576 -0.041877 -0.125116
v -0.036576 -0.041877 -0.125116
v -0.040842 -0.038922 -0.125116
v -0.047257 -0.033453 -0.133500
v -0.018764 0.080827 -0.133500
v -0.043731 0.067552 -0.133500
v -0.027141 0.077819 -0.125116
v -0.027141 0.077819 -0.125116
v -0.020263 0.080378 -0.125116
v -0.018764 0.080827 -0.133500
v -0.043731 0.067552 -0.100500
v -0.027141 0.077819 -0.108849
v -0.033896 0.074424 -0.108849
v -0.031635 0.075665 -0.114950
v -0.033896 0.074424 -0.108849
v -0.027141 0.077819 -0.108849
v -0.030859 0.076042 -0.116991
v -0.031635 0.075665 -0.114950
v -0.023678 0.079213 -0.111836
v -0.023678 0.079213 -0.111836
v -0.022479 0.079597 -0.112844
v -0.030859 0.076042 -0.116991
v -0.030859 0.076042 -0.116991
v -0.022471 0.079552 -0.120948
v -0.027141 0.077819 -0.125116
v -0.022479 0.079597 -0.112844
v -0.020160 0.080410 -0.118885
v -0.022471 0.079552 -0.120948
v -0.022479 0.079597 -0.112844
v -0.018753 0.080789 -0.115976
v -0.018760 0.080817 -0.117667
v -0.018760 0.080817 -0.117667
v -0.020160 0.080410 -0.118885
v -0.022479 0.079597 -0.112844
v -0.022471 0.079552 -0.120948
v -0.030859 0.076042 -0.116991
v -0.022479 0.079597 -0.112844
v -0.027141 0.077819 -0.125116
v -0.027769 0.077543 -0.125116
v -0.030859 0.076042 -0.116991
v -0.027141 0.077819 -0.108849
v -0.023678 0.079213 -0.111836
v -0.031635 0.075665 -0.114950
v -0.033896 0.074424 -0.108849
v -0.042903 0.068236 -0.108849
v -0.043731 0.067552 -0.100500
v -0.043731 0.067552 -0.133500
v -0.033131 0.074857 -0.125116
v -0.027769 0.077543 -0.125116
v -0.043731 0.067552 -0.133500
v -0.033656 0.074559 -0.123689
v -0.033393 0.074709 -0.124403
v -0.033656 0.074559 -0.123689
v -0.042882 0.068253 -0.122976
v -0.042648 0.068442 -0.122262
v -0.033656 0.074559 -0.123689
v -0.043116 0.068060 -0.123689
v -0.042882 0.068253 -0.122976
v -0.033656 0.074559 -0.123689
v -0.043731 0.067552 -0.133500
v -0.043582 0.067677 -0.125116
v -0.043582 0.067677 -0.125116
v -0.043116 0.068060 -0.123689
v -0.033656 0.074559 -0.123689
v -0.042648 0.068442 -0.122262
v -0.034180 0.074259 -0.122262
v -0.033656 0.074559 -0.123689
v -0.033393 0.074709 -0.124403
v -0.033131 0.074857 -0.125116
v -0.043731 0.067552 -0.133500
v -0.043731 0.067552 -0.133500
v -0.043731 0.067553 -0.125116
v -0.043582 0.067677 -0.125116
v -0.027769 0.077543 -0.125116
v -0.027141 0.077819 -0.125116
v -0.043731 0.067552 -0.133500
v -0.042903 0.068236 -0.108849
v -0.043713 0.067534 -0.111387
v -0.043731 0.067552 -0.100500
v -0.018764 0.080827 -0.100500
v -0.020263 0.080378 -0.108849
v -0.027141 0.077819 -0.108849
v -0.018764 0.080827 -0.100500
v -0.018752 0.080787 -0.110177
v -0.020263 0.080378 -0.108849
v -0.027141 0.077819 -0.108849
v -0.043731 0.067552 -0.100500
v -0.018764 0.080827 -0.100500
v -0.011054 0.082561 -0.108849
v -0.016861 0.081296 -0.111841
v -0.018752 0.080787 -0.110177
v -0.011054 0.082561 -0.108849
v -0.011054 0.082561 -0.114826
v -0.013446 0.082124 -0.114826
v -0.013446 0.082124 -0.114826
v -0.015168 0.081752 -0.113330
v -0.011054 0.082561 -0.108849
v -0.015168 0.081752 -0.113330
v -0.016861 0.081296 -0.111841
v -0.011054 0.082561 -0.108849
v -0.000148 0.083462 -0.100500
v -0.005905 0.083207 -0.108849
v -0.011054 0.082561 -0.108849
v -0.011054 0.082561 -0.108849
v -0.018764 0.080827 -0.100500
v -0.000148 0.083462 -0.100500
v 0.009443 0.082799 -0.133500
v -0.005905 0.083207 -0.125116
v 0.000789 0.083456 -0.124236
v 0.000789 0.083456 -0.124236
v 0.005560 0.083233 -0.125418
v 0.009443 0.082799 -0.133500
v -0.005905 0.083207 -0.125116
v -0.001246 0.083451 -0.121230
v 0.000653 0.083457 -0.124034
v -0.005905 0.083207 -0.108849
v -0.001377 0.083447 -0.108849
v -0.001377 0.083448 -0.119447
v -0.001377 0.083448 -0.119447
v -0.005905 0.083207 -0.125116
v -0.005905 0.083207 -0.108849
v -0.001377 0.083448 -0.119447
v -0.001246 0.083451 -0.121230
v -0.005905 0.083207 -0.125116
v 0.000653 0.083457 -0.124034
v 0.000789 0.083456 -0.124236
v -0.005905 0.083207 -0.125116
v -0.018764 0.080827 -0.133500
v -0.011054 0.082560 -0.125116
v -0.005905 0.083207 -0.125116
v -0.005905 0.083207 -0.125116
v 0.009443 0.082799 -0.133500
v -0.018764 0.080827 -0.133500
v -0.000148 0.083462 -0.100500
v 0.009443 0.082799 -0.100500
v 0.003811 0.083354 -0.108849
v 0.003811 0.083354 -0.108849
v -0.001377 0.083447 -0.108849
v -0.000148 0.083462 -0.100500
v -0.001377 0.083447 -0.108849
v -0.005905 0.083207 -0.108849
v -0.000148 0.083462 -0.100500
v -0.011054 0.082560 -0.125116
v -0.016797 0.081336 -0.121987
v -0.013309 0.082150 -0.118870
v -0.011054 0.082560 -0.125116
v -0.018764 0.080827 -0.133500
v -0.018761 0.080814 -0.123755
v -0.018761 0.080814 -0.123755
v -0.017674 0.081130 -0.122772
v -0.011054 0.082560 -0.125116
v -0.017674 0.081130 -0.122772
v -0.016797 0.081336 -0.121987
v -0.011054 0.082560 -0.125116
v -0.013309 0.082150 -0.118870
v -0.011053 0.082561 -0.118870
v -0.011054 0.082560 -0.125116
v 0.009443 0.082799 -0.100500
v 0.005034 0.083268 -0.120180
v 0.003811 0.083354 -0.118370
v 0.006701 0.083129 -0.121243
v 0.005690 0.083222 -0.121153
v 0.005034 0.083268 -0.120180
v 0.009443 0.082799 -0.100500
v 0.009443 0.082800 -0.121243
v 0.006701 0.083129 -0.121243
v 0.005034 0.083268 -0.120180
v 0.009443 0.082799 -0.100500
v 0.006701 0.083129 -0.121243
v 0.003811 0.083354 -0.118370
v 0.003811 0.083354 -0.108849
v 0.009443 0.082799 -0.100500
v 0.005560 0.083233 -0.125418
v 0.009443 0.082800 -0.125418
v 0.009443 0.082799 -0.133500
v 0.036009 0.073122 -0.114826
v 0.036014 0.073128 -0.100500
v 0.036534 0.072800 -0.108849
v 0.036014 0.073128 -0.100500
v 0.041844 0.069046 -0.100500
v 0.040800 0.069845 -0.108849
v 0.040800 0.069845 -0.108849
v 0.036534 0.072800 -0.108849
v 0.036014 0.073128 -0.100500
v 0.056354 0.053486 -0.133500
v 0.040801 0.069846 -0.125116
v 0.040800 0.069845 -0.108849
v 0.040800 0.069845 -0.108849
v 0.047216 0.064376 -0.100500
v 0.056354 0.053486 -0.133500
v 0.047216 0.064376 -0.100500
v 0.052070 0.059171 -0.100500
v 0.056354 0.053486 -0.133500
v 0.052070 0.059171 -0.100500
v 0.056354 0.053487 -0.100500
v 0.056354 0.053486 -0.133500
v 0.041844 0.069046 -0.100500
v 0.047216 0.064376 -0.100500
v 0.040800 0.069845 -0.108849
v 0.036014 0.073129 -0.133500
v 0.036534 0.072801 -0.125116
v 0.040801 0.069846 -0.125116
v 0.036010 0.073123 -0.118870
v 0.036534 0.072801 -0.118870
v 0.036534 0.072801 -0.125116
v 0.036534 0.072801 -0.125116
v 0.036014 0.073129 -0.133500
v 0.036010 0.073123 -0.118870
v 0.040801 0.069846 -0.125116
v 0.056354 0.053486 -0.133500
v 0.036014 0.073129 -0.133500
v 0.036014 0.073129 -0.133500
v 0.032235 0.075325 -0.121214
v 0.034582 0.074000 -0.118870
v 0.036014 0.073129 -0.133500
v 0.031414 0.075733 -0.122012
v 0.032235 0.075325 -0.121214
v 0.036014 0.073129 -0.133500
v 0.028220 0.077321 -0.125116
v 0.031414 0.075733 -0.122012
v 0.036014 0.073129 -0.133500
v 0.009443 0.082799 -0.133500
v 0.021389 0.080003 -0.125116
v 0.021389 0.080003 -0.125116
v 0.028220 0.077321 -0.125116
v 0.036014 0.073129 -0.133500
v 0.009443 0.082799 -0.100500
v 0.013850 0.082030 -0.120450
v 0.013654 0.082072 -0.120744
v 0.013654 0.082072 -0.120744
v 0.011796 0.082426 -0.121243
v 0.009443 0.082799 -0.100500
v 0.013850 0.082030 -0.120450
v 0.009443 0.082799 -0.100500
v 0.014639 0.081863 -0.118370
v 0.009443 0.082799 -0.100500
v 0.014640 0.081863 -0.108849
v 0.014639 0.081863 -0.118370
v 0.014639 0.081863 -0.118370
v 0.014542 0.081883 -0.119412
v 0.013850 0.082030 -0.120450
v 0.009443 0.082799 -0.100500
v 0.021389 0.080003 -0.108849
v 0.019660 0.080552 -0.108849
v 0.019660 0.080552 -0.108849
v 0.014640 0.081863 -0.108849
v 0.009443 0.082799 -0.100500
v 0.027183 0.077784 -0.113815
v 0.030561 0.076197 -0.116803
v 0.025987 0.078194 -0.120980
v 0.019660 0.080552 -0.119447
v 0.025993 0.078239 -0.112795
v 0.027183 0.077784 -0.113815
v 0.019660 0.080552 -0.119447
v 0.019660 0.080552 -0.108849
v 0.021389 0.080003 -0.108849
v 0.021389 0.080003 -0.108849
v 0.025993 0.078239 -0.112795
v 0.019660 0.080552 -0.119447
v 0.023737 0.079176 -0.123034
v 0.021389 0.080003 -0.125116
v 0.018696 0.080835 -0.123140
v 0.019660 0.080552 -0.119447
v 0.025987 0.078194 -0.120980
v 0.023737 0.079176 -0.123034
v 0.018696 0.080835 -0.123140
v 0.019660 0.080552 -0.119447
v 0.023737 0.079176 -0.123034
v 0.021389 0.080003 -0.125116
v 0.009443 0.082799 -0.133500
v 0.016074 0.081529 -0.125011
v 0.016074 0.081529 -0.125011
v 0.017694 0.081101 -0.123855
v 0.021389 0.080003 -0.125116
v 0.009443 0.082799 -0.133500
v 0.009443 0.082800 -0.125418
v 0.012922 0.082219 -0.125418
v 0.012922 0.082219 -0.125418
v 0.013561 0.082092 -0.125413
v 0.009443 0.082799 -0.133500
v 0.013561 0.082092 -0.125413
v 0.016074 0.081529 -0.125011
v 0.009443 0.082799 -0.133500
v 0.017694 0.081101 -0.123855
v 0.018696 0.080835 -0.123140
v 0.021389 0.080003 -0.125116
v 0.025987 0.078194 -0.120980
v 0.019660 0.080552 -0.119447
v 0.027183 0.077784 -0.113815
v 0.011796 0.082426 -0.121243
v 0.009443 0.082800 -0.121243
v 0.009443 0.082799 -0.100500
v 0.028219 0.077320 -0.108849
v 0.021389 0.080003 -0.108849
v 0.023236 0.079361 -0.100500
v 0.021389 0.080003 -0.108849
v 0.019860 0.080490 -0.100500
v 0.023236 0.079361 -0.100500
v 0.021389 0.080003 -0.108849
v 0.016430 0.081441 -0.100500
v 0.019860 0.080490 -0.100500
v 0.021389 0.080003 -0.108849
v 0.009443 0.082799 -0.100500
v 0.016430 0.081441 -0.100500
v 0.036014 0.073128 -0.100500
v 0.029812 0.076567 -0.110345
v 0.028219 0.077320 -0.108849
v 0.036014 0.073128 -0.100500
v 0.031348 0.075742 -0.111825
v 0.029812 0.076567 -0.110345
v 0.036014 0.073128 -0.100500
v 0.036009 0.073122 -0.114826
v 0.034461 0.074071 -0.114826
v 0.034461 0.074071 -0.114826
v 0.031348 0.075742 -0.111825
v 0.036014 0.073128 -0.100500
v 0.028219 0.077320 -0.108849
v 0.029788 0.076579 -0.100500
v 0.036014 0.073128 -0.100500
v 0.023236 0.079361 -0.100500
v 0.029788 0.076579 -0.100500
v 0.028219 0.077320 -0.108849
v 0.034582 0.074000 -0.118870
v 0.036010 0.073123 -0.118870
v 0.036014 0.073129 -0.133500
v 0.036534 0.072800 -0.108849
v 0.036534 0.072801 -0.114826
v 0.036009 0.073122 -0.114826
v -0.018752 0.080787 -0.110177
v -0.018764 0.080827 -0.100500
v -0.011054 0.082561 -0.108849
v -0.020263 0.080378 -0.125116
v -0.018761 0.080814 -0.123755
v -0.018764 0.080827 -0.133500
v -0.018760 0.080817 -0.117667
v -0.018753 0.080789 -0.115976
v -0.017769 0.081104 -0.116803
v -0.028261 -0.046397 -0.108849
v -0.023250 -0.048365 -0.108849
v -0.023278 -0.048438 -0.100500
v -0.021431 -0.049079 -0.125116
v -0.023250 -0.048365 -0.125116
v -0.023278 -0.048438 -0.133500
v -0.026036 -0.047315 -0.120990
v -0.023256 -0.048380 -0.123481
v -0.026028 -0.047271 -0.112806
v 0.067454 0.007026 -0.100500
v 0.065959 -0.000989 -0.100500
v 0.065959 -0.000990 -0.133500
v 0.067720 0.021388 -0.100500
v 0.067979 0.015462 -0.100500
v 0.067979 0.015461 -0.133500
v 0.033089 -0.043933 -0.125116
v 0.031903 -0.044578 -0.125116
v 0.031904 -0.044578 -0.133500
v 0.031882 -0.044536 -0.114121
v 0.027099 -0.046896 -0.108849
v 0.022429 -0.048630 -0.112837
v -0.048013 0.063636 -0.125116
v -0.043731 0.067553 -0.125116
v -0.043731 0.067552 -0.133500
v -0.063070 -0.010012 -0.100500
v -0.063070 -0.010012 -0.133500
v -0.047257 -0.033453 -0.133500
v -0.067979 0.017834 -0.100500
v -0.067980 0.017834 -0.133500
v -0.063070 -0.010012 -0.133500
v -0.061138 0.045271 -0.100500
v -0.061139 0.045271 -0.133500
v -0.067980 0.017834 -0.133500
v 0.065345 0.034205 -0.100500
v 0.066946 0.027270 -0.100500
v 0.066946 0.027269 -0.133500
v 0.057646 -0.020573 -0.100500
v 0.053564 -0.026404 -0.100500
v 0.053564 -0.026403 -0.133500
v -0.040489 0.070105 -0.115816
v -0.039491 0.070833 -0.112893
v -0.037545 0.072170 -0.112893
v -0.037545 0.072170 -0.112893
v -0.036767 0.072677 -0.115087
v -0.040489 0.070105 -0.115816
v -0.036767 0.072677 -0.115087
v -0.036505 0.072841 -0.115819
v -0.040489 0.070105 -0.115816
v -0.035458 0.073497 -0.118742
v -0.041479 0.069362 -0.118742
v -0.040740 0.069922 -0.116549
v -0.040740 0.069922 -0.116549
v -0.040489 0.070105 -0.115816
v -0.035458 0.073497 -0.118742
v -0.036505 0.072841 -0.115819
v -0.035458 0.073497 -0.118742
v -0.040489 0.070105 -0.115816
v 0.041437 -0.038440 -0.118742
v 0.036463 -0.041916 -0.115818
v 0.035943 -0.042250 -0.117280
v 0.036463 -0.041916 -0.115818
v 0.039951 -0.039550 -0.114356
v 0.039449 -0.039910 -0.112893
v 0.036463 -0.041916 -0.115818
v 0.040446 -0.039180 -0.115817
v 0.039951 -0.039550 -0.114356
v 0.036463 -0.041916 -0.115818
v 0.041437 -0.038440 -0.118742
v 0.040446 -0.039180 -0.115817
v 0.039449 -0.039910 -0.112893
v 0.037503 -0.041247 -0.112893
v 0.036463 -0.041916 -0.115818
v 0.035943 -0.042250 -0.117280
v 0.035417 -0.042574 -0.118742
v 0.041437 -0.038440 -0.118742
v 0.067978 0.015161 -0.100500
v 0.067978 0.015162 -0.133500
v 0.067979 0.015461 -0.133500
v 0.067979 0.015461 -0.133500
v 0.067979 0.015462 -0.100500
v 0.067978 0.015161 -0.100500
vn 0.8979 -0.4379 -0.0450
vn 0.8744 -0.4847 -0.0225
vn 0.9397 -0.3420 -0.0000
vn 0.9262 0.3742 -0.0450
vn 0.9453 0.3254 -0.0225
vn 0.8829 0.4695 -0.0000
vn -0.9703 0.2419 -0.0000
vn -0.9848 -0.1736 -0.0000
vn -0.8290 -0.5592 -0.0000
vn -0.7829 0.6116 -0.1141
vn -0.7770 0.6272 0.0536
vn -0.7688 0.6357 0.0696
vn -0.7880 0.6156 -0.0023
vn -0.8136 0.5815 -0.0000
vn 0.4007 -0.9157 0.0299
vn 0.3873 -0.9218 0.0180
vn 0.3623 -0.9292 0.0733
vn 0.3906 -0.9205 0.0054
vn 0.3435 -0.9391 0.0055
vn 0.2914 -0.9565 -0.0165
vn 0.3843 -0.9225 0.0374
vn 0.4395 -0.8983 -0.0035
vn 0.3487 -0.9372 0.0122
vn 0.2134 -0.9770 0.0057
vn 0.2162 -0.9762 0.0147
vn 0.1797 -0.9837 -0.0000
vn 0.2165 -0.9762 0.0153
vn 0.2804 -0.9599 -0.0013
vn 0.1245 -0.9922 0.0064
vn 0.1734 -0.9839 0.0440
vn 0.0778 -0.9970 -0.0000
vn 0.3323 -0.8930 -0.3035
vn 0.2297 -0.9693 -0.0873
vn 0.3639 -0.8250 -0.4324
vn 0.4036 -0.9149 0.0075
vn 0.1245 -0.9922 -0.0064
vn 0.2011 -0.9795 -0.0083
vn 0.2306 -0.9724 -0.0347
vn 0.2304 -0.9725 -0.0345
vn 0.1789 -0.9839 -0.0000
vn 0.4391 -0.8984 -0.0000
vn 0.2744 -0.9568 -0.0963
vn 0.3743 -0.9264 0.0418
vn 0.6424 -0.7657 -0.0320
vn 0.5659 -0.8237 -0.0343
vn 0.5661 -0.8237 -0.0334
vn 0.5657 -0.8237 -0.0385
vn 0.5660 -0.8238 -0.0323
vn 0.5658 -0.8236 -0.0384
vn 0.6700 -0.7347 -0.1059
vn 0.5360 -0.7802 -0.3223
vn 0.5659 -0.8237 -0.0368
vn 0.7105 -0.7035 0.0189
vn 0.7537 -0.6552 -0.0519
vn 0.6654 -0.7463 0.0141
vn 0.7104 -0.7035 0.0189
vn 0.5590 -0.8288 0.0236
vn 0.6820 -0.7313 -0.0078
vn 0.5662 -0.8242 0.0113
vn 0.4721 -0.8815 -0.0035
vn 0.7483 -0.6634 -0.0000
vn 0.9915 0.1305 -0.0000
vn 0.9962 0.0871 -0.0078
vn 0.9979 -0.0643 -0.0000
vn 0.9922 -0.1240 -0.0148
vn -0.3538 -0.9353 0.0054
vn -0.4123 -0.9109 0.0166
vn -0.3947 -0.9188 -0.0070
vn -0.3304 -0.9438 -0.0041
vn -0.1390 -0.9893 -0.0451
vn -0.3285 -0.9445 -0.0045
vn -0.3407 -0.9399 0.0213
vn -0.2844 -0.9587 -0.0104
vn -0.2848 -0.9585 -0.0090
vn -0.2440 -0.8754 -0.4173
vn -0.0533 -0.9968 -0.0603
vn -0.1346 -0.9772 -0.1643
vn -0.0061 -0.9998 -0.0190
vn -0.0056 -0.9998 -0.0187
vn 0.0448 -0.9990 -0.0000
vn 0.0270 -0.9996 -0.0043
vn -0.2554 -0.9560 -0.1444
vn -0.3275 -0.9449 -0.0041
vn -0.1376 -0.9793 0.1481
vn -0.0794 -0.9968 0.0020
vn -0.1365 -0.9905 0.0138
vn -0.1608 -0.9866 0.0283
vn -0.1774 -0.9833 0.0407
vn -0.0785 -0.9969 0.0002
vn -0.1364 -0.9907 -0.0000
vn -0.2525 -0.9671 0.0298
vn -0.1348 -0.9788 0.1545
vn -0.0764 -0.9971 -0.0000
vn -0.3157 -0.9488 -0.0024
vn -0.3654 -0.9308 -0.0093
vn -0.3026 -0.9531 0.0064
vn -0.3026 -0.9531 -0.0000
vn -0.0181 -0.9995 0.0255
vn -0.4771 -0.8777 0.0439
vn -0.5224 -0.8527 -0.0000
vn -0.4984 -0.8669 0.0113
vn -0.4774 -0.8776 0.0434
vn -0.4764 -0.8764 0.0702
vn -0.5665 -0.8179 0.1004
vn -0.6487 -0.7610 -0.0000
vn -0.5217 -0.8350 0.1749
vn -0.5218 -0.8351 -0.1742
vn -0.4862 -0.8737 -0.0157
vn -0.4764 -0.8764 -0.0699
vn -0.4766 -0.8767 -0.0647
vn -0.4864 -0.8736 -0.0154
vn -0.3655 -0.9308 0.0092
vn -0.5232 -0.8522 -0.0000
vn -0.5666 -0.8179 -0.1000
vn -0.4641 0.8729 -0.1506
vn -0.3487 0.9372 -0.0122
vn -0.4399 0.8750 0.2019
vn -0.4491 0.8933 0.0154
vn -0.4112 0.9115 0.0121
vn -0.3589 0.9306 -0.0724
vn -0.3729 0.9273 0.0322
vn -0.3437 0.9391 -0.0056
vn -0.2919 0.9563 0.0167
vn -0.2920 0.9563 0.0166
vn -0.3882 0.9215 -0.0055
vn -0.4034 0.9149 0.0155
vn -0.3967 0.9174 -0.0317
vn -0.5662 0.8242 0.0113
vn -0.4381 0.8745 -0.2080
vn -0.5518 0.8335 -0.0286
vn -0.5657 0.8240 -0.0319
vn -0.5659 0.8237 -0.0369
vn -0.5696 0.8219 -0.0020
vn -0.5659 0.8237 -0.0368
vn -0.5659 0.8237 -0.0346
vn -0.5509 0.8340 -0.0301
vn -0.6396 0.7687 -0.0000
vn -0.3840 0.8709 -0.3066
vn -0.6503 0.7597 -0.0023
vn -0.3487 0.9372 0.0122
vn -0.2644 0.9644 -0.0044
vn -0.4641 0.8728 0.1512
vn -0.2303 0.9724 0.0362
vn -0.1797 0.9837 -0.0000
vn -0.2027 0.9792 0.0095
vn -0.2302 0.9725 0.0360
vn -0.1243 0.9907 0.0554
vn -0.1397 0.9873 0.0759
vn -0.0248 0.9953 -0.0938
vn 0.0382 0.9987 -0.0352
vn -0.0346 0.9992 -0.0213
vn -0.0531 0.9986 -0.0000
vn -0.0532 0.9986 -0.0000
vn -0.0506 0.9987 -0.0021
vn -0.0343 0.9991 -0.0232
vn -0.1240 0.9882 -0.0902
vn -0.0687 0.9824 -0.1734
vn 0.0688 0.9974 0.0197
vn 0.0181 0.9998 -0.0043
vn -0.0531 0.9986 0.0061
vn -0.2158 0.9763 -0.0138
vn -0.2207 0.9753 0.0014
vn -0.2302 0.9715 -0.0571
vn -0.2161 0.9763 -0.0145
vn -0.1789 0.9839 -0.0000
vn 0.0790 0.9969 0.0060
vn 0.0930 0.9955 0.0157
vn 0.1191 0.9929 -0.0000
vn 0.0859 0.9963 0.0045
vn 0.0979 0.9952 -0.0000
vn 0.1108 0.9938 -0.0000
vn 0.5267 0.8501 -0.0006
vn 0.5735 0.8191 0.0067
vn 0.5694 0.8220 0.0032
vn 0.7247 0.6890 -0.0000
vn 0.6849 0.7269 -0.0502
vn 0.7311 0.6818 -0.0225
vn 0.7986 0.6018 -0.0000
vn 0.6560 0.7547 -0.0098
vn 0.5694 0.8220 -0.0032
vn 0.5235 0.8520 -0.0000
vn 0.5278 0.8494 0.0005
vn 0.6901 0.7146 -0.1141
vn 0.4943 0.8693 -0.0033
vn 0.4587 0.8884 -0.0177
vn 0.3370 0.9258 -0.1713
vn 0.3627 0.9236 -0.1246
vn 0.2002 0.9797 0.0064
vn 0.1863 0.9825 0.0035
vn 0.1949 0.9808 0.0053
vn 0.1775 0.9841 -0.0000
vn 0.2073 0.9783 0.0004
vn 0.3007 0.9470 0.1130
vn 0.2523 0.9664 0.0486
vn 0.4129 0.9106 -0.0168
vn 0.3510 0.9364 -0.0085
vn 0.3026 0.9531 -0.0000
vn 0.3512 0.9363 -0.0088
vn 0.3119 0.9498 0.0251
vn 0.3597 0.9316 0.0517
vn 0.3126 0.9498 -0.0088
vn 0.2741 0.9591 -0.0706
vn 0.2755 0.9609 -0.0295
vn 0.1647 0.9863 -0.0000
vn 0.1950 0.9807 -0.0135
vn 0.2224 0.9746 -0.0279
vn 0.2757 0.9608 -0.0288
vn 0.3483 0.9374 -0.0044
vn 0.1566 0.9877 -0.0000
vn 0.3655 0.9308 -0.0093
vn 0.3174 0.9483 0.0027
vn 0.2672 0.9636 -0.0074
vn 0.1905 0.9801 -0.0558
vn 0.4492 0.8929 0.0289
vn 0.4776 0.8785 0.0060
vn 0.5226 0.8526 -0.0006
vn 0.4848 0.8745 -0.0135
vn 0.3907 0.9205 0.0083
vn 0.5231 0.8523 0.0005
vn 0.5216 0.8532 -0.0000
vn -0.2238 0.9746 -0.0044
vn -0.2799 0.9600 0.0014
vn -0.2921 0.9562 0.0167
vn -0.3655 -0.9308 -0.0093
vn -0.3654 -0.9308 0.0092
vn -0.3536 -0.9354 0.0054
vn 0.9830 -0.1834 -0.0000
vn 0.9990 0.0437 -0.0000
vn 0.4778 -0.8785 -0.0000
vn 0.3902 -0.9189 -0.0574
vn -0.6750 0.7379 -0.0000
vn 0.9744 0.2249 -0.0000
vn 0.8192 -0.5735 -0.0000
vn -0.5662 0.8241 -0.0119
vn -0.5672 0.8235 -0.0106
vn -0.5661 0.8241 -0.0179
vn -0.5660 0.8242 -0.0197
vn -0.5642 0.8256 -0.0130
vn -0.5661 0.8241 -0.0180
vn 0.5673 -0.8234 -0.0142
vn 0.5644 -0.8255 -0.0100
vn 0.5663 -0.8241 -0.0169
vn 0.5663 -0.8241 -0.0166
vn 0.5662 -0.8241 -0.0128
vn 0.5660 -0.8241 -0.0208
vn 1.0000 -0.0032 -0.0000
vn 1.0000 -0.0034 -0.0000
s 1
usemtl material_0
f 1//1 2//1 3//1
f 4//2 5//2 6//2
f 7//3 8//3 9//3
f 10//4 11//4 12//4
f 13//5 14//5 15//5
f 16//6 17//6 18//6
f 19//7 20//7 21//7
f 22//8 23//8 24//8
f 25//9 26//9 27//9
f 28//10 29//10 30//10
f 31//11 32//11 33//11
f 34//12 35//12 36//12
f 37//13 38//13 39//13
f 40//12 41//12 42//12
f 43//14 44//14 45//14
f 46//15 47//15 48//15
f 49//16 50//16 51//16
f 52//17 53//17 54//17
f 55//18 56//18 57//18
f 58//19 59//19 60//19
f 61//20 62//20 63//20
f 64//21 65//21 66//21
f 67//22 68//22 69//22
f 70//23 71//23 72//23
f 73//24 74//24 75//24
f 76//25 77//25 78//25
f 79//26 80//26 81//26
f 82//27 83//27 84//27
f 85//28 86//28 87//28
f 88//29 89//29 90//29
f 91//30 92//30 93//30
f 94//31 95//31 96//31
f 97//32 98//32 99//32
f 100//33 101//33 102//33
f 103//34 104//34 105//34
f 106//35 107//35 108//35
f 109//36 110//36 111//36
f 112//37 113//37 114//37
f 115//38 116//38 117//38
f 118//39 119//39 120//39
f 121//40 122//40 123//40
f 124//31 125//31 126//31
f 127//41 128//41 129//41
f 130//42 131//42 132//42
f 133//43 134//43 135//43
f 136//44 137//44 138//44
f 139//45 140//45 141//45
f 142//46 143//46 144//46
f 145//47 146//47 147//47
f 148//48 149//48 150//48
f 151//49 152//49 153//49
f 154//50 155//50 156//50
f 157//51 158//51 159//51
f 160//52 161//52 162//52
f 163//53 164//53 165//53
f 166//54 167//54 168//54
f 169//55 170//55 171//55
f 172//56 173//56 174//56
f 175//57 176//57 177//57
f 178//58 179//58 180//58
f 181//59 182//59 183//59
f 184//60 185//60 186//60
f 187//61 188//61 189//61
f 190//62 191//62 192//62
f 193//63 194//63 195//63
f 196//64 197//64 198//64
f 199//65 200//65 201//65
f 202//66 203//66 204//66
f 205//67 206//67 207//67
f 208//68 209//68 210//68
f 211//69 212//69 213//69
f 214//70 215//70 216//70
f 217//71 218//71 219//71
f 220//72 221//72 222//72
f 223//73 224//73 225//73
f 226//74 227//74 228//74
f 229//75 230//75 231//75
f 232//76 233//76 234//76
f 235//77 236//77 237//77
f 238//78 239//78 240//78
f 241//79 242//79 243//79
f 244//80 245//80 246//80
f 247//80 248//80 249//80
f 250//81 251//81 252//81
f 253//82 254//82 255//82
f 256//83 257//83 258//83
f 259//84 260//84 261//84
f 262//85 263//85 264//85
f 265//86 266//86 267//86
f 268//87 269//87 270//87
f 271//88 272//88 273//88
f 274//89 275//89 276//89
f 277//90 278//90 279//90
f 280//87 281//87 282//87
f 283//91 284//91 285//91
f 286//92 287//92 288//92
f 289//93 290//93 291//93
f 292//94 293//94 294//94
f 295//95 296//95 297//95
f 298//96 299//96 300//96
f 301//97 302//97 303//97
f 304//98 305//98 306//98
f 307//99 308//99 309//99
f 310//100 311//100 312//100
f 313//101 314//101 315//101
f 316//102 317//102 318//102
f 319//103 320//103 321//103
f 322//104 323//104 324//104
f 325//105 326//105 327//105
f 328//105 329//105 330//105
f 331//106 332//106 333//106
f 334//107 335//107 336//107
f 337//108 338//108 339//108
f 340//109 341//109 342//109
f 343//110 344//110 345//110
f 346//111 347//111 348//111
f 349//112 350//112 351//112
f 352//113 353//113 354//113
f 355//114 356//114 357//114
f 358//115 359//115 360//115
f 361//116 362//116 363//116
f 364//117 365//117 366//117
f 367//118 368//118 369//118
f 370//119 371//119 372//119
f 373//120 374//120 375//120
f 376//121 377//121 378//121
f 379//122 380//122 381//122
f 382//123 383//123 384//123
f 385//124 386//124 387//124
f 388//125 389//125 390//125
f 391//126 392//126 393//126
f 394//127 395//127 396//127
f 397//128 398//128 399//128
f 400//129 401//129 402//129
f 403//130 404//130 405//130
f 406//131 407//131 408//131
f 409//132 410//132 411//132
f 412//133 413//133 414//133
f 415//134 416//134 417//134
f 418//135 419//135 420//135
f 421//136 422//136 423//136
f 424//137 425//137 426//137
f 427//138 428//138 429//138
f 430//139 431//139 432//139
f 433//140 434//140 435//140
f 436//141 437//141 438//141
f 439//142 440//142 441//142
f 442//143 443//143 444//143
f 445//144 446//144 447//144
f 448//145 449//145 450//145
f 451//146 452//146 453//146
f 454//147 455//147 456//147
f 457//148 458//148 459//148
f 460//149 461//149 462//149
f 463//150 464//150 465//150
f 466//151 467//151 468//151
f 469//152 470//152 471//152
f 472//153 473//153 474//153
f 475//154 476//154 477//154
f 478//155 479//155 480//155
f 481//156 482//156 483//156
f 484//157 485//157 486//157
f 487//158 488//158 489//158
f 490//159 491//159 492//159
f 493//160 494//160 495//160
f 496//161 497//161 498//161
f 499//162 500//162 501//162
f 502//163 503//163 504//163
f 505//164 506//164 507//164
f 508//165 509//165 510//165
f 511//166 512//166 513//166
f 514//167 515//167 516//167
f 517//168 518//168 519//168
f 520//169 521//169 522//169
f 523//170 524//170 525//170
f 526//171 527//171 528//171
f 529//172 530//172 531//172
f 532//173 533//173 534//173
f 535//174 536//174 537//174
f 538//175 539//175 540//175
f 541//176 542//176 543//176
f 544//177 545//177 546//177
f 547//178 548//178 549//178
f 550//179 551//179 552//179
f 553//180 554//180 555//180
f 556//181 557//181 558//181
f 559//182 560//182 561//182
f 562//183 563//183 564//183
f 565//184 566//184 567//184
f 568//185 569//185 570//185
f 571//185 572//185 573//185
f 574//186 575//186 576//186
f 577//187 578//187 579//187
f 580//188 581//188 582//188
f 583//189 584//189 585//189
f 586//190 587//190 588//190
f 589//191 590//191 591//191
f 592//192 593//192 594//192
f 595//193 596//193 597//193
f 598//194 599//194 600//194
f 601//195 602//195 603//195
f 604//196 605//196 606//196
f 607//197 608//197 609//197
f 610//198 611//198 612//198
f 613//199 614//199 615//199
f 616//200 617//200 618//200
f 619//201 620//201 621//201
f 622//202 623//202 624//202
f 625//203 626//203 627//203
f 628//204 629//204 630//204
f 631//205 632//205 633//205
f 634//206 635//206 636//206
f 637//207 638//207 639//207
f 640//208 641//208 642//208
f 643//209 644//209 645//209
f 646//210 647//210 648//210
f 649//211 650//211 651//211
f 652//212 653//212 654//212
f 655//213 656//213 657//213
f 658//214 659//214 660//214
f 661//215 662//215 663//215
f 664//216 665//216 666//216
f 667//215 668//215 669//215
f 670//217 671//217 672//217
f 673//218 674//218 675//218
f 676//219 677//219 678//219
f 679//220 680//220 681//220
f 682//221 683//221 684//221
f 685//222 686//222 687//222
f 688//223 689//223 690//223
f 691//224 692//224 693//224
f 694//225 695//225 696//225
f 697//226 698//226 699//226
f 700//227 701//227 702//227
f 703//228 704//228 705//228
f 706//229 707//229 708//229
f 709//230 710//230 711//230
f 712//231 713//231 714//231
f 715//9 716//9 717//9
f 718//8 719//8 720//8
f 721//7 722//7 723//7
f 724//232 725//232 726//232
f 727//233 728//233 729//233
f 730//234 731//234 732//234
f 733//235 734//235 735//235
f 736//236 737//236 738//236
f 739//237 740//237 741//237
f 742//238 743//238 744//238
f 745//239 746//239 747//239
f 748//240 749//240 750//240
f 751//241 752//241 753//241
f 754//242 755//242 756//242
f 757//243 758//243 759//243
f 760//244 761//244 762//244
f 763//245 764//245 765//245
f 766//246 767//246 768//246
f 769//247 770//247 771//247
