# Blender 4.5.10 LTS
# www.blender.org
mtllib iiwa_link_8_vis_1.mtl
o node
v 0.003039 -0.032389 0.008950
v 0.013410 -0.029763 0.008950
v 0.010244 -0.030434 0.008950
v -0.032146 -0.000000 0.008950
v -0.030384 -0.010553 0.008950
v -0.030947 -0.006653 0.008950
v -0.007623 -0.031506 0.008950
v -0.002990 -0.031825 0.008950
v -0.015646 -0.027713 0.008950
v 0.010244 -0.030434 0.008950
v -0.002990 -0.031825 0.008950
v 0.003039 -0.032389 0.008950
v 0.032412 0.005349 0.008950
v 0.028937 0.015468 0.008950
v 0.029588 0.013016 0.008950
v 0.021767 0.023781 0.008950
v 0.029588 0.013016 0.008950
v 0.028937 0.015468 0.008950
v -0.030947 -0.006653 0.008950
v -0.030946 0.006653 0.008950
v -0.032146 -0.000000 0.008950
v -0.030384 -0.010553 0.008950
v -0.025292 -0.019962 0.008950
v -0.025534 -0.018809 0.008950
v -0.025534 -0.018809 0.008950
v -0.025292 -0.019962 0.008950
v -0.017421 -0.027208 0.008950
v -0.002990 -0.031825 0.008950
v -0.007623 -0.031506 0.008950
v 0.003039 -0.032389 0.008950
v 0.028937 0.015468 0.008950
v 0.022367 0.023911 0.008950
v 0.021767 0.023781 0.008950
v 0.021767 0.023781 0.008950
v 0.022367 0.023911 0.008950
v 0.013410 0.029763 0.008950
v 0.003039 0.032389 0.008950
v -0.002990 0.031825 0.008950
v 0.010244 0.030434 0.008950
v -0.007623 0.031506 0.008950
v -0.017421 0.027208 0.008950
v -0.015645 0.027713 0.008950
v -0.025535 0.018809 0.008950
v -0.015645 0.027713 0.008950
v -0.017421 0.027208 0.008950
v -0.025534 -0.018809 0.008950
v -0.030947 -0.006653 0.008950
v -0.030384 -0.010553 0.008950
v -0.015646 -0.027713 0.008950
v -0.017421 -0.027208 0.008950
v -0.007623 -0.031506 0.008950
v 0.021767 -0.023781 0.008950
v 0.010244 -0.030434 0.008950
v 0.013410 -0.029763 0.008950
v 0.021767 -0.023781 0.008950
v 0.022367 -0.023911 0.008950
v 0.028937 -0.015468 0.008950
v 0.013410 0.029763 0.008950
v 0.010244 0.030434 0.008950
v 0.021767 0.023781 0.008950
v 0.003039 0.032389 0.008950
v -0.007623 0.031506 0.008950
v -0.002990 0.031825 0.008950
v -0.017421 0.027208 0.008950
v -0.025293 0.019962 0.008950
v -0.025535 0.018809 0.008950
v -0.030384 0.010553 0.008950
v -0.030946 0.006653 0.008950
v -0.025535 0.018809 0.008950
v -0.017421 -0.027208 0.008950
v -0.015646 -0.027713 0.008950
v -0.025534 -0.018809 0.008950
v 0.028937 -0.015468 0.008950
v 0.029588 -0.013016 0.008950
v 0.021767 -0.023781 0.008950
v 0.010244 0.030434 0.008950
v 0.013410 0.029763 0.008950
v 0.003039 0.032389 0.008950
v -0.025535 0.018809 0.008950
v -0.025293 0.019962 0.008950
v -0.030384 0.010553 0.008950
v 0.013410 -0.029763 0.008950
v 0.022367 -0.023911 0.008950
v 0.021767 -0.023781 0.008950
v 0.032411 -0.005349 0.008950
v 0.032355 -0.000000 0.008950
v 0.029588 -0.013016 0.008950
v -0.015645 0.027713 0.008950
v -0.002990 0.031825 0.008950
v -0.007623 0.031506 0.008950
v 0.029588 -0.013016 0.008950
v 0.028937 -0.015468 0.008950
v 0.032411 -0.005349 0.008950
v -0.030946 0.006653 0.008950
v -0.030384 0.010553 0.008950
v -0.032146 -0.000000 0.008950
v 0.029588 0.013016 0.008950
v 0.032355 -0.000000 0.008950
v 0.032412 0.005349 0.008950
v 0.032355 -0.000000 0.008950
v 0.032411 -0.005349 0.008950
v 0.032412 0.005349 0.008950
v -0.045923 0.022252 -0.013950
v -0.048828 0.016884 -0.013950
v -0.048828 0.016884 -0.011950
v -0.051646 -0.000000 -0.011950
v -0.048828 0.016884 -0.011950
v -0.048828 0.016884 -0.013950
v -0.048828 0.016884 -0.013950
v -0.051646 -0.000000 -0.013950
v -0.051646 -0.000000 -0.011950
v -0.031676 0.040229 -0.013950
v -0.040680 0.031939 -0.013950
v -0.040680 0.031939 -0.011950
v -0.045923 0.022252 -0.011950
v -0.040680 0.031939 -0.011950
v -0.040680 0.031939 -0.013950
v -0.040680 0.031939 -0.013950
v -0.045923 0.022252 -0.013950
v -0.045923 0.022252 -0.011950
v -0.011201 0.050509 -0.013950
v -0.012411 0.050409 -0.013950
v -0.012411 0.050409 -0.011950
v -0.028087 0.043533 -0.011950
v -0.012411 0.050409 -0.011950
v -0.012411 0.050409 -0.013950
v -0.012411 0.050409 -0.013950
v -0.028087 0.043533 -0.013950
v -0.028087 0.043533 -0.011950
v -0.031676 0.040229 -0.011950
v -0.028087 0.043533 -0.011950
v -0.028087 0.043533 -0.013950
v -0.028087 0.043533 -0.013950
v -0.031676 0.040229 -0.013950
v -0.031676 0.040229 -0.011950
v 0.011756 0.050023 -0.013950
v 0.004649 0.051822 -0.013950
v 0.004649 0.051822 -0.011950
v -0.011201 0.050509 -0.011950
v 0.004649 0.051822 -0.011950
v 0.004649 0.051822 -0.013950
v 0.004649 0.051822 -0.013950
v -0.011201 0.050509 -0.013950
v -0.011201 0.050509 -0.011950
v 0.032515 0.040256 -0.013950
v 0.021242 0.047620 -0.013950
v 0.021242 0.047620 -0.011950
v 0.011756 0.050023 -0.011950
v 0.021242 0.047620 -0.011950
v 0.021242 0.047620 -0.013950
v 0.021242 0.047620 -0.013950
v 0.011756 0.050023 -0.013950
v 0.011756 0.050023 -0.011950
v 0.046877 0.022449 -0.013950
v 0.046088 0.024749 -0.013950
v 0.046088 0.024749 -0.011950
v 0.035574 0.038258 -0.011950
v 0.046088 0.024749 -0.011950
v 0.046088 0.024749 -0.013950
v 0.046088 0.024749 -0.013950
v 0.035574 0.038258 -0.013950
v 0.035574 0.038258 -0.011950
v 0.032515 0.040256 -0.011950
v 0.035574 0.038258 -0.011950
v 0.035574 0.038258 -0.013950
v 0.035574 0.038258 -0.013950
v 0.032515 0.040256 -0.013950
v 0.032515 0.040256 -0.011950
v 0.051646 -0.000000 -0.013950
v 0.051646 0.008559 -0.013950
v 0.051646 0.008559 -0.011950
v 0.046877 0.022449 -0.011950
v 0.051646 0.008559 -0.011950
v 0.051646 0.008559 -0.013950
v 0.051646 0.008559 -0.013950
v 0.046877 0.022449 -0.013950
v 0.046877 0.022449 -0.011950
v 0.046876 -0.022449 -0.013950
v 0.051646 -0.008559 -0.013950
v 0.051646 -0.008559 -0.011950
v 0.051646 -0.000000 -0.011950
v 0.051646 -0.008559 -0.011950
v 0.051646 -0.008559 -0.013950
v 0.051646 -0.008559 -0.013950
v 0.051646 -0.000000 -0.013950
v 0.051646 -0.000000 -0.011950
v 0.032515 -0.040256 -0.013950
v 0.035574 -0.038258 -0.013950
v 0.035574 -0.038258 -0.011950
v 0.046088 -0.024749 -0.011950
v 0.035574 -0.038258 -0.011950
v 0.035574 -0.038258 -0.013950
v 0.035574 -0.038258 -0.013950
v 0.046088 -0.024749 -0.013950
v 0.046088 -0.024749 -0.011950
v 0.046876 -0.022449 -0.011950
v 0.046088 -0.024749 -0.011950
v 0.046088 -0.024749 -0.013950
v 0.046088 -0.024749 -0.013950
v 0.046876 -0.022449 -0.013950
v 0.046876 -0.022449 -0.011950
v 0.011756 -0.050023 -0.013950
v 0.021243 -0.047620 -0.013950
v 0.021243 -0.047620 -0.011950
v 0.032515 -0.040256 -0.011950
v 0.021243 -0.047620 -0.011950
v 0.021243 -0.047620 -0.013950
v 0.021243 -0.047620 -0.013950
v 0.032515 -0.040256 -0.013950
v 0.032515 -0.040256 -0.011950
v -0.011201 -0.050509 -0.013950
v 0.004649 -0.051822 -0.013950
v 0.004649 -0.051822 -0.011950
v 0.011756 -0.050023 -0.011950
v 0.004649 -0.051822 -0.011950
v 0.004649 -0.051822 -0.013950
v 0.004649 -0.051822 -0.013950
v 0.011756 -0.050023 -0.013950
v 0.011756 -0.050023 -0.011950
v -0.031675 -0.040229 -0.013950
v -0.028086 -0.043533 -0.013950
v -0.028086 -0.043533 -0.011950
v -0.012410 -0.050409 -0.011950
v -0.028086 -0.043533 -0.011950
v -0.028086 -0.043533 -0.013950
v -0.028086 -0.043533 -0.013950
v -0.012410 -0.050409 -0.013950
v -0.012410 -0.050409 -0.011950
v -0.011201 -0.050509 -0.011950
v -0.012410 -0.050409 -0.011950
v -0.012410 -0.050409 -0.013950
v -0.012410 -0.050409 -0.013950
v -0.011201 -0.050509 -0.013950
v -0.011201 -0.050509 -0.011950
v -0.045924 -0.022252 -0.013950
v -0.040680 -0.031939 -0.013950
v -0.040680 -0.031939 -0.011950
v -0.031675 -0.040229 -0.011950
v -0.040680 -0.031939 -0.011950
v -0.040680 -0.031939 -0.013950
v -0.040680 -0.031939 -0.013950
v -0.031675 -0.040229 -0.013950
v -0.031675 -0.040229 -0.011950
v -0.051646 -0.000000 -0.013950
v -0.048827 -0.016884 -0.013950
v -0.048827 -0.016884 -0.011950
v -0.045924 -0.022252 -0.011950
v -0.048827 -0.016884 -0.011950
v -0.048827 -0.016884 -0.013950
v -0.048827 -0.016884 -0.013950
v -0.045924 -0.022252 -0.013950
v -0.045924 -0.022252 -0.011950
v -0.048827 -0.016884 -0.011950
v -0.051646 -0.000000 -0.011950
v -0.051646 -0.000000 -0.013950
v -0.040680 -0.031939 -0.011950
v -0.045924 -0.022252 -0.011950
v -0.045924 -0.022252 -0.013950
v -0.028086 -0.043533 -0.011950
v -0.031675 -0.040229 -0.011950
v -0.031675 -0.040229 -0.013950
v 0.004649 -0.051822 -0.011950
v -0.011201 -0.050509 -0.011950
v -0.011201 -0.050509 -0.013950
v 0.021243 -0.047620 -0.011950
v 0.011756 -0.050023 -0.011950
v 0.011756 -0.050023 -0.013950
v 0.035574 -0.038258 -0.011950
v 0.032515 -0.040256 -0.011950
v 0.032515 -0.040256 -0.013950
v 0.051646 -0.008559 -0.011950
v 0.046876 -0.022449 -0.011950
v 0.046876 -0.022449 -0.013950
v 0.051646 0.008559 -0.011950
v 0.051646 -0.000000 -0.011950
v 0.051646 -0.000000 -0.013950
v 0.046088 0.024749 -0.011950
v 0.046877 0.022449 -0.011950
v 0.046877 0.022449 -0.013950
v 0.021242 0.047620 -0.011950
v 0.032515 0.040256 -0.011950
v 0.032515 0.040256 -0.013950
v 0.004649 0.051822 -0.011950
v 0.011756 0.050023 -0.011950
v 0.011756 0.050023 -0.013950
v -0.012411 0.050409 -0.011950
v -0.011201 0.050509 -0.011950
v -0.011201 0.050509 -0.013950
v -0.040680 0.031939 -0.011950
v -0.031676 0.040229 -0.011950
v -0.031676 0.040229 -0.013950
v -0.048828 0.016884 -0.011950
v -0.045923 0.022252 -0.011950
v -0.045923 0.022252 -0.013950
v -0.048828 0.016884 -0.013950
v -0.047882 0.016560 -0.014950
v -0.050646 -0.000000 -0.014950
v -0.039891 0.031325 -0.014950
v -0.047882 0.016560 -0.014950
v -0.045923 0.022252 -0.013950
v -0.047882 0.016560 -0.014950
v -0.048828 0.016884 -0.013950
v -0.045923 0.022252 -0.013950
v -0.039891 0.031325 -0.014950
v -0.040680 0.031939 -0.013950
v -0.031676 0.040229 -0.013950
v -0.031676 0.040229 -0.013950
v -0.027539 0.042695 -0.014950
v -0.039891 0.031325 -0.014950
v -0.012411 0.050409 -0.013950
v -0.012165 0.049439 -0.014950
v -0.027539 0.042695 -0.014950
v 0.004567 0.050826 -0.014950
v -0.012165 0.049439 -0.014950
v -0.011201 0.050509 -0.013950
v -0.012165 0.049439 -0.014950
v -0.012411 0.050409 -0.013950
v -0.011201 0.050509 -0.013950
v 0.020840 0.046704 -0.014950
v 0.004567 0.050826 -0.014950
v 0.011756 0.050023 -0.013950
v 0.004567 0.050826 -0.014950
v 0.004649 0.051822 -0.013950
v 0.011756 0.050023 -0.013950
v 0.020840 0.046704 -0.014950
v 0.021242 0.047620 -0.013950
v 0.032515 0.040256 -0.013950
v 0.032515 0.040256 -0.013950
v 0.034895 0.037522 -0.014950
v 0.020840 0.046704 -0.014950
v 0.035574 0.038258 -0.013950
v 0.046088 0.024749 -0.013950
v 0.045207 0.024273 -0.014950
v 0.050658 0.008394 -0.014950
v 0.045207 0.024273 -0.014950
v 0.046877 0.022449 -0.013950
v 0.045207 0.024273 -0.014950
v 0.046088 0.024749 -0.013950
v 0.046877 0.022449 -0.013950
v 0.050658 0.008394 -0.014950
v 0.051646 0.008559 -0.013950
v 0.051646 -0.000000 -0.013950
v 0.051646 -0.000000 -0.013950
v 0.050658 -0.008394 -0.014950
v 0.050658 0.008394 -0.014950
v 0.050658 -0.008394 -0.014950
v 0.051646 -0.008559 -0.013950
v 0.046876 -0.022449 -0.013950
v 0.046876 -0.022449 -0.013950
v 0.045208 -0.024273 -0.014950
v 0.050658 -0.008394 -0.014950
v 0.035574 -0.038258 -0.013950
v 0.034896 -0.037522 -0.014950
v 0.045208 -0.024273 -0.014950
v 0.020841 -0.046704 -0.014950
v 0.034896 -0.037522 -0.014950
v 0.032515 -0.040256 -0.013950
v 0.034896 -0.037522 -0.014950
v 0.035574 -0.038258 -0.013950
v 0.032515 -0.040256 -0.013950
v 0.020841 -0.046704 -0.014950
v 0.021243 -0.047620 -0.013950
v 0.011756 -0.050023 -0.013950
v 0.011756 -0.050023 -0.013950
v 0.004567 -0.050826 -0.014950
v 0.020841 -0.046704 -0.014950
v 0.004567 -0.050826 -0.014950
v 0.004649 -0.051822 -0.013950
v -0.011201 -0.050509 -0.013950
v -0.011201 -0.050509 -0.013950
v -0.012165 -0.049439 -0.014950
v 0.004567 -0.050826 -0.014950
v -0.012410 -0.050409 -0.013950
v -0.028086 -0.043533 -0.013950
v -0.027539 -0.042695 -0.014950
v -0.039892 -0.031325 -0.014950
v -0.027539 -0.042695 -0.014950
v -0.031675 -0.040229 -0.013950
v -0.027539 -0.042695 -0.014950
v -0.028086 -0.043533 -0.013950
v -0.031675 -0.040229 -0.013950
v -0.039892 -0.031325 -0.014950
v -0.040680 -0.031939 -0.013950
v -0.045924 -0.022252 -0.013950
v -0.045924 -0.022252 -0.013950
v -0.047882 -0.016560 -0.014950
v -0.039892 -0.031325 -0.014950
v -0.048827 -0.016884 -0.013950
v -0.051646 -0.000000 -0.013950
v -0.050646 -0.000000 -0.014950
v -0.050646 -0.000000 -0.014950
v -0.047882 -0.016560 -0.014950
v -0.048827 -0.016884 -0.013950
v -0.045924 -0.022252 -0.013950
v -0.048827 -0.016884 -0.013950
v -0.047882 -0.016560 -0.014950
v -0.031675 -0.040229 -0.013950
v -0.040680 -0.031939 -0.013950
v -0.039892 -0.031325 -0.014950
v -0.027539 -0.042695 -0.014950
v -0.012165 -0.049439 -0.014950
v -0.012410 -0.050409 -0.013950
v -0.011201 -0.050509 -0.013950
v -0.012410 -0.050409 -0.013950
v -0.012165 -0.049439 -0.014950
v 0.011756 -0.050023 -0.013950
v 0.004649 -0.051822 -0.013950
v 0.004567 -0.050826 -0.014950
v 0.032515 -0.040256 -0.013950
v 0.021243 -0.047620 -0.013950
v 0.020841 -0.046704 -0.014950
v 0.045208 -0.024273 -0.014950
v 0.046088 -0.024749 -0.013950
v 0.035574 -0.038258 -0.013950
v 0.046876 -0.022449 -0.013950
v 0.046088 -0.024749 -0.013950
v 0.045208 -0.024273 -0.014950
v 0.051646 -0.000000 -0.013950
v 0.051646 -0.008559 -0.013950
v 0.050658 -0.008394 -0.014950
v 0.046877 0.022449 -0.013950
v 0.051646 0.008559 -0.013950
v 0.050658 0.008394 -0.014950
v 0.045207 0.024273 -0.014950
v 0.034895 0.037522 -0.014950
v 0.035574 0.038258 -0.013950
v 0.032515 0.040256 -0.013950
v 0.035574 0.038258 -0.013950
v 0.034895 0.037522 -0.014950
v 0.011756 0.050023 -0.013950
v 0.021242 0.047620 -0.013950
v 0.020840 0.046704 -0.014950
v -0.011201 0.050509 -0.013950
v 0.004649 0.051822 -0.013950
v 0.004567 0.050826 -0.014950
v -0.027539 0.042695 -0.014950
v -0.028087 0.043533 -0.013950
v -0.012411 0.050409 -0.013950
v -0.031676 0.040229 -0.013950
v -0.028087 0.043533 -0.013950
v -0.027539 0.042695 -0.014950
v -0.045923 0.022252 -0.013950
v -0.040680 0.031939 -0.013950
v -0.039891 0.031325 -0.014950
v -0.050646 -0.000000 -0.014950
v -0.051646 -0.000000 -0.013950
v -0.048828 0.016884 -0.013950
v -0.039105 0.013547 0.004895
v -0.041367 -0.000000 0.004895
v -0.032146 -0.000000 0.008950
v -0.032569 0.025625 0.004895
v -0.039105 0.013547 0.004895
v -0.030384 0.010553 0.008950
v -0.022464 0.034927 0.004895
v -0.032569 0.025625 0.004895
v -0.025293 0.019962 0.008950
v -0.022464 0.034927 0.004895
v -0.017421 0.027208 0.008950
v -0.007623 0.031506 0.008950
v 0.003800 0.041578 0.004895
v -0.009888 0.040444 0.004895
v -0.007623 0.031506 0.008950
v 0.003800 0.041578 0.004895
v 0.003039 0.032389 0.008950
v 0.013410 0.029763 0.008950
v 0.028612 0.030695 0.004895
v 0.017114 0.038207 0.004895
v 0.013410 0.029763 0.008950
v 0.037047 0.019857 0.004895
v 0.028612 0.030695 0.004895
v 0.022367 0.023911 0.008950
v 0.037047 0.019857 0.004895
v 0.028937 0.015468 0.008950
v 0.032412 0.005349 0.008950
v 0.041507 -0.006867 0.004895
v 0.041506 0.006867 0.004895
v 0.032412 0.005349 0.008950
v 0.037047 -0.019857 0.004895
v 0.041507 -0.006867 0.004895
v 0.032411 -0.005349 0.008950
v 0.028611 -0.030695 0.004895
v 0.037047 -0.019857 0.004895
v 0.028937 -0.015468 0.008950
v 0.017114 -0.038207 0.004895
v 0.028611 -0.030695 0.004895
v 0.022367 -0.023911 0.008950
v 0.003800 -0.041578 0.004895
v 0.017114 -0.038207 0.004895
v 0.013410 -0.029763 0.008950
v -0.009888 -0.040444 0.004895
v 0.003800 -0.041578 0.004895
v 0.003039 -0.032389 0.008950
v -0.022464 -0.034927 0.004895
v -0.009888 -0.040444 0.004895
v -0.007623 -0.031506 0.008950
v -0.032569 -0.025625 0.004895
v -0.022464 -0.034927 0.004895
v -0.017421 -0.027208 0.008950
v -0.039105 -0.013547 0.004895
v -0.032569 -0.025625 0.004895
v -0.025292 -0.019962 0.008950
v -0.039105 -0.013547 0.004895
v -0.030384 -0.010553 0.008950
v -0.032146 -0.000000 0.008950
v -0.041367 -0.000000 0.004895
v -0.039105 0.013547 0.004895
v -0.045605 0.015778 -0.002471
v -0.039105 0.013547 0.004895
v -0.032569 0.025625 0.004895
v -0.037992 0.029846 -0.002471
v -0.032569 0.025625 0.004895
v -0.022464 0.034927 0.004895
v -0.026223 0.040680 -0.002471
v -0.022464 0.034927 0.004895
v -0.009888 0.040444 0.004895
v -0.011574 0.047106 -0.002471
v -0.009888 0.040444 0.004895
v 0.003800 0.041578 0.004895
v 0.004368 0.048427 -0.002471
v 0.003800 0.041578 0.004895
v 0.017114 0.038207 0.004895
v 0.019874 0.044500 -0.002471
v 0.017114 0.038207 0.004895
v 0.028612 0.030695 0.004895
v 0.033266 0.035751 -0.002471
v 0.028612 0.030695 0.004895
v 0.037047 0.019857 0.004895
v 0.043091 0.023128 -0.002471
v 0.037047 0.019857 0.004895
v 0.041506 0.006867 0.004895
v 0.048285 0.007998 -0.002471
v 0.041506 0.006867 0.004895
v 0.041507 -0.006867 0.004895
v 0.048284 -0.007998 -0.002471
v 0.041507 -0.006867 0.004895
v 0.037047 -0.019857 0.004895
v 0.043090 -0.023128 -0.002471
v 0.037047 -0.019857 0.004895
v 0.028611 -0.030695 0.004895
v 0.033266 -0.035751 -0.002471
v 0.028611 -0.030695 0.004895
v 0.017114 -0.038207 0.004895
v 0.019874 -0.044500 -0.002471
v 0.017114 -0.038207 0.004895
v 0.003800 -0.041578 0.004895
v 0.004368 -0.048427 -0.002471
v 0.003800 -0.041578 0.004895
v -0.009888 -0.040444 0.004895
v -0.011574 -0.047106 -0.002471
v -0.009888 -0.040444 0.004895
v -0.022464 -0.034927 0.004895
v -0.026223 -0.040680 -0.002471
v -0.022464 -0.034927 0.004895
v -0.032569 -0.025625 0.004895
v -0.037993 -0.029846 -0.002471
v -0.032569 -0.025625 0.004895
v -0.039105 -0.013547 0.004895
v -0.045605 -0.015778 -0.002471
v -0.039105 -0.013547 0.004895
v -0.041367 -0.000000 0.004895
v -0.048238 0.000000 -0.002471
v -0.051646 -0.000000 -0.011950
v -0.048238 0.000000 -0.002471
v -0.045605 0.015778 -0.002471
v -0.037992 0.029846 -0.002471
v -0.040680 0.031939 -0.011950
v -0.045923 0.022252 -0.011950
v -0.045923 0.022252 -0.011950
v -0.045605 0.015778 -0.002471
v -0.037992 0.029846 -0.002471
v -0.037992 0.029846 -0.002471
v -0.026223 0.040680 -0.002471
v -0.031676 0.040229 -0.011950
v -0.026223 0.040680 -0.002471
v -0.028087 0.043533 -0.011950
v -0.031676 0.040229 -0.011950
v -0.012411 0.050409 -0.011950
v -0.028087 0.043533 -0.011950
v -0.026223 0.040680 -0.002471
v 0.004368 0.048427 -0.002471
v 0.004649 0.051822 -0.011950
v -0.011201 0.050509 -0.011950
v -0.011201 0.050509 -0.011950
v -0.011574 0.047106 -0.002471
v 0.004368 0.048427 -0.002471
v 0.019874 0.044500 -0.002471
v 0.021242 0.047620 -0.011950
v 0.011756 0.050023 -0.011950
v 0.011756 0.050023 -0.011950
v 0.004368 0.048427 -0.002471
v 0.019874 0.044500 -0.002471
v 0.019874 0.044500 -0.002471
v 0.033266 0.035751 -0.002471
v 0.032515 0.040256 -0.011950
v 0.033266 0.035751 -0.002471
v 0.035574 0.038258 -0.011950
v 0.032515 0.040256 -0.011950
v 0.046088 0.024749 -0.011950
v 0.035574 0.038258 -0.011950
v 0.033266 0.035751 -0.002471
v 0.048285 0.007998 -0.002471
v 0.051646 0.008559 -0.011950
v 0.046877 0.022449 -0.011950
v 0.046877 0.022449 -0.011950
v 0.043091 0.023128 -0.002471
v 0.048285 0.007998 -0.002471
v 0.048285 0.007998 -0.002471
v 0.048284 -0.007998 -0.002471
v 0.051646 -0.000000 -0.011950
v 0.048284 -0.007998 -0.002471
v 0.051646 -0.008559 -0.011950
v 0.051646 -0.000000 -0.011950
v 0.048284 -0.007998 -0.002471
v 0.043090 -0.023128 -0.002471
v 0.046876 -0.022449 -0.011950
v 0.043090 -0.023128 -0.002471
v 0.046088 -0.024749 -0.011950
v 0.046876 -0.022449 -0.011950
v 0.046088 -0.024749 -0.011950
v 0.043090 -0.023128 -0.002471
v 0.033266 -0.035751 -0.002471
v 0.019874 -0.044500 -0.002471
v 0.021243 -0.047620 -0.011950
v 0.032515 -0.040256 -0.011950
v 0.032515 -0.040256 -0.011950
v 0.033266 -0.035751 -0.002471
v 0.019874 -0.044500 -0.002471
v 0.019874 -0.044500 -0.002471
v 0.004368 -0.048427 -0.002471
v 0.011756 -0.050023 -0.011950
v 0.004368 -0.048427 -0.002471
v 0.004649 -0.051822 -0.011950
v 0.011756 -0.050023 -0.011950
v 0.004368 -0.048427 -0.002471
v -0.011574 -0.047106 -0.002471
v -0.011201 -0.050509 -0.011950
v -0.011574 -0.047106 -0.002471
v -0.012410 -0.050409 -0.011950
v -0.011201 -0.050509 -0.011950
v -0.012410 -0.050409 -0.011950
v -0.011574 -0.047106 -0.002471
v -0.026223 -0.040680 -0.002471
v -0.037993 -0.029846 -0.002471
v -0.040680 -0.031939 -0.011950
v -0.031675 -0.040229 -0.011950
v -0.031675 -0.040229 -0.011950
v -0.026223 -0.040680 -0.002471
v -0.037993 -0.029846 -0.002471
v -0.037993 -0.029846 -0.002471
v -0.045605 -0.015778 -0.002471
v -0.045924 -0.022252 -0.011950
v -0.045605 -0.015778 -0.002471
v -0.048827 -0.016884 -0.011950
v -0.045924 -0.022252 -0.011950
v -0.048827 -0.016884 -0.011950
v -0.045605 -0.015778 -0.002471
v -0.048238 0.000000 -0.002471
v -0.048238 0.000000 -0.002471
v -0.051646 -0.000000 -0.011950
v -0.048827 -0.016884 -0.011950
v -0.045924 -0.022252 -0.011950
v -0.040680 -0.031939 -0.011950
v -0.037993 -0.029846 -0.002471
v -0.031675 -0.040229 -0.011950
v -0.028086 -0.043533 -0.011950
v -0.026223 -0.040680 -0.002471
v -0.026223 -0.040680 -0.002471
v -0.028086 -0.043533 -0.011950
v -0.012410 -0.050409 -0.011950
v -0.011201 -0.050509 -0.011950
v 0.004649 -0.051822 -0.011950
v 0.004368 -0.048427 -0.002471
v 0.011756 -0.050023 -0.011950
v 0.021243 -0.047620 -0.011950
v 0.019874 -0.044500 -0.002471
v 0.032515 -0.040256 -0.011950
v 0.035574 -0.038258 -0.011950
v 0.033266 -0.035751 -0.002471
v 0.033266 -0.035751 -0.002471
v 0.035574 -0.038258 -0.011950
v 0.046088 -0.024749 -0.011950
v 0.046876 -0.022449 -0.011950
v 0.051646 -0.008559 -0.011950
v 0.048284 -0.007998 -0.002471
v 0.051646 -0.000000 -0.011950
v 0.051646 0.008559 -0.011950
v 0.048285 0.007998 -0.002471
v 0.046877 0.022449 -0.011950
v 0.046088 0.024749 -0.011950
v 0.043091 0.023128 -0.002471
v 0.033266 0.035751 -0.002471
v 0.043091 0.023128 -0.002471
v 0.046088 0.024749 -0.011950
v 0.032515 0.040256 -0.011950
v 0.021242 0.047620 -0.011950
v 0.019874 0.044500 -0.002471
v 0.011756 0.050023 -0.011950
v 0.004649 0.051822 -0.011950
v 0.004368 0.048427 -0.002471
v -0.011201 0.050509 -0.011950
v -0.012411 0.050409 -0.011950
v -0.011574 0.047106 -0.002471
v -0.026223 0.040680 -0.002471
v -0.011574 0.047106 -0.002471
v -0.012411 0.050409 -0.011950
v -0.031676 0.040229 -0.011950
v -0.040680 0.031939 -0.011950
v -0.037992 0.029846 -0.002471
v -0.045923 0.022252 -0.011950
v -0.048828 0.016884 -0.011950
v -0.045605 0.015778 -0.002471
v -0.045605 0.015778 -0.002471
v -0.048828 0.016884 -0.011950
v -0.051646 -0.000000 -0.011950
v -0.048238 0.000000 -0.002471
v -0.045605 -0.015778 -0.002471
v -0.039105 -0.013547 0.004895
v -0.045605 -0.015778 -0.002471
v -0.037993 -0.029846 -0.002471
v -0.032569 -0.025625 0.004895
v -0.037993 -0.029846 -0.002471
v -0.026223 -0.040680 -0.002471
v -0.022464 -0.034927 0.004895
v -0.026223 -0.040680 -0.002471
v -0.011574 -0.047106 -0.002471
v -0.009888 -0.040444 0.004895
v -0.011574 -0.047106 -0.002471
v 0.004368 -0.048427 -0.002471
v 0.003800 -0.041578 0.004895
v 0.004368 -0.048427 -0.002471
v 0.019874 -0.044500 -0.002471
v 0.017114 -0.038207 0.004895
v 0.019874 -0.044500 -0.002471
v 0.033266 -0.035751 -0.002471
v 0.028611 -0.030695 0.004895
v 0.033266 -0.035751 -0.002471
v 0.043090 -0.023128 -0.002471
v 0.037047 -0.019857 0.004895
v 0.043090 -0.023128 -0.002471
v 0.048284 -0.007998 -0.002471
v 0.041507 -0.006867 0.004895
v 0.048284 -0.007998 -0.002471
v 0.048285 0.007998 -0.002471
v 0.041506 0.006867 0.004895
v 0.048285 0.007998 -0.002471
v 0.043091 0.023128 -0.002471
v 0.037047 0.019857 0.004895
v 0.043091 0.023128 -0.002471
v 0.033266 0.035751 -0.002471
v 0.028612 0.030695 0.004895
v 0.033266 0.035751 -0.002471
v 0.019874 0.044500 -0.002471
v 0.017114 0.038207 0.004895
v 0.019874 0.044500 -0.002471
v 0.004368 0.048427 -0.002471
v 0.003800 0.041578 0.004895
v 0.004368 0.048427 -0.002471
v -0.011574 0.047106 -0.002471
v -0.009888 0.040444 0.004895
v -0.011574 0.047106 -0.002471
v -0.026223 0.040680 -0.002471
v -0.022464 0.034927 0.004895
v -0.026223 0.040680 -0.002471
v -0.037992 0.029846 -0.002471
v -0.032569 0.025625 0.004895
v -0.037992 0.029846 -0.002471
v -0.045605 0.015778 -0.002471
v -0.039105 0.013547 0.004895
v -0.045605 0.015778 -0.002471
v -0.048238 0.000000 -0.002471
v -0.041367 -0.000000 0.004895
v -0.032146 -0.000000 0.008950
v -0.041367 -0.000000 0.004895
v -0.039105 -0.013547 0.004895
v -0.025292 -0.019962 0.008950
v -0.030384 -0.010553 0.008950
v -0.039105 -0.013547 0.004895
v -0.017421 -0.027208 0.008950
v -0.025292 -0.019962 0.008950
v -0.032569 -0.025625 0.004895
v -0.007623 -0.031506 0.008950
v -0.017421 -0.027208 0.008950
v -0.022464 -0.034927 0.004895
v 0.003039 -0.032389 0.008950
v -0.007623 -0.031506 0.008950
v -0.009888 -0.040444 0.004895
v 0.013410 -0.029763 0.008950
v 0.003039 -0.032389 0.008950
v 0.003800 -0.041578 0.004895
v 0.022367 -0.023911 0.008950
v 0.013410 -0.029763 0.008950
v 0.017114 -0.038207 0.004895
v 0.028937 -0.015468 0.008950
v 0.022367 -0.023911 0.008950
v 0.028611 -0.030695 0.004895
v 0.032411 -0.005349 0.008950
v 0.028937 -0.015468 0.008950
v 0.037047 -0.019857 0.004895
v 0.032412 0.005349 0.008950
v 0.032411 -0.005349 0.008950
v 0.041507 -0.006867 0.004895
v 0.032412 0.005349 0.008950
v 0.041506 0.006867 0.004895
v 0.037047 0.019857 0.004895
v 0.022367 0.023911 0.008950
v 0.028937 0.015468 0.008950
v 0.037047 0.019857 0.004895
v 0.013410 0.029763 0.008950
v 0.022367 0.023911 0.008950
v 0.028612 0.030695 0.004895
v 0.013410 0.029763 0.008950
v 0.017114 0.038207 0.004895
v 0.003800 0.041578 0.004895
v -0.007623 0.031506 0.008950
v 0.003039 0.032389 0.008950
v 0.003800 0.041578 0.004895
v -0.007623 0.031506 0.008950
v -0.009888 0.040444 0.004895
v -0.022464 0.034927 0.004895
v -0.025293 0.019962 0.008950
v -0.017421 0.027208 0.008950
v -0.022464 0.034927 0.004895
v -0.030384 0.010553 0.008950
v -0.025293 0.019962 0.008950
v -0.032569 0.025625 0.004895
v -0.032146 -0.000000 0.008950
v -0.030384 0.010553 0.008950
v -0.039105 0.013547 0.004895
vn -0.0000 -0.0000 1.0000
vn -0.8795 0.4758 -0.0000
vn -0.9864 0.1646 -0.0000
vn -0.6773 0.7357 -0.0000
vn -0.8794 0.4760 -0.0000
vn -0.0825 0.9966 -0.0000
vn -0.4017 0.9158 -0.0000
vn 0.2454 0.9694 -0.0000
vn -0.0826 0.9966 -0.0000
vn 0.5469 0.8372 -0.0000
vn 0.2455 0.9694 -0.0000
vn 0.9459 0.3245 -0.0000
vn 0.7892 0.6142 -0.0000
vn 1.0000 -0.0000 -0.0000
vn 0.9458 0.3247 -0.0000
vn 0.9458 -0.3247 -0.0000
vn 0.5468 -0.8372 -0.0000
vn 0.7892 -0.6142 -0.0000
vn 0.9459 -0.3245 -0.0000
vn 0.2455 -0.9694 -0.0000
vn 0.5469 -0.8372 -0.0000
vn -0.0826 -0.9966 -0.0000
vn 0.2454 -0.9694 -0.0000
vn -0.6773 -0.7357 -0.0000
vn -0.4017 -0.9158 -0.0000
vn -0.0824 -0.9966 -0.0000
vn -0.8794 -0.4760 -0.0000
vn -0.9864 -0.1646 -0.0000
vn -0.8795 -0.4758 -0.0000
vn -0.7025 0.1172 -0.7019
vn -0.6261 0.3389 -0.7023
vn -0.6265 0.3389 -0.7019
vn -0.4822 0.5238 -0.7022
vn -0.4821 0.5237 -0.7024
vn -0.2859 0.6519 -0.7024
vn -0.0588 0.7094 -0.7024
vn -0.0587 0.7093 -0.7024
vn 0.1748 0.6900 -0.7024
vn 0.1748 0.6904 -0.7020
vn 0.3893 0.5959 -0.7024
vn 0.5617 0.4371 -0.7025
vn 0.6733 0.2311 -0.7023
vn 0.6732 0.2309 -0.7025
vn 0.7117 -0.0000 -0.7025
vn 0.6731 -0.2311 -0.7025
vn 0.6734 -0.2312 -0.7022
vn 0.5616 -0.4371 -0.7025
vn 0.3893 -0.5959 -0.7024
vn 0.3892 -0.5959 -0.7025
vn 0.1748 -0.6900 -0.7024
vn -0.0588 -0.7097 -0.7021
vn -0.0588 -0.7094 -0.7024
vn -0.2859 -0.6517 -0.7025
vn -0.4821 -0.5237 -0.7024
vn -0.4820 -0.5236 -0.7025
vn -0.6262 -0.3389 -0.7021
vn -0.6261 -0.3388 -0.7023
vn -0.7022 -0.1172 -0.7023
vn -0.7025 -0.1172 -0.7019
vn -0.6265 -0.3389 -0.7019
vn -0.4823 -0.5239 -0.7021
vn -0.2859 -0.6518 -0.7024
vn -0.0586 -0.7093 -0.7024
vn 0.1748 -0.6904 -0.7020
vn 0.5617 -0.4372 -0.7024
vn 0.6733 -0.2310 -0.7024
vn 0.6731 0.2311 -0.7025
vn 0.5616 0.4371 -0.7025
vn 0.3892 0.5959 -0.7025
vn -0.0588 0.7097 -0.7021
vn -0.2859 0.6517 -0.7025
vn -0.4820 0.5236 -0.7025
vn -0.6262 0.3389 -0.7022
vn -0.7022 0.1172 -0.7023
vn -0.4016 0.0670 0.9133
vn -0.3581 0.1938 0.9133
vn -0.2758 0.2996 0.9133
vn -0.1636 0.3729 0.9133
vn -0.0336 0.4058 0.9133
vn 0.1000 0.3948 0.9133
vn 0.2227 0.3409 0.9133
vn 0.3214 0.2501 0.9133
vn 0.3852 0.1322 0.9133
vn 0.4072 -0.0000 0.9133
vn 0.3851 -0.1322 0.9133
vn 0.3214 -0.2501 0.9133
vn 0.2227 -0.3409 0.9133
vn 0.1000 -0.3948 0.9133
vn -0.0336 -0.4058 0.9133
vn -0.1636 -0.3729 0.9133
vn -0.2758 -0.2996 0.9133
vn -0.3581 -0.1938 0.9133
vn -0.4017 -0.0670 0.9133
vn -0.7258 0.1211 0.6772
vn -0.6472 0.3502 0.6771
vn -0.4984 0.5414 0.6771
vn -0.2956 0.6739 0.6772
vn -0.0608 0.7333 0.6772
vn 0.1806 0.7134 0.6771
vn 0.4025 0.6160 0.6771
vn 0.5807 0.4519 0.6772
vn 0.6960 0.2390 0.6771
vn 0.7359 -0.0000 0.6771
vn 0.6960 -0.2390 0.6772
vn 0.5807 -0.4520 0.6771
vn 0.4025 -0.6161 0.6771
vn 0.1806 -0.7133 0.6772
vn -0.0608 -0.7333 0.6771
vn -0.2956 -0.6739 0.6771
vn -0.4984 -0.5414 0.6771
vn -0.6472 -0.3502 0.6771
vn -0.7258 -0.1211 0.6771
vn -0.9297 0.1551 0.3342
vn -0.8289 0.4486 0.3341
vn -0.8289 0.4486 0.3342
vn -0.6383 0.6934 0.3342
vn -0.6384 0.6934 0.3342
vn -0.3786 0.8631 0.3342
vn -0.0778 0.9393 0.3341
vn 0.2314 0.9137 0.3341
vn 0.2314 0.9137 0.3342
vn 0.5155 0.7891 0.3342
vn 0.5154 0.7891 0.3342
vn 0.7438 0.5789 0.3342
vn 0.8914 0.3061 0.3342
vn 0.8915 0.3060 0.3341
vn 0.9425 -0.0000 0.3342
vn 0.8915 -0.3060 0.3341
vn 0.8915 -0.3058 0.3342
vn 0.7438 -0.5789 0.3342
vn 0.5155 -0.7891 0.3342
vn 0.2314 -0.9137 0.3342
vn 0.2313 -0.9137 0.3341
vn -0.0778 -0.9393 0.3341
vn -0.0776 -0.9393 0.3342
vn -0.3786 -0.8631 0.3342
vn -0.6384 -0.6934 0.3341
vn -0.6383 -0.6934 0.3342
vn -0.8289 -0.4486 0.3342
vn -0.8290 -0.4485 0.3341
vn -0.9297 -0.1551 0.3341
vn -0.9297 -0.1552 0.3342
vn -0.8289 -0.4486 0.3341
vn -0.6384 -0.6934 0.3342
vn 0.5154 -0.7891 0.3342
vn 0.8914 -0.3061 0.3342
vn 0.8915 0.3058 0.3342
vn 0.2313 0.9137 0.3341
vn -0.0777 0.9393 0.3342
vn -0.3786 0.8631 0.3341
vn -0.6384 0.6934 0.3341
vn -0.8290 0.4485 0.3341
vn -0.9297 0.1552 0.3341
vn -0.7258 -0.1211 0.6772
vn -0.4984 -0.5414 0.6772
vn -0.0608 -0.7333 0.6772
vn 0.1807 -0.7133 0.6771
vn 0.4025 -0.6160 0.6771
vn 0.5807 -0.4520 0.6772
vn 0.6960 -0.2389 0.6771
vn 0.6960 0.2389 0.6772
vn 0.5807 0.4520 0.6771
vn 0.4025 0.6161 0.6771
vn 0.1806 0.7133 0.6772
vn -0.2956 0.6739 0.6771
vn -0.7258 0.1211 0.6771
vn -0.4016 -0.0670 0.9133
vn 0.3852 -0.1322 0.9133
vn 0.3851 0.1322 0.9133
vn -0.4017 0.0670 0.9133
s 1
usemtl material_0
f 1//1 2//1 3//1
f 4//1 5//1 6//1
f 7//1 8//1 9//1
f 10//1 11//1 12//1
f 13//1 14//1 15//1
f 16//1 17//1 18//1
f 19//1 20//1 21//1
f 22//1 23//1 24//1
f 25//1 26//1 27//1
f 28//1 29//1 30//1
f 31//1 32//1 33//1
f 34//1 35//1 36//1
f 37//1 38//1 39//1
f 40//1 41//1 42//1
f 43//1 44//1 45//1
f 46//1 47//1 48//1
f 49//1 50//1 51//1
f 52//1 53//1 54//1
f 55//1 56//1 57//1
f 58//1 59//1 60//1
f 61//1 62//1 63//1
f 64//1 65//1 66//1
f 67//1 68//1 69//1
f 70//1 71//1 72//1
f 73//1 74//1 75//1
f 76//1 77//1 78//1
f 79//1 80//1 81//1
f 82//1 83//1 84//1
f 85//1 86//1 87//1
f 88//1 89//1 90//1
f 91//1 92//1 93//1
f 94//1 95//1 96//1
f 97//1 98//1 99//1
f 100//1 101//1 102//1
f 103//2 104//2 105//2
f 106//3 107//3 108//3
f 109//3 110//3 111//3
f 112//4 113//4 114//4
f 115//5 116//5 117//5
f 118//5 119//5 120//5
f 121//6 122//6 123//6
f 124//7 125//7 126//7
f 127//7 128//7 129//7
f 130//4 131//4 132//4
f 133//4 134//4 135//4
f 136//8 137//8 138//8
f 139//9 140//9 141//9
f 142//9 143//9 144//9
f 145//10 146//10 147//10
f 148//11 149//11 150//11
f 151//11 152//11 153//11
f 154//12 155//12 156//12
f 157//13 158//13 159//13
f 160//13 161//13 162//13
f 163//10 164//10 165//10
f 166//10 167//10 168//10
f 169//14 170//14 171//14
f 172//15 173//15 174//15
f 175//15 176//15 177//15
f 178//16 179//16 180//16
f 181//14 182//14 183//14
f 184//14 185//14 186//14
f 187//17 188//17 189//17
f 190//18 191//18 192//18
f 193//18 194//18 195//18
f 196//19 197//19 198//19
f 199//19 200//19 201//19
f 202//20 203//20 204//20
f 205//21 206//21 207//21
f 208//21 209//21 210//21
f 211//22 212//22 213//22
f 214//23 215//23 216//23
f 217//23 218//23 219//23
f 220//24 221//24 222//24
f 223//25 224//25 225//25
f 226//25 227//25 228//25
f 229//26 230//26 231//26
f 232//26 233//26 234//26
f 235//27 236//27 237//27
f 238//24 239//24 240//24
f 241//24 242//24 243//24
f 244//28 245//28 246//28
f 247//29 248//29 249//29
f 250//29 251//29 252//29
f 253//28 254//28 255//28
f 256//27 257//27 258//27
f 259//24 260//24 261//24
f 262//22 263//22 264//22
f 265//20 266//20 267//20
f 268//17 269//17 270//17
f 271//16 272//16 273//16
f 274//14 275//14 276//14
f 277//12 278//12 279//12
f 280//10 281//10 282//10
f 283//8 284//8 285//8
f 286//6 287//6 288//6
f 289//4 290//4 291//4
f 292//2 293//2 294//2
f 295//30 296//30 297//30
f 298//31 299//31 300//31
f 301//32 302//32 303//32
f 304//33 305//33 306//33
f 307//34 308//34 309//34
f 310//35 311//35 312//35
f 313//36 314//36 315//36
f 316//37 317//37 318//37
f 319//38 320//38 321//38
f 322//39 323//39 324//39
f 325//40 326//40 327//40
f 328//40 329//40 330//40
f 331//41 332//41 333//41
f 334//42 335//42 336//42
f 337//43 338//43 339//43
f 340//44 341//44 342//44
f 343//44 344//44 345//44
f 346//45 347//45 348//45
f 349//46 350//46 351//46
f 352//47 353//47 354//47
f 355//48 356//48 357//48
f 358//49 359//49 360//49
f 361//50 362//50 363//50
f 364//50 365//50 366//50
f 367//51 368//51 369//51
f 370//52 371//52 372//52
f 373//53 374//53 375//53
f 376//54 377//54 378//54
f 379//55 380//55 381//55
f 382//56 383//56 384//56
f 385//57 386//57 387//57
f 388//58 389//58 390//58
f 391//59 392//59 393//59
f 394//60 395//60 396//60
f 397//61 398//61 399//61
f 400//62 401//62 402//62
f 403//63 404//63 405//63
f 406//64 407//64 408//64
f 409//48 410//48 411//48
f 412//65 413//65 414//65
f 415//66 416//66 417//66
f 418//44 419//44 420//44
f 421//67 422//67 423//67
f 424//68 425//68 426//68
f 427//69 428//69 429//69
f 430//38 431//38 432//38
f 433//70 434//70 435//70
f 436//71 437//71 438//71
f 439//72 440//72 441//72
f 442//73 443//73 444//73
f 445//74 446//74 447//74
f 448//75 449//75 450//75
f 451//76 452//76 453//76
f 454//77 455//77 456//77
f 457//78 458//78 459//78
f 460//79 461//79 462//79
f 463//80 464//80 465//80
f 466//81 467//81 468//81
f 469//82 470//82 471//82
f 472//83 473//83 474//83
f 475//84 476//84 477//84
f 478//85 479//85 480//85
f 481//86 482//86 483//86
f 484//87 485//87 486//87
f 487//88 488//88 489//88
f 490//89 491//89 492//89
f 493//90 494//90 495//90
f 496//91 497//91 498//91
f 499//92 500//92 501//92
f 502//93 503//93 504//93
f 505//94 506//94 507//94
f 508//95 509//95 510//95
f 511//96 512//96 513//96
f 514//97 515//97 516//97
f 517//98 518//98 519//98
f 520//99 521//99 522//99
f 523//100 524//100 525//100
f 526//101 527//101 528//101
f 529//102 530//102 531//102
f 532//103 533//103 534//103
f 535//104 536//104 537//104
f 538//105 539//105 540//105
f 541//106 542//106 543//106
f 544//107 545//107 546//107
f 547//108 548//108 549//108
f 550//109 551//109 552//109
f 553//110 554//110 555//110
f 556//111 557//111 558//111
f 559//112 560//112 561//112
f 562//113 563//113 564//113
f 565//114 566//114 567//114
f 568//115 569//115 570//115
f 571//116 572//116 573//116
f 574//117 575//117 576//117
f 577//118 578//118 579//118
f 580//119 581//119 582//119
f 583//119 584//119 585//119
f 586//120 587//120 588//120
f 589//121 590//121 591//121
f 592//122 593//122 594//122
f 595//123 596//123 597//123
f 598//124 599//124 600//124
f 601//125 602//125 603//125
f 604//126 605//126 606//126
f 607//127 608//127 609//127
f 610//127 611//127 612//127
f 613//128 614//128 615//128
f 616//129 617//129 618//129
f 619//130 620//130 621//130
f 622//131 623//131 624//131
f 625//131 626//131 627//131
f 628//132 629//132 630//132
f 631//133 632//133 633//133
f 634//134 635//134 636//134
f 637//135 638//135 639//135
f 640//136 641//136 642//136
f 643//137 644//137 645//137
f 646//138 647//138 648//138
f 649//139 650//139 651//139
f 652//140 653//140 654//140
f 655//141 656//141 657//141
f 658//142 659//142 660//142
f 661//143 662//143 663//143
f 664//144 665//144 666//144
f 667//136 668//136 669//136
f 670//134 671//134 672//134
f 673//132 674//132 675//132
f 676//145 677//145 678//145
f 679//130 680//130 681//130
f 682//146 683//146 684//146
f 685//127 686//127 687//127
f 688//147 689//147 690//147
f 691//124 692//124 693//124
f 694//122 695//122 696//122
f 697//148 698//148 699//148
f 700//149 701//149 702//149
f 703//150 704//150 705//150
f 706//151 707//151 708//151
f 709//152 710//152 711//152
f 712//153 713//153 714//153
f 715//154 716//154 717//154
f 718//111 719//111 720//111
f 721//155 722//155 723//155
f 724//109 725//109 726//109
f 727//156 728//156 729//156
f 730//157 731//157 732//157
f 733//158 734//158 735//158
f 736//159 737//159 738//159
f 739//160 740//160 741//160
f 742//103 743//103 744//103
f 745//161 746//161 747//161
f 748//162 749//162 750//162
f 751//163 752//163 753//163
f 754//164 755//164 756//164
f 757//98 758//98 759//98
f 760//165 761//165 762//165
f 763//96 764//96 765//96
f 766//95 767//95 768//95
f 769//166 770//166 771//166
f 772//167 773//167 774//167
f 775//92 776//92 777//92
f 778//91 779//91 780//91
f 781//90 782//90 783//90
f 784//89 785//89 786//89
f 787//88 788//88 789//88
f 790//87 791//87 792//87
f 793//86 794//86 795//86
f 796//168 797//168 798//168
f 799//84 800//84 801//84
f 802//169 803//169 804//169
f 805//82 806//82 807//82
f 808//81 809//81 810//81
f 811//80 812//80 813//80
f 814//79 815//79 816//79
f 817//78 818//78 819//78
f 820//77 821//77 822//77
f 823//76 824//76 825//76
f 826//170 827//170 828//170
