# Blender 4.5.10 LTS
# www.blender.org
mtllib iiwa_robot_base_coll_13.mtl
o node
v 0.010261 -0.113946 -0.078663
v 0.010603 -0.114658 -0.053026
v 0.027963 -0.119957 -0.074635
v 0.005343 -0.115164 -0.078660
v 0.010603 -0.114658 -0.053026
v 0.010261 -0.113946 -0.078663
v 0.015532 -0.120526 -0.076770
v 0.027963 -0.119957 -0.074635
v -0.000290 -0.121905 -0.076749
v 0.015532 -0.120526 -0.076770
v 0.010261 -0.113946 -0.078663
v 0.027963 -0.119957 -0.074635
v 0.005343 -0.115164 -0.078660
v 0.015532 -0.120526 -0.076770
v -0.000290 -0.121905 -0.076749
v 0.015532 -0.120526 -0.076770
v 0.005343 -0.115164 -0.078660
v 0.010261 -0.113946 -0.078663
v 0.027963 -0.119957 -0.074635
v 0.004799 -0.116019 -0.056808
v -0.000290 -0.121905 -0.076749
v 0.010603 -0.114658 -0.053026
v 0.004799 -0.116019 -0.056808
v 0.027963 -0.119957 -0.074635
v 0.004799 -0.116019 -0.056808
v 0.005343 -0.115164 -0.078660
v -0.000290 -0.121905 -0.076749
v 0.005343 -0.115164 -0.078660
v 0.004799 -0.116019 -0.056808
v 0.010603 -0.114658 -0.053026
vn 0.3169 0.9482 0.0221
vn -0.2403 0.9702 0.0302
vn 0.0842 -0.9691 -0.2317
vn 0.1738 -0.1412 -0.9746
vn 0.0241 -0.2912 -0.9563
vn 0.0572 -0.2335 -0.9707
vn 0.0459 -0.9612 0.2720
vn 0.0471 -0.9607 0.2734
vn -0.7665 0.6422 0.0060
vn -0.2477 0.9683 0.0317
s 1
usemtl material_0
f 1//1 2//1 3//1
f 4//2 5//2 6//2
f 7//3 8//3 9//3
f 10//4 11//4 12//4
f 13//5 14//5 15//5
f 16//6 17//6 18//6
f 19//7 20//7 21//7
f 22//8 23//8 24//8
f 25//9 26//9 27//9
f 28//10 29//10 30//10
