# Blender 4.5.10 LTS
# www.blender.org
mtllib iiwa_link8_resp_coll_3.mtl
o node
v -0.012597 0.050758 -0.016287
v -0.022347 0.039981 0.002766
v 0.000841 0.045452 0.002574
v 0.051942 0.008552 -0.016320
v 0.042615 -0.019463 0.002507
v 0.001373 -0.045940 0.002717
v 0.004627 0.052011 -0.016127
v -0.012597 0.050758 -0.016287
v 0.000841 0.045452 0.002574
v 0.004627 0.052011 -0.016127
v 0.035568 0.038440 -0.016132
v -0.012597 0.050758 -0.016287
v -0.012597 0.050758 -0.016287
v 0.046302 0.024912 -0.016281
v 0.051942 0.008552 -0.016320
v 0.035568 0.038440 -0.016132
v 0.046302 0.024912 -0.016281
v -0.012597 0.050758 -0.016287
v -0.022347 0.039981 0.002766
v 0.010150 0.030432 0.009175
v 0.000841 0.045452 0.002574
v -0.028338 0.043667 -0.016130
v -0.022347 0.039981 0.002766
v -0.012597 0.050758 -0.016287
v -0.022347 0.039981 0.002766
v -0.028338 0.043667 -0.016130
v -0.042385 0.019017 0.002052
v -0.028338 0.043667 -0.016130
v 0.051942 0.008552 -0.016320
v 0.001373 -0.045940 0.002717
v -0.028338 0.043667 -0.016130
v -0.012597 0.050758 -0.016287
v 0.051942 0.008552 -0.016320
v -0.003092 -0.031825 0.009272
v -0.017473 -0.038066 0.005065
v 0.001373 -0.045940 0.002717
v -0.017473 -0.038066 0.005065
v -0.028338 0.043667 -0.016130
v 0.001373 -0.045940 0.002717
v -0.028338 0.043667 -0.016130
v -0.017473 -0.038066 0.005065
v -0.042385 0.019017 0.002052
v 0.042615 -0.019463 0.002507
v 0.021668 -0.023781 0.009099
v 0.001373 -0.045940 0.002717
v 0.021127 0.047557 -0.015885
v 0.004627 0.052011 -0.016127
v 0.000841 0.045452 0.002574
v 0.004627 0.052011 -0.016127
v 0.021127 0.047557 -0.015885
v 0.035568 0.038440 -0.016132
v 0.040314 0.021562 0.002193
v 0.046302 0.024912 -0.016281
v 0.035568 0.038440 -0.016132
v 0.046302 0.024912 -0.016281
v 0.040314 0.021562 0.002193
v 0.051942 0.008552 -0.016320
v 0.009988 -0.029959 0.009418
v -0.003092 -0.031825 0.009272
v 0.001373 -0.045940 0.002717
v 0.021668 -0.023781 0.009099
v 0.009988 -0.029959 0.009418
v 0.001373 -0.045940 0.002717
v 0.021668 0.023781 0.009117
v 0.010150 0.030432 0.009175
v 0.032256 0.000000 0.009351
v 0.021127 0.047557 -0.015885
v 0.026300 0.039112 0.001281
v 0.035568 0.038440 -0.016132
v 0.026300 0.039112 0.001281
v 0.040314 0.021562 0.002193
v 0.035568 0.038440 -0.016132
v 0.026300 0.039112 0.001281
v 0.021127 0.047557 -0.015885
v 0.000841 0.045452 0.002574
v 0.026300 0.039112 0.001281
v 0.021668 0.023781 0.009117
v 0.040314 0.021562 0.002193
v 0.010150 0.030432 0.009175
v 0.026300 0.039112 0.001281
v 0.000841 0.045452 0.002574
v 0.021668 0.023781 0.009117
v 0.026300 0.039112 0.001281
v 0.010150 0.030432 0.009175
v 0.046052 0.003469 0.002336
v 0.042615 -0.019463 0.002507
v 0.051942 0.008552 -0.016320
v 0.040314 0.021562 0.002193
v 0.046052 0.003469 0.002336
v 0.051942 0.008552 -0.016320
v 0.042615 -0.019463 0.002507
v 0.046052 0.003469 0.002336
v 0.032256 0.000000 0.009351
v 0.010150 0.030432 0.009175
v -0.031045 0.006658 0.009288
v 0.032256 0.000000 0.009351
v -0.031045 0.006658 0.009288
v 0.010150 0.030432 0.009175
v -0.022347 0.039981 0.002766
v -0.031045 0.006658 0.009288
v -0.022347 0.039981 0.002766
v -0.042385 0.019017 0.002052
v 0.029032 -0.012813 0.009418
v 0.009988 -0.029959 0.009418
v 0.021668 -0.023781 0.009099
v 0.029032 -0.012813 0.009418
v 0.042615 -0.019463 0.002507
v 0.032256 0.000000 0.009351
v 0.029032 -0.012813 0.009418
v 0.021668 -0.023781 0.009099
v 0.042615 -0.019463 0.002507
v -0.031045 0.006658 0.009288
v 0.029032 -0.012813 0.009418
v 0.032256 0.000000 0.009351
v 0.029032 -0.012813 0.009418
v -0.031045 0.006658 0.009288
v -0.025229 -0.018514 0.009418
v 0.009988 -0.029959 0.009418
v -0.015495 -0.027280 0.009418
v -0.003092 -0.031825 0.009272
v -0.015495 -0.027280 0.009418
v -0.017473 -0.038066 0.005065
v -0.003092 -0.031825 0.009272
v -0.015495 -0.027280 0.009418
v -0.025229 -0.018514 0.009418
v -0.017473 -0.038066 0.005065
v -0.015495 -0.027280 0.009418
v 0.029032 -0.012813 0.009418
v -0.025229 -0.018514 0.009418
v 0.029032 -0.012813 0.009418
v -0.015495 -0.027280 0.009418
v 0.009988 -0.029959 0.009418
v 0.029488 0.013018 0.009122
v 0.021668 0.023781 0.009117
v 0.032256 0.000000 0.009351
v 0.021668 0.023781 0.009117
v 0.029488 0.013018 0.009122
v 0.040314 0.021562 0.002193
v 0.046052 0.003469 0.002336
v 0.029488 0.013018 0.009122
v 0.032256 0.000000 0.009351
v 0.029488 0.013018 0.009122
v 0.046052 0.003469 0.002336
v 0.040314 0.021562 0.002193
v -0.031048 -0.006642 0.009334
v -0.031045 0.006658 0.009288
v -0.042385 0.019017 0.002052
v -0.031045 0.006658 0.009288
v -0.031048 -0.006642 0.009334
v -0.025229 -0.018514 0.009418
v -0.017473 -0.038066 0.005065
v -0.031048 -0.006642 0.009334
v -0.042385 0.019017 0.002052
v -0.025229 -0.018514 0.009418
v -0.031048 -0.006642 0.009334
v -0.017473 -0.038066 0.005065
vn -0.2075 0.8932 0.3990
vn 0.3814 -0.5997 -0.7034
vn -0.0718 0.9457 0.3171
vn 0.0079 0.0185 -0.9998
vn 0.0014 0.0028 -1.0000
vn 0.0076 0.0170 -0.9998
vn -0.0774 0.3605 0.9295
vn -0.3901 0.8726 0.2939
vn -0.6849 0.6430 0.3426
vn -0.1065 -0.2384 -0.9653
vn -0.0061 -0.0086 -0.9999
vn -0.0717 -0.4387 0.8958
vn -0.2303 -0.2728 -0.9341
vn -0.5405 -0.2778 -0.7942
vn 0.3519 -0.5421 0.7631
vn 0.2377 0.9006 0.3640
vn 0.0383 0.0877 -0.9954
vn 0.7373 0.5812 0.3444
vn 0.8882 0.3054 0.3433
vn 0.0480 -0.4082 0.9116
vn 0.2854 -0.4974 0.8192
vn 0.0144 0.0163 0.9998
vn 0.5205 0.8178 0.2455
vn 0.7198 0.5935 0.3602
vn 0.2422 0.8975 0.3686
vn 0.3628 0.3349 0.8696
vn 0.1633 0.4800 0.8619
vn 0.2283 0.3875 0.8931
vn 0.9545 -0.1411 0.2629
vn 0.8891 0.2848 0.3583
vn 0.4649 -0.0631 0.8831
vn -0.0004 0.0055 1.0000
vn -0.1255 0.2220 0.9669
vn -0.3033 0.2587 0.9171
vn 0.0658 -0.0731 0.9952
vn 0.4123 -0.0990 0.9056
vn 0.3375 -0.2529 0.9067
vn -0.0004 0.0054 1.0000
vn -0.0005 0.0050 1.0000
vn -0.0047 -0.0451 0.9990
vn -0.1184 -0.3529 0.9281
vn -0.2827 -0.3140 0.9063
vn -0.0000 -0.0000 1.0000
vn 0.0331 0.0246 0.9992
vn 0.3632 0.2644 0.8934
vn 0.4291 0.1070 0.8969
vn 0.4471 0.1488 0.8820
vn -0.5356 0.0031 0.8445
vn -0.0074 0.0035 1.0000
vn -0.9167 -0.3989 0.0215
vn -0.8444 -0.4114 0.3433
s 1
usemtl material_0
f 1//1 2//1 3//1
f 4//2 5//2 6//2
f 7//3 8//3 9//3
f 10//4 11//4 12//4
f 13//5 14//5 15//5
f 16//6 17//6 18//6
f 19//7 20//7 21//7
f 22//8 23//8 24//8
f 25//9 26//9 27//9
f 28//10 29//10 30//10
f 31//11 32//11 33//11
f 34//12 35//12 36//12
f 37//13 38//13 39//13
f 40//14 41//14 42//14
f 43//15 44//15 45//15
f 46//16 47//16 48//16
f 49//17 50//17 51//17
f 52//18 53//18 54//18
f 55//19 56//19 57//19
f 58//20 59//20 60//20
f 61//21 62//21 63//21
f 64//22 65//22 66//22
f 67//23 68//23 69//23
f 70//24 71//24 72//24
f 73//25 74//25 75//25
f 76//26 77//26 78//26
f 79//27 80//27 81//27
f 82//28 83//28 84//28
f 85//29 86//29 87//29
f 88//30 89//30 90//30
f 91//31 92//31 93//31
f 94//32 95//32 96//32
f 97//33 98//33 99//33
f 100//34 101//34 102//34
f 103//35 104//35 105//35
f 106//36 107//36 108//36
f 109//37 110//37 111//37
f 112//38 113//38 114//38
f 115//39 116//39 117//39
f 118//40 119//40 120//40
f 121//41 122//41 123//41
f 124//42 125//42 126//42
f 127//43 128//43 129//43
f 130//43 131//43 132//43
f 133//44 134//44 135//44
f 136//45 137//45 138//45
f 139//46 140//46 141//46
f 142//47 143//47 144//47
f 145//48 146//48 147//48
f 148//49 149//49 150//49
f 151//50 152//50 153//50
f 154//51 155//51 156//51
