# Blender 4.5.10 LTS
# www.blender.org
mtllib iiwa_link2_resp_coll_2.mtl
o node
v 0.067416 0.015026 0.006359
v 0.080190 0.015031 0.028962
v 0.064529 -0.010027 -0.045420
v 0.067901 -0.041681 -0.044424
v -0.064813 -0.010027 -0.045420
v 0.064529 -0.010027 -0.045420
v 0.067901 -0.041681 -0.044424
v 0.075835 -0.037307 0.032654
v 0.068249 -0.056389 0.019799
v 0.068249 -0.056389 0.019799
v 0.066955 -0.060046 0.057722
v 0.062956 -0.066895 0.024484
v 0.051519 0.003637 -0.040267
v 0.067416 0.015026 0.006359
v 0.064529 -0.010027 -0.045420
v -0.064813 -0.010027 -0.045420
v 0.051519 0.003637 -0.040267
v 0.064529 -0.010027 -0.045420
v 0.024084 0.015128 -0.023587
v 0.027381 0.010853 -0.036621
v -0.013212 0.015078 -0.025774
v 0.024084 0.015128 -0.023587
v 0.080190 0.015031 0.028962
v 0.067416 0.015026 0.006359
v 0.024084 0.015128 -0.023587
v -0.024007 0.015037 0.141175
v 0.012831 0.015035 0.143629
v -0.024007 0.015037 0.141175
v 0.024084 0.015128 -0.023587
v -0.052152 0.015037 0.127958
v 0.024084 0.015128 -0.023587
v -0.073943 0.015039 0.102808
v -0.052152 0.015037 0.127958
v 0.024084 0.015128 -0.023587
v -0.073444 0.015034 0.014974
v -0.085504 0.015041 0.063546
v -0.073444 0.015034 0.014974
v -0.084767 0.015030 0.044395
v -0.085504 0.015041 0.063546
v -0.084767 0.015030 0.044395
v -0.073444 0.015034 0.014974
v -0.064813 -0.010027 -0.045420
v -0.073444 0.015034 0.014974
v -0.051803 0.003637 -0.040267
v -0.064813 -0.010027 -0.045420
v -0.051803 0.003637 -0.040267
v 0.051519 0.003637 -0.040267
v -0.064813 -0.010027 -0.045420
v 0.067901 -0.041681 -0.044424
v -0.062990 -0.056333 -0.034967
v -0.064813 -0.010027 -0.045420
v 0.080190 0.015031 0.028962
v 0.084425 0.015032 0.044179
v 0.064529 -0.010027 -0.045420
v 0.084425 0.015032 0.044179
v 0.067901 -0.041681 -0.044424
v 0.064529 -0.010027 -0.045420
v 0.084425 0.015032 0.044179
v 0.024084 0.015128 -0.023587
v 0.085698 0.015037 0.060841
v 0.024084 0.015128 -0.023587
v 0.084425 0.015032 0.044179
v 0.080190 0.015031 0.028962
v 0.081857 -0.008847 0.076652
v 0.082466 -0.016417 0.051970
v 0.085698 0.015037 0.060841
v 0.082466 -0.016417 0.051970
v 0.084425 0.015032 0.044179
v 0.085698 0.015037 0.060841
v 0.082466 -0.016417 0.051970
v 0.075835 -0.037307 0.032654
v 0.067901 -0.041681 -0.044424
v 0.084425 0.015032 0.044179
v 0.082466 -0.016417 0.051970
v 0.067901 -0.041681 -0.044424
v 0.055216 -0.077463 0.036553
v 0.054469 -0.072491 -0.011651
v 0.062956 -0.066895 0.024484
v 0.066955 -0.060046 0.057722
v 0.055216 -0.077463 0.036553
v 0.062956 -0.066895 0.024484
v 0.055216 -0.077463 0.036553
v 0.066955 -0.060046 0.057722
v 0.043679 -0.084264 0.070654
v 0.017885 -0.097507 0.055334
v 0.055216 -0.077463 0.036553
v 0.043679 -0.084264 0.070654
v 0.054469 -0.072491 -0.011651
v 0.017885 -0.097507 0.055334
v -0.000142 -0.100649 0.033997
v 0.055216 -0.077463 0.036553
v 0.017885 -0.097507 0.055334
v 0.054469 -0.072491 -0.011651
v 0.017451 -0.092218 0.076983
v 0.043679 -0.084264 0.070654
v 0.044942 -0.076014 0.089284
v 0.017451 -0.092218 0.076983
v 0.017885 -0.097507 0.055334
v 0.043679 -0.084264 0.070654
v -0.073943 0.015039 0.102808
v -0.081637 0.015039 0.085277
v -0.075376 -0.011042 0.095781
v -0.081637 0.015039 0.085277
v 0.024084 0.015128 -0.023587
v -0.085504 0.015041 0.063546
v 0.024084 0.015128 -0.023587
v -0.081637 0.015039 0.085277
v -0.073943 0.015039 0.102808
v -0.024007 0.015037 0.141175
v -0.013285 -0.005528 0.142502
v 0.012831 0.015035 0.143629
v -0.037964 -0.026600 0.130490
v -0.029504 -0.005358 0.138543
v -0.049688 -0.013087 0.127121
v -0.029504 -0.005358 0.138543
v -0.052152 0.015037 0.127958
v -0.049688 -0.013087 0.127121
v -0.029504 -0.005358 0.138543
v -0.024007 0.015037 0.141175
v -0.052152 0.015037 0.127958
v -0.029504 -0.005358 0.138543
v -0.013285 -0.005528 0.142502
v -0.024007 0.015037 0.141175
v 0.040826 0.015053 -0.016539
v 0.024084 0.015128 -0.023587
v 0.067416 0.015026 0.006359
v 0.024084 0.015128 -0.023587
v 0.040826 0.015053 -0.016539
v 0.027381 0.010853 -0.036621
v 0.051519 0.003637 -0.040267
v 0.040826 0.015053 -0.016539
v 0.067416 0.015026 0.006359
v 0.040826 0.015053 -0.016539
v 0.051519 0.003637 -0.040267
v 0.027381 0.010853 -0.036621
v -0.055548 0.015044 -0.006923
v -0.051803 0.003637 -0.040267
v -0.073444 0.015034 0.014974
v -0.055548 0.015044 -0.006923
v 0.024084 0.015128 -0.023587
v -0.013212 0.015078 -0.025774
v 0.024084 0.015128 -0.023587
v -0.055548 0.015044 -0.006923
v -0.073444 0.015034 0.014974
v 0.051519 0.003637 -0.040267
v -0.027664 0.010853 -0.036621
v 0.027381 0.010853 -0.036621
v -0.051803 0.003637 -0.040267
v -0.027664 0.010853 -0.036621
v 0.051519 0.003637 -0.040267
v 0.027381 0.010853 -0.036621
v -0.027664 0.010853 -0.036621
v -0.013212 0.015078 -0.025774
v -0.027664 0.010853 -0.036621
v -0.055548 0.015044 -0.006923
v -0.013212 0.015078 -0.025774
v -0.055548 0.015044 -0.006923
v -0.027664 0.010853 -0.036621
v -0.051803 0.003637 -0.040267
v -0.058967 -0.064326 0.080692
v -0.045225 -0.076016 0.089281
v -0.047210 -0.064852 0.102196
v 0.062707 -0.056333 -0.034967
v -0.062990 -0.056333 -0.034967
v 0.067901 -0.041681 -0.044424
v 0.054469 -0.072491 -0.011651
v 0.062707 -0.056333 -0.034967
v 0.062956 -0.066895 0.024484
v 0.062707 -0.056333 -0.034967
v 0.068249 -0.056389 0.019799
v 0.062956 -0.066895 0.024484
v 0.062707 -0.056333 -0.034967
v 0.067901 -0.041681 -0.044424
v 0.068249 -0.056389 0.019799
v -0.054753 -0.072491 -0.011651
v 0.054469 -0.072491 -0.011651
v -0.000142 -0.100649 0.033997
v -0.062990 -0.056333 -0.034967
v -0.054753 -0.072491 -0.011651
v -0.063239 -0.066895 0.024484
v -0.054753 -0.072491 -0.011651
v 0.062707 -0.056333 -0.034967
v 0.054469 -0.072491 -0.011651
v 0.062707 -0.056333 -0.034967
v -0.054753 -0.072491 -0.011651
v -0.062990 -0.056333 -0.034967
v -0.068547 -0.056405 0.020178
v -0.062990 -0.056333 -0.034967
v -0.063239 -0.066895 0.024484
v -0.068728 -0.029602 -0.035336
v -0.084767 0.015030 0.044395
v -0.064813 -0.010027 -0.045420
v -0.062990 -0.056333 -0.034967
v -0.068728 -0.029602 -0.035336
v -0.064813 -0.010027 -0.045420
v 0.082466 -0.016417 0.051970
v 0.074909 -0.044020 0.053476
v 0.075835 -0.037307 0.032654
v 0.075835 -0.037307 0.032654
v 0.074909 -0.044020 0.053476
v 0.068249 -0.056389 0.019799
v 0.074909 -0.044020 0.053476
v 0.066955 -0.060046 0.057722
v 0.068249 -0.056389 0.019799
v 0.074909 -0.044020 0.053476
v 0.071792 -0.039915 0.082894
v 0.066955 -0.060046 0.057722
v 0.037680 -0.026600 0.130490
v 0.028818 -0.047634 0.125275
v 0.048610 -0.034525 0.121745
v 0.017885 -0.097507 0.055334
v -0.000142 -0.099101 0.056763
v -0.000142 -0.100649 0.033997
v -0.000142 -0.099101 0.056763
v 0.017451 -0.092218 0.076983
v -0.000142 -0.093211 0.078790
v 0.017451 -0.092218 0.076983
v -0.000142 -0.099101 0.056763
v 0.017885 -0.097507 0.055334
v 0.017451 -0.092218 0.076983
v 0.017924 -0.081844 0.097140
v -0.000142 -0.093211 0.078790
v 0.017924 -0.081844 0.097140
v 0.017451 -0.092218 0.076983
v 0.044942 -0.076014 0.089284
v 0.036119 -0.064983 0.109202
v 0.017924 -0.081844 0.097140
v 0.044942 -0.076014 0.089284
v 0.071792 -0.039915 0.082894
v 0.058683 -0.064326 0.080692
v 0.066955 -0.060046 0.057722
v 0.043679 -0.084264 0.070654
v 0.058683 -0.064326 0.080692
v 0.044942 -0.076014 0.089284
v 0.066955 -0.060046 0.057722
v 0.058683 -0.064326 0.080692
v 0.043679 -0.084264 0.070654
v 0.006490 -0.005056 0.143496
v -0.013285 -0.005528 0.142502
v -0.000142 -0.027842 0.138414
v -0.013285 -0.005528 0.142502
v 0.006490 -0.005056 0.143496
v 0.012831 0.015035 0.143629
v 0.076565 0.015034 0.098170
v 0.081857 -0.008847 0.076652
v 0.085698 0.015037 0.060841
v 0.024084 0.015128 -0.023587
v 0.076565 0.015034 0.098170
v 0.085698 0.015037 0.060841
v 0.062032 0.015035 0.118725
v 0.076565 0.015034 0.098170
v 0.024084 0.015128 -0.023587
v 0.006490 -0.005056 0.143496
v 0.029225 -0.005334 0.138559
v 0.012831 0.015035 0.143629
v 0.049988 -0.005244 0.127732
v 0.037680 -0.026600 0.130490
v 0.048610 -0.034525 0.121745
v 0.049988 -0.005244 0.127732
v 0.029225 -0.005334 0.138559
v 0.037680 -0.026600 0.130490
v 0.049037 0.015036 0.129922
v 0.024084 0.015128 -0.023587
v 0.012831 0.015035 0.143629
v 0.049037 0.015036 0.129922
v 0.062032 0.015035 0.118725
v 0.024084 0.015128 -0.023587
v 0.029225 -0.005334 0.138559
v 0.049037 0.015036 0.129922
v 0.012831 0.015035 0.143629
v 0.049037 0.015036 0.129922
v 0.049988 -0.005244 0.127732
v 0.062032 0.015035 0.118725
v 0.049988 -0.005244 0.127732
v 0.049037 0.015036 0.129922
v 0.029225 -0.005334 0.138559
v -0.062572 -0.037062 0.104665
v -0.064256 -0.012731 0.113145
v -0.075376 -0.011042 0.095781
v -0.064256 -0.012731 0.113145
v -0.073943 0.015039 0.102808
v -0.075376 -0.011042 0.095781
v -0.052152 0.015037 0.127958
v -0.064256 -0.012731 0.113145
v -0.049688 -0.013087 0.127121
v -0.073943 0.015039 0.102808
v -0.064256 -0.012731 0.113145
v -0.052152 0.015037 0.127958
v -0.048893 -0.034528 0.121744
v -0.037964 -0.026600 0.130490
v -0.049688 -0.013087 0.127121
v -0.064256 -0.012731 0.113145
v -0.048893 -0.034528 0.121744
v -0.049688 -0.013087 0.127121
v -0.048893 -0.034528 0.121744
v -0.064256 -0.012731 0.113145
v -0.062572 -0.037062 0.104665
v -0.048893 -0.034528 0.121744
v -0.029101 -0.047635 0.125274
v -0.037964 -0.026600 0.130490
v -0.043963 -0.084265 0.070649
v -0.045225 -0.076016 0.089281
v -0.058967 -0.064326 0.080692
v -0.067238 -0.060046 0.057721
v -0.043963 -0.084265 0.070649
v -0.058967 -0.064326 0.080692
v -0.067238 -0.060046 0.057721
v -0.068547 -0.056405 0.020178
v -0.063239 -0.066895 0.024484
v -0.072075 -0.039915 0.082894
v -0.062572 -0.037062 0.104665
v -0.075376 -0.011042 0.095781
v -0.072075 -0.039915 0.082894
v -0.067238 -0.060046 0.057721
v -0.058967 -0.064326 0.080692
v -0.082260 -0.008527 0.076389
v -0.081637 0.015039 0.085277
v -0.085504 0.015041 0.063546
v -0.081637 0.015039 0.085277
v -0.082260 -0.008527 0.076389
v -0.075376 -0.011042 0.095781
v -0.082260 -0.008527 0.076389
v -0.072075 -0.039915 0.082894
v -0.075376 -0.011042 0.095781
v -0.072075 -0.039915 0.082894
v -0.082260 -0.008527 0.076389
v -0.079226 -0.028011 0.068153
v -0.068728 -0.029602 -0.035336
v -0.081014 -0.014278 0.036378
v -0.084767 0.015030 0.044395
v -0.067332 -0.046654 -0.030694
v -0.068728 -0.029602 -0.035336
v -0.062990 -0.056333 -0.034967
v -0.067332 -0.046654 -0.030694
v -0.068547 -0.056405 0.020178
v -0.077788 -0.033399 0.038148
v -0.068547 -0.056405 0.020178
v -0.067332 -0.046654 -0.030694
v -0.062990 -0.056333 -0.034967
v -0.081014 -0.014278 0.036378
v -0.067332 -0.046654 -0.030694
v -0.077788 -0.033399 0.038148
v -0.067332 -0.046654 -0.030694
v -0.081014 -0.014278 0.036378
v -0.068728 -0.029602 -0.035336
v 0.071792 -0.039915 0.082894
v 0.078942 -0.028011 0.068153
v 0.081857 -0.008847 0.076652
v 0.074909 -0.044020 0.053476
v 0.078942 -0.028011 0.068153
v 0.071792 -0.039915 0.082894
v 0.078942 -0.028011 0.068153
v 0.082466 -0.016417 0.051970
v 0.081857 -0.008847 0.076652
v 0.078942 -0.028011 0.068153
v 0.074909 -0.044020 0.053476
v 0.082466 -0.016417 0.051970
v -0.029101 -0.047635 0.125274
v -0.020412 -0.027889 0.136348
v -0.037964 -0.026600 0.130490
v -0.013285 -0.005528 0.142502
v -0.020412 -0.027889 0.136348
v -0.000142 -0.027842 0.138414
v -0.020412 -0.027889 0.136348
v -0.029504 -0.005358 0.138543
v -0.037964 -0.026600 0.130490
v -0.029504 -0.005358 0.138543
v -0.020412 -0.027889 0.136348
v -0.013285 -0.005528 0.142502
v -0.000142 -0.048658 0.129085
v -0.029101 -0.047635 0.125274
v -0.006331 -0.067076 0.115944
v -0.020412 -0.027889 0.136348
v -0.000142 -0.048658 0.129085
v -0.000142 -0.027842 0.138414
v -0.000142 -0.048658 0.129085
v -0.020412 -0.027889 0.136348
v -0.029101 -0.047635 0.125274
v 0.020130 -0.027889 0.136348
v 0.028818 -0.047634 0.125275
v 0.037680 -0.026600 0.130490
v 0.029225 -0.005334 0.138559
v 0.020130 -0.027889 0.136348
v 0.037680 -0.026600 0.130490
v -0.000142 -0.048658 0.129085
v 0.020130 -0.027889 0.136348
v -0.000142 -0.027842 0.138414
v 0.020130 -0.027889 0.136348
v -0.000142 -0.048658 0.129085
v 0.028818 -0.047634 0.125275
v 0.020130 -0.027889 0.136348
v 0.006490 -0.005056 0.143496
v -0.000142 -0.027842 0.138414
v 0.020130 -0.027889 0.136348
v 0.029225 -0.005334 0.138559
v 0.006490 -0.005056 0.143496
v 0.046928 -0.064843 0.102206
v 0.036119 -0.064983 0.109202
v 0.044942 -0.076014 0.089284
v 0.058683 -0.064326 0.080692
v 0.046928 -0.064843 0.102206
v 0.044942 -0.076014 0.089284
v 0.028818 -0.047634 0.125275
v 0.047658 -0.052159 0.113070
v 0.048610 -0.034525 0.121745
v 0.036119 -0.064983 0.109202
v 0.047658 -0.052159 0.113070
v 0.028818 -0.047634 0.125275
v 0.046928 -0.064843 0.102206
v 0.047658 -0.052159 0.113070
v 0.036119 -0.064983 0.109202
v 0.018616 -0.066664 0.114430
v 0.017924 -0.081844 0.097140
v 0.036119 -0.064983 0.109202
v 0.018616 -0.066664 0.114430
v 0.036119 -0.064983 0.109202
v 0.028818 -0.047634 0.125275
v 0.018616 -0.066664 0.114430
v -0.000142 -0.048658 0.129085
v -0.006331 -0.067076 0.115944
v -0.000142 -0.048658 0.129085
v 0.018616 -0.066664 0.114430
v 0.028818 -0.047634 0.125275
v 0.064041 -0.012850 0.113019
v 0.076565 0.015034 0.098170
v 0.062032 0.015035 0.118725
v 0.064041 -0.012850 0.113019
v 0.049988 -0.005244 0.127732
v 0.048610 -0.034525 0.121745
v 0.049988 -0.005244 0.127732
v 0.064041 -0.012850 0.113019
v 0.062032 0.015035 0.118725
v -0.047942 -0.052148 0.113077
v -0.048893 -0.034528 0.121744
v -0.062572 -0.037062 0.104665
v -0.048893 -0.034528 0.121744
v -0.047942 -0.052148 0.113077
v -0.029101 -0.047635 0.125274
v -0.031097 -0.066177 0.110812
v -0.018207 -0.081844 0.097141
v -0.006331 -0.067076 0.115944
v -0.029101 -0.047635 0.125274
v -0.031097 -0.066177 0.110812
v -0.006331 -0.067076 0.115944
v -0.045225 -0.076016 0.089281
v -0.031097 -0.066177 0.110812
v -0.047210 -0.064852 0.102196
v -0.018207 -0.081844 0.097141
v -0.031097 -0.066177 0.110812
v -0.045225 -0.076016 0.089281
v -0.031097 -0.066177 0.110812
v -0.047942 -0.052148 0.113077
v -0.047210 -0.064852 0.102196
v -0.047942 -0.052148 0.113077
v -0.031097 -0.066177 0.110812
v -0.029101 -0.047635 0.125274
v 0.017924 -0.081844 0.097140
v -0.000142 -0.082445 0.098877
v -0.000142 -0.093211 0.078790
v -0.000142 -0.082445 0.098877
v -0.018207 -0.081844 0.097141
v -0.000142 -0.093211 0.078790
v -0.018207 -0.081844 0.097141
v -0.000142 -0.082445 0.098877
v -0.006331 -0.067076 0.115944
v -0.000142 -0.082445 0.098877
v 0.018616 -0.066664 0.114430
v -0.006331 -0.067076 0.115944
v 0.018616 -0.066664 0.114430
v -0.000142 -0.082445 0.098877
v 0.017924 -0.081844 0.097140
v -0.017734 -0.092218 0.076983
v -0.018207 -0.081844 0.097141
v -0.045225 -0.076016 0.089281
v -0.043963 -0.084265 0.070649
v -0.017734 -0.092218 0.076983
v -0.045225 -0.076016 0.089281
v -0.018207 -0.081844 0.097141
v -0.017734 -0.092218 0.076983
v -0.000142 -0.093211 0.078790
v -0.017734 -0.092218 0.076983
v -0.000142 -0.099101 0.056763
v -0.000142 -0.093211 0.078790
v -0.000142 -0.099101 0.056763
v -0.017734 -0.092218 0.076983
v -0.000142 -0.100649 0.033997
v -0.017734 -0.092218 0.076983
v -0.043963 -0.084265 0.070649
v -0.000142 -0.100649 0.033997
v -0.055498 -0.077464 0.036552
v -0.067238 -0.060046 0.057721
v -0.063239 -0.066895 0.024484
v -0.067238 -0.060046 0.057721
v -0.055498 -0.077464 0.036552
v -0.043963 -0.084265 0.070649
v -0.054753 -0.072491 -0.011651
v -0.055498 -0.077464 0.036552
v -0.063239 -0.066895 0.024484
v -0.055498 -0.077464 0.036552
v -0.054753 -0.072491 -0.011651
v -0.000142 -0.100649 0.033997
v -0.043963 -0.084265 0.070649
v -0.055498 -0.077464 0.036552
v -0.000142 -0.100649 0.033997
v -0.068547 -0.056405 0.020178
v -0.075292 -0.043744 0.053714
v -0.077788 -0.033399 0.038148
v -0.067238 -0.060046 0.057721
v -0.075292 -0.043744 0.053714
v -0.068547 -0.056405 0.020178
v -0.075292 -0.043744 0.053714
v -0.072075 -0.039915 0.082894
v -0.079226 -0.028011 0.068153
v -0.072075 -0.039915 0.082894
v -0.075292 -0.043744 0.053714
v -0.067238 -0.060046 0.057721
v -0.060827 -0.052328 0.094514
v -0.072075 -0.039915 0.082894
v -0.058967 -0.064326 0.080692
v -0.072075 -0.039915 0.082894
v -0.060827 -0.052328 0.094514
v -0.062572 -0.037062 0.104665
v -0.060827 -0.052328 0.094514
v -0.058967 -0.064326 0.080692
v -0.047210 -0.064852 0.102196
v -0.047942 -0.052148 0.113077
v -0.060827 -0.052328 0.094514
v -0.047210 -0.064852 0.102196
v -0.060827 -0.052328 0.094514
v -0.047942 -0.052148 0.113077
v -0.062572 -0.037062 0.104665
v -0.084767 0.015030 0.044395
v -0.083991 -0.009981 0.055347
v -0.085504 0.015041 0.063546
v -0.081014 -0.014278 0.036378
v -0.083991 -0.009981 0.055347
v -0.084767 0.015030 0.044395
v -0.083991 -0.009981 0.055347
v -0.082260 -0.008527 0.076389
v -0.085504 0.015041 0.063546
v -0.082260 -0.008527 0.076389
v -0.083991 -0.009981 0.055347
v -0.079226 -0.028011 0.068153
v -0.083991 -0.009981 0.055347
v -0.081014 -0.014278 0.036378
v -0.077788 -0.033399 0.038148
v -0.075292 -0.043744 0.053714
v -0.083991 -0.009981 0.055347
v -0.077788 -0.033399 0.038148
v -0.083991 -0.009981 0.055347
v -0.075292 -0.043744 0.053714
v -0.079226 -0.028011 0.068153
v 0.060543 -0.052328 0.094514
v 0.058683 -0.064326 0.080692
v 0.071792 -0.039915 0.082894
v 0.060543 -0.052328 0.094514
v 0.046928 -0.064843 0.102206
v 0.058683 -0.064326 0.080692
v 0.060543 -0.052328 0.094514
v 0.047658 -0.052159 0.113070
v 0.046928 -0.064843 0.102206
v 0.076565 0.015034 0.098170
v 0.075063 -0.011148 0.095790
v 0.081857 -0.008847 0.076652
v 0.064041 -0.012850 0.113019
v 0.075063 -0.011148 0.095790
v 0.076565 0.015034 0.098170
v 0.075063 -0.011148 0.095790
v 0.071792 -0.039915 0.082894
v 0.081857 -0.008847 0.076652
v 0.062288 -0.037062 0.104665
v 0.075063 -0.011148 0.095790
v 0.064041 -0.012850 0.113019
v 0.060543 -0.052328 0.094514
v 0.062288 -0.037062 0.104665
v 0.047658 -0.052159 0.113070
v 0.062288 -0.037062 0.104665
v 0.060543 -0.052328 0.094514
v 0.071792 -0.039915 0.082894
v 0.075063 -0.011148 0.095790
v 0.062288 -0.037062 0.104665
v 0.071792 -0.039915 0.082894
v 0.047658 -0.052159 0.113070
v 0.062288 -0.037062 0.104665
v 0.048610 -0.034525 0.121745
v 0.062288 -0.037062 0.104665
v 0.064041 -0.012850 0.113019
v 0.048610 -0.034525 0.121745
vn 0.6416 0.6758 -0.3628
vn -0.0000 -0.0314 -0.9995
vn 0.9435 -0.3220 -0.0788
vn 0.8906 -0.4547 -0.0134
vn 0.5959 0.7094 -0.3764
vn -0.0000 0.3529 -0.9357
vn 0.0168 0.9513 -0.3078
vn 0.0041 1.0000 -0.0026
vn -0.0000 1.0000 0.0006
vn -0.0002 1.0000 0.0005
vn -0.0004 1.0000 0.0004
vn -0.0011 1.0000 -0.0004
vn -0.0020 1.0000 -0.0006
vn -0.8199 0.4778 -0.3155
vn -0.5945 0.7091 -0.3792
vn -0.0456 -0.2217 -0.9741
vn 0.9458 0.1903 -0.2632
vn 0.9658 0.0953 -0.2411
vn 0.0021 1.0000 -0.0004
vn 0.0024 1.0000 -0.0008
vn 0.9910 -0.1190 0.0610
vn 0.9938 -0.0807 -0.0759
vn 0.9699 -0.2275 -0.0869
vn 0.9878 -0.0925 -0.1250
vn 0.7595 -0.6458 -0.0784
vn 0.8175 -0.5756 0.0203
vn 0.7475 -0.6529 0.1227
vn 0.4655 -0.8848 -0.0190
vn 0.3463 -0.9250 -0.1563
vn 0.4315 -0.8966 -0.0992
vn 0.3492 -0.8653 0.3595
vn 0.3329 -0.9145 0.2301
vn -0.9142 -0.0579 0.4012
vn -0.0006 1.0000 0.0002
vn -0.0665 0.0297 0.9973
vn -0.4389 -0.1604 0.8841
vn -0.4717 -0.0675 0.8792
vn -0.4251 -0.0023 0.9052
vn -0.2373 -0.0612 0.9695
vn 0.0078 0.9999 -0.0079
vn 0.1226 0.9518 -0.2811
vn 0.2721 0.9093 -0.3149
vn 0.2219 0.9140 -0.3397
vn -0.4117 0.8471 -0.3360
vn -0.0013 1.0000 -0.0011
vn -0.0011 1.0000 -0.0005
vn -0.0000 0.4510 -0.8925
vn -0.0000 0.9318 -0.3629
vn -0.1057 0.9661 -0.2355
vn -0.2224 0.9145 -0.3379
vn -0.7256 -0.5718 0.3827
vn -0.0000 -0.5423 -0.8402
vn 0.8172 -0.5669 -0.1041
vn 0.8731 -0.4795 -0.0888
vn 0.9179 -0.3856 -0.0933
vn -0.0000 -0.8511 -0.5250
vn -0.8172 -0.5669 -0.1041
vn -0.0000 -0.8219 -0.5696
vn -0.8736 -0.4785 -0.0887
vn -0.9692 0.0725 -0.2355
vn -0.7592 -0.1716 -0.6278
vn 0.9630 -0.2660 -0.0429
vn 0.9415 -0.3307 -0.0647
vn 0.8943 -0.4472 -0.0126
vn 0.9008 -0.4068 0.1522
vn 0.3979 -0.3752 0.8372
vn 0.0932 -0.9934 0.0675
vn 0.0808 -0.9629 0.2575
vn 0.1042 -0.9657 0.2380
vn 0.0966 -0.8859 0.4537
vn 0.3081 -0.8488 0.4296
vn 0.3277 -0.7575 0.5646
vn 0.8516 -0.4769 0.2178
vn 0.7122 -0.6585 0.2433
vn 0.7518 -0.6418 0.1511
vn -0.0442 -0.2052 0.9777
vn -0.0504 0.0093 0.9987
vn 0.9713 0.0011 0.2377
vn 0.0010 1.0000 0.0003
vn 0.0007 1.0000 0.0005
vn 0.2108 -0.0730 0.9748
vn 0.5231 -0.1943 0.8298
vn 0.4576 -0.1506 0.8763
vn 0.0002 1.0000 0.0006
vn 0.0005 1.0000 0.0005
vn 0.3536 0.0521 0.9340
vn 0.6519 -0.0511 0.7566
vn 0.4614 -0.0738 0.8841
vn -0.8288 -0.2344 0.5080
vn -0.8424 -0.0965 0.5301
vn -0.6910 -0.0819 0.7182
vn -0.7556 -0.0199 0.6547
vn -0.5023 -0.2278 0.8341
vn -0.6806 -0.2019 0.7043
vn -0.7319 -0.2689 0.6261
vn -0.3978 -0.3752 0.8372
vn -0.7122 -0.6585 0.2433
vn -0.7518 -0.6418 0.1511
vn -0.8900 -0.4558 -0.0132
vn -0.8646 -0.2839 0.4146
vn -0.8515 -0.4769 0.2178
vn -0.9838 -0.0400 0.1750
vn -0.9419 -0.0965 0.3218
vn -0.9246 -0.2384 0.2973
vn -0.9349 -0.2515 0.2505
vn -0.9849 -0.0849 -0.1506
vn -0.8726 -0.1935 -0.4484
vn -0.9455 -0.3150 -0.0830
vn -0.9232 -0.3728 -0.0935
vn -0.9778 -0.1756 -0.1147
vn -0.9825 -0.1193 -0.1428
vn 0.9348 -0.2528 0.2494
vn 0.9181 -0.3675 0.1486
vn 0.9794 -0.1848 0.0808
vn 0.9646 -0.2629 0.0217
vn -0.3194 -0.3527 0.8795
vn -0.0980 -0.2349 0.9671
vn -0.3233 -0.2201 0.9203
vn -0.2348 -0.1877 0.9538
vn -0.1282 -0.5471 0.8272
vn -0.0917 -0.4072 0.9087
vn -0.1324 -0.4399 0.8882
vn 0.3195 -0.3527 0.8795
vn 0.3233 -0.2206 0.9202
vn 0.0917 -0.4072 0.9087
vn 0.1324 -0.4399 0.8883
vn 0.0978 -0.2437 0.9649
vn 0.2067 -0.1777 0.9621
vn 0.3791 -0.7281 0.5711
vn 0.7257 -0.5718 0.3828
vn 0.4208 -0.4186 0.8048
vn 0.3574 -0.5494 0.7553
vn 0.4408 -0.5984 0.6690
vn 0.2588 -0.7310 0.6314
vn 0.2832 -0.5849 0.7600
vn 0.0586 -0.5928 0.8032
vn 0.1284 -0.5421 0.8304
vn 0.8151 -0.0592 0.5763
vn 0.6633 -0.1798 0.7264
vn 0.6946 -0.0958 0.7130
vn -0.7080 -0.3421 0.6178
vn -0.4208 -0.4186 0.8048
vn -0.1654 -0.7222 0.6716
vn -0.1841 -0.5921 0.7846
vn -0.3676 -0.7308 0.5752
vn -0.3273 -0.7597 0.5619
vn -0.4133 -0.6060 0.6797
vn -0.3568 -0.5503 0.7548
vn 0.0745 -0.8789 0.4711
vn -0.0745 -0.8789 0.4711
vn -0.0875 -0.7558 0.6489
vn 0.0533 -0.7324 0.6788
vn 0.0879 -0.7503 0.6552
vn -0.3081 -0.8488 0.4296
vn -0.3492 -0.8654 0.3595
vn -0.0966 -0.8859 0.4537
vn -0.0808 -0.9629 0.2575
vn -0.2982 -0.9523 0.0648
vn -0.3034 -0.9508 0.0623
vn -0.8175 -0.5756 0.0203
vn -0.7475 -0.6529 0.1227
vn -0.7595 -0.6458 -0.0784
vn -0.3883 -0.9160 -0.1005
vn -0.3878 -0.9202 -0.0523
vn -0.9427 -0.3270 -0.0661
vn -0.8953 -0.4453 -0.0120
vn -0.9183 -0.3667 0.1493
vn -0.9004 -0.4073 0.1527
vn -0.8294 -0.4723 0.2984
vn -0.8330 -0.3692 0.4120
vn -0.7329 -0.5595 0.3870
vn -0.7211 -0.4742 0.5051
vn -0.7401 -0.4290 0.5179
vn -0.9981 -0.0478 -0.0384
vn -0.9868 -0.0896 -0.1346
vn -0.9922 -0.0887 0.0877
vn -0.9770 -0.1917 0.0936
vn -0.9779 -0.1755 -0.1137
vn -0.9684 -0.2490 -0.0102
vn -0.9682 -0.2499 0.0085
vn 0.8294 -0.4723 0.2984
vn 0.7329 -0.5595 0.3870
vn 0.7212 -0.4742 0.5051
vn 0.9422 -0.0836 0.3245
vn 0.8428 -0.0965 0.5296
vn 0.9237 -0.2392 0.2992
vn 0.8292 -0.2350 0.5072
vn 0.7402 -0.4290 0.5179
vn 0.8330 -0.3692 0.4120
vn 0.8645 -0.2841 0.4146
vn 0.7080 -0.3421 0.6178
vn 0.7319 -0.2690 0.6261
s 1
usemtl material_0
f 1//1 2//1 3//1
f 4//2 5//2 6//2
f 7//3 8//3 9//3
f 10//4 11//4 12//4
f 13//5 14//5 15//5
f 16//6 17//6 18//6
f 19//7 20//7 21//7
f 22//8 23//8 24//8
f 25//9 26//9 27//9
f 28//10 29//10 30//10
f 31//11 32//11 33//11
f 34//12 35//12 36//12
f 37//13 38//13 39//13
f 40//14 41//14 42//14
f 43//15 44//15 45//15
f 46//6 47//6 48//6
f 49//16 50//16 51//16
f 52//17 53//17 54//17
f 55//18 56//18 57//18
f 58//19 59//19 60//19
f 61//20 62//20 63//20
f 64//21 65//21 66//21
f 67//22 68//22 69//22
f 70//23 71//23 72//23
f 73//24 74//24 75//24
f 76//25 77//25 78//25
f 79//26 80//26 81//26
f 82//27 83//27 84//27
f 85//28 86//28 87//28
f 88//29 89//29 90//29
f 91//30 92//30 93//30
f 94//31 95//31 96//31
f 97//32 98//32 99//32
f 100//33 101//33 102//33
f 103//34 104//34 105//34
f 106//34 107//34 108//34
f 109//35 110//35 111//35
f 112//36 113//36 114//36
f 115//37 116//37 117//37
f 118//38 119//38 120//38
f 121//39 122//39 123//39
f 124//40 125//40 126//40
f 127//41 128//41 129//41
f 130//42 131//42 132//42
f 133//43 134//43 135//43
f 136//44 137//44 138//44
f 139//45 140//45 141//45
f 142//46 143//46 144//46
f 145//47 146//47 147//47
f 148//47 149//47 150//47
f 151//48 152//48 153//48
f 154//49 155//49 156//49
f 157//50 158//50 159//50
f 160//51 161//51 162//51
f 163//52 164//52 165//52
f 166//53 167//53 168//53
f 169//54 170//54 171//54
f 172//55 173//55 174//55
f 175//56 176//56 177//56
f 178//57 179//57 180//57
f 181//58 182//58 183//58
f 184//58 185//58 186//58
f 187//59 188//59 189//59
f 190//60 191//60 192//60
f 193//61 194//61 195//61
f 196//62 197//62 198//62
f 199//63 200//63 201//63
f 202//64 203//64 204//64
f 205//65 206//65 207//65
f 208//66 209//66 210//66
f 211//67 212//67 213//67
f 214//68 215//68 216//68
f 217//69 218//69 219//69
f 220//70 221//70 222//70
f 223//71 224//71 225//71
f 226//72 227//72 228//72
f 229//73 230//73 231//73
f 232//74 233//74 234//74
f 235//75 236//75 237//75
f 238//76 239//76 240//76
f 241//77 242//77 243//77
f 244//78 245//78 246//78
f 247//79 248//79 249//79
f 250//80 251//80 252//80
f 253//81 254//81 255//81
f 256//82 257//82 258//82
f 259//83 260//83 261//83
f 262//84 263//84 264//84
f 265//85 266//85 267//85
f 268//86 269//86 270//86
f 271//87 272//87 273//87
f 274//88 275//88 276//88
f 277//89 278//89 279//89
f 280//90 281//90 282//90
f 283//91 284//91 285//91
f 286//92 287//92 288//92
f 289//93 290//93 291//93
f 292//94 293//94 294//94
f 295//95 296//95 297//95
f 298//96 299//96 300//96
f 301//97 302//97 303//97
f 304//98 305//98 306//98
f 307//99 308//99 309//99
f 310//100 311//100 312//100
f 313//101 314//101 315//101
f 316//102 317//102 318//102
f 319//103 320//103 321//103
f 322//104 323//104 324//104
f 325//105 326//105 327//105
f 328//106 329//106 330//106
f 331//107 332//107 333//107
f 334//108 335//108 336//108
f 337//109 338//109 339//109
f 340//110 341//110 342//110
f 343//111 344//111 345//111
f 346//112 347//112 348//112
f 349//113 350//113 351//113
f 352//114 353//114 354//114
f 355//115 356//115 357//115
f 358//116 359//116 360//116
f 361//117 362//117 363//117
f 364//118 365//118 366//118
f 367//119 368//119 369//119
f 370//120 371//120 372//120
f 373//121 374//121 375//121
f 376//122 377//122 378//122
f 379//123 380//123 381//123
f 382//124 383//124 384//124
f 385//125 386//125 387//125
f 388//126 389//126 390//126
f 391//127 392//127 393//127
f 394//128 395//128 396//128
f 397//129 398//129 399//129
f 400//130 401//130 402//130
f 403//131 404//131 405//131
f 406//132 407//132 408//132
f 409//133 410//133 411//133
f 412//134 413//134 414//134
f 415//135 416//135 417//135
f 418//136 419//136 420//136
f 421//137 422//137 423//137
f 424//138 425//138 426//138
f 427//139 428//139 429//139
f 430//140 431//140 432//140
f 433//141 434//141 435//141
f 436//142 437//142 438//142
f 439//143 440//143 441//143
f 442//144 443//144 444//144
f 445//145 446//145 447//145
f 448//146 449//146 450//146
f 451//147 452//147 453//147
f 454//148 455//148 456//148
f 457//149 458//149 459//149
f 460//150 461//150 462//150
f 463//151 464//151 465//151
f 466//152 467//152 468//152
f 469//153 470//153 471//153
f 472//154 473//154 474//154
f 475//155 476//155 477//155
f 478//156 479//156 480//156
f 481//157 482//157 483//157
f 484//158 485//158 486//158
f 487//159 488//159 489//159
f 490//160 491//160 492//160
f 493//161 494//161 495//161
f 496//162 497//162 498//162
f 499//163 500//163 501//163
f 502//164 503//164 504//164
f 505//165 506//165 507//165
f 508//166 509//166 510//166
f 511//167 512//167 513//167
f 514//168 515//168 516//168
f 517//169 518//169 519//169
f 520//170 521//170 522//170
f 523//171 524//171 525//171
f 526//172 527//172 528//172
f 529//173 530//173 531//173
f 532//174 533//174 534//174
f 535//175 536//175 537//175
f 538//176 539//176 540//176
f 541//177 542//177 543//177
f 544//178 545//178 546//178
f 547//179 548//179 549//179
f 550//180 551//180 552//180
f 553//181 554//181 555//181
f 556//182 557//182 558//182
f 559//183 560//183 561//183
f 562//184 563//184 564//184
f 565//185 566//185 567//185
f 568//186 569//186 570//186
f 571//187 572//187 573//187
f 574//188 575//188 576//188
f 577//189 578//189 579//189
f 580//190 581//190 582//190
f 583//191 584//191 585//191
f 586//192 587//192 588//192
