# Blender 4.5.10 LTS
# www.blender.org
mtllib iiwa_robot_base_coll_3.mtl
o node
v -0.064938 0.098276 -0.077191
v -0.056625 0.082828 -0.066631
v -0.046546 0.074279 -0.076670
v -0.064938 0.098276 -0.077191
v -0.072753 0.072546 -0.078663
v -0.075910 0.063686 -0.066788
v -0.072753 0.072546 -0.078663
v -0.070668 0.057314 -0.078687
v -0.075910 0.063686 -0.066788
v -0.058584 0.066398 -0.067315
v -0.070668 0.057314 -0.078687
v -0.046546 0.074279 -0.076670
v -0.067093 0.081256 -0.065592
v -0.064938 0.098276 -0.077191
v -0.075910 0.063686 -0.066788
v -0.067093 0.081256 -0.065592
v -0.056625 0.082828 -0.066631
v -0.064938 0.098276 -0.077191
v -0.069552 0.081867 -0.078663
v -0.072753 0.072546 -0.078663
v -0.064938 0.098276 -0.077191
v -0.072753 0.072546 -0.078663
v -0.069552 0.081867 -0.078663
v -0.070668 0.057314 -0.078687
v -0.056625 0.082828 -0.066631
v -0.054721 0.074387 -0.065308
v -0.046546 0.074279 -0.076670
v -0.054721 0.074387 -0.065308
v -0.058584 0.066398 -0.067315
v -0.046546 0.074279 -0.076670
v -0.067093 0.081256 -0.065592
v -0.054721 0.074387 -0.065308
v -0.056625 0.082828 -0.066631
v -0.070668 0.057314 -0.078687
v -0.067130 0.062121 -0.066564
v -0.075910 0.063686 -0.066788
v -0.058584 0.066398 -0.067315
v -0.067130 0.062121 -0.066564
v -0.070668 0.057314 -0.078687
v -0.054721 0.074387 -0.065308
v -0.067130 0.062121 -0.066564
v -0.058584 0.066398 -0.067315
v -0.070668 0.057314 -0.078687
v -0.049699 0.077082 -0.078712
v -0.046546 0.074279 -0.076670
v -0.069552 0.081867 -0.078663
v -0.049699 0.077082 -0.078712
v -0.070668 0.057314 -0.078687
v -0.049699 0.077082 -0.078712
v -0.064938 0.098276 -0.077191
v -0.046546 0.074279 -0.076670
v -0.049699 0.077082 -0.078712
v -0.069552 0.081867 -0.078663
v -0.064938 0.098276 -0.077191
v -0.071078 0.069707 -0.065233
v -0.067093 0.081256 -0.065592
v -0.075910 0.063686 -0.066788
v -0.071078 0.069707 -0.065233
v -0.054721 0.074387 -0.065308
v -0.067093 0.081256 -0.065592
v -0.067130 0.062121 -0.066564
v -0.071078 0.069707 -0.065233
v -0.075910 0.063686 -0.066788
v -0.071078 0.069707 -0.065233
v -0.067130 0.062121 -0.066564
v -0.054721 0.074387 -0.065308
vn 0.7629 0.5905 0.2632
vn -0.9556 0.2923 -0.0360
vn -0.9310 -0.1268 -0.3422
vn 0.5721 -0.8189 0.0463
vn -0.8249 0.3859 0.4130
vn -0.0026 0.5634 0.8262
vn -0.7911 0.2716 -0.5481
vn -0.0034 0.0012 -1.0000
vn 0.7839 0.2648 0.5615
vn 0.7124 -0.4744 0.5171
vn 0.0719 0.1703 0.9828
vn -0.1704 -0.8979 0.4058
vn 0.4522 -0.8665 0.2116
vn 0.2541 -0.3494 0.9019
vn 0.2993 -0.3186 -0.8994
vn -0.0022 0.0011 -1.0000
vn 0.7396 0.5587 -0.3754
vn 0.0179 0.0843 -0.9963
vn -0.5230 0.2062 0.8270
vn -0.0048 0.0327 0.9995
vn -0.0611 -0.2032 0.9772
vn 0.0471 -0.1488 0.9877
s 1
usemtl material_0
f 1//1 2//1 3//1
f 4//2 5//2 6//2
f 7//3 8//3 9//3
f 10//4 11//4 12//4
f 13//5 14//5 15//5
f 16//6 17//6 18//6
f 19//7 20//7 21//7
f 22//8 23//8 24//8
f 25//9 26//9 27//9
f 28//10 29//10 30//10
f 31//11 32//11 33//11
f 34//12 35//12 36//12
f 37//13 38//13 39//13
f 40//14 41//14 42//14
f 43//15 44//15 45//15
f 46//16 47//16 48//16
f 49//17 50//17 51//17
f 52//18 53//18 54//18
f 55//19 56//19 57//19
f 58//20 59//20 60//20
f 61//21 62//21 63//21
f 64//22 65//22 66//22
