# Blender 4.5.10 LTS
# www.blender.org
mtllib iiwa_link_7_vis_2.mtl
o node
v 0.046065 0.049119 -0.028805
v 0.050741 0.042081 -0.024216
v 0.051145 0.039544 -0.036741
v 0.051145 0.039544 -0.036741
v 0.058505 0.024635 -0.024935
v 0.058734 0.019028 -0.034708
v 0.046308 0.046621 -0.042216
v 0.039914 0.054437 -0.040040
v 0.039921 0.054731 -0.033571
v 0.046308 0.046621 -0.042216
v 0.039864 0.052294 -0.046903
v 0.039914 0.054437 -0.040040
v 0.039921 0.054731 -0.033571
v 0.046065 0.049119 -0.028805
v 0.046308 0.046621 -0.042216
v 0.046308 0.046621 -0.042216
v 0.051145 0.039544 -0.036741
v 0.051276 0.033333 -0.048239
v 0.039855 0.051836 -0.048367
v 0.046308 0.046621 -0.042216
v 0.046338 0.040137 -0.054616
v 0.045231 0.047744 -0.002989
v 0.039830 0.053132 -0.005737
v 0.039749 0.051425 0.005643
v 0.045231 0.047744 -0.002989
v 0.049525 0.041226 0.000170
v 0.050741 0.042081 -0.024216
v 0.045231 0.047744 -0.002989
v 0.046065 0.049119 -0.028805
v 0.039920 0.055029 -0.018389
v 0.046065 0.049119 -0.028805
v 0.039922 0.054769 -0.032735
v 0.039935 0.055330 -0.020391
v 0.039935 0.055330 -0.020391
v 0.039920 0.055029 -0.018389
v 0.046065 0.049119 -0.028805
v 0.039920 0.055029 -0.018389
v 0.039830 0.053132 -0.005737
v 0.045231 0.047744 -0.002989
v 0.050741 0.042081 -0.024216
v 0.046065 0.049119 -0.028805
v 0.045231 0.047744 -0.002989
v 0.039855 0.051836 -0.048367
v 0.039864 0.052294 -0.046903
v 0.046308 0.046621 -0.042216
v 0.039921 0.054731 -0.033571
v 0.039922 0.054769 -0.032735
v 0.046065 0.049119 -0.028805
v 0.058734 0.019028 -0.034708
v 0.051276 0.033333 -0.048239
v 0.051145 0.039544 -0.036741
v 0.051145 0.039544 -0.036741
v 0.046308 0.046621 -0.042216
v 0.046065 0.049119 -0.028805
v 0.058505 0.024635 -0.024935
v 0.051145 0.039544 -0.036741
v 0.050741 0.042081 -0.024216
v 0.000001 0.061770 0.007575
v 0.021519 0.058611 0.008637
v 0.021652 0.061437 -0.022546
v 0.021519 0.058611 0.008637
v 0.031172 0.054888 0.009923
v 0.031364 0.058699 -0.020757
v 0.000001 0.063807 -0.024026
v 0.021652 0.061437 -0.022546
v 0.021655 0.060525 -0.038185
v 0.000001 0.062566 -0.039815
v 0.021655 0.060525 -0.038185
v 0.021621 0.056996 -0.053435
v 0.031364 0.058699 -0.020757
v 0.039935 0.055330 -0.020391
v 0.039922 0.054769 -0.032735
v 0.031364 0.058699 -0.020757
v 0.039920 0.055029 -0.018389
v 0.039935 0.055330 -0.020391
v 0.021655 0.060525 -0.038185
v 0.021652 0.061437 -0.022546
v 0.031364 0.058699 -0.020757
v 0.031364 0.058699 -0.020757
v 0.039921 0.054731 -0.033571
v 0.021655 0.060525 -0.038185
v 0.031364 0.058699 -0.020757
v 0.031172 0.054888 0.009923
v 0.039830 0.053132 -0.005737
v 0.031172 0.054888 0.009923
v 0.039749 0.051425 0.005643
v 0.039830 0.053132 -0.005737
v 0.021655 0.060525 -0.038185
v 0.039914 0.054437 -0.040040
v 0.039864 0.052294 -0.046903
v 0.039864 0.052294 -0.046903
v 0.021621 0.056996 -0.053435
v 0.021655 0.060525 -0.038185
v 0.021655 0.060525 -0.038185
v 0.039921 0.054731 -0.033571
v 0.039914 0.054437 -0.040040
v 0.039864 0.052294 -0.046903
v 0.039855 0.051836 -0.048367
v 0.021621 0.056996 -0.053435
v 0.039830 0.053132 -0.005737
v 0.039920 0.055029 -0.018389
v 0.031364 0.058699 -0.020757
v 0.039922 0.054769 -0.032735
v 0.039921 0.054731 -0.033571
v 0.031364 0.058699 -0.020757
v 0.021655 0.060525 -0.038185
v 0.000001 0.062566 -0.039815
v 0.000001 0.063807 -0.024026
v 0.031364 0.058699 -0.020757
v 0.021652 0.061437 -0.022546
v 0.021519 0.058611 0.008637
v 0.050976 0.022548 -0.056205
v 0.051276 0.033333 -0.048239
v 0.058734 0.019028 -0.034708
v 0.050264 0.008889 -0.058610
v 0.050657 0.015891 -0.058084
v 0.058347 0.009675 -0.041472
v 0.044827 -0.001162 -0.063677
v 0.045506 0.014035 -0.065831
v 0.050264 0.008889 -0.058610
v 0.046060 0.028660 -0.063237
v 0.046338 0.040137 -0.054616
v 0.051276 0.033333 -0.048239
v 0.045806 0.021537 -0.065266
v 0.046060 0.028660 -0.063237
v 0.050976 0.022548 -0.056205
v 0.045506 0.014035 -0.065831
v 0.045806 0.021537 -0.065266
v 0.050657 0.015891 -0.058084
v 0.046338 0.040137 -0.054616
v 0.039565 0.038851 -0.066226
v 0.039653 0.042843 -0.063790
v 0.046060 0.028660 -0.063237
v 0.039449 0.033546 -0.069463
v 0.039565 0.038851 -0.066226
v 0.039565 0.038851 -0.066226
v 0.046338 0.040137 -0.054616
v 0.046060 0.028660 -0.063237
v 0.039653 0.042843 -0.063790
v 0.039691 0.044519 -0.061463
v 0.046338 0.040137 -0.054616
v 0.046338 0.040137 -0.054616
v 0.039817 0.050219 -0.053545
v 0.039855 0.051836 -0.048367
v 0.046338 0.040137 -0.054616
v 0.039712 0.045508 -0.060089
v 0.039817 0.050219 -0.053545
v 0.046060 0.028660 -0.063237
v 0.045806 0.021537 -0.065266
v 0.039288 0.026039 -0.071455
v 0.039288 0.026039 -0.071455
v 0.039412 0.031866 -0.070488
v 0.046060 0.028660 -0.063237
v 0.039412 0.031866 -0.070488
v 0.039423 0.032377 -0.070176
v 0.046060 0.028660 -0.063237
v 0.045806 0.021537 -0.065266
v 0.045506 0.014035 -0.065831
v 0.039121 0.018140 -0.072545
v 0.039121 0.018140 -0.072545
v 0.039137 0.018894 -0.072641
v 0.045806 0.021537 -0.065266
v 0.045506 0.014035 -0.065831
v 0.044827 -0.001162 -0.063677
v 0.038812 0.002409 -0.070526
v 0.038812 0.002409 -0.070526
v 0.039109 0.017495 -0.072462
v 0.045506 0.014035 -0.065831
v 0.039109 0.017495 -0.072462
v 0.039121 0.018140 -0.072545
v 0.045506 0.014035 -0.065831
v 0.039137 0.018894 -0.072641
v 0.039288 0.026039 -0.071455
v 0.045806 0.021537 -0.065266
v 0.039423 0.032377 -0.070176
v 0.039449 0.033546 -0.069463
v 0.046060 0.028660 -0.063237
v 0.039691 0.044519 -0.061463
v 0.039712 0.045508 -0.060089
v 0.046338 0.040137 -0.054616
v 0.050657 0.015891 -0.058084
v 0.050264 0.008889 -0.058610
v 0.045506 0.014035 -0.065831
v 0.050976 0.022548 -0.056205
v 0.050657 0.015891 -0.058084
v 0.045806 0.021537 -0.065266
v 0.051276 0.033333 -0.048239
v 0.046338 0.040137 -0.054616
v 0.046308 0.046621 -0.042216
v 0.051276 0.033333 -0.048239
v 0.050976 0.022548 -0.056205
v 0.046060 0.028660 -0.063237
v 0.050657 0.015891 -0.058084
v 0.050976 0.022548 -0.056205
v 0.058347 0.009675 -0.041472
v 0.058734 0.019028 -0.034708
v 0.058347 0.009675 -0.041472
v 0.050976 0.022548 -0.056205
v 0.000001 0.058836 -0.055191
v 0.021621 0.056996 -0.053435
v 0.021541 0.049599 -0.067181
v 0.021541 0.049599 -0.067181
v 0.021621 0.056996 -0.053435
v 0.039817 0.050219 -0.053545
v 0.039817 0.050219 -0.053545
v 0.039712 0.045508 -0.060089
v 0.021541 0.049599 -0.067181
v 0.021621 0.056996 -0.053435
v 0.039855 0.051836 -0.048367
v 0.039817 0.050219 -0.053545
v 0.000002 -0.006589 -0.078283
v 0.000001 0.008602 -0.082723
v 0.021115 0.006912 -0.079548
v 0.000001 0.024370 -0.083704
v 0.000002 0.039502 -0.079373
v 0.010946 0.039001 -0.078772
v 0.000002 0.051438 -0.069134
v 0.021541 0.049599 -0.067181
v 0.021481 0.044126 -0.072765
v 0.000001 0.046022 -0.074900
v 0.021481 0.044126 -0.072765
v 0.010946 0.039001 -0.078772
v 0.021481 0.044126 -0.072765
v 0.021410 0.037558 -0.076994
v 0.010946 0.039001 -0.078772
v 0.021115 0.006912 -0.079548
v 0.000001 0.008602 -0.082723
v 0.010869 0.023885 -0.082976
v 0.000001 0.008602 -0.082723
v 0.000001 0.024370 -0.083704
v 0.010869 0.023885 -0.082976
v 0.010869 0.023885 -0.082976
v 0.010946 0.039001 -0.078772
v 0.021410 0.037558 -0.076994
v 0.038812 0.002409 -0.070526
v 0.020993 -0.008073 -0.075008
v 0.021115 0.006912 -0.079548
v 0.021257 0.022484 -0.080820
v 0.021410 0.037558 -0.076994
v 0.030993 0.035318 -0.074119
v 0.021481 0.044126 -0.072765
v 0.021541 0.049599 -0.067181
v 0.039653 0.042843 -0.063790
v 0.021541 0.049599 -0.067181
v 0.039691 0.044519 -0.061463
v 0.039653 0.042843 -0.063790
v 0.021481 0.044126 -0.072765
v 0.039565 0.038851 -0.066226
v 0.030993 0.035318 -0.074119
v 0.030993 0.035318 -0.074119
v 0.039565 0.038851 -0.066226
v 0.039449 0.033546 -0.069463
v 0.039449 0.033546 -0.069463
v 0.039423 0.032377 -0.070176
v 0.030993 0.035318 -0.074119
v 0.038812 0.002409 -0.070526
v 0.021115 0.006912 -0.079548
v 0.030762 0.020299 -0.077326
v 0.021115 0.006912 -0.079548
v 0.021257 0.022484 -0.080820
v 0.030762 0.020299 -0.077326
v 0.030762 0.020299 -0.077326
v 0.039137 0.018894 -0.072641
v 0.039121 0.018140 -0.072545
v 0.030993 0.035318 -0.074119
v 0.039412 0.031866 -0.070488
v 0.039288 0.026039 -0.071455
v 0.039288 0.026039 -0.071455
v 0.030762 0.020299 -0.077326
v 0.030993 0.035318 -0.074119
v 0.039288 0.026039 -0.071455
v 0.039137 0.018894 -0.072641
v 0.030762 0.020299 -0.077326
v 0.030993 0.035318 -0.074119
v 0.039423 0.032377 -0.070176
v 0.039412 0.031866 -0.070488
v 0.000001 0.046022 -0.074900
v 0.000002 0.039502 -0.079373
v -0.010944 0.039001 -0.078772
v -0.010867 0.023885 -0.082976
v 0.000001 0.008602 -0.082723
v -0.021112 0.006912 -0.079548
v 0.000001 0.024370 -0.083704
v -0.010867 0.023885 -0.082976
v -0.010944 0.039001 -0.078772
v 0.000002 -0.006589 -0.078283
v -0.020991 -0.008073 -0.075008
v -0.021112 0.006912 -0.079548
v -0.021112 0.006912 -0.079548
v 0.000001 0.008602 -0.082723
v 0.000002 -0.006589 -0.078283
v -0.010944 0.039001 -0.078772
v 0.000002 0.039502 -0.079373
v 0.000001 0.024370 -0.083704
v -0.010867 0.023885 -0.082976
v 0.000001 0.024370 -0.083704
v 0.000001 0.008602 -0.082723
v 0.021621 0.056996 -0.053435
v 0.000001 0.058836 -0.055191
v 0.000001 0.062566 -0.039815
v 0.039121 0.018140 -0.072545
v 0.039109 0.017495 -0.072462
v 0.030762 0.020299 -0.077326
v 0.030762 0.020299 -0.077326
v 0.039109 0.017495 -0.072462
v 0.038812 0.002409 -0.070526
v 0.030993 0.035318 -0.074119
v 0.021410 0.037558 -0.076994
v 0.021481 0.044126 -0.072765
v 0.039653 0.042843 -0.063790
v 0.039565 0.038851 -0.066226
v 0.021481 0.044126 -0.072765
v 0.030993 0.035318 -0.074119
v 0.030762 0.020299 -0.077326
v 0.021257 0.022484 -0.080820
v 0.021410 0.037558 -0.076994
v 0.021257 0.022484 -0.080820
v 0.010869 0.023885 -0.082976
v 0.010869 0.023885 -0.082976
v 0.021257 0.022484 -0.080820
v 0.021115 0.006912 -0.079548
v 0.010946 0.039001 -0.078772
v 0.000002 0.039502 -0.079373
v 0.000001 0.046022 -0.074900
v 0.021481 0.044126 -0.072765
v 0.000001 0.046022 -0.074900
v 0.000002 0.051438 -0.069134
v 0.010946 0.039001 -0.078772
v 0.010869 0.023885 -0.082976
v 0.000001 0.024370 -0.083704
v 0.021115 0.006912 -0.079548
v 0.020993 -0.008073 -0.075008
v 0.000002 -0.006589 -0.078283
v 0.039712 0.045508 -0.060089
v 0.039691 0.044519 -0.061463
v 0.021541 0.049599 -0.067181
v 0.021541 0.049599 -0.067181
v 0.000002 0.051438 -0.069134
v 0.000001 0.058836 -0.055191
v -0.039722 0.051014 0.007456
v -0.039838 0.053312 -0.005717
v -0.045230 0.047743 -0.002988
v -0.045230 0.047743 -0.002988
v -0.039838 0.053312 -0.005717
v -0.039914 0.054830 -0.014421
v -0.039914 0.054830 -0.014421
v -0.046065 0.049117 -0.028803
v -0.045230 0.047743 -0.002988
v -0.039914 0.054830 -0.014421
v -0.039919 0.054948 -0.018372
v -0.046065 0.049117 -0.028803
v -0.050741 0.042077 -0.024213
v -0.049525 0.041222 0.000172
v -0.045230 0.047743 -0.002988
v -0.031361 0.058699 -0.020757
v -0.039914 0.054830 -0.014421
v -0.039838 0.053312 -0.005717
v -0.039838 0.053312 -0.005717
v -0.031168 0.054888 0.009923
v -0.031361 0.058699 -0.020757
v -0.039838 0.053312 -0.005717
v -0.039722 0.051014 0.007456
v -0.031168 0.054888 0.009923
v -0.031361 0.058699 -0.020757
v -0.039919 0.054948 -0.018372
v -0.039914 0.054830 -0.014421
v -0.039935 0.055355 -0.032100
v -0.039919 0.054948 -0.018372
v -0.031361 0.058699 -0.020757
v -0.021516 0.058611 0.008637
v -0.021649 0.061437 -0.022546
v -0.031361 0.058699 -0.020757
v 0.000001 0.061770 0.007575
v 0.000001 0.063807 -0.024026
v -0.021649 0.061437 -0.022546
v 0.000001 0.063807 -0.024026
v 0.000001 0.062566 -0.039815
v -0.021653 0.060525 -0.038185
v -0.021653 0.060525 -0.038185
v -0.021649 0.061437 -0.022546
v 0.000001 0.063807 -0.024026
v -0.021649 0.061437 -0.022546
v -0.021516 0.058611 0.008637
v 0.000001 0.061770 0.007575
v -0.031361 0.058699 -0.020757
v -0.031168 0.054888 0.009923
v -0.021516 0.058611 0.008637
v -0.031361 0.058699 -0.020757
v -0.021649 0.061437 -0.022546
v -0.021653 0.060525 -0.038185
v 0.021652 0.061437 -0.022546
v 0.000001 0.063807 -0.024026
v 0.000001 0.061770 0.007575
v -0.050741 0.042077 -0.024213
v -0.051145 0.039540 -0.036737
v -0.058507 0.024627 -0.024929
v -0.046065 0.049117 -0.028803
v -0.046307 0.046620 -0.042214
v -0.051145 0.039540 -0.036737
v -0.050976 0.022544 -0.056201
v -0.058348 0.009667 -0.041464
v -0.058735 0.019020 -0.034700
v -0.051145 0.039540 -0.036737
v -0.051277 0.033330 -0.048235
v -0.058735 0.019020 -0.034700
v -0.058348 0.009667 -0.041464
v -0.050657 0.015888 -0.058080
v -0.050264 0.008886 -0.058606
v -0.058348 0.009667 -0.041464
v -0.050976 0.022544 -0.056201
v -0.050657 0.015888 -0.058080
v -0.046307 0.046620 -0.042214
v -0.046065 0.049117 -0.028803
v -0.039929 0.055103 -0.033569
v -0.046065 0.049117 -0.028803
v -0.039932 0.055244 -0.032748
v -0.039929 0.055103 -0.033569
v -0.046058 0.028659 -0.063235
v -0.050976 0.022544 -0.056201
v -0.051277 0.033330 -0.048235
v -0.046307 0.046620 -0.042214
v -0.046338 0.040135 -0.054614
v -0.051277 0.033330 -0.048235
v -0.045805 0.021535 -0.065264
v -0.050657 0.015888 -0.058080
v -0.050976 0.022544 -0.056201
v -0.045506 0.014033 -0.065829
v -0.050264 0.008886 -0.058606
v -0.050657 0.015888 -0.058080
v -0.046058 0.028659 -0.063235
v -0.039565 0.038968 -0.066542
v -0.039539 0.037768 -0.067684
v -0.046338 0.040135 -0.054614
v -0.039687 0.044473 -0.061305
v -0.039565 0.038968 -0.066542
v -0.039565 0.038968 -0.066542
v -0.046058 0.028659 -0.063235
v -0.046338 0.040135 -0.054614
v -0.046338 0.040135 -0.054614
v -0.039714 0.045695 -0.060142
v -0.039687 0.044473 -0.061305
v -0.046338 0.040135 -0.054614
v -0.046307 0.046620 -0.042214
v -0.039857 0.052090 -0.048414
v -0.039857 0.052090 -0.048414
v -0.039747 0.047196 -0.058714
v -0.046338 0.040135 -0.054614
v -0.046307 0.046620 -0.042214
v -0.039873 0.052817 -0.046882
v -0.039857 0.052090 -0.048414
v -0.046058 0.028659 -0.063235
v -0.039419 0.032221 -0.069668
v -0.039285 0.026083 -0.071864
v -0.046058 0.028659 -0.063235
v -0.039447 0.033528 -0.069201
v -0.039419 0.032221 -0.069668
v -0.045805 0.021535 -0.065264
v -0.039270 0.025379 -0.072116
v -0.039122 0.018133 -0.072037
v -0.045805 0.021535 -0.065264
v -0.039285 0.026083 -0.071864
v -0.039270 0.025379 -0.072116
v -0.045506 0.014033 -0.065829
v -0.038944 0.009445 -0.071943
v -0.038817 0.002559 -0.070000
v -0.045506 0.014033 -0.065829
v -0.039108 0.017479 -0.072030
v -0.038944 0.009445 -0.071943
v -0.038817 0.002559 -0.070000
v -0.044826 -0.001163 -0.063675
v -0.045506 0.014033 -0.065829
v -0.045506 0.014033 -0.065829
v -0.039122 0.018133 -0.072037
v -0.039108 0.017479 -0.072030
v -0.045230 0.047743 -0.002988
v -0.046065 0.049117 -0.028803
v -0.050741 0.042077 -0.024213
v -0.046065 0.049117 -0.028803
v -0.039919 0.054948 -0.018372
v -0.039935 0.055355 -0.032100
v -0.039935 0.055355 -0.032100
v -0.039932 0.055244 -0.032748
v -0.046065 0.049117 -0.028803
v -0.038817 0.002559 -0.070000
v -0.038809 0.002117 -0.069875
v -0.044826 -0.001163 -0.063675
v -0.039122 0.018133 -0.072037
v -0.045506 0.014033 -0.065829
v -0.045805 0.021535 -0.065264
v -0.039285 0.026083 -0.071864
v -0.045805 0.021535 -0.065264
v -0.046058 0.028659 -0.063235
v -0.039747 0.047196 -0.058714
v -0.039714 0.045695 -0.060142
v -0.046338 0.040135 -0.054614
v -0.039539 0.037768 -0.067684
v -0.039447 0.033528 -0.069201
v -0.046058 0.028659 -0.063235
v -0.050657 0.015888 -0.058080
v -0.045805 0.021535 -0.065264
v -0.045506 0.014033 -0.065829
v -0.050976 0.022544 -0.056201
v -0.046058 0.028659 -0.063235
v -0.045805 0.021535 -0.065264
v -0.051277 0.033330 -0.048235
v -0.051145 0.039540 -0.036737
v -0.046307 0.046620 -0.042214
v -0.051277 0.033330 -0.048235
v -0.046338 0.040135 -0.054614
v -0.046058 0.028659 -0.063235
v -0.039929 0.055103 -0.033569
v -0.039873 0.052817 -0.046882
v -0.046307 0.046620 -0.042214
v -0.050264 0.008886 -0.058606
v -0.045506 0.014033 -0.065829
v -0.044826 -0.001163 -0.063675
v -0.058735 0.019020 -0.034700
v -0.058507 0.024627 -0.024929
v -0.051145 0.039540 -0.036737
v -0.058735 0.019020 -0.034700
v -0.051277 0.033330 -0.048235
v -0.050976 0.022544 -0.056201
v -0.051145 0.039540 -0.036737
v -0.050741 0.042077 -0.024213
v -0.046065 0.049117 -0.028803
v -0.021618 0.056996 -0.053436
v -0.021539 0.049599 -0.067181
v -0.039747 0.047196 -0.058714
v -0.021539 0.049599 -0.067181
v -0.039687 0.044473 -0.061305
v -0.039714 0.045695 -0.060142
v -0.039714 0.045695 -0.060142
v -0.039747 0.047196 -0.058714
v -0.021539 0.049599 -0.067181
v -0.021653 0.060525 -0.038185
v -0.039929 0.055103 -0.033569
v -0.031361 0.058699 -0.020757
v -0.031361 0.058699 -0.020757
v -0.039929 0.055103 -0.033569
v -0.039932 0.055244 -0.032748
v -0.039932 0.055244 -0.032748
v -0.039935 0.055355 -0.032100
v -0.031361 0.058699 -0.020757
v -0.021653 0.060525 -0.038185
v -0.021618 0.056996 -0.053436
v -0.039873 0.052817 -0.046882
v -0.021618 0.056996 -0.053436
v -0.039857 0.052090 -0.048414
v -0.039873 0.052817 -0.046882
v 0.000001 0.062566 -0.039815
v 0.000001 0.058836 -0.055191
v -0.021618 0.056996 -0.053436
v -0.038809 0.002117 -0.069875
v -0.021112 0.006912 -0.079548
v -0.020991 -0.008073 -0.075008
v 0.000001 0.058836 -0.055191
v 0.000002 0.051438 -0.069134
v -0.021539 0.049599 -0.067181
v -0.030760 0.020299 -0.077326
v -0.039270 0.025379 -0.072116
v -0.039285 0.026083 -0.071864
v -0.039285 0.026083 -0.071864
v -0.030991 0.035318 -0.074119
v -0.030760 0.020299 -0.077326
v -0.030760 0.020299 -0.077326
v -0.039108 0.017479 -0.072030
v -0.039122 0.018133 -0.072037
v -0.039122 0.018133 -0.072037
v -0.039270 0.025379 -0.072116
v -0.030760 0.020299 -0.077326
v -0.021539 0.049599 -0.067181
v -0.021479 0.044126 -0.072765
v -0.039565 0.038968 -0.066542
v -0.039539 0.037768 -0.067684
v -0.021479 0.044126 -0.072765
v -0.030991 0.035318 -0.074119
v -0.030991 0.035318 -0.074119
v -0.039419 0.032221 -0.069668
v -0.039447 0.033528 -0.069201
v -0.021479 0.044126 -0.072765
v -0.021407 0.037558 -0.076994
v -0.030991 0.035318 -0.074119
v -0.030991 0.035318 -0.074119
v -0.039447 0.033528 -0.069201
v -0.039539 0.037768 -0.067684
v -0.038944 0.009445 -0.071943
v -0.039108 0.017479 -0.072030
v -0.030760 0.020299 -0.077326
v -0.030760 0.020299 -0.077326
v -0.021112 0.006912 -0.079548
v -0.038944 0.009445 -0.071943
v -0.021112 0.006912 -0.079548
v -0.038817 0.002559 -0.070000
v -0.038944 0.009445 -0.071943
v -0.021254 0.022484 -0.080820
v -0.030760 0.020299 -0.077326
v -0.030991 0.035318 -0.074119
v -0.010867 0.023885 -0.082976
v -0.021254 0.022484 -0.080820
v -0.021407 0.037558 -0.076994
v 0.000002 0.051438 -0.069134
v 0.000001 0.046022 -0.074900
v -0.021479 0.044126 -0.072765
v -0.010944 0.039001 -0.078772
v -0.021479 0.044126 -0.072765
v 0.000001 0.046022 -0.074900
v -0.021112 0.006912 -0.079548
v -0.021254 0.022484 -0.080820
v -0.010867 0.023885 -0.082976
v -0.010944 0.039001 -0.078772
v -0.021407 0.037558 -0.076994
v -0.021479 0.044126 -0.072765
v -0.021479 0.044126 -0.072765
v -0.021539 0.049599 -0.067181
v 0.000002 0.051438 -0.069134
v -0.021407 0.037558 -0.076994
v -0.010944 0.039001 -0.078772
v -0.010867 0.023885 -0.082976
v -0.030991 0.035318 -0.074119
v -0.021407 0.037558 -0.076994
v -0.021254 0.022484 -0.080820
v -0.030760 0.020299 -0.077326
v -0.021254 0.022484 -0.080820
v -0.021112 0.006912 -0.079548
v -0.039539 0.037768 -0.067684
v -0.039565 0.038968 -0.066542
v -0.021479 0.044126 -0.072765
v -0.039565 0.038968 -0.066542
v -0.039687 0.044473 -0.061305
v -0.021539 0.049599 -0.067181
v -0.039285 0.026083 -0.071864
v -0.039419 0.032221 -0.069668
v -0.030991 0.035318 -0.074119
v -0.021539 0.049599 -0.067181
v -0.021618 0.056996 -0.053436
v 0.000001 0.058836 -0.055191
v -0.038809 0.002117 -0.069875
v -0.038817 0.002559 -0.070000
v -0.021112 0.006912 -0.079548
v -0.021618 0.056996 -0.053436
v -0.021653 0.060525 -0.038185
v 0.000001 0.062566 -0.039815
v -0.039873 0.052817 -0.046882
v -0.039929 0.055103 -0.033569
v -0.021653 0.060525 -0.038185
v -0.039747 0.047196 -0.058714
v -0.039857 0.052090 -0.048414
v -0.021618 0.056996 -0.053436
v 0.050741 0.042081 -0.024216
v 0.057904 0.027202 -0.014170
v 0.058505 0.024635 -0.024935
v 0.048048 0.037114 0.022090
v 0.054178 0.024591 0.026898
v 0.056182 0.027334 0.007213
v 0.048048 0.037114 0.022090
v 0.049525 0.041226 0.000170
v 0.039615 0.049790 0.011582
v 0.039615 0.049790 0.011582
v 0.049525 0.041226 0.000170
v 0.045231 0.047744 -0.002989
v 0.039749 0.051425 0.005643
v 0.039615 0.049790 0.011582
v 0.045231 0.047744 -0.002989
v 0.049525 0.041226 0.000170
v 0.056182 0.027334 0.007213
v 0.057904 0.027202 -0.014170
v 0.056182 0.027334 0.007213
v 0.060513 0.012762 0.015022
v 0.062770 0.011857 -0.003210
v 0.057904 0.027202 -0.014170
v 0.062770 0.011857 -0.003210
v 0.063537 0.009397 -0.012241
v 0.058505 0.024635 -0.024935
v 0.063537 0.009397 -0.012241
v 0.063803 0.004532 -0.020382
v 0.046201 0.031333 0.045401
v 0.038955 0.041697 0.040967
v 0.038943 0.041559 0.041469
v 0.048048 0.037114 0.022090
v 0.039474 0.048055 0.017880
v 0.038955 0.041697 0.040967
v 0.038955 0.041697 0.040967
v 0.046201 0.031333 0.045401
v 0.048048 0.037114 0.022090
v 0.048048 0.037114 0.022090
v 0.047727 0.029793 0.043496
v 0.053242 0.023023 0.035065
v 0.048048 0.037114 0.022090
v 0.046338 0.031212 0.045253
v 0.047727 0.029793 0.043496
v 0.048048 0.037114 0.022090
v 0.046201 0.031333 0.045401
v 0.046338 0.031212 0.045253
v 0.054178 0.024591 0.026898
v 0.053242 0.023023 0.035065
v 0.053456 0.022761 0.034738
v 0.053456 0.022761 0.034738
v 0.054775 0.020793 0.032275
v 0.054178 0.024591 0.026898
v 0.059556 0.012143 0.021408
v 0.056182 0.027334 0.007213
v 0.054178 0.024591 0.026898
v 0.054178 0.024591 0.026898
v 0.056047 0.018492 0.029385
v 0.059556 0.012143 0.021408
v 0.060513 0.012762 0.015022
v 0.059556 0.012143 0.021408
v 0.060330 0.010742 0.019647
v 0.064527 0.000474 0.006684
v 0.062770 0.011857 -0.003210
v 0.060513 0.012762 0.015022
v 0.060513 0.012762 0.015022
v 0.061102 0.008854 0.017263
v 0.064527 0.000474 0.006684
v 0.065786 -0.004747 0.000055
v 0.063537 0.009397 -0.012241
v 0.062770 0.011857 -0.003210
v 0.066042 -0.009387 -0.005874
v 0.063803 0.004532 -0.020382
v 0.063537 0.009397 -0.012241
v 0.063803 0.004532 -0.020382
v 0.066076 -0.010007 -0.006666
v 0.065314 -0.014371 -0.012284
v 0.063803 0.004532 -0.020382
v 0.066042 -0.009387 -0.005874
v 0.066076 -0.010007 -0.006666
v 0.063537 0.009397 -0.012241
v 0.065786 -0.004747 0.000055
v 0.066042 -0.009387 -0.005874
v 0.062770 0.011857 -0.003210
v 0.064677 -0.000149 0.005893
v 0.065786 -0.004747 0.000055
v 0.064527 0.000474 0.006684
v 0.064677 -0.000149 0.005893
v 0.062770 0.011857 -0.003210
v 0.060330 0.010742 0.019647
v 0.061102 0.008854 0.017263
v 0.060513 0.012762 0.015022
v 0.059556 0.012143 0.021408
v 0.060513 0.012762 0.015022
v 0.056182 0.027334 0.007213
v 0.054775 0.020793 0.032275
v 0.056047 0.018492 0.029385
v 0.054178 0.024591 0.026898
v 0.053242 0.023023 0.035065
v 0.054178 0.024591 0.026898
v 0.048048 0.037114 0.022090
v 0.038943 0.041559 0.041469
v 0.038570 0.038041 0.053663
v 0.046201 0.031333 0.045401
v 0.063803 0.004532 -0.020382
v 0.058734 0.019028 -0.034708
v 0.058505 0.024635 -0.024935
v 0.063537 0.009397 -0.012241
v 0.058505 0.024635 -0.024935
v 0.057904 0.027202 -0.014170
v 0.062770 0.011857 -0.003210
v 0.057904 0.027202 -0.014170
v 0.056182 0.027334 0.007213
v 0.057904 0.027202 -0.014170
v 0.050741 0.042081 -0.024216
v 0.049525 0.041226 0.000170
v 0.039615 0.049790 0.011582
v 0.039474 0.048055 0.017880
v 0.048048 0.037114 0.022090
v 0.056182 0.027334 0.007213
v 0.049525 0.041226 0.000170
v 0.048048 0.037114 0.022090
v 0.021176 0.052575 0.039384
v 0.030663 0.047908 0.040064
v 0.031172 0.054888 0.009923
v 0.030663 0.047908 0.040064
v 0.038955 0.041697 0.040967
v 0.039474 0.048055 0.017880
v 0.039474 0.048055 0.017880
v 0.031172 0.054888 0.009923
v 0.030663 0.047908 0.040064
v 0.031172 0.054888 0.009923
v 0.039615 0.049790 0.011582
v 0.039749 0.051425 0.005643
v 0.038943 0.041559 0.041469
v 0.038955 0.041697 0.040967
v 0.030663 0.047908 0.040064
v 0.021176 0.052575 0.039384
v 0.031355 0.042519 0.059088
v 0.038570 0.038041 0.053663
v 0.022998 0.046383 0.063678
v 0.031355 0.042519 0.059088
v 0.021176 0.052575 0.039384
v 0.038570 0.038041 0.053663
v 0.038943 0.041559 0.041469
v 0.021176 0.052575 0.039384
v 0.030663 0.047908 0.040064
v 0.021176 0.052575 0.039384
v 0.038943 0.041559 0.041469
v 0.039474 0.048055 0.017880
v 0.039615 0.049790 0.011582
v 0.031172 0.054888 0.009923
v 0.031172 0.054888 0.009923
v 0.021519 0.058611 0.008637
v 0.021176 0.052575 0.039384
v 0.049343 -0.005300 -0.056622
v 0.050264 0.008889 -0.058610
v 0.057345 -0.002004 -0.043594
v 0.058347 0.009675 -0.041472
v 0.057345 -0.002004 -0.043594
v 0.050264 0.008889 -0.058610
v 0.048312 -0.019222 -0.051870
v 0.049343 -0.005300 -0.056622
v 0.056024 -0.014108 -0.042015
v 0.043301 -0.030405 -0.051313
v 0.044086 -0.016057 -0.058546
v 0.048312 -0.019222 -0.051870
v 0.044086 -0.016057 -0.058546
v 0.044827 -0.001162 -0.063677
v 0.049343 -0.005300 -0.056622
v 0.044086 -0.016057 -0.058546
v 0.038353 -0.025446 -0.058583
v 0.038456 -0.017819 -0.063186
v 0.043301 -0.030405 -0.051313
v 0.038309 -0.028567 -0.056700
v 0.038353 -0.025446 -0.058583
v 0.038353 -0.025446 -0.058583
v 0.044086 -0.016057 -0.058546
v 0.043301 -0.030405 -0.051313
v 0.044827 -0.001162 -0.063677
v 0.044086 -0.016057 -0.058546
v 0.038560 -0.011900 -0.065339
v 0.044086 -0.016057 -0.058546
v 0.038528 -0.013692 -0.064687
v 0.038560 -0.011900 -0.065339
v 0.058347 0.009675 -0.041472
v 0.058734 0.019028 -0.034708
v 0.063803 0.004532 -0.020382
v 0.057345 -0.002004 -0.043594
v 0.058347 0.009675 -0.041472
v 0.063290 -0.003272 -0.026064
v 0.056024 -0.014108 -0.042015
v 0.057345 -0.002004 -0.043594
v 0.062004 -0.012881 -0.028001
v 0.065165 -0.015220 -0.013377
v 0.063455 -0.019252 -0.018611
v 0.062004 -0.012881 -0.028001
v 0.063290 -0.003272 -0.026064
v 0.065314 -0.014371 -0.012284
v 0.065165 -0.015220 -0.013377
v 0.063024 -0.020269 -0.019930
v 0.060590 -0.024055 -0.024879
v 0.060308 -0.022821 -0.026909
v 0.062004 -0.012881 -0.028001
v 0.063455 -0.019252 -0.018611
v 0.063024 -0.020269 -0.019930
v 0.060308 -0.022821 -0.026909
v 0.060590 -0.024055 -0.024879
v 0.059920 -0.025099 -0.026245
v 0.060308 -0.022821 -0.026909
v 0.059868 -0.025157 -0.026321
v 0.056307 -0.029225 -0.031679
v 0.056307 -0.029225 -0.031679
v 0.054539 -0.025987 -0.038071
v 0.060308 -0.022821 -0.026909
v 0.054539 -0.025987 -0.038071
v 0.054660 -0.031105 -0.034156
v 0.053800 -0.031917 -0.035232
v 0.054539 -0.025987 -0.038071
v 0.056307 -0.029225 -0.031679
v 0.054660 -0.031105 -0.034156
v 0.054539 -0.025987 -0.038071
v 0.053711 -0.031986 -0.035324
v 0.049822 -0.034995 -0.039340
v 0.047192 -0.032634 -0.045171
v 0.048312 -0.019222 -0.051870
v 0.054539 -0.025987 -0.038071
v 0.047192 -0.032634 -0.045171
v 0.049822 -0.034995 -0.039340
v 0.047414 -0.036859 -0.041828
v 0.042650 -0.039494 -0.045403
v 0.043301 -0.030405 -0.051313
v 0.047192 -0.032634 -0.045171
v 0.039572 -0.041196 -0.047714
v 0.038309 -0.028567 -0.056700
v 0.043301 -0.030405 -0.051313
v 0.043301 -0.030405 -0.051313
v 0.042650 -0.039494 -0.045403
v 0.039572 -0.041196 -0.047714
v 0.039572 -0.041196 -0.047714
v 0.038127 -0.041888 -0.048660
v 0.038309 -0.028567 -0.056700
v 0.047192 -0.032634 -0.045171
v 0.046734 -0.037235 -0.042338
v 0.042650 -0.039494 -0.045403
v 0.047414 -0.036859 -0.041828
v 0.046734 -0.037235 -0.042338
v 0.047192 -0.032634 -0.045171
v 0.049822 -0.034995 -0.039340
v 0.047192 -0.032634 -0.045171
v 0.054539 -0.025987 -0.038071
v 0.053800 -0.031917 -0.035232
v 0.053711 -0.031986 -0.035324
v 0.054539 -0.025987 -0.038071
v 0.054539 -0.025987 -0.038071
v 0.056024 -0.014108 -0.042015
v 0.060308 -0.022821 -0.026909
v 0.059920 -0.025099 -0.026245
v 0.059868 -0.025157 -0.026321
v 0.060308 -0.022821 -0.026909
v 0.060308 -0.022821 -0.026909
v 0.062004 -0.012881 -0.028001
v 0.063024 -0.020269 -0.019930
v 0.062004 -0.012881 -0.028001
v 0.063290 -0.003272 -0.026064
v 0.065165 -0.015220 -0.013377
v 0.065314 -0.014371 -0.012284
v 0.063290 -0.003272 -0.026064
v 0.063803 0.004532 -0.020382
v 0.062004 -0.012881 -0.028001
v 0.060308 -0.022821 -0.026909
v 0.056024 -0.014108 -0.042015
v 0.063290 -0.003272 -0.026064
v 0.062004 -0.012881 -0.028001
v 0.057345 -0.002004 -0.043594
v 0.063803 0.004532 -0.020382
v 0.063290 -0.003272 -0.026064
v 0.058347 0.009675 -0.041472
v 0.038560 -0.011900 -0.065339
v 0.038812 0.002409 -0.070526
v 0.044827 -0.001162 -0.063677
v 0.038456 -0.017819 -0.063186
v 0.038528 -0.013692 -0.064687
v 0.044086 -0.016057 -0.058546
v 0.049343 -0.005300 -0.056622
v 0.048312 -0.019222 -0.051870
v 0.044086 -0.016057 -0.058546
v 0.048312 -0.019222 -0.051870
v 0.047192 -0.032634 -0.045171
v 0.043301 -0.030405 -0.051313
v 0.050264 0.008889 -0.058610
v 0.049343 -0.005300 -0.056622
v 0.044827 -0.001162 -0.063677
v 0.056024 -0.014108 -0.042015
v 0.054539 -0.025987 -0.038071
v 0.048312 -0.019222 -0.051870
v 0.057345 -0.002004 -0.043594
v 0.056024 -0.014108 -0.042015
v 0.049343 -0.005300 -0.056622
v 0.000001 -0.021017 -0.071745
v 0.000002 -0.006589 -0.078283
v 0.020993 -0.008073 -0.075008
v 0.038812 0.002409 -0.070526
v 0.038560 -0.011900 -0.065339
v 0.020993 -0.008073 -0.075008
v 0.020993 -0.008073 -0.075008
v 0.038560 -0.011900 -0.065339
v 0.030220 -0.023794 -0.064436
v 0.030220 -0.023794 -0.064436
v 0.038560 -0.011900 -0.065339
v 0.038528 -0.013692 -0.064687
v 0.038528 -0.013692 -0.064687
v 0.038456 -0.017819 -0.063186
v 0.030220 -0.023794 -0.064436
v 0.038456 -0.017819 -0.063186
v 0.038353 -0.025446 -0.058583
v 0.030220 -0.023794 -0.064436
v 0.000001 -0.021017 -0.071745
v -0.020892 -0.022296 -0.068434
v -0.020991 -0.008073 -0.075008
v 0.029998 -0.043936 -0.051627
v 0.030220 -0.023794 -0.064436
v 0.038309 -0.028567 -0.056700
v 0.038309 -0.028567 -0.056700
v 0.038127 -0.041888 -0.048660
v 0.036694 -0.042324 -0.049280
v 0.030220 -0.023794 -0.064436
v 0.038353 -0.025446 -0.058583
v 0.038309 -0.028567 -0.056700
v 0.022655 -0.045440 -0.053864
v 0.020894 -0.022296 -0.068434
v 0.030220 -0.023794 -0.064436
v 0.030220 -0.023794 -0.064436
v 0.026644 -0.044743 -0.052803
v 0.022655 -0.045440 -0.053864
v 0.030220 -0.023794 -0.064436
v 0.029998 -0.043936 -0.051627
v 0.026644 -0.044743 -0.052803
v 0.000001 -0.021017 -0.071745
v 0.020894 -0.022296 -0.068434
v 0.011432 -0.046693 -0.055945
v 0.020894 -0.022296 -0.068434
v 0.020757 -0.045651 -0.054216
v 0.011432 -0.046693 -0.055945
v -0.020892 -0.022296 -0.068434
v 0.000001 -0.021017 -0.071745
v -0.006478 -0.046926 -0.056455
v -0.006478 -0.046926 -0.056455
v -0.017729 -0.046115 -0.054938
v -0.020892 -0.022296 -0.068434
v 0.000001 -0.021017 -0.071745
v 0.000001 -0.046942 -0.056751
v -0.006478 -0.046926 -0.056455
v 0.011432 -0.046693 -0.055945
v 0.000001 -0.046942 -0.056751
v 0.000001 -0.021017 -0.071745
v 0.022655 -0.045440 -0.053864
v 0.020757 -0.045651 -0.054216
v 0.020894 -0.022296 -0.068434
v 0.038309 -0.028567 -0.056700
v 0.036694 -0.042324 -0.049280
v 0.029998 -0.043936 -0.051627
v -0.020991 -0.008073 -0.075008
v 0.000002 -0.006589 -0.078283
v 0.000001 -0.021017 -0.071745
v 0.030220 -0.023794 -0.064436
v 0.020894 -0.022296 -0.068434
v 0.020993 -0.008073 -0.075008
v 0.020993 -0.008073 -0.075008
v 0.020894 -0.022296 -0.068434
v 0.000001 -0.021017 -0.071745
v -0.048047 0.037111 0.022091
v -0.049525 0.041222 0.000172
v -0.056182 0.027326 0.007217
v -0.049525 0.041222 0.000172
v -0.039644 0.049926 0.011622
v -0.039722 0.051014 0.007456
v -0.048047 0.037111 0.022091
v -0.039525 0.048275 0.017943
v -0.039644 0.049926 0.011622
v -0.039644 0.049926 0.011622
v -0.049525 0.041222 0.000172
v -0.048047 0.037111 0.022091
v -0.060514 0.012750 0.015028
v -0.061215 0.008822 0.017228
v -0.060491 0.010402 0.019219
v -0.059564 0.012113 0.021370
v -0.056120 0.018470 0.029359
v -0.054179 0.024583 0.026901
v -0.056182 0.027326 0.007217
v -0.060514 0.012750 0.015028
v -0.059564 0.012113 0.021370
v -0.054179 0.024583 0.026901
v -0.055379 0.019837 0.031078
v -0.053995 0.021971 0.033751
v -0.054179 0.024583 0.026901
v -0.056120 0.018470 0.029359
v -0.055379 0.019837 0.031078
v -0.048047 0.037111 0.022091
v -0.054179 0.024583 0.026901
v -0.053214 0.022965 0.034990
v -0.053214 0.022965 0.034990
v -0.048475 0.028990 0.042499
v -0.048047 0.037111 0.022091
v -0.048475 0.028990 0.042499
v -0.047290 0.030247 0.044058
v -0.048047 0.037111 0.022091
v -0.048047 0.037111 0.022091
v -0.046158 0.031268 0.045317
v -0.038931 0.041750 0.040982
v -0.038931 0.041750 0.040982
v -0.039398 0.046499 0.024744
v -0.048047 0.037111 0.022091
v -0.038931 0.041750 0.040982
v -0.046158 0.031268 0.045317
v -0.039584 0.037202 0.052632
v -0.039584 0.037202 0.052632
v -0.038567 0.038041 0.053663
v -0.038931 0.041750 0.040982
v -0.039398 0.046499 0.024744
v -0.039525 0.048275 0.017943
v -0.048047 0.037111 0.022091
v -0.047290 0.030247 0.044058
v -0.046158 0.031268 0.045317
v -0.048047 0.037111 0.022091
v -0.053995 0.021971 0.033751
v -0.053214 0.022965 0.034990
v -0.054179 0.024583 0.026901
v -0.054179 0.024583 0.026901
v -0.056182 0.027326 0.007217
v -0.059564 0.012113 0.021370
v -0.060491 0.010402 0.019219
v -0.059564 0.012113 0.021370
v -0.060514 0.012750 0.015028
v -0.045230 0.047743 -0.002988
v -0.049525 0.041222 0.000172
v -0.039722 0.051014 0.007456
v -0.056182 0.027326 0.007217
v -0.054179 0.024583 0.026901
v -0.048047 0.037111 0.022091
v 0.000001 0.056478 0.038821
v 0.021176 0.052575 0.039384
v 0.021519 0.058611 0.008637
v -0.031168 0.054888 0.009923
v -0.039525 0.048275 0.017943
v -0.039398 0.046499 0.024744
v -0.031168 0.054888 0.009923
v -0.039644 0.049926 0.011622
v -0.039525 0.048275 0.017943
v -0.039398 0.046499 0.024744
v -0.030661 0.047907 0.040064
v -0.031168 0.054888 0.009923
v -0.021174 0.052575 0.039384
v -0.021516 0.058611 0.008637
v -0.031168 0.054888 0.009923
v 0.000001 0.056478 0.038821
v 0.000001 0.061770 0.007575
v -0.021516 0.058611 0.008637
v -0.021174 0.052575 0.039384
v -0.028018 0.044222 0.061126
v -0.022926 0.046410 0.063709
v -0.028018 0.044222 0.061126
v -0.021174 0.052575 0.039384
v -0.030661 0.047907 0.040064
v -0.030661 0.047907 0.040064
v -0.035984 0.039774 0.055771
v -0.028018 0.044222 0.061126
v -0.030661 0.047907 0.040064
v -0.038931 0.041750 0.040982
v -0.038567 0.038041 0.053663
v -0.038567 0.038041 0.053663
v -0.035984 0.039774 0.055771
v -0.030661 0.047907 0.040064
v 0.000001 0.056478 0.038821
v -0.014869 0.048918 0.066577
v -0.008088 0.050186 0.067911
v 0.000001 0.056478 0.038821
v -0.021174 0.052575 0.039384
v -0.020793 0.047074 0.064468
v -0.020793 0.047074 0.064468
v -0.014869 0.048918 0.066577
v 0.000001 0.056478 0.038821
v 0.000001 0.056478 0.038821
v 0.015364 0.048796 0.066442
v 0.020797 0.047079 0.064475
v 0.000001 0.056478 0.038821
v 0.001229 0.050725 0.068309
v 0.009224 0.050026 0.067755
v 0.009224 0.050026 0.067755
v 0.015364 0.048796 0.066442
v 0.000001 0.056478 0.038821
v 0.000001 0.056478 0.038821
v 0.000001 0.050744 0.068282
v 0.001229 0.050725 0.068309
v 0.021176 0.052575 0.039384
v 0.020797 0.047079 0.064475
v 0.022998 0.046383 0.063678
v 0.020797 0.047079 0.064475
v 0.021176 0.052575 0.039384
v 0.000001 0.056478 0.038821
v -0.008088 0.050186 0.067911
v 0.000001 0.050744 0.068282
v 0.000001 0.056478 0.038821
v -0.022926 0.046410 0.063709
v -0.020793 0.047074 0.064468
v -0.021174 0.052575 0.039384
v -0.021516 0.058611 0.008637
v -0.021174 0.052575 0.039384
v 0.000001 0.056478 0.038821
v -0.031168 0.054888 0.009923
v -0.030661 0.047907 0.040064
v -0.021174 0.052575 0.039384
v -0.039398 0.046499 0.024744
v -0.038931 0.041750 0.040982
v -0.030661 0.047907 0.040064
v -0.039722 0.051014 0.007456
v -0.039644 0.049926 0.011622
v -0.031168 0.054888 0.009923
v 0.021519 0.058611 0.008637
v 0.000001 0.061770 0.007575
v 0.000001 0.056478 0.038821
v -0.049342 -0.005303 -0.056618
v -0.056025 -0.014113 -0.042007
v -0.057346 -0.002010 -0.043586
v -0.048313 -0.019224 -0.051866
v -0.054539 -0.025991 -0.038064
v -0.056025 -0.014113 -0.042007
v -0.044826 -0.001163 -0.063675
v -0.049342 -0.005303 -0.056618
v -0.050264 0.008886 -0.058606
v -0.043301 -0.030406 -0.051311
v -0.047192 -0.032636 -0.045168
v -0.048313 -0.019224 -0.051866
v -0.044086 -0.016058 -0.058545
v -0.048313 -0.019224 -0.051866
v -0.049342 -0.005303 -0.056618
v -0.044086 -0.016058 -0.058545
v -0.038527 -0.013676 -0.064753
v -0.038348 -0.025476 -0.058562
v -0.038348 -0.025476 -0.058562
v -0.043301 -0.030406 -0.051311
v -0.044086 -0.016058 -0.058545
v -0.044826 -0.001163 -0.063675
v -0.038568 -0.010936 -0.066191
v -0.038552 -0.011992 -0.065637
v -0.044826 -0.001163 -0.063675
v -0.038809 0.002117 -0.069875
v -0.038568 -0.010936 -0.066191
v -0.038552 -0.011992 -0.065637
v -0.044086 -0.016058 -0.058545
v -0.044826 -0.001163 -0.063675
v -0.049525 0.041222 0.000172
v -0.050741 0.042077 -0.024213
v -0.057905 0.027194 -0.014164
v -0.056182 0.027326 0.007217
v -0.057905 0.027194 -0.014164
v -0.062770 0.011845 -0.003200
v -0.057905 0.027194 -0.014164
v -0.058507 0.024627 -0.024929
v -0.063537 0.009384 -0.012230
v -0.058348 0.009667 -0.041464
v -0.063291 -0.003283 -0.026051
v -0.063804 0.004520 -0.020370
v -0.058507 0.024627 -0.024929
v -0.058735 0.019020 -0.034700
v -0.063804 0.004520 -0.020370
v -0.057346 -0.002010 -0.043586
v -0.062005 -0.012890 -0.027988
v -0.063291 -0.003283 -0.026051
v -0.056025 -0.014113 -0.042007
v -0.060308 -0.022828 -0.026896
v -0.062005 -0.012890 -0.027988
v -0.042660 -0.039495 -0.045404
v -0.043301 -0.030406 -0.051311
v -0.038214 -0.034353 -0.053905
v -0.043301 -0.030406 -0.051311
v -0.038299 -0.028702 -0.056870
v -0.038214 -0.034353 -0.053905
v -0.042660 -0.039495 -0.045404
v -0.046178 -0.037638 -0.042879
v -0.047192 -0.032636 -0.045168
v -0.047192 -0.032636 -0.045168
v -0.043301 -0.030406 -0.051311
v -0.042660 -0.039495 -0.045404
v -0.047192 -0.032636 -0.045168
v -0.046766 -0.037269 -0.042381
v -0.047095 -0.037063 -0.042104
v -0.054539 -0.025991 -0.038064
v -0.047192 -0.032636 -0.045168
v -0.049807 -0.034997 -0.039343
v -0.054539 -0.025991 -0.038064
v -0.048313 -0.019224 -0.051866
v -0.047192 -0.032636 -0.045168
v -0.049807 -0.034997 -0.039343
v -0.053545 -0.032148 -0.035538
v -0.054539 -0.025991 -0.038064
v -0.059112 -0.026155 -0.027631
v -0.059852 -0.025012 -0.026136
v -0.060308 -0.022828 -0.026896
v -0.059112 -0.026155 -0.027631
v -0.056025 -0.014113 -0.042007
v -0.054539 -0.025991 -0.038064
v -0.054539 -0.025991 -0.038064
v -0.056248 -0.029238 -0.031699
v -0.059112 -0.026155 -0.027631
v -0.063435 -0.019480 -0.018902
v -0.062005 -0.012890 -0.027988
v -0.060308 -0.022828 -0.026896
v -0.065308 -0.014365 -0.012277
v -0.063291 -0.003283 -0.026051
v -0.062005 -0.012890 -0.027988
v -0.063804 0.004520 -0.020370
v -0.063291 -0.003283 -0.026051
v -0.065308 -0.014365 -0.012277
v -0.065308 -0.014365 -0.012277
v -0.065587 -0.013601 -0.011287
v -0.063804 0.004520 -0.020370
v -0.063804 0.004520 -0.020370
v -0.065926 -0.009413 -0.005911
v -0.066077 -0.007547 -0.003516
v -0.066077 -0.007547 -0.003516
v -0.063537 0.009384 -0.012230
v -0.063804 0.004520 -0.020370
v -0.065609 -0.004667 0.000150
v -0.065094 -0.001492 0.004192
v -0.062770 0.011845 -0.003200
v -0.062770 0.011845 -0.003200
v -0.063537 0.009384 -0.012230
v -0.065609 -0.004667 0.000150
v -0.062770 0.011845 -0.003200
v -0.064609 -0.000155 0.005882
v -0.061876 0.007381 0.015412
v -0.061876 0.007381 0.015412
v -0.060514 0.012750 0.015028
v -0.062770 0.011845 -0.003200
v -0.061876 0.007381 0.015412
v -0.061215 0.008822 0.017228
v -0.060514 0.012750 0.015028
v -0.065094 -0.001492 0.004192
v -0.064609 -0.000155 0.005882
v -0.062770 0.011845 -0.003200
v -0.066077 -0.007547 -0.003516
v -0.065609 -0.004667 0.000150
v -0.063537 0.009384 -0.012230
v -0.065587 -0.013601 -0.011287
v -0.065926 -0.009413 -0.005911
v -0.063804 0.004520 -0.020370
v -0.062005 -0.012890 -0.027988
v -0.063435 -0.019480 -0.018902
v -0.065308 -0.014365 -0.012277
v -0.060308 -0.022828 -0.026896
v -0.060422 -0.024133 -0.024987
v -0.063435 -0.019480 -0.018902
v -0.060422 -0.024133 -0.024987
v -0.060308 -0.022828 -0.026896
v -0.059852 -0.025012 -0.026136
v -0.060308 -0.022828 -0.026896
v -0.056025 -0.014113 -0.042007
v -0.059112 -0.026155 -0.027631
v -0.056248 -0.029238 -0.031699
v -0.054539 -0.025991 -0.038064
v -0.053707 -0.031974 -0.035308
v -0.053545 -0.032148 -0.035538
v -0.053707 -0.031974 -0.035308
v -0.054539 -0.025991 -0.038064
v -0.047095 -0.037063 -0.042104
v -0.049807 -0.034997 -0.039343
v -0.047192 -0.032636 -0.045168
v -0.046178 -0.037638 -0.042879
v -0.046766 -0.037269 -0.042381
v -0.047192 -0.032636 -0.045168
v -0.038214 -0.034353 -0.053905
v -0.038125 -0.041888 -0.048660
v -0.042660 -0.039495 -0.045404
v -0.062005 -0.012890 -0.027988
v -0.057346 -0.002010 -0.043586
v -0.056025 -0.014113 -0.042007
v -0.063291 -0.003283 -0.026051
v -0.058348 0.009667 -0.041464
v -0.057346 -0.002010 -0.043586
v -0.063804 0.004520 -0.020370
v -0.063537 0.009384 -0.012230
v -0.058507 0.024627 -0.024929
v -0.063804 0.004520 -0.020370
v -0.058735 0.019020 -0.034700
v -0.058348 0.009667 -0.041464
v -0.063537 0.009384 -0.012230
v -0.062770 0.011845 -0.003200
v -0.057905 0.027194 -0.014164
v -0.062770 0.011845 -0.003200
v -0.060514 0.012750 0.015028
v -0.056182 0.027326 0.007217
v -0.057905 0.027194 -0.014164
v -0.056182 0.027326 0.007217
v -0.049525 0.041222 0.000172
v -0.038552 -0.011992 -0.065637
v -0.038527 -0.013676 -0.064753
v -0.044086 -0.016058 -0.058545
v -0.038348 -0.025476 -0.058562
v -0.038299 -0.028702 -0.056870
v -0.043301 -0.030406 -0.051311
v -0.049342 -0.005303 -0.056618
v -0.044826 -0.001163 -0.063675
v -0.044086 -0.016058 -0.058545
v -0.048313 -0.019224 -0.051866
v -0.044086 -0.016058 -0.058545
v -0.043301 -0.030406 -0.051311
v -0.056025 -0.014113 -0.042007
v -0.049342 -0.005303 -0.056618
v -0.048313 -0.019224 -0.051866
v -0.050264 0.008886 -0.058606
v -0.057346 -0.002010 -0.043586
v -0.058348 0.009667 -0.041464
v -0.057346 -0.002010 -0.043586
v -0.050264 0.008886 -0.058606
v -0.049342 -0.005303 -0.056618
v -0.058507 0.024627 -0.024929
v -0.057905 0.027194 -0.014164
v -0.050741 0.042077 -0.024213
v -0.020991 -0.008073 -0.075008
v -0.038568 -0.010936 -0.066191
v -0.038809 0.002117 -0.069875
v -0.020991 -0.008073 -0.075008
v -0.038552 -0.011992 -0.065637
v -0.038568 -0.010936 -0.066191
v -0.030217 -0.023794 -0.064436
v -0.038348 -0.025476 -0.058562
v -0.038527 -0.013676 -0.064753
v -0.020991 -0.008073 -0.075008
v -0.020892 -0.022296 -0.068434
v -0.030217 -0.023794 -0.064436
v -0.030217 -0.023794 -0.064436
v -0.038552 -0.011992 -0.065637
v -0.020991 -0.008073 -0.075008
v -0.020738 -0.045635 -0.054195
v -0.027953 -0.044483 -0.052415
v -0.030217 -0.023794 -0.064436
v -0.030217 -0.023794 -0.064436
v -0.020892 -0.022296 -0.068434
v -0.020738 -0.045635 -0.054195
v -0.030217 -0.023794 -0.064436
v -0.030009 -0.043959 -0.051656
v -0.038214 -0.034353 -0.053905
v -0.038214 -0.034353 -0.053905
v -0.038299 -0.028702 -0.056870
v -0.030217 -0.023794 -0.064436
v -0.030009 -0.043959 -0.051656
v -0.038125 -0.041888 -0.048660
v -0.038214 -0.034353 -0.053905
v -0.038299 -0.028702 -0.056870
v -0.038348 -0.025476 -0.058562
v -0.030217 -0.023794 -0.064436
v -0.027953 -0.044483 -0.052415
v -0.030009 -0.043959 -0.051656
v -0.030217 -0.023794 -0.064436
v -0.017729 -0.046115 -0.054938
v -0.020738 -0.045635 -0.054195
v -0.020892 -0.022296 -0.068434
v -0.038527 -0.013676 -0.064753
v -0.038552 -0.011992 -0.065637
v -0.030217 -0.023794 -0.064436
vn 0.8529 0.5164 -0.0771
vn 0.9301 0.3276 -0.1661
vn 0.7696 0.6378 -0.0298
vn 0.7275 0.6534 -0.2093
vn 0.7171 0.6874 -0.1151
vn 0.8763 0.4280 -0.2212
vn 0.7565 0.5803 -0.3016
vn 0.6718 0.7318 0.1146
vn 0.8197 0.5695 0.0608
vn 0.7425 0.6672 0.0595
vn 0.6882 0.7248 -0.0337
vn 0.7726 0.6269 0.1001
vn 0.6718 0.7318 0.1145
vn 0.8140 0.5780 0.0571
vn 0.7275 0.6533 -0.2094
vn 0.9301 0.3276 -0.1663
vn 0.8510 0.5189 -0.0813
vn 0.9115 0.4078 -0.0532
vn 0.1403 0.9860 0.0900
vn 0.3436 0.9317 0.1179
vn 0.1125 0.9920 -0.0578
vn 0.1082 0.9685 -0.2244
vn 0.3671 0.9292 -0.0426
vn 0.3569 0.9234 0.1415
vn 0.2804 0.9582 -0.0558
vn 0.3195 0.9443 -0.0791
vn 0.3942 0.9117 0.1157
vn 0.4288 0.8929 0.1370
vn 0.2764 0.9168 -0.2883
vn 0.3151 0.9245 -0.2146
vn 0.3120 0.9491 -0.0435
vn 0.3333 0.8992 -0.2836
vn 0.3571 0.9234 0.1410
vn 0.3670 0.9292 -0.0427
vn 0.0994 0.9920 -0.0780
vn 0.2552 0.9629 0.0883
vn 0.9318 0.1985 -0.3038
vn 0.9046 -0.0188 -0.4258
vn 0.7871 -0.1209 -0.6048
vn 0.8794 0.2721 -0.3907
vn 0.8576 0.1125 -0.5019
vn 0.8318 0.0085 -0.5551
vn 0.8121 0.2908 -0.5059
vn 0.7644 0.3235 -0.5577
vn 0.7893 0.3564 -0.5000
vn 0.7527 0.5285 -0.3926
vn 0.8178 0.5477 -0.1769
vn 0.7358 0.1612 -0.6577
vn 0.7539 0.0919 -0.6505
vn 0.7644 0.3241 -0.5574
vn 0.7312 0.0221 -0.6818
vn 0.7553 -0.0974 -0.6482
vn 0.7104 -0.1298 -0.6917
vn 0.6875 -0.1058 -0.7184
vn 0.6877 -0.1053 -0.7184
vn 0.7202 0.0987 -0.6867
vn 0.7644 0.3233 -0.5579
vn 0.7527 0.5286 -0.3925
vn 0.8333 -0.0053 -0.5528
vn 0.8593 0.1004 -0.5015
vn 0.8761 0.4281 -0.2217
vn 0.8830 0.2628 -0.3890
vn 0.9149 0.0685 -0.3979
vn 0.9339 0.1834 -0.3070
vn 0.1127 0.8747 -0.4714
vn 0.3089 0.8368 -0.4521
vn 0.3807 0.7475 -0.5443
vn 0.3332 0.8993 -0.2832
vn 0.1210 -0.2785 -0.9528
vn 0.0653 0.2746 -0.9593
vn 0.1235 0.7080 -0.6953
vn 0.1317 0.6282 -0.7669
vn 0.2125 0.5274 -0.8226
vn 0.1387 -0.1149 -0.9836
vn 0.0640 -0.0620 -0.9960
vn 0.1967 0.2618 -0.9449
vn 0.3816 -0.2708 -0.8838
vn 0.3284 0.2292 -0.9163
vn 0.3690 0.6618 -0.6526
vn 0.3807 0.7475 -0.5444
vn 0.4213 0.5642 -0.7101
vn 0.5019 0.4425 -0.7432
vn 0.5019 0.4422 -0.7433
vn 0.4178 -0.1525 -0.8957
vn 0.3277 -0.0799 -0.9414
vn 0.4692 -0.1205 -0.8748
vn 0.4394 0.1379 -0.8877
vn 0.4747 0.1768 -0.8622
vn 0.5007 0.1314 -0.8556
vn 0.5020 0.4431 -0.7428
vn -0.0710 0.5643 -0.8225
vn -0.1387 -0.1149 -0.9836
vn -0.0763 0.2668 -0.9607
vn -0.1276 -0.2885 -0.9489
vn -0.1210 -0.2785 -0.9528
vn -0.0653 0.2746 -0.9593
vn -0.0640 -0.0620 -0.9960
vn 0.1013 0.9668 -0.2345
vn 0.4690 -0.1214 -0.8748
vn 0.4689 -0.1215 -0.8748
vn 0.3541 0.5035 -0.7881
vn 0.4179 0.4665 -0.7796
vn 0.3766 0.1879 -0.9071
vn 0.2280 0.2374 -0.9443
vn 0.1920 -0.0816 -0.9780
vn 0.0710 0.5643 -0.8225
vn 0.1312 0.7226 -0.6787
vn 0.0763 0.2668 -0.9607
vn 0.1276 -0.2885 -0.9489
vn 0.3807 0.7476 -0.5442
vn 0.1171 0.8773 -0.4655
vn -0.6791 0.7221 0.1320
vn -0.6791 0.7221 0.1319
vn -0.7503 0.6585 0.0593
vn -0.7075 0.7064 0.0220
vn -0.8198 0.5694 0.0608
vn -0.3015 0.9388 0.1664
vn -0.3772 0.9188 0.1165
vn -0.4448 0.8816 0.1577
vn -0.3948 0.9183 0.0279
vn -0.3948 0.9183 0.0277
vn -0.2552 0.9628 0.0883
vn -0.1043 0.9925 0.0640
vn -0.0994 0.9920 -0.0780
vn -0.1125 0.9920 -0.0578
vn -0.1403 0.9860 0.0900
vn -0.3437 0.9317 0.1179
vn -0.2804 0.9582 -0.0558
vn 0.1043 0.9925 0.0640
vn -0.9115 0.4078 -0.0532
vn -0.8511 0.5187 -0.0812
vn -0.9339 0.1833 -0.3070
vn -0.9301 0.3275 -0.1662
vn -0.9046 -0.0188 -0.4258
vn -0.9149 0.0685 -0.3978
vn -0.7368 0.6670 -0.1109
vn -0.7385 0.6640 -0.1169
vn -0.8830 0.2627 -0.3890
vn -0.8761 0.4281 -0.2217
vn -0.8593 0.1004 -0.5015
vn -0.8334 -0.0053 -0.5527
vn -0.8223 0.3829 -0.4210
vn -0.7635 0.4361 -0.4762
vn -0.8004 0.3474 -0.4885
vn -0.7635 0.4363 -0.4761
vn -0.7671 0.5693 -0.2958
vn -0.7774 0.5649 -0.2767
vn -0.7639 0.5799 -0.2831
vn -0.7365 0.2136 -0.6418
vn -0.7365 0.2135 -0.6419
vn -0.7172 -0.0223 -0.6965
vn -0.7630 0.2034 -0.6136
vn -0.7383 -0.1957 -0.6455
vn -0.6897 -0.0219 -0.7238
vn -0.6784 -0.1328 -0.7226
vn -0.6896 -0.0224 -0.7239
vn -0.8141 0.5779 0.0571
vn -0.7073 0.7066 0.0218
vn -0.7386 0.6639 -0.1170
vn -0.6393 -0.2200 -0.7368
vn -0.7052 0.0253 -0.7085
vn -0.7541 0.1550 -0.6382
vn -0.7635 0.4362 -0.4762
vn -0.7365 0.2137 -0.6418
vn -0.8318 0.0086 -0.5550
vn -0.8576 0.1125 -0.5018
vn -0.8764 0.4279 -0.2210
vn -0.8794 0.2720 -0.3907
vn -0.7320 0.6709 -0.1183
vn -0.7872 -0.1209 -0.6047
vn -0.9319 0.1984 -0.3038
vn -0.8529 0.5163 -0.0771
vn -0.3195 0.8336 -0.4505
vn -0.3945 0.6289 -0.6699
vn -0.3946 0.6288 -0.6701
vn -0.2993 0.9518 -0.0670
vn -0.1575 0.9732 -0.1678
vn -0.1583 0.9731 -0.1672
vn -0.2910 0.9319 -0.2163
vn -0.3400 0.8482 -0.4061
vn -0.1013 0.9668 -0.2345
vn -0.4051 -0.2681 -0.8741
vn -0.1171 0.8773 -0.4655
vn -0.3561 0.3083 -0.8822
vn -0.4406 0.1810 -0.8793
vn -0.5307 -0.0203 -0.8473
vn -0.5307 -0.0201 -0.8473
vn -0.4063 0.6504 -0.6418
vn -0.3992 0.5445 -0.7376
vn -0.5262 0.2760 -0.8043
vn -0.3541 0.5036 -0.7881
vn -0.5262 0.2763 -0.8042
vn -0.5308 -0.0200 -0.8473
vn -0.4053 -0.1422 -0.9030
vn -0.4097 -0.2547 -0.8759
vn -0.3766 0.1879 -0.9071
vn -0.2280 0.2374 -0.9443
vn -0.1312 0.7226 -0.6787
vn -0.1317 0.6282 -0.7669
vn -0.1920 -0.0816 -0.9780
vn -0.2125 0.5274 -0.8226
vn -0.1235 0.7080 -0.6953
vn -0.1966 0.2618 -0.9449
vn -0.3285 0.2292 -0.9163
vn -0.3277 -0.0799 -0.9414
vn -0.4074 0.6249 -0.6660
vn -0.3946 0.6287 -0.6701
vn -0.5262 0.2762 -0.8042
vn -0.1127 0.8747 -0.4714
vn -0.4096 -0.2553 -0.8758
vn -0.1082 0.9685 -0.2243
vn -0.3180 0.9342 -0.1617
vn -0.3401 0.8480 -0.4065
vn 0.9119 0.4077 -0.0463
vn 0.8625 0.4817 0.1549
vn 0.7493 0.6399 0.1705
vn 0.7665 0.6068 0.2102
vn 0.7390 0.6451 0.1943
vn 0.8857 0.4592 0.0685
vn 0.9379 0.3322 0.0996
vn 0.9535 0.3015 -0.0012
vn 0.9672 0.2308 -0.1062
vn 0.7656 0.6154 0.1875
vn 0.7339 0.6504 0.1956
vn 0.7554 0.6195 0.2135
vn 0.8594 0.4797 0.1770
vn 0.8123 0.5480 0.1996
vn 0.7651 0.6082 0.2115
vn 0.8629 0.4688 0.1889
vn 0.9048 0.3886 0.1740
vn 0.9300 0.3392 0.1419
vn 0.9299 0.3411 0.1376
vn 0.9373 0.3042 0.1700
vn 0.9643 0.2421 0.1074
vn 0.9653 0.2233 0.1356
vn 0.9822 0.1849 0.0330
vn 0.9921 0.1192 -0.0387
vn 0.9890 0.0162 -0.1467
vn 0.9926 0.1124 -0.0454
vn 0.9921 0.1161 -0.0480
vn 0.9817 0.1862 0.0399
vn 0.9817 0.1860 0.0397
vn 0.9653 0.2233 0.1357
vn 0.9151 0.3644 0.1725
vn 0.9299 0.3411 0.1377
vn 0.8505 0.4899 0.1915
vn 0.7606 0.6172 0.2014
vn 0.9670 0.2301 -0.1093
vn 0.9538 0.2997 -0.0182
vn 0.9344 0.3485 0.0731
vn 0.8828 0.4658 0.0604
vn 0.8600 0.4879 0.1495
vn 0.4192 0.8829 0.2115
vn 0.5672 0.7907 0.2305
vn 0.4984 0.8427 0.2036
vn 0.4655 0.8506 0.2447
vn 0.5671 0.7906 0.2309
vn 0.5826 0.8053 0.1100
vn 0.4926 0.8514 0.1801
vn 0.4876 0.8348 0.2558
vn 0.0973 0.3343 0.9374
vn 0.3321 0.9249 0.1853
vn 0.8592 -0.1253 -0.4960
vn 0.9045 -0.0001 -0.4266
vn 0.8210 -0.2379 -0.5190
vn 0.7087 -0.3481 -0.6136
vn 0.7416 -0.2512 -0.6220
vn 0.6545 -0.3972 -0.6433
vn 0.5877 -0.4239 -0.6892
vn 0.6243 -0.3786 -0.6833
vn 0.6568 -0.2746 -0.7023
vn 0.6611 -0.2669 -0.7012
vn 0.9678 0.1199 -0.2211
vn 0.9463 -0.0226 -0.3226
vn 0.9141 -0.1490 -0.3770
vn 0.9670 -0.1149 -0.2274
vn 0.9901 0.0066 -0.1401
vn 0.9312 -0.2394 -0.2749
vn 0.9313 -0.2391 -0.2747
vn 0.8836 -0.2638 -0.3869
vn 0.8846 -0.2690 -0.3809
vn 0.8430 -0.3141 -0.4367
vn 0.8836 -0.2711 -0.3817
vn 0.7900 -0.3420 -0.5088
vn 0.7925 -0.3242 -0.5166
vn 0.7905 -0.3540 -0.4999
vn 0.6827 -0.4321 -0.5893
vn 0.5837 -0.4312 -0.6880
vn 0.6820 -0.4324 -0.5899
vn 0.6287 -0.4081 -0.6619
vn 0.6819 -0.4315 -0.5906
vn 0.6817 -0.4316 -0.5908
vn 0.7948 -0.3460 -0.4986
vn 0.7905 -0.3418 -0.5083
vn 0.8884 -0.2408 -0.3908
vn 0.8821 -0.2643 -0.3900
vn 0.9363 -0.1921 -0.2941
vn 0.9710 -0.0849 -0.2235
vn 0.9918 0.0258 -0.1249
vn 0.9081 -0.1956 -0.3704
vn 0.9439 -0.0609 -0.3245
vn 0.9689 0.1009 -0.2260
vn 0.6497 -0.2691 -0.7110
vn 0.6613 -0.2665 -0.7012
vn 0.7548 -0.2613 -0.6017
vn 0.7262 -0.3548 -0.5888
vn 0.7970 -0.1342 -0.5889
vn 0.8213 -0.2696 -0.5028
vn 0.8587 -0.1573 -0.4876
vn 0.1122 -0.4101 -0.9051
vn 0.4030 -0.3181 -0.8581
vn 0.3949 -0.3417 -0.8528
vn 0.3673 -0.3238 -0.8719
vn 0.3670 -0.3236 -0.8721
vn 0.4529 -0.4652 -0.7606
vn -0.1173 -0.4173 -0.9012
vn 0.4369 -0.4861 -0.7568
vn 0.4668 -0.4616 -0.7543
vn 0.4529 -0.4651 -0.7606
vn 0.2731 -0.4975 -0.8233
vn 0.3032 -0.5017 -0.8102
vn 0.3911 -0.4969 -0.7747
vn 0.1077 -0.4858 -0.8674
vn 0.2116 -0.5091 -0.8343
vn -0.1078 -0.4851 -0.8678
vn -0.1510 -0.5024 -0.8513
vn -0.0408 -0.5002 -0.8649
vn 0.0718 -0.4994 -0.8634
vn 0.2113 -0.5092 -0.8343
vn 0.3906 -0.4721 -0.7903
vn -0.1122 -0.4101 -0.9051
vn 0.3057 -0.4012 -0.8634
vn 0.1173 -0.4173 -0.9012
vn -0.8600 0.4878 0.1495
vn -0.7585 0.6270 0.1779
vn -0.7482 0.6384 0.1808
vn -0.7548 0.6336 0.1697
vn -0.9562 0.2530 0.1470
vn -0.9299 0.3458 0.1257
vn -0.9147 0.3649 0.1737
vn -0.9100 0.3787 0.1688
vn -0.9298 0.3458 0.1258
vn -0.8478 0.4915 0.1994
vn -0.8661 0.4705 0.1691
vn -0.8229 0.5337 0.1952
vn -0.7598 0.6132 0.2161
vn -0.7480 0.6309 0.2060
vn -0.7679 0.6101 0.1951
vn -0.7394 0.6401 0.2085
vn -0.7482 0.6384 0.1807
vn -0.7743 0.5959 0.2129
vn -0.8740 0.4457 0.1934
vn -0.9301 0.3387 0.1419
vn -0.9402 0.2951 0.1705
vn -0.7652 0.6074 0.2133
vn -0.8626 0.4816 0.1549
vn 0.1730 0.9661 0.1916
vn -0.4563 0.8589 0.2328
vn -0.4562 0.8589 0.2329
vn -0.4940 0.8452 0.2041
vn -0.3321 0.9249 0.1853
vn -0.1352 0.9769 0.1655
vn -0.4659 0.8651 0.1857
vn -0.4199 0.8836 0.2073
vn -0.5806 0.7865 0.2104
vn -0.5608 0.7902 0.2472
vn -0.6412 0.7483 0.1701
vn -0.2102 0.9660 0.1505
vn -0.1716 0.9618 0.2135
vn -0.3232 0.9426 0.0836
vn 0.3267 0.9417 0.0802
vn 0.0984 0.9775 0.1866
vn 0.2238 0.9640 0.1436
vn 0.0110 0.9815 0.1910
vn 0.3617 0.9095 0.2047
vn 0.1716 0.9618 0.2133
vn -0.0763 0.9787 0.1905
vn -0.3567 0.9114 0.2053
vn -0.1730 0.9661 0.1916
vn -0.4193 0.8829 0.2116
vn 0.1353 0.9769 0.1655
vn -0.8588 -0.1573 -0.4876
vn -0.8213 -0.2696 -0.5027
vn -0.7970 -0.1342 -0.5889
vn -0.7263 -0.3547 -0.5888
vn -0.7549 -0.2612 -0.6016
vn -0.6152 -0.3736 -0.6942
vn -0.6238 -0.3788 -0.6837
vn -0.7397 -0.3214 -0.5912
vn -0.6394 -0.2198 -0.7368
vn -0.6784 -0.2692 -0.6837
vn -0.8829 0.4657 0.0604
vn -0.9345 0.3485 0.0731
vn -0.9539 0.2997 -0.0181
vn -0.9689 0.1008 -0.2260
vn -0.9670 0.2300 -0.1094
vn -0.9439 -0.0609 -0.3245
vn -0.9081 -0.1958 -0.3703
vn -0.6557 -0.4434 -0.6111
vn -0.6326 -0.3673 -0.6818
vn -0.6649 -0.4180 -0.6189
vn -0.6833 -0.4312 -0.5893
vn -0.7239 -0.4033 -0.5598
vn -0.7950 -0.3470 -0.4976
vn -0.7926 -0.3242 -0.5165
vn -0.7855 -0.3392 -0.5177
vn -0.9282 -0.2793 -0.2459
vn -0.8874 -0.2414 -0.3928
vn -0.8721 -0.2996 -0.3870
vn -0.9386 -0.1918 -0.2868
vn -0.9732 -0.0874 -0.2128
vn -0.9919 0.0256 -0.1247
vn -0.9679 -0.0299 -0.2496
vn -0.9939 0.0477 -0.0998
vn -0.9910 0.1265 -0.0431
vn -0.9857 0.1681 -0.0065
vn -0.9837 0.1763 0.0354
vn -0.9693 0.2245 0.1004
vn -0.9619 0.2516 0.1066
vn -0.9562 0.2531 0.1472
vn -0.9693 0.2245 0.1005
vn -0.9884 0.1518 0.0069
vn -0.9939 0.0477 -0.0999
vn -0.9738 -0.0815 -0.2124
vn -0.9282 -0.2791 -0.2462
vn -0.9280 -0.2795 -0.2464
vn -0.8913 -0.2347 -0.3880
vn -0.8721 -0.2995 -0.3869
vn -0.8718 -0.2997 -0.3875
vn -0.7860 -0.3634 -0.5002
vn -0.7254 -0.4026 -0.5584
vn -0.6652 -0.4319 -0.6091
vn -0.9142 -0.1490 -0.3770
vn -0.9463 -0.0226 -0.3225
vn -0.9672 0.2307 -0.1061
vn -0.9679 0.1198 -0.2211
vn -0.9535 0.3014 -0.0013
vn -0.9380 0.3321 0.0996
vn -0.8857 0.4591 0.0685
vn -0.6152 -0.3735 -0.6942
vn -0.6327 -0.3672 -0.6818
vn -0.7417 -0.2511 -0.6220
vn -0.7088 -0.3481 -0.6136
vn -0.8210 -0.2379 -0.5189
vn -0.9045 -0.0001 -0.4265
vn -0.8592 -0.1253 -0.4960
vn -0.9119 0.4077 -0.0462
vn -0.3998 -0.2558 -0.8802
vn -0.3442 -0.4403 -0.8292
vn -0.4750 -0.4145 -0.7762
vn -0.3057 -0.4012 -0.8635
vn -0.3777 -0.3538 -0.8557
vn -0.2819 -0.5049 -0.8159
vn -0.2712 -0.5026 -0.8209
vn -0.3707 -0.4999 -0.7827
vn -0.4750 -0.4145 -0.7763
vn -0.4094 -0.5245 -0.7465
vn -0.4751 -0.4144 -0.7763
vn -0.4092 -0.4915 -0.7688
vn -0.2819 -0.5010 -0.8182
vn -0.4751 -0.4145 -0.7762
s 1
usemtl material_0
f 1//1 2//1 3//1
f 4//2 5//2 6//2
f 7//3 8//3 9//3
f 10//4 11//4 12//4
f 13//5 14//5 15//5
f 16//6 17//6 18//6
f 19//7 20//7 21//7
f 22//8 23//8 24//8
f 25//9 26//9 27//9
f 28//10 29//10 30//10
f 31//11 32//11 33//11
f 34//12 35//12 36//12
f 37//13 38//13 39//13
f 40//14 41//14 42//14
f 43//15 44//15 45//15
f 46//11 47//11 48//11
f 49//16 50//16 51//16
f 52//17 53//17 54//17
f 55//18 56//18 57//18
f 58//19 59//19 60//19
f 61//20 62//20 63//20
f 64//21 65//21 66//21
f 67//22 68//22 69//22
f 70//23 71//23 72//23
f 73//24 74//24 75//24
f 76//25 77//25 78//25
f 79//26 80//26 81//26
f 82//27 83//27 84//27
f 85//28 86//28 87//28
f 88//29 89//29 90//29
f 91//30 92//30 93//30
f 94//31 95//31 96//31
f 97//32 98//32 99//32
f 100//33 101//33 102//33
f 103//34 104//34 105//34
f 106//35 107//35 108//35
f 109//36 110//36 111//36
f 112//37 113//37 114//37
f 115//38 116//38 117//38
f 118//39 119//39 120//39
f 121//40 122//40 123//40
f 124//41 125//41 126//41
f 127//42 128//42 129//42
f 130//43 131//43 132//43
f 133//44 134//44 135//44
f 136//45 137//45 138//45
f 139//46 140//46 141//46
f 142//47 143//47 144//47
f 145//46 146//46 147//46
f 148//48 149//48 150//48
f 151//49 152//49 153//49
f 154//50 155//50 156//50
f 157//51 158//51 159//51
f 160//52 161//52 162//52
f 163//53 164//53 165//53
f 166//54 167//54 168//54
f 169//55 170//55 171//55
f 172//56 173//56 174//56
f 175//57 176//57 177//57
f 178//58 179//58 180//58
f 181//59 182//59 183//59
f 184//60 185//60 186//60
f 187//61 188//61 189//61
f 190//62 191//62 192//62
f 193//63 194//63 195//63
f 196//64 197//64 198//64
f 199//65 200//65 201//65
f 202//66 203//66 204//66
f 205//67 206//67 207//67
f 208//68 209//68 210//68
f 211//69 212//69 213//69
f 214//70 215//70 216//70
f 217//71 218//71 219//71
f 220//72 221//72 222//72
f 223//73 224//73 225//73
f 226//74 227//74 228//74
f 229//75 230//75 231//75
f 232//76 233//76 234//76
f 235//77 236//77 237//77
f 238//78 239//78 240//78
f 241//79 242//79 243//79
f 244//80 245//80 246//80
f 247//81 248//81 249//81
f 250//82 251//82 252//82
f 253//83 254//83 255//83
f 256//84 257//84 258//84
f 259//85 260//85 261//85
f 262//86 263//86 264//86
f 265//87 266//87 267//87
f 268//88 269//88 270//88
f 271//89 272//89 273//89
f 274//90 275//90 276//90
f 277//91 278//91 279//91
f 280//92 281//92 282//92
f 283//93 284//93 285//93
f 286//94 287//94 288//94
f 289//95 290//95 291//95
f 292//96 293//96 294//96
f 295//97 296//97 297//97
f 298//98 299//98 300//98
f 301//99 302//99 303//99
f 304//100 305//100 306//100
f 307//101 308//101 309//101
f 310//102 311//102 312//102
f 313//103 314//103 315//103
f 316//104 317//104 318//104
f 319//105 320//105 321//105
f 322//106 323//106 324//106
f 325//107 326//107 327//107
f 328//108 329//108 330//108
f 331//109 332//109 333//109
f 334//110 335//110 336//110
f 337//111 338//111 339//111
f 340//112 341//112 342//112
f 343//113 344//113 345//113
f 346//114 347//114 348//114
f 349//115 350//115 351//115
f 352//116 353//116 354//116
f 355//117 356//117 357//117
f 358//118 359//118 360//118
f 361//119 362//119 363//119
f 364//120 365//120 366//120
f 367//121 368//121 369//121
f 370//122 371//122 372//122
f 373//123 374//123 375//123
f 376//124 377//124 378//124
f 379//125 380//125 381//125
f 382//126 383//126 384//126
f 385//127 386//127 387//127
f 388//128 389//128 390//128
f 391//129 392//129 393//129
f 394//130 395//130 396//130
f 397//131 398//131 399//131
f 400//132 401//132 402//132
f 403//133 404//133 405//133
f 406//134 407//134 408//134
f 409//135 410//135 411//135
f 412//136 413//136 414//136
f 415//137 416//137 417//137
f 418//138 419//138 420//138
f 421//139 422//139 423//139
f 424//140 425//140 426//140
f 427//141 428//141 429//141
f 430//142 431//142 432//142
f 433//143 434//143 435//143
f 436//144 437//144 438//144
f 439//145 440//145 441//145
f 442//146 443//146 444//146
f 445//147 446//147 447//147
f 448//148 449//148 450//148
f 451//149 452//149 453//149
f 454//150 455//150 456//150
f 457//151 458//151 459//151
f 460//152 461//152 462//152
f 463//153 464//153 465//153
f 466//154 467//154 468//154
f 469//155 470//155 471//155
f 472//156 473//156 474//156
f 475//157 476//157 477//157
f 478//158 479//158 480//158
f 481//159 482//159 483//159
f 484//160 485//160 486//160
f 487//161 488//161 489//161
f 490//162 491//162 492//162
f 493//163 494//163 495//163
f 496//164 497//164 498//164
f 499//165 500//165 501//165
f 502//166 503//166 504//166
f 505//167 506//167 507//167
f 508//168 509//168 510//168
f 511//169 512//169 513//169
f 514//170 515//170 516//170
f 517//133 518//133 519//133
f 520//171 521//171 522//171
f 523//172 524//172 525//172
f 526//173 527//173 528//173
f 529//174 530//174 531//174
f 532//175 533//175 534//175
f 535//176 536//176 537//176
f 538//177 539//177 540//177
f 541//178 542//178 543//178
f 544//179 545//179 546//179
f 547//180 548//180 549//180
f 550//181 551//181 552//181
f 553//182 554//182 555//182
f 556//183 557//183 558//183
f 559//184 560//184 561//184
f 562//185 563//185 564//185
f 565//186 566//186 567//186
f 568//187 569//187 570//187
f 571//188 572//188 573//188
f 574//189 575//189 576//189
f 577//190 578//190 579//190
f 580//191 581//191 582//191
f 583//192 584//192 585//192
f 586//193 587//193 588//193
f 589//194 590//194 591//194
f 592//195 593//195 594//195
f 595//196 596//196 597//196
f 598//197 599//197 600//197
f 601//198 602//198 603//198
f 604//199 605//199 606//199
f 607//200 608//200 609//200
f 610//201 611//201 612//201
f 613//202 614//202 615//202
f 616//203 617//203 618//203
f 619//204 620//204 621//204
f 622//205 623//205 624//205
f 625//206 626//206 627//206
f 628//207 629//207 630//207
f 631//208 632//208 633//208
f 634//209 635//209 636//209
f 637//210 638//210 639//210
f 640//211 641//211 642//211
f 643//212 644//212 645//212
f 646//213 647//213 648//213
f 649//214 650//214 651//214
f 652//215 653//215 654//215
f 655//216 656//216 657//216
f 658//217 659//217 660//217
f 661//218 662//218 663//218
f 664//219 665//219 666//219
f 667//220 668//220 669//220
f 670//221 671//221 672//221
f 673//222 674//222 675//222
f 676//223 677//223 678//223
f 679//224 680//224 681//224
f 682//225 683//225 684//225
f 685//226 686//226 687//226
f 688//227 689//227 690//227
f 691//228 692//228 693//228
f 694//229 695//229 696//229
f 697//230 698//230 699//230
f 700//231 701//231 702//231
f 703//232 704//232 705//232
f 706//233 707//233 708//233
f 709//234 710//234 711//234
f 712//235 713//235 714//235
f 715//236 716//236 717//236
f 718//237 719//237 720//237
f 721//238 722//238 723//238
f 724//239 725//239 726//239
f 727//240 728//240 729//240
f 730//241 731//241 732//241
f 733//242 734//242 735//242
f 736//243 737//243 738//243
f 739//244 740//244 741//244
f 742//245 743//245 744//245
f 745//246 746//246 747//246
f 748//247 749//247 750//247
f 751//248 752//248 753//248
f 754//249 755//249 756//249
f 757//250 758//250 759//250
f 760//251 761//251 762//251
f 763//224 764//224 765//224
f 766//252 767//252 768//252
f 769//253 770//253 771//253
f 772//254 773//254 774//254
f 775//255 776//255 777//255
f 778//256 779//256 780//256
f 781//257 782//257 783//257
f 784//258 785//258 786//258
f 787//259 788//259 789//259
f 790//260 791//260 792//260
f 793//261 794//261 795//261
f 796//256 797//256 798//256
f 799//262 800//262 801//262
f 802//263 803//263 804//263
f 805//264 806//264 807//264
f 808//265 809//265 810//265
f 811//266 812//266 813//266
f 814//267 815//267 816//267
f 817//268 818//268 819//268
f 820//269 821//269 822//269
f 823//270 824//270 825//270
f 826//271 827//271 828//271
f 829//272 830//272 831//272
f 832//273 833//273 834//273
f 835//274 836//274 837//274
f 838//275 839//275 840//275
f 841//276 842//276 843//276
f 844//277 845//277 846//277
f 847//278 848//278 849//278
f 850//276 851//276 852//276
f 853//279 854//279 855//279
f 856//280 857//280 858//280
f 859//281 860//281 861//281
f 862//282 863//282 864//282
f 865//283 866//283 867//283
f 868//284 869//284 870//284
f 871//285 872//285 873//285
f 874//286 875//286 876//286
f 877//287 878//287 879//287
f 880//288 881//288 882//288
f 883//289 884//289 885//289
f 886//290 887//290 888//290
f 889//291 890//291 891//291
f 892//292 893//292 894//292
f 895//293 896//293 897//293
f 898//294 899//294 900//294
f 901//295 902//295 903//295
f 904//296 905//296 906//296
f 907//297 908//297 909//297
f 910//298 911//298 912//298
f 913//299 914//299 915//299
f 916//300 917//300 918//300
f 919//301 920//301 921//301
f 922//302 923//302 924//302
f 925//303 926//303 927//303
f 928//304 929//304 930//304
f 931//305 932//305 933//305
f 934//306 935//306 936//306
f 937//307 938//307 939//307
f 940//308 941//308 942//308
f 943//309 944//309 945//309
f 946//310 947//310 948//310
f 949//311 950//311 951//311
f 952//312 953//312 954//312
f 955//313 956//313 957//313
f 958//314 959//314 960//314
f 961//315 962//315 963//315
f 964//316 965//316 966//316
f 967//317 968//317 969//317
f 970//318 971//318 972//318
f 973//319 974//319 975//319
f 976//320 977//320 978//320
f 979//321 980//321 981//321
f 982//322 983//322 984//322
f 985//323 986//323 987//323
f 988//324 989//324 990//324
f 991//325 992//325 993//325
f 994//326 995//326 996//326
f 997//327 998//327 999//327
f 1000//328 1001//328 1002//328
f 1003//329 1004//329 1005//329
f 1006//330 1007//330 1008//330
f 1009//331 1010//331 1011//331
f 1012//332 1013//332 1014//332
f 1015//333 1016//333 1017//333
f 1018//334 1019//334 1020//334
f 1021//335 1022//335 1023//335
f 1024//336 1025//336 1026//336
f 1027//337 1028//337 1029//337
f 1030//338 1031//338 1032//338
f 1033//339 1034//339 1035//339
f 1036//340 1037//340 1038//340
f 1039//341 1040//341 1041//341
f 1042//342 1043//342 1044//342
f 1045//343 1046//343 1047//343
f 1048//344 1049//344 1050//344
f 1051//345 1052//345 1053//345
f 1054//346 1055//346 1056//346
f 1057//347 1058//347 1059//347
f 1060//348 1061//348 1062//348
f 1063//349 1064//349 1065//349
f 1066//350 1067//350 1068//350
f 1069//351 1070//351 1071//351
f 1072//352 1073//352 1074//352
f 1075//353 1076//353 1077//353
f 1078//354 1079//354 1080//354
f 1081//355 1082//355 1083//355
f 1084//356 1085//356 1086//356
f 1087//357 1088//357 1089//357
f 1090//358 1091//358 1092//358
f 1093//359 1094//359 1095//359
f 1096//360 1097//360 1098//360
f 1099//361 1100//361 1101//361
f 1102//362 1103//362 1104//362
f 1105//363 1106//363 1107//363
f 1108//364 1109//364 1110//364
f 1111//365 1112//365 1113//365
f 1114//366 1115//366 1116//366
f 1117//367 1118//367 1119//367
f 1120//368 1121//368 1122//368
f 1123//369 1124//369 1125//369
f 1126//370 1127//370 1128//370
f 1129//371 1130//371 1131//371
f 1132//372 1133//372 1134//372
f 1135//373 1136//373 1137//373
f 1138//374 1139//374 1140//374
f 1141//375 1142//375 1143//375
f 1144//376 1145//376 1146//376
f 1147//377 1148//377 1149//377
f 1150//378 1151//378 1152//378
f 1153//379 1154//379 1155//379
f 1156//380 1157//380 1158//380
f 1159//366 1160//366 1161//366
f 1162//359 1163//359 1164//359
f 1165//381 1166//381 1167//381
f 1168//382 1169//382 1170//382
f 1171//383 1172//383 1173//383
f 1174//384 1175//384 1176//384
f 1177//385 1178//385 1179//385
f 1180//386 1181//386 1182//386
f 1183//387 1184//387 1185//387
f 1186//388 1187//388 1188//388
f 1189//389 1190//389 1191//389
f 1192//390 1193//390 1194//390
f 1195//391 1196//391 1197//391
f 1198//392 1199//392 1200//392
f 1201//393 1202//393 1203//393
f 1204//394 1205//394 1206//394
f 1207//395 1208//395 1209//395
f 1210//396 1211//396 1212//396
f 1213//397 1214//397 1215//397
f 1216//398 1217//398 1218//398
f 1219//399 1220//399 1221//399
f 1222//400 1223//400 1224//400
f 1225//401 1226//401 1227//401
f 1228//402 1229//402 1230//402
f 1231//403 1232//403 1233//403
f 1234//404 1235//404 1236//404
f 1237//405 1238//405 1239//405
f 1240//406 1241//406 1242//406
f 1243//407 1244//407 1245//407
f 1246//408 1247//408 1248//408
f 1249//409 1250//409 1251//409
f 1252//410 1253//410 1254//410
f 1255//411 1256//411 1257//411
f 1258//412 1259//412 1260//412
f 1261//413 1262//413 1263//413
f 1264//414 1265//414 1266//414
f 1267//415 1268//415 1269//415
f 1270//416 1271//416 1272//416
f 1273//417 1274//417 1275//417
f 1276//418 1277//418 1278//418
f 1279//419 1280//419 1281//419
f 1282//420 1283//420 1284//420
f 1285//421 1286//421 1287//421
f 1288//422 1289//422 1290//422
f 1291//423 1292//423 1293//423
f 1294//424 1295//424 1296//424
f 1297//425 1298//425 1299//425
f 1300//426 1301//426 1302//426
f 1303//427 1304//427 1305//427
f 1306//428 1307//428 1308//428
f 1309//429 1310//429 1311//429
f 1312//430 1313//430 1314//430
f 1315//431 1316//431 1317//431
f 1318//432 1319//432 1320//432
f 1321//433 1322//433 1323//433
f 1324//434 1325//434 1326//434
f 1327//435 1328//435 1329//435
f 1330//436 1331//436 1332//436
f 1333//437 1334//437 1335//437
f 1336//438 1337//438 1338//438
f 1339//439 1340//439 1341//439
f 1342//440 1343//440 1344//440
f 1345//441 1346//441 1347//441
f 1348//442 1349//442 1350//442
f 1351//443 1352//443 1353//443
f 1354//444 1355//444 1356//444
f 1357//445 1358//445 1359//445
f 1360//446 1361//446 1362//446
f 1363//447 1364//447 1365//447
f 1366//448 1367//448 1368//448
f 1369//449 1370//449 1371//449
f 1372//450 1373//450 1374//450
f 1375//451 1376//451 1377//451
f 1378//452 1379//452 1380//452
f 1381//453 1382//453 1383//453
f 1384//454 1385//454 1386//454
f 1387//455 1388//455 1389//455
f 1390//456 1391//456 1392//456
f 1393//457 1394//457 1395//457
f 1396//458 1397//458 1398//458
f 1399//459 1400//459 1401//459
f 1402//460 1403//460 1404//460
f 1405//461 1406//461 1407//461
