# Blender 4.5.10 LTS
# www.blender.org
mtllib iiwa_link_4_vis_3.mtl
o node
v -0.045460 0.027243 -0.125221
v -0.044200 0.028409 -0.121163
v -0.040464 0.031384 -0.124063
v -0.044200 0.028409 -0.121163
v -0.042878 0.029513 -0.117095
v -0.039467 0.032116 -0.121139
v -0.039467 0.032116 -0.121139
v -0.039969 0.031755 -0.122602
v -0.044200 0.028409 -0.121163
v -0.039969 0.031755 -0.122602
v -0.040464 0.031384 -0.124063
v -0.044200 0.028409 -0.121163
v -0.033872 0.035711 -0.117095
v -0.037521 0.033455 -0.121139
v -0.039467 0.032116 -0.121139
v -0.035435 0.034785 -0.126988
v -0.030826 0.037313 -0.125234
v -0.029306 0.038113 -0.129294
v -0.033872 0.035711 -0.117095
v -0.030826 0.037313 -0.125234
v -0.036481 0.034125 -0.124064
v -0.030826 0.037313 -0.125234
v -0.035435 0.034785 -0.126988
v -0.035961 0.034460 -0.125526
v -0.035961 0.034460 -0.125526
v -0.036481 0.034125 -0.124064
v -0.030826 0.037313 -0.125234
v -0.036481 0.034125 -0.124064
v -0.037521 0.033455 -0.121139
v -0.033872 0.035711 -0.117095
v -0.029306 0.038113 -0.129294
v -0.027745 0.038835 -0.133362
v -0.035435 0.034785 -0.126988
v -0.039467 0.032116 -0.121139
v -0.042878 0.029513 -0.117095
v -0.033872 0.035711 -0.117095
v -0.047988 0.024903 -0.133362
v -0.043092 0.029337 -0.131935
v -0.043209 0.029242 -0.132292
v -0.047988 0.024903 -0.133362
v -0.041454 0.030641 -0.126988
v -0.042624 0.029719 -0.130508
v -0.042624 0.029719 -0.130508
v -0.043092 0.029337 -0.131935
v -0.047988 0.024903 -0.133362
v -0.034156 0.035547 -0.130508
v -0.042624 0.029719 -0.130508
v -0.041454 0.030641 -0.126988
v -0.041454 0.030641 -0.126988
v -0.035435 0.034785 -0.126988
v -0.034156 0.035547 -0.130508
v -0.027745 0.038835 -0.133362
v -0.033764 0.035773 -0.131578
v -0.034156 0.035547 -0.130508
v -0.027745 0.038835 -0.133362
v -0.033632 0.035848 -0.131936
v -0.033764 0.035773 -0.131578
v -0.027745 0.038835 -0.133362
v -0.033107 0.036146 -0.133362
v -0.033632 0.035848 -0.131936
v -0.034156 0.035547 -0.130508
v -0.035435 0.034785 -0.126988
v -0.027745 0.038835 -0.133362
v -0.043209 0.029242 -0.132292
v -0.043557 0.028952 -0.133362
v -0.047988 0.024903 -0.133362
v -0.040464 0.031384 -0.124063
v -0.041454 0.030641 -0.126988
v -0.045460 0.027243 -0.125221
v -0.041454 0.030641 -0.126988
v -0.047988 0.024903 -0.133362
v -0.045460 0.027243 -0.125221
v -0.030595 -0.083758 -0.125049
v -0.031387 -0.083326 -0.120065
v -0.032192 -0.082925 -0.120829
v -0.028253 -0.084885 -0.117095
v -0.026020 -0.085761 -0.121052
v -0.023771 -0.086744 -0.119088
v -0.026020 -0.085761 -0.121052
v -0.028253 -0.084885 -0.117095
v -0.031387 -0.083326 -0.120065
v -0.031387 -0.083326 -0.120065
v -0.030595 -0.083758 -0.125049
v -0.026020 -0.085761 -0.121052
v -0.023771 -0.086744 -0.119088
v -0.021423 -0.087574 -0.117095
v -0.028253 -0.084885 -0.117095
v -0.032192 -0.082925 -0.120829
v -0.034495 -0.081627 -0.123072
v -0.030595 -0.083758 -0.125049
v -0.040835 -0.077391 -0.117095
v -0.036568 -0.080355 -0.127116
v -0.036568 -0.080355 -0.123072
v -0.029878 -0.084115 -0.131799
v -0.028253 -0.084884 -0.133362
v -0.026028 -0.085804 -0.129236
v -0.027217 -0.085348 -0.128171
v -0.031443 -0.083269 -0.130252
v -0.029878 -0.084115 -0.131799
v -0.031443 -0.083269 -0.130252
v -0.027217 -0.085348 -0.128171
v -0.030595 -0.083758 -0.125049
v -0.030595 -0.083758 -0.125049
v -0.034616 -0.081556 -0.127116
v -0.031443 -0.083269 -0.130252
v -0.028253 -0.084884 -0.133362
v -0.021423 -0.087573 -0.133362
v -0.026028 -0.085804 -0.129236
v -0.036568 -0.080355 -0.123072
v -0.036568 -0.080355 -0.127116
v -0.034616 -0.081556 -0.127116
v -0.034616 -0.081556 -0.127116
v -0.030595 -0.083758 -0.125049
v -0.036568 -0.080355 -0.123072
v -0.026028 -0.085804 -0.129236
v -0.027217 -0.085348 -0.128171
v -0.029878 -0.084115 -0.131799
v -0.040835 -0.077391 -0.133362
v -0.036568 -0.080354 -0.133362
v -0.036568 -0.080355 -0.127116
v -0.036568 -0.080355 -0.127116
v -0.040835 -0.077391 -0.117095
v -0.040835 -0.077391 -0.133362
v -0.036568 -0.080355 -0.123072
v -0.036568 -0.080354 -0.117095
v -0.040835 -0.077391 -0.117095
v -0.034495 -0.081627 -0.123072
v -0.036568 -0.080355 -0.123072
v -0.030595 -0.083758 -0.125049
v -0.019693 -0.088122 -0.117095
v -0.019693 -0.088123 -0.127693
v -0.014672 -0.089436 -0.126616
v -0.012808 -0.089821 -0.129404
v -0.013468 -0.089686 -0.128417
v -0.017742 -0.088679 -0.132221
v -0.019553 -0.088164 -0.129550
v -0.013468 -0.089686 -0.128417
v -0.014672 -0.089436 -0.126616
v -0.014672 -0.089436 -0.126616
v -0.019693 -0.088123 -0.127693
v -0.019553 -0.088164 -0.129550
v -0.019553 -0.088164 -0.129550
v -0.017742 -0.088679 -0.132221
v -0.013468 -0.089686 -0.128417
v -0.017742 -0.088679 -0.132221
v -0.017525 -0.088740 -0.132541
v -0.012808 -0.089821 -0.129404
v -0.012955 -0.089793 -0.133664
v -0.011829 -0.090002 -0.129489
v -0.012808 -0.089821 -0.129404
v -0.005593 -0.090809 -0.133664
v -0.006734 -0.090706 -0.129489
v -0.011829 -0.090002 -0.129489
v -0.011829 -0.090002 -0.129489
v -0.012955 -0.089793 -0.133664
v -0.005593 -0.090809 -0.133664
v -0.002615 -0.090989 -0.133335
v -0.004915 -0.090848 -0.128270
v -0.006734 -0.090706 -0.129489
v -0.000720 -0.091022 -0.132134
v -0.003932 -0.090926 -0.127611
v -0.004915 -0.090848 -0.128270
v -0.004915 -0.090848 -0.128270
v -0.002615 -0.090989 -0.133335
v -0.000720 -0.091022 -0.132134
v -0.000720 -0.091022 -0.132134
v 0.000215 -0.091039 -0.131542
v -0.003932 -0.090926 -0.127611
v -0.006734 -0.090706 -0.129489
v -0.005593 -0.090809 -0.133664
v -0.002615 -0.090989 -0.133335
v -0.012808 -0.089821 -0.129404
v -0.017525 -0.088740 -0.132541
v -0.012955 -0.089793 -0.133664
v 0.001344 -0.091026 -0.127693
v -0.003844 -0.090930 -0.126616
v -0.003932 -0.090926 -0.127611
v 0.001344 -0.091027 -0.117095
v -0.003844 -0.090930 -0.117095
v -0.003844 -0.090930 -0.126616
v -0.003844 -0.090930 -0.126616
v 0.001344 -0.091026 -0.127693
v 0.001344 -0.091027 -0.117095
v -0.003932 -0.090926 -0.127611
v 0.000215 -0.091039 -0.131542
v 0.001344 -0.091026 -0.127693
v -0.014672 -0.089436 -0.126616
v -0.014672 -0.089436 -0.117095
v -0.019693 -0.088122 -0.117095
v 0.016832 -0.088895 -0.120089
v 0.013413 -0.089700 -0.123072
v 0.017736 -0.088680 -0.125049
v 0.017693 -0.088692 -0.119338
v 0.020127 -0.087986 -0.123056
v 0.022437 -0.087127 -0.121083
v 0.022437 -0.087127 -0.121083
v 0.020230 -0.087955 -0.117095
v 0.017693 -0.088692 -0.119338
v 0.017693 -0.088692 -0.119338
v 0.016832 -0.088895 -0.120089
v 0.020127 -0.087986 -0.123056
v 0.017736 -0.088680 -0.125049
v 0.020127 -0.087986 -0.123056
v 0.016832 -0.088895 -0.120089
v 0.022437 -0.087127 -0.121083
v 0.027107 -0.085391 -0.117095
v 0.020230 -0.087955 -0.117095
v 0.005873 -0.090785 -0.117095
v 0.011021 -0.090139 -0.127116
v 0.011021 -0.090139 -0.123072
v 0.022447 -0.087172 -0.129187
v 0.017736 -0.088680 -0.125049
v 0.016760 -0.088888 -0.130235
v 0.017736 -0.088680 -0.125049
v 0.013276 -0.089728 -0.127116
v 0.015033 -0.089353 -0.128679
v 0.015033 -0.089353 -0.128679
v 0.016760 -0.088888 -0.130235
v 0.017736 -0.088680 -0.125049
v 0.020230 -0.087954 -0.133362
v 0.027107 -0.085391 -0.133362
v 0.023645 -0.086787 -0.130240
v 0.023645 -0.086787 -0.130240
v 0.022447 -0.087172 -0.129187
v 0.020230 -0.087954 -0.133362
v 0.011021 -0.090139 -0.123072
v 0.011021 -0.090139 -0.127116
v 0.013276 -0.089728 -0.127116
v 0.013276 -0.089728 -0.127116
v 0.017736 -0.088680 -0.125049
v 0.011021 -0.090139 -0.123072
v 0.016760 -0.088888 -0.130235
v 0.020230 -0.087954 -0.133362
v 0.022447 -0.087172 -0.129187
v 0.005873 -0.090784 -0.133362
v 0.011021 -0.090138 -0.133362
v 0.011021 -0.090139 -0.127116
v 0.011021 -0.090139 -0.127116
v 0.005873 -0.090785 -0.117095
v 0.005873 -0.090784 -0.133362
v 0.011021 -0.090139 -0.123072
v 0.011021 -0.090138 -0.117095
v 0.005873 -0.090785 -0.117095
v 0.013413 -0.089700 -0.123072
v 0.011021 -0.090139 -0.123072
v 0.017736 -0.088680 -0.125049
v 0.045450 -0.073522 -0.125221
v 0.044190 -0.074688 -0.121163
v 0.040454 -0.077662 -0.124063
v 0.044190 -0.074688 -0.121163
v 0.042868 -0.075791 -0.117095
v 0.039457 -0.078394 -0.121139
v 0.039457 -0.078394 -0.121139
v 0.039959 -0.078033 -0.122602
v 0.044190 -0.074688 -0.121163
v 0.039959 -0.078033 -0.122602
v 0.040454 -0.077662 -0.124063
v 0.044190 -0.074688 -0.121163
v 0.033862 -0.081990 -0.117095
v 0.037511 -0.079734 -0.121139
v 0.039457 -0.078394 -0.121139
v 0.035425 -0.081063 -0.126988
v 0.030816 -0.083593 -0.125234
v 0.029296 -0.084391 -0.129294
v 0.033862 -0.081990 -0.117095
v 0.030816 -0.083593 -0.125234
v 0.036471 -0.080403 -0.124064
v 0.030816 -0.083593 -0.125234
v 0.035425 -0.081063 -0.126988
v 0.035951 -0.080739 -0.125526
v 0.035951 -0.080739 -0.125526
v 0.036471 -0.080403 -0.124064
v 0.030816 -0.083593 -0.125234
v 0.036471 -0.080403 -0.124064
v 0.037511 -0.079734 -0.121139
v 0.033862 -0.081990 -0.117095
v 0.029296 -0.084391 -0.129294
v 0.027735 -0.085115 -0.133362
v 0.035425 -0.081063 -0.126988
v 0.039457 -0.078394 -0.121139
v 0.042868 -0.075791 -0.117095
v 0.033862 -0.081990 -0.117095
v 0.047978 -0.071181 -0.133362
v 0.043082 -0.075616 -0.131935
v 0.043199 -0.075522 -0.132292
v 0.047978 -0.071181 -0.133362
v 0.041444 -0.076920 -0.126988
v 0.042614 -0.075999 -0.130508
v 0.042614 -0.075999 -0.130508
v 0.043082 -0.075616 -0.131935
v 0.047978 -0.071181 -0.133362
v 0.034146 -0.081826 -0.130508
v 0.042614 -0.075999 -0.130508
v 0.041444 -0.076920 -0.126988
v 0.041444 -0.076920 -0.126988
v 0.035425 -0.081063 -0.126988
v 0.034146 -0.081826 -0.130508
v 0.027735 -0.085115 -0.133362
v 0.033754 -0.082053 -0.131578
v 0.034146 -0.081826 -0.130508
v 0.027735 -0.085115 -0.133362
v 0.033622 -0.082127 -0.131936
v 0.033754 -0.082053 -0.131578
v 0.027735 -0.085115 -0.133362
v 0.033097 -0.082424 -0.133362
v 0.033622 -0.082127 -0.131936
v 0.034146 -0.081826 -0.130508
v 0.035425 -0.081063 -0.126988
v 0.027735 -0.085115 -0.133362
v 0.043199 -0.075522 -0.132292
v 0.043547 -0.075232 -0.133362
v 0.047978 -0.071181 -0.133362
v 0.040454 -0.077662 -0.124063
v 0.041444 -0.076920 -0.126988
v 0.045450 -0.073522 -0.125221
v 0.041444 -0.076920 -0.126988
v 0.047978 -0.071181 -0.133362
v 0.045450 -0.073522 -0.125221
v 0.030585 0.037479 -0.125049
v 0.031377 0.037048 -0.120065
v 0.032182 0.036647 -0.120829
v 0.028243 0.038606 -0.117095
v 0.026010 0.039482 -0.121052
v 0.023761 0.040465 -0.119087
v 0.026010 0.039482 -0.121052
v 0.028243 0.038606 -0.117095
v 0.031377 0.037048 -0.120065
v 0.031377 0.037048 -0.120065
v 0.030585 0.037479 -0.125049
v 0.026010 0.039482 -0.121052
v 0.023761 0.040465 -0.119087
v 0.021413 0.041295 -0.117095
v 0.028243 0.038606 -0.117095
v 0.032182 0.036647 -0.120829
v 0.034485 0.035349 -0.123072
v 0.030585 0.037479 -0.125049
v 0.040825 0.031112 -0.117095
v 0.036558 0.034076 -0.127116
v 0.036558 0.034076 -0.123072
v 0.029868 0.037837 -0.131799
v 0.028243 0.038606 -0.133362
v 0.026018 0.039526 -0.129236
v 0.027206 0.039069 -0.128171
v 0.031434 0.036991 -0.130251
v 0.029868 0.037837 -0.131799
v 0.031434 0.036991 -0.130251
v 0.027206 0.039069 -0.128171
v 0.030585 0.037479 -0.125049
v 0.030585 0.037479 -0.125049
v 0.034606 0.035278 -0.127116
v 0.031434 0.036991 -0.130251
v 0.028243 0.038606 -0.133362
v 0.021413 0.041295 -0.133362
v 0.026018 0.039526 -0.129236
v 0.036558 0.034076 -0.123072
v 0.036558 0.034076 -0.127116
v 0.034606 0.035278 -0.127116
v 0.034606 0.035278 -0.127116
v 0.030585 0.037479 -0.125049
v 0.036558 0.034076 -0.123072
v 0.026018 0.039526 -0.129236
v 0.027206 0.039069 -0.128171
v 0.029868 0.037837 -0.131799
v 0.040825 0.031113 -0.133362
v 0.036558 0.034076 -0.133362
v 0.036558 0.034076 -0.127116
v 0.036558 0.034076 -0.127116
v 0.040825 0.031112 -0.117095
v 0.040825 0.031113 -0.133362
v 0.036558 0.034076 -0.123072
v 0.036558 0.034076 -0.117095
v 0.040825 0.031112 -0.117095
v 0.034485 0.035349 -0.123072
v 0.036558 0.034076 -0.123072
v 0.030585 0.037479 -0.125049
v 0.019683 0.041844 -0.117095
v 0.019683 0.041843 -0.127693
v 0.014662 0.043157 -0.126616
v 0.014127 0.043273 -0.128548
v 0.014662 0.043157 -0.126616
v 0.019683 0.041843 -0.127693
v 0.019683 0.041843 -0.127693
v 0.019555 0.041883 -0.129492
v 0.014127 0.043273 -0.128548
v 0.019555 0.041883 -0.129492
v 0.017757 0.042393 -0.132224
v 0.014127 0.043273 -0.128548
v 0.017577 0.042445 -0.132497
v 0.013912 0.043317 -0.128686
v 0.014127 0.043273 -0.128548
v 0.017577 0.042445 -0.132497
v 0.012945 0.043515 -0.133664
v 0.012797 0.043542 -0.129404
v 0.012797 0.043542 -0.129404
v 0.013912 0.043317 -0.128686
v 0.017577 0.042445 -0.132497
v 0.005583 0.044531 -0.133664
v 0.006724 0.044427 -0.129489
v 0.011819 0.043724 -0.129489
v 0.011819 0.043724 -0.129489
v 0.012945 0.043515 -0.133664
v 0.005583 0.044531 -0.133664
v 0.011819 0.043724 -0.129489
v 0.012797 0.043542 -0.129404
v 0.012945 0.043515 -0.133664
v 0.004799 0.044591 -0.133655
v 0.004906 0.044570 -0.128258
v 0.006724 0.044427 -0.129489
v 0.006724 0.044427 -0.129489
v 0.005583 0.044531 -0.133664
v 0.004799 0.044591 -0.133655
v 0.000742 0.044744 -0.132136
v 0.003916 0.044647 -0.127588
v 0.004906 0.044570 -0.128258
v 0.004906 0.044570 -0.128258
v 0.002283 0.044722 -0.133230
v 0.000742 0.044744 -0.132136
v 0.004799 0.044591 -0.133655
v 0.002283 0.044722 -0.133230
v 0.004906 0.044570 -0.128258
v 0.000742 0.044744 -0.132136
v -0.000391 0.044760 -0.131332
v 0.003916 0.044647 -0.127588
v 0.014127 0.043273 -0.128548
v 0.017757 0.042393 -0.132224
v 0.017577 0.042445 -0.132497
v -0.001354 0.044748 -0.127693
v 0.003834 0.044652 -0.126616
v 0.003916 0.044647 -0.127588
v -0.001354 0.044747 -0.117095
v 0.003834 0.044652 -0.117095
v 0.003834 0.044652 -0.126616
v 0.003834 0.044652 -0.126616
v -0.001354 0.044748 -0.127693
v -0.001354 0.044747 -0.117095
v 0.003916 0.044647 -0.127588
v -0.000391 0.044760 -0.131332
v -0.001354 0.044748 -0.127693
v 0.014662 0.043157 -0.126616
v 0.014662 0.043158 -0.117095
v 0.019683 0.041844 -0.117095
v -0.016842 0.042617 -0.120089
v -0.013423 0.043422 -0.123072
v -0.017746 0.042402 -0.125049
v -0.017703 0.042414 -0.119338
v -0.020137 0.041707 -0.123056
v -0.022447 0.040849 -0.121083
v -0.022447 0.040849 -0.121083
v -0.020240 0.041676 -0.117095
v -0.017703 0.042414 -0.119338
v -0.017703 0.042414 -0.119338
v -0.016842 0.042617 -0.120089
v -0.020137 0.041707 -0.123056
v -0.022447 0.040849 -0.121083
v -0.027117 0.039113 -0.117095
v -0.020240 0.041676 -0.117095
v -0.017746 0.042402 -0.125049
v -0.020137 0.041707 -0.123056
v -0.016842 0.042617 -0.120089
v -0.005883 0.044506 -0.117095
v -0.011031 0.043859 -0.127116
v -0.011031 0.043860 -0.123072
v -0.022457 0.040893 -0.129187
v -0.017746 0.042402 -0.125049
v -0.016770 0.042610 -0.130235
v -0.020240 0.041676 -0.133362
v -0.027117 0.039113 -0.133362
v -0.023655 0.040509 -0.130240
v -0.023655 0.040509 -0.130240
v -0.022457 0.040893 -0.129187
v -0.020240 0.041676 -0.133362
v -0.017746 0.042402 -0.125049
v -0.013286 0.043449 -0.127116
v -0.015043 0.043075 -0.128679
v -0.015043 0.043075 -0.128679
v -0.016770 0.042610 -0.130235
v -0.017746 0.042402 -0.125049
v -0.011031 0.043860 -0.123072
v -0.011031 0.043859 -0.127116
v -0.013286 0.043449 -0.127116
v -0.013286 0.043449 -0.127116
v -0.017746 0.042402 -0.125049
v -0.011031 0.043860 -0.123072
v -0.016770 0.042610 -0.130235
v -0.020240 0.041676 -0.133362
v -0.022457 0.040893 -0.129187
v -0.005883 0.044506 -0.133362
v -0.011031 0.043860 -0.133362
v -0.011031 0.043859 -0.127116
v -0.011031 0.043859 -0.127116
v -0.005883 0.044506 -0.117095
v -0.005883 0.044506 -0.133362
v -0.011031 0.043860 -0.123072
v -0.011031 0.043860 -0.117095
v -0.005883 0.044506 -0.117095
v -0.013423 0.043422 -0.123072
v -0.011031 0.043860 -0.123072
v -0.017746 0.042402 -0.125049
vn -0.6345 0.7725 -0.0252
vn -0.6164 0.7873 -0.0132
vn -0.6165 0.7872 0.0173
vn -0.6181 0.7860 0.0098
vn -0.5661 0.8227 0.0516
vn -0.4791 0.8777 -0.0066
vn -0.4933 0.8698 -0.0134
vn -0.4865 0.8734 0.0191
vn -0.4868 0.8731 0.0269
vn -0.5305 0.8477 0.0056
vn -0.4860 0.8734 -0.0313
vn -0.5662 0.8226 0.0519
vn -0.6751 0.7373 0.0250
vn -0.6774 0.7349 0.0326
vn -0.6750 0.7374 0.0240
vn -0.5667 0.8234 -0.0273
vn -0.5668 0.8234 -0.0275
vn -0.4474 0.8940 0.0249
vn -0.4488 0.8934 0.0193
vn -0.4483 0.8936 0.0217
vn -0.4446 0.8951 0.0325
vn -0.6745 0.7380 0.0194
vn -0.6411 0.7672 0.0224
vn -0.6510 0.7589 -0.0160
vn -0.4503 -0.8929 0.0058
vn -0.3892 -0.9210 -0.0157
vn -0.4181 -0.9077 -0.0350
vn -0.4109 -0.9116 0.0137
vn -0.3660 -0.9296 0.0445
vn -0.4834 -0.8753 -0.0102
vn -0.5704 -0.8214 -0.0000
vn -0.4124 -0.9108 0.0193
vn -0.4528 -0.8911 0.0293
vn -0.4360 -0.8998 -0.0135
vn -0.4785 -0.8781 -0.0045
vn -0.3663 -0.9304 -0.0099
vn -0.5243 -0.8515 -0.0000
vn -0.4892 -0.8718 0.0230
vn -0.3832 -0.9231 -0.0326
vn -0.5199 -0.8467 -0.1130
vn -0.2532 -0.9674 -0.0000
vn -0.2191 -0.9756 -0.0121
vn -0.2381 -0.9709 -0.0249
vn -0.2537 -0.9673 0.0027
vn -0.2459 -0.9691 0.0198
vn -0.2394 -0.9706 0.0255
vn -0.1818 -0.9833 -0.0002
vn -0.1367 -0.9905 -0.0127
vn -0.0743 -0.9972 -0.0060
vn -0.0627 -0.9978 -0.0231
vn -0.0272 -0.9995 0.0155
vn -0.0219 -0.9997 0.0059
vn -0.0612 -0.9981 0.0081
vn -0.2242 -0.9745 0.0013
vn -0.0192 -0.9998 -0.0033
vn -0.0185 -0.9998 -0.0000
vn -0.0190 -0.9998 0.0089
vn 0.2295 -0.9733 -0.0004
vn 0.3239 -0.9455 0.0325
vn 0.3033 -0.9524 -0.0297
vn 0.2475 -0.9686 -0.0219
vn 0.2726 -0.9621 0.0080
vn 0.3492 -0.9370 -0.0010
vn 0.1245 -0.9922 -0.0000
vn 0.2918 -0.9563 -0.0166
vn 0.2219 -0.9749 0.0155
vn 0.2526 -0.9675 -0.0087
vn 0.3490 -0.9366 -0.0317
vn 0.3142 -0.9493 0.0112
vn 0.1789 -0.9839 -0.0000
vn 0.2186 -0.9755 0.0230
vn 0.2840 -0.9584 0.0289
vn 0.1790 -0.9774 -0.1129
vn 0.6345 -0.7725 -0.0251
vn 0.6164 -0.7873 -0.0132
vn 0.6165 -0.7872 0.0173
vn 0.6181 -0.7860 0.0098
vn 0.5661 -0.8227 0.0517
vn 0.4791 -0.8777 -0.0066
vn 0.4933 -0.8698 -0.0134
vn 0.4865 -0.8734 0.0191
vn 0.4868 -0.8731 0.0269
vn 0.5305 -0.8477 0.0056
vn 0.4860 -0.8734 -0.0313
vn 0.5662 -0.8226 0.0519
vn 0.6752 -0.7372 0.0252
vn 0.6774 -0.7349 0.0327
vn 0.6750 -0.7374 0.0239
vn 0.5667 -0.8235 -0.0273
vn 0.5668 -0.8234 -0.0274
vn 0.4474 -0.8940 0.0249
vn 0.4488 -0.8934 0.0193
vn 0.4483 -0.8936 0.0217
vn 0.4446 -0.8951 0.0325
vn 0.6745 -0.7380 0.0194
vn 0.6411 -0.7672 0.0224
vn 0.6510 -0.7589 -0.0160
vn 0.4503 0.8929 0.0058
vn 0.3892 0.9210 -0.0157
vn 0.4181 0.9077 -0.0350
vn 0.4109 0.9116 0.0137
vn 0.3660 0.9296 0.0445
vn 0.4834 0.8753 -0.0102
vn 0.5704 0.8214 -0.0000
vn 0.4124 0.9108 0.0193
vn 0.4526 0.8912 0.0292
vn 0.4359 0.8999 -0.0134
vn 0.4786 0.8780 -0.0044
vn 0.3663 0.9304 -0.0099
vn 0.5243 0.8515 -0.0000
vn 0.4892 0.8718 0.0230
vn 0.3834 0.9230 -0.0324
vn 0.5199 0.8467 -0.1130
vn 0.2532 0.9674 -0.0000
vn 0.2509 0.9680 -0.0114
vn 0.2488 0.9686 0.0033
vn 0.2508 0.9679 0.0160
vn 0.2099 0.9775 -0.0218
vn 0.2247 0.9744 0.0014
vn 0.2112 0.9772 -0.0205
vn 0.1367 0.9905 -0.0127
vn 0.1820 0.9833 -0.0001
vn 0.0800 0.9968 0.0023
vn 0.0764 0.9971 0.0040
vn 0.0631 0.9977 -0.0229
vn 0.0261 0.9995 0.0168
vn 0.0525 0.9986 0.0029
vn 0.0195 0.9998 0.0075
vn 0.2506 0.9680 0.0157
vn 0.0190 0.9998 -0.0026
vn 0.0185 0.9998 -0.0000
vn 0.0188 0.9998 0.0083
vn -0.2295 0.9733 -0.0004
vn -0.3239 0.9455 0.0325
vn -0.3033 0.9524 -0.0297
vn -0.2475 0.9686 -0.0219
vn -0.3492 0.9370 -0.0010
vn -0.2726 0.9621 0.0080
vn -0.1245 0.9922 -0.0000
vn -0.2918 0.9563 -0.0166
vn -0.3490 0.9366 -0.0317
vn -0.3141 0.9493 0.0112
vn -0.2219 0.9749 0.0155
vn -0.2526 0.9675 -0.0087
vn -0.1789 0.9839 -0.0000
vn -0.2186 0.9755 0.0230
vn -0.2840 0.9584 0.0289
vn -0.1790 0.9774 -0.1129
s 1
usemtl material_0
f 1//1 2//1 3//1
f 4//2 5//2 6//2
f 7//3 8//3 9//3
f 10//4 11//4 12//4
f 13//5 14//5 15//5
f 16//6 17//6 18//6
f 19//7 20//7 21//7
f 22//8 23//8 24//8
f 25//9 26//9 27//9
f 28//10 29//10 30//10
f 31//11 32//11 33//11
f 34//12 35//12 36//12
f 37//13 38//13 39//13
f 40//14 41//14 42//14
f 43//15 44//15 45//15
f 46//16 47//16 48//16
f 49//17 50//17 51//17
f 52//18 53//18 54//18
f 55//19 56//19 57//19
f 58//20 59//20 60//20
f 61//21 62//21 63//21
f 64//22 65//22 66//22
f 67//23 68//23 69//23
f 70//24 71//24 72//24
f 73//25 74//25 75//25
f 76//26 77//26 78//26
f 79//27 80//27 81//27
f 82//28 83//28 84//28
f 85//29 86//29 87//29
f 88//30 89//30 90//30
f 91//31 92//31 93//31
f 94//32 95//32 96//32
f 97//33 98//33 99//33
f 100//34 101//34 102//34
f 103//35 104//35 105//35
f 106//36 107//36 108//36
f 109//37 110//37 111//37
f 112//38 113//38 114//38
f 115//39 116//39 117//39
f 118//31 119//31 120//31
f 121//31 122//31 123//31
f 124//31 125//31 126//31
f 127//40 128//40 129//40
f 130//41 131//41 132//41
f 133//42 134//42 135//42
f 136//43 137//43 138//43
f 139//44 140//44 141//44
f 142//45 143//45 144//45
f 145//46 146//46 147//46
f 148//47 149//47 150//47
f 151//48 152//48 153//48
f 154//48 155//48 156//48
f 157//49 158//49 159//49
f 160//50 161//50 162//50
f 163//51 164//51 165//51
f 166//52 167//52 168//52
f 169//53 170//53 171//53
f 172//54 173//54 174//54
f 175//55 176//55 177//55
f 178//56 179//56 180//56
f 181//56 182//56 183//56
f 184//57 185//57 186//57
f 187//41 188//41 189//41
f 190//58 191//58 192//58
f 193//59 194//59 195//59
f 196//60 197//60 198//60
f 199//61 200//61 201//61
f 202//62 203//62 204//62
f 205//63 206//63 207//63
f 208//64 209//64 210//64
f 211//65 212//65 213//65
f 214//66 215//66 216//66
f 217//67 218//67 219//67
f 220//68 221//68 222//68
f 223//69 224//69 225//69
f 226//70 227//70 228//70
f 229//71 230//71 231//71
f 232//72 233//72 234//72
f 235//64 236//64 237//64
f 238//64 239//64 240//64
f 241//64 242//64 243//64
f 244//73 245//73 246//73
f 247//74 248//74 249//74
f 250//75 251//75 252//75
f 253//76 254//76 255//76
f 256//77 257//77 258//77
f 259//78 260//78 261//78
f 262//79 263//79 264//79
f 265//80 266//80 267//80
f 268//81 269//81 270//81
f 271//82 272//82 273//82
f 274//83 275//83 276//83
f 277//84 278//84 279//84
f 280//85 281//85 282//85
f 283//86 284//86 285//86
f 286//87 287//87 288//87
f 289//88 290//88 291//88
f 292//89 293//89 294//89
f 295//90 296//90 297//90
f 298//91 299//91 300//91
f 301//92 302//92 303//92
f 304//93 305//93 306//93
f 307//94 308//94 309//94
f 310//95 311//95 312//95
f 313//96 314//96 315//96
f 316//97 317//97 318//97
f 319//98 320//98 321//98
f 322//99 323//99 324//99
f 325//100 326//100 327//100
f 328//101 329//101 330//101
f 331//102 332//102 333//102
f 334//103 335//103 336//103
f 337//104 338//104 339//104
f 340//105 341//105 342//105
f 343//106 344//106 345//106
f 346//107 347//107 348//107
f 349//108 350//108 351//108
f 352//109 353//109 354//109
f 355//110 356//110 357//110
f 358//111 359//111 360//111
f 361//112 362//112 363//112
f 364//104 365//104 366//104
f 367//104 368//104 369//104
f 370//104 371//104 372//104
f 373//113 374//113 375//113
f 376//114 377//114 378//114
f 379//115 380//115 381//115
f 382//116 383//116 384//116
f 385//117 386//117 387//117
f 388//118 389//118 390//118
f 391//119 392//119 393//119
f 394//120 395//120 396//120
f 397//121 398//121 399//121
f 400//121 401//121 402//121
f 403//122 404//122 405//122
f 406//123 407//123 408//123
f 409//124 410//124 411//124
f 412//125 413//125 414//125
f 415//126 416//126 417//126
f 418//127 419//127 420//127
f 421//128 422//128 423//128
f 424//129 425//129 426//129
f 427//130 428//130 429//130
f 430//131 431//131 432//131
f 433//131 434//131 435//131
f 436//132 437//132 438//132
f 439//114 440//114 441//114
f 442//133 443//133 444//133
f 445//134 446//134 447//134
f 448//135 449//135 450//135
f 451//136 452//136 453//136
f 454//137 455//137 456//137
f 457//138 458//138 459//138
f 460//139 461//139 462//139
f 463//140 464//140 465//140
f 466//141 467//141 468//141
f 469//142 470//142 471//142
f 472//143 473//143 474//143
f 475//144 476//144 477//144
f 478//145 479//145 480//145
f 481//146 482//146 483//146
f 484//147 485//147 486//147
f 487//139 488//139 489//139
f 490//139 491//139 492//139
f 493//139 494//139 495//139
f 496//148 497//148 498//148
