# Blender 4.5.10 LTS
# www.blender.org
mtllib iiwa_link_7_vis_1.mtl
o node
v -0.052492 -0.055433 -0.012207
v -0.053558 -0.056814 -0.001711
v -0.057008 -0.046544 -0.008706
v -0.055504 -0.042820 -0.020916
v -0.057008 -0.046544 -0.008706
v -0.060234 -0.035448 -0.013782
v -0.050968 -0.061485 -0.007566
v -0.051853 -0.061788 0.002103
v -0.053558 -0.056814 -0.001711
v -0.049582 -0.053892 -0.022493
v -0.052492 -0.055433 -0.012207
v -0.055504 -0.042820 -0.020916
v -0.048316 -0.061147 -0.016938
v -0.050968 -0.061485 -0.007566
v -0.052492 -0.055433 -0.012207
v -0.043970 -0.060787 -0.025698
v -0.048316 -0.061147 -0.016938
v -0.049582 -0.053892 -0.022493
v -0.044842 -0.052262 -0.032281
v -0.038008 -0.058073 -0.035559
v -0.038001 -0.060072 -0.033902
v -0.044842 -0.052262 -0.032281
v -0.038046 -0.051039 -0.041344
v -0.038032 -0.052652 -0.040055
v -0.038032 -0.052652 -0.040055
v -0.038008 -0.058073 -0.035559
v -0.044842 -0.052262 -0.032281
v -0.038001 -0.060072 -0.033902
v -0.043970 -0.060787 -0.025698
v -0.044842 -0.052262 -0.032281
v -0.057654 -0.011580 0.041892
v -0.062454 -0.012448 0.024736
v -0.057810 -0.025651 0.034124
v -0.058823 0.001112 0.036579
v -0.063112 0.001589 0.015251
v -0.062454 -0.012448 0.024736
v -0.062454 -0.012448 0.024736
v -0.064397 -0.014130 0.015911
v -0.059554 -0.027472 0.027593
v -0.057810 -0.025651 0.034124
v -0.059554 -0.027472 0.027593
v -0.050568 -0.041564 0.033733
v -0.060558 -0.030448 0.021290
v -0.060239 -0.035275 0.016254
v -0.050484 -0.044937 0.030304
v -0.050484 -0.044937 0.030304
v -0.060239 -0.035275 0.016254
v -0.058502 -0.041321 0.013958
v -0.065466 -0.017682 0.007464
v -0.064953 -0.024254 0.001067
v -0.060239 -0.035275 0.016254
v -0.064397 -0.014130 0.015911
v -0.065466 -0.017682 0.007464
v -0.060558 -0.030448 0.021290
v -0.060239 -0.035275 0.016254
v -0.064009 -0.028449 -0.000553
v -0.062761 -0.032819 -0.001116
v -0.060239 -0.035275 0.016254
v -0.064953 -0.024254 0.001067
v -0.064009 -0.028449 -0.000553
v -0.064009 -0.028449 -0.000553
v -0.064346 -0.018083 -0.015864
v -0.063128 -0.023883 -0.016150
v -0.058502 -0.041321 0.013958
v -0.062761 -0.032819 -0.001116
v -0.059756 -0.041567 0.000059
v -0.060234 -0.035448 -0.013782
v -0.059756 -0.041567 0.000059
v -0.062761 -0.032819 -0.001116
v -0.056364 -0.050066 0.003514
v -0.053108 -0.053564 0.015781
v -0.056016 -0.047495 0.013994
v -0.057008 -0.046544 -0.008706
v -0.056364 -0.050066 0.003514
v -0.059756 -0.041567 0.000059
v -0.053558 -0.056814 -0.001711
v -0.052736 -0.058096 0.008750
v -0.056364 -0.050066 0.003514
v -0.043970 -0.060787 -0.025698
v -0.038000 -0.060561 -0.033653
v -0.039705 -0.063807 -0.030026
v -0.038000 -0.060561 -0.033653
v -0.037999 -0.063807 -0.031999
v -0.039705 -0.063807 -0.030026
v -0.048316 -0.061147 -0.016938
v -0.043970 -0.060787 -0.025698
v -0.044867 -0.063807 -0.022458
v -0.043970 -0.060787 -0.025698
v -0.043621 -0.063807 -0.024286
v -0.044867 -0.063807 -0.022458
v -0.050968 -0.061485 -0.007566
v -0.048316 -0.061147 -0.016938
v -0.048268 -0.063807 -0.015041
v -0.048316 -0.061147 -0.016938
v -0.047937 -0.063807 -0.015763
v -0.048268 -0.063807 -0.015041
v -0.048268 -0.063807 -0.015041
v -0.050451 -0.063807 -0.007193
v -0.050968 -0.061485 -0.007566
v -0.051853 -0.061788 0.002103
v -0.050968 -0.061485 -0.007566
v -0.050516 -0.063807 -0.006548
v -0.058559 0.014252 0.024096
v -0.062691 0.005329 0.012851
v -0.063112 0.001589 0.015251
v -0.063112 0.001589 0.015251
v -0.062691 0.005329 0.012851
v -0.063097 0.004452 0.011746
v -0.064397 -0.014130 0.015911
v -0.062454 -0.012448 0.024736
v -0.063112 0.001589 0.015251
v -0.063112 0.001589 0.015251
v -0.064475 0.000009 0.006117
v -0.064397 -0.014130 0.015911
v -0.065466 -0.017682 0.007464
v -0.064397 -0.014130 0.015911
v -0.065545 -0.003438 0.001752
v -0.064397 -0.014130 0.015911
v -0.064764 -0.000923 0.004937
v -0.065545 -0.003438 0.001752
v -0.065545 -0.003438 0.001752
v -0.065780 -0.004740 0.000095
v -0.065466 -0.017682 0.007464
v -0.064953 -0.024254 0.001067
v -0.065466 -0.017682 0.007464
v -0.065874 -0.007353 -0.003246
v -0.065874 -0.007353 -0.003246
v -0.066002 -0.010993 -0.007900
v -0.064953 -0.024254 0.001067
v -0.064570 -0.016953 -0.015589
v -0.064009 -0.028449 -0.000553
v -0.064953 -0.024254 0.001067
v -0.064953 -0.024254 0.001067
v -0.065211 -0.014284 -0.012145
v -0.064570 -0.016953 -0.015589
v -0.063720 -0.018915 -0.018136
v -0.063128 -0.023883 -0.016150
v -0.064346 -0.018083 -0.015864
v -0.064346 -0.018083 -0.015864
v -0.064266 -0.017656 -0.016502
v -0.063720 -0.018915 -0.018136
v -0.060030 -0.024960 -0.026030
v -0.058650 -0.026555 -0.028130
v -0.058255 -0.029078 -0.027493
v -0.060030 -0.024960 -0.026030
v -0.060234 -0.035448 -0.013782
v -0.063128 -0.023883 -0.016150
v -0.063128 -0.023883 -0.016150
v -0.062389 -0.021097 -0.020986
v -0.060030 -0.024960 -0.026030
v -0.054893 -0.030892 -0.033841
v -0.052864 -0.032747 -0.036302
v -0.052022 -0.038811 -0.032958
v -0.054893 -0.030892 -0.033841
v -0.055504 -0.042820 -0.020916
v -0.058255 -0.029078 -0.027493
v -0.058255 -0.029078 -0.027493
v -0.057351 -0.028054 -0.030105
v -0.054893 -0.030892 -0.033841
v -0.052022 -0.038811 -0.032958
v -0.052864 -0.032747 -0.036302
v -0.052459 -0.033117 -0.036793
v -0.044842 -0.052262 -0.032281
v -0.052022 -0.038811 -0.032958
v -0.048250 -0.036143 -0.040844
v -0.044842 -0.052262 -0.032281
v -0.049582 -0.053892 -0.022493
v -0.052022 -0.038811 -0.032958
v -0.045977 -0.037776 -0.043032
v -0.038125 -0.041903 -0.048649
v -0.038046 -0.051039 -0.041344
v -0.044842 -0.052262 -0.032281
v -0.046250 -0.037581 -0.042770
v -0.045977 -0.037776 -0.043032
v -0.038046 -0.051039 -0.041344
v -0.044842 -0.052262 -0.032281
v -0.045977 -0.037776 -0.043032
v -0.048250 -0.036143 -0.040844
v -0.046250 -0.037581 -0.042770
v -0.044842 -0.052262 -0.032281
v -0.052459 -0.033117 -0.036793
v -0.048250 -0.036143 -0.040844
v -0.052022 -0.038811 -0.032958
v -0.052022 -0.038811 -0.032958
v -0.055504 -0.042820 -0.020916
v -0.054893 -0.030892 -0.033841
v -0.057351 -0.028054 -0.030105
v -0.058255 -0.029078 -0.027493
v -0.058650 -0.026555 -0.028130
v -0.058255 -0.029078 -0.027493
v -0.060234 -0.035448 -0.013782
v -0.060030 -0.024960 -0.026030
v -0.063720 -0.018915 -0.018136
v -0.062389 -0.021097 -0.020986
v -0.063128 -0.023883 -0.016150
v -0.064266 -0.017656 -0.016502
v -0.064346 -0.018083 -0.015864
v -0.064570 -0.016953 -0.015589
v -0.064570 -0.016953 -0.015589
v -0.064346 -0.018083 -0.015864
v -0.064009 -0.028449 -0.000553
v -0.066002 -0.010993 -0.007900
v -0.065211 -0.014284 -0.012145
v -0.064953 -0.024254 0.001067
v -0.065780 -0.004740 0.000095
v -0.065874 -0.007353 -0.003246
v -0.065466 -0.017682 0.007464
v -0.064475 0.000009 0.006117
v -0.064764 -0.000923 0.004937
v -0.064397 -0.014130 0.015911
v -0.063097 0.004452 0.011746
v -0.064475 0.000009 0.006117
v -0.063112 0.001589 0.015251
v -0.050451 -0.063807 -0.007193
v -0.050516 -0.063807 -0.006548
v -0.050968 -0.061485 -0.007566
v -0.044867 -0.063807 -0.022458
v -0.047937 -0.063807 -0.015763
v -0.048316 -0.061147 -0.016938
v -0.039705 -0.063807 -0.030026
v -0.043621 -0.063807 -0.024286
v -0.043970 -0.060787 -0.025698
v -0.056364 -0.050066 0.003514
v -0.057008 -0.046544 -0.008706
v -0.053558 -0.056814 -0.001711
v -0.059756 -0.041567 0.000059
v -0.060234 -0.035448 -0.013782
v -0.057008 -0.046544 -0.008706
v -0.056016 -0.047495 0.013994
v -0.059756 -0.041567 0.000059
v -0.056364 -0.050066 0.003514
v -0.062761 -0.032819 -0.001116
v -0.063128 -0.023883 -0.016150
v -0.060234 -0.035448 -0.013782
v -0.059756 -0.041567 0.000059
v -0.056016 -0.047495 0.013994
v -0.058502 -0.041321 0.013958
v -0.063128 -0.023883 -0.016150
v -0.062761 -0.032819 -0.001116
v -0.064009 -0.028449 -0.000553
v -0.062761 -0.032819 -0.001116
v -0.058502 -0.041321 0.013958
v -0.060239 -0.035275 0.016254
v -0.060558 -0.030448 0.021290
v -0.059554 -0.027472 0.027593
v -0.064397 -0.014130 0.015911
v -0.060239 -0.035275 0.016254
v -0.060558 -0.030448 0.021290
v -0.065466 -0.017682 0.007464
v -0.059554 -0.027472 0.027593
v -0.060558 -0.030448 0.021290
v -0.050568 -0.041564 0.033733
v -0.059554 -0.027472 0.027593
v -0.057810 -0.025651 0.034124
v -0.062454 -0.012448 0.024736
v -0.038001 -0.060072 -0.033902
v -0.038000 -0.060561 -0.033653
v -0.043970 -0.060787 -0.025698
v -0.049582 -0.053892 -0.022493
v -0.044842 -0.052262 -0.032281
v -0.043970 -0.060787 -0.025698
v -0.052492 -0.055433 -0.012207
v -0.049582 -0.053892 -0.022493
v -0.048316 -0.061147 -0.016938
v -0.055504 -0.042820 -0.020916
v -0.052022 -0.038811 -0.032958
v -0.049582 -0.053892 -0.022493
v -0.053558 -0.056814 -0.001711
v -0.052492 -0.055433 -0.012207
v -0.050968 -0.061485 -0.007566
v -0.060234 -0.035448 -0.013782
v -0.058255 -0.029078 -0.027493
v -0.055504 -0.042820 -0.020916
v -0.057008 -0.046544 -0.008706
v -0.055504 -0.042820 -0.020916
v -0.052492 -0.055433 -0.012207
v -0.020993 -0.057396 -0.046914
v -0.010733 -0.057220 -0.050032
v -0.014829 -0.063807 -0.046602
v -0.030332 -0.057676 -0.041876
v -0.020993 -0.057396 -0.046914
v -0.022424 -0.063807 -0.043637
v -0.022424 -0.063807 -0.043637
v -0.030280 -0.063807 -0.038918
v -0.030332 -0.057676 -0.041876
v -0.020993 -0.057396 -0.046914
v -0.020959 -0.063807 -0.044208
v -0.022424 -0.063807 -0.043637
v -0.031268 -0.063807 -0.038179
v -0.038001 -0.060072 -0.033902
v -0.038008 -0.058073 -0.035559
v -0.031268 -0.063807 -0.038179
v -0.038000 -0.060561 -0.033653
v -0.038001 -0.060072 -0.033902
v -0.031268 -0.063807 -0.038179
v -0.037999 -0.063807 -0.031999
v -0.038000 -0.060561 -0.033653
v -0.030332 -0.057676 -0.041876
v -0.030280 -0.063807 -0.038918
v -0.031268 -0.063807 -0.038179
v -0.021000 -0.051279 -0.050627
v -0.020993 -0.057396 -0.046914
v -0.030332 -0.057676 -0.041876
v -0.030332 -0.057676 -0.041876
v -0.038032 -0.052652 -0.040055
v -0.021000 -0.051279 -0.050627
v -0.028004 -0.044489 -0.052389
v -0.038032 -0.052652 -0.040055
v -0.038046 -0.051039 -0.041344
v -0.021000 -0.051279 -0.050627
v -0.038032 -0.052652 -0.040055
v -0.028004 -0.044489 -0.052389
v -0.028004 -0.044489 -0.052389
v -0.020996 -0.045668 -0.054195
v -0.021000 -0.051279 -0.050627
v -0.038046 -0.051039 -0.041344
v -0.038125 -0.041903 -0.048649
v -0.028004 -0.044489 -0.052389
v -0.021000 -0.051279 -0.050627
v -0.019729 -0.045881 -0.054522
v -0.008484 -0.046871 -0.056268
v -0.021000 -0.051279 -0.050627
v -0.020996 -0.045668 -0.054195
v -0.019729 -0.045881 -0.054522
v -0.030332 -0.057676 -0.041876
v -0.038008 -0.058073 -0.035559
v -0.038032 -0.052652 -0.040055
v -0.038008 -0.058073 -0.035559
v -0.030332 -0.057676 -0.041876
v -0.031268 -0.063807 -0.038179
v -0.014829 -0.063807 -0.046602
v -0.020959 -0.063807 -0.044208
v -0.020993 -0.057396 -0.046914
v -0.010733 -0.057220 -0.050032
v -0.020993 -0.057396 -0.046914
v -0.021000 -0.051279 -0.050627
v -0.054123 0.010652 0.052649
v -0.057327 0.013854 0.031430
v -0.058823 0.001112 0.036579
v -0.044312 0.026980 0.067593
v -0.045593 0.031413 0.047619
v -0.050892 0.021433 0.050103
v -0.053632 -0.011917 0.057407
v -0.057654 -0.011580 0.041892
v -0.053570 -0.023677 0.047056
v -0.055041 -0.000603 0.055124
v -0.058823 0.001112 0.036579
v -0.057654 -0.011580 0.041892
v -0.055041 -0.000603 0.055124
v -0.053632 -0.011917 0.057407
v -0.051703 -0.008337 0.083704
v -0.055041 -0.000603 0.055124
v -0.051709 0.002072 0.083704
v -0.050901 0.006306 0.083704
v -0.055041 -0.000603 0.055124
v -0.051815 0.000876 0.083704
v -0.051709 0.002072 0.083704
v -0.055041 -0.000603 0.055124
v -0.051763 -0.003407 0.083704
v -0.051815 0.000876 0.083704
v -0.049989 0.011094 0.083704
v -0.048264 0.015725 0.083704
v -0.049053 0.018043 0.068667
v -0.049053 0.018043 0.068667
v -0.054123 0.010652 0.052649
v -0.049989 0.011094 0.083704
v -0.054123 0.010652 0.052649
v -0.050901 0.006306 0.083704
v -0.049989 0.011094 0.083704
v -0.049053 0.018043 0.068667
v -0.047092 0.018870 0.083704
v -0.043847 0.024466 0.083704
v -0.049053 0.018043 0.068667
v -0.048264 0.015725 0.083704
v -0.047092 0.018870 0.083704
v -0.044312 0.026980 0.067593
v -0.038152 0.034298 0.069342
v -0.038172 0.034483 0.068565
v -0.044312 0.026980 0.067593
v -0.042471 0.026840 0.083704
v -0.037999 0.032343 0.083704
v -0.044312 0.026980 0.067593
v -0.043847 0.024466 0.083704
v -0.042471 0.026840 0.083704
v -0.037999 0.032343 0.083704
v -0.038152 0.034298 0.069342
v -0.044312 0.026980 0.067593
v -0.044312 0.026980 0.067593
v -0.039979 0.036869 0.052254
v -0.044416 0.032824 0.047265
v -0.044312 0.026980 0.067593
v -0.038230 0.035006 0.066375
v -0.038566 0.038035 0.053686
v -0.038566 0.038035 0.053686
v -0.039979 0.036869 0.052254
v -0.044312 0.026980 0.067593
v -0.050892 0.021433 0.050103
v -0.045593 0.031413 0.047619
v -0.045640 0.031706 0.045887
v -0.045640 0.031706 0.045887
v -0.047576 0.029941 0.043710
v -0.050892 0.021433 0.050103
v -0.053484 0.022709 0.034705
v -0.055916 0.018654 0.029617
v -0.057327 0.013854 0.031430
v -0.054123 0.010652 0.052649
v -0.050892 0.021433 0.050103
v -0.052330 0.024122 0.036464
v -0.052330 0.024122 0.036464
v -0.053484 0.022709 0.034705
v -0.054123 0.010652 0.052649
v -0.058823 0.001112 0.036579
v -0.057327 0.013854 0.031430
v -0.058322 0.014647 0.024592
v -0.058322 0.014647 0.024592
v -0.058559 0.014252 0.024096
v -0.058823 0.001112 0.036579
v -0.063112 0.001589 0.015251
v -0.058823 0.001112 0.036579
v -0.058559 0.014252 0.024096
v -0.058322 0.014647 0.024592
v -0.057327 0.013854 0.031430
v -0.055916 0.018654 0.029617
v -0.057327 0.013854 0.031430
v -0.054123 0.010652 0.052649
v -0.053484 0.022709 0.034705
v -0.047576 0.029941 0.043710
v -0.052330 0.024122 0.036464
v -0.050892 0.021433 0.050103
v -0.045640 0.031706 0.045887
v -0.045593 0.031413 0.047619
v -0.044416 0.032824 0.047265
v -0.044416 0.032824 0.047265
v -0.045593 0.031413 0.047619
v -0.044312 0.026980 0.067593
v -0.038172 0.034483 0.068565
v -0.038230 0.035006 0.066375
v -0.044312 0.026980 0.067593
v -0.043847 0.024466 0.083704
v -0.044312 0.026980 0.067593
v -0.049053 0.018043 0.068667
v -0.049053 0.018043 0.068667
v -0.050892 0.021433 0.050103
v -0.054123 0.010652 0.052649
v -0.050901 0.006306 0.083704
v -0.054123 0.010652 0.052649
v -0.055041 -0.000603 0.055124
v -0.062454 -0.012448 0.024736
v -0.057654 -0.011580 0.041892
v -0.058823 0.001112 0.036579
v -0.057810 -0.025651 0.034124
v -0.053570 -0.023677 0.047056
v -0.057654 -0.011580 0.041892
v -0.057654 -0.011580 0.041892
v -0.053632 -0.011917 0.057407
v -0.055041 -0.000603 0.055124
v -0.050892 0.021433 0.050103
v -0.049053 0.018043 0.068667
v -0.044312 0.026980 0.067593
v -0.058823 0.001112 0.036579
v -0.055041 -0.000603 0.055124
v -0.054123 0.010652 0.052649
v -0.038172 0.034483 0.068565
v -0.034673 0.035602 0.083704
v -0.027294 0.041116 0.083704
v -0.034673 0.035602 0.083704
v -0.038172 0.034483 0.068565
v -0.038152 0.034298 0.069342
v -0.038152 0.034298 0.069342
v -0.037999 0.032343 0.083704
v -0.034673 0.035602 0.083704
v -0.027294 0.041116 0.083704
v -0.021025 0.046421 0.068113
v -0.038172 0.034483 0.068565
v 0.015784 0.048685 0.066349
v 0.009553 0.049971 0.067730
v 0.021029 0.046421 0.068113
v 0.000009 0.048738 0.083704
v 0.001713 0.048833 0.083704
v 0.001565 0.050711 0.068338
v 0.021029 0.046421 0.068113
v 0.006419 0.050261 0.067968
v 0.009963 0.047898 0.083704
v 0.001713 0.048833 0.083704
v 0.009963 0.047898 0.083704
v 0.006419 0.050261 0.067968
v 0.006419 0.050261 0.067968
v 0.001565 0.050711 0.068338
v 0.001713 0.048833 0.083704
v 0.009963 0.047898 0.083704
v 0.018811 0.045338 0.083704
v 0.021029 0.046421 0.068113
v -0.011142 0.047653 0.083704
v -0.007486 0.048319 0.083704
v -0.007280 0.050283 0.068033
v -0.021025 0.046421 0.068113
v -0.019907 0.044897 0.083704
v -0.011142 0.047653 0.083704
v -0.011142 0.047653 0.083704
v -0.007608 0.050223 0.067970
v -0.021025 0.046421 0.068113
v -0.021025 0.046421 0.068113
v -0.020912 0.044382 0.083704
v -0.019907 0.044897 0.083704
v -0.007486 0.048319 0.083704
v 0.000009 0.048738 0.083704
v 0.000002 0.050740 0.068307
v 0.000002 0.050740 0.068307
v -0.007280 0.050283 0.068033
v -0.007486 0.048319 0.083704
v -0.021025 0.046421 0.068113
v -0.015338 0.048798 0.066474
v -0.020677 0.047219 0.064681
v -0.021025 0.046421 0.068113
v -0.007608 0.050223 0.067970
v -0.015338 0.048798 0.066474
v -0.029004 0.043736 0.060577
v -0.036921 0.039156 0.055052
v -0.038230 0.035006 0.066375
v -0.038230 0.035006 0.066375
v -0.038172 0.034483 0.068565
v -0.029004 0.043736 0.060577
v -0.021025 0.046421 0.068113
v -0.021053 0.047062 0.064495
v -0.029004 0.043736 0.060577
v -0.029004 0.043736 0.060577
v -0.038172 0.034483 0.068565
v -0.021025 0.046421 0.068113
v -0.036921 0.039156 0.055052
v -0.038566 0.038035 0.053686
v -0.038230 0.035006 0.066375
v -0.020677 0.047219 0.064681
v -0.021053 0.047062 0.064495
v -0.021025 0.046421 0.068113
v -0.007280 0.050283 0.068033
v -0.007608 0.050223 0.067970
v -0.011142 0.047653 0.083704
v 0.001565 0.050711 0.068338
v 0.000002 0.050740 0.068307
v 0.000009 0.048738 0.083704
v 0.009553 0.049971 0.067730
v 0.006419 0.050261 0.067968
v 0.021029 0.046421 0.068113
v -0.027294 0.041116 0.083704
v -0.020912 0.044382 0.083704
v -0.021025 0.046421 0.068113
v 0.052631 -0.054732 -0.012920
v 0.055601 -0.042104 -0.021511
v 0.057161 -0.045933 -0.009297
v 0.055601 -0.042104 -0.021511
v 0.058310 -0.028372 -0.027951
v 0.060343 -0.034825 -0.014271
v 0.051111 -0.060726 -0.008253
v 0.052631 -0.054732 -0.012920
v 0.053752 -0.056230 -0.002391
v 0.049681 -0.053066 -0.023243
v 0.052083 -0.037990 -0.033554
v 0.055601 -0.042104 -0.021511
v 0.048421 -0.060240 -0.017661
v 0.049681 -0.053066 -0.023243
v 0.052631 -0.054732 -0.012920
v 0.044042 -0.059725 -0.026476
v 0.044909 -0.051308 -0.033081
v 0.049681 -0.053066 -0.023243
v 0.044909 -0.051308 -0.033081
v 0.038012 -0.056822 -0.036506
v 0.038028 -0.053633 -0.039220
v 0.038028 -0.053633 -0.039220
v 0.038035 -0.052676 -0.040003
v 0.044909 -0.051308 -0.033081
v 0.044909 -0.051308 -0.033081
v 0.044042 -0.059725 -0.026476
v 0.038009 -0.059544 -0.034749
v 0.038009 -0.059544 -0.034749
v 0.038011 -0.058129 -0.035662
v 0.044909 -0.051308 -0.033081
v 0.038011 -0.058129 -0.035662
v 0.038012 -0.056822 -0.036506
v 0.044909 -0.051308 -0.033081
v 0.065529 -0.017186 0.007203
v 0.060818 -0.029940 0.020930
v 0.060528 -0.034745 0.015825
v 0.060528 -0.034745 0.015825
v 0.058812 -0.040815 0.013459
v 0.062918 -0.032254 -0.001558
v 0.062918 -0.032254 -0.001558
v 0.064144 -0.027879 -0.000946
v 0.060528 -0.034745 0.015825
v 0.064144 -0.027879 -0.000946
v 0.062918 -0.032254 -0.001558
v 0.063190 -0.023265 -0.016524
v 0.058812 -0.040815 0.013459
v 0.056332 -0.047030 0.013455
v 0.059949 -0.041025 -0.000456
v 0.052996 -0.057618 0.008107
v 0.056593 -0.049555 0.002934
v 0.053430 -0.053145 0.015215
v 0.060343 -0.034825 -0.014271
v 0.063190 -0.023265 -0.016524
v 0.062918 -0.032254 -0.001558
v 0.056593 -0.049555 0.002934
v 0.059949 -0.041025 -0.000456
v 0.056332 -0.047030 0.013455
v 0.057161 -0.045933 -0.009297
v 0.060343 -0.034825 -0.014271
v 0.059949 -0.041025 -0.000456
v 0.053752 -0.056230 -0.002391
v 0.057161 -0.045933 -0.009297
v 0.056593 -0.049555 0.002934
v 0.051055 -0.063807 -0.003299
v 0.051111 -0.060726 -0.008253
v 0.052046 -0.061159 0.001442
v 0.048421 -0.060240 -0.017661
v 0.051111 -0.060726 -0.008253
v 0.049478 -0.063807 -0.011301
v 0.051111 -0.060726 -0.008253
v 0.050388 -0.063807 -0.006691
v 0.049478 -0.063807 -0.011301
v 0.044042 -0.059725 -0.026476
v 0.048421 -0.060240 -0.017661
v 0.046225 -0.063807 -0.019864
v 0.048421 -0.060240 -0.017661
v 0.047761 -0.063807 -0.015820
v 0.046225 -0.063807 -0.019864
v 0.044042 -0.059725 -0.026476
v 0.042088 -0.063807 -0.026893
v 0.038002 -0.063807 -0.031999
v 0.044042 -0.059725 -0.026476
v 0.043588 -0.063807 -0.024343
v 0.042088 -0.063807 -0.026893
v 0.046201 -0.037592 -0.042786
v 0.044909 -0.051308 -0.033081
v 0.038058 -0.049982 -0.042206
v 0.038058 -0.049982 -0.042206
v 0.038100 -0.044536 -0.046659
v 0.046201 -0.037592 -0.042786
v 0.044909 -0.051308 -0.033081
v 0.046759 -0.037294 -0.042382
v 0.048885 -0.035700 -0.040251
v 0.048885 -0.035700 -0.040251
v 0.052083 -0.037990 -0.033554
v 0.044909 -0.051308 -0.033081
v 0.044909 -0.051308 -0.033081
v 0.046201 -0.037592 -0.042786
v 0.046759 -0.037294 -0.042382
v 0.055601 -0.042104 -0.021511
v 0.055643 -0.030143 -0.032851
v 0.057622 -0.027754 -0.029709
v 0.055643 -0.030143 -0.032851
v 0.055601 -0.042104 -0.021511
v 0.052083 -0.037990 -0.033554
v 0.052083 -0.037990 -0.033554
v 0.053265 -0.032417 -0.035863
v 0.055643 -0.030143 -0.032851
v 0.052083 -0.037990 -0.033554
v 0.052773 -0.032786 -0.036356
v 0.053265 -0.032417 -0.035863
v 0.060662 -0.024084 -0.024883
v 0.062461 -0.020892 -0.020720
v 0.063190 -0.023265 -0.016524
v 0.060662 -0.024084 -0.024883
v 0.060343 -0.034825 -0.014271
v 0.058310 -0.028372 -0.027951
v 0.058310 -0.028372 -0.027951
v 0.058543 -0.026640 -0.028244
v 0.060662 -0.024084 -0.024883
v 0.064385 -0.017479 -0.016166
v 0.063190 -0.023265 -0.016524
v 0.064305 -0.017619 -0.016452
v 0.063190 -0.023265 -0.016524
v 0.062461 -0.020892 -0.020720
v 0.064305 -0.017619 -0.016452
v 0.064925 -0.015987 -0.014337
v 0.065297 -0.014087 -0.011889
v 0.065061 -0.023694 0.000731
v 0.064144 -0.027879 -0.000946
v 0.064385 -0.017479 -0.016166
v 0.064401 -0.017367 -0.016126
v 0.064401 -0.017367 -0.016126
v 0.064925 -0.015987 -0.014337
v 0.064144 -0.027879 -0.000946
v 0.065529 -0.017186 0.007203
v 0.065061 -0.023694 0.000731
v 0.066071 -0.010125 -0.006785
v 0.065061 -0.023694 0.000731
v 0.065297 -0.014087 -0.011889
v 0.066071 -0.010125 -0.006785
v 0.065529 -0.017186 0.007203
v 0.065878 -0.007220 -0.003075
v 0.065670 -0.004065 0.000953
v 0.066071 -0.010125 -0.006785
v 0.065878 -0.007220 -0.003075
v 0.065529 -0.017186 0.007203
v 0.065061 -0.023694 0.000731
v 0.064144 -0.027879 -0.000946
v 0.064925 -0.015987 -0.014337
v 0.063190 -0.023265 -0.016524
v 0.060343 -0.034825 -0.014271
v 0.060662 -0.024084 -0.024883
v 0.058543 -0.026640 -0.028244
v 0.058310 -0.028372 -0.027951
v 0.057622 -0.027754 -0.029709
v 0.057622 -0.027754 -0.029709
v 0.058310 -0.028372 -0.027951
v 0.055601 -0.042104 -0.021511
v 0.052773 -0.032786 -0.036356
v 0.052083 -0.037990 -0.033554
v 0.048885 -0.035700 -0.040251
v 0.052083 -0.037990 -0.033554
v 0.049681 -0.053066 -0.023243
v 0.044909 -0.051308 -0.033081
v 0.038100 -0.044536 -0.046659
v 0.038127 -0.041903 -0.048649
v 0.046201 -0.037592 -0.042786
v 0.038002 -0.063807 -0.031999
v 0.038009 -0.059544 -0.034749
v 0.044042 -0.059725 -0.026476
v 0.046225 -0.063807 -0.019864
v 0.043588 -0.063807 -0.024343
v 0.044042 -0.059725 -0.026476
v 0.049478 -0.063807 -0.011301
v 0.047761 -0.063807 -0.015820
v 0.048421 -0.060240 -0.017661
v 0.051055 -0.063807 -0.003299
v 0.050388 -0.063807 -0.006691
v 0.051111 -0.060726 -0.008253
v 0.052046 -0.061159 0.001442
v 0.053752 -0.056230 -0.002391
v 0.052996 -0.057618 0.008107
v 0.056593 -0.049555 0.002934
v 0.052996 -0.057618 0.008107
v 0.053752 -0.056230 -0.002391
v 0.059949 -0.041025 -0.000456
v 0.056593 -0.049555 0.002934
v 0.057161 -0.045933 -0.009297
v 0.056332 -0.047030 0.013455
v 0.053430 -0.053145 0.015215
v 0.056593 -0.049555 0.002934
v 0.062918 -0.032254 -0.001558
v 0.059949 -0.041025 -0.000456
v 0.060343 -0.034825 -0.014271
v 0.056332 -0.047030 0.013455
v 0.058812 -0.040815 0.013459
v 0.050113 -0.048473 0.027791
v 0.059949 -0.041025 -0.000456
v 0.062918 -0.032254 -0.001558
v 0.058812 -0.040815 0.013459
v 0.063190 -0.023265 -0.016524
v 0.064385 -0.017479 -0.016166
v 0.064144 -0.027879 -0.000946
v 0.064144 -0.027879 -0.000946
v 0.065061 -0.023694 0.000731
v 0.060528 -0.034745 0.015825
v 0.060528 -0.034745 0.015825
v 0.065061 -0.023694 0.000731
v 0.065529 -0.017186 0.007203
v 0.058812 -0.040815 0.013459
v 0.060528 -0.034745 0.015825
v 0.050995 -0.044460 0.029833
v 0.050995 -0.044460 0.029833
v 0.060528 -0.034745 0.015825
v 0.060818 -0.029940 0.020930
v 0.038035 -0.052676 -0.040003
v 0.038058 -0.049982 -0.042206
v 0.044909 -0.051308 -0.033081
v 0.049681 -0.053066 -0.023243
v 0.048421 -0.060240 -0.017661
v 0.044042 -0.059725 -0.026476
v 0.052631 -0.054732 -0.012920
v 0.051111 -0.060726 -0.008253
v 0.048421 -0.060240 -0.017661
v 0.055601 -0.042104 -0.021511
v 0.052631 -0.054732 -0.012920
v 0.049681 -0.053066 -0.023243
v 0.053752 -0.056230 -0.002391
v 0.052046 -0.061159 0.001442
v 0.051111 -0.060726 -0.008253
v 0.060343 -0.034825 -0.014271
v 0.057161 -0.045933 -0.009297
v 0.055601 -0.042104 -0.021511
v 0.057161 -0.045933 -0.009297
v 0.053752 -0.056230 -0.002391
v 0.052631 -0.054732 -0.012920
v 0.000001 -0.050753 -0.054516
v 0.021002 -0.051279 -0.050627
v 0.010735 -0.057220 -0.050032
v 0.021002 -0.051279 -0.050627
v 0.020995 -0.057396 -0.046914
v 0.010735 -0.057220 -0.050032
v 0.000001 -0.050753 -0.054516
v 0.000001 -0.057159 -0.051088
v -0.010733 -0.057220 -0.050032
v -0.010733 -0.057220 -0.050032
v -0.021000 -0.051279 -0.050627
v 0.000001 -0.050753 -0.054516
v 0.020995 -0.057396 -0.046914
v 0.030334 -0.057676 -0.041876
v 0.028038 -0.063807 -0.040466
v 0.030334 -0.057676 -0.041876
v 0.030250 -0.063807 -0.038762
v 0.028038 -0.063807 -0.040466
v 0.020995 -0.057396 -0.046914
v 0.019941 -0.063807 -0.044762
v 0.012201 -0.063807 -0.047320
v 0.012201 -0.063807 -0.047320
v 0.010735 -0.057220 -0.050032
v 0.020995 -0.057396 -0.046914
v 0.020995 -0.057396 -0.046914
v 0.020956 -0.063807 -0.044223
v 0.019941 -0.063807 -0.044762
v 0.010735 -0.057220 -0.050032
v 0.010718 -0.063807 -0.047545
v 0.003143 -0.063807 -0.048694
v 0.003143 -0.063807 -0.048694
v 0.000001 -0.057159 -0.051088
v 0.010735 -0.057220 -0.050032
v 0.000001 -0.057159 -0.051088
v 0.000006 -0.063807 -0.048610
v -0.005856 -0.063807 -0.048455
v -0.005856 -0.063807 -0.048455
v -0.010733 -0.057220 -0.050032
v 0.000001 -0.057159 -0.051088
v -0.010733 -0.057220 -0.050032
v -0.010691 -0.063807 -0.047456
v -0.014829 -0.063807 -0.046602
v -0.008484 -0.046871 -0.056268
v 0.000001 -0.050753 -0.054516
v -0.021000 -0.051279 -0.050627
v 0.000001 -0.050753 -0.054516
v 0.000002 -0.046959 -0.056741
v 0.011356 -0.046714 -0.055945
v 0.011356 -0.046714 -0.055945
v 0.021002 -0.051279 -0.050627
v 0.000001 -0.050753 -0.054516
v 0.021002 -0.051279 -0.050627
v 0.038100 -0.044536 -0.046659
v 0.038058 -0.049982 -0.042206
v 0.038100 -0.044536 -0.046659
v 0.021002 -0.051279 -0.050627
v 0.031999 -0.043598 -0.051079
v 0.021002 -0.051279 -0.050627
v 0.021541 -0.045626 -0.054119
v 0.031999 -0.043598 -0.051079
v 0.021002 -0.051279 -0.050627
v 0.021009 -0.045683 -0.054214
v 0.021541 -0.045626 -0.054119
v 0.031999 -0.043598 -0.051079
v 0.038127 -0.041903 -0.048649
v 0.038100 -0.044536 -0.046659
v 0.021002 -0.051279 -0.050627
v 0.038035 -0.052676 -0.040003
v 0.030334 -0.057676 -0.041876
v 0.030334 -0.057676 -0.041876
v 0.038028 -0.053633 -0.039220
v 0.038012 -0.056822 -0.036506
v 0.030334 -0.057676 -0.041876
v 0.038035 -0.052676 -0.040003
v 0.038028 -0.053633 -0.039220
v 0.038012 -0.056822 -0.036506
v 0.038011 -0.058129 -0.035662
v 0.030334 -0.057676 -0.041876
v 0.030334 -0.057676 -0.041876
v 0.038011 -0.058129 -0.035662
v 0.034497 -0.063807 -0.035491
v 0.034497 -0.063807 -0.035491
v 0.038011 -0.058129 -0.035662
v 0.038009 -0.059544 -0.034749
v 0.038009 -0.059544 -0.034749
v 0.038002 -0.063807 -0.031999
v 0.034497 -0.063807 -0.035491
v 0.034497 -0.063807 -0.035491
v 0.030250 -0.063807 -0.038762
v 0.030334 -0.057676 -0.041876
v 0.030334 -0.057676 -0.041876
v 0.020995 -0.057396 -0.046914
v 0.021002 -0.051279 -0.050627
v 0.038058 -0.049982 -0.042206
v 0.038035 -0.052676 -0.040003
v 0.021002 -0.051279 -0.050627
v 0.011356 -0.046714 -0.055945
v 0.021009 -0.045683 -0.054214
v 0.021002 -0.051279 -0.050627
v -0.008484 -0.046871 -0.056268
v 0.000002 -0.046959 -0.056741
v 0.000001 -0.050753 -0.054516
v -0.005856 -0.063807 -0.048455
v -0.010691 -0.063807 -0.047456
v -0.010733 -0.057220 -0.050032
v 0.003143 -0.063807 -0.048694
v 0.000006 -0.063807 -0.048610
v 0.000001 -0.057159 -0.051088
v 0.012201 -0.063807 -0.047320
v 0.010718 -0.063807 -0.047545
v 0.010735 -0.057220 -0.050032
v 0.028038 -0.063807 -0.040466
v 0.020956 -0.063807 -0.044223
v 0.020995 -0.057396 -0.046914
v 0.010735 -0.057220 -0.050032
v 0.000001 -0.057159 -0.051088
v 0.000001 -0.050753 -0.054516
v 0.054121 0.010884 0.052382
v 0.055084 -0.000313 0.054870
v 0.058839 0.001424 0.036362
v 0.044297 0.027096 0.067242
v 0.049034 0.018208 0.068335
v 0.050870 0.021607 0.049830
v 0.053743 -0.011577 0.057171
v 0.050305 -0.022472 0.059321
v 0.053790 -0.023266 0.046821
v 0.055084 -0.000313 0.054870
v 0.053743 -0.011577 0.057171
v 0.057755 -0.011207 0.041659
v 0.057755 -0.011207 0.041659
v 0.053790 -0.023266 0.046821
v 0.058043 -0.025195 0.033838
v 0.058839 0.001424 0.036362
v 0.057755 -0.011207 0.041659
v 0.062518 -0.012031 0.024497
v 0.062518 -0.012031 0.024497
v 0.058043 -0.025195 0.033838
v 0.059797 -0.026992 0.027273
v 0.051067 -0.041078 0.033335
v 0.059797 -0.026992 0.027273
v 0.058043 -0.025195 0.033838
v 0.051067 -0.041078 0.033335
v 0.060818 -0.029940 0.020930
v 0.059797 -0.026992 0.027273
v 0.060818 -0.029940 0.020930
v 0.051067 -0.041078 0.033335
v 0.050995 -0.044460 0.029833
v 0.064451 -0.013684 0.015667
v 0.059797 -0.026992 0.027273
v 0.060818 -0.029940 0.020930
v 0.064451 -0.013684 0.015667
v 0.065529 -0.017186 0.007203
v 0.065670 -0.004065 0.000953
v 0.065670 -0.004065 0.000953
v 0.065251 -0.002116 0.003431
v 0.064451 -0.013684 0.015667
v 0.064451 -0.013684 0.015667
v 0.064325 0.000618 0.006890
v 0.063079 0.001931 0.015090
v 0.064451 -0.013684 0.015667
v 0.064820 -0.000839 0.005047
v 0.064325 0.000618 0.006890
v 0.058839 0.001424 0.036362
v 0.058724 0.013941 0.023705
v 0.058218 0.014787 0.024766
v 0.058724 0.013941 0.023705
v 0.058839 0.001424 0.036362
v 0.063079 0.001931 0.015090
v 0.063079 0.001931 0.015090
v 0.062649 0.005566 0.013152
v 0.058724 0.013941 0.023705
v 0.063079 0.001931 0.015090
v 0.062720 0.005355 0.012885
v 0.062649 0.005566 0.013152
v 0.054121 0.010884 0.052382
v 0.053500 0.022690 0.034681
v 0.052322 0.024319 0.036716
v 0.053500 0.022690 0.034681
v 0.054121 0.010884 0.052382
v 0.057297 0.014094 0.031235
v 0.057297 0.014094 0.031235
v 0.055945 0.018595 0.029543
v 0.053500 0.022690 0.034681
v 0.050870 0.021607 0.049830
v 0.046127 0.031413 0.045532
v 0.045656 0.031825 0.046040
v 0.050870 0.021607 0.049830
v 0.052322 0.024319 0.036716
v 0.052129 0.024585 0.037048
v 0.052129 0.024585 0.037048
v 0.046127 0.031413 0.045532
v 0.050870 0.021607 0.049830
v 0.044297 0.027096 0.067242
v 0.044712 0.032653 0.047059
v 0.038569 0.038035 0.053686
v 0.044297 0.027096 0.067242
v 0.045578 0.031535 0.047343
v 0.044712 0.032653 0.047059
v 0.042950 0.026152 0.083704
v 0.044297 0.027096 0.067242
v 0.038041 0.033128 0.076323
v 0.038041 0.033128 0.076323
v 0.038001 0.032343 0.083704
v 0.042950 0.026152 0.083704
v 0.044297 0.027096 0.067242
v 0.038155 0.034298 0.069342
v 0.038041 0.033128 0.076323
v 0.044297 0.027096 0.067242
v 0.038242 0.035094 0.066008
v 0.038176 0.034483 0.068565
v 0.038176 0.034483 0.068565
v 0.038155 0.034298 0.069342
v 0.044297 0.027096 0.067242
v 0.049034 0.018208 0.068335
v 0.044297 0.027096 0.067242
v 0.043867 0.024545 0.083704
v 0.043867 0.024545 0.083704
v 0.047060 0.018943 0.083704
v 0.049034 0.018208 0.068335
v 0.050214 0.010286 0.083704
v 0.054121 0.010884 0.052382
v 0.049034 0.018208 0.068335
v 0.054121 0.010884 0.052382
v 0.050870 0.021607 0.049830
v 0.049034 0.018208 0.068335
v 0.049034 0.018208 0.068335
v 0.048196 0.015825 0.083704
v 0.050214 0.010286 0.083704
v 0.054121 0.010884 0.052382
v 0.050909 0.006487 0.083704
v 0.052947 -0.001733 0.070268
v 0.052947 -0.001733 0.070268
v 0.050909 0.006487 0.083704
v 0.051707 0.002123 0.083704
v 0.052947 -0.001733 0.070268
v 0.055084 -0.000313 0.054870
v 0.054121 0.010884 0.052382
v 0.050214 0.010286 0.083704
v 0.050909 0.006487 0.083704
v 0.054121 0.010884 0.052382
v 0.047060 0.018943 0.083704
v 0.048196 0.015825 0.083704
v 0.049034 0.018208 0.068335
v 0.042950 0.026152 0.083704
v 0.043867 0.024545 0.083704
v 0.044297 0.027096 0.067242
v 0.038569 0.038035 0.053686
v 0.038242 0.035094 0.066008
v 0.044297 0.027096 0.067242
v 0.044712 0.032653 0.047059
v 0.045578 0.031535 0.047343
v 0.045656 0.031825 0.046040
v 0.045656 0.031825 0.046040
v 0.045578 0.031535 0.047343
v 0.050870 0.021607 0.049830
v 0.052322 0.024319 0.036716
v 0.050870 0.021607 0.049830
v 0.054121 0.010884 0.052382
v 0.055945 0.018595 0.029543
v 0.057297 0.014094 0.031235
v 0.058218 0.014787 0.024766
v 0.058218 0.014787 0.024766
v 0.057297 0.014094 0.031235
v 0.058839 0.001424 0.036362
v 0.062720 0.005355 0.012885
v 0.063079 0.001931 0.015090
v 0.064325 0.000618 0.006890
v 0.063079 0.001931 0.015090
v 0.062518 -0.012031 0.024497
v 0.064451 -0.013684 0.015667
v 0.065251 -0.002116 0.003431
v 0.064820 -0.000839 0.005047
v 0.064451 -0.013684 0.015667
v 0.060818 -0.029940 0.020930
v 0.065529 -0.017186 0.007203
v 0.064451 -0.013684 0.015667
v 0.059797 -0.026992 0.027273
v 0.064451 -0.013684 0.015667
v 0.062518 -0.012031 0.024497
v 0.062518 -0.012031 0.024497
v 0.063079 0.001931 0.015090
v 0.058839 0.001424 0.036362
v 0.058043 -0.025195 0.033838
v 0.062518 -0.012031 0.024497
v 0.057755 -0.011207 0.041659
v 0.057755 -0.011207 0.041659
v 0.058839 0.001424 0.036362
v 0.055084 -0.000313 0.054870
v 0.053743 -0.011577 0.057171
v 0.055084 -0.000313 0.054870
v 0.052947 -0.001733 0.070268
v 0.053790 -0.023266 0.046821
v 0.057755 -0.011207 0.041659
v 0.053743 -0.011577 0.057171
v 0.049408 -0.036823 0.042017
v 0.058043 -0.025195 0.033838
v 0.053790 -0.023266 0.046821
v 0.050870 0.021607 0.049830
v 0.045578 0.031535 0.047343
v 0.044297 0.027096 0.067242
v 0.058839 0.001424 0.036362
v 0.057297 0.014094 0.031235
v 0.054121 0.010884 0.052382
v 0.033787 0.036380 0.083704
v 0.038041 0.033128 0.076323
v 0.038155 0.034298 0.069342
v 0.033787 0.036380 0.083704
v 0.038001 0.032343 0.083704
v 0.038041 0.033128 0.076323
v 0.038176 0.034483 0.068565
v 0.021029 0.046421 0.068113
v 0.026287 0.041723 0.083704
v 0.026287 0.041723 0.083704
v 0.033787 0.036380 0.083704
v 0.038176 0.034483 0.068565
v 0.021029 0.046421 0.068113
v 0.020892 0.044332 0.083704
v 0.026287 0.041723 0.083704
v 0.038176 0.034483 0.068565
v 0.031328 0.042528 0.059130
v 0.023405 0.046220 0.063519
v 0.031328 0.042528 0.059130
v 0.038176 0.034483 0.068565
v 0.038242 0.035094 0.066008
v 0.038242 0.035094 0.066008
v 0.038569 0.038035 0.053686
v 0.031328 0.042528 0.059130
v 0.023405 0.046220 0.063519
v 0.021029 0.046421 0.068113
v 0.038176 0.034483 0.068565
v 0.021029 0.046421 0.068113
v 0.021031 0.046988 0.064400
v 0.015784 0.048685 0.066349
v 0.018811 0.045338 0.083704
v 0.020892 0.044332 0.083704
v 0.021029 0.046421 0.068113
v 0.023405 0.046220 0.063519
v 0.021031 0.046988 0.064400
v 0.021029 0.046421 0.068113
v 0.038155 0.034298 0.069342
v 0.038176 0.034483 0.068565
v 0.033787 0.036380 0.083704
v -0.053570 -0.023677 0.047056
v -0.057810 -0.025651 0.034124
v -0.048973 -0.037283 0.042299
v -0.050568 -0.041564 0.033733
v -0.048973 -0.037283 0.042299
v -0.057810 -0.025651 0.034124
v -0.049615 -0.048908 0.028317
v -0.058502 -0.041321 0.013958
v -0.056016 -0.047495 0.013994
v -0.048298 -0.052951 0.027609
v -0.056016 -0.047495 0.013994
v -0.053108 -0.053564 0.015781
v -0.052736 -0.058096 0.008750
v -0.049886 -0.059416 0.019075
v -0.053108 -0.053564 0.015781
v -0.050516 -0.063807 -0.006548
v -0.051389 -0.063807 0.001920
v -0.051853 -0.061788 0.002103
v -0.052736 -0.058096 0.008750
v -0.051853 -0.061788 0.002103
v -0.051316 -0.063807 0.003007
v -0.051316 -0.063807 0.003007
v -0.050849 -0.063807 0.010059
v -0.052736 -0.058096 0.008750
v -0.052736 -0.058096 0.008750
v -0.053558 -0.056814 -0.001711
v -0.051853 -0.061788 0.002103
v -0.049886 -0.059416 0.019075
v -0.052736 -0.058096 0.008750
v -0.050257 -0.063807 0.012540
v -0.050257 -0.063807 0.012540
v -0.048719 -0.063807 0.018968
v -0.049886 -0.059416 0.019075
v -0.046682 -0.056931 0.027913
v -0.049886 -0.059416 0.019075
v -0.047539 -0.063807 0.021733
v -0.046682 -0.056931 0.027913
v -0.053108 -0.053564 0.015781
v -0.049886 -0.059416 0.019075
v -0.047539 -0.063807 0.021733
v -0.045516 -0.063807 0.026471
v -0.046682 -0.056931 0.027913
v -0.037999 -0.061812 0.037733
v -0.046682 -0.056931 0.027913
v -0.040571 -0.063807 0.034152
v -0.040571 -0.063807 0.034152
v -0.038868 -0.063807 0.036227
v -0.037999 -0.061812 0.037733
v -0.046682 -0.056931 0.027913
v -0.043142 -0.063807 0.030158
v -0.040571 -0.063807 0.034152
v -0.038868 -0.063807 0.036227
v -0.037999 -0.063807 0.037207
v -0.037999 -0.061812 0.037733
v -0.037999 -0.055463 0.040820
v -0.049615 -0.048908 0.028317
v -0.048298 -0.052951 0.027609
v -0.037999 -0.057811 0.039678
v -0.048298 -0.052951 0.027609
v -0.046682 -0.056931 0.027913
v -0.046682 -0.056931 0.027913
v -0.037998 -0.059837 0.038693
v -0.037999 -0.057811 0.039678
v -0.037999 -0.053110 0.041964
v -0.050484 -0.044937 0.030304
v -0.049615 -0.048908 0.028317
v -0.050568 -0.041564 0.033733
v -0.050484 -0.044937 0.030304
v -0.037999 -0.052419 0.042300
v -0.037999 -0.052419 0.042300
v -0.037998 -0.051623 0.043329
v -0.050568 -0.041564 0.033733
v -0.050484 -0.044937 0.030304
v -0.037999 -0.053110 0.041964
v -0.037999 -0.052419 0.042300
v -0.037999 -0.051195 0.043883
v -0.037998 -0.047363 0.048839
v -0.048973 -0.037283 0.042299
v -0.046655 -0.034655 0.051632
v -0.048973 -0.037283 0.042299
v -0.037998 -0.046070 0.050513
v -0.048973 -0.037283 0.042299
v -0.037998 -0.047363 0.048839
v -0.037998 -0.046070 0.050513
v -0.048973 -0.037283 0.042299
v -0.050568 -0.041564 0.033733
v -0.037999 -0.051195 0.043883
v -0.037998 -0.051623 0.043329
v -0.037999 -0.051195 0.043883
v -0.050568 -0.041564 0.033733
v -0.049615 -0.048908 0.028317
v -0.037999 -0.055463 0.040820
v -0.037999 -0.053110 0.041964
v -0.048298 -0.052951 0.027609
v -0.037999 -0.057811 0.039678
v -0.037999 -0.055463 0.040820
v -0.037999 -0.061812 0.037733
v -0.037998 -0.059837 0.038693
v -0.046682 -0.056931 0.027913
v -0.045516 -0.063807 0.026471
v -0.043142 -0.063807 0.030158
v -0.046682 -0.056931 0.027913
v -0.048719 -0.063807 0.018968
v -0.047539 -0.063807 0.021733
v -0.049886 -0.059416 0.019075
v -0.050849 -0.063807 0.010059
v -0.050257 -0.063807 0.012540
v -0.052736 -0.058096 0.008750
v -0.051389 -0.063807 0.001920
v -0.051316 -0.063807 0.003007
v -0.051853 -0.061788 0.002103
v -0.053108 -0.053564 0.015781
v -0.056364 -0.050066 0.003514
v -0.052736 -0.058096 0.008750
v -0.053108 -0.053564 0.015781
v -0.046682 -0.056931 0.027913
v -0.048298 -0.052951 0.027609
v -0.056016 -0.047495 0.013994
v -0.048298 -0.052951 0.027609
v -0.049615 -0.048908 0.028317
v -0.058502 -0.041321 0.013958
v -0.049615 -0.048908 0.028317
v -0.050484 -0.044937 0.030304
v -0.050484 -0.044937 0.030304
v -0.050568 -0.041564 0.033733
v -0.060558 -0.030448 0.021290
v -0.037998 -0.044189 0.055783
v -0.037998 -0.046070 0.050513
v -0.020594 -0.056353 0.054978
v -0.037998 -0.046070 0.050513
v -0.037998 -0.047363 0.048839
v -0.020594 -0.056353 0.054978
v -0.037998 -0.047363 0.048839
v -0.037999 -0.051195 0.043883
v -0.020594 -0.056353 0.054978
v -0.020594 -0.056353 0.054978
v -0.037998 -0.051623 0.043329
v -0.029927 -0.058709 0.046130
v -0.029927 -0.058709 0.046130
v -0.037999 -0.053110 0.041964
v -0.037999 -0.055463 0.040820
v -0.029927 -0.058709 0.046130
v -0.037998 -0.051623 0.043329
v -0.037999 -0.052419 0.042300
v -0.037999 -0.052419 0.042300
v -0.037999 -0.053110 0.041964
v -0.029927 -0.058709 0.046130
v -0.037999 -0.055463 0.040820
v -0.037999 -0.057811 0.039678
v -0.029927 -0.058709 0.046130
v -0.020594 -0.056353 0.054978
v -0.020616 -0.059567 0.051348
v -0.010413 -0.060095 0.054569
v -0.010405 -0.057637 0.058105
v -0.010413 -0.060095 0.054569
v 0.000257 -0.060268 0.055627
v -0.031276 -0.063807 0.043384
v -0.037998 -0.059837 0.038693
v -0.037999 -0.061812 0.037733
v -0.031276 -0.063807 0.043384
v -0.029927 -0.058709 0.046130
v -0.037999 -0.057811 0.039678
v -0.037999 -0.057811 0.039678
v -0.037998 -0.059837 0.038693
v -0.031276 -0.063807 0.043384
v -0.037999 -0.061812 0.037733
v -0.037999 -0.063807 0.037207
v -0.031276 -0.063807 0.043384
v -0.020616 -0.059567 0.051348
v -0.029927 -0.058709 0.046130
v -0.026423 -0.063807 0.046685
v -0.029927 -0.058709 0.046130
v -0.029941 -0.063807 0.044293
v -0.026423 -0.063807 0.046685
v -0.010413 -0.060095 0.054569
v -0.020616 -0.059567 0.051348
v -0.018159 -0.063807 0.050683
v -0.020616 -0.059567 0.051348
v -0.020574 -0.063807 0.049514
v -0.018159 -0.063807 0.050683
v 0.000257 -0.060268 0.055627
v -0.010413 -0.060095 0.054569
v -0.007922 -0.063807 0.053384
v -0.010413 -0.060095 0.054569
v -0.009374 -0.063807 0.053136
v -0.007922 -0.063807 0.053384
v -0.010413 -0.060095 0.054569
v -0.010397 -0.063807 0.052850
v -0.009374 -0.063807 0.053136
v 0.000257 -0.060268 0.055627
v 0.000264 -0.063807 0.053921
v 0.001221 -0.063807 0.053984
v -0.007922 -0.063807 0.053384
v 0.000264 -0.063807 0.053921
v 0.000257 -0.060268 0.055627
v -0.018159 -0.063807 0.050683
v -0.010397 -0.063807 0.052850
v -0.010413 -0.060095 0.054569
v -0.026423 -0.063807 0.046685
v -0.020574 -0.063807 0.049514
v -0.020616 -0.059567 0.051348
v -0.031276 -0.063807 0.043384
v -0.029941 -0.063807 0.044293
v -0.029927 -0.058709 0.046130
v -0.010413 -0.060095 0.054569
v -0.010405 -0.057637 0.058105
v -0.020594 -0.056353 0.054978
v -0.029927 -0.058709 0.046130
v -0.020616 -0.059567 0.051348
v -0.020594 -0.056353 0.054978
v -0.037999 -0.051195 0.043883
v -0.037998 -0.051623 0.043329
v -0.020594 -0.056353 0.054978
v -0.050115 -0.022847 0.059541
v -0.053570 -0.023677 0.047056
v -0.046655 -0.034655 0.051632
v -0.037998 -0.044189 0.055783
v -0.037998 -0.041351 0.063738
v -0.044751 -0.032946 0.061711
v -0.037998 -0.046070 0.050513
v -0.037998 -0.044189 0.055783
v -0.046655 -0.034655 0.051632
v -0.042948 -0.032367 0.083704
v -0.044751 -0.032946 0.061711
v -0.037999 -0.040406 0.069919
v -0.044751 -0.032946 0.061711
v -0.037999 -0.041164 0.064262
v -0.037999 -0.040406 0.069919
v -0.037999 -0.040406 0.069919
v -0.037998 -0.038557 0.083704
v -0.042948 -0.032367 0.083704
v -0.044751 -0.032946 0.061711
v -0.037998 -0.041351 0.063738
v -0.037999 -0.041164 0.064262
v -0.044751 -0.032946 0.061711
v -0.043655 -0.031124 0.083704
v -0.047058 -0.025157 0.083704
v -0.047058 -0.025157 0.083704
v -0.050115 -0.022847 0.059541
v -0.044751 -0.032946 0.061711
v -0.050115 -0.022847 0.059541
v -0.048054 -0.022422 0.083704
v -0.050211 -0.016500 0.083704
v -0.050211 -0.016500 0.083704
v -0.053632 -0.011917 0.057407
v -0.050115 -0.022847 0.059541
v -0.050211 -0.016500 0.083704
v -0.051703 -0.008337 0.083704
v -0.053632 -0.011917 0.057407
v -0.051703 -0.008337 0.083704
v -0.051763 -0.003407 0.083704
v -0.055041 -0.000603 0.055124
v -0.047058 -0.025157 0.083704
v -0.048054 -0.022422 0.083704
v -0.050115 -0.022847 0.059541
v -0.042948 -0.032367 0.083704
v -0.043655 -0.031124 0.083704
v -0.044751 -0.032946 0.061711
v -0.044751 -0.032946 0.061711
v -0.046655 -0.034655 0.051632
v -0.037998 -0.044189 0.055783
v -0.053570 -0.023677 0.047056
v -0.050115 -0.022847 0.059541
v -0.053632 -0.011917 0.057407
v -0.048973 -0.037283 0.042299
v -0.046655 -0.034655 0.051632
v -0.053570 -0.023677 0.047056
v -0.046655 -0.034655 0.051632
v -0.044751 -0.032946 0.061711
v -0.050115 -0.022847 0.059541
v -0.020594 -0.056353 0.054978
v -0.020574 -0.052982 0.064218
v -0.037998 -0.044189 0.055783
v 0.010894 -0.054404 0.075168
v 0.000257 -0.055489 0.075569
v 0.000257 -0.056189 0.067250
v -0.020574 -0.052982 0.064218
v -0.020579 -0.051497 0.074093
v -0.037999 -0.040406 0.069919
v -0.037999 -0.040406 0.069919
v -0.037999 -0.041164 0.064262
v -0.020574 -0.052982 0.064218
v -0.037999 -0.041164 0.064262
v -0.037998 -0.041351 0.063738
v -0.020574 -0.052982 0.064218
v -0.020574 -0.052982 0.064218
v -0.020594 -0.056353 0.054978
v -0.010405 -0.057637 0.058105
v -0.010397 -0.055398 0.066499
v -0.010405 -0.057637 0.058105
v 0.000258 -0.058058 0.059134
v 0.001679 -0.055048 0.083704
v 0.000257 -0.055489 0.075569
v 0.010894 -0.054404 0.075168
v 0.001679 -0.055048 0.083704
v 0.000264 -0.054968 0.083704
v 0.000257 -0.055489 0.075569
v -0.007519 -0.054528 0.083704
v -0.010397 -0.055398 0.066499
v 0.000257 -0.055489 0.075569
v -0.010397 -0.055398 0.066499
v 0.000257 -0.056189 0.067250
v 0.000257 -0.055489 0.075569
v 0.000257 -0.055489 0.075569
v 0.000264 -0.054968 0.083704
v -0.007519 -0.054528 0.083704
v -0.015613 -0.052674 0.083704
v -0.020521 -0.050634 0.083704
v -0.020579 -0.051497 0.074093
v -0.010397 -0.055398 0.066499
v -0.010355 -0.053879 0.083704
v -0.015613 -0.052674 0.083704
v -0.015613 -0.052674 0.083704
v -0.020574 -0.052982 0.064218
v -0.010397 -0.055398 0.066499
v -0.020579 -0.051497 0.074093
v -0.024119 -0.049139 0.083704
v -0.031141 -0.044710 0.083704
v -0.031141 -0.044710 0.083704
v -0.037999 -0.040406 0.069919
v -0.020579 -0.051497 0.074093
v -0.020579 -0.051497 0.074093
v -0.020521 -0.050634 0.083704
v -0.024119 -0.049139 0.083704
v -0.031141 -0.044710 0.083704
v -0.037998 -0.038557 0.083704
v -0.037999 -0.040406 0.069919
v -0.020579 -0.051497 0.074093
v -0.020574 -0.052982 0.064218
v -0.015613 -0.052674 0.083704
v -0.007519 -0.054528 0.083704
v -0.010355 -0.053879 0.083704
v -0.010397 -0.055398 0.066499
v 0.000257 -0.060268 0.055627
v 0.000258 -0.058058 0.059134
v -0.010405 -0.057637 0.058105
v 0.000258 -0.058058 0.059134
v 0.000257 -0.056189 0.067250
v -0.010397 -0.055398 0.066499
v -0.010405 -0.057637 0.058105
v -0.010397 -0.055398 0.066499
v -0.020574 -0.052982 0.064218
v -0.037998 -0.041351 0.063738
v -0.037998 -0.044189 0.055783
v -0.020574 -0.052982 0.064218
v 0.000257 -0.060268 0.055627
v 0.001221 -0.063807 0.053984
v 0.009336 -0.063807 0.053143
v 0.009336 -0.063807 0.053143
v 0.010916 -0.060078 0.054463
v 0.000257 -0.060268 0.055627
v 0.010916 -0.060078 0.054463
v 0.010893 -0.063807 0.052709
v 0.018160 -0.063807 0.050683
v 0.018160 -0.063807 0.050683
v 0.021087 -0.059534 0.051142
v 0.010916 -0.060078 0.054463
v 0.021087 -0.059534 0.051142
v 0.021054 -0.063807 0.049319
v 0.025545 -0.063807 0.047201
v 0.025545 -0.063807 0.047201
v 0.030347 -0.058661 0.045835
v 0.021087 -0.059534 0.051142
v 0.038001 -0.059721 0.038791
v 0.030347 -0.058661 0.045835
v 0.033056 -0.063807 0.041958
v 0.033056 -0.063807 0.041958
v 0.038002 -0.063807 0.037207
v 0.038001 -0.059721 0.038791
v 0.030347 -0.058661 0.045835
v 0.030288 -0.063807 0.043891
v 0.033056 -0.063807 0.041958
v 0.030347 -0.058661 0.045835
v 0.038002 -0.053214 0.042070
v 0.038001 -0.051839 0.043557
v 0.030347 -0.058661 0.045835
v 0.038001 -0.055212 0.040539
v 0.038002 -0.054305 0.040890
v 0.030347 -0.058661 0.045835
v 0.038001 -0.057717 0.039568
v 0.038001 -0.055212 0.040539
v 0.038002 -0.054305 0.040890
v 0.038002 -0.053214 0.042070
v 0.030347 -0.058661 0.045835
v 0.038001 -0.059721 0.038791
v 0.038001 -0.057717 0.039568
v 0.030347 -0.058661 0.045835
v 0.025545 -0.063807 0.047201
v 0.030288 -0.063807 0.043891
v 0.030347 -0.058661 0.045835
v 0.018160 -0.063807 0.050683
v 0.021054 -0.063807 0.049319
v 0.021087 -0.059534 0.051142
v 0.009336 -0.063807 0.053143
v 0.010893 -0.063807 0.052709
v 0.010916 -0.060078 0.054463
v 0.038001 -0.057717 0.039568
v 0.038001 -0.059721 0.038791
v 0.047104 -0.056604 0.027382
v 0.038001 -0.055212 0.040539
v 0.038001 -0.057717 0.039568
v 0.048762 -0.052568 0.027067
v 0.048762 -0.052568 0.027067
v 0.050113 -0.048473 0.027791
v 0.038001 -0.055212 0.040539
v 0.050113 -0.048473 0.027791
v 0.050995 -0.044460 0.029833
v 0.038002 -0.054305 0.040890
v 0.050995 -0.044460 0.029833
v 0.038002 -0.053214 0.042070
v 0.038002 -0.054305 0.040890
v 0.050995 -0.044460 0.029833
v 0.050113 -0.048473 0.027791
v 0.058812 -0.040815 0.013459
v 0.050113 -0.048473 0.027791
v 0.048762 -0.052568 0.027067
v 0.056332 -0.047030 0.013455
v 0.048762 -0.052568 0.027067
v 0.047104 -0.056604 0.027382
v 0.053430 -0.053145 0.015215
v 0.038001 -0.059721 0.038791
v 0.038002 -0.063807 0.037207
v 0.043537 -0.063807 0.029917
v 0.050216 -0.059042 0.018485
v 0.043537 -0.063807 0.029917
v 0.047319 -0.063807 0.022666
v 0.047104 -0.056604 0.027382
v 0.043537 -0.063807 0.029917
v 0.050216 -0.059042 0.018485
v 0.050216 -0.059042 0.018485
v 0.053430 -0.053145 0.015215
v 0.047104 -0.056604 0.027382
v 0.047319 -0.063807 0.022666
v 0.047714 -0.063807 0.021439
v 0.050216 -0.059042 0.018485
v 0.052996 -0.057618 0.008107
v 0.050216 -0.059042 0.018485
v 0.050128 -0.063807 0.013947
v 0.050216 -0.059042 0.018485
v 0.047714 -0.063807 0.021439
v 0.050128 -0.063807 0.013947
v 0.052996 -0.057618 0.008107
v 0.051292 -0.063807 0.005859
v 0.051214 -0.063807 0.002788
v 0.052996 -0.057618 0.008107
v 0.050368 -0.063807 0.012279
v 0.051292 -0.063807 0.005859
v 0.051214 -0.063807 0.002788
v 0.052046 -0.061159 0.001442
v 0.052996 -0.057618 0.008107
v 0.052046 -0.061159 0.001442
v 0.051214 -0.063807 0.002788
v 0.051055 -0.063807 -0.003299
v 0.050128 -0.063807 0.013947
v 0.050368 -0.063807 0.012279
v 0.052996 -0.057618 0.008107
v 0.043537 -0.063807 0.029917
v 0.047104 -0.056604 0.027382
v 0.038001 -0.059721 0.038791
v 0.053430 -0.053145 0.015215
v 0.050216 -0.059042 0.018485
v 0.052996 -0.057618 0.008107
v 0.053430 -0.053145 0.015215
v 0.056332 -0.047030 0.013455
v 0.048762 -0.052568 0.027067
v 0.038002 -0.054305 0.040890
v 0.038001 -0.055212 0.040539
v 0.050113 -0.048473 0.027791
v 0.047104 -0.056604 0.027382
v 0.048762 -0.052568 0.027067
v 0.038001 -0.057717 0.039568
v 0.010899 -0.055319 0.066424
v 0.000257 -0.056189 0.067250
v 0.000258 -0.058058 0.059134
v 0.010909 -0.057595 0.058002
v 0.000258 -0.058058 0.059134
v 0.000257 -0.060268 0.055627
v 0.021042 -0.052828 0.064073
v 0.010899 -0.055319 0.066424
v 0.010909 -0.057595 0.058002
v 0.021063 -0.056271 0.054779
v 0.010909 -0.057595 0.058002
v 0.010916 -0.060078 0.054463
v 0.030311 -0.054141 0.049643
v 0.021063 -0.056271 0.054779
v 0.021087 -0.059534 0.051142
v 0.021050 -0.051305 0.074022
v 0.010894 -0.054404 0.075168
v 0.010899 -0.055319 0.066424
v 0.030311 -0.054141 0.049643
v 0.038002 -0.051320 0.044117
v 0.038001 -0.047124 0.048654
v 0.030311 -0.054141 0.049643
v 0.038001 -0.051839 0.043557
v 0.038002 -0.051320 0.044117
v 0.021042 -0.052828 0.064073
v 0.021063 -0.056271 0.054779
v 0.030311 -0.054141 0.049643
v 0.030311 -0.054141 0.049643
v 0.038001 -0.044211 0.055814
v 0.021042 -0.052828 0.064073
v 0.021042 -0.052828 0.064073
v 0.038001 -0.041515 0.063638
v 0.038001 -0.040585 0.069950
v 0.021042 -0.052828 0.064073
v 0.038001 -0.044211 0.055814
v 0.038002 -0.041792 0.061758
v 0.038002 -0.041792 0.061758
v 0.038001 -0.041515 0.063638
v 0.021042 -0.052828 0.064073
v 0.038001 -0.040585 0.069950
v 0.033747 -0.042629 0.083704
v 0.026250 -0.047959 0.083704
v 0.038001 -0.040585 0.069950
v 0.038002 -0.038557 0.083704
v 0.033747 -0.042629 0.083704
v 0.026250 -0.047959 0.083704
v 0.021050 -0.051305 0.074022
v 0.038001 -0.040585 0.069950
v 0.010894 -0.054404 0.075168
v 0.021050 -0.051305 0.074022
v 0.018770 -0.051568 0.083704
v 0.021050 -0.051305 0.074022
v 0.021007 -0.050488 0.083704
v 0.018770 -0.051568 0.083704
v 0.010894 -0.054404 0.075168
v 0.009919 -0.054120 0.083704
v 0.001679 -0.055048 0.083704
v 0.018770 -0.051568 0.083704
v 0.009919 -0.054120 0.083704
v 0.010894 -0.054404 0.075168
v 0.026250 -0.047959 0.083704
v 0.021007 -0.050488 0.083704
v 0.021050 -0.051305 0.074022
v 0.038001 -0.040585 0.069950
v 0.021050 -0.051305 0.074022
v 0.021042 -0.052828 0.064073
v 0.038001 -0.047124 0.048654
v 0.038001 -0.044211 0.055814
v 0.030311 -0.054141 0.049643
v 0.038001 -0.051839 0.043557
v 0.030311 -0.054141 0.049643
v 0.030347 -0.058661 0.045835
v 0.010899 -0.055319 0.066424
v 0.021042 -0.052828 0.064073
v 0.021050 -0.051305 0.074022
v 0.000257 -0.056189 0.067250
v 0.010899 -0.055319 0.066424
v 0.010894 -0.054404 0.075168
v 0.021087 -0.059534 0.051142
v 0.030347 -0.058661 0.045835
v 0.030311 -0.054141 0.049643
v 0.010916 -0.060078 0.054463
v 0.021087 -0.059534 0.051142
v 0.021063 -0.056271 0.054779
v 0.010909 -0.057595 0.058002
v 0.021063 -0.056271 0.054779
v 0.021042 -0.052828 0.064073
v 0.000257 -0.060268 0.055627
v 0.010916 -0.060078 0.054463
v 0.010909 -0.057595 0.058002
v 0.000258 -0.058058 0.059134
v 0.010909 -0.057595 0.058002
v 0.010899 -0.055319 0.066424
v 0.038001 -0.047124 0.048654
v 0.051067 -0.041078 0.033335
v 0.049408 -0.036823 0.042017
v 0.038001 -0.047124 0.048654
v 0.038002 -0.051320 0.044117
v 0.051067 -0.041078 0.033335
v 0.038001 -0.047124 0.048654
v 0.049408 -0.036823 0.042017
v 0.047008 -0.034232 0.051412
v 0.047008 -0.034232 0.051412
v 0.045030 -0.032563 0.061496
v 0.038002 -0.041792 0.061758
v 0.038002 -0.041792 0.061758
v 0.038001 -0.044211 0.055814
v 0.047008 -0.034232 0.051412
v 0.045030 -0.032563 0.061496
v 0.038001 -0.041515 0.063638
v 0.038002 -0.041792 0.061758
v 0.048838 -0.022338 0.071513
v 0.044136 -0.031628 0.072365
v 0.045030 -0.032563 0.061496
v 0.050305 -0.022472 0.059321
v 0.045030 -0.032563 0.061496
v 0.047008 -0.034232 0.051412
v 0.053790 -0.023266 0.046821
v 0.047008 -0.034232 0.051412
v 0.049408 -0.036823 0.042017
v 0.048838 -0.022338 0.071513
v 0.050305 -0.022472 0.059321
v 0.053743 -0.011577 0.057171
v 0.053743 -0.011577 0.057171
v 0.052947 -0.001733 0.070268
v 0.048838 -0.022338 0.071513
v 0.051067 -0.041078 0.033335
v 0.038001 -0.051839 0.043557
v 0.038002 -0.053214 0.042070
v 0.051067 -0.041078 0.033335
v 0.038002 -0.051320 0.044117
v 0.038001 -0.051839 0.043557
v 0.051707 0.002123 0.083704
v 0.051771 -0.003179 0.083704
v 0.052947 -0.001733 0.070268
v 0.052947 -0.001733 0.070268
v 0.051818 -0.007090 0.083704
v 0.050940 -0.013400 0.083704
v 0.050940 -0.013400 0.083704
v 0.048838 -0.022338 0.071513
v 0.052947 -0.001733 0.070268
v 0.052947 -0.001733 0.070268
v 0.051771 -0.003179 0.083704
v 0.051818 -0.007090 0.083704
v 0.050940 -0.013400 0.083704
v 0.048652 -0.021377 0.083704
v 0.048838 -0.022338 0.071513
v 0.048838 -0.022338 0.071513
v 0.048292 -0.022128 0.083704
v 0.044662 -0.029681 0.083704
v 0.044662 -0.029681 0.083704
v 0.044136 -0.031628 0.072365
v 0.048838 -0.022338 0.071513
v 0.038002 -0.038557 0.083704
v 0.038001 -0.040585 0.069950
v 0.044136 -0.031628 0.072365
v 0.044136 -0.031628 0.072365
v 0.043954 -0.030822 0.083704
v 0.043645 -0.031321 0.083704
v 0.045030 -0.032563 0.061496
v 0.044136 -0.031628 0.072365
v 0.038001 -0.040585 0.069950
v 0.038001 -0.040585 0.069950
v 0.038001 -0.041515 0.063638
v 0.045030 -0.032563 0.061496
v 0.044136 -0.031628 0.072365
v 0.043645 -0.031321 0.083704
v 0.038002 -0.038557 0.083704
v 0.044662 -0.029681 0.083704
v 0.043954 -0.030822 0.083704
v 0.044136 -0.031628 0.072365
v 0.048652 -0.021377 0.083704
v 0.048292 -0.022128 0.083704
v 0.048838 -0.022338 0.071513
v 0.058043 -0.025195 0.033838
v 0.049408 -0.036823 0.042017
v 0.051067 -0.041078 0.033335
v 0.038002 -0.053214 0.042070
v 0.050995 -0.044460 0.029833
v 0.051067 -0.041078 0.033335
v 0.047008 -0.034232 0.051412
v 0.053790 -0.023266 0.046821
v 0.050305 -0.022472 0.059321
v 0.045030 -0.032563 0.061496
v 0.050305 -0.022472 0.059321
v 0.048838 -0.022338 0.071513
v 0.047008 -0.034232 0.051412
v 0.038001 -0.044211 0.055814
v 0.038001 -0.047124 0.048654
v -0.014694 0.017118 0.083704
v -0.042470 0.026840 0.083704
v -0.043846 0.024466 0.083704
v -0.024998 -0.003107 0.083704
v -0.051709 0.002072 0.083704
v -0.051815 0.000876 0.083704
v -0.024998 -0.003107 0.083704
v -0.023775 0.004618 0.083704
v -0.050901 0.006306 0.083704
v -0.051704 -0.008337 0.083704
v -0.050212 -0.016500 0.083704
v -0.023775 -0.010832 0.083704
v -0.014694 0.017118 0.083704
v -0.037998 0.032343 0.083704
v -0.042470 0.026840 0.083704
v -0.014694 0.017118 0.083704
v -0.027294 0.041116 0.083704
v -0.034673 0.035602 0.083704
v -0.050901 0.006306 0.083704
v -0.051709 0.002072 0.083704
v -0.024998 -0.003107 0.083704
v -0.023775 0.004618 0.083704
v -0.048263 0.015725 0.083704
v -0.049989 0.011094 0.083704
v -0.024998 -0.003107 0.083704
v -0.051762 -0.003407 0.083704
v -0.051704 -0.008337 0.083704
v 0.023778 0.004618 0.083704
v 0.023778 -0.010832 0.083704
v 0.051770 -0.003179 0.083704
v 0.023778 -0.010832 0.083704
v 0.050941 -0.013400 0.083704
v 0.051818 -0.007090 0.083704
v 0.014696 0.017118 0.083704
v 0.023778 0.004618 0.083704
v 0.042951 0.026152 0.083704
v 0.000001 0.021893 0.083704
v 0.014696 0.017118 0.083704
v 0.018812 0.045338 0.083704
v 0.000001 0.021893 0.083704
v -0.011141 0.047653 0.083704
v -0.019907 0.044897 0.083704
v -0.023775 0.004618 0.083704
v -0.043846 0.024466 0.083704
v -0.047092 0.018870 0.083704
v -0.034673 0.035602 0.083704
v -0.037998 0.032343 0.083704
v -0.014694 0.017118 0.083704
v -0.049989 0.011094 0.083704
v -0.050901 0.006306 0.083704
v -0.023775 0.004618 0.083704
v -0.023775 -0.010832 0.083704
v -0.024998 -0.003107 0.083704
v -0.051704 -0.008337 0.083704
v -0.014693 -0.023332 0.083704
v -0.042948 -0.032367 0.083704
v -0.037998 -0.038557 0.083704
v -0.023775 -0.010832 0.083704
v -0.047058 -0.025157 0.083704
v -0.043655 -0.031124 0.083704
v 0.000002 -0.028107 0.083704
v -0.014693 -0.023332 0.083704
v -0.020520 -0.050634 0.083704
v 0.000002 -0.028107 0.083704
v 0.009920 -0.054120 0.083704
v 0.018770 -0.051568 0.083704
v 0.014696 -0.023332 0.083704
v 0.038001 -0.038557 0.083704
v 0.043644 -0.031321 0.083704
v 0.051770 -0.003179 0.083704
v 0.051707 0.002123 0.083704
v 0.023778 0.004618 0.083704
v 0.023778 -0.010832 0.083704
v 0.048653 -0.021377 0.083704
v 0.050941 -0.013400 0.083704
v 0.023778 0.004618 0.083704
v 0.043867 0.024545 0.083704
v 0.042951 0.026152 0.083704
v 0.023778 0.004618 0.083704
v 0.048197 0.015825 0.083704
v 0.047061 0.018943 0.083704
v 0.000001 0.021893 0.083704
v 0.009962 0.047898 0.083704
v 0.001713 0.048833 0.083704
v 0.014696 0.017118 0.083704
v 0.020893 0.044332 0.083704
v 0.018812 0.045338 0.083704
v -0.019907 0.044897 0.083704
v -0.014694 0.017118 0.083704
v 0.000001 0.021893 0.083704
v 0.000001 0.021893 0.083704
v 0.000009 0.048738 0.083704
v -0.007485 0.048319 0.083704
v -0.043846 0.024466 0.083704
v -0.023775 0.004618 0.083704
v -0.014694 0.017118 0.083704
v -0.050212 -0.016500 0.083704
v -0.048054 -0.022422 0.083704
v -0.023775 -0.010832 0.083704
v -0.014693 -0.023332 0.083704
v -0.043655 -0.031124 0.083704
v -0.042948 -0.032367 0.083704
v -0.023775 -0.010832 0.083704
v -0.048054 -0.022422 0.083704
v -0.047058 -0.025157 0.083704
v 0.000002 -0.028107 0.083704
v -0.010355 -0.053879 0.083704
v -0.007519 -0.054528 0.083704
v -0.020520 -0.050634 0.083704
v -0.015612 -0.052674 0.083704
v 0.000002 -0.028107 0.083704
v 0.018770 -0.051568 0.083704
v 0.014696 -0.023332 0.083704
v 0.000002 -0.028107 0.083704
v 0.000002 -0.028107 0.083704
v 0.000263 -0.054968 0.083704
v 0.001679 -0.055048 0.083704
v 0.023778 -0.010832 0.083704
v 0.043954 -0.030822 0.083704
v 0.044662 -0.029681 0.083704
v 0.014696 -0.023332 0.083704
v 0.033746 -0.042629 0.083704
v 0.038001 -0.038557 0.083704
v 0.051818 -0.007090 0.083704
v 0.051770 -0.003179 0.083704
v 0.023778 -0.010832 0.083704
v 0.042951 0.026152 0.083704
v 0.038001 0.032343 0.083704
v 0.014696 0.017118 0.083704
v 0.023778 0.004618 0.083704
v 0.050215 0.010286 0.083704
v 0.048197 0.015825 0.083704
v 0.018812 0.045338 0.083704
v 0.009962 0.047898 0.083704
v 0.000001 0.021893 0.083704
v 0.014696 0.017118 0.083704
v 0.033788 0.036380 0.083704
v 0.026288 0.041723 0.083704
v -0.007485 0.048319 0.083704
v -0.011141 0.047653 0.083704
v 0.000001 0.021893 0.083704
v -0.051815 0.000876 0.083704
v -0.051762 -0.003407 0.083704
v -0.024998 -0.003107 0.083704
v -0.043655 -0.031124 0.083704
v -0.014693 -0.023332 0.083704
v -0.023775 -0.010832 0.083704
v -0.015612 -0.052674 0.083704
v -0.010355 -0.053879 0.083704
v 0.000002 -0.028107 0.083704
v -0.014693 -0.023332 0.083704
v -0.031141 -0.044710 0.083704
v -0.024119 -0.049139 0.083704
v 0.014696 -0.023332 0.083704
v 0.021007 -0.050488 0.083704
v 0.026251 -0.047959 0.083704
v 0.001679 -0.055048 0.083704
v 0.009920 -0.054120 0.083704
v 0.000002 -0.028107 0.083704
v 0.044662 -0.029681 0.083704
v 0.048291 -0.022128 0.083704
v 0.023778 -0.010832 0.083704
v 0.043644 -0.031321 0.083704
v 0.023778 -0.010832 0.083704
v 0.014696 -0.023332 0.083704
v 0.051707 0.002123 0.083704
v 0.050908 0.006487 0.083704
v 0.023778 0.004618 0.083704
v 0.047061 0.018943 0.083704
v 0.043867 0.024545 0.083704
v 0.023778 0.004618 0.083704
v 0.026288 0.041723 0.083704
v 0.020893 0.044332 0.083704
v 0.014696 0.017118 0.083704
v -0.019907 0.044897 0.083704
v -0.020912 0.044382 0.083704
v -0.014694 0.017118 0.083704
v -0.037998 -0.038557 0.083704
v -0.031141 -0.044710 0.083704
v -0.014693 -0.023332 0.083704
v -0.024119 -0.049139 0.083704
v -0.020520 -0.050634 0.083704
v -0.014693 -0.023332 0.083704
v 0.018770 -0.051568 0.083704
v 0.021007 -0.050488 0.083704
v 0.014696 -0.023332 0.083704
v 0.043644 -0.031321 0.083704
v 0.043954 -0.030822 0.083704
v 0.023778 -0.010832 0.083704
v 0.038001 0.032343 0.083704
v 0.033788 0.036380 0.083704
v 0.014696 0.017118 0.083704
v -0.020912 0.044382 0.083704
v -0.027294 0.041116 0.083704
v -0.014694 0.017118 0.083704
v -0.007519 -0.054528 0.083704
v 0.000263 -0.054968 0.083704
v 0.000002 -0.028107 0.083704
v 0.048291 -0.022128 0.083704
v 0.048653 -0.021377 0.083704
v 0.023778 -0.010832 0.083704
v 0.001713 0.048833 0.083704
v 0.000009 0.048738 0.083704
v 0.000001 0.021893 0.083704
v 0.026251 -0.047959 0.083704
v 0.033746 -0.042629 0.083704
v 0.014696 -0.023332 0.083704
v -0.047092 0.018870 0.083704
v -0.048263 0.015725 0.083704
v -0.023775 0.004618 0.083704
v 0.050908 0.006487 0.083704
v 0.050215 0.010286 0.083704
v 0.023778 0.004618 0.083704
vn -0.9040 -0.4022 -0.1447
vn -0.9041 -0.3647 -0.2226
vn -0.9167 -0.3879 -0.0961
vn -0.8572 -0.4151 -0.3048
vn -0.8695 -0.4193 -0.2612
vn -0.7912 -0.4528 -0.4111
vn -0.6743 -0.4729 -0.5672
vn -0.6784 -0.4623 -0.5711
vn -0.6743 -0.4731 -0.5670
vn -0.6851 -0.4878 -0.5410
vn -0.9516 -0.1404 0.2734
vn -0.9762 0.0882 0.1983
vn -0.9610 -0.1402 0.2383
vn -0.8533 -0.3967 0.3385
vn -0.8592 -0.3955 0.3246
vn -0.8619 -0.3766 0.3395
vn -0.9659 -0.2152 0.1436
vn -0.9676 -0.1645 0.1916
vn -0.9536 -0.2848 0.0982
vn -0.9597 -0.2585 0.1103
vn -0.9734 -0.1990 -0.1132
vn -0.9455 -0.3127 0.0908
vn -0.9344 -0.3367 -0.1166
vn -0.9086 -0.3977 0.1277
vn -0.9175 -0.3925 -0.0648
vn -0.9166 -0.3991 0.0231
vn -0.7712 -0.2494 -0.5857
vn -0.7173 -0.3167 -0.6206
vn -0.8715 -0.2142 -0.4412
vn -0.7778 -0.3375 -0.5302
vn -0.9384 -0.2114 -0.2732
vn -0.8675 -0.2990 -0.3977
vn -0.9330 -0.2494 -0.2594
vn -0.9684 -0.2302 -0.0958
vn -0.9590 0.2214 0.1767
vn -0.9591 0.2213 0.1767
vn -0.9762 0.0881 0.1981
vn -0.9874 0.0863 0.1325
vn -0.9932 0.0384 0.1096
vn -0.9819 0.1043 0.1584
vn -0.9931 0.0387 0.1104
vn -0.9981 -0.0593 -0.0191
vn -0.9975 -0.0394 0.0585
vn -0.9782 -0.1809 -0.1017
vn -0.9878 -0.1329 -0.0809
vn -0.9618 -0.1925 -0.1945
vn -0.9666 -0.1387 -0.2155
vn -0.8847 -0.2395 -0.3999
vn -0.9233 -0.2840 -0.2585
vn -0.9375 -0.2198 -0.2699
vn -0.8350 -0.3500 -0.4246
vn -0.8665 -0.3458 -0.3601
vn -0.8846 -0.2395 -0.4001
vn -0.8349 -0.3500 -0.4248
vn -0.7513 -0.4264 -0.5037
vn -0.7783 -0.4381 -0.4498
vn -0.6635 -0.4708 -0.5816
vn -0.7664 -0.4205 -0.4856
vn -0.6724 -0.4744 -0.5682
vn -0.7679 -0.4195 -0.4841
vn -0.7684 -0.3969 -0.5019
vn -0.8610 -0.3529 -0.3664
vn -0.9152 -0.2985 -0.2708
vn -0.9665 -0.1391 -0.2158
vn -0.9807 -0.1714 -0.0944
vn -0.9878 -0.1330 -0.0810
vn -0.9995 -0.0059 0.0324
vn -0.9819 0.1041 0.1582
vn -0.9810 0.1523 0.1202
vn -0.9678 -0.2314 -0.0990
vn -0.8674 -0.2990 -0.3977
vn -0.7776 -0.3376 -0.5305
vn -0.9356 -0.3493 -0.0514
vn -0.9396 -0.3238 -0.1107
vn -0.9378 -0.3288 0.1118
vn -0.9543 -0.2665 -0.1352
vn -0.9240 -0.3716 0.0899
vn -0.9578 -0.2567 -0.1292
vn -0.9468 -0.3077 0.0940
vn -0.9624 -0.1522 0.2252
vn -0.9659 -0.2147 0.1446
vn -0.8550 -0.4030 0.3265
vn -0.9487 -0.1281 0.2891
vn -0.7604 -0.2945 -0.5789
vn -0.7834 -0.4281 -0.4506
vn -0.8713 -0.3850 -0.3043
vn -0.8389 -0.3954 -0.3741
vn -0.9297 -0.3410 -0.1392
vn -0.9079 -0.3144 -0.2771
vn -0.9017 -0.3698 -0.2239
vn -0.2720 -0.3059 -0.9124
vn -0.4408 -0.3286 -0.8353
vn -0.4751 -0.3856 -0.7910
vn -0.3378 -0.3675 -0.8665
vn -0.6447 -0.4894 -0.5873
vn -0.6331 -0.3509 -0.6900
vn -0.6331 -0.3517 -0.6895
vn -0.5578 -0.3644 -0.7457
vn -0.4069 -0.4743 -0.7807
vn -0.4560 -0.4132 -0.7883
vn -0.4091 -0.5719 -0.7111
vn -0.3919 -0.5879 -0.7077
vn -0.2942 -0.5127 -0.8066
vn -0.4089 -0.5721 -0.7110
vn -0.1752 -0.5486 -0.8175
vn -0.2944 -0.5127 -0.8065
vn -0.5140 -0.5489 -0.6592
vn -0.5838 -0.3519 -0.7316
vn -0.3384 -0.3674 -0.8663
vn -0.2433 -0.5035 -0.8290
vn -0.9675 0.1838 0.1738
vn -0.8537 0.4942 0.1644
vn -0.9461 -0.2167 0.2406
vn -0.9799 -0.0069 0.1992
vn -0.9906 -0.1058 0.0870
vn -0.9777 0.1864 0.0965
vn -0.9904 0.0878 0.1072
vn -0.9935 -0.0121 0.1128
vn -0.9321 0.3474 0.1025
vn -0.9188 0.3769 0.1169
vn -0.9744 0.1856 0.1270
vn -0.8620 0.4998 0.0849
vn -0.9321 0.3473 0.1025
vn -0.7736 0.6114 0.1665
vn -0.7726 0.6279 0.0937
vn -0.8606 0.4988 0.1027
vn -0.7660 0.6167 0.1812
vn -0.7736 0.6114 0.1664
vn -0.7384 0.6423 0.2055
vn -0.8670 0.4868 0.1064
vn -0.8009 0.5265 0.2854
vn -0.9252 0.3373 0.1736
vn -0.9343 0.3181 0.1612
vn -0.8778 0.4115 0.2453
vn -0.9703 0.1794 0.1620
vn -0.9358 0.2525 0.2460
vn -0.9583 0.2067 0.1973
vn -0.9252 0.3374 0.1738
vn -0.9244 0.3311 0.1895
vn -0.8611 0.4739 0.1842
vn -0.7448 0.6542 0.1313
vn -0.7292 0.6566 0.1925
vn -0.8740 0.4756 0.0994
vn -0.9367 0.3163 0.1505
vn -0.9874 0.1063 0.1173
vn -0.9631 0.0236 0.2683
vn -0.9280 -0.1721 0.3305
vn -0.9660 -0.0701 0.2489
vn -0.8614 0.4777 0.1726
vn -0.9698 0.1251 0.2094
vn -0.5967 0.7986 0.0789
vn -0.8271 0.5413 0.1512
vn -0.6961 0.7104 0.1041
vn -0.5698 0.8203 0.0500
vn 0.2646 0.8942 0.3612
vn -0.0552 0.9910 0.1217
vn 0.2524 0.9636 0.0879
vn 0.1118 0.9861 0.1229
vn 0.1007 0.9877 0.1197
vn 0.2763 0.9552 0.1056
vn -0.1779 0.9767 0.1201
vn -0.2980 0.9477 0.1140
vn -0.2704 0.9580 0.0957
vn -0.4525 0.8838 0.1189
vn -0.0554 0.9901 0.1288
vn -0.0668 0.9901 0.1232
vn -0.3343 0.9249 0.1811
vn -0.2428 0.8729 0.4232
vn -0.5969 0.7732 0.2143
vn -0.6040 0.7714 0.2002
vn -0.4468 0.8804 0.1593
vn -0.5413 0.7885 0.2921
vn -0.6564 0.7297 0.1915
vn -0.4466 0.8804 0.1593
vn -0.1999 0.9732 0.1141
vn 0.0159 0.9915 0.1289
vn 0.1088 0.4476 0.8876
vn -0.4524 0.8839 0.1189
vn 0.9005 -0.3686 -0.2305
vn 0.9077 -0.3111 -0.2816
vn 0.9250 -0.3499 -0.1482
vn 0.8380 -0.3927 -0.3789
vn 0.8651 -0.3937 -0.3108
vn 0.7763 -0.4367 -0.4546
vn 0.6679 -0.4843 -0.5651
vn 0.6702 -0.4729 -0.5720
vn 0.7026 -0.4827 -0.5229
vn 0.6482 -0.4135 -0.6395
vn 0.6483 -0.4137 -0.6392
vn 0.9683 -0.2071 0.1399
vn 0.9492 -0.3023 0.0872
vn 0.9556 -0.2803 0.0912
vn 0.9591 -0.2500 -0.1327
vn 0.9257 -0.3694 0.0811
vn 0.9349 -0.3233 0.1462
vn 0.9547 -0.2625 -0.1403
vn 0.9389 -0.3288 0.1021
vn 0.9395 -0.3218 -0.1176
vn 0.9349 -0.3499 -0.0602
vn 0.9778 -0.1825 -0.1025
vn 0.9349 -0.2198 -0.2787
vn 0.9321 -0.3122 -0.1838
vn 0.8596 -0.2564 -0.4421
vn 0.8805 -0.3357 -0.3346
vn 0.7458 -0.2958 -0.5969
vn 0.8108 -0.3392 -0.4770
vn 0.6724 -0.4687 -0.5729
vn 0.6749 -0.4702 -0.5686
vn 0.7801 -0.4142 -0.4689
vn 0.7527 -0.4234 -0.5042
vn 0.6690 -0.4703 -0.5755
vn 0.8928 -0.3116 -0.3254
vn 0.8575 -0.3556 -0.3719
vn 0.8457 -0.3473 -0.4052
vn 0.7812 -0.3731 -0.5006
vn 0.9458 -0.1833 -0.2682
vn 0.9121 -0.3015 -0.2778
vn 0.8894 -0.1905 -0.4156
vn 0.9664 -0.1886 -0.1746
vn 0.9457 -0.1833 -0.2682
vn 0.9918 -0.1100 -0.0653
vn 0.9897 -0.1253 -0.0699
vn 0.9707 -0.2051 -0.1255
vn 0.9973 -0.0733 0.0016
vn 0.9918 -0.1100 -0.0652
vn 0.9990 0.0102 0.0438
vn 0.9990 0.0103 0.0439
vn 0.9796 -0.1754 -0.0986
vn 0.9267 -0.2777 -0.2532
vn 0.8896 -0.1904 -0.4151
vn 0.8132 -0.3707 -0.4486
vn 0.7811 -0.3731 -0.5006
vn 0.7772 -0.4349 -0.4547
vn 0.6694 -0.4523 -0.5893
vn 0.7503 -0.3593 -0.5550
vn 0.8107 -0.3393 -0.4771
vn 0.8806 -0.3356 -0.3346
vn 0.9321 -0.3121 -0.1836
vn 0.9512 -0.3074 0.0279
vn 0.9163 -0.4004 0.0130
vn 0.9179 -0.3901 -0.0729
vn 0.9098 -0.3978 0.1180
vn 0.9353 -0.3321 -0.1224
vn 0.8723 -0.3483 0.3433
vn 0.9471 -0.3104 0.0820
vn 0.9740 -0.1938 -0.1170
vn 0.9620 -0.2526 0.1039
vn 0.9683 -0.2076 0.1388
vn 0.8666 -0.3738 0.3305
vn 0.8643 -0.3898 0.3178
vn 0.6701 -0.4732 -0.5719
vn 0.7835 -0.4614 -0.4163
vn 0.8628 -0.4281 -0.2688
vn 0.8558 -0.4131 -0.3113
vn 0.9115 -0.3975 -0.1057
vn 0.9040 -0.3613 -0.2287
vn 0.9029 -0.4017 -0.1532
vn 0.1603 -0.3688 -0.9156
vn 0.2433 -0.5035 -0.8290
vn -0.0838 -0.4702 -0.8786
vn -0.1603 -0.3688 -0.9156
vn 0.4359 -0.3536 -0.8276
vn 0.5644 -0.3800 -0.7329
vn 0.2943 -0.3473 -0.8904
vn 0.2711 -0.3142 -0.9098
vn 0.4394 -0.3499 -0.8273
vn 0.1405 -0.3500 -0.9262
vn 0.0918 -0.2987 -0.9499
vn -0.0248 -0.3492 -0.9367
vn -0.0919 -0.2957 -0.9509
vn -0.1887 -0.3587 -0.9142
vn -0.1270 -0.6251 -0.7702
vn 0.0712 -0.5046 -0.8604
vn 0.1266 -0.6275 -0.7682
vn 0.3948 -0.5834 -0.7098
vn 0.3998 -0.6125 -0.6819
vn 0.3299 -0.5187 -0.7887
vn 0.2037 -0.5285 -0.8241
vn 0.4349 -0.5458 -0.7162
vn 0.4582 -0.4103 -0.7885
vn 0.5169 -0.5563 -0.6506
vn 0.5149 -0.5452 -0.6616
vn 0.5436 -0.4558 -0.7048
vn 0.5699 -0.3747 -0.7313
vn 0.6416 -0.4165 -0.6441
vn 0.5645 -0.3799 -0.7328
vn 0.4069 -0.4743 -0.7807
vn 0.3948 -0.5836 -0.7097
vn 0.2042 -0.5285 -0.8240
vn -0.0533 -0.5052 -0.8614
vn -0.1888 -0.3587 -0.9142
vn -0.0251 -0.3492 -0.9367
vn 0.1406 -0.3500 -0.9261
vn 0.4390 -0.3500 -0.8275
vn 0.0838 -0.4702 -0.8786
vn 0.9693 0.1299 0.2088
vn 0.8601 0.4797 0.1734
vn 0.9312 -0.2396 0.2748
vn 0.9665 -0.0643 0.2484
vn 0.9298 -0.1648 0.3291
vn 0.9635 0.0288 0.2660
vn 0.9505 -0.1196 0.2867
vn 0.8585 -0.3878 0.3355
vn 0.8605 -0.3948 0.3220
vn 0.8622 -0.3731 0.3428
vn 0.9644 -0.1436 0.2220
vn 0.9931 0.0415 0.1094
vn 0.9909 0.0591 0.1207
vn 0.9866 0.0916 0.1352
vn 0.9785 0.1141 0.1721
vn 0.9359 0.2546 0.2433
vn 0.9585 0.2070 0.1960
vn 0.9589 0.2135 0.1871
vn 0.9762 0.1801 0.1208
vn 0.9000 0.3765 0.2196
vn 0.9240 0.3323 0.1892
vn 0.9248 0.3410 0.1685
vn 0.7938 0.5212 0.3133
vn 0.8916 0.4137 0.1843
vn 0.8453 0.4959 0.1989
vn 0.7543 0.6288 0.1886
vn 0.7524 0.6309 0.1892
vn 0.7614 0.6406 0.0990
vn 0.7792 0.6229 0.0705
vn 0.7722 0.6245 0.1172
vn 0.7737 0.6114 0.1664
vn 0.7737 0.6113 0.1665
vn 0.8733 0.4774 0.0968
vn 0.8654 0.4934 0.0876
vn 0.9197 0.3733 0.1218
vn 0.9354 0.3196 0.1515
vn 0.9345 0.3405 0.1037
vn 0.9917 0.0649 0.1108
vn 0.9829 0.1797 0.0392
vn 0.9821 0.1172 0.1471
vn 0.9760 0.1783 0.1251
vn 0.8645 0.4928 0.0990
vn 0.7535 0.6308 0.1855
vn 0.8536 0.4953 0.1613
vn 0.9311 0.3227 0.1698
vn 0.9249 0.3409 0.1683
vn 0.9705 0.1821 0.1578
vn 0.9765 0.1794 0.1197
vn 0.9761 0.0930 0.1963
vn 0.9786 0.1138 0.1717
vn 0.9697 -0.1558 0.1881
vn 0.9630 -0.1314 0.2354
vn 0.9760 0.0933 0.1968
vn 0.9535 -0.1318 0.2710
vn 0.9800 -0.0008 0.1988
vn 0.9875 -0.0913 0.1286
vn 0.9480 -0.2089 0.2401
vn 0.8537 -0.3958 0.3385
vn 0.8525 0.4958 0.1655
vn 0.9667 0.1880 0.1737
vn 0.7299 0.6722 0.1245
vn 0.6896 0.7198 0.0803
vn 0.5695 0.8201 0.0550
vn 0.5789 0.8127 0.0660
vn 0.4320 0.8934 0.1235
vn 0.5320 0.7949 0.2917
vn 0.6199 0.7594 0.1977
vn 0.5489 0.7979 0.2491
vn 0.3519 0.9253 0.1416
vn 0.4319 0.8934 0.1235
vn 0.7999 0.5785 0.1594
vn -0.8484 -0.4056 0.3400
vn -0.8476 -0.3945 0.3550
vn -0.8683 -0.3476 0.3538
vn -0.8751 -0.3098 0.3719
vn -0.9015 -0.3839 0.1998
vn -0.9716 -0.2143 -0.1001
vn -0.9677 -0.2519 0.0113
vn -0.9519 -0.2999 0.0630
vn -0.9540 -0.2975 0.0385
vn -0.9394 -0.2575 0.2264
vn -0.9403 -0.2554 0.2250
vn -0.8893 -0.2394 0.3897
vn -0.8808 -0.2635 0.3934
vn -0.8946 -0.2318 0.3820
vn -0.7728 -0.1217 0.6229
vn -0.7655 -0.1402 0.6279
vn -0.8146 -0.2482 0.5243
vn -0.7367 -0.1724 0.6539
vn -0.7709 -0.3449 0.5354
vn -0.7832 -0.2754 0.5574
vn -0.7840 -0.2714 0.5583
vn -0.7509 -0.4195 0.5100
vn -0.7386 -0.4895 0.4634
vn -0.7400 -0.5320 0.4116
vn -0.7478 -0.2904 0.5971
vn -0.7372 -0.5345 0.4133
vn -0.7306 -0.5881 0.3470
vn -0.7373 -0.5347 0.4130
vn -0.7394 -0.5370 0.4061
vn -0.7400 -0.5324 0.4111
vn -0.7720 -0.2779 0.5716
vn -0.7833 -0.2718 0.5590
vn -0.8145 -0.2481 0.5244
vn -0.8914 -0.2462 0.3805
vn -0.9395 -0.2588 0.2245
vn -0.9713 -0.2291 0.0644
vn -0.9344 -0.3199 0.1568
vn -0.8701 -0.3250 0.3707
vn -0.8691 -0.3452 0.3543
vn -0.8661 -0.3620 0.3447
vn -0.8570 -0.3777 0.3506
vn -0.5406 -0.7923 0.2828
vn -0.5296 -0.6713 0.5185
vn -0.5296 -0.6710 0.5189
vn -0.5835 -0.3812 0.7171
vn -0.6089 -0.3469 0.7134
vn -0.6717 -0.5859 0.4533
vn -0.2409 -0.7259 0.6442
vn -0.0697 -0.8190 0.5695
vn -0.6631 -0.3272 0.6732
vn -0.6226 -0.2370 0.7458
vn -0.6631 -0.3273 0.6732
vn -0.6642 -0.1906 0.7228
vn -0.4910 -0.2466 0.8356
vn -0.5391 -0.2843 0.7928
vn -0.3005 -0.3154 0.9001
vn -0.4054 -0.3663 0.8375
vn -0.0978 -0.3616 0.9272
vn -0.1547 -0.3932 0.9064
vn -0.2459 -0.4082 0.8792
vn -0.0593 -0.4336 0.8992
vn -0.0590 -0.4336 0.8992
vn -0.2455 -0.4082 0.8793
vn -0.4051 -0.3664 0.8376
vn -0.5393 -0.2843 0.7927
vn -0.2685 -0.7907 0.5502
vn -0.4037 -0.6837 0.6079
vn -0.5295 -0.6714 0.5185
vn -0.8617 -0.4314 0.2672
vn -0.7864 -0.5818 0.2076
vn -0.7678 -0.6034 0.2154
vn -0.7814 -0.6189 0.0804
vn -0.7824 -0.6173 0.0827
vn -0.7783 -0.6223 0.0835
vn -0.8657 -0.4935 0.0840
vn -0.8871 -0.4564 0.0686
vn -0.9361 -0.3411 0.0858
vn -0.9535 -0.2925 0.0730
vn -0.9791 -0.1790 0.0962
vn -0.9935 -0.0119 0.1128
vn -0.9362 -0.3409 0.0858
vn -0.8659 -0.4932 0.0840
vn -0.7685 -0.5910 0.2454
vn -0.9299 -0.2458 0.2737
vn -0.8553 -0.4029 0.3258
vn -0.8783 -0.4156 0.2364
vn -0.5393 -0.7908 0.2897
vn 0.1042 -0.9911 0.0834
vn -0.5539 -0.8234 0.1235
vn -0.5577 -0.8227 0.1102
vn -0.5378 -0.7940 0.2833
vn -0.2183 -0.9166 0.3349
vn -0.0629 -0.9643 0.2573
vn 0.1028 -0.9941 0.0359
vn -0.0563 -0.9964 0.0639
vn -0.0599 -0.9964 0.0604
vn -0.0796 -0.9933 0.0836
vn -0.3824 -0.9201 0.0850
vn -0.2226 -0.9711 0.0863
vn -0.2468 -0.9659 0.0781
vn -0.5334 -0.8458 0.0111
vn -0.5378 -0.8430 0.0043
vn -0.3823 -0.9201 0.0850
vn -0.6646 -0.7406 0.0993
vn -0.4624 -0.8769 0.1316
vn -0.2223 -0.9712 0.0863
vn -0.0845 -0.8430 0.5312
vn -0.0878 -0.9707 0.2235
vn -0.2760 -0.9286 0.2480
vn 0.0946 -0.3978 0.9126
vn 0.1073 -0.3719 0.9220
vn 0.2444 -0.4140 0.8768
vn 0.3101 -0.3090 0.8991
vn 0.3975 -0.3628 0.8429
vn 0.4994 -0.2454 0.8309
vn 0.6455 -0.2127 0.7335
vn 0.6672 -0.2693 0.6945
vn 0.5458 -0.3016 0.7818
vn 0.6504 -0.5577 0.5157
vn 0.6284 -0.2809 0.7254
vn 0.6284 -0.2812 0.7253
vn 0.6284 -0.2811 0.7253
vn 0.5456 -0.3016 0.7819
vn 0.3974 -0.3628 0.8429
vn 0.2445 -0.4140 0.8768
vn 0.7909 -0.2212 0.5706
vn 0.7823 -0.2251 0.5807
vn 0.7646 -0.3481 0.5424
vn 0.7514 -0.4229 0.5065
vn 0.7500 -0.4856 0.4490
vn 0.8701 -0.3616 0.3349
vn 0.8722 -0.3484 0.3433
vn 0.8726 -0.3304 0.3598
vn 0.7754 -0.2283 0.5888
vn 0.8789 -0.1319 0.4584
vn 0.8733 -0.2964 0.3866
vn 0.8836 -0.2695 0.3828
vn 0.9093 -0.2958 0.2927
vn 0.9476 -0.2291 0.2224
vn 0.9093 -0.2956 0.2930
vn 0.9661 -0.2568 -0.0248
vn 0.9416 -0.3083 0.1355
vn 0.9564 -0.2914 0.0186
vn 0.9500 -0.3114 -0.0247
vn 0.7921 -0.1879 0.5807
vn 0.9024 -0.3874 0.1886
vn 0.8784 -0.3129 0.3612
vn 0.7635 -0.2332 0.6022
vn 0.7817 -0.2775 0.5586
vn 0.0966 -0.9699 0.2234
vn 0.0930 -0.8424 0.5308
vn 0.2852 -0.9252 0.2504
vn 0.2778 -0.7861 0.5521
vn 0.4772 -0.6525 0.5886
vn 0.3007 -0.9485 0.0994
vn 0.6036 -0.5853 0.5413
vn 0.6038 -0.5848 0.5418
vn 0.3788 -0.8676 0.3222
vn 0.5663 -0.7045 0.4278
vn 0.5530 -0.8243 0.1215
vn 0.5475 -0.7751 0.3154
vn 0.5530 -0.8243 0.1214
vn 0.5785 -0.8136 0.0581
vn 0.6875 -0.7184 0.1059
vn 0.5352 -0.8447 0.0044
vn 0.2961 -0.9541 0.0438
vn 0.4335 -0.8978 0.0776
vn 0.1118 -0.9927 0.0458
vn 0.2765 -0.9589 0.0635
vn 0.4331 -0.8980 0.0777
vn 0.5516 -0.8245 0.1258
vn 0.6663 -0.6907 0.2810
vn 0.6244 -0.5004 0.5998
vn 0.2677 -0.9524 0.1456
vn 0.0890 -0.9906 0.1037
vn 0.4472 -0.5742 0.6858
vn 0.2499 -0.7199 0.6475
vn 0.2266 -0.9132 0.3388
vn 0.0771 -0.8161 0.5727
vn 0.0695 -0.9630 0.2603
vn 0.7312 -0.5470 0.4077
vn 0.7506 -0.4851 0.4487
vn 0.7317 -0.5858 0.3485
vn 0.7740 -0.5825 0.2482
vn 0.7709 -0.5899 0.2401
vn 0.7936 -0.6019 0.0887
vn 0.8908 -0.4407 0.1112
vn 0.8805 -0.4085 0.2403
vn 0.8587 -0.3937 0.3280
vn 0.9534 -0.2776 0.1178
vn 0.9642 -0.1805 0.1943
vn 0.7506 -0.4851 0.4486
vn 0.7506 -0.4847 0.4490
vn 0.9960 0.0120 0.0885
vn 0.9901 -0.1376 0.0284
vn 0.9801 -0.1969 -0.0246
vn 0.9606 -0.2755 0.0364
vn 0.9003 -0.4327 0.0478
vn 0.8930 -0.4487 0.0357
vn 0.8111 -0.5786 0.0853
vn 0.8483 -0.5270 0.0511
vn 0.8045 -0.5824 0.1163
vn 0.7875 -0.6142 0.0508
vn 0.8489 -0.5260 0.0510
vn 0.8528 -0.3858 0.3519
vn 0.7504 -0.4830 0.4513
vn 0.8656 -0.4230 0.2681
vn 0.8904 -0.4413 0.1120
vn 0.7709 -0.5900 0.2400
vn -0.0000 -0.0000 1.0000
s 1
usemtl material_0
f 1//1 2//1 3//1
f 4//2 5//2 6//2
f 7//3 8//3 9//3
f 10//4 11//4 12//4
f 13//5 14//5 15//5
f 16//6 17//6 18//6
f 19//7 20//7 21//7
f 22//8 23//8 24//8
f 25//9 26//9 27//9
f 28//10 29//10 30//10
f 31//11 32//11 33//11
f 34//12 35//12 36//12
f 37//13 38//13 39//13
f 40//14 41//14 42//14
f 43//15 44//15 45//15
f 46//16 47//16 48//16
f 49//17 50//17 51//17
f 52//18 53//18 54//18
f 55//19 56//19 57//19
f 58//20 59//20 60//20
f 61//21 62//21 63//21
f 64//22 65//22 66//22
f 67//23 68//23 69//23
f 70//24 71//24 72//24
f 73//25 74//25 75//25
f 76//26 77//26 78//26
f 79//27 80//27 81//27
f 82//28 83//28 84//28
f 85//29 86//29 87//29
f 88//30 89//30 90//30
f 91//31 92//31 93//31
f 94//32 95//32 96//32
f 97//33 98//33 99//33
f 100//34 101//34 102//34
f 103//35 104//35 105//35
f 106//36 107//36 108//36
f 109//37 110//37 111//37
f 112//38 113//38 114//38
f 115//39 116//39 117//39
f 118//40 119//40 120//40
f 121//41 122//41 123//41
f 124//42 125//42 126//42
f 127//43 128//43 129//43
f 130//44 131//44 132//44
f 133//45 134//45 135//45
f 136//46 137//46 138//46
f 139//47 140//47 141//47
f 142//48 143//48 144//48
f 145//49 146//49 147//49
f 148//50 149//50 150//50
f 151//51 152//51 153//51
f 154//52 155//52 156//52
f 157//53 158//53 159//53
f 160//54 161//54 162//54
f 163//55 164//55 165//55
f 166//56 167//56 168//56
f 169//57 170//57 171//57
f 172//58 173//58 174//58
f 175//59 176//59 177//59
f 178//60 179//60 180//60
f 181//61 182//61 183//61
f 184//62 185//62 186//62
f 187//53 188//53 189//53
f 190//63 191//63 192//63
f 193//50 194//50 195//50
f 196//64 197//64 198//64
f 199//65 200//65 201//65
f 202//66 203//66 204//66
f 205//67 206//67 207//67
f 208//68 209//68 210//68
f 211//69 212//69 213//69
f 214//70 215//70 216//70
f 217//71 218//71 219//71
f 220//72 221//72 222//72
f 223//73 224//73 225//73
f 226//74 227//74 228//74
f 229//75 230//75 231//75
f 232//76 233//76 234//76
f 235//77 236//77 237//77
f 238//78 239//78 240//78
f 241//79 242//79 243//79
f 244//80 245//80 246//80
f 247//81 248//81 249//81
f 250//82 251//82 252//82
f 253//83 254//83 255//83
f 256//84 257//84 258//84
f 259//85 260//85 261//85
f 262//86 263//86 264//86
f 265//87 266//87 267//87
f 268//88 269//88 270//88
f 271//89 272//89 273//89
f 274//90 275//90 276//90
f 277//91 278//91 279//91
f 280//92 281//92 282//92
f 283//93 284//93 285//93
f 286//94 287//94 288//94
f 289//95 290//95 291//95
f 292//96 293//96 294//96
f 295//97 296//97 297//97
f 298//98 299//98 300//98
f 301//99 302//99 303//99
f 304//100 305//100 306//100
f 307//101 308//101 309//101
f 310//102 311//102 312//102
f 313//103 314//103 315//103
f 316//104 317//104 318//104
f 319//105 320//105 321//105
f 322//106 323//106 324//106
f 325//107 326//107 327//107
f 328//108 329//108 330//108
f 331//109 332//109 333//109
f 334//110 335//110 336//110
f 337//111 338//111 339//111
f 340//112 341//112 342//112
f 343//113 344//113 345//113
f 346//114 347//114 348//114
f 349//115 350//115 351//115
f 352//116 353//116 354//116
f 355//117 356//117 357//117
f 358//118 359//118 360//118
f 361//119 362//119 363//119
f 364//120 365//120 366//120
f 367//121 368//121 369//121
f 370//122 371//122 372//122
f 373//123 374//123 375//123
f 376//124 377//124 378//124
f 379//125 380//125 381//125
f 382//126 383//126 384//126
f 385//125 386//125 387//125
f 388//127 389//127 390//127
f 391//128 392//128 393//128
f 394//129 395//129 396//129
f 397//130 398//130 399//130
f 400//131 401//131 402//131
f 403//132 404//132 405//132
f 406//133 407//133 408//133
f 409//134 410//134 411//134
f 412//135 413//135 414//135
f 415//136 416//136 417//136
f 418//137 419//137 420//137
f 421//138 422//138 423//138
f 424//139 425//139 426//139
f 427//140 428//140 429//140
f 430//141 431//141 432//141
f 433//142 434//142 435//142
f 436//124 437//124 438//124
f 439//143 440//143 441//143
f 442//144 443//144 444//144
f 445//145 446//145 447//145
f 448//146 449//146 450//146
f 451//147 452//147 453//147
f 454//148 455//148 456//148
f 457//149 458//149 459//149
f 460//150 461//150 462//150
f 463//151 464//151 465//151
f 466//152 467//152 468//152
f 469//153 470//153 471//153
f 472//154 473//154 474//154
f 475//155 476//155 477//155
f 478//156 479//156 480//156
f 481//157 482//157 483//157
f 484//158 485//158 486//158
f 487//159 488//159 489//159
f 490//160 491//160 492//160
f 493//161 494//161 495//161
f 496//162 497//162 498//162
f 499//163 500//163 501//163
f 502//164 503//164 504//164
f 505//165 506//165 507//165
f 508//166 509//166 510//166
f 511//167 512//167 513//167
f 514//168 515//168 516//168
f 517//169 518//169 519//169
f 520//170 521//170 522//170
f 523//171 524//171 525//171
f 526//172 527//172 528//172
f 529//173 530//173 531//173
f 532//174 533//174 534//174
f 535//175 536//175 537//175
f 538//176 539//176 540//176
f 541//177 542//177 543//177
f 544//178 545//178 546//178
f 547//179 548//179 549//179
f 550//180 551//180 552//180
f 553//181 554//181 555//181
f 556//182 557//182 558//182
f 559//183 560//183 561//183
f 562//184 563//184 564//184
f 565//185 566//185 567//185
f 568//186 569//186 570//186
f 571//187 572//187 573//187
f 574//188 575//188 576//188
f 577//189 578//189 579//189
f 580//190 581//190 582//190
f 583//191 584//191 585//191
f 586//192 587//192 588//192
f 589//193 590//193 591//193
f 592//194 593//194 594//194
f 595//195 596//195 597//195
f 598//196 599//196 600//196
f 601//197 602//197 603//197
f 604//198 605//198 606//198
f 607//199 608//199 609//199
f 610//200 611//200 612//200
f 613//201 614//201 615//201
f 616//202 617//202 618//202
f 619//203 620//203 621//203
f 622//204 623//204 624//204
f 625//205 626//205 627//205
f 628//206 629//206 630//206
f 631//207 632//207 633//207
f 634//208 635//208 636//208
f 637//209 638//209 639//209
f 640//210 641//210 642//210
f 643//211 644//211 645//211
f 646//212 647//212 648//212
f 649//213 650//213 651//213
f 652//214 653//214 654//214
f 655//215 656//215 657//215
f 658//216 659//216 660//216
f 661//217 662//217 663//217
f 664//218 665//218 666//218
f 667//219 668//219 669//219
f 670//220 671//220 672//220
f 673//221 674//221 675//221
f 676//222 677//222 678//222
f 679//223 680//223 681//223
f 682//224 683//224 684//224
f 685//225 686//225 687//225
f 688//226 689//226 690//226
f 691//227 692//227 693//227
f 694//228 695//228 696//228
f 697//229 698//229 699//229
f 700//230 701//230 702//230
f 703//231 704//231 705//231
f 706//232 707//232 708//232
f 709//233 710//233 711//233
f 712//234 713//234 714//234
f 715//235 716//235 717//235
f 718//236 719//236 720//236
f 721//237 722//237 723//237
f 724//238 725//238 726//238
f 727//239 728//239 729//239
f 730//240 731//240 732//240
f 733//241 734//241 735//241
f 736//242 737//242 738//242
f 739//243 740//243 741//243
f 742//244 743//244 744//244
f 745//245 746//245 747//245
f 748//246 749//246 750//246
f 751//247 752//247 753//247
f 754//248 755//248 756//248
f 757//249 758//249 759//249
f 760//250 761//250 762//250
f 763//251 764//251 765//251
f 766//252 767//252 768//252
f 769//253 770//253 771//253
f 772//254 773//254 774//254
f 775//255 776//255 777//255
f 778//256 779//256 780//256
f 781//257 782//257 783//257
f 784//258 785//258 786//258
f 787//259 788//259 789//259
f 790//260 791//260 792//260
f 793//261 794//261 795//261
f 796//262 797//262 798//262
f 799//263 800//263 801//263
f 802//264 803//264 804//264
f 805//265 806//265 807//265
f 808//266 809//266 810//266
f 811//267 812//267 813//267
f 814//268 815//268 816//268
f 817//269 818//269 819//269
f 820//270 821//270 822//270
f 823//271 824//271 825//271
f 826//272 827//272 828//272
f 829//273 830//273 831//273
f 832//274 833//274 834//274
f 835//275 836//275 837//275
f 838//276 839//276 840//276
f 841//277 842//277 843//277
f 844//278 845//278 846//278
f 847//279 848//279 849//279
f 850//280 851//280 852//280
f 853//281 854//281 855//281
f 856//282 857//282 858//282
f 859//283 860//283 861//283
f 862//284 863//284 864//284
f 865//285 866//285 867//285
f 868//285 869//285 870//285
f 871//286 872//286 873//286
f 874//287 875//287 876//287
f 877//288 878//288 879//288
f 880//289 881//289 882//289
f 883//290 884//290 885//290
f 886//291 887//291 888//291
f 889//292 890//292 891//292
f 892//293 893//293 894//293
f 895//294 896//294 897//294
f 898//295 899//295 900//295
f 901//296 902//296 903//296
f 904//297 905//297 906//297
f 907//298 908//298 909//298
f 910//299 911//299 912//299
f 913//300 914//300 915//300
f 916//301 917//301 918//301
f 919//302 920//302 921//302
f 922//303 923//303 924//303
f 925//304 926//304 927//304
f 928//305 929//305 930//305
f 931//306 932//306 933//306
f 934//307 935//307 936//307
f 937//308 938//308 939//308
f 940//309 941//309 942//309
f 943//310 944//310 945//310
f 946//311 947//311 948//311
f 949//312 950//312 951//312
f 952//313 953//313 954//313
f 955//314 956//314 957//314
f 958//315 959//315 960//315
f 961//316 962//316 963//316
f 964//317 965//317 966//317
f 967//318 968//318 969//318
f 970//319 971//319 972//319
f 973//320 974//320 975//320
f 976//321 977//321 978//321
f 979//322 980//322 981//322
f 982//323 983//323 984//323
f 985//324 986//324 987//324
f 988//325 989//325 990//325
f 991//326 992//326 993//326
f 994//327 995//327 996//327
f 997//328 998//328 999//328
f 1000//329 1001//329 1002//329
f 1003//330 1004//330 1005//330
f 1006//331 1007//331 1008//331
f 1009//332 1010//332 1011//332
f 1012//333 1013//333 1014//333
f 1015//334 1016//334 1017//334
f 1018//335 1019//335 1020//335
f 1021//336 1022//336 1023//336
f 1024//332 1025//332 1026//332
f 1027//337 1028//337 1029//337
f 1030//326 1031//326 1032//326
f 1033//338 1034//338 1035//338
f 1036//339 1037//339 1038//339
f 1039//340 1040//340 1041//340
f 1042//341 1043//341 1044//341
f 1045//342 1046//342 1047//342
f 1048//343 1049//343 1050//343
f 1051//344 1052//344 1053//344
f 1054//345 1055//345 1056//345
f 1057//346 1058//346 1059//346
f 1060//347 1061//347 1062//347
f 1063//348 1064//348 1065//348
f 1066//349 1067//349 1068//349
f 1069//350 1070//350 1071//350
f 1072//351 1073//351 1074//351
f 1075//352 1076//352 1077//352
f 1078//353 1079//353 1080//353
f 1081//354 1082//354 1083//354
f 1084//355 1085//355 1086//355
f 1087//356 1088//356 1089//356
f 1090//357 1091//357 1092//357
f 1093//358 1094//358 1095//358
f 1096//359 1097//359 1098//359
f 1099//360 1100//360 1101//360
f 1102//361 1103//361 1104//361
f 1105//362 1106//362 1107//362
f 1108//362 1109//362 1110//362
f 1111//363 1112//363 1113//363
f 1114//364 1115//364 1116//364
f 1117//365 1118//365 1119//365
f 1120//364 1121//364 1122//364
f 1123//366 1124//366 1125//366
f 1126//367 1127//367 1128//367
f 1129//368 1130//368 1131//368
f 1132//369 1133//369 1134//369
f 1135//370 1136//370 1137//370
f 1138//371 1139//371 1140//371
f 1141//372 1142//372 1143//372
f 1144//373 1145//373 1146//373
f 1147//374 1148//374 1149//374
f 1150//375 1151//375 1152//375
f 1153//376 1154//376 1155//376
f 1156//377 1157//377 1158//377
f 1159//378 1160//378 1161//378
f 1162//379 1163//379 1164//379
f 1165//380 1166//380 1167//380
f 1168//381 1169//381 1170//381
f 1171//382 1172//382 1173//382
f 1174//383 1175//383 1176//383
f 1177//384 1178//384 1179//384
f 1180//385 1181//385 1182//385
f 1183//386 1184//386 1185//386
f 1186//387 1187//387 1188//387
f 1189//388 1190//388 1191//388
f 1192//389 1193//389 1194//389
f 1195//390 1196//390 1197//390
f 1198//391 1199//391 1200//391
f 1201//392 1202//392 1203//392
f 1204//393 1205//393 1206//393
f 1207//394 1208//394 1209//394
f 1210//395 1211//395 1212//395
f 1213//396 1214//396 1215//396
f 1216//397 1217//397 1218//397
f 1219//398 1220//398 1221//398
f 1222//387 1223//387 1224//387
f 1225//399 1226//399 1227//399
f 1228//400 1229//400 1230//400
f 1231//401 1232//401 1233//401
f 1234//402 1235//402 1236//402
f 1237//403 1238//403 1239//403
f 1240//404 1241//404 1242//404
f 1243//405 1244//405 1245//405
f 1246//406 1247//406 1248//406
f 1249//407 1250//407 1251//407
f 1252//408 1253//408 1254//408
f 1255//409 1256//409 1257//409
f 1258//410 1259//410 1260//410
f 1261//411 1262//411 1263//411
f 1264//412 1265//412 1266//412
f 1267//413 1268//413 1269//413
f 1270//412 1271//412 1272//412
f 1273//412 1274//412 1275//412
f 1276//414 1277//414 1278//414
f 1279//415 1280//415 1281//415
f 1282//416 1283//416 1284//416
f 1285//417 1286//417 1287//417
f 1288//418 1289//418 1290//418
f 1291//419 1292//419 1293//419
f 1294//420 1295//420 1296//420
f 1297//421 1298//421 1299//421
f 1300//422 1301//422 1302//422
f 1303//423 1304//423 1305//423
f 1306//424 1307//424 1308//424
f 1309//425 1310//425 1311//425
f 1312//426 1313//426 1314//426
f 1315//427 1316//427 1317//427
f 1318//428 1319//428 1320//428
f 1321//429 1322//429 1323//429
f 1324//430 1325//430 1326//430
f 1327//431 1328//431 1329//431
f 1330//432 1331//432 1332//432
f 1333//433 1334//433 1335//433
f 1336//434 1337//434 1338//434
f 1339//435 1340//435 1341//435
f 1342//436 1343//436 1344//436
f 1345//437 1346//437 1347//437
f 1348//438 1349//438 1350//438
f 1351//439 1352//439 1353//439
f 1354//440 1355//440 1356//440
f 1357//436 1358//436 1359//436
f 1360//441 1361//441 1362//441
f 1363//442 1364//442 1365//442
f 1366//443 1367//443 1368//443
f 1369//444 1370//444 1371//444
f 1372//445 1373//445 1374//445
f 1375//446 1376//446 1377//446
f 1378//447 1379//447 1380//447
f 1381//448 1382//448 1383//448
f 1384//449 1385//449 1386//449
f 1387//450 1388//450 1389//450
f 1390//451 1391//451 1392//451
f 1393//452 1394//452 1395//452
f 1396//453 1397//453 1398//453
f 1399//454 1400//454 1401//454
f 1402//455 1403//455 1404//455
f 1405//456 1406//456 1407//456
f 1408//457 1409//457 1410//457
f 1411//458 1412//458 1413//458
f 1414//459 1415//459 1416//459
f 1417//460 1418//460 1419//460
f 1420//461 1421//461 1422//461
f 1423//462 1424//462 1425//462
f 1426//463 1427//463 1428//463
f 1429//461 1430//461 1431//461
f 1432//464 1433//464 1434//464
f 1435//465 1436//465 1437//465
f 1438//466 1439//466 1440//466
f 1441//467 1442//467 1443//467
f 1444//468 1445//468 1446//468
f 1447//469 1448//469 1449//469
f 1450//470 1451//470 1452//470
f 1453//471 1454//471 1455//471
f 1456//472 1457//472 1458//472
f 1459//473 1460//473 1461//473
f 1462//474 1463//474 1464//474
f 1465//475 1466//475 1467//475
f 1468//457 1469//457 1470//457
f 1471//476 1472//476 1473//476
f 1474//477 1475//477 1476//477
f 1477//478 1478//478 1479//478
f 1480//479 1481//479 1482//479
f 1483//480 1484//480 1485//480
f 1486//481 1487//481 1488//481
f 1489//482 1490//482 1491//482
f 1492//483 1493//483 1494//483
f 1495//484 1496//484 1497//484
f 1498//485 1499//485 1500//485
f 1501//486 1502//486 1503//486
f 1504//487 1505//487 1506//487
f 1507//485 1508//485 1509//485
f 1510//488 1511//488 1512//488
f 1513//489 1514//489 1515//489
f 1516//490 1517//490 1518//490
f 1519//491 1520//491 1521//491
f 1522//492 1523//492 1524//492
f 1525//493 1526//493 1527//493
f 1528//494 1529//494 1530//494
f 1531//495 1532//495 1533//495
f 1534//496 1535//496 1536//496
f 1537//497 1538//497 1539//497
f 1540//498 1541//498 1542//498
f 1543//499 1544//499 1545//499
f 1546//500 1547//500 1548//500
f 1549//501 1550//501 1551//501
f 1552//502 1553//502 1554//502
f 1555//503 1556//503 1557//503
f 1558//504 1559//504 1560//504
f 1561//505 1562//505 1563//505
f 1564//506 1565//506 1566//506
f 1567//507 1568//507 1569//507
f 1570//508 1571//508 1572//508
f 1573//509 1574//509 1575//509
f 1576//510 1577//510 1578//510
f 1579//508 1580//508 1581//508
f 1582//511 1583//511 1584//511
f 1585//512 1586//512 1587//512
f 1588//513 1589//513 1590//513
f 1591//514 1592//514 1593//514
f 1594//515 1595//515 1596//515
f 1597//516 1598//516 1599//516
f 1600//517 1601//517 1602//517
f 1603//518 1604//518 1605//518
f 1606//519 1607//519 1608//519
f 1609//520 1610//520 1611//520
f 1612//521 1613//521 1614//521
f 1615//522 1616//522 1617//522
f 1618//523 1619//523 1620//523
f 1621//524 1622//524 1623//524
f 1624//525 1625//525 1626//525
f 1627//526 1628//526 1629//526
f 1630//527 1631//527 1632//527
f 1633//528 1634//528 1635//528
f 1636//529 1637//529 1638//529
f 1639//530 1640//530 1641//530
f 1642//531 1643//531 1644//531
f 1645//532 1646//532 1647//532
f 1648//533 1649//533 1650//533
f 1651//534 1652//534 1653//534
f 1654//535 1655//535 1656//535
f 1657//536 1658//536 1659//536
f 1660//537 1661//537 1662//537
f 1663//538 1664//538 1665//538
f 1666//539 1667//539 1668//539
f 1669//540 1670//540 1671//540
f 1672//541 1673//541 1674//541
f 1675//542 1676//542 1677//542
f 1678//543 1679//543 1680//543
f 1681//544 1682//544 1683//544
f 1684//545 1685//545 1686//545
f 1687//546 1688//546 1689//546
f 1690//547 1691//547 1692//547
f 1693//548 1694//548 1695//548
f 1696//549 1697//549 1698//549
f 1699//550 1700//550 1701//550
f 1702//551 1703//551 1704//551
f 1705//552 1706//552 1707//552
f 1708//553 1709//553 1710//553
f 1711//554 1712//554 1713//554
f 1714//555 1715//555 1716//555
f 1717//556 1718//556 1719//556
f 1720//557 1721//557 1722//557
f 1723//558 1724//558 1725//558
f 1726//559 1727//559 1728//559
f 1729//560 1730//560 1731//560
f 1732//561 1733//561 1734//561
f 1735//562 1736//562 1737//562
f 1738//560 1739//560 1740//560
f 1741//563 1742//563 1743//563
f 1744//564 1745//564 1746//564
f 1747//565 1748//565 1749//565
f 1750//566 1751//566 1752//566
f 1753//567 1754//567 1755//567
f 1756//568 1757//568 1758//568
f 1759//552 1760//552 1761//552
f 1762//569 1763//569 1764//569
f 1765//570 1766//570 1767//570
f 1768//564 1769//564 1770//564
f 1771//571 1772//571 1773//571
f 1774//572 1775//572 1776//572
f 1777//573 1778//573 1779//573
f 1780//574 1781//574 1782//574
f 1783//575 1784//575 1785//575
f 1786//576 1787//576 1788//576
f 1789//576 1790//576 1791//576
f 1792//576 1793//576 1794//576
f 1795//576 1796//576 1797//576
f 1798//576 1799//576 1800//576
f 1801//576 1802//576 1803//576
f 1804//576 1805//576 1806//576
f 1807//576 1808//576 1809//576
f 1810//576 1811//576 1812//576
f 1813//576 1814//576 1815//576
f 1816//576 1817//576 1818//576
f 1819//576 1820//576 1821//576
f 1822//576 1823//576 1824//576
f 1825//576 1826//576 1827//576
f 1828//576 1829//576 1830//576
f 1831//576 1832//576 1833//576
f 1834//576 1835//576 1836//576
f 1837//576 1838//576 1839//576
f 1840//576 1841//576 1842//576
f 1843//576 1844//576 1845//576
f 1846//576 1847//576 1848//576
f 1849//576 1850//576 1851//576
f 1852//576 1853//576 1854//576
f 1855//576 1856//576 1857//576
f 1858//576 1859//576 1860//576
f 1861//576 1862//576 1863//576
f 1864//576 1865//576 1866//576
f 1867//576 1868//576 1869//576
f 1870//576 1871//576 1872//576
f 1873//576 1874//576 1875//576
f 1876//576 1877//576 1878//576
f 1879//576 1880//576 1881//576
f 1882//576 1883//576 1884//576
f 1885//576 1886//576 1887//576
f 1888//576 1889//576 1890//576
f 1891//576 1892//576 1893//576
f 1894//576 1895//576 1896//576
f 1897//576 1898//576 1899//576
f 1900//576 1901//576 1902//576
f 1903//576 1904//576 1905//576
f 1906//576 1907//576 1908//576
f 1909//576 1910//576 1911//576
f 1912//576 1913//576 1914//576
f 1915//576 1916//576 1917//576
f 1918//576 1919//576 1920//576
f 1921//576 1922//576 1923//576
f 1924//576 1925//576 1926//576
f 1927//576 1928//576 1929//576
f 1930//576 1931//576 1932//576
f 1933//576 1934//576 1935//576
f 1936//576 1937//576 1938//576
f 1939//576 1940//576 1941//576
f 1942//576 1943//576 1944//576
f 1945//576 1946//576 1947//576
f 1948//576 1949//576 1950//576
f 1951//576 1952//576 1953//576
f 1954//576 1955//576 1956//576
f 1957//576 1958//576 1959//576
f 1960//576 1961//576 1962//576
f 1963//576 1964//576 1965//576
f 1966//576 1967//576 1968//576
f 1969//576 1970//576 1971//576
f 1972//576 1973//576 1974//576
f 1975//576 1976//576 1977//576
f 1978//576 1979//576 1980//576
f 1981//576 1982//576 1983//576
f 1984//576 1985//576 1986//576
f 1987//576 1988//576 1989//576
f 1990//576 1991//576 1992//576
f 1993//576 1994//576 1995//576
f 1996//576 1997//576 1998//576
