# Blender 4.5.10 LTS
# www.blender.org
mtllib iiwa_robot_base_coll_4.mtl
o node
v -0.064938 0.098276 -0.077191
v -0.046546 0.074279 -0.076670
v -0.066919 0.093243 -0.066435
v 0.067120 0.076174 0.009822
v 0.069195 0.074377 -0.065270
v 0.081908 0.093002 -0.066874
v -0.046546 0.074279 -0.076670
v 0.069195 0.074377 -0.065270
v 0.067120 0.076174 0.009822
v -0.046546 0.074279 -0.076670
v -0.056625 0.082828 -0.066631
v -0.066919 0.093243 -0.066435
v -0.018819 0.095535 -0.001262
v -0.038870 0.087444 -0.000642
v 0.067120 0.076174 0.009822
v -0.038870 0.087444 -0.000642
v -0.046546 0.074279 -0.076670
v 0.067120 0.076174 0.009822
v 0.069195 0.074377 -0.065270
v 0.061225 0.074509 -0.076681
v 0.081908 0.093002 -0.066874
v 0.061225 0.074509 -0.076681
v 0.069195 0.074377 -0.065270
v -0.046546 0.074279 -0.076670
v 0.044273 0.091848 -0.001249
v -0.018819 0.095535 -0.001262
v 0.067120 0.076174 0.009822
v -0.026045 0.117614 -0.076235
v -0.018819 0.095535 -0.001262
v -0.001072 0.121905 -0.076692
v -0.026045 0.117614 -0.076235
v -0.038870 0.087444 -0.000642
v -0.018819 0.095535 -0.001262
v -0.056463 0.086147 -0.029436
v -0.056625 0.082828 -0.066631
v -0.046546 0.074279 -0.076670
v -0.038870 0.087444 -0.000642
v -0.056463 0.086147 -0.029436
v -0.046546 0.074279 -0.076670
v -0.056625 0.082828 -0.066631
v -0.056463 0.086147 -0.029436
v -0.066919 0.093243 -0.066435
v -0.056463 0.086147 -0.029436
v -0.038870 0.087444 -0.000642
v -0.066919 0.093243 -0.066435
v 0.061225 0.074509 -0.076681
v 0.077829 0.099980 -0.077113
v 0.081908 0.093002 -0.066874
v 0.077829 0.099980 -0.077113
v 0.067120 0.076174 0.009822
v 0.081908 0.093002 -0.066874
v 0.044273 0.091848 -0.001249
v 0.005209 0.110644 -0.039112
v -0.018819 0.095535 -0.001262
v -0.018819 0.095535 -0.001262
v 0.005209 0.110644 -0.039112
v -0.001072 0.121905 -0.076692
v -0.050060 0.107620 -0.075001
v -0.026045 0.117614 -0.076235
v -0.064938 0.098276 -0.077191
v -0.026045 0.117614 -0.076235
v -0.050060 0.107620 -0.075001
v -0.038870 0.087444 -0.000642
v -0.050060 0.107620 -0.075001
v -0.064938 0.098276 -0.077191
v -0.066919 0.093243 -0.066435
v -0.038870 0.087444 -0.000642
v -0.050060 0.107620 -0.075001
v -0.066919 0.093243 -0.066435
v 0.026655 0.120292 -0.074680
v 0.014647 0.120675 -0.077279
v -0.001072 0.121905 -0.076692
v 0.024342 0.108321 -0.036862
v 0.044273 0.091848 -0.001249
v 0.026655 0.120292 -0.074680
v 0.024342 0.108321 -0.036862
v 0.005209 0.110644 -0.039112
v 0.044273 0.091848 -0.001249
v 0.004798 0.116129 -0.056863
v 0.026655 0.120292 -0.074680
v -0.001072 0.121905 -0.076692
v 0.005209 0.110644 -0.039112
v 0.004798 0.116129 -0.056863
v -0.001072 0.121905 -0.076692
v 0.052244 0.113593 -0.076126
v 0.014647 0.120675 -0.077279
v 0.026655 0.120292 -0.074680
v 0.014647 0.120675 -0.077279
v 0.052244 0.113593 -0.076126
v 0.077829 0.099980 -0.077113
v 0.044273 0.091848 -0.001249
v 0.052244 0.113593 -0.076126
v 0.026655 0.120292 -0.074680
v 0.052244 0.113593 -0.076126
v 0.044273 0.091848 -0.001249
v 0.067120 0.076174 0.009822
v 0.077829 0.099980 -0.077113
v 0.052244 0.113593 -0.076126
v 0.067120 0.076174 0.009822
v 0.005343 0.115272 -0.078660
v 0.014647 0.120675 -0.077279
v 0.077829 0.099980 -0.077113
v 0.005343 0.115272 -0.078660
v 0.077829 0.099980 -0.077113
v 0.061225 0.074509 -0.076681
v 0.014647 0.120675 -0.077279
v 0.005343 0.115272 -0.078660
v -0.001072 0.121905 -0.076692
v -0.064938 0.098276 -0.077191
v 0.005343 0.115272 -0.078660
v -0.046546 0.074279 -0.076670
v 0.005343 0.115272 -0.078660
v 0.061225 0.074509 -0.076681
v -0.046546 0.074279 -0.076670
v 0.005343 0.115272 -0.078660
v -0.026045 0.117614 -0.076235
v -0.001072 0.121905 -0.076692
v -0.026045 0.117614 -0.076235
v 0.005343 0.115272 -0.078660
v -0.064938 0.098276 -0.077191
v 0.004798 0.116129 -0.056863
v 0.010602 0.114764 -0.053021
v 0.026655 0.120292 -0.074680
v 0.010602 0.114764 -0.053021
v 0.004798 0.116129 -0.056863
v 0.005209 0.110644 -0.039112
v 0.010602 0.114764 -0.053021
v 0.024342 0.108321 -0.036862
v 0.026655 0.120292 -0.074680
v 0.024342 0.108321 -0.036862
v 0.010602 0.114764 -0.053021
v 0.005209 0.110644 -0.039112
vn -0.7242 -0.5637 -0.3972
vn 0.8269 -0.5612 0.0363
vn -0.0015 -0.9997 0.0239
vn -0.7075 -0.6970 -0.1167
vn -0.0693 0.2458 0.9668
vn -0.1217 -0.9759 0.1813
vn 0.6980 -0.5189 -0.4936
vn 0.0021 -0.9999 -0.0131
vn 0.0355 0.6106 0.7912
vn -0.1567 0.9432 0.2929
vn -0.3496 0.8891 0.2955
vn -0.6014 -0.7955 0.0736
vn -0.2393 -0.9524 0.1891
vn -0.7091 -0.7021 0.0658
vn -0.5570 0.7723 0.3055
vn 0.6787 -0.4523 -0.5786
vn 0.5913 0.7563 0.2799
vn 0.0534 0.9153 0.3993
vn -0.1174 0.9457 0.3030
vn -0.3066 0.6509 -0.6945
vn -0.3543 0.8877 0.2942
vn -0.5402 0.7960 0.2731
vn -0.5286 0.7958 0.2955
vn 0.0701 0.9813 -0.1791
vn 0.2179 0.9266 0.3066
vn 0.0659 0.9192 0.3883
vn 0.0364 0.9623 0.2695
vn -0.0618 0.9532 0.2960
vn 0.1617 0.7548 -0.6357
vn 0.0671 0.1970 -0.9781
vn 0.2576 0.9202 0.2947
vn 0.4401 0.8487 0.2933
vn 0.4586 0.8411 0.2868
vn 0.0544 0.1583 -0.9859
vn 0.0156 -0.0271 -0.9995
vn -0.0147 0.2713 -0.9624
vn -0.0132 -0.0318 -0.9994
vn -0.0000 -0.0485 -0.9988
vn -0.0577 0.2322 -0.9709
vn -0.0628 0.1750 -0.9826
vn 0.0426 0.9600 0.2766
vn 0.0297 0.9552 0.2945
vn 0.0855 0.9484 0.3054
vn 0.0784 0.9472 0.3110
s 1
usemtl material_0
f 1//1 2//1 3//1
f 4//2 5//2 6//2
f 7//3 8//3 9//3
f 10//4 11//4 12//4
f 13//5 14//5 15//5
f 16//6 17//6 18//6
f 19//7 20//7 21//7
f 22//8 23//8 24//8
f 25//9 26//9 27//9
f 28//10 29//10 30//10
f 31//11 32//11 33//11
f 34//12 35//12 36//12
f 37//13 38//13 39//13
f 40//14 41//14 42//14
f 43//15 44//15 45//15
f 46//16 47//16 48//16
f 49//17 50//17 51//17
f 52//18 53//18 54//18
f 55//19 56//19 57//19
f 58//20 59//20 60//20
f 61//21 62//21 63//21
f 64//22 65//22 66//22
f 67//23 68//23 69//23
f 70//24 71//24 72//24
f 73//25 74//25 75//25
f 76//26 77//26 78//26
f 79//27 80//27 81//27
f 82//28 83//28 84//28
f 85//29 86//29 87//29
f 88//30 89//30 90//30
f 91//31 92//31 93//31
f 94//32 95//32 96//32
f 97//33 98//33 99//33
f 100//34 101//34 102//34
f 103//35 104//35 105//35
f 106//36 107//36 108//36
f 109//37 110//37 111//37
f 112//38 113//38 114//38
f 115//39 116//39 117//39
f 118//40 119//40 120//40
f 121//41 122//41 123//41
f 124//42 125//42 126//42
f 127//43 128//43 129//43
f 130//44 131//44 132//44
