# Blender 4.5.10 LTS
# www.blender.org
mtllib iiwa_robot_base_coll_11.mtl
o node
v -0.056108 -0.081790 -0.067072
v -0.048828 -0.108531 -0.076335
v -0.068261 -0.092195 -0.067293
v -0.048828 -0.108531 -0.076335
v -0.056108 -0.081790 -0.067072
v 0.061258 -0.074248 -0.076680
v 0.069209 -0.074283 -0.065285
v 0.067648 -0.078861 -0.000255
v 0.081408 -0.092997 -0.066529
v 0.061258 -0.074248 -0.076680
v 0.069209 -0.074283 -0.065285
v 0.081408 -0.092997 -0.066529
v -0.056108 -0.081790 -0.067072
v 0.069209 -0.074283 -0.065285
v 0.061258 -0.074248 -0.076680
v 0.067648 -0.078861 -0.000255
v 0.002647 -0.095710 0.011419
v 0.023341 -0.094463 0.011419
v 0.077716 -0.100037 -0.077091
v 0.061258 -0.074248 -0.076680
v 0.081408 -0.092997 -0.066529
v 0.067648 -0.078861 -0.000255
v 0.077716 -0.100037 -0.077091
v 0.081408 -0.092997 -0.066529
v -0.024782 -0.117457 -0.074699
v -0.048828 -0.108531 -0.076335
v -0.000290 -0.121905 -0.076749
v -0.048828 -0.108531 -0.076335
v -0.024782 -0.117457 -0.074699
v -0.019582 -0.095219 -0.001279
v 0.002647 -0.095710 0.011419
v -0.024782 -0.117457 -0.074699
v -0.000290 -0.121905 -0.076749
v -0.024782 -0.117457 -0.074699
v 0.002647 -0.095710 0.011419
v -0.019582 -0.095219 -0.001279
v -0.048828 -0.108531 -0.076335
v -0.061084 -0.090017 -0.048046
v -0.068261 -0.092195 -0.067293
v 0.010603 -0.114658 -0.053026
v 0.027963 -0.119957 -0.074635
v 0.023341 -0.094463 0.011419
v 0.002647 -0.095710 0.011419
v 0.010603 -0.114658 -0.053026
v 0.023341 -0.094463 0.011419
v 0.027963 -0.119957 -0.074635
v 0.010603 -0.114658 -0.053026
v -0.000290 -0.121905 -0.076749
v 0.010603 -0.114658 -0.053026
v 0.002647 -0.095710 0.011419
v -0.000290 -0.121905 -0.076749
v -0.038796 -0.087343 -0.000870
v 0.002647 -0.095710 0.011419
v 0.067648 -0.078861 -0.000255
v 0.002647 -0.095710 0.011419
v -0.038796 -0.087343 -0.000870
v -0.019582 -0.095219 -0.001279
v -0.038796 -0.087343 -0.000870
v -0.048828 -0.108531 -0.076335
v -0.019582 -0.095219 -0.001279
v -0.038796 -0.087343 -0.000870
v -0.061084 -0.090017 -0.048046
v -0.048828 -0.108531 -0.076335
v 0.027963 -0.119957 -0.074635
v 0.052677 -0.113312 -0.076125
v 0.023341 -0.094463 0.011419
v 0.052677 -0.113312 -0.076125
v 0.077716 -0.100037 -0.077091
v 0.067648 -0.078861 -0.000255
v 0.007261 -0.110946 -0.078663
v -0.048828 -0.108531 -0.076335
v 0.061258 -0.074248 -0.076680
v 0.077716 -0.100037 -0.077091
v 0.007261 -0.110946 -0.078663
v 0.061258 -0.074248 -0.076680
v -0.038796 -0.087343 -0.000870
v -0.055184 -0.083835 -0.020787
v -0.061084 -0.090017 -0.048046
v -0.055184 -0.083835 -0.020787
v -0.056108 -0.081790 -0.067072
v -0.068261 -0.092195 -0.067293
v -0.061084 -0.090017 -0.048046
v -0.055184 -0.083835 -0.020787
v -0.068261 -0.092195 -0.067293
v -0.055184 -0.083835 -0.020787
v -0.038796 -0.087343 -0.000870
v 0.067648 -0.078861 -0.000255
v 0.069209 -0.074283 -0.065285
v -0.055184 -0.083835 -0.020787
v 0.067648 -0.078861 -0.000255
v -0.055184 -0.083835 -0.020787
v 0.069209 -0.074283 -0.065285
v -0.056108 -0.081790 -0.067072
v 0.043541 -0.092038 -0.001275
v 0.067648 -0.078861 -0.000255
v 0.023341 -0.094463 0.011419
v 0.052677 -0.113312 -0.076125
v 0.043541 -0.092038 -0.001275
v 0.023341 -0.094463 0.011419
v 0.043541 -0.092038 -0.001275
v 0.052677 -0.113312 -0.076125
v 0.067648 -0.078861 -0.000255
v -0.048828 -0.108531 -0.076335
v 0.010261 -0.113946 -0.078663
v -0.000290 -0.121905 -0.076749
v 0.007261 -0.110946 -0.078663
v 0.010261 -0.113946 -0.078663
v -0.048828 -0.108531 -0.076335
v 0.052677 -0.113312 -0.076125
v 0.010261 -0.113946 -0.078663
v 0.077716 -0.100037 -0.077091
v 0.010261 -0.113946 -0.078663
v 0.007261 -0.110946 -0.078663
v 0.077716 -0.100037 -0.077091
v 0.010261 -0.113946 -0.078663
v 0.015532 -0.120526 -0.076770
v -0.000290 -0.121905 -0.076749
v 0.015532 -0.120526 -0.076770
v 0.010261 -0.113946 -0.078663
v 0.052677 -0.113312 -0.076125
v 0.015532 -0.120526 -0.076770
v 0.027963 -0.119957 -0.074635
v -0.000290 -0.121905 -0.076749
v 0.015532 -0.120526 -0.076770
v 0.052677 -0.113312 -0.076125
v 0.027963 -0.119957 -0.074635
vn -0.2122 0.2678 -0.9398
vn -0.0970 0.3021 -0.9483
vn 0.8381 0.5424 0.0583
vn 0.7122 0.4972 -0.4955
vn -0.0604 0.9972 0.0452
vn -0.0403 0.6695 0.7417
vn 0.7007 0.4559 -0.5488
vn 0.6050 -0.7437 0.2843
vn -0.1761 -0.6152 -0.7684
vn -0.3501 -0.8893 0.2942
vn -0.1480 -0.9467 0.2862
vn -0.1903 -0.9358 0.2969
vn -0.5337 -0.7948 0.2890
vn 0.0651 -0.9558 0.2867
vn 0.0576 -0.9559 0.2882
vn 0.0459 -0.9611 0.2725
vn 0.0188 -0.9586 0.2842
vn -0.0611 0.7170 0.6944
vn -0.3145 -0.7942 0.5199
vn -0.3569 -0.8860 0.2962
vn -0.5265 -0.7977 0.2940
vn 0.2648 -0.9206 0.2870
vn 0.4568 -0.8404 0.2915
vn -0.0366 0.1075 -0.9935
vn 0.0181 0.0274 -0.9995
vn -0.5288 -0.7959 0.2949
vn -0.6501 0.7584 0.0465
vn -0.5611 -0.7728 0.2967
vn -0.0786 0.9688 0.2352
vn -0.0519 0.9963 0.0689
vn -0.0604 0.9971 0.0453
vn 0.4016 -0.7728 0.4915
vn 0.2941 -0.9093 0.2944
vn 0.4487 -0.8437 0.2946
vn -0.0539 -0.1653 -0.9848
vn -0.0433 -0.0433 -0.9981
vn 0.0615 -0.1873 -0.9804
vn 0.0193 0.0193 -0.9996
vn 0.0214 -0.2605 -0.9652
vn 0.0616 -0.2301 -0.9712
vn 0.0842 -0.9691 -0.2317
vn 0.1503 -0.7126 -0.6853
s 1
usemtl material_0
f 1//1 2//1 3//1
f 4//2 5//2 6//2
f 7//3 8//3 9//3
f 10//4 11//4 12//4
f 13//5 14//5 15//5
f 16//6 17//6 18//6
f 19//7 20//7 21//7
f 22//8 23//8 24//8
f 25//9 26//9 27//9
f 28//10 29//10 30//10
f 31//11 32//11 33//11
f 34//12 35//12 36//12
f 37//13 38//13 39//13
f 40//14 41//14 42//14
f 43//15 44//15 45//15
f 46//16 47//16 48//16
f 49//17 50//17 51//17
f 52//18 53//18 54//18
f 55//19 56//19 57//19
f 58//20 59//20 60//20
f 61//21 62//21 63//21
f 64//22 65//22 66//22
f 67//23 68//23 69//23
f 70//24 71//24 72//24
f 73//25 74//25 75//25
f 76//26 77//26 78//26
f 79//27 80//27 81//27
f 82//28 83//28 84//28
f 85//29 86//29 87//29
f 88//30 89//30 90//30
f 91//31 92//31 93//31
f 94//32 95//32 96//32
f 97//33 98//33 99//33
f 100//34 101//34 102//34
f 103//35 104//35 105//35
f 106//36 107//36 108//36
f 109//37 110//37 111//37
f 112//38 113//38 114//38
f 115//39 116//39 117//39
f 118//40 119//40 120//40
f 121//41 122//41 123//41
f 124//42 125//42 126//42
