# Blender 4.5.10 LTS
# www.blender.org
mtllib iiwa_link5_resp_coll_2.mtl
o node
v -0.040074 -0.076273 -0.020695
v -0.051024 -0.046664 0.024761
v -0.051067 -0.060571 -0.034292
v 0.055373 -0.028136 0.041146
v 0.007699 0.019093 0.021645
v -0.024985 -0.056589 0.061180
v 0.007699 0.019093 0.021645
v -0.025805 0.015633 0.016050
v -0.024985 -0.056589 0.061180
v -0.011769 0.023672 0.008770
v -0.025805 0.015633 0.016050
v 0.007699 0.019093 0.021645
v -0.025805 0.015633 0.016050
v -0.040756 -0.052469 0.046462
v -0.024985 -0.056589 0.061180
v 0.055284 0.023672 -0.018957
v 0.062226 0.023680 -0.030517
v -0.011769 0.023672 0.008770
v 0.062226 0.023680 -0.030517
v 0.055373 -0.028136 0.041146
v 0.066956 0.023669 -0.046655
v 0.055373 -0.028136 0.041146
v 0.062226 0.023680 -0.030517
v 0.055284 0.023672 -0.018957
v 0.055373 -0.028136 0.041146
v 0.039949 -0.061141 0.025981
v 0.051119 -0.046191 0.022925
v 0.022359 -0.076120 0.012601
v 0.039949 -0.061141 0.025981
v -0.024985 -0.056589 0.061180
v 0.039949 -0.061141 0.025981
v 0.055373 -0.028136 0.041146
v -0.024985 -0.056589 0.061180
v 0.042561 0.023611 -0.005786
v 0.055373 -0.028136 0.041146
v 0.055284 0.023672 -0.018957
v 0.042561 0.023611 -0.005786
v -0.011769 0.023672 0.008770
v 0.007699 0.019093 0.021645
v 0.042561 0.023611 -0.005786
v 0.055284 0.023672 -0.018957
v -0.011769 0.023672 0.008770
v -0.059935 0.023664 -0.092507
v -0.065659 0.001930 -0.071562
v -0.068477 0.023657 -0.058283
v -0.067577 0.023670 -0.047390
v -0.059935 0.023664 -0.092507
v -0.068477 0.023657 -0.058283
v -0.059935 0.023664 -0.092507
v -0.067577 0.023670 -0.047390
v -0.039032 0.023678 -0.115401
v -0.065659 0.001930 -0.071562
v -0.064747 -0.012675 -0.048714
v -0.068477 0.023657 -0.058283
v -0.064747 -0.012675 -0.048714
v -0.067577 0.023670 -0.047390
v -0.068477 0.023657 -0.058283
v -0.042122 -0.010160 -0.111493
v -0.059935 0.023664 -0.092507
v -0.039032 0.023678 -0.115401
v 0.055373 -0.028136 0.041146
v 0.064423 -0.011759 -0.049057
v 0.066956 0.023669 -0.046655
v 0.058208 -0.040431 -0.046882
v 0.064423 -0.011759 -0.049057
v 0.055373 -0.028136 0.041146
v -0.040756 -0.052469 0.046462
v -0.040497 -0.064453 0.017685
v -0.024985 -0.056589 0.061180
v -0.040497 -0.064453 0.017685
v -0.022824 -0.076115 0.012611
v -0.024985 -0.056589 0.061180
v -0.062855 0.023678 -0.030885
v 0.062226 0.023680 -0.030517
v -0.039032 0.023678 -0.115401
v 0.062226 0.023680 -0.030517
v -0.062855 0.023678 -0.030885
v -0.011769 0.023672 0.008770
v -0.067577 0.023670 -0.047390
v -0.062855 0.023678 -0.030885
v -0.039032 0.023678 -0.115401
v -0.062855 0.023678 -0.030885
v -0.056556 0.023668 -0.020353
v -0.011769 0.023672 0.008770
v -0.062855 0.023678 -0.030885
v -0.067577 0.023670 -0.047390
v -0.051024 -0.046664 0.024761
v 0.065974 0.023672 -0.074837
v 0.062226 0.023680 -0.030517
v 0.066956 0.023669 -0.046655
v 0.055373 -0.028136 0.041146
v 0.025344 0.015633 0.016050
v 0.007699 0.019093 0.021645
v 0.025344 0.015633 0.016050
v 0.042561 0.023611 -0.005786
v 0.007699 0.019093 0.021645
v 0.042561 0.023611 -0.005786
v 0.025344 0.015633 0.016050
v 0.055373 -0.028136 0.041146
v -0.042122 -0.010160 -0.111493
v -0.051452 -0.013153 -0.100530
v -0.059935 0.023664 -0.092507
v -0.051024 -0.046664 0.024761
v -0.053791 -0.043224 0.011898
v -0.051067 -0.060571 -0.034292
v -0.067577 0.023670 -0.047390
v -0.053791 -0.043224 0.011898
v -0.051024 -0.046664 0.024761
v -0.064747 -0.012675 -0.048714
v -0.053791 -0.043224 0.011898
v -0.067577 0.023670 -0.047390
v -0.010894 -0.087734 -0.018518
v -0.025975 -0.086543 -0.045898
v -0.005500 -0.091263 -0.050495
v -0.040345 -0.078749 -0.046610
v -0.040074 -0.076273 -0.020695
v -0.051067 -0.060571 -0.034292
v -0.040345 -0.078749 -0.046610
v -0.025975 -0.086543 -0.045898
v -0.040074 -0.076273 -0.020695
v -0.039032 0.023678 -0.115401
v 0.020901 0.023673 -0.123341
v 0.002080 0.023672 -0.126285
v -0.044854 0.023650 -0.006797
v -0.040756 -0.052469 0.046462
v -0.025805 0.015633 0.016050
v -0.044854 0.023650 -0.006797
v -0.056556 0.023668 -0.020353
v -0.040756 -0.052469 0.046462
v -0.044854 0.023650 -0.006797
v -0.025805 0.015633 0.016050
v -0.011769 0.023672 0.008770
v -0.056556 0.023668 -0.020353
v -0.044854 0.023650 -0.006797
v -0.011769 0.023672 0.008770
v -0.022824 -0.076115 0.012611
v -0.024822 -0.083259 -0.014241
v -0.010894 -0.087734 -0.018518
v -0.025975 -0.086543 -0.045898
v -0.024822 -0.083259 -0.014241
v -0.040074 -0.076273 -0.020695
v -0.024822 -0.083259 -0.014241
v -0.025975 -0.086543 -0.045898
v -0.010894 -0.087734 -0.018518
v -0.024822 -0.083259 -0.014241
v -0.040497 -0.064453 0.017685
v -0.040074 -0.076273 -0.020695
v -0.040497 -0.064453 0.017685
v -0.024822 -0.083259 -0.014241
v -0.022824 -0.076115 0.012611
v -0.000230 -0.080432 0.011375
v -0.022824 -0.076115 0.012611
v -0.010894 -0.087734 -0.018518
v -0.000230 -0.080432 0.011375
v 0.022359 -0.076120 0.012601
v -0.024985 -0.056589 0.061180
v -0.022824 -0.076115 0.012611
v -0.000230 -0.080432 0.011375
v -0.024985 -0.056589 0.061180
v -0.047069 -0.049505 0.035308
v -0.040497 -0.064453 0.017685
v -0.040756 -0.052469 0.046462
v -0.047069 -0.049505 0.035308
v -0.062855 0.023678 -0.030885
v -0.051024 -0.046664 0.024761
v -0.040074 -0.076273 -0.020695
v -0.047069 -0.049505 0.035308
v -0.051024 -0.046664 0.024761
v -0.040497 -0.064453 0.017685
v -0.047069 -0.049505 0.035308
v -0.040074 -0.076273 -0.020695
v -0.056556 0.023668 -0.020353
v -0.047069 -0.049505 0.035308
v -0.040756 -0.052469 0.046462
v -0.062855 0.023678 -0.030885
v -0.047069 -0.049505 0.035308
v -0.056556 0.023668 -0.020353
v 0.039949 -0.061141 0.025981
v 0.039573 -0.075251 -0.014841
v 0.051119 -0.046191 0.022925
v 0.039573 -0.075251 -0.014841
v 0.025514 -0.086543 -0.045897
v 0.039884 -0.078749 -0.046605
v 0.025514 -0.086543 -0.045897
v 0.039573 -0.075251 -0.014841
v 0.024358 -0.083260 -0.014242
v 0.039573 -0.075251 -0.014841
v 0.039949 -0.061141 0.025981
v 0.022359 -0.076120 0.012601
v 0.024358 -0.083260 -0.014242
v 0.039573 -0.075251 -0.014841
v 0.022359 -0.076120 0.012601
v 0.040489 -0.075120 -0.068802
v 0.051353 -0.058729 -0.055409
v 0.039884 -0.078749 -0.046605
v 0.051353 -0.058729 -0.055409
v 0.056214 -0.038832 -0.072328
v 0.058208 -0.040431 -0.046882
v -0.048014 -0.065376 -0.058926
v -0.040345 -0.078749 -0.046610
v -0.051067 -0.060571 -0.034292
v -0.040345 -0.078749 -0.046610
v -0.048014 -0.065376 -0.058926
v -0.040950 -0.075121 -0.068799
v -0.062459 -0.024721 -0.057282
v -0.064747 -0.012675 -0.048714
v -0.065659 0.001930 -0.071562
v -0.041135 -0.066965 -0.085478
v -0.024347 -0.081559 -0.076604
v -0.040950 -0.075121 -0.068799
v -0.041135 -0.066965 -0.085478
v -0.051018 -0.034893 -0.092710
v -0.041624 -0.053764 -0.097915
v -0.051018 -0.034893 -0.092710
v -0.041135 -0.066965 -0.085478
v -0.055915 -0.043558 -0.069119
v -0.048014 -0.065376 -0.058926
v -0.041135 -0.066965 -0.085478
v -0.040950 -0.075121 -0.068799
v -0.041135 -0.066965 -0.085478
v -0.048014 -0.065376 -0.058926
v -0.055915 -0.043558 -0.069119
v -0.000230 -0.083920 -0.080979
v -0.024201 -0.073872 -0.090160
v -0.000230 -0.075435 -0.094254
v -0.024347 -0.081559 -0.076604
v -0.024201 -0.073872 -0.090160
v -0.000230 -0.083920 -0.080979
v -0.041135 -0.066965 -0.085478
v -0.024201 -0.073872 -0.090160
v -0.024347 -0.081559 -0.076604
v -0.024347 -0.081559 -0.076604
v -0.024189 -0.085906 -0.061912
v -0.040950 -0.075121 -0.068799
v -0.024189 -0.085906 -0.061912
v -0.040345 -0.078749 -0.046610
v -0.040950 -0.075121 -0.068799
v -0.040345 -0.078749 -0.046610
v -0.024189 -0.085906 -0.061912
v -0.025975 -0.086543 -0.045898
v -0.025975 -0.086543 -0.045898
v -0.024189 -0.085906 -0.061912
v -0.005500 -0.091263 -0.050495
v -0.041693 -0.034895 -0.107223
v -0.051452 -0.013153 -0.100530
v -0.042122 -0.010160 -0.111493
v -0.051018 -0.034893 -0.092710
v -0.041693 -0.034895 -0.107223
v -0.041624 -0.053764 -0.097915
v -0.041693 -0.034895 -0.107223
v -0.051018 -0.034893 -0.092710
v -0.051452 -0.013153 -0.100530
v 0.021634 -0.049605 -0.110502
v 0.041241 -0.034893 -0.107212
v 0.041163 -0.053765 -0.097915
v 0.020901 0.023673 -0.123341
v 0.040850 0.023674 -0.113758
v 0.032746 -0.008693 -0.116969
v 0.040850 0.023674 -0.113758
v 0.065974 0.023672 -0.074837
v 0.050763 0.023667 -0.103943
v 0.065974 0.023672 -0.074837
v 0.040850 0.023674 -0.113758
v 0.062226 0.023680 -0.030517
v 0.062226 0.023680 -0.030517
v 0.040850 0.023674 -0.113758
v -0.039032 0.023678 -0.115401
v 0.040850 0.023674 -0.113758
v 0.020901 0.023673 -0.123341
v -0.039032 0.023678 -0.115401
v 0.004929 -0.088716 -0.018952
v -0.000230 -0.080432 0.011375
v -0.010894 -0.087734 -0.018518
v 0.004929 -0.088716 -0.018952
v -0.010894 -0.087734 -0.018518
v -0.005500 -0.091263 -0.050495
v 0.004929 -0.088716 -0.018952
v 0.024358 -0.083260 -0.014242
v 0.022359 -0.076120 0.012601
v -0.000230 -0.080432 0.011375
v 0.004929 -0.088716 -0.018952
v 0.022359 -0.076120 0.012601
v 0.004929 -0.088716 -0.018952
v 0.025514 -0.086543 -0.045897
v 0.024358 -0.083260 -0.014242
v -0.024189 -0.085906 -0.061912
v -0.000230 -0.089146 -0.066110
v -0.005500 -0.091263 -0.050495
v -0.000230 -0.089146 -0.066110
v -0.024347 -0.081559 -0.076604
v -0.000230 -0.083920 -0.080979
v -0.000230 -0.089146 -0.066110
v -0.024189 -0.085906 -0.061912
v -0.024347 -0.081559 -0.076604
v 0.051353 -0.058729 -0.055409
v 0.050605 -0.060572 -0.034292
v 0.039884 -0.078749 -0.046605
v 0.050605 -0.060572 -0.034292
v 0.039573 -0.075251 -0.014841
v 0.039884 -0.078749 -0.046605
v 0.050605 -0.060572 -0.034292
v 0.051353 -0.058729 -0.055409
v 0.058208 -0.040431 -0.046882
v 0.023738 -0.073872 -0.090161
v -0.000230 -0.083920 -0.080979
v -0.000230 -0.075435 -0.094254
v 0.065974 0.023672 -0.074837
v 0.060622 0.003041 -0.086864
v 0.050763 0.023667 -0.103943
v 0.064423 -0.011759 -0.049057
v 0.065231 0.002261 -0.071576
v 0.066956 0.023669 -0.046655
v 0.065231 0.002261 -0.071576
v 0.065974 0.023672 -0.074837
v 0.066956 0.023669 -0.046655
v 0.065231 0.002261 -0.071576
v 0.060622 0.003041 -0.086864
v 0.065974 0.023672 -0.074837
v 0.040489 -0.075120 -0.068802
v 0.048843 -0.054393 -0.079422
v 0.051353 -0.058729 -0.055409
v 0.048843 -0.054393 -0.079422
v 0.056214 -0.038832 -0.072328
v 0.051353 -0.058729 -0.055409
v -0.056386 -0.047965 -0.043273
v -0.048014 -0.065376 -0.058926
v -0.051067 -0.060571 -0.034292
v -0.048014 -0.065376 -0.058926
v -0.056386 -0.047965 -0.043273
v -0.055915 -0.043558 -0.069119
v -0.056386 -0.047965 -0.043273
v -0.062459 -0.024721 -0.057282
v -0.055915 -0.043558 -0.069119
v -0.053791 -0.043224 0.011898
v -0.056386 -0.047965 -0.043273
v -0.051067 -0.060571 -0.034292
v -0.056386 -0.047965 -0.043273
v -0.053791 -0.043224 0.011898
v -0.064747 -0.012675 -0.048714
v -0.062459 -0.024721 -0.057282
v -0.056386 -0.047965 -0.043273
v -0.064747 -0.012675 -0.048714
v -0.059894 -0.018375 -0.080977
v -0.051018 -0.034893 -0.092710
v -0.055915 -0.043558 -0.069119
v -0.059894 -0.018375 -0.080977
v -0.062459 -0.024721 -0.057282
v -0.065659 0.001930 -0.071562
v -0.062459 -0.024721 -0.057282
v -0.059894 -0.018375 -0.080977
v -0.055915 -0.043558 -0.069119
v -0.051018 -0.034893 -0.092710
v -0.059894 -0.018375 -0.080977
v -0.051452 -0.013153 -0.100530
v -0.059935 0.023664 -0.092507
v -0.059894 -0.018375 -0.080977
v -0.065659 0.001930 -0.071562
v -0.051452 -0.013153 -0.100530
v -0.059894 -0.018375 -0.080977
v -0.059935 0.023664 -0.092507
v -0.026020 -0.034124 -0.115253
v -0.041693 -0.034895 -0.107223
v -0.042122 -0.010160 -0.111493
v -0.024201 -0.073872 -0.090160
v -0.024013 -0.063469 -0.101089
v -0.000230 -0.075435 -0.094254
v -0.024013 -0.063469 -0.101089
v -0.041135 -0.066965 -0.085478
v -0.041624 -0.053764 -0.097915
v -0.024013 -0.063469 -0.101089
v -0.024201 -0.073872 -0.090160
v -0.041135 -0.066965 -0.085478
v -0.021772 0.023672 -0.123030
v -0.039032 0.023678 -0.115401
v 0.002080 0.023672 -0.126285
v -0.010733 -0.006735 -0.124270
v -0.021772 0.023672 -0.123030
v 0.002080 0.023672 -0.126285
v 0.011603 -0.006793 -0.124061
v 0.020901 0.023673 -0.123341
v 0.032746 -0.008693 -0.116969
v -0.010733 -0.006735 -0.124270
v 0.011603 -0.006793 -0.124061
v -0.005688 -0.035738 -0.119418
v 0.020901 0.023673 -0.123341
v 0.011603 -0.006793 -0.124061
v 0.002080 0.023672 -0.126285
v 0.011603 -0.006793 -0.124061
v -0.010733 -0.006735 -0.124270
v 0.002080 0.023672 -0.126285
v 0.041241 -0.034893 -0.107212
v 0.025537 -0.034141 -0.115257
v 0.032746 -0.008693 -0.116969
v 0.021634 -0.049605 -0.110502
v 0.025537 -0.034141 -0.115257
v 0.041241 -0.034893 -0.107212
v 0.025537 -0.034141 -0.115257
v 0.011603 -0.006793 -0.124061
v 0.032746 -0.008693 -0.116969
v 0.060622 0.003041 -0.086864
v 0.049478 -0.012550 -0.102594
v 0.050763 0.023667 -0.103943
v 0.041728 -0.010173 -0.111441
v 0.041241 -0.034893 -0.107212
v 0.032746 -0.008693 -0.116969
v 0.040850 0.023674 -0.113758
v 0.041728 -0.010173 -0.111441
v 0.032746 -0.008693 -0.116969
v 0.041728 -0.010173 -0.111441
v 0.049478 -0.012550 -0.102594
v 0.041241 -0.034893 -0.107212
v 0.041728 -0.010173 -0.111441
v 0.040850 0.023674 -0.113758
v 0.050763 0.023667 -0.103943
v 0.049478 -0.012550 -0.102594
v 0.041728 -0.010173 -0.111441
v 0.050763 0.023667 -0.103943
v -0.000230 -0.089146 -0.066110
v 0.010478 -0.090481 -0.049787
v -0.005500 -0.091263 -0.050495
v 0.010478 -0.090481 -0.049787
v 0.004929 -0.088716 -0.018952
v -0.005500 -0.091263 -0.050495
v 0.004929 -0.088716 -0.018952
v 0.010478 -0.090481 -0.049787
v 0.025514 -0.086543 -0.045897
v 0.039573 -0.075251 -0.014841
v 0.051681 -0.053155 -0.005120
v 0.051119 -0.046191 0.022925
v 0.050605 -0.060572 -0.034292
v 0.051681 -0.053155 -0.005120
v 0.039573 -0.075251 -0.014841
v 0.051681 -0.053155 -0.005120
v 0.050605 -0.060572 -0.034292
v 0.058208 -0.040431 -0.046882
v 0.051681 -0.053155 -0.005120
v 0.055373 -0.028136 0.041146
v 0.051119 -0.046191 0.022925
v 0.051681 -0.053155 -0.005120
v 0.058208 -0.040431 -0.046882
v 0.055373 -0.028136 0.041146
v 0.023885 -0.081560 -0.076603
v -0.000230 -0.089146 -0.066110
v -0.000230 -0.083920 -0.080979
v 0.023738 -0.073872 -0.090161
v 0.023885 -0.081560 -0.076603
v -0.000230 -0.083920 -0.080979
v 0.023551 -0.063469 -0.101090
v 0.023738 -0.073872 -0.090161
v -0.000230 -0.075435 -0.094254
v 0.023551 -0.063469 -0.101090
v 0.021634 -0.049605 -0.110502
v 0.041163 -0.053765 -0.097915
v 0.050570 -0.034734 -0.092783
v 0.048843 -0.054393 -0.079422
v 0.041163 -0.053765 -0.097915
v 0.048843 -0.054393 -0.079422
v 0.050570 -0.034734 -0.092783
v 0.056214 -0.038832 -0.072328
v 0.050570 -0.034734 -0.092783
v 0.049478 -0.012550 -0.102594
v 0.060622 0.003041 -0.086864
v 0.041241 -0.034893 -0.107212
v 0.050570 -0.034734 -0.092783
v 0.041163 -0.053765 -0.097915
v 0.049478 -0.012550 -0.102594
v 0.050570 -0.034734 -0.092783
v 0.041241 -0.034893 -0.107212
v 0.060800 -0.020304 -0.073606
v 0.065231 0.002261 -0.071576
v 0.064423 -0.011759 -0.049057
v 0.060800 -0.020304 -0.073606
v 0.064423 -0.011759 -0.049057
v 0.058208 -0.040431 -0.046882
v 0.056214 -0.038832 -0.072328
v 0.060800 -0.020304 -0.073606
v 0.058208 -0.040431 -0.046882
v 0.065231 0.002261 -0.071576
v 0.060800 -0.020304 -0.073606
v 0.060622 0.003041 -0.086864
v 0.050570 -0.034734 -0.092783
v 0.060800 -0.020304 -0.073606
v 0.056214 -0.038832 -0.072328
v 0.060800 -0.020304 -0.073606
v 0.050570 -0.034734 -0.092783
v 0.060622 0.003041 -0.086864
v 0.048843 -0.054393 -0.079422
v 0.040674 -0.066967 -0.085477
v 0.041163 -0.053765 -0.097915
v 0.040674 -0.066967 -0.085477
v 0.048843 -0.054393 -0.079422
v 0.040489 -0.075120 -0.068802
v 0.040674 -0.066967 -0.085477
v 0.023551 -0.063469 -0.101090
v 0.041163 -0.053765 -0.097915
v 0.023551 -0.063469 -0.101090
v 0.040674 -0.066967 -0.085477
v 0.023738 -0.073872 -0.090161
v 0.023885 -0.081560 -0.076603
v 0.040674 -0.066967 -0.085477
v 0.040489 -0.075120 -0.068802
v 0.040674 -0.066967 -0.085477
v 0.023885 -0.081560 -0.076603
v 0.023738 -0.073872 -0.090161
v -0.021608 -0.007407 -0.121771
v -0.010733 -0.006735 -0.124270
v -0.005688 -0.035738 -0.119418
v -0.026020 -0.034124 -0.115253
v -0.021608 -0.007407 -0.121771
v -0.005688 -0.035738 -0.119418
v -0.021608 -0.007407 -0.121771
v -0.026020 -0.034124 -0.115253
v -0.042122 -0.010160 -0.111493
v -0.021608 -0.007407 -0.121771
v -0.021772 0.023672 -0.123030
v -0.010733 -0.006735 -0.124270
v -0.021608 -0.007407 -0.121771
v -0.042122 -0.010160 -0.111493
v -0.039032 0.023678 -0.115401
v -0.021772 0.023672 -0.123030
v -0.021608 -0.007407 -0.121771
v -0.039032 0.023678 -0.115401
v -0.024013 -0.063469 -0.101089
v -0.000230 -0.064081 -0.105183
v -0.000230 -0.075435 -0.094254
v -0.000230 -0.064081 -0.105183
v 0.023551 -0.063469 -0.101090
v -0.000230 -0.075435 -0.094254
v 0.023551 -0.063469 -0.101090
v -0.000230 -0.064081 -0.105183
v 0.021634 -0.049605 -0.110502
v 0.011603 -0.006793 -0.124061
v 0.010888 -0.035789 -0.118520
v -0.005688 -0.035738 -0.119418
v 0.025537 -0.034141 -0.115257
v 0.010888 -0.035789 -0.118520
v 0.011603 -0.006793 -0.124061
v 0.010888 -0.035789 -0.118520
v 0.025537 -0.034141 -0.115257
v 0.021634 -0.049605 -0.110502
v 0.023728 -0.085906 -0.061912
v 0.010478 -0.090481 -0.049787
v -0.000230 -0.089146 -0.066110
v 0.023885 -0.081560 -0.076603
v 0.023728 -0.085906 -0.061912
v -0.000230 -0.089146 -0.066110
v 0.010478 -0.090481 -0.049787
v 0.023728 -0.085906 -0.061912
v 0.025514 -0.086543 -0.045897
v 0.023728 -0.085906 -0.061912
v 0.023885 -0.081560 -0.076603
v 0.040489 -0.075120 -0.068802
v 0.025514 -0.086543 -0.045897
v 0.023728 -0.085906 -0.061912
v 0.039884 -0.078749 -0.046605
v 0.023728 -0.085906 -0.061912
v 0.040489 -0.075120 -0.068802
v 0.039884 -0.078749 -0.046605
v -0.022094 -0.049605 -0.110502
v -0.000230 -0.064081 -0.105183
v -0.024013 -0.063469 -0.101089
v -0.022094 -0.049605 -0.110502
v -0.026020 -0.034124 -0.115253
v -0.005688 -0.035738 -0.119418
v -0.022094 -0.049605 -0.110502
v -0.024013 -0.063469 -0.101089
v -0.041624 -0.053764 -0.097915
v -0.041693 -0.034895 -0.107223
v -0.022094 -0.049605 -0.110502
v -0.041624 -0.053764 -0.097915
v -0.026020 -0.034124 -0.115253
v -0.022094 -0.049605 -0.110502
v -0.041693 -0.034895 -0.107223
v -0.000230 -0.050667 -0.113470
v -0.022094 -0.049605 -0.110502
v -0.005688 -0.035738 -0.119418
v -0.022094 -0.049605 -0.110502
v -0.000230 -0.050667 -0.113470
v -0.000230 -0.064081 -0.105183
v 0.010888 -0.035789 -0.118520
v -0.000230 -0.050667 -0.113470
v -0.005688 -0.035738 -0.119418
v -0.000230 -0.064081 -0.105183
v -0.000230 -0.050667 -0.113470
v 0.021634 -0.049605 -0.110502
v -0.000230 -0.050667 -0.113470
v 0.010888 -0.035789 -0.118520
v 0.021634 -0.049605 -0.110502
vn -0.8586 -0.4988 0.1181
vn 0.0681 0.4387 0.8961
vn -0.1927 0.5184 0.8331
vn -0.1767 0.8121 0.5560
vn -0.5494 0.4383 0.7114
vn 0.0004 1.0000 0.0009
vn 0.9284 0.2533 0.2719
vn 0.7353 0.5139 0.4419
vn 0.7870 -0.5202 0.3317
vn 0.2479 -0.7909 0.5595
vn 0.3764 -0.5263 0.7625
vn 0.5576 0.6292 0.5415
vn 0.0664 0.9676 0.2437
vn 0.0032 1.0000 0.0077
vn -0.9700 0.0222 -0.2421
vn -0.0043 1.0000 -0.0009
vn -0.0010 1.0000 -0.0003
vn -0.9934 -0.1101 -0.0307
vn -0.9934 -0.0803 0.0822
vn -0.7385 -0.0105 -0.6742
vn 0.9934 -0.0768 0.0857
vn 0.9765 -0.2071 0.0604
vn -0.5121 -0.7946 0.3263
vn -0.4585 -0.8314 0.3138
vn -0.0000 1.0000 -0.0000
vn -0.0000 1.0000 0.0002
vn -0.0008 1.0000 -0.0002
vn -0.0012 1.0000 0.0017
vn -0.9599 0.0558 0.2746
vn 0.0024 1.0000 -0.0000
vn 0.3440 0.6334 0.6931
vn 0.3234 0.7776 0.5391
vn 0.4564 0.6571 0.5999
vn -0.7568 -0.0321 -0.6528
vn -0.9160 -0.3905 0.0926
vn -0.9785 -0.0198 0.2052
vn -0.9872 -0.0819 0.1372
vn -0.2086 -0.9753 0.0725
vn -0.8414 -0.5370 0.0601
vn -0.4783 -0.8737 0.0885
vn -0.0000 1.0000 -0.0004
vn -0.6132 0.4304 0.6623
vn -0.6985 0.3846 0.6034
vn -0.2298 0.8425 0.4872
vn -0.0022 1.0000 0.0032
vn -0.2199 -0.9385 0.2661
vn -0.4515 -0.8857 0.1083
vn -0.2736 -0.9556 0.1091
vn -0.4891 -0.8351 0.2518
vn -0.4792 -0.8387 0.2588
vn -0.1644 -0.9431 0.2890
vn 0.1389 -0.8646 0.4829
vn -0.1558 -0.9189 0.3625
vn -0.7397 -0.6235 0.2530
vn -0.9121 0.1488 0.3821
vn -0.8205 -0.5488 0.1598
vn -0.8201 -0.5494 0.1602
vn -0.7940 0.2995 0.5290
vn -0.8264 0.2691 0.4946
vn 0.8049 -0.5631 0.1872
vn 0.4782 -0.8725 0.1008
vn 0.4664 -0.8779 0.1081
vn 0.4894 -0.8256 0.2809
vn 0.4578 -0.8501 0.2602
vn 0.8542 -0.5163 -0.0611
vn 0.9459 -0.3107 -0.0937
vn -0.8639 -0.5036 -0.0088
vn -0.8383 -0.5412 -0.0656
vn -0.9874 -0.1482 -0.0553
vn -0.4842 -0.7881 -0.3800
vn -0.8778 -0.3453 -0.3320
vn -0.8866 -0.3431 -0.3101
vn -0.8787 -0.4325 -0.2018
vn -0.8859 -0.4164 -0.2046
vn -0.1454 -0.8336 -0.5328
vn -0.1722 -0.8561 -0.4873
vn -0.4410 -0.7787 -0.4463
vn -0.4497 -0.8578 -0.2489
vn -0.4995 -0.8570 -0.1265
vn -0.4716 -0.8775 -0.0875
vn -0.2380 -0.9691 -0.0651
vn -0.7379 -0.1272 -0.6628
vn -0.8123 -0.2604 -0.5219
vn -0.8231 -0.2067 -0.5289
vn 0.4351 -0.3994 -0.8070
vn 0.4329 -0.0190 -0.9012
vn 0.0018 1.0000 -0.0011
vn 0.0003 1.0000 -0.0002
vn -0.0000 1.0000 -0.0001
vn 0.0001 1.0000 -0.0003
vn -0.0529 -0.9656 0.2547
vn -0.0589 -0.9933 0.0997
vn 0.2003 -0.9430 0.2658
vn 0.1647 -0.9440 0.2859
vn 0.2442 -0.9636 0.1088
vn -0.1637 -0.9687 -0.1866
vn -0.1508 -0.9326 -0.3278
vn -0.1763 -0.9444 -0.2775
vn 0.8651 -0.5014 -0.0131
vn 0.8386 -0.5405 0.0677
vn 0.9361 -0.3518 0.0024
vn 0.1454 -0.8336 -0.5328
vn 0.8856 0.0400 -0.4628
vn 0.9975 -0.0708 -0.0083
vn 0.9986 -0.0400 -0.0348
vn 0.9535 -0.0775 -0.2914
vn 0.8800 -0.4428 -0.1719
vn 0.9183 -0.3615 -0.1613
vn -0.9121 -0.4086 -0.0333
vn -0.9246 -0.3724 -0.0804
vn -0.9548 -0.2897 -0.0668
vn -0.9365 -0.3428 0.0735
vn -0.9732 -0.2206 0.0647
vn -0.9735 -0.2225 0.0528
vn -0.9133 -0.2824 -0.2933
vn -0.9667 -0.2010 -0.1585
vn -0.9592 -0.2294 -0.1653
vn -0.8869 -0.1720 -0.4288
vn -0.9292 -0.0986 -0.3563
vn -0.9002 -0.1160 -0.4197
vn -0.4439 -0.1599 -0.8817
vn -0.1629 -0.7133 -0.6817
vn -0.4563 -0.6191 -0.6391
vn -0.4368 -0.6478 -0.6241
vn -0.0002 1.0000 -0.0012
vn -0.1352 -0.0087 -0.9908
vn 0.3113 -0.0726 -0.9475
vn 0.0088 -0.1635 -0.9865
vn 0.1545 -0.0238 -0.9877
vn 0.0091 -0.0700 -0.9975
vn 0.4411 -0.1841 -0.8784
vn 0.4114 -0.3611 -0.8369
vn 0.3024 -0.1490 -0.9415
vn 0.8377 -0.0500 -0.5439
vn 0.4990 -0.1557 -0.8525
vn 0.5182 -0.0450 -0.8541
vn 0.7284 -0.1294 -0.6728
vn 0.7033 -0.0304 -0.7103
vn 0.7444 -0.0512 -0.6658
vn 0.0537 -0.9918 -0.1163
vn 0.0459 -0.9968 0.0653
vn 0.2287 -0.9687 0.0966
vn 0.8388 -0.5243 0.1470
vn 0.8538 -0.5112 0.0985
vn 0.9441 -0.3263 0.0482
vn 0.9417 -0.3215 0.0987
vn 0.9609 -0.2684 0.0684
vn 0.1508 -0.9326 -0.3278
vn 0.1722 -0.8561 -0.4873
vn 0.1629 -0.7132 -0.6817
vn 0.4029 -0.4753 -0.7822
vn 0.8682 -0.3289 -0.3717
vn 0.9064 -0.2890 -0.3080
vn 0.8734 -0.1604 -0.4598
vn 0.8121 -0.2606 -0.5221
vn 0.8248 -0.1943 -0.5311
vn 0.9795 -0.1851 -0.0801
vn 0.9739 -0.2163 -0.0684
vn 0.9652 -0.2452 -0.0911
vn 0.9430 -0.1588 -0.2924
vn 0.9198 -0.2486 -0.3036
vn 0.9184 -0.1900 -0.3470
vn 0.8510 -0.3765 -0.3662
vn 0.8630 -0.4575 -0.2142
vn 0.4563 -0.6191 -0.6391
vn 0.4368 -0.6478 -0.6241
vn 0.4842 -0.7881 -0.3800
vn 0.4409 -0.7787 -0.4464
vn -0.2081 -0.1965 -0.9582
vn -0.2118 -0.1985 -0.9570
vn -0.4272 -0.1471 -0.8921
vn -0.2214 -0.0406 -0.9743
vn -0.4402 -0.0633 -0.8956
vn -0.4039 -0.0392 -0.9140
vn -0.1405 -0.6866 -0.7133
vn 0.1404 -0.6866 -0.7133
vn 0.1563 -0.5399 -0.8271
vn 0.0525 -0.1887 -0.9806
vn 0.2337 -0.1881 -0.9540
vn 0.2408 -0.3402 -0.9090
vn 0.1637 -0.9687 -0.1866
vn 0.1763 -0.9444 -0.2775
vn 0.2693 -0.9606 -0.0682
vn 0.4497 -0.8578 -0.2490
vn 0.4716 -0.8775 -0.0875
vn 0.4995 -0.8570 -0.1265
vn -0.1563 -0.5399 -0.8271
vn -0.2145 -0.3359 -0.9172
vn -0.4029 -0.4753 -0.7822
vn -0.4350 -0.3996 -0.8069
vn -0.4111 -0.3611 -0.8370
vn -0.1422 -0.4108 -0.9006
vn -0.1396 -0.5204 -0.8424
vn 0.0495 -0.3540 -0.9339
vn 0.1396 -0.5204 -0.8424
vn 0.1422 -0.4118 -0.9001
s 1
usemtl material_0
f 1//1 2//1 3//1
f 4//2 5//2 6//2
f 7//3 8//3 9//3
f 10//4 11//4 12//4
f 13//5 14//5 15//5
f 16//6 17//6 18//6
f 19//7 20//7 21//7
f 22//8 23//8 24//8
f 25//9 26//9 27//9
f 28//10 29//10 30//10
f 31//11 32//11 33//11
f 34//12 35//12 36//12
f 37//13 38//13 39//13
f 40//14 41//14 42//14
f 43//15 44//15 45//15
f 46//16 47//16 48//16
f 49//17 50//17 51//17
f 52//18 53//18 54//18
f 55//19 56//19 57//19
f 58//20 59//20 60//20
f 61//21 62//21 63//21
f 64//22 65//22 66//22
f 67//23 68//23 69//23
f 70//24 71//24 72//24
f 73//25 74//25 75//25
f 76//26 77//26 78//26
f 79//27 80//27 81//27
f 82//28 83//28 84//28
f 85//29 86//29 87//29
f 88//30 89//30 90//30
f 91//31 92//31 93//31
f 94//32 95//32 96//32
f 97//33 98//33 99//33
f 100//34 101//34 102//34
f 103//35 104//35 105//35
f 106//36 107//36 108//36
f 109//37 110//37 111//37
f 112//38 113//38 114//38
f 115//39 116//39 117//39
f 118//40 119//40 120//40
f 121//41 122//41 123//41
f 124//42 125//42 126//42
f 127//43 128//43 129//43
f 130//44 131//44 132//44
f 133//45 134//45 135//45
f 136//46 137//46 138//46
f 139//47 140//47 141//47
f 142//48 143//48 144//48
f 145//49 146//49 147//49
f 148//50 149//50 150//50
f 151//51 152//51 153//51
f 154//52 155//52 156//52
f 157//53 158//53 159//53
f 160//54 161//54 162//54
f 163//55 164//55 165//55
f 166//56 167//56 168//56
f 169//57 170//57 171//57
f 172//58 173//58 174//58
f 175//59 176//59 177//59
f 178//60 179//60 180//60
f 181//61 182//61 183//61
f 184//62 185//62 186//62
f 187//63 188//63 189//63
f 190//64 191//64 192//64
f 193//65 194//65 195//65
f 196//66 197//66 198//66
f 199//67 200//67 201//67
f 202//68 203//68 204//68
f 205//69 206//69 207//69
f 208//70 209//70 210//70
f 211//71 212//71 213//71
f 214//72 215//72 216//72
f 217//73 218//73 219//73
f 220//74 221//74 222//74
f 223//75 224//75 225//75
f 226//76 227//76 228//76
f 229//77 230//77 231//77
f 232//78 233//78 234//78
f 235//79 236//79 237//79
f 238//80 239//80 240//80
f 241//81 242//81 243//81
f 244//82 245//82 246//82
f 247//83 248//83 249//83
f 250//84 251//84 252//84
f 253//85 254//85 255//85
f 256//86 257//86 258//86
f 259//87 260//87 261//87
f 262//88 263//88 264//88
f 265//89 266//89 267//89
f 268//90 269//90 270//90
f 271//91 272//91 273//91
f 274//92 275//92 276//92
f 277//93 278//93 279//93
f 280//94 281//94 282//94
f 283//95 284//95 285//95
f 286//96 287//96 288//96
f 289//97 290//97 291//97
f 292//98 293//98 294//98
f 295//99 296//99 297//99
f 298//100 299//100 300//100
f 301//101 302//101 303//101
f 304//102 305//102 306//102
f 307//103 308//103 309//103
f 310//104 311//104 312//104
f 313//105 314//105 315//105
f 316//106 317//106 318//106
f 319//107 320//107 321//107
f 322//108 323//108 324//108
f 325//109 326//109 327//109
f 328//110 329//110 330//110
f 331//111 332//111 333//111
f 334//112 335//112 336//112
f 337//113 338//113 339//113
f 340//114 341//114 342//114
f 343//115 344//115 345//115
f 346//116 347//116 348//116
f 349//117 350//117 351//117
f 352//118 353//118 354//118
f 355//119 356//119 357//119
f 358//120 359//120 360//120
f 361//121 362//121 363//121
f 364//122 365//122 366//122
f 367//123 368//123 369//123
f 370//124 371//124 372//124
f 373//125 374//125 375//125
f 376//126 377//126 378//126
f 379//127 380//127 381//127
f 382//128 383//128 384//128
f 385//129 386//129 387//129
f 388//130 389//130 390//130
f 391//131 392//131 393//131
f 394//132 395//132 396//132
f 397//133 398//133 399//133
f 400//134 401//134 402//134
f 403//135 404//135 405//135
f 406//136 407//136 408//136
f 409//137 410//137 411//137
f 412//138 413//138 414//138
f 415//139 416//139 417//139
f 418//140 419//140 420//140
f 421//141 422//141 423//141
f 424//142 425//142 426//142
f 427//143 428//143 429//143
f 430//144 431//144 432//144
f 433//145 434//145 435//145
f 436//146 437//146 438//146
f 439//147 440//147 441//147
f 442//148 443//148 444//148
f 445//149 446//149 447//149
f 448//150 449//150 450//150
f 451//151 452//151 453//151
f 454//152 455//152 456//152
f 457//153 458//153 459//153
f 460//154 461//154 462//154
f 463//155 464//155 465//155
f 466//156 467//156 468//156
f 469//157 470//157 471//157
f 472//158 473//158 474//158
f 475//159 476//159 477//159
f 478//160 479//160 480//160
f 481//161 482//161 483//161
f 484//162 485//162 486//162
f 487//163 488//163 489//163
f 490//164 491//164 492//164
f 493//165 494//165 495//165
f 496//166 497//166 498//166
f 499//167 500//167 501//167
f 502//168 503//168 504//168
f 505//169 506//169 507//169
f 508//170 509//170 510//170
f 511//171 512//171 513//171
f 514//172 515//172 516//172
f 517//173 518//173 519//173
f 520//174 521//174 522//174
f 523//175 524//175 525//175
f 526//176 527//176 528//176
f 529//177 530//177 531//177
f 532//178 533//178 534//178
f 535//179 536//179 537//179
f 538//180 539//180 540//180
f 541//181 542//181 543//181
f 544//182 545//182 546//182
f 547//183 548//183 549//183
f 550//184 551//184 552//184
f 553//185 554//185 555//185
f 556//186 557//186 558//186
f 559//187 560//187 561//187
f 562//188 563//188 564//188
f 565//189 566//189 567//189
f 568//190 569//190 570//190
f 571//191 572//191 573//191
f 574//192 575//192 576//192
f 577//193 578//193 579//193
f 580//194 581//194 582//194
f 583//195 584//195 585//195
f 586//196 587//196 588//196
