# Blender 4.5.10 LTS
# www.blender.org
mtllib iiwa_robot_base_coll_2.mtl
o node
v -0.072753 0.072546 -0.078663
v -0.075910 0.063686 -0.066788
v -0.091579 0.073348 -0.078366
v -0.069552 0.081867 -0.078663
v -0.072753 0.072546 -0.078663
v -0.091579 0.073348 -0.078366
v -0.072753 0.072546 -0.078663
v -0.069552 0.081867 -0.078663
v -0.050060 0.107620 -0.075001
v -0.064938 0.098276 -0.077191
v -0.069552 0.081867 -0.078663
v -0.091579 0.073348 -0.078366
v -0.069552 0.081867 -0.078663
v -0.064938 0.098276 -0.077191
v -0.050060 0.107620 -0.075001
v -0.075910 0.063686 -0.066788
v -0.086277 0.075467 -0.067554
v -0.091579 0.073348 -0.078366
v -0.086277 0.075467 -0.067554
v -0.064938 0.098276 -0.077191
v -0.091579 0.073348 -0.078366
v -0.056625 0.082828 -0.066631
v -0.072753 0.072546 -0.078663
v -0.050060 0.107620 -0.075001
v -0.072753 0.072546 -0.078663
v -0.056625 0.082828 -0.066631
v -0.075910 0.063686 -0.066788
v -0.066919 0.093243 -0.066435
v -0.056625 0.082828 -0.066631
v -0.050060 0.107620 -0.075001
v -0.064938 0.098276 -0.077191
v -0.066919 0.093243 -0.066435
v -0.050060 0.107620 -0.075001
v -0.066919 0.093243 -0.066435
v -0.086277 0.075467 -0.067554
v -0.075601 0.085016 -0.066416
v -0.086277 0.075467 -0.067554
v -0.066919 0.093243 -0.066435
v -0.064938 0.098276 -0.077191
v -0.056625 0.082828 -0.066631
v -0.071078 0.069707 -0.065233
v -0.075910 0.063686 -0.066788
v -0.075725 0.075630 -0.065302
v -0.086277 0.075467 -0.067554
v -0.075910 0.063686 -0.066788
v -0.071078 0.069707 -0.065233
v -0.075725 0.075630 -0.065302
v -0.075910 0.063686 -0.066788
v -0.086277 0.075467 -0.067554
v -0.075725 0.075630 -0.065302
v -0.075601 0.085016 -0.066416
v -0.075725 0.075630 -0.065302
v -0.066919 0.093243 -0.066435
v -0.075601 0.085016 -0.066416
v -0.075725 0.075630 -0.065302
v -0.067093 0.081256 -0.065592
v -0.066919 0.093243 -0.066435
v -0.067093 0.081256 -0.065592
v -0.075725 0.075630 -0.065302
v -0.071078 0.069707 -0.065233
v -0.066919 0.093243 -0.066435
v -0.067093 0.081256 -0.065592
v -0.056625 0.082828 -0.066631
v -0.067093 0.081256 -0.065592
v -0.071078 0.069707 -0.065233
v -0.056625 0.082828 -0.066631
vn -0.0434 -0.7952 -0.6048
vn -0.0155 0.0053 -0.9999
vn 0.3232 -0.1110 -0.9398
vn -0.0537 0.1042 -0.9931
vn 0.1096 0.0582 -0.9923
vn -0.6852 -0.5738 0.4485
vn -0.6751 0.7125 0.1914
vn 0.6971 -0.3881 -0.6028
vn 0.6681 -0.6705 -0.3226
vn 0.2652 0.2446 0.9326
vn -0.5402 0.7960 0.2731
vn -0.6478 0.6845 0.3343
vn -0.6677 0.7139 0.2111
vn 0.6084 -0.6171 0.4990
vn -0.2055 -0.1177 0.9716
vn -0.1664 -0.1192 0.9788
vn -0.2090 0.1180 0.9708
vn -0.1102 0.1186 0.9868
vn -0.0123 0.0703 0.9974
vn 0.0173 0.0251 0.9995
vn 0.0883 0.0686 0.9937
vn 0.0992 -0.0033 0.9951
s 1
usemtl material_0
f 1//1 2//1 3//1
f 4//2 5//2 6//2
f 7//3 8//3 9//3
f 10//4 11//4 12//4
f 13//5 14//5 15//5
f 16//6 17//6 18//6
f 19//7 20//7 21//7
f 22//8 23//8 24//8
f 25//9 26//9 27//9
f 28//10 29//10 30//10
f 31//11 32//11 33//11
f 34//12 35//12 36//12
f 37//13 38//13 39//13
f 40//14 41//14 42//14
f 43//15 44//15 45//15
f 46//16 47//16 48//16
f 49//17 50//17 51//17
f 52//18 53//18 54//18
f 55//19 56//19 57//19
f 58//20 59//20 60//20
f 61//21 62//21 63//21
f 64//22 65//22 66//22
