# Blender 4.5.10 LTS
# www.blender.org
mtllib iiwa_robot_base_coll_15.mtl
o node
v 0.086958 -0.055411 -0.076916
v 0.083183 -0.070868 -0.078663
v 0.073104 -0.066296 -0.067313
v 0.083183 -0.070868 -0.078663
v 0.086958 -0.055411 -0.076916
v 0.104796 -0.071581 -0.077798
v 0.089016 -0.078839 -0.078661
v 0.083183 -0.070868 -0.078663
v 0.104796 -0.071581 -0.077798
v 0.086958 -0.055411 -0.076916
v 0.090043 -0.063933 -0.066823
v 0.104796 -0.071581 -0.077798
v 0.081584 -0.061881 -0.065270
v 0.086958 -0.055411 -0.076916
v 0.073104 -0.066296 -0.067313
v 0.081584 -0.061881 -0.065270
v 0.090043 -0.063933 -0.066823
v 0.086958 -0.055411 -0.076916
v 0.081584 -0.061881 -0.065270
v 0.088965 -0.080755 -0.065150
v 0.090043 -0.063933 -0.066823
v 0.090043 -0.063933 -0.066823
v 0.100301 -0.076895 -0.069045
v 0.104796 -0.071581 -0.077798
v 0.088965 -0.080755 -0.065150
v 0.100301 -0.076895 -0.069045
v 0.090043 -0.063933 -0.066823
v 0.100301 -0.076895 -0.069045
v 0.089016 -0.078839 -0.078661
v 0.104796 -0.071581 -0.077798
v 0.100301 -0.076895 -0.069045
v 0.088965 -0.080755 -0.065150
v 0.089016 -0.078839 -0.078661
v 0.076879 -0.074946 -0.064953
v 0.081584 -0.061881 -0.065270
v 0.073104 -0.066296 -0.067313
v 0.076879 -0.074946 -0.064953
v 0.088965 -0.080755 -0.065150
v 0.081584 -0.061881 -0.065270
v 0.088965 -0.080755 -0.065150
v 0.076879 -0.074946 -0.064953
v 0.089016 -0.078839 -0.078661
v 0.083183 -0.070868 -0.078663
v 0.076879 -0.074946 -0.064953
v 0.073104 -0.066296 -0.067313
v 0.089016 -0.078839 -0.078661
v 0.076879 -0.074946 -0.064953
v 0.083183 -0.070868 -0.078663
vn -0.6744 0.2435 -0.6970
vn 0.0431 0.1018 -0.9939
vn 0.0410 0.0298 -0.9987
vn 0.6319 0.6765 0.3781
vn -0.4931 0.8370 0.2374
vn 0.2911 0.7730 0.5637
vn 0.1997 0.0843 0.9762
vn 0.6717 0.4279 0.6048
vn 0.3010 0.0753 0.9506
vn 0.4113 -0.8574 -0.3093
vn 0.2779 -0.9512 -0.1338
vn -0.2955 0.1294 0.9465
vn 0.0238 0.0157 0.9996
vn -0.4313 -0.8931 -0.1282
vn -0.7483 -0.4576 -0.4802
vn -0.7080 -0.5183 -0.4797
s 1
usemtl material_0
f 1//1 2//1 3//1
f 4//2 5//2 6//2
f 7//3 8//3 9//3
f 10//4 11//4 12//4
f 13//5 14//5 15//5
f 16//6 17//6 18//6
f 19//7 20//7 21//7
f 22//8 23//8 24//8
f 25//9 26//9 27//9
f 28//10 29//10 30//10
f 31//11 32//11 33//11
f 34//12 35//12 36//12
f 37//13 38//13 39//13
f 40//14 41//14 42//14
f 43//15 44//15 45//15
f 46//16 47//16 48//16
