# Blender 4.5.10 LTS
# www.blender.org
mtllib iiwa_robot_base_coll_9.mtl
o node
v -0.068261 -0.092195 -0.067293
v -0.062441 -0.078593 -0.065206
v -0.073921 -0.078583 -0.065663
v -0.072753 -0.080189 -0.078665
v -0.068261 -0.092195 -0.067293
v -0.073921 -0.078583 -0.065663
v -0.068261 -0.092195 -0.067293
v -0.072753 -0.080189 -0.078665
v -0.064981 -0.098131 -0.077191
v -0.064981 -0.098131 -0.077191
v -0.049502 -0.076008 -0.078724
v -0.047499 -0.078216 -0.076671
v -0.072753 -0.080189 -0.078665
v -0.049502 -0.076008 -0.078724
v -0.064981 -0.098131 -0.077191
v -0.049502 -0.076008 -0.078724
v -0.072753 -0.080189 -0.078665
v -0.073921 -0.078583 -0.065663
v -0.062441 -0.078593 -0.065206
v -0.049502 -0.076008 -0.078724
v -0.073921 -0.078583 -0.065663
v -0.049502 -0.076008 -0.078724
v -0.062441 -0.078593 -0.065206
v -0.047499 -0.078216 -0.076671
v -0.062441 -0.078593 -0.065206
v -0.056108 -0.081790 -0.067072
v -0.047499 -0.078216 -0.076671
v -0.068261 -0.092195 -0.067293
v -0.056108 -0.081790 -0.067072
v -0.062441 -0.078593 -0.065206
v -0.056108 -0.081790 -0.067072
v -0.064981 -0.098131 -0.077191
v -0.047499 -0.078216 -0.076671
v -0.056108 -0.081790 -0.067072
v -0.068261 -0.092195 -0.067293
v -0.064981 -0.098131 -0.077191
vn -0.0396 -0.1350 0.9901
vn -0.9243 -0.3800 -0.0361
vn -0.9140 -0.4010 -0.0623
vn 0.4395 -0.3644 -0.8210
vn 0.0113 -0.0770 -0.9970
vn -0.1757 0.9750 -0.1362
vn -0.0063 0.9833 0.1820
vn 0.3611 0.7893 0.4966
vn 0.4859 0.5817 0.6524
vn 0.1716 -0.2207 0.9601
vn 0.6875 -0.6137 0.3881
vn 0.5339 -0.6354 0.5579
s 1
usemtl material_0
f 1//1 2//1 3//1
f 4//2 5//2 6//2
f 7//3 8//3 9//3
f 10//4 11//4 12//4
f 13//5 14//5 15//5
f 16//6 17//6 18//6
f 19//7 20//7 21//7
f 22//8 23//8 24//8
f 25//9 26//9 27//9
f 28//10 29//10 30//10
f 31//11 32//11 33//11
f 34//12 35//12 36//12
