# Blender 4.5.10 LTS
# www.blender.org
mtllib iiwa_link5_resp_coll_1.mtl
o node
v -0.058286 -0.034657 -0.020160
v 0.058142 -0.034062 -0.022332
v -0.000230 -0.080432 0.011375
v -0.058286 -0.034657 -0.020160
v -0.054908 0.002200 -0.012246
v 0.058142 -0.034062 -0.022332
v 0.058142 -0.034062 -0.022332
v 0.022359 -0.076120 0.012601
v -0.000230 -0.080432 0.011375
v 0.039949 -0.061141 0.025981
v 0.022359 -0.076120 0.012601
v 0.058142 -0.034062 -0.022332
v -0.025158 -0.040372 0.126255
v -0.013797 -0.043516 0.126256
v -0.067495 0.031677 0.126284
v -0.013797 -0.043516 0.126256
v -0.025158 -0.040372 0.126255
v -0.000230 -0.080432 0.011375
v -0.053812 -0.043440 0.012630
v -0.058286 -0.034657 -0.020160
v -0.000230 -0.080432 0.011375
v -0.054908 0.002200 -0.012246
v 0.054448 0.002200 -0.012247
v 0.058142 -0.034062 -0.022332
v 0.058142 -0.034062 -0.022332
v 0.054448 0.002200 -0.012247
v 0.068477 0.023701 0.126222
v 0.066659 0.008932 0.126256
v 0.058142 -0.034062 -0.022332
v 0.068477 0.023701 0.126222
v 0.009969 -0.044090 0.126256
v -0.013797 -0.043516 0.126256
v -0.000230 -0.080432 0.011375
v 0.022359 -0.076120 0.012601
v 0.009969 -0.044090 0.126256
v -0.000230 -0.080432 0.011375
v -0.013797 -0.043516 0.126256
v 0.009969 -0.044090 0.126256
v -0.067495 0.031677 0.126284
v -0.067101 0.019178 0.110199
v -0.067132 0.009679 0.126257
v -0.067495 0.031677 0.126284
v -0.067132 0.009679 0.126257
v -0.067101 0.019178 0.110199
v -0.058286 -0.034657 -0.020160
v -0.067132 0.009679 0.126257
v -0.062132 -0.005465 0.126255
v -0.067495 0.031677 0.126284
v -0.062132 -0.005465 0.126255
v -0.067132 0.009679 0.126257
v -0.058286 -0.034657 -0.020160
v -0.053812 -0.043440 0.012630
v -0.062132 -0.005465 0.126255
v -0.058286 -0.034657 -0.020160
v -0.062132 -0.005465 0.126255
v -0.025158 -0.040372 0.126255
v -0.067495 0.031677 0.126284
v -0.025158 -0.040372 0.126255
v -0.062132 -0.005465 0.126255
v -0.053310 -0.019823 0.126249
v -0.000230 0.075955 0.077845
v 0.054448 0.002200 -0.012247
v -0.054908 0.002200 -0.012246
v -0.000230 0.075955 0.077845
v -0.012940 0.082083 0.088574
v -0.000230 0.085427 0.091552
v -0.012940 0.082083 0.088574
v -0.000230 0.075955 0.077845
v -0.054908 0.002200 -0.012246
v 0.056094 0.056874 0.111322
v 0.054448 0.002200 -0.012247
v 0.047706 0.068103 0.111044
v 0.054448 0.002200 -0.012247
v 0.056094 0.056874 0.111322
v 0.062296 0.049892 0.126256
v 0.065920 0.039083 0.126259
v 0.054448 0.002200 -0.012247
v 0.062296 0.049892 0.126256
v 0.065920 0.039083 0.126259
v 0.066659 0.008932 0.126256
v 0.068477 0.023701 0.126222
v 0.066659 0.008932 0.126256
v 0.065920 0.039083 0.126259
v 0.060952 -0.006912 0.126256
v -0.000248 0.089959 0.106613
v 0.012765 0.088541 0.107764
v -0.000230 0.085427 0.091552
v -0.025247 0.075972 0.086986
v -0.054908 0.002200 -0.012246
v -0.036358 0.066821 0.085310
v -0.025247 0.075972 0.086986
v -0.012940 0.082083 0.088574
v -0.054908 0.002200 -0.012246
v -0.025859 0.083745 0.107199
v -0.025247 0.075972 0.086986
v -0.036358 0.066821 0.085310
v -0.012940 0.082083 0.088574
v -0.025247 0.075972 0.086986
v -0.025859 0.083745 0.107199
v 0.053720 -0.042780 0.010189
v 0.039949 -0.061141 0.025981
v 0.058142 -0.034062 -0.022332
v 0.053720 -0.042780 0.010189
v 0.051119 -0.046191 0.022925
v 0.039949 -0.061141 0.025981
v 0.051119 -0.046191 0.022925
v 0.053720 -0.042780 0.010189
v 0.060952 -0.006912 0.126256
v 0.066659 0.008932 0.126256
v 0.053720 -0.042780 0.010189
v 0.058142 -0.034062 -0.022332
v 0.053720 -0.042780 0.010189
v 0.066659 0.008932 0.126256
v 0.060952 -0.006912 0.126256
v 0.051119 -0.046191 0.022925
v 0.047498 -0.048975 0.033328
v 0.039949 -0.061141 0.025981
v 0.047498 -0.048975 0.033328
v 0.054418 -0.017590 0.126253
v 0.039949 -0.061141 0.025981
v 0.054418 -0.017590 0.126253
v 0.051119 -0.046191 0.022925
v 0.060952 -0.006912 0.126256
v 0.054418 -0.017590 0.126253
v 0.047498 -0.048975 0.033328
v 0.051119 -0.046191 0.022925
v 0.034362 -0.035895 0.126248
v 0.022359 -0.076120 0.012601
v 0.039949 -0.061141 0.025981
v 0.054418 -0.017590 0.126253
v 0.034362 -0.035895 0.126248
v 0.039949 -0.061141 0.025981
v -0.040401 -0.032685 0.126238
v -0.025158 -0.040372 0.126255
v -0.053310 -0.019823 0.126249
v -0.047004 -0.049495 0.035357
v -0.040401 -0.032685 0.126238
v -0.053310 -0.019823 0.126249
v -0.040401 -0.032685 0.126238
v -0.047004 -0.049495 0.035357
v -0.040755 -0.052484 0.046476
v -0.040755 -0.052484 0.046476
v -0.047004 -0.049495 0.035357
v -0.000230 -0.080432 0.011375
v -0.025158 -0.040372 0.126255
v -0.032035 -0.054934 0.055616
v -0.000230 -0.080432 0.011375
v -0.032035 -0.054934 0.055616
v -0.040755 -0.052484 0.046476
v -0.000230 -0.080432 0.011375
v -0.040401 -0.032685 0.126238
v -0.032035 -0.054934 0.055616
v -0.025158 -0.040372 0.126255
v -0.032035 -0.054934 0.055616
v -0.040401 -0.032685 0.126238
v -0.040755 -0.052484 0.046476
v 0.010881 0.090257 0.126256
v -0.000248 0.089959 0.106613
v -0.000790 0.091263 0.126255
v -0.000248 0.089959 0.106613
v 0.010881 0.090257 0.126256
v 0.012765 0.088541 0.107764
v 0.056094 0.056874 0.111322
v 0.056964 0.060072 0.126256
v 0.062296 0.049892 0.126256
v 0.056964 0.060072 0.126256
v 0.065920 0.039083 0.126259
v 0.062296 0.049892 0.126256
v 0.065920 0.039083 0.126259
v 0.056964 0.060072 0.126256
v 0.049913 0.069097 0.126256
v 0.049913 0.069097 0.126256
v 0.056964 0.060072 0.126256
v 0.047706 0.068103 0.111044
v 0.056964 0.060072 0.126256
v 0.056094 0.056874 0.111322
v 0.047706 0.068103 0.111044
v 0.054448 0.002200 -0.012247
v 0.065062 0.029943 0.106792
v 0.068477 0.023701 0.126222
v 0.065062 0.029943 0.106792
v 0.065920 0.039083 0.126259
v 0.068477 0.023701 0.126222
v 0.065920 0.039083 0.126259
v 0.065062 0.029943 0.106792
v 0.054448 0.002200 -0.012247
v 0.060952 -0.006912 0.126256
v -0.053525 0.065349 0.126285
v -0.067495 0.031677 0.126284
v 0.065920 0.039083 0.126259
v -0.053525 0.065349 0.126285
v 0.060952 -0.006912 0.126256
v -0.000248 0.089959 0.106613
v -0.013280 0.089978 0.126256
v -0.000790 0.091263 0.126255
v -0.013280 0.089978 0.126256
v -0.053525 0.065349 0.126285
v -0.000790 0.091263 0.126255
v 0.054448 0.002200 -0.012247
v 0.035898 0.066821 0.085310
v 0.047706 0.068103 0.111044
v 0.024787 0.075972 0.086986
v 0.035898 0.066821 0.085310
v 0.054448 0.002200 -0.012247
v 0.012765 0.088541 0.107764
v 0.012480 0.082083 0.088574
v -0.000230 0.085427 0.091552
v 0.012480 0.082083 0.088574
v 0.024787 0.075972 0.086986
v 0.054448 0.002200 -0.012247
v 0.012480 0.082083 0.088574
v -0.000230 0.075955 0.077845
v -0.000230 0.085427 0.091552
v -0.000230 0.075955 0.077845
v 0.012480 0.082083 0.088574
v 0.054448 0.002200 -0.012247
v -0.065637 0.030107 0.107296
v -0.067101 0.019178 0.110199
v -0.067495 0.031677 0.126284
v -0.065637 0.030107 0.107296
v -0.054908 0.002200 -0.012246
v -0.058286 -0.034657 -0.020160
v -0.067101 0.019178 0.110199
v -0.065637 0.030107 0.107296
v -0.058286 -0.034657 -0.020160
v 0.021607 -0.041453 0.126255
v 0.009969 -0.044090 0.126256
v 0.022359 -0.076120 0.012601
v 0.034362 -0.035895 0.126248
v 0.021607 -0.041453 0.126255
v 0.022359 -0.076120 0.012601
v 0.021607 -0.041453 0.126255
v 0.034362 -0.035895 0.126248
v 0.054418 -0.017590 0.126253
v 0.021607 -0.041453 0.126255
v 0.054418 -0.017590 0.126253
v 0.060952 -0.006912 0.126256
v 0.021607 -0.041453 0.126255
v 0.060952 -0.006912 0.126256
v -0.067495 0.031677 0.126284
v 0.009969 -0.044090 0.126256
v 0.021607 -0.041453 0.126255
v -0.067495 0.031677 0.126284
v -0.050909 -0.046675 0.024904
v -0.047004 -0.049495 0.035357
v -0.053310 -0.019823 0.126249
v -0.062132 -0.005465 0.126255
v -0.050909 -0.046675 0.024904
v -0.053310 -0.019823 0.126249
v -0.050909 -0.046675 0.024904
v -0.062132 -0.005465 0.126255
v -0.053812 -0.043440 0.012630
v -0.050909 -0.046675 0.024904
v -0.053812 -0.043440 0.012630
v -0.000230 -0.080432 0.011375
v -0.047004 -0.049495 0.035357
v -0.050909 -0.046675 0.024904
v -0.000230 -0.080432 0.011375
v 0.041756 0.076702 0.126257
v 0.049913 0.069097 0.126256
v 0.047706 0.068103 0.111044
v 0.025399 0.083745 0.107199
v 0.012480 0.082083 0.088574
v 0.012765 0.088541 0.107764
v 0.012480 0.082083 0.088574
v 0.025399 0.083745 0.107199
v 0.024787 0.075972 0.086986
v 0.010881 0.090257 0.126256
v 0.022210 0.087365 0.126261
v 0.012765 0.088541 0.107764
v 0.022210 0.087365 0.126261
v 0.025399 0.083745 0.107199
v 0.012765 0.088541 0.107764
v 0.025399 0.083745 0.107199
v 0.022210 0.087365 0.126261
v 0.032450 0.082801 0.126256
v 0.022210 0.087365 0.126261
v 0.010881 0.090257 0.126256
v -0.000790 0.091263 0.126255
v -0.053525 0.065349 0.126285
v 0.022210 0.087365 0.126261
v -0.000790 0.091263 0.126255
v 0.022210 0.087365 0.126261
v 0.041756 0.076702 0.126257
v 0.032450 0.082801 0.126256
v 0.022210 0.087365 0.126261
v -0.053525 0.065349 0.126285
v 0.065920 0.039083 0.126259
v 0.022210 0.087365 0.126261
v 0.065920 0.039083 0.126259
v 0.049913 0.069097 0.126256
v 0.041756 0.076702 0.126257
v 0.022210 0.087365 0.126261
v 0.049913 0.069097 0.126256
v -0.048081 0.068100 0.110847
v -0.025859 0.083745 0.107199
v -0.036358 0.066821 0.085310
v -0.054908 0.002200 -0.012246
v -0.048081 0.068100 0.110847
v -0.036358 0.066821 0.085310
v -0.013225 0.088541 0.107764
v -0.013280 0.089978 0.126256
v -0.000248 0.089959 0.106613
v -0.013225 0.088541 0.107764
v -0.012940 0.082083 0.088574
v -0.025859 0.083745 0.107199
v -0.012940 0.082083 0.088574
v -0.013225 0.088541 0.107764
v -0.000230 0.085427 0.091552
v -0.013225 0.088541 0.107764
v -0.000248 0.089959 0.106613
v -0.000230 0.085427 0.091552
v -0.034589 0.081893 0.126259
v -0.024267 0.086780 0.126256
v -0.025859 0.083745 0.107199
v -0.024267 0.086780 0.126256
v -0.013225 0.088541 0.107764
v -0.025859 0.083745 0.107199
v -0.013225 0.088541 0.107764
v -0.024267 0.086780 0.126256
v -0.013280 0.089978 0.126256
v -0.053525 0.065349 0.126285
v -0.024267 0.086780 0.126256
v -0.034589 0.081893 0.126259
v -0.013280 0.089978 0.126256
v -0.024267 0.086780 0.126256
v -0.053525 0.065349 0.126285
v -0.064854 0.044322 0.126256
v -0.062367 0.044967 0.111190
v -0.054908 0.002200 -0.012246
v -0.065637 0.030107 0.107296
v -0.064854 0.044322 0.126256
v -0.054908 0.002200 -0.012246
v -0.064854 0.044322 0.126256
v -0.065637 0.030107 0.107296
v -0.067495 0.031677 0.126284
v -0.062367 0.044967 0.111190
v -0.064854 0.044322 0.126256
v -0.060803 0.054065 0.126256
v -0.053525 0.065349 0.126285
v -0.064854 0.044322 0.126256
v -0.067495 0.031677 0.126284
v -0.064854 0.044322 0.126256
v -0.053525 0.065349 0.126285
v -0.060803 0.054065 0.126256
v 0.041756 0.076702 0.126257
v 0.036948 0.077545 0.109837
v 0.032450 0.082801 0.126256
v 0.036948 0.077545 0.109837
v 0.025399 0.083745 0.107199
v 0.032450 0.082801 0.126256
v 0.036948 0.077545 0.109837
v 0.041756 0.076702 0.126257
v 0.047706 0.068103 0.111044
v 0.035898 0.066821 0.085310
v 0.036948 0.077545 0.109837
v 0.047706 0.068103 0.111044
v 0.036948 0.077545 0.109837
v 0.035898 0.066821 0.085310
v 0.024787 0.075972 0.086986
v 0.025399 0.083745 0.107199
v 0.036948 0.077545 0.109837
v 0.024787 0.075972 0.086986
v -0.043968 0.075234 0.126256
v -0.053525 0.065349 0.126285
v -0.034589 0.081893 0.126259
v -0.043968 0.075234 0.126256
v -0.048081 0.068100 0.110847
v -0.053525 0.065349 0.126285
v -0.043968 0.075234 0.126256
v -0.034589 0.081893 0.126259
v -0.025859 0.083745 0.107199
v -0.048081 0.068100 0.110847
v -0.043968 0.075234 0.126256
v -0.025859 0.083745 0.107199
v -0.062367 0.044967 0.111190
v -0.056529 0.056944 0.111365
v -0.054908 0.002200 -0.012246
v -0.056529 0.056944 0.111365
v -0.048081 0.068100 0.110847
v -0.054908 0.002200 -0.012246
v -0.056529 0.056944 0.111365
v -0.062367 0.044967 0.111190
v -0.060803 0.054065 0.126256
v -0.053525 0.065349 0.126285
v -0.056529 0.056944 0.111365
v -0.060803 0.054065 0.126256
v -0.048081 0.068100 0.110847
v -0.056529 0.056944 0.111365
v -0.053525 0.065349 0.126285
vn -0.0123 -0.5778 -0.8161
vn -0.0193 0.2116 -0.9772
vn 0.1729 -0.7122 -0.6804
vn 0.6987 -0.7033 -0.1311
vn -0.0003 -0.0006 1.0000
vn -0.2570 -0.9285 0.2680
vn -0.5647 -0.8132 -0.1408
vn -0.0000 0.2679 -0.9634
vn 0.9837 0.1337 -0.1204
vn 0.9923 -0.1222 -0.0215
vn -0.0230 -0.9526 0.3034
vn 0.1649 -0.9445 0.2841
vn -0.0000 -0.0004 1.0000
vn -0.9998 -0.0165 -0.0117
vn -0.9970 -0.0652 -0.0405
vn -0.0037 -0.0013 1.0000
vn -0.9489 -0.3133 0.0375
vn -0.9436 -0.3286 0.0407
vn -0.0008 -0.0009 1.0000
vn -0.0009 -0.0009 1.0000
vn -0.0000 0.7738 -0.6335
vn -0.0829 0.8199 -0.5665
vn -0.1106 0.8009 -0.5885
vn 0.7759 0.5731 -0.2639
vn 0.8985 0.3969 -0.1876
vn 0.9358 0.3137 -0.1610
vn 0.0161 0.0003 0.9999
vn 0.0003 -0.0001 1.0000
vn 0.1288 0.9496 -0.2857
vn -0.5513 0.7400 -0.3853
vn -0.3340 0.8015 -0.4960
vn -0.5766 0.7566 -0.3084
vn -0.3822 0.8586 -0.3417
vn 0.7706 -0.6340 -0.0652
vn 0.8014 -0.5981 0.0035
vn 0.9054 -0.4184 0.0729
vn 0.9440 -0.3274 0.0406
vn 0.9398 -0.3385 0.0461
vn 0.8069 -0.5770 0.1265
vn 0.8028 -0.5804 0.1362
vn 0.8472 -0.5184 0.1164
vn 0.8129 -0.5674 0.1311
vn 0.5199 -0.8211 0.2357
vn 0.6578 -0.7209 0.2182
vn -0.0032 -0.0042 1.0000
vn -0.6943 -0.6970 0.1794
vn -0.6687 -0.7210 0.1819
vn -0.5260 -0.8478 0.0677
vn -0.4027 -0.8879 0.2223
vn -0.4426 -0.8769 0.1872
vn -0.4392 -0.8705 0.2222
vn -0.4665 -0.8580 0.2150
vn 0.0857 0.9943 -0.0637
vn 0.1150 0.9901 -0.0802
vn 0.8759 0.4588 -0.1493
vn 0.0012 0.0006 1.0000
vn 0.0005 0.0004 1.0000
vn 0.7788 0.6084 -0.1528
vn 0.7913 0.5868 -0.1717
vn 0.9805 0.1532 -0.1231
vn 0.9793 0.1631 -0.1198
vn 0.9740 0.1857 -0.1301
vn 0.0002 -0.0001 1.0000
vn -0.1021 0.9924 -0.0687
vn -0.0001 0.0014 1.0000
vn 0.6476 0.6861 -0.3314
vn 0.5513 0.7400 -0.3853
vn 0.1713 0.9330 -0.3165
vn 0.3340 0.8015 -0.4960
vn 0.0829 0.8199 -0.5665
vn 0.1106 0.8009 -0.5885
vn -0.9889 0.1045 -0.1054
vn -0.9866 0.1152 -0.1154
vn -0.9886 0.1033 -0.1095
vn 0.2117 -0.9344 0.2864
vn 0.3846 -0.8822 0.2716
vn 0.0012 -0.0016 1.0000
vn 0.0005 -0.0006 1.0000
vn 0.0002 -0.0002 1.0000
vn 0.0001 -0.0002 1.0000
vn -0.7950 -0.5907 0.1377
vn -0.8461 -0.5199 0.1177
vn -0.8844 -0.4583 0.0884
vn -0.5675 -0.8193 -0.0817
vn -0.5572 -0.8302 -0.0158
vn 0.6747 0.7237 -0.1452
vn 0.3259 0.8946 -0.3059
vn 0.3822 0.8586 -0.3417
vn 0.2469 0.9669 -0.0646
vn 0.3478 0.9301 -0.1185
vn 0.4048 0.9084 -0.1048
vn 0.0001 0.0021 1.0000
vn -0.0000 0.0012 1.0000
vn 0.0017 0.0027 1.0000
vn 0.0003 0.0002 1.0000
vn 0.0003 0.0003 1.0000
vn 0.0004 0.0003 1.0000
vn -0.5812 0.7546 -0.3046
vn -0.6473 0.6863 -0.3315
vn -0.1151 0.9903 -0.0773
vn -0.3259 0.8946 -0.3059
vn -0.1713 0.9330 -0.3165
vn -0.1291 0.9495 -0.2859
vn -0.4255 0.8985 -0.1076
vn -0.3477 0.9300 -0.1191
vn -0.2787 0.9574 -0.0752
vn -0.0010 0.0028 1.0000
vn -0.0006 0.0022 1.0000
vn -0.9552 0.2569 -0.1467
vn -0.9593 0.2435 -0.1429
vn -0.9728 0.2029 -0.1120
vn -0.9149 0.3804 -0.1348
vn -0.0110 0.0045 0.9999
vn -0.0115 0.0048 0.9999
vn 0.5444 0.8307 -0.1168
vn 0.4929 0.8588 -0.1398
vn 0.6614 0.7336 -0.1560
vn 0.6434 0.6909 -0.3297
vn 0.5631 0.7480 -0.3512
vn 0.5038 0.8010 -0.3233
vn -0.0078 0.0105 0.9999
vn -0.7132 0.6891 -0.1287
vn -0.5691 0.8017 -0.1827
vn -0.5857 0.7838 -0.2065
vn -0.8791 0.4315 -0.2026
vn -0.7747 0.5743 -0.2645
vn -0.8848 0.4338 -0.1701
vn -0.8325 0.5373 -0.1351
vn -0.7890 0.5894 -0.1732
s 1
usemtl material_0
f 1//1 2//1 3//1
f 4//2 5//2 6//2
f 7//3 8//3 9//3
f 10//4 11//4 12//4
f 13//5 14//5 15//5
f 16//6 17//6 18//6
f 19//7 20//7 21//7
f 22//8 23//8 24//8
f 25//9 26//9 27//9
f 28//10 29//10 30//10
f 31//11 32//11 33//11
f 34//12 35//12 36//12
f 37//13 38//13 39//13
f 40//14 41//14 42//14
f 43//15 44//15 45//15
f 46//16 47//16 48//16
f 49//17 50//17 51//17
f 52//18 53//18 54//18
f 55//19 56//19 57//19
f 58//20 59//20 60//20
f 61//21 62//21 63//21
f 64//22 65//22 66//22
f 67//23 68//23 69//23
f 70//24 71//24 72//24
f 73//25 74//25 75//25
f 76//26 77//26 78//26
f 79//27 80//27 81//27
f 82//28 83//28 84//28
f 85//29 86//29 87//29
f 88//30 89//30 90//30
f 91//31 92//31 93//31
f 94//32 95//32 96//32
f 97//33 98//33 99//33
f 100//34 101//34 102//34
f 103//35 104//35 105//35
f 106//36 107//36 108//36
f 109//37 110//37 111//37
f 112//38 113//38 114//38
f 115//39 116//39 117//39
f 118//40 119//40 120//40
f 121//41 122//41 123//41
f 124//42 125//42 126//42
f 127//43 128//43 129//43
f 130//44 131//44 132//44
f 133//45 134//45 135//45
f 136//46 137//46 138//46
f 139//47 140//47 141//47
f 142//48 143//48 144//48
f 145//49 146//49 147//49
f 148//50 149//50 150//50
f 151//51 152//51 153//51
f 154//52 155//52 156//52
f 157//53 158//53 159//53
f 160//54 161//54 162//54
f 163//55 164//55 165//55
f 166//56 167//56 168//56
f 169//57 170//57 171//57
f 172//58 173//58 174//58
f 175//59 176//59 177//59
f 178//60 179//60 180//60
f 181//61 182//61 183//61
f 184//62 185//62 186//62
f 187//63 188//63 189//63
f 190//63 191//63 192//63
f 193//64 194//64 195//64
f 196//65 197//65 198//65
f 199//66 200//66 201//66
f 202//67 203//67 204//67
f 205//68 206//68 207//68
f 208//69 209//69 210//69
f 211//70 212//70 213//70
f 214//71 215//71 216//71
f 217//72 218//72 219//72
f 220//73 221//73 222//73
f 223//74 224//74 225//74
f 226//75 227//75 228//75
f 229//76 230//76 231//76
f 232//77 233//77 234//77
f 235//78 236//78 237//78
f 238//79 239//79 240//79
f 241//80 242//80 243//80
f 244//81 245//81 246//81
f 247//82 248//82 249//82
f 250//83 251//83 252//83
f 253//84 254//84 255//84
f 256//85 257//85 258//85
f 259//86 260//86 261//86
f 262//87 263//87 264//87
f 265//88 266//88 267//88
f 268//89 269//89 270//89
f 271//90 272//90 273//90
f 274//91 275//91 276//91
f 277//92 278//92 279//92
f 280//93 281//93 282//93
f 283//94 284//94 285//94
f 286//95 287//95 288//95
f 289//96 290//96 291//96
f 292//97 293//97 294//97
f 295//98 296//98 297//98
f 298//99 299//99 300//99
f 301//100 302//100 303//100
f 304//101 305//101 306//101
f 307//102 308//102 309//102
f 310//103 311//103 312//103
f 313//104 314//104 315//104
f 316//105 317//105 318//105
f 319//106 320//106 321//106
f 322//107 323//107 324//107
f 325//108 326//108 327//108
f 328//109 329//109 330//109
f 331//110 332//110 333//110
f 334//111 335//111 336//111
f 337//112 338//112 339//112
f 340//113 341//113 342//113
f 343//114 344//114 345//114
f 346//115 347//115 348//115
f 349//116 350//116 351//116
f 352//117 353//117 354//117
f 355//118 356//118 357//118
f 358//119 359//119 360//119
f 361//120 362//120 363//120
f 364//121 365//121 366//121
f 367//122 368//122 369//122
f 370//123 371//123 372//123
f 373//124 374//124 375//124
f 376//125 377//125 378//125
f 379//126 380//126 381//126
f 382//127 383//127 384//127
f 385//128 386//128 387//128
f 388//129 389//129 390//129
