# Blender 4.5.10 LTS
# www.blender.org
mtllib iiwa_link6_resp_coll_2.mtl
o node
v -0.000025 -0.045166 0.133539
v 0.051384 -0.045125 0.078327
v -0.051654 -0.045128 0.078404
v 0.031641 -0.045165 0.122616
v 0.015940 -0.062227 0.129459
v 0.039392 -0.064076 0.112707
v -0.038420 -0.045172 0.047645
v -0.033496 -0.057037 0.031638
v -0.040665 -0.066400 0.029532
v 0.005896 -0.082422 0.036224
v -0.040665 -0.066400 0.029532
v 0.005661 -0.049543 0.028946
v -0.043255 -0.045165 0.110227
v -0.031744 -0.045165 0.122696
v -0.051654 -0.045128 0.078404
v -0.031744 -0.045165 0.122696
v -0.043255 -0.045165 0.110227
v -0.034367 -0.063489 0.117718
v -0.016790 -0.045166 0.130761
v -0.000025 -0.045166 0.133539
v -0.051654 -0.045128 0.078404
v -0.031744 -0.045165 0.122696
v -0.016790 -0.045166 0.130761
v -0.051654 -0.045128 0.078404
v 0.031641 -0.045165 0.122616
v 0.043138 -0.045164 0.110102
v 0.051384 -0.045125 0.078327
v 0.043138 -0.045164 0.110102
v 0.031641 -0.045165 0.122616
v 0.039392 -0.064076 0.112707
v 0.031951 -0.074837 0.089453
v 0.009164 -0.079127 0.096324
v 0.005494 -0.083483 0.066557
v 0.015940 -0.062227 0.129459
v 0.016707 -0.045166 0.130716
v -0.000025 -0.045166 0.133539
v 0.016707 -0.045166 0.130716
v 0.015940 -0.062227 0.129459
v 0.031641 -0.045165 0.122616
v -0.000025 -0.045166 0.133539
v 0.016707 -0.045166 0.130716
v 0.051384 -0.045125 0.078327
v 0.016707 -0.045166 0.130716
v 0.031641 -0.045165 0.122616
v 0.051384 -0.045125 0.078327
v 0.051384 -0.045125 0.078327
v -0.047060 -0.045145 0.060570
v -0.051654 -0.045128 0.078404
v -0.038420 -0.045172 0.047645
v -0.047060 -0.045145 0.060570
v 0.051384 -0.045125 0.078327
v -0.047060 -0.045145 0.060570
v -0.040665 -0.066400 0.029532
v -0.051654 -0.045128 0.078404
v -0.047060 -0.045145 0.060570
v -0.038420 -0.045172 0.047645
v -0.040665 -0.066400 0.029532
v 0.043093 -0.068442 0.048102
v 0.046904 -0.045162 0.061296
v 0.051384 -0.045125 0.078327
v 0.037563 -0.045203 0.047190
v 0.046904 -0.045162 0.061296
v 0.043093 -0.068442 0.048102
v -0.008515 -0.045245 0.031750
v 0.006116 -0.045286 0.030838
v 0.005661 -0.049543 0.028946
v -0.040665 -0.066400 0.029532
v -0.008515 -0.045245 0.031750
v 0.005661 -0.049543 0.028946
v -0.033496 -0.057037 0.031638
v -0.008515 -0.045245 0.031750
v -0.040665 -0.066400 0.029532
v 0.006116 -0.045286 0.030838
v 0.019553 -0.049800 0.032962
v 0.005661 -0.049543 0.028946
v 0.019553 -0.049800 0.032962
v 0.005896 -0.082422 0.036224
v 0.005661 -0.049543 0.028946
v 0.005896 -0.082422 0.036224
v 0.019553 -0.049800 0.032962
v 0.043093 -0.068442 0.048102
v -0.015622 -0.073140 0.111686
v -0.013623 -0.062243 0.130499
v -0.034367 -0.063489 0.117718
v -0.013623 -0.062243 0.130499
v -0.031744 -0.045165 0.122696
v -0.034367 -0.063489 0.117718
v -0.013623 -0.062243 0.130499
v -0.016790 -0.045166 0.130761
v -0.031744 -0.045165 0.122696
v -0.013623 -0.062243 0.130499
v 0.015940 -0.062227 0.129459
v -0.000025 -0.045166 0.133539
v -0.016790 -0.045166 0.130761
v -0.013623 -0.062243 0.130499
v -0.000025 -0.045166 0.133539
v 0.043138 -0.045164 0.110102
v 0.049945 -0.045162 0.094541
v 0.051384 -0.045125 0.078327
v 0.049945 -0.045162 0.094541
v 0.043138 -0.045164 0.110102
v 0.039392 -0.064076 0.112707
v 0.031951 -0.074837 0.089453
v 0.048740 -0.066640 0.086440
v 0.039392 -0.064076 0.112707
v 0.048740 -0.066640 0.086440
v 0.049945 -0.045162 0.094541
v 0.039392 -0.064076 0.112707
v 0.048740 -0.066640 0.086440
v 0.043093 -0.068442 0.048102
v 0.051384 -0.045125 0.078327
v 0.049945 -0.045162 0.094541
v 0.048740 -0.066640 0.086440
v 0.051384 -0.045125 0.078327
v 0.028870 -0.078049 0.062305
v 0.005896 -0.082422 0.036224
v 0.043093 -0.068442 0.048102
v 0.048740 -0.066640 0.086440
v 0.028870 -0.078049 0.062305
v 0.043093 -0.068442 0.048102
v 0.028870 -0.078049 0.062305
v 0.048740 -0.066640 0.086440
v 0.031951 -0.074837 0.089453
v 0.005896 -0.082422 0.036224
v 0.028870 -0.078049 0.062305
v 0.005494 -0.083483 0.066557
v 0.028870 -0.078049 0.062305
v 0.031951 -0.074837 0.089453
v 0.005494 -0.083483 0.066557
v 0.014966 -0.072958 0.112342
v -0.015622 -0.073140 0.111686
v 0.009164 -0.079127 0.096324
v 0.015940 -0.062227 0.129459
v 0.014966 -0.072958 0.112342
v 0.039392 -0.064076 0.112707
v -0.013623 -0.062243 0.130499
v 0.014966 -0.072958 0.112342
v 0.015940 -0.062227 0.129459
v 0.014966 -0.072958 0.112342
v -0.013623 -0.062243 0.130499
v -0.015622 -0.073140 0.111686
v 0.014966 -0.072958 0.112342
v 0.031951 -0.074837 0.089453
v 0.039392 -0.064076 0.112707
v 0.031951 -0.074837 0.089453
v 0.014966 -0.072958 0.112342
v 0.009164 -0.079127 0.096324
v -0.050109 -0.045161 0.094754
v -0.043255 -0.045165 0.110227
v -0.051654 -0.045128 0.078404
v -0.048802 -0.067058 0.083761
v -0.050109 -0.045161 0.094754
v -0.051654 -0.045128 0.078404
v -0.015622 -0.073140 0.111686
v -0.013959 -0.078519 0.095660
v 0.009164 -0.079127 0.096324
v 0.009164 -0.079127 0.096324
v -0.013959 -0.078519 0.095660
v 0.005494 -0.083483 0.066557
v -0.013959 -0.078519 0.095660
v -0.012455 -0.082450 0.066044
v 0.005494 -0.083483 0.066557
v 0.024231 -0.045203 0.036844
v 0.046904 -0.045162 0.061296
v 0.037563 -0.045203 0.047190
v 0.024231 -0.045203 0.036844
v -0.038420 -0.045172 0.047645
v 0.051384 -0.045125 0.078327
v 0.046904 -0.045162 0.061296
v 0.024231 -0.045203 0.036844
v 0.051384 -0.045125 0.078327
v -0.008515 -0.045245 0.031750
v 0.024231 -0.045203 0.036844
v 0.006116 -0.045286 0.030838
v 0.024231 -0.045203 0.036844
v 0.019553 -0.049800 0.032962
v 0.006116 -0.045286 0.030838
v -0.024842 -0.045223 0.037181
v -0.033496 -0.057037 0.031638
v -0.038420 -0.045172 0.047645
v -0.024842 -0.045223 0.037181
v -0.008515 -0.045245 0.031750
v -0.033496 -0.057037 0.031638
v 0.024231 -0.045203 0.036844
v -0.024842 -0.045223 0.037181
v -0.038420 -0.045172 0.047645
v -0.024842 -0.045223 0.037181
v 0.024231 -0.045203 0.036844
v -0.008515 -0.045245 0.031750
v 0.005896 -0.082422 0.036224
v -0.011515 -0.081601 0.037805
v -0.040665 -0.066400 0.029532
v -0.011515 -0.081601 0.037805
v -0.027378 -0.076885 0.038014
v -0.040665 -0.066400 0.029532
v -0.011515 -0.081601 0.037805
v 0.005896 -0.082422 0.036224
v 0.005494 -0.083483 0.066557
v -0.012455 -0.082450 0.066044
v -0.011515 -0.081601 0.037805
v 0.005494 -0.083483 0.066557
v -0.011515 -0.081601 0.037805
v -0.012455 -0.082450 0.066044
v -0.028964 -0.078099 0.062856
v -0.027378 -0.076885 0.038014
v -0.011515 -0.081601 0.037805
v -0.028964 -0.078099 0.062856
v -0.048802 -0.067058 0.083761
v -0.043952 -0.068552 0.052042
v -0.028964 -0.078099 0.062856
v -0.043952 -0.068552 0.052042
v -0.027378 -0.076885 0.038014
v -0.028964 -0.078099 0.062856
v -0.027378 -0.076885 0.038014
v -0.043952 -0.068552 0.052042
v -0.040665 -0.066400 0.029532
v -0.040665 -0.066400 0.029532
v -0.043952 -0.068552 0.052042
v -0.051654 -0.045128 0.078404
v -0.043952 -0.068552 0.052042
v -0.048802 -0.067058 0.083761
v -0.051654 -0.045128 0.078404
v -0.012455 -0.082450 0.066044
v -0.032198 -0.074773 0.089707
v -0.028964 -0.078099 0.062856
v -0.013959 -0.078519 0.095660
v -0.032198 -0.074773 0.089707
v -0.012455 -0.082450 0.066044
v -0.032198 -0.074773 0.089707
v -0.048802 -0.067058 0.083761
v -0.028964 -0.078099 0.062856
v -0.032198 -0.074773 0.089707
v -0.013959 -0.078519 0.095660
v -0.015622 -0.073140 0.111686
v 0.019553 -0.049800 0.032962
v 0.032129 -0.052968 0.039985
v 0.043093 -0.068442 0.048102
v 0.024231 -0.045203 0.036844
v 0.032129 -0.052968 0.039985
v 0.019553 -0.049800 0.032962
v 0.032129 -0.052968 0.039985
v 0.037563 -0.045203 0.047190
v 0.043093 -0.068442 0.048102
v 0.032129 -0.052968 0.039985
v 0.024231 -0.045203 0.036844
v 0.037563 -0.045203 0.047190
v -0.032198 -0.074773 0.089707
v -0.043929 -0.064827 0.104392
v -0.048802 -0.067058 0.083761
v -0.043255 -0.045165 0.110227
v -0.043929 -0.064827 0.104392
v -0.034367 -0.063489 0.117718
v -0.043929 -0.064827 0.104392
v -0.015622 -0.073140 0.111686
v -0.034367 -0.063489 0.117718
v -0.043929 -0.064827 0.104392
v -0.032198 -0.074773 0.089707
v -0.015622 -0.073140 0.111686
v -0.050109 -0.045161 0.094754
v -0.043929 -0.064827 0.104392
v -0.043255 -0.045165 0.110227
v -0.043929 -0.064827 0.104392
v -0.050109 -0.045161 0.094754
v -0.048802 -0.067058 0.083761
vn -0.0000 1.0000 0.0007
vn 0.5603 -0.1925 0.8056
vn -0.5673 0.5684 -0.5959
vn 0.0660 -0.2152 -0.9743
vn -0.0017 1.0000 0.0016
vn -0.7325 -0.0789 0.6762
vn -0.0002 1.0000 0.0008
vn -0.0005 1.0000 0.0011
vn 0.0017 1.0000 0.0017
vn 0.7354 -0.0526 0.6756
vn 0.2172 -0.9693 0.1151
vn 0.1658 -0.0799 0.9829
vn 0.4750 -0.0859 0.8758
vn 0.0002 1.0000 0.0009
vn 0.0006 1.0000 0.0012
vn -0.0000 1.0000 -0.0010
vn 0.0001 1.0000 -0.0019
vn -0.9658 0.0729 -0.2489
vn -0.7241 0.4904 -0.4850
vn 0.9670 -0.0141 -0.2543
vn 0.8208 0.1740 -0.5440
vn -0.0556 0.4104 -0.9102
vn -0.1089 0.2658 -0.9579
vn -0.1488 0.3240 -0.9343
vn 0.2645 0.3679 -0.8915
vn 0.2682 -0.2064 -0.9410
vn 0.3779 -0.2474 -0.8922
vn -0.2614 -0.8229 0.5044
vn -0.5113 -0.1564 0.8451
vn -0.4723 -0.1010 0.8757
vn 0.0345 -0.2017 0.9788
vn -0.1633 -0.0454 0.9855
vn 0.0064 1.0000 0.0029
vn 0.9090 -0.1253 0.3976
vn 0.4606 -0.8525 0.2471
vn 0.9207 -0.1819 0.3454
vn 0.9759 -0.1711 -0.1357
vn 0.9922 -0.0888 0.0879
vn 0.4006 -0.8935 -0.2031
vn 0.5325 -0.8456 -0.0387
vn 0.4460 -0.8933 0.0550
vn 0.2210 -0.9748 -0.0312
vn 0.2406 -0.9667 0.0870
vn -0.0022 -0.9329 0.3601
vn 0.2901 -0.8182 0.4964
vn 0.0191 -0.8476 0.5303
vn -0.0056 -0.8651 0.5016
vn 0.3206 -0.8946 0.3114
vn 0.2551 -0.9297 0.2656
vn -0.0051 1.0000 0.0025
vn -0.9900 -0.1060 0.0933
vn -0.0340 -0.9485 0.3149
vn -0.0302 -0.9885 0.1484
vn -0.0607 -0.9899 0.1283
vn 0.0046 1.0000 -0.0060
vn 0.0002 1.0000 -0.0020
vn 0.0008 1.0000 -0.0024
vn 0.0016 0.9998 -0.0186
vn 0.2815 0.4355 -0.8550
vn -0.4710 0.6332 -0.6142
vn -0.2608 0.5600 -0.7864
vn -0.0004 1.0000 -0.0055
vn -0.1000 -0.6167 -0.7808
vn -0.2381 -0.7751 -0.5852
vn -0.0503 -0.9981 -0.0356
vn -0.0566 -0.9979 -0.0319
vn -0.2479 -0.9681 -0.0374
vn -0.2851 -0.9563 -0.0649
vn -0.5168 -0.8552 -0.0387
vn -0.4973 -0.8644 -0.0740
vn -0.5473 -0.8218 -0.1585
vn -0.9770 -0.1451 -0.1565
vn -0.9766 -0.1616 -0.1417
vn -0.2694 -0.9591 0.0863
vn -0.2360 -0.9648 0.1161
vn -0.4378 -0.8972 0.0584
vn -0.2798 -0.9185 0.2793
vn 0.4563 -0.1378 -0.8791
vn 0.5142 0.1841 -0.8377
vn 0.7106 0.1421 -0.6891
vn 0.5866 0.2908 -0.7559
vn -0.4717 -0.8578 0.2042
vn -0.7966 -0.1467 0.5864
vn -0.3439 -0.8773 0.3349
vn -0.3424 -0.8820 0.3238
vn -0.9107 -0.0885 0.4034
vn -0.9529 -0.1796 0.2445
s 1
usemtl material_0
f 1//1 2//1 3//1
f 4//2 5//2 6//2
f 7//3 8//3 9//3
f 10//4 11//4 12//4
f 13//5 14//5 15//5
f 16//6 17//6 18//6
f 19//7 20//7 21//7
f 22//8 23//8 24//8
f 25//9 26//9 27//9
f 28//10 29//10 30//10
f 31//11 32//11 33//11
f 34//12 35//12 36//12
f 37//13 38//13 39//13
f 40//14 41//14 42//14
f 43//15 44//15 45//15
f 46//16 47//16 48//16
f 49//17 50//17 51//17
f 52//18 53//18 54//18
f 55//19 56//19 57//19
f 58//20 59//20 60//20
f 61//21 62//21 63//21
f 64//22 65//22 66//22
f 67//23 68//23 69//23
f 70//24 71//24 72//24
f 73//25 74//25 75//25
f 76//26 77//26 78//26
f 79//27 80//27 81//27
f 82//28 83//28 84//28
f 85//29 86//29 87//29
f 88//30 89//30 90//30
f 91//31 92//31 93//31
f 94//32 95//32 96//32
f 97//33 98//33 99//33
f 100//34 101//34 102//34
f 103//35 104//35 105//35
f 106//36 107//36 108//36
f 109//37 110//37 111//37
f 112//38 113//38 114//38
f 115//39 116//39 117//39
f 118//40 119//40 120//40
f 121//41 122//41 123//41
f 124//42 125//42 126//42
f 127//43 128//43 129//43
f 130//44 131//44 132//44
f 133//45 134//45 135//45
f 136//46 137//46 138//46
f 139//47 140//47 141//47
f 142//48 143//48 144//48
f 145//49 146//49 147//49
f 148//50 149//50 150//50
f 151//51 152//51 153//51
f 154//52 155//52 156//52
f 157//53 158//53 159//53
f 160//54 161//54 162//54
f 163//55 164//55 165//55
f 166//56 167//56 168//56
f 169//57 170//57 171//57
f 172//58 173//58 174//58
f 175//59 176//59 177//59
f 178//60 179//60 180//60
f 181//61 182//61 183//61
f 184//62 185//62 186//62
f 187//62 188//62 189//62
f 190//63 191//63 192//63
f 193//64 194//64 195//64
f 196//65 197//65 198//65
f 199//66 200//66 201//66
f 202//67 203//67 204//67
f 205//68 206//68 207//68
f 208//69 209//69 210//69
f 211//70 212//70 213//70
f 214//71 215//71 216//71
f 217//72 218//72 219//72
f 220//73 221//73 222//73
f 223//74 224//74 225//74
f 226//75 227//75 228//75
f 229//76 230//76 231//76
f 232//77 233//77 234//77
f 235//78 236//78 237//78
f 238//79 239//79 240//79
f 241//80 242//80 243//80
f 244//81 245//81 246//81
f 247//82 248//82 249//82
f 250//83 251//83 252//83
f 253//84 254//84 255//84
f 256//85 257//85 258//85
f 259//86 260//86 261//86
f 262//87 263//87 264//87
