# Blender 4.5.10 LTS
# www.blender.org
mtllib iiwa_robot_base_coll_10.mtl
o node
v -0.056108 -0.081790 -0.067072
v -0.072753 -0.080189 -0.078665
v -0.047499 -0.078216 -0.076671
v -0.068710 -0.053362 -0.076665
v -0.059398 -0.065583 -0.066849
v -0.047499 -0.078216 -0.076671
v -0.059398 -0.065583 -0.066849
v -0.056108 -0.081790 -0.067072
v -0.047499 -0.078216 -0.076671
v -0.049502 -0.076008 -0.078724
v -0.068710 -0.053362 -0.076665
v -0.047499 -0.078216 -0.076671
v -0.072753 -0.080189 -0.078665
v -0.073921 -0.078582 -0.065663
v -0.076398 -0.063880 -0.066312
v -0.073921 -0.078582 -0.065663
v -0.072753 -0.080189 -0.078665
v -0.056108 -0.081790 -0.067072
v -0.072753 -0.080189 -0.078665
v -0.063720 -0.078840 -0.078662
v -0.047499 -0.078216 -0.076671
v -0.063720 -0.078840 -0.078662
v -0.049502 -0.076008 -0.078724
v -0.047499 -0.078216 -0.076671
v -0.049502 -0.076008 -0.078724
v -0.063720 -0.078840 -0.078662
v -0.072753 -0.080189 -0.078665
v -0.049502 -0.076008 -0.078724
v -0.070380 -0.057711 -0.078691
v -0.068710 -0.053362 -0.076665
v -0.070380 -0.057711 -0.078691
v -0.049502 -0.076008 -0.078724
v -0.072753 -0.080189 -0.078665
v -0.068710 -0.053362 -0.076665
v -0.070380 -0.057711 -0.078691
v -0.076398 -0.063880 -0.066312
v -0.070380 -0.057711 -0.078691
v -0.072753 -0.080189 -0.078665
v -0.076398 -0.063880 -0.066312
v -0.059398 -0.065583 -0.066849
v -0.062440 -0.078593 -0.065206
v -0.056108 -0.081790 -0.067072
v -0.062440 -0.078593 -0.065206
v -0.073921 -0.078582 -0.065663
v -0.056108 -0.081790 -0.067072
v -0.067075 -0.061906 -0.065294
v -0.062440 -0.078593 -0.065206
v -0.059398 -0.065583 -0.066849
v -0.067075 -0.061906 -0.065294
v -0.068710 -0.053362 -0.076665
v -0.076398 -0.063880 -0.066312
v -0.067075 -0.061906 -0.065294
v -0.059398 -0.065583 -0.066849
v -0.068710 -0.053362 -0.076665
v -0.073921 -0.078582 -0.065663
v -0.067075 -0.061906 -0.065294
v -0.076398 -0.063880 -0.066312
v -0.062440 -0.078593 -0.065206
v -0.067075 -0.061906 -0.065294
v -0.073921 -0.078582 -0.065663
vn 0.0962 -0.9579 -0.2704
vn 0.7578 0.6467 0.0863
vn 0.7121 0.1351 0.6890
vn 0.7599 0.6486 -0.0440
vn -0.9834 -0.1687 -0.0675
vn -0.1681 -0.9801 0.1060
vn 0.1102 -0.7364 -0.6676
vn 0.1193 -0.6158 -0.7788
vn 0.0147 -0.0957 -0.9953
vn 0.2761 0.3167 -0.9075
vn -0.0024 -0.0009 -1.0000
vn -0.8762 0.4340 -0.2097
vn -0.9131 0.0960 -0.3962
vn 0.3050 0.0488 0.9511
vn -0.0337 -0.5528 0.8326
vn 0.2296 0.0689 0.9708
vn -0.2276 0.7625 0.6057
vn 0.4551 0.7421 0.4922
vn -0.1138 0.0247 0.9932
vn -0.0398 -0.0058 0.9992
s 1
usemtl material_0
f 1//1 2//1 3//1
f 4//2 5//2 6//2
f 7//3 8//3 9//3
f 10//4 11//4 12//4
f 13//5 14//5 15//5
f 16//6 17//6 18//6
f 19//7 20//7 21//7
f 22//8 23//8 24//8
f 25//9 26//9 27//9
f 28//10 29//10 30//10
f 31//11 32//11 33//11
f 34//12 35//12 36//12
f 37//13 38//13 39//13
f 40//14 41//14 42//14
f 43//15 44//15 45//15
f 46//16 47//16 48//16
f 49//17 50//17 51//17
f 52//18 53//18 54//18
f 55//19 56//19 57//19
f 58//20 59//20 60//20
