# Blender 4.5.10 LTS
# www.blender.org
mtllib iiwa_link6_resp_coll_3.mtl
o node
v 0.037512 -0.035271 -0.025432
v 0.043093 -0.068442 0.048102
v 0.043463 -0.045604 -0.033186
v -0.044633 -0.024767 -0.037898
v 0.007677 -0.021074 -0.015756
v -0.047671 -0.035284 -0.066096
v 0.026708 -0.077014 0.037890
v 0.028869 -0.078049 0.062305
v 0.005896 -0.082422 0.036224
v 0.028869 -0.078049 0.062305
v 0.026708 -0.077014 0.037890
v 0.043093 -0.068442 0.048102
v 0.036810 -0.044179 -0.064330
v 0.037512 -0.035271 -0.025432
v 0.043463 -0.045604 -0.033186
v 0.043093 -0.068442 0.048102
v 0.036810 -0.044179 -0.064330
v 0.043463 -0.045604 -0.033186
v 0.007677 -0.021074 -0.015756
v 0.036810 -0.044179 -0.064330
v -0.047671 -0.035284 -0.066096
v 0.026107 -0.028544 -0.018240
v 0.036810 -0.044179 -0.064330
v 0.007677 -0.021074 -0.015756
v 0.036810 -0.044179 -0.064330
v 0.026107 -0.028544 -0.018240
v 0.037512 -0.035271 -0.025432
v 0.010088 -0.075799 0.001643
v 0.026708 -0.077014 0.037890
v 0.005896 -0.082422 0.036224
v -0.000315 -0.054707 -0.069114
v -0.025960 -0.049824 -0.067509
v -0.047671 -0.035284 -0.066096
v -0.027378 -0.076885 0.038014
v 0.028869 -0.078049 0.062305
v -0.033496 -0.057037 0.031638
v -0.047424 -0.031885 -0.045052
v -0.044633 -0.024767 -0.037898
v -0.047671 -0.035284 -0.066096
v -0.044633 -0.024767 -0.037898
v -0.013974 -0.022533 -0.016643
v 0.007677 -0.021074 -0.015756
v 0.032128 -0.052968 0.039985
v 0.028869 -0.078049 0.062305
v 0.043093 -0.068442 0.048102
v 0.032128 -0.052968 0.039985
v 0.026107 -0.028544 -0.018240
v 0.007677 -0.021074 -0.015756
v 0.037512 -0.035271 -0.025432
v 0.032128 -0.052968 0.039985
v 0.043093 -0.068442 0.048102
v 0.026107 -0.028544 -0.018240
v 0.032128 -0.052968 0.039985
v 0.037512 -0.035271 -0.025432
v -0.000217 -0.076492 0.000832
v 0.010088 -0.075799 0.001643
v 0.005896 -0.082422 0.036224
v 0.010088 -0.075799 0.001643
v -0.000217 -0.076492 0.000832
v -0.000315 -0.054707 -0.069114
v 0.012828 -0.053677 -0.068146
v 0.010088 -0.075799 0.001643
v -0.000315 -0.054707 -0.069114
v 0.010088 -0.075799 0.001643
v 0.025287 -0.071482 0.004772
v 0.026708 -0.077014 0.037890
v 0.026708 -0.077014 0.037890
v 0.025287 -0.071482 0.004772
v 0.043093 -0.068442 0.048102
v 0.025287 -0.071482 0.004772
v 0.036810 -0.044179 -0.064330
v 0.043093 -0.068442 0.048102
v -0.025960 -0.049824 -0.067509
v -0.037586 -0.044108 -0.064154
v -0.047671 -0.035284 -0.066096
v -0.037586 -0.044108 -0.064154
v -0.025960 -0.049824 -0.067509
v -0.025921 -0.071394 0.004862
v -0.027378 -0.076885 0.038014
v -0.040665 -0.066400 0.029532
v -0.025921 -0.071394 0.004862
v -0.037586 -0.044108 -0.064154
v -0.040665 -0.066400 0.029532
v -0.047671 -0.035284 -0.066096
v -0.040665 -0.066400 0.029532
v -0.037586 -0.044108 -0.064154
v -0.025921 -0.071394 0.004862
v -0.040665 -0.066400 0.029532
v -0.047424 -0.031885 -0.045052
v -0.047671 -0.035284 -0.066096
v -0.040665 -0.066400 0.029532
v -0.027378 -0.076885 0.038014
v -0.033496 -0.057037 0.031638
v -0.044633 -0.024767 -0.037898
v -0.040665 -0.066400 0.029532
v -0.033496 -0.057037 0.031638
v -0.047424 -0.031885 -0.045052
v -0.040665 -0.066400 0.029532
v -0.044633 -0.024767 -0.037898
v 0.028869 -0.078049 0.062305
v -0.021518 -0.051298 0.032267
v -0.033496 -0.057037 0.031638
v 0.032128 -0.052968 0.039985
v -0.021518 -0.051298 0.032267
v 0.028869 -0.078049 0.062305
v -0.021518 -0.051298 0.032267
v -0.044633 -0.024767 -0.037898
v -0.033496 -0.057037 0.031638
v -0.021518 -0.051298 0.032267
v -0.013974 -0.022533 -0.016643
v -0.044633 -0.024767 -0.037898
v -0.013974 -0.022533 -0.016643
v -0.021518 -0.051298 0.032267
v 0.007677 -0.021074 -0.015756
v -0.021518 -0.051298 0.032267
v 0.032128 -0.052968 0.039985
v 0.007677 -0.021074 -0.015756
v -0.011515 -0.081601 0.037805
v -0.000217 -0.076492 0.000832
v 0.005896 -0.082422 0.036224
v 0.028869 -0.078049 0.062305
v -0.011515 -0.081601 0.037805
v 0.005896 -0.082422 0.036224
v -0.027378 -0.076885 0.038014
v -0.011515 -0.081601 0.037805
v 0.028869 -0.078049 0.062305
v -0.000217 -0.076492 0.000832
v -0.010519 -0.075799 0.001670
v -0.000315 -0.054707 -0.069114
v -0.025960 -0.049824 -0.067509
v -0.010519 -0.075799 0.001670
v -0.025921 -0.071394 0.004862
v -0.011515 -0.081601 0.037805
v -0.010519 -0.075799 0.001670
v -0.000217 -0.076492 0.000832
v -0.010519 -0.075799 0.001670
v -0.027378 -0.076885 0.038014
v -0.025921 -0.071394 0.004862
v -0.010519 -0.075799 0.001670
v -0.011515 -0.081601 0.037805
v -0.027378 -0.076885 0.038014
v 0.025287 -0.071482 0.004772
v 0.025335 -0.049826 -0.067569
v 0.036810 -0.044179 -0.064330
v 0.025335 -0.049826 -0.067569
v 0.012828 -0.053677 -0.068146
v -0.000315 -0.054707 -0.069114
v 0.012828 -0.053677 -0.068146
v 0.025335 -0.049826 -0.067569
v 0.010088 -0.075799 0.001643
v 0.025335 -0.049826 -0.067569
v 0.025287 -0.071482 0.004772
v 0.010088 -0.075799 0.001643
v 0.025335 -0.049826 -0.067569
v -0.000315 -0.054707 -0.069114
v -0.047671 -0.035284 -0.066096
v 0.036810 -0.044179 -0.064330
v 0.025335 -0.049826 -0.067569
v -0.047671 -0.035284 -0.066096
v -0.013455 -0.053677 -0.068111
v -0.025960 -0.049824 -0.067509
v -0.000315 -0.054707 -0.069114
v -0.010519 -0.075799 0.001670
v -0.013455 -0.053677 -0.068111
v -0.000315 -0.054707 -0.069114
v -0.013455 -0.053677 -0.068111
v -0.010519 -0.075799 0.001670
v -0.025960 -0.049824 -0.067509
vn 0.8971 0.4242 0.1233
vn 0.0851 0.9305 -0.3562
vn 0.2557 -0.9647 -0.0635
vn 0.5011 -0.8616 -0.0809
vn 0.8060 0.5737 -0.1459
vn 0.7205 -0.6684 -0.1845
vn 0.1048 0.9210 -0.3752
vn 0.3386 0.9122 -0.2308
vn 0.3940 0.8944 -0.2119
vn 0.2599 -0.9537 -0.1511
vn -0.0615 0.0051 -0.9981
vn -0.3876 0.1715 0.9057
vn -0.9091 0.4127 -0.0560
vn -0.0669 0.9977 -0.0084
vn 0.3175 0.6070 0.7285
vn 0.3926 0.8619 0.3209
vn 0.7314 0.6407 0.2335
vn 0.6052 0.7545 0.2539
vn 0.0800 -0.9808 -0.1781
vn 0.0873 -0.9511 -0.2963
vn 0.0964 -0.9499 -0.2973
vn 0.3014 -0.9383 -0.1697
vn 0.5346 -0.8295 -0.1615
vn 0.6147 -0.7632 -0.1991
vn -0.4915 -0.6812 -0.5425
vn -0.4844 -0.8385 -0.2496
vn -0.5464 -0.8220 -0.1602
vn -0.6230 -0.7561 -0.2004
vn -0.6020 -0.7721 -0.2035
vn -0.9916 -0.1253 0.0319
vn -0.4485 0.1451 0.8819
vn -0.7774 0.5137 0.3629
vn -0.9637 0.1980 0.1790
vn -0.2636 0.4572 0.8494
vn -0.0855 0.6685 0.7388
vn -0.4071 0.8019 0.4373
vn -0.3593 0.8276 0.4313
vn -0.0786 0.8646 0.4964
vn -0.0469 0.8580 0.5115
vn -0.0606 -0.9861 -0.1548
vn -0.0290 -0.9813 0.1901
vn -0.2384 -0.8249 0.5126
vn -0.0881 -0.9511 -0.2961
vn -0.3162 -0.9092 -0.2708
vn -0.0792 -0.9839 -0.1602
vn -0.3032 -0.9379 -0.1687
vn -0.2832 -0.9457 -0.1596
vn 0.4835 -0.8387 -0.2507
vn 0.0823 -0.1190 -0.9895
vn 0.2943 -0.9143 -0.2783
vn 0.3143 -0.9095 -0.2721
vn 0.0205 0.2022 -0.9791
vn 0.0612 0.4000 -0.9145
vn -0.0850 -0.1215 -0.9889
vn -0.0972 -0.9499 -0.2971
vn -0.2950 -0.9143 -0.2774
s 1
usemtl material_0
f 1//1 2//1 3//1
f 4//2 5//2 6//2
f 7//3 8//3 9//3
f 10//4 11//4 12//4
f 13//5 14//5 15//5
f 16//6 17//6 18//6
f 19//7 20//7 21//7
f 22//8 23//8 24//8
f 25//9 26//9 27//9
f 28//10 29//10 30//10
f 31//11 32//11 33//11
f 34//12 35//12 36//12
f 37//13 38//13 39//13
f 40//14 41//14 42//14
f 43//15 44//15 45//15
f 46//16 47//16 48//16
f 49//17 50//17 51//17
f 52//18 53//18 54//18
f 55//19 56//19 57//19
f 58//20 59//20 60//20
f 61//21 62//21 63//21
f 64//22 65//22 66//22
f 67//23 68//23 69//23
f 70//24 71//24 72//24
f 73//25 74//25 75//25
f 76//26 77//26 78//26
f 79//27 80//27 81//27
f 82//28 83//28 84//28
f 85//29 86//29 87//29
f 88//30 89//30 90//30
f 91//31 92//31 93//31
f 94//32 95//32 96//32
f 97//33 98//33 99//33
f 100//34 101//34 102//34
f 103//35 104//35 105//35
f 106//36 107//36 108//36
f 109//37 110//37 111//37
f 112//38 113//38 114//38
f 115//39 116//39 117//39
f 118//40 119//40 120//40
f 121//41 122//41 123//41
f 124//42 125//42 126//42
f 127//43 128//43 129//43
f 130//44 131//44 132//44
f 133//45 134//45 135//45
f 136//46 137//46 138//46
f 139//47 140//47 141//47
f 142//48 143//48 144//48
f 145//49 146//49 147//49
f 148//50 149//50 150//50
f 151//51 152//51 153//51
f 154//52 155//52 156//52
f 157//53 158//53 159//53
f 160//54 161//54 162//54
f 163//55 164//55 165//55
f 166//56 167//56 168//56
