# Blender 4.5.10 LTS
# www.blender.org
mtllib iiwa_robot_base_coll_17.mtl
o node
v -0.123736 0.061674 -0.076662
v -0.091333 0.068957 -0.076660
v -0.091894 -0.072905 -0.078082
v -0.128750 -0.063728 -0.073003
v -0.128739 -0.050996 -0.006112
v -0.128750 0.063836 -0.073003
v -0.128739 -0.062055 -0.074663
v -0.128750 -0.063728 -0.073003
v -0.128750 0.063836 -0.073003
v -0.123736 0.061674 -0.076662
v -0.123827 0.064197 -0.075056
v -0.091333 0.068957 -0.076660
v -0.068710 -0.053362 -0.076665
v -0.067075 -0.061906 -0.065294
v -0.091894 -0.072905 -0.078082
v -0.091333 0.068957 -0.076660
v -0.071763 0.054803 -0.076664
v -0.091894 -0.072905 -0.078082
v -0.071763 0.054803 -0.076664
v -0.068710 -0.053362 -0.076665
v -0.091894 -0.072905 -0.078082
v -0.071763 0.054803 -0.076664
v -0.077901 -0.020541 0.072554
v -0.060122 -0.055653 0.064966
v -0.067075 -0.061906 -0.065294
v -0.071763 0.054803 -0.076664
v -0.060122 -0.055653 0.064966
v -0.071763 0.054803 -0.076664
v -0.067075 -0.061906 -0.065294
v -0.068710 -0.053362 -0.076665
v -0.107516 0.053079 -0.016468
v -0.071763 0.054803 -0.076664
v -0.091333 0.068957 -0.076660
v -0.077901 -0.020541 0.072554
v -0.071763 0.054803 -0.076664
v -0.107516 0.053079 -0.016468
v -0.128739 0.062163 -0.074663
v -0.128739 -0.062055 -0.074663
v -0.128750 0.063836 -0.073003
v -0.128739 -0.062055 -0.074663
v -0.128739 0.062163 -0.074663
v -0.123736 0.061674 -0.076662
v -0.128739 0.062163 -0.074663
v -0.123827 0.064197 -0.075056
v -0.123736 0.061674 -0.076662
v -0.123740 -0.062501 -0.076660
v -0.123736 0.061674 -0.076662
v -0.091894 -0.072905 -0.078082
v -0.123740 -0.062501 -0.076660
v -0.128739 -0.062055 -0.074663
v -0.123736 0.061674 -0.076662
v -0.079929 -0.045957 0.064105
v -0.128739 -0.050996 -0.006112
v -0.060122 -0.055653 0.064966
v -0.079929 -0.045957 0.064105
v -0.077901 -0.020541 0.072554
v -0.128739 -0.050996 -0.006112
v -0.077901 -0.020541 0.072554
v -0.128739 0.051104 -0.006112
v -0.128739 -0.050996 -0.006112
v -0.128739 -0.050996 -0.006112
v -0.128739 0.051104 -0.006112
v -0.128750 0.063836 -0.073003
v -0.128739 0.051104 -0.006112
v -0.091333 0.068957 -0.076660
v -0.128750 0.063836 -0.073003
v -0.067075 -0.061906 -0.065294
v -0.086205 -0.074998 -0.067485
v -0.091894 -0.072905 -0.078082
v -0.128739 -0.050996 -0.006112
v -0.086205 -0.074998 -0.067485
v -0.060122 -0.055653 0.064966
v -0.128750 -0.063728 -0.073003
v -0.086205 -0.074998 -0.067485
v -0.128739 -0.050996 -0.006112
v -0.128739 0.062163 -0.074663
v -0.128750 0.063836 -0.073003
v -0.123827 0.064197 -0.075056
v -0.123827 0.064197 -0.075056
v -0.128750 0.063836 -0.073003
v -0.091333 0.068957 -0.076660
v -0.128739 -0.063858 -0.074651
v -0.128750 -0.063728 -0.073003
v -0.128739 -0.062055 -0.074663
v -0.123740 -0.062501 -0.076660
v -0.128739 -0.063858 -0.074651
v -0.128739 -0.062055 -0.074663
v -0.128739 -0.063858 -0.074651
v -0.123740 -0.062501 -0.076660
v -0.091894 -0.072905 -0.078082
v -0.086205 -0.074998 -0.067485
v -0.128739 -0.063858 -0.074651
v -0.091894 -0.072905 -0.078082
v -0.128739 -0.063858 -0.074651
v -0.086205 -0.074998 -0.067485
v -0.128750 -0.063728 -0.073003
v -0.077901 -0.020541 0.072554
v -0.072427 -0.040135 0.068909
v -0.060122 -0.055653 0.064966
v -0.072427 -0.040135 0.068909
v -0.079929 -0.045957 0.064105
v -0.060122 -0.055653 0.064966
v -0.079929 -0.045957 0.064105
v -0.072427 -0.040135 0.068909
v -0.077901 -0.020541 0.072554
v -0.123770 0.050347 -0.000329
v -0.077901 -0.020541 0.072554
v -0.107516 0.053079 -0.016468
v -0.123770 0.050347 -0.000329
v -0.128739 0.051104 -0.006112
v -0.077901 -0.020541 0.072554
v -0.123770 0.050347 -0.000329
v -0.107516 0.053079 -0.016468
v -0.091333 0.068957 -0.076660
v -0.128739 0.051104 -0.006112
v -0.123770 0.050347 -0.000329
v -0.091333 0.068957 -0.076660
v -0.064974 -0.060170 0.025402
v -0.067075 -0.061906 -0.065294
v -0.060122 -0.055653 0.064966
v -0.086205 -0.074998 -0.067485
v -0.064974 -0.060170 0.025402
v -0.060122 -0.055653 0.064966
v -0.064974 -0.060170 0.025402
v -0.086205 -0.074998 -0.067485
v -0.067075 -0.061906 -0.065294
vn -0.0022 0.0100 -0.9999
vn -1.0000 -0.0000 0.0002
vn -1.0000 -0.0000 -0.0062
vn -0.1191 0.5302 -0.8395
vn 0.5584 -0.6227 -0.5482
vn 0.0070 0.0100 -0.9999
vn 0.0596 0.0017 -0.9982
vn 0.8864 0.3975 0.2372
vn 0.9979 0.0347 -0.0549
vn 0.9922 0.0280 -0.1216
vn 0.5494 0.7596 0.3481
vn 0.6041 0.7011 0.3789
vn -0.3712 -0.0000 -0.9286
vn -0.2761 0.5091 -0.8152
vn -0.0446 -0.0000 -0.9990
vn -0.3711 -0.0000 -0.9286
vn -0.4235 -0.8337 0.3543
vn -0.8104 -0.1256 0.5723
vn -0.8399 -0.0000 0.5428
vn -0.1154 0.9758 0.1858
vn 0.5423 -0.7198 -0.4333
vn -0.2606 -0.9466 0.1896
vn -0.2736 -0.9449 0.1799
vn -0.3287 0.6641 -0.6715
vn -0.1515 0.9694 -0.1932
vn -1.0000 -0.0001 -0.0063
vn -0.3716 -0.0063 -0.9284
vn -0.2017 -0.5025 -0.8408
vn -0.2433 -0.9680 -0.0606
vn -0.2644 -0.9616 0.0743
vn 0.1301 -0.1461 0.9807
vn -0.2408 -0.4140 0.8778
vn -0.3637 -0.2676 0.8923
vn 0.3786 0.7712 0.5118
vn -0.7301 0.1995 0.6535
vn 0.1217 0.9512 0.2836
vn -0.0857 0.9757 0.2015
vn 0.6909 -0.7229 -0.0022
vn 0.3937 -0.9175 0.0565
vn 0.5646 -0.8254 0.0027
s 1
usemtl material_0
f 1//1 2//1 3//1
f 4//2 5//2 6//2
f 7//3 8//3 9//3
f 10//4 11//4 12//4
f 13//5 14//5 15//5
f 16//6 17//6 18//6
f 19//7 20//7 21//7
f 22//8 23//8 24//8
f 25//9 26//9 27//9
f 28//10 29//10 30//10
f 31//11 32//11 33//11
f 34//12 35//12 36//12
f 37//3 38//3 39//3
f 40//13 41//13 42//13
f 43//14 44//14 45//14
f 46//15 47//15 48//15
f 49//16 50//16 51//16
f 52//17 53//17 54//17
f 55//18 56//18 57//18
f 58//19 59//19 60//19
f 61//2 62//2 63//2
f 64//20 65//20 66//20
f 67//21 68//21 69//21
f 70//22 71//22 72//22
f 73//23 74//23 75//23
f 76//24 77//24 78//24
f 79//25 80//25 81//25
f 82//26 83//26 84//26
f 85//27 86//27 87//27
f 88//28 89//28 90//28
f 91//29 92//29 93//29
f 94//30 95//30 96//30
f 97//31 98//31 99//31
f 100//32 101//32 102//32
f 103//33 104//33 105//33
f 106//34 107//34 108//34
f 109//35 110//35 111//35
f 112//36 113//36 114//36
f 115//37 116//37 117//37
f 118//38 119//38 120//38
f 121//39 122//39 123//39
f 124//40 125//40 126//40
