# Blender 4.5.10 LTS
# www.blender.org
mtllib iiwa_robot_base_coll_7.mtl
o node
v 0.085361 0.054822 -0.076669
v 0.083283 0.056839 -0.078729
v 0.104819 0.071625 -0.077794
v 0.083283 0.056839 -0.078729
v 0.073102 0.066409 -0.067314
v 0.064843 0.078954 -0.078683
v 0.073102 0.066409 -0.067314
v 0.083283 0.056839 -0.078729
v 0.085361 0.054822 -0.076669
v 0.081908 0.093002 -0.066874
v 0.083950 0.081999 -0.078663
v 0.064843 0.078954 -0.078683
v 0.083950 0.081999 -0.078663
v 0.081908 0.093002 -0.066874
v 0.104819 0.071625 -0.077794
v 0.083950 0.081999 -0.078663
v 0.083283 0.056839 -0.078729
v 0.064843 0.078954 -0.078683
v 0.070963 0.082549 -0.066981
v 0.081908 0.093002 -0.066874
v 0.064843 0.078954 -0.078683
v 0.073102 0.066409 -0.067314
v 0.070963 0.082549 -0.066981
v 0.064843 0.078954 -0.078683
v 0.081908 0.093002 -0.066874
v 0.070963 0.082549 -0.066981
v 0.081806 0.083240 -0.065135
v 0.089974 0.063920 -0.067002
v 0.085361 0.054822 -0.076669
v 0.104819 0.071625 -0.077794
v 0.083283 0.056839 -0.078729
v 0.088785 0.073872 -0.078659
v 0.104819 0.071625 -0.077794
v 0.088785 0.073872 -0.078659
v 0.083950 0.081999 -0.078663
v 0.104819 0.071625 -0.077794
v 0.083950 0.081999 -0.078663
v 0.088785 0.073872 -0.078659
v 0.083283 0.056839 -0.078729
v 0.070963 0.082549 -0.066981
v 0.076063 0.074035 -0.065244
v 0.081806 0.083240 -0.065135
v 0.076063 0.074035 -0.065244
v 0.070963 0.082549 -0.066981
v 0.073102 0.066409 -0.067314
v 0.081598 0.062002 -0.065285
v 0.073102 0.066409 -0.067314
v 0.085361 0.054822 -0.076669
v 0.089974 0.063920 -0.067002
v 0.081598 0.062002 -0.065285
v 0.085361 0.054822 -0.076669
v 0.081598 0.062002 -0.065285
v 0.076063 0.074035 -0.065244
v 0.073102 0.066409 -0.067314
v 0.076063 0.074035 -0.065244
v 0.081598 0.062002 -0.065285
v 0.081806 0.083240 -0.065135
v 0.088783 0.078975 -0.065663
v 0.081908 0.093002 -0.066874
v 0.081806 0.083240 -0.065135
v 0.081598 0.062002 -0.065285
v 0.088783 0.078975 -0.065663
v 0.081806 0.083240 -0.065135
v 0.088783 0.078975 -0.065663
v 0.081598 0.062002 -0.065285
v 0.089974 0.063920 -0.067002
v 0.081908 0.093002 -0.066874
v 0.088783 0.078975 -0.065663
v 0.104819 0.071625 -0.077794
v 0.088783 0.078975 -0.065663
v 0.089974 0.063920 -0.067002
v 0.104819 0.071625 -0.077794
vn 0.3540 -0.4643 -0.8118
vn -0.7599 -0.6333 -0.1467
vn -0.6911 -0.7227 -0.0105
vn -0.1134 0.7164 -0.6884
vn 0.3771 0.7087 -0.5962
vn 0.0006 0.0026 -1.0000
vn -0.6848 0.7155 0.1383
vn -0.8630 -0.1245 0.4896
vn -0.1760 0.1744 0.9688
vn 0.6219 -0.6962 0.3584
vn 0.0520 -0.0127 -0.9986
vn 0.0586 0.0343 -0.9977
vn 0.0051 0.0025 -1.0000
vn -0.1729 0.0964 0.9802
vn -0.4326 -0.0759 0.8984
vn -0.4957 -0.7991 0.3402
vn 0.2929 -0.7621 0.5775
vn -0.2983 -0.1404 0.9441
vn -0.0077 -0.0070 0.9999
vn 0.1777 0.1708 0.9692
vn 0.0707 -0.0077 0.9975
vn 0.2156 -0.0696 0.9740
vn 0.6625 0.3805 0.6452
vn 0.5961 -0.0242 0.8026
s 1
usemtl material_0
f 1//1 2//1 3//1
f 4//2 5//2 6//2
f 7//3 8//3 9//3
f 10//4 11//4 12//4
f 13//5 14//5 15//5
f 16//6 17//6 18//6
f 19//7 20//7 21//7
f 22//8 23//8 24//8
f 25//9 26//9 27//9
f 28//10 29//10 30//10
f 31//11 32//11 33//11
f 34//12 35//12 36//12
f 37//13 38//13 39//13
f 40//14 41//14 42//14
f 43//15 44//15 45//15
f 46//16 47//16 48//16
f 49//17 50//17 51//17
f 52//18 53//18 54//18
f 55//19 56//19 57//19
f 58//20 59//20 60//20
f 61//21 62//21 63//21
f 64//22 65//22 66//22
f 67//23 68//23 69//23
f 70//24 71//24 72//24
