# Blender 4.5.10 LTS
# www.blender.org
mtllib iiwa_robot_base_coll_5.mtl
o node
v 0.100212 0.074298 -0.066561
v 0.112630 0.061873 -0.076347
v 0.081598 0.062002 -0.065285
v 0.081877 0.060157 0.010674
v 0.100212 0.074298 -0.066561
v 0.081598 0.062002 -0.065285
v 0.100212 0.074298 -0.066561
v 0.081877 0.060157 0.010674
v 0.112630 0.061873 -0.076347
v 0.112630 0.061873 -0.076347
v 0.092068 0.050898 -0.000881
v 0.081598 0.062002 -0.065285
v 0.092068 0.050898 -0.000881
v 0.081877 0.060157 0.010674
v 0.081598 0.062002 -0.065285
v 0.081877 0.060157 0.010674
v 0.092068 0.050898 -0.000881
v 0.112630 0.061873 -0.076347
vn -0.3094 0.3780 -0.8726
vn -0.5499 0.8349 0.0223
vn 0.7811 0.5546 0.2870
vn -0.0611 -0.9852 -0.1599
vn -0.6818 -0.7314 -0.0153
vn 0.8036 0.5174 0.2942
s 1
usemtl material_0
f 1//1 2//1 3//1
f 4//2 5//2 6//2
f 7//3 8//3 9//3
f 10//4 11//4 12//4
f 13//5 14//5 15//5
f 16//6 17//6 18//6
