# Blender 4.5.10 LTS
# www.blender.org
mtllib iiwa_link7_resp_coll_1.mtl
o node
v 0.062986 0.004285 0.011462
v 0.055747 0.027389 0.007229
v 0.049979 0.009883 0.083730
v -0.009775 0.048211 0.083721
v -0.047528 0.018924 0.083720
v 0.049979 0.009883 0.083730
v 0.009527 0.047953 0.083720
v -0.009775 0.048211 0.083721
v 0.049979 0.009883 0.083730
v 0.062986 0.004285 0.011462
v 0.064586 -0.014732 0.013665
v 0.065979 -0.006430 -0.002100
v 0.064586 -0.014732 0.013665
v 0.062986 0.004285 0.011462
v 0.049979 0.009883 0.083730
v 0.045843 -0.063862 0.026891
v 0.022460 -0.049891 0.083719
v 0.017725 -0.063752 0.050699
v 0.035660 -0.040425 0.083711
v 0.022460 -0.049891 0.083719
v 0.045843 -0.063862 0.026891
v 0.060460 -0.034315 0.015141
v 0.045610 -0.027446 0.083715
v 0.045843 -0.063862 0.026891
v 0.045610 -0.027446 0.083715
v 0.035660 -0.040425 0.083711
v 0.045843 -0.063862 0.026891
v 0.022460 -0.049891 0.083719
v 0.045610 -0.027446 0.083715
v 0.049979 0.009883 0.083730
v 0.045610 -0.027446 0.083715
v 0.022460 -0.049891 0.083719
v 0.035660 -0.040425 0.083711
v -0.056618 0.027381 0.007233
v -0.061937 0.008783 0.017106
v -0.047528 0.018924 0.083720
v 0.055747 0.027389 0.007229
v 0.058015 0.026412 -0.019176
v 0.047530 0.044452 -0.002905
v 0.058015 0.026412 -0.019176
v 0.062986 0.004285 0.011462
v 0.065979 -0.006430 -0.002100
v 0.062986 0.004285 0.011462
v 0.058015 0.026412 -0.019176
v 0.055747 0.027389 0.007229
v 0.020679 0.006967 -0.079532
v 0.020459 -0.022241 -0.068418
v -0.000434 -0.006534 -0.078267
v 0.020459 -0.022241 -0.068418
v 0.020679 0.006967 -0.079532
v 0.029784 -0.023739 -0.064420
v -0.021547 0.006967 -0.079532
v -0.039644 0.025388 -0.072096
v -0.016923 0.023426 -0.082153
v 0.020679 0.006967 -0.079532
v 0.038376 0.002464 -0.070510
v 0.029784 -0.023739 -0.064420
v 0.038376 0.002464 -0.070510
v 0.020679 0.006967 -0.079532
v 0.037445 0.033650 -0.071271
v 0.019432 -0.063660 -0.044507
v 0.020459 -0.022241 -0.068418
v 0.029784 -0.023739 -0.064420
v 0.039466 0.051656 0.004208
v 0.037566 0.032398 0.083720
v 0.047530 0.044452 -0.002905
v 0.042533 0.026195 0.083721
v 0.055747 0.027389 0.007229
v 0.047530 0.044452 -0.002905
v 0.037566 0.032398 0.083720
v 0.042533 0.026195 0.083721
v 0.047530 0.044452 -0.002905
v 0.055747 0.027389 0.007229
v 0.042533 0.026195 0.083721
v 0.049979 0.009883 0.083730
v 0.042533 0.026195 0.083721
v 0.037566 0.032398 0.083720
v 0.049979 0.009883 0.083730
v -0.047528 0.018924 0.083720
v -0.020342 0.044952 0.083720
v -0.036761 0.034210 0.083715
v -0.009775 0.048211 0.083721
v -0.020342 0.044952 0.083720
v -0.047528 0.018924 0.083720
v -0.020342 0.044952 0.083720
v -0.009775 0.048211 0.083721
v -0.021952 0.058666 0.008653
v 0.064586 -0.014732 0.013665
v 0.051376 -0.009340 0.083720
v 0.060460 -0.034315 0.015141
v 0.051376 -0.009340 0.083720
v 0.045610 -0.027446 0.083715
v 0.060460 -0.034315 0.015141
v 0.051376 -0.009340 0.083720
v 0.064586 -0.014732 0.013665
v 0.049979 0.009883 0.083730
v 0.045610 -0.027446 0.083715
v 0.051376 -0.009340 0.083720
v 0.049979 0.009883 0.083730
v -0.020342 0.044952 0.083720
v -0.040230 0.049830 0.011944
v -0.036761 0.034210 0.083715
v -0.040602 0.054634 -0.014522
v -0.040230 0.049830 0.011944
v -0.021952 0.058666 0.008653
v -0.040230 0.049830 0.011944
v -0.020342 0.044952 0.083720
v -0.021952 0.058666 0.008653
v -0.063674 0.011312 -0.007396
v -0.061937 0.008783 0.017106
v -0.056618 0.027381 0.007233
v -0.063674 0.011312 -0.007396
v -0.059170 0.019075 -0.034684
v -0.065979 -0.013572 -0.011300
v -0.065430 -0.015187 0.013734
v -0.063674 0.011312 -0.007396
v -0.065979 -0.013572 -0.011300
v -0.061937 0.008783 0.017106
v -0.063674 0.011312 -0.007396
v -0.065430 -0.015187 0.013734
v -0.000434 0.061825 0.007591
v 0.021217 0.061492 -0.022530
v -0.000434 0.063862 -0.024010
v -0.000434 0.061825 0.007591
v -0.009775 0.048211 0.083721
v 0.009527 0.047953 0.083720
v -0.009775 0.048211 0.083721
v -0.000434 0.061825 0.007591
v -0.021952 0.058666 0.008653
v -0.025573 0.060858 -0.020543
v -0.040602 0.054634 -0.014522
v -0.021952 0.058666 0.008653
v -0.025573 0.060858 -0.020543
v -0.000434 0.061825 0.007591
v -0.000434 0.063862 -0.024010
v -0.000434 0.061825 0.007591
v -0.025573 0.060858 -0.020543
v -0.021952 0.058666 0.008653
v 0.021217 0.061492 -0.022530
v 0.021186 0.057051 -0.053419
v -0.000434 0.063862 -0.024010
v 0.021186 0.057051 -0.053419
v -0.000434 0.058891 -0.055175
v -0.000434 0.063862 -0.024010
v 0.021186 0.057051 -0.053419
v 0.021217 0.061492 -0.022530
v 0.039315 0.054469 -0.039894
v -0.000434 0.058891 -0.055175
v -0.022054 0.057051 -0.053420
v -0.000434 0.063862 -0.024010
v -0.022054 0.057051 -0.053420
v -0.025573 0.060858 -0.020543
v -0.000434 0.063862 -0.024010
v -0.016164 0.038631 -0.078270
v -0.039644 0.025388 -0.072096
v -0.040182 0.047251 -0.058699
v -0.039644 0.025388 -0.072096
v -0.016164 0.038631 -0.078270
v -0.016923 0.023426 -0.082153
v 0.058015 0.026412 -0.019176
v 0.048068 0.046186 -0.027933
v 0.047530 0.044452 -0.002905
v 0.048071 0.037951 -0.052327
v 0.048068 0.046186 -0.027933
v 0.058015 0.026412 -0.019176
v -0.039644 0.025388 -0.072096
v -0.049010 0.025820 -0.060590
v -0.040182 0.047251 -0.058699
v -0.049010 0.025820 -0.060590
v -0.049155 0.043898 -0.040066
v -0.040182 0.047251 -0.058699
v -0.049155 0.043898 -0.040066
v -0.049010 0.025820 -0.060590
v -0.059170 0.019075 -0.034684
v -0.049010 0.025820 -0.060590
v -0.039644 0.025388 -0.072096
v -0.047730 -0.002476 -0.060625
v 0.038376 0.002464 -0.070510
v 0.046279 -0.017212 -0.055182
v 0.029784 -0.023739 -0.064420
v 0.020459 -0.022241 -0.068418
v 0.002709 -0.063752 -0.048678
v -0.000434 -0.006534 -0.078267
v 0.019432 -0.063660 -0.044507
v 0.002709 -0.063752 -0.048678
v 0.020459 -0.022241 -0.068418
v 0.002709 -0.063752 -0.048678
v 0.048861 -0.063658 -0.010940
v 0.045843 -0.063862 0.026891
v 0.048861 -0.063658 -0.010940
v 0.002709 -0.063752 -0.048678
v 0.019432 -0.063660 -0.044507
v 0.050689 -0.063705 0.006115
v 0.060460 -0.034315 0.015141
v 0.045843 -0.063862 0.026891
v 0.048861 -0.063658 -0.010940
v 0.050689 -0.063705 0.006115
v 0.045843 -0.063862 0.026891
v 0.064586 -0.014732 0.013665
v 0.064141 -0.026661 -0.000727
v 0.065979 -0.006430 -0.002100
v 0.064141 -0.026661 -0.000727
v 0.064586 -0.014732 0.013665
v 0.060460 -0.034315 0.015141
v 0.050689 -0.063705 0.006115
v 0.064141 -0.026661 -0.000727
v 0.060460 -0.034315 0.015141
v 0.064141 -0.026661 -0.000727
v 0.050689 -0.063705 0.006115
v 0.048861 -0.063658 -0.010940
v 0.039466 0.051656 0.004208
v 0.018377 0.045393 0.083720
v 0.037566 0.032398 0.083720
v 0.018377 0.045393 0.083720
v 0.009527 0.047953 0.083720
v 0.049979 0.009883 0.083730
v 0.037566 0.032398 0.083720
v 0.018377 0.045393 0.083720
v 0.049979 0.009883 0.083730
v 0.021217 0.061492 -0.022530
v 0.038601 0.056121 -0.021716
v 0.039315 0.054469 -0.039894
v 0.038601 0.056121 -0.021716
v 0.048068 0.046186 -0.027933
v 0.039315 0.054469 -0.039894
v 0.038601 0.056121 -0.021716
v 0.039466 0.051656 0.004208
v 0.047530 0.044452 -0.002905
v 0.048068 0.046186 -0.027933
v 0.038601 0.056121 -0.021716
v 0.047530 0.044452 -0.002905
v 0.022460 -0.049891 0.083719
v 0.005339 -0.054957 0.083719
v 0.017725 -0.063752 0.050699
v 0.005339 -0.054957 0.083719
v 0.022460 -0.049891 0.083719
v 0.049979 0.009883 0.083730
v -0.049155 0.043898 -0.040066
v -0.048546 0.044138 -0.002502
v -0.040602 0.054634 -0.014522
v -0.048546 0.044138 -0.002502
v -0.040230 0.049830 0.011944
v -0.040602 0.054634 -0.014522
v -0.048546 0.044138 -0.002502
v -0.056618 0.027381 0.007233
v -0.047528 0.018924 0.083720
v -0.048546 0.044138 -0.002502
v -0.047528 0.018924 0.083720
v -0.036761 0.034210 0.083715
v -0.040230 0.049830 0.011944
v -0.048546 0.044138 -0.002502
v -0.036761 0.034210 0.083715
v -0.049155 0.043898 -0.040066
v -0.040323 0.052863 -0.046882
v -0.040182 0.047251 -0.058699
v -0.040323 0.052863 -0.046882
v -0.049155 0.043898 -0.040066
v -0.040602 0.054634 -0.014522
v -0.040323 0.052863 -0.046882
v -0.022054 0.057051 -0.053420
v -0.040182 0.047251 -0.058699
v -0.025573 0.060858 -0.020543
v -0.040323 0.052863 -0.046882
v -0.040602 0.054634 -0.014522
v -0.022054 0.057051 -0.053420
v -0.040323 0.052863 -0.046882
v -0.025573 0.060858 -0.020543
v -0.058887 0.026405 -0.019179
v -0.063674 0.011312 -0.007396
v -0.056618 0.027381 0.007233
v -0.048546 0.044138 -0.002502
v -0.058887 0.026405 -0.019179
v -0.056618 0.027381 0.007233
v -0.058887 0.026405 -0.019179
v -0.048546 0.044138 -0.002502
v -0.049155 0.043898 -0.040066
v -0.058887 0.026405 -0.019179
v -0.049155 0.043898 -0.040066
v -0.059170 0.019075 -0.034684
v -0.063674 0.011312 -0.007396
v -0.058887 0.026405 -0.019179
v -0.059170 0.019075 -0.034684
v 0.038974 0.050904 -0.052680
v 0.021186 0.057051 -0.053419
v 0.039315 0.054469 -0.039894
v 0.038974 0.050904 -0.052680
v 0.048071 0.037951 -0.052327
v 0.037445 0.033650 -0.071271
v 0.048068 0.046186 -0.027933
v 0.038974 0.050904 -0.052680
v 0.039315 0.054469 -0.039894
v 0.048071 0.037951 -0.052327
v 0.038974 0.050904 -0.052680
v 0.048068 0.046186 -0.027933
v -0.016164 0.038631 -0.078270
v 0.004969 0.024377 -0.083730
v -0.016923 0.023426 -0.082153
v 0.020679 0.006967 -0.079532
v 0.004969 0.024377 -0.083730
v 0.037445 0.033650 -0.071271
v 0.004969 0.024377 -0.083730
v 0.020679 0.006967 -0.079532
v -0.000434 -0.006534 -0.078267
v -0.021547 0.006967 -0.079532
v 0.004969 0.024377 -0.083730
v -0.000434 -0.006534 -0.078267
v 0.004969 0.024377 -0.083730
v -0.021547 0.006967 -0.079532
v -0.016923 0.023426 -0.082153
v 0.021186 0.057051 -0.053419
v -0.000434 0.051493 -0.069118
v -0.000434 0.058891 -0.055175
v -0.000434 0.051493 -0.069118
v -0.022054 0.057051 -0.053420
v -0.000434 0.058891 -0.055175
v -0.022054 0.057051 -0.053420
v -0.000434 0.051493 -0.069118
v -0.040182 0.047251 -0.058699
v -0.000434 0.051493 -0.069118
v -0.016164 0.038631 -0.078270
v -0.040182 0.047251 -0.058699
v 0.048071 0.037951 -0.052327
v 0.047656 0.015127 -0.063061
v 0.037445 0.033650 -0.071271
v 0.047656 0.015127 -0.063061
v 0.038376 0.002464 -0.070510
v 0.037445 0.033650 -0.071271
v 0.046279 -0.017212 -0.055182
v 0.047656 0.015127 -0.063061
v 0.056748 -0.006787 -0.043027
v 0.047656 0.015127 -0.063061
v 0.046279 -0.017212 -0.055182
v 0.038376 0.002464 -0.070510
v 0.057912 0.009730 -0.041456
v 0.048071 0.037951 -0.052327
v 0.058015 0.026412 -0.019176
v 0.057912 0.009730 -0.041456
v 0.058015 0.026412 -0.019176
v 0.065979 -0.006430 -0.002100
v 0.047656 0.015127 -0.063061
v 0.057912 0.009730 -0.041456
v 0.056748 -0.006787 -0.043027
v 0.057912 0.009730 -0.041456
v 0.047656 0.015127 -0.063061
v 0.048071 0.037951 -0.052327
v 0.034802 -0.063550 -0.034224
v 0.048861 -0.063658 -0.010940
v 0.019432 -0.063660 -0.044507
v -0.018593 -0.063752 0.050699
v 0.045843 -0.063862 0.026891
v 0.017725 -0.063752 0.050699
v 0.005339 -0.054957 0.083719
v -0.018593 -0.063752 0.050699
v 0.017725 -0.063752 0.050699
v -0.065048 -0.026594 -0.000142
v -0.065430 -0.015187 0.013734
v -0.065979 -0.013572 -0.011300
v -0.063643 -0.020937 -0.020815
v -0.065048 -0.026594 -0.000142
v -0.065979 -0.013572 -0.011300
v 0.064141 -0.026661 -0.000727
v 0.061427 -0.022661 -0.023085
v 0.065979 -0.006430 -0.002100
v 0.061427 -0.022661 -0.023085
v 0.057912 0.009730 -0.041456
v 0.065979 -0.006430 -0.002100
v 0.057912 0.009730 -0.041456
v 0.061427 -0.022661 -0.023085
v 0.056748 -0.006787 -0.043027
v 0.061427 -0.022661 -0.023085
v 0.064141 -0.026661 -0.000727
v 0.048861 -0.063658 -0.010940
v 0.021084 0.058666 0.008653
v 0.018377 0.045393 0.083720
v 0.039466 0.051656 0.004208
v 0.038601 0.056121 -0.021716
v 0.021084 0.058666 0.008653
v 0.039466 0.051656 0.004208
v 0.021084 0.058666 0.008653
v 0.038601 0.056121 -0.021716
v 0.021217 0.061492 -0.022530
v 0.018377 0.045393 0.083720
v 0.021084 0.058666 0.008653
v 0.009527 0.047953 0.083720
v 0.021084 0.058666 0.008653
v -0.000434 0.061825 0.007591
v 0.009527 0.047953 0.083720
v -0.000434 0.061825 0.007591
v 0.021084 0.058666 0.008653
v 0.021217 0.061492 -0.022530
v -0.050647 -0.016445 0.083720
v -0.052252 0.001533 0.083720
v -0.065430 -0.015187 0.013734
v -0.061937 0.008783 0.017106
v -0.052252 0.001533 0.083720
v -0.047528 0.018924 0.083720
v -0.052252 0.001533 0.083720
v -0.061937 0.008783 0.017106
v -0.065430 -0.015187 0.013734
v -0.047528 0.018924 0.083720
v -0.052252 0.001533 0.083720
v 0.049979 0.009883 0.083730
v -0.052252 0.001533 0.083720
v -0.050647 -0.016445 0.083720
v 0.049979 0.009883 0.083730
v -0.043381 -0.032314 0.083720
v -0.031577 -0.044655 0.083720
v 0.049979 0.009883 0.083730
v -0.050647 -0.016445 0.083720
v -0.043381 -0.032314 0.083720
v 0.049979 0.009883 0.083730
v 0.038974 0.050904 -0.052680
v 0.021046 0.044181 -0.072749
v 0.021186 0.057051 -0.053419
v 0.021046 0.044181 -0.072749
v -0.000434 0.051493 -0.069118
v 0.021186 0.057051 -0.053419
v 0.021046 0.044181 -0.072749
v 0.038974 0.050904 -0.052680
v 0.037445 0.033650 -0.071271
v 0.004969 0.024377 -0.083730
v 0.021046 0.044181 -0.072749
v 0.037445 0.033650 -0.071271
v 0.021046 0.044181 -0.072749
v 0.004969 0.024377 -0.083730
v -0.016164 0.038631 -0.078270
v -0.000434 0.051493 -0.069118
v 0.021046 0.044181 -0.072749
v -0.016164 0.038631 -0.078270
v 0.046279 -0.017212 -0.055182
v 0.036287 -0.042489 -0.049501
v 0.029784 -0.023739 -0.064420
v 0.036287 -0.042489 -0.049501
v 0.019432 -0.063660 -0.044507
v 0.029784 -0.023739 -0.064420
v 0.036287 -0.042489 -0.049501
v 0.034802 -0.063550 -0.034224
v 0.019432 -0.063660 -0.044507
v -0.043381 -0.032314 0.083720
v -0.039958 -0.063720 0.035502
v -0.031577 -0.044655 0.083720
v -0.017414 -0.052192 0.083720
v -0.018593 -0.063752 0.050699
v 0.005339 -0.054957 0.083719
v -0.031577 -0.044655 0.083720
v -0.017414 -0.052192 0.083720
v 0.049979 0.009883 0.083730
v -0.017414 -0.052192 0.083720
v 0.005339 -0.054957 0.083719
v 0.049979 0.009883 0.083730
v -0.039958 -0.063720 0.035502
v -0.017414 -0.052192 0.083720
v -0.031577 -0.044655 0.083720
v -0.017414 -0.052192 0.083720
v -0.039958 -0.063720 0.035502
v -0.018593 -0.063752 0.050699
v -0.057643 -0.006886 -0.042950
v -0.049010 0.025820 -0.060590
v -0.047730 -0.002476 -0.060625
v -0.049010 0.025820 -0.060590
v -0.057643 -0.006886 -0.042950
v -0.059170 0.019075 -0.034684
v -0.059170 0.019075 -0.034684
v -0.057643 -0.006886 -0.042950
v -0.065979 -0.013572 -0.011300
v -0.057643 -0.006886 -0.042950
v -0.063643 -0.020937 -0.020815
v -0.065979 -0.013572 -0.011300
v -0.061038 -0.034843 0.015558
v -0.065048 -0.026594 -0.000142
v -0.051603 -0.063692 0.002251
v -0.061038 -0.034843 0.015558
v -0.050647 -0.016445 0.083720
v -0.065430 -0.015187 0.013734
v -0.065048 -0.026594 -0.000142
v -0.061038 -0.034843 0.015558
v -0.065430 -0.015187 0.013734
v -0.021327 -0.022241 -0.068418
v -0.021547 0.006967 -0.079532
v -0.000434 -0.006534 -0.078267
v 0.002709 -0.063752 -0.048678
v -0.021327 -0.022241 -0.068418
v -0.000434 -0.006534 -0.078267
v -0.015266 -0.063752 -0.046586
v -0.021327 -0.022241 -0.068418
v 0.002709 -0.063752 -0.048678
v -0.039452 -0.063801 -0.031191
v 0.002709 -0.063752 -0.048678
v 0.045843 -0.063862 0.026891
v -0.039452 -0.063801 -0.031191
v -0.015266 -0.063752 -0.046586
v 0.002709 -0.063752 -0.048678
v -0.018593 -0.063752 0.050699
v -0.039452 -0.063801 -0.031191
v 0.045843 -0.063862 0.026891
v -0.039958 -0.063720 0.035502
v -0.039452 -0.063801 -0.031191
v -0.018593 -0.063752 0.050699
v 0.050754 -0.034431 -0.038589
v 0.061427 -0.022661 -0.023085
v 0.048861 -0.063658 -0.010940
v 0.034802 -0.063550 -0.034224
v 0.050754 -0.034431 -0.038589
v 0.048861 -0.063658 -0.010940
v 0.050754 -0.034431 -0.038589
v 0.046279 -0.017212 -0.055182
v 0.056748 -0.006787 -0.043027
v 0.061427 -0.022661 -0.023085
v 0.050754 -0.034431 -0.038589
v 0.056748 -0.006787 -0.043027
v 0.050754 -0.034431 -0.038589
v 0.036287 -0.042489 -0.049501
v 0.046279 -0.017212 -0.055182
v 0.036287 -0.042489 -0.049501
v 0.050754 -0.034431 -0.038589
v 0.034802 -0.063550 -0.034224
v -0.053461 -0.032858 -0.036495
v -0.057643 -0.006886 -0.042950
v -0.047730 -0.002476 -0.060625
v -0.057643 -0.006886 -0.042950
v -0.053461 -0.032858 -0.036495
v -0.063643 -0.020937 -0.020815
v -0.021327 -0.022241 -0.068418
v -0.039016 -0.010834 -0.066139
v -0.021547 0.006967 -0.079532
v -0.039644 0.025388 -0.072096
v -0.039016 -0.010834 -0.066139
v -0.047730 -0.002476 -0.060625
v -0.039016 -0.010834 -0.066139
v -0.039644 0.025388 -0.072096
v -0.021547 0.006967 -0.079532
v -0.039452 -0.063801 -0.031191
v -0.048981 -0.063701 0.018874
v -0.051603 -0.063692 0.002251
v -0.048981 -0.063701 0.018874
v -0.039452 -0.063801 -0.031191
v -0.039958 -0.063720 0.035502
v -0.048981 -0.063701 0.018874
v -0.039958 -0.063720 0.035502
v -0.043381 -0.032314 0.083720
v -0.048981 -0.063701 0.018874
v -0.043381 -0.032314 0.083720
v -0.050647 -0.016445 0.083720
v -0.048981 -0.063701 0.018874
v -0.061038 -0.034843 0.015558
v -0.051603 -0.063692 0.002251
v -0.061038 -0.034843 0.015558
v -0.048981 -0.063701 0.018874
v -0.050647 -0.016445 0.083720
v -0.053461 -0.032858 -0.036495
v -0.058028 -0.042585 -0.014965
v -0.063643 -0.020937 -0.020815
v -0.065048 -0.026594 -0.000142
v -0.058028 -0.042585 -0.014965
v -0.051603 -0.063692 0.002251
v -0.058028 -0.042585 -0.014965
v -0.065048 -0.026594 -0.000142
v -0.063643 -0.020937 -0.020815
v -0.053461 -0.032858 -0.036495
v -0.039406 -0.034385 -0.053337
v -0.039452 -0.063801 -0.031191
v -0.039452 -0.063801 -0.031191
v -0.039406 -0.034385 -0.053337
v -0.015266 -0.063752 -0.046586
v -0.039406 -0.034385 -0.053337
v -0.053461 -0.032858 -0.036495
v -0.047730 -0.002476 -0.060625
v -0.039016 -0.010834 -0.066139
v -0.039406 -0.034385 -0.053337
v -0.047730 -0.002476 -0.060625
v -0.039406 -0.034385 -0.053337
v -0.021327 -0.022241 -0.068418
v -0.015266 -0.063752 -0.046586
v -0.039406 -0.034385 -0.053337
v -0.039016 -0.010834 -0.066139
v -0.021327 -0.022241 -0.068418
v -0.044763 -0.063665 -0.022846
v -0.053461 -0.032858 -0.036495
v -0.039452 -0.063801 -0.031191
v -0.044763 -0.063665 -0.022846
v -0.058028 -0.042585 -0.014965
v -0.053461 -0.032858 -0.036495
v -0.044763 -0.063665 -0.022846
v -0.039452 -0.063801 -0.031191
v -0.051603 -0.063692 0.002251
v -0.058028 -0.042585 -0.014965
v -0.044763 -0.063665 -0.022846
v -0.051603 -0.063692 0.002251
vn 0.9365 0.3198 0.1438
vn -0.0001 0.0001 1.0000
vn 0.0001 0.0004 1.0000
vn 0.9853 0.0990 0.1393
vn 0.9804 0.1020 0.1686
vn 0.2816 -0.8985 0.3368
vn 0.5337 -0.7438 0.4024
vn 0.9054 -0.3558 0.2317
vn 0.7385 -0.5663 0.3659
vn 0.0006 -0.0005 1.0000
vn 0.0018 -0.0017 1.0000
vn -0.9273 0.3439 0.1482
vn 0.8853 0.4613 0.0590
vn 0.9692 0.2454 0.0200
vn 0.9482 0.3099 0.0700
vn 0.1697 -0.3516 -0.9206
vn 0.3243 -0.3385 -0.8833
vn -0.4068 -0.0311 -0.9130
vn 0.3636 -0.3223 -0.8740
vn 0.4525 -0.0083 -0.8917
vn 0.2775 -0.4855 -0.8290
vn 0.7375 0.6521 0.1756
vn 0.8510 0.5018 0.1548
vn 0.7686 0.6156 0.1741
vn 0.8977 0.4098 0.1615
vn 0.0013 0.0012 1.0000
vn -0.0009 0.0009 1.0000
vn -0.0002 0.0002 1.0000
vn -0.2900 0.9403 0.1780
vn 0.9624 -0.1880 0.1959
vn 0.9272 -0.2954 0.2304
vn 0.9812 0.0712 0.1795
vn 0.0008 -0.0005 1.0000
vn -0.5360 0.8192 0.2042
vn -0.4042 0.8990 0.1688
vn -0.4033 0.8986 0.1728
vn -0.9413 0.3223 0.1000
vn -0.9851 0.1118 -0.1308
vn -0.9957 0.0879 0.0275
vn -0.9877 0.1321 0.0837
vn 0.1043 0.9925 0.0640
vn 0.0132 0.9840 0.1776
vn -0.1358 0.9780 0.1582
vn -0.3415 0.9331 0.1124
vn -0.1097 0.9919 0.0639
vn -0.1402 0.9859 0.0914
vn 0.1173 0.9830 -0.1414
vn 0.0964 0.9829 -0.1568
vn 0.2401 0.9608 -0.1384
vn -0.0964 0.9829 -0.1568
vn -0.1351 0.9825 -0.1282
vn -0.4580 0.4563 -0.7630
vn -0.3743 0.2469 -0.8938
vn 0.8828 0.4669 0.0513
vn 0.9078 0.3973 -0.1340
vn -0.7202 0.3495 -0.5993
vn -0.8572 0.3834 -0.3438
vn -0.9104 0.3072 -0.2771
vn -0.7757 -0.0343 -0.6301
vn 0.5600 -0.3573 -0.7475
vn 0.0765 -0.4547 -0.8874
vn 0.2132 -0.4924 -0.8438
vn 0.0061 -1.0000 -0.0049
vn 0.0070 -1.0000 -0.0061
vn 0.9070 -0.3657 0.2088
vn 0.0141 -0.9999 -0.0043
vn 0.9953 -0.0876 0.0419
vn 0.9720 -0.1949 0.1315
vn 0.9418 -0.3311 0.0587
vn 0.9291 -0.3560 -0.1006
vn 0.5483 0.8097 0.2092
vn 0.0005 0.0007 1.0000
vn 0.2976 0.9518 -0.0748
vn 0.7122 0.7010 -0.0357
vn 0.7092 0.6984 0.0966
vn 0.7417 0.6678 0.0622
vn 0.2668 -0.9017 0.3402
vn 0.0001 -0.0002 1.0000
vn -0.7924 0.6099 0.0090
vn -0.7091 0.6919 0.1355
vn -0.8512 0.5010 0.1566
vn -0.8049 0.5670 0.1753
vn -0.7456 0.6427 0.1759
vn -0.7812 0.5603 -0.2754
vn -0.7281 0.6841 -0.0437
vn -0.3400 0.8479 -0.4067
vn -0.4003 0.9148 -0.0535
vn -0.2683 0.9532 -0.1391
vn -0.9347 0.3491 0.0674
vn -0.8855 0.4609 0.0590
vn -0.8682 0.4960 0.0109
vn -0.9281 0.3430 -0.1452
vn -0.9677 0.2343 -0.0931
vn 0.3249 0.9087 -0.2621
vn 0.7109 0.4854 -0.5089
vn 0.7957 0.5776 -0.1823
vn 0.8060 0.5609 -0.1892
vn -0.0804 0.2504 -0.9648
vn 0.3375 0.0783 -0.9381
vn 0.0587 -0.1837 -0.9812
vn -0.0470 -0.1659 -0.9850
vn -0.0652 -0.1390 -0.9881
vn 0.1125 0.8777 -0.4657
vn -0.1125 0.8777 -0.4657
vn -0.2386 0.7642 -0.5992
vn -0.2430 0.7419 -0.6249
vn 0.8264 0.2272 -0.5151
vn 0.6263 -0.0003 -0.7796
vn 0.8140 -0.1700 -0.5554
vn 0.7563 -0.1851 -0.6275
vn 0.9470 0.2550 -0.1953
vn 0.9769 0.1688 -0.1309
vn 0.9010 -0.0222 -0.4333
vn 0.9062 0.1663 -0.3887
vn 0.0172 -0.9997 -0.0150
vn -0.0000 -1.0000 0.0046
vn -0.0000 -0.9663 0.2574
vn -0.9983 -0.0557 0.0183
vn -0.9797 -0.1660 -0.1120
vn 0.9856 -0.0989 -0.1373
vn 0.9788 -0.0099 -0.2047
vn 0.9645 -0.0431 -0.2606
vn 0.9263 -0.3350 -0.1724
vn 0.3873 0.9054 0.1741
vn 0.3829 0.9125 0.1444
vn 0.2903 0.9529 0.0876
vn 0.2735 0.9454 0.1770
vn 0.1356 0.9777 0.1604
vn 0.1403 0.9860 0.0900
vn -0.9750 -0.0870 0.2044
vn -0.9516 0.2585 0.1665
vn -0.9804 0.1209 0.1557
vn -0.0001 -0.0000 1.0000
vn -0.0001 -0.0001 1.0000
vn 0.2964 0.7940 -0.5308
vn 0.1860 0.8172 -0.5455
vn 0.4614 0.6310 -0.6236
vn 0.2693 0.2905 -0.9182
vn 0.0669 0.4418 -0.8946
vn 0.0433 0.5435 -0.8383
vn 0.5623 -0.3866 -0.7310
vn 0.3834 -0.4899 -0.7829
vn 0.4709 -0.5395 -0.6980
vn -0.6712 -0.6420 0.3705
vn -0.1138 -0.9364 0.3319
vn -0.0000 -0.0002 1.0000
vn -0.4315 -0.8108 0.3956
vn -0.2351 -0.9147 0.3286
vn -0.8674 -0.0386 -0.4961
vn -0.9344 0.0570 -0.3516
vn -0.9679 0.0227 -0.2501
vn -0.9678 0.0175 -0.2512
vn -0.9396 -0.3365 0.0632
vn -0.9601 -0.1960 0.1993
vn -0.9689 -0.2034 0.1406
vn -0.1697 -0.3516 -0.9206
vn -0.0702 -0.4613 -0.8845
vn -0.1018 -0.4747 -0.8743
vn 0.0005 -1.0000 -0.0017
vn -0.0005 -1.0000 -0.0039
vn -0.0014 -1.0000 0.0009
vn -0.0023 -1.0000 0.0012
vn 0.8730 -0.3638 -0.3248
vn 0.7503 -0.4793 -0.4553
vn 0.8305 -0.2592 -0.4930
vn 0.8760 -0.2556 -0.4090
vn 0.6836 -0.4065 -0.6062
vn 0.6836 -0.4595 -0.5670
vn -0.8129 -0.2604 -0.5209
vn -0.8874 -0.2406 -0.3933
vn -0.3313 -0.3377 -0.8810
vn -0.6205 -0.1377 -0.7720
vn -0.5017 -0.1489 -0.8522
vn -0.0073 -1.0000 0.0006
vn -0.0042 -1.0000 0.0012
vn -0.6776 -0.6373 0.3670
vn -0.8755 -0.4009 0.2696
vn -0.9188 -0.3672 0.1447
vn -0.9065 -0.3519 0.2332
vn -0.8871 -0.3200 -0.3327
vn -0.9362 -0.3440 -0.0724
vn -0.9481 -0.2844 -0.1423
vn -0.7153 -0.4196 -0.5588
vn -0.4526 -0.5359 -0.7127
vn -0.7399 -0.3273 -0.5878
vn -0.7092 -0.3276 -0.6243
vn -0.3529 -0.4754 -0.8059
vn -0.3858 -0.4357 -0.8133
vn -0.7653 -0.4288 -0.4800
vn -0.8446 -0.3974 -0.3587
vn -0.0478 -0.9988 -0.0141
vn -0.8599 -0.4533 -0.2349
s 1
usemtl material_0
f 1//1 2//1 3//1
f 4//2 5//2 6//2
f 7//3 8//3 9//3
f 10//4 11//4 12//4
f 13//5 14//5 15//5
f 16//6 17//6 18//6
f 19//7 20//7 21//7
f 22//8 23//8 24//8
f 25//9 26//9 27//9
f 28//10 29//10 30//10
f 31//11 32//11 33//11
f 34//12 35//12 36//12
f 37//13 38//13 39//13
f 40//14 41//14 42//14
f 43//15 44//15 45//15
f 46//16 47//16 48//16
f 49//17 50//17 51//17
f 52//18 53//18 54//18
f 55//19 56//19 57//19
f 58//20 59//20 60//20
f 61//21 62//21 63//21
f 64//22 65//22 66//22
f 67//23 68//23 69//23
f 70//24 71//24 72//24
f 73//25 74//25 75//25
f 76//26 77//26 78//26
f 79//27 80//27 81//27
f 82//28 83//28 84//28
f 85//29 86//29 87//29
f 88//30 89//30 90//30
f 91//31 92//31 93//31
f 94//32 95//32 96//32
f 97//33 98//33 99//33
f 100//34 101//34 102//34
f 103//35 104//35 105//35
f 106//36 107//36 108//36
f 109//37 110//37 111//37
f 112//38 113//38 114//38
f 115//39 116//39 117//39
f 118//40 119//40 120//40
f 121//41 122//41 123//41
f 124//42 125//42 126//42
f 127//43 128//43 129//43
f 130//44 131//44 132//44
f 133//45 134//45 135//45
f 136//46 137//46 138//46
f 139//47 140//47 141//47
f 142//48 143//48 144//48
f 145//49 146//49 147//49
f 148//50 149//50 150//50
f 151//51 152//51 153//51
f 154//52 155//52 156//52
f 157//53 158//53 159//53
f 160//54 161//54 162//54
f 163//55 164//55 165//55
f 166//56 167//56 168//56
f 169//57 170//57 171//57
f 172//58 173//58 174//58
f 175//59 176//59 177//59
f 178//60 179//60 180//60
f 181//61 182//61 183//61
f 184//62 185//62 186//62
f 187//63 188//63 189//63
f 190//64 191//64 192//64
f 193//65 194//65 195//65
f 196//66 197//66 198//66
f 199//67 200//67 201//67
f 202//68 203//68 204//68
f 205//69 206//69 207//69
f 208//70 209//70 210//70
f 211//71 212//71 213//71
f 214//3 215//3 216//3
f 217//72 218//72 219//72
f 220//73 221//73 222//73
f 223//74 224//74 225//74
f 226//75 227//75 228//75
f 229//76 230//76 231//76
f 232//77 233//77 234//77
f 235//78 236//78 237//78
f 238//79 239//79 240//79
f 241//80 242//80 243//80
f 244//81 245//81 246//81
f 247//82 248//82 249//82
f 250//83 251//83 252//83
f 253//84 254//84 255//84
f 256//85 257//85 258//85
f 259//86 260//86 261//86
f 262//87 263//87 264//87
f 265//88 266//88 267//88
f 268//89 269//89 270//89
f 271//90 272//90 273//90
f 274//91 275//91 276//91
f 277//92 278//92 279//92
f 280//93 281//93 282//93
f 283//94 284//94 285//94
f 286//95 287//95 288//95
f 289//96 290//96 291//96
f 292//97 293//97 294//97
f 295//98 296//98 297//98
f 298//99 299//99 300//99
f 301//100 302//100 303//100
f 304//101 305//101 306//101
f 307//102 308//102 309//102
f 310//103 311//103 312//103
f 313//104 314//104 315//104
f 316//105 317//105 318//105
f 319//106 320//106 321//106
f 322//107 323//107 324//107
f 325//108 326//108 327//108
f 328//109 329//109 330//109
f 331//110 332//110 333//110
f 334//111 335//111 336//111
f 337//112 338//112 339//112
f 340//113 341//113 342//113
f 343//114 344//114 345//114
f 346//115 347//115 348//115
f 349//116 350//116 351//116
f 352//117 353//117 354//117
f 355//118 356//118 357//118
f 358//119 359//119 360//119
f 361//120 362//120 363//120
f 364//121 365//121 366//121
f 367//122 368//122 369//122
f 370//123 371//123 372//123
f 373//124 374//124 375//124
f 376//125 377//125 378//125
f 379//126 380//126 381//126
f 382//127 383//127 384//127
f 385//128 386//128 387//128
f 388//129 389//129 390//129
f 391//130 392//130 393//130
f 394//131 395//131 396//131
f 397//132 398//132 399//132
f 400//133 401//133 402//133
f 403//133 404//133 405//133
f 406//134 407//134 408//134
f 409//133 410//133 411//133
f 412//135 413//135 414//135
f 415//136 416//136 417//136
f 418//137 419//137 420//137
f 421//138 422//138 423//138
f 424//139 425//139 426//139
f 427//140 428//140 429//140
f 430//141 431//141 432//141
f 433//142 434//142 435//142
f 436//143 437//143 438//143
f 439//144 440//144 441//144
f 442//145 443//145 444//145
f 445//134 446//134 447//134
f 448//146 449//146 450//146
f 451//147 452//147 453//147
f 454//148 455//148 456//148
f 457//149 458//149 459//149
f 460//150 461//150 462//150
f 463//151 464//151 465//151
f 466//152 467//152 468//152
f 469//153 470//153 471//153
f 472//154 473//154 474//154
f 475//155 476//155 477//155
f 478//156 479//156 480//156
f 481//157 482//157 483//157
f 484//158 485//158 486//158
f 487//159 488//159 489//159
f 490//160 491//160 492//160
f 493//161 494//161 495//161
f 496//162 497//162 498//162
f 499//163 500//163 501//163
f 502//164 503//164 504//164
f 505//165 506//165 507//165
f 508//166 509//166 510//166
f 511//167 512//167 513//167
f 514//168 515//168 516//168
f 517//169 518//169 519//169
f 520//170 521//170 522//170
f 523//171 524//171 525//171
f 526//172 527//172 528//172
f 529//173 530//173 531//173
f 532//174 533//174 534//174
f 535//175 536//175 537//175
f 538//176 539//176 540//176
f 541//177 542//177 543//177
f 544//178 545//178 546//178
f 547//179 548//179 549//179
f 550//180 551//180 552//180
f 553//181 554//181 555//181
f 556//182 557//182 558//182
f 559//183 560//183 561//183
f 562//184 563//184 564//184
f 565//185 566//185 567//185
f 568//186 569//186 570//186
f 571//187 572//187 573//187
f 574//188 575//188 576//188
f 577//189 578//189 579//189
f 580//190 581//190 582//190
f 583//191 584//191 585//191
f 586//192 587//192 588//192
