# Blender 4.5.10 LTS
# www.blender.org
mtllib iiwa_link_vis_1.mtl
o node
v -0.128708 -0.038417 0.068605
v -0.124208 -0.038417 0.068605
v -0.124208 -0.014231 0.073055
v -0.124208 -0.014231 0.073055
v -0.128708 0.000000 0.073750
v -0.128708 -0.038417 0.068605
v -0.128708 0.000000 0.073750
v -0.124208 0.000000 0.073055
v -0.124208 0.014231 0.073055
v -0.124208 -0.014231 0.073055
v -0.124208 0.000000 0.073055
v -0.128708 0.000000 0.073750
v -0.128708 -0.042529 0.065921
v -0.124208 -0.042529 0.065921
v -0.124208 -0.038417 0.068605
v -0.128708 -0.044299 0.061340
v -0.124208 -0.044299 0.061340
v -0.124208 -0.042529 0.065921
v -0.124208 -0.042529 0.065921
v -0.128708 -0.042529 0.065921
v -0.128708 -0.044299 0.061340
v -0.124208 -0.038417 0.068605
v -0.128708 -0.038417 0.068605
v -0.128708 -0.042529 0.065921
v -0.124208 -0.051050 -0.006199
v -0.128708 -0.051050 -0.006199
v -0.128708 -0.063570 -0.072910
v -0.124208 -0.044299 0.061340
v -0.128708 -0.044299 0.061340
v -0.128708 -0.051050 -0.006199
v -0.128708 -0.051050 -0.006199
v -0.124208 -0.051050 -0.006199
v -0.124208 -0.044299 0.061340
v -0.128708 -0.063570 -0.072910
v -0.124208 -0.063570 -0.072910
v -0.124208 -0.051050 -0.006199
v -0.128708 0.051050 -0.006199
v -0.128708 -0.044299 0.061340
v -0.128708 -0.042529 0.065921
v -0.128708 0.044299 0.061340
v -0.128708 0.000000 0.073750
v -0.128708 0.038417 0.068605
v -0.128708 -0.042529 0.065921
v -0.128708 -0.038417 0.068605
v -0.128708 0.051050 -0.006199
v -0.128708 -0.063570 -0.072910
v -0.128708 -0.051050 -0.006199
v -0.128708 0.051050 -0.006199
v -0.128708 0.062109 -0.074750
v -0.128709 -0.062109 -0.074750
v -0.128708 -0.063570 -0.072910
v -0.128708 0.051050 -0.006199
v -0.128708 -0.051050 -0.006199
v -0.128708 -0.044299 0.061340
v -0.128708 0.044299 0.061340
v -0.128708 0.051050 -0.006199
v -0.128708 0.000000 0.073750
v -0.128708 0.051050 -0.006199
v -0.128708 0.063570 -0.072910
v -0.128708 -0.063570 -0.072910
v -0.128709 -0.062109 -0.074750
v -0.124208 -0.062109 -0.074750
v -0.124208 -0.062839 -0.073830
v -0.128708 -0.063570 -0.072910
v -0.128708 -0.063284 -0.074183
v -0.124208 -0.062839 -0.073830
v -0.124208 -0.062839 -0.073830
v -0.124208 -0.063570 -0.072910
v -0.128708 -0.063570 -0.072910
v -0.124208 -0.062839 -0.073830
v -0.128708 -0.063284 -0.074183
v -0.128709 -0.062109 -0.074750
v -0.128708 0.038417 0.068605
v -0.128708 0.000000 0.073750
v -0.124208 0.014231 0.073055
v -0.124208 0.014231 0.073055
v -0.124208 0.038417 0.068605
v -0.128708 0.038417 0.068605
v -0.128708 0.042529 0.065921
v -0.124208 0.042529 0.065921
v -0.124208 0.044299 0.061340
v -0.128708 0.038417 0.068605
v -0.124209 0.038417 0.068605
v -0.124208 0.042529 0.065921
v -0.124208 0.042529 0.065921
v -0.128708 0.042529 0.065921
v -0.128708 0.038417 0.068605
v -0.124208 0.044299 0.061340
v -0.128708 0.044299 0.061340
v -0.128708 0.042529 0.065921
v -0.124208 0.051050 -0.006199
v -0.128708 0.051050 -0.006199
v -0.128708 0.044299 0.061340
v -0.124208 0.063570 -0.072910
v -0.128708 0.063570 -0.072910
v -0.128708 0.051050 -0.006199
v -0.128708 0.051050 -0.006199
v -0.124208 0.051050 -0.006199
v -0.124208 0.063570 -0.072910
v -0.128708 0.044299 0.061340
v -0.124208 0.044299 0.061340
v -0.124208 0.051050 -0.006199
v -0.128708 -0.063570 -0.072910
v -0.128708 0.063570 -0.072910
v -0.128708 0.062109 -0.074750
v -0.128708 0.063570 -0.072910
v -0.128708 0.063284 -0.074183
v -0.128708 0.062109 -0.074750
v -0.128708 0.038417 0.068605
v -0.128708 0.042529 0.065921
v -0.128708 0.044299 0.061340
v -0.128709 -0.062109 -0.074750
v -0.128708 -0.063284 -0.074183
v -0.128708 -0.063570 -0.072910
v -0.128708 -0.038417 0.068605
v -0.128708 0.000000 0.073750
v -0.128708 0.051050 -0.006199
v -0.128708 -0.062109 -0.074750
v -0.128708 0.062109 -0.074750
v -0.124208 0.062109 -0.074750
v -0.124208 0.062109 -0.074750
v -0.124208 -0.062109 -0.074750
v -0.128708 -0.062109 -0.074750
v -0.128708 0.063570 -0.072910
v -0.124208 0.063570 -0.072910
v -0.124209 0.062839 -0.073830
v -0.128708 0.062109 -0.074750
v -0.128708 0.063284 -0.074183
v -0.124209 0.062839 -0.073830
v -0.124209 0.062839 -0.073830
v -0.124208 0.062109 -0.074750
v -0.128708 0.062109 -0.074750
v -0.124209 0.062839 -0.073830
v -0.128708 0.063284 -0.074183
v -0.128708 0.063570 -0.072910
vn -0.0000 -0.1810 0.9835
vn -0.2577 -0.1283 0.9577
vn 0.1526 -0.0000 0.9883
vn -0.0000 -0.5466 0.8374
vn -0.0000 -0.9328 0.3604
vn -0.0000 -0.9828 0.1845
vn -0.0000 -0.9950 0.0995
vn -1.0000 -0.0000 -0.0000
vn -0.0000 -0.7834 -0.6216
vn 0.1129 -0.9694 -0.2178
vn -0.0000 -0.7829 -0.6221
vn 0.1129 -0.4318 -0.8949
vn -0.2577 0.1283 0.9577
vn -0.0000 0.1810 0.9835
vn -0.0000 0.9328 0.3604
vn -0.0000 0.5466 0.8374
vn -0.0000 0.9950 0.0995
vn -0.0000 0.9828 0.1845
vn -0.0000 -0.0000 -1.0000
vn -0.0000 0.7829 -0.6221
vn 0.1129 0.4318 -0.8949
vn -0.0000 0.7834 -0.6216
vn 0.1130 0.9694 -0.2178
s 1
usemtl material_0
f 1//1 2//1 3//1
f 4//2 5//2 6//2
f 7//3 8//3 9//3
f 10//3 11//3 12//3
f 13//4 14//4 15//4
f 16//5 17//5 18//5
f 19//5 20//5 21//5
f 22//4 23//4 24//4
f 25//6 26//6 27//6
f 28//7 29//7 30//7
f 31//7 32//7 33//7
f 34//6 35//6 36//6
f 37//8 38//8 39//8
f 40//8 41//8 42//8
f 43//8 44//8 45//8
f 46//8 47//8 48//8
f 49//8 50//8 51//8
f 52//8 53//8 54//8
f 55//8 56//8 57//8
f 58//8 59//8 60//8
f 61//9 62//9 63//9
f 64//10 65//10 66//10
f 67//11 68//11 69//11
f 70//12 71//12 72//12
f 73//13 74//13 75//13
f 76//14 77//14 78//14
f 79//15 80//15 81//15
f 82//16 83//16 84//16
f 85//16 86//16 87//16
f 88//15 89//15 90//15
f 91//17 92//17 93//17
f 94//18 95//18 96//18
f 97//18 98//18 99//18
f 100//17 101//17 102//17
f 103//8 104//8 105//8
f 106//8 107//8 108//8
f 109//8 110//8 111//8
f 112//8 113//8 114//8
f 115//8 116//8 117//8
f 118//19 119//19 120//19
f 121//19 122//19 123//19
f 124//20 125//20 126//20
f 127//21 128//21 129//21
f 130//22 131//22 132//22
f 133//23 134//23 135//23
