# Blender 4.5.10 LTS
# www.blender.org
mtllib iiwa_link_3_vis_1.mtl
o node
v 0.057357 0.070103 -0.046964
v 0.045544 0.084223 -0.041742
v 0.045267 0.081790 -0.028947
v 0.057357 0.070103 -0.046964
v 0.045908 0.085348 -0.058078
v 0.045544 0.084223 -0.041742
v 0.055480 0.066690 -0.017753
v 0.045267 0.081790 -0.028947
v 0.045178 0.081003 -0.024814
v 0.045178 0.081003 -0.024814
v 0.044884 0.076937 -0.010341
v 0.055480 0.066690 -0.017753
v 0.045267 0.081790 -0.028947
v 0.055480 0.066690 -0.017753
v 0.057357 0.070103 -0.046964
v 0.012184 0.098208 -0.044776
v 0.023679 0.095229 -0.042596
v 0.023855 0.096430 -0.061389
v 0.023679 0.095229 -0.042596
v 0.034675 0.090298 -0.038987
v 0.034945 0.091937 -0.057393
v 0.023513 0.091569 -0.024111
v 0.034418 0.086407 -0.020906
v 0.034675 0.090298 -0.038987
v 0.023206 0.079327 0.011533
v 0.033944 0.074178 0.014009
v 0.034418 0.086407 -0.020906
v 0.011951 0.082443 0.010038
v 0.023206 0.079327 0.011533
v 0.023513 0.091569 -0.024111
v 0.000436 0.099205 -0.045506
v 0.012184 0.098208 -0.044776
v 0.012270 0.099144 -0.063801
v 0.012102 0.094689 -0.026047
v 0.023513 0.091569 -0.024111
v 0.023679 0.095229 -0.042596
v 0.000436 0.095735 -0.026696
v 0.012102 0.094689 -0.026047
v 0.012184 0.098208 -0.044776
v 0.000436 0.083488 0.009536
v 0.011951 0.082443 0.010038
v 0.012102 0.094689 -0.026047
v 0.043923 0.077696 -0.010114
v 0.034418 0.086407 -0.020906
v 0.033944 0.074178 0.014009
v 0.034418 0.086407 -0.020906
v 0.044197 0.081811 -0.024633
v 0.044382 0.083691 -0.034349
v 0.034418 0.086407 -0.020906
v 0.044049 0.079585 -0.016779
v 0.044197 0.081811 -0.024633
v 0.034675 0.090298 -0.038987
v 0.044521 0.085102 -0.041639
v 0.044720 0.085877 -0.052249
v 0.034675 0.090298 -0.038987
v 0.044382 0.083691 -0.034349
v 0.044521 0.085102 -0.041639
v 0.034945 0.091937 -0.057393
v 0.044720 0.085877 -0.052249
v 0.044830 0.086304 -0.058095
v 0.044720 0.085877 -0.052249
v 0.034945 0.091937 -0.057393
v 0.034675 0.090298 -0.038987
v 0.044382 0.083691 -0.034349
v 0.034675 0.090298 -0.038987
v 0.034418 0.086407 -0.020906
v 0.043923 0.077696 -0.010114
v 0.044049 0.079585 -0.016779
v 0.034418 0.086407 -0.020906
v 0.012102 0.094689 -0.026047
v 0.000436 0.095735 -0.026696
v 0.000436 0.083488 0.009536
v 0.012184 0.098208 -0.044776
v 0.000436 0.099205 -0.045506
v 0.000436 0.095735 -0.026696
v 0.023679 0.095229 -0.042596
v 0.012184 0.098208 -0.044776
v 0.012102 0.094689 -0.026047
v 0.012270 0.099144 -0.063801
v 0.000436 0.100053 -0.064609
v 0.000436 0.099205 -0.045506
v 0.023513 0.091569 -0.024111
v 0.012102 0.094689 -0.026047
v 0.011951 0.082443 0.010038
v 0.034418 0.086407 -0.020906
v 0.023513 0.091569 -0.024111
v 0.023206 0.079327 0.011533
v 0.034675 0.090298 -0.038987
v 0.023679 0.095229 -0.042596
v 0.023513 0.091569 -0.024111
v 0.034945 0.091937 -0.057393
v 0.023855 0.096430 -0.061389
v 0.023679 0.095229 -0.042596
v 0.023855 0.096430 -0.061389
v 0.012270 0.099144 -0.063801
v 0.012184 0.098208 -0.044776
v 0.045178 0.081003 -0.024814
v 0.044197 0.081811 -0.024633
v 0.044049 0.079585 -0.016779
v 0.044049 0.079585 -0.016779
v 0.044884 0.076937 -0.010341
v 0.045178 0.081003 -0.024814
v 0.045544 0.084223 -0.041742
v 0.044521 0.085102 -0.041639
v 0.044382 0.083691 -0.034349
v 0.044382 0.083691 -0.034349
v 0.045267 0.081790 -0.028947
v 0.045544 0.084223 -0.041742
v 0.044197 0.081811 -0.024633
v 0.045178 0.081003 -0.024814
v 0.045267 0.081790 -0.028947
v 0.045544 0.084223 -0.041742
v 0.045908 0.085348 -0.058078
v 0.044720 0.085877 -0.052249
v 0.044720 0.085877 -0.052249
v 0.044521 0.085102 -0.041639
v 0.045544 0.084223 -0.041742
v 0.044382 0.083691 -0.034349
v 0.044197 0.081811 -0.024633
v 0.045267 0.081790 -0.028947
v 0.044049 0.079585 -0.016779
v 0.043923 0.077696 -0.010114
v 0.044884 0.076937 -0.010341
v 0.044646 0.072502 0.001885
v 0.044884 0.076937 -0.010341
v 0.043923 0.077696 -0.010114
v 0.061422 0.046673 -0.098077
v 0.047100 0.063596 -0.110420
v 0.046979 0.068720 -0.105116
v 0.061422 0.046673 -0.098077
v 0.047206 0.057363 -0.115091
v 0.047100 0.063596 -0.110420
v 0.061422 0.046673 -0.098077
v 0.047216 0.056535 -0.115533
v 0.047206 0.057363 -0.115091
v 0.060424 0.057002 -0.087998
v 0.046763 0.076131 -0.095554
v 0.046680 0.077803 -0.091957
v 0.060424 0.057002 -0.087998
v 0.046979 0.068720 -0.105116
v 0.046909 0.071718 -0.102011
v 0.046909 0.071718 -0.102011
v 0.046763 0.076131 -0.095554
v 0.060424 0.057002 -0.087998
v 0.059416 0.064479 -0.075548
v 0.046521 0.081034 -0.085007
v 0.046335 0.083228 -0.076849
v 0.059416 0.064479 -0.075548
v 0.046680 0.077803 -0.091957
v 0.046521 0.081034 -0.085007
v 0.058387 0.068732 -0.061570
v 0.046282 0.083857 -0.074509
v 0.045982 0.085288 -0.061347
v 0.058387 0.068732 -0.061570
v 0.046335 0.083228 -0.076849
v 0.046282 0.083857 -0.074509
v 0.057357 0.070103 -0.046964
v 0.045982 0.085288 -0.061347
v 0.045908 0.085348 -0.058078
v 0.045982 0.085288 -0.061347
v 0.057357 0.070103 -0.046964
v 0.058387 0.068732 -0.061570
v 0.046335 0.083228 -0.076849
v 0.058387 0.068732 -0.061570
v 0.059416 0.064479 -0.075548
v 0.046680 0.077803 -0.091957
v 0.059416 0.064479 -0.075548
v 0.060424 0.057002 -0.087998
v 0.046979 0.068720 -0.105116
v 0.060424 0.057002 -0.087998
v 0.061422 0.046673 -0.098077
v 0.047345 0.045313 -0.121532
v 0.047216 0.056535 -0.115533
v 0.061422 0.046673 -0.098077
v 0.067356 0.052831 -0.042384
v 0.058387 0.068732 -0.061570
v 0.057357 0.070103 -0.046964
v 0.070452 0.044160 -0.066598
v 0.060424 0.057002 -0.087998
v 0.059416 0.064479 -0.075548
v 0.068891 0.049817 -0.055028
v 0.059416 0.064479 -0.075548
v 0.058387 0.068732 -0.061570
v 0.024550 0.063249 -0.125334
v 0.036014 0.061262 -0.120949
v 0.036189 0.044659 -0.129031
v 0.024401 0.077756 -0.113390
v 0.035784 0.075261 -0.108954
v 0.036014 0.061262 -0.120949
v 0.024038 0.094399 -0.080089
v 0.035227 0.090534 -0.075796
v 0.035513 0.085179 -0.093433
v 0.024225 0.088324 -0.097869
v 0.035513 0.085179 -0.093433
v 0.035784 0.075261 -0.108954
v 0.023855 0.096430 -0.061389
v 0.034945 0.091937 -0.057393
v 0.035227 0.090534 -0.075796
v 0.012539 0.079265 -0.116071
v 0.024401 0.077756 -0.113390
v 0.024550 0.063249 -0.125334
v 0.012704 0.028725 -0.140708
v 0.012667 0.047181 -0.135983
v 0.024662 0.046230 -0.133362
v 0.012612 0.064451 -0.127985
v 0.024550 0.063249 -0.125334
v 0.024662 0.046230 -0.133362
v 0.000436 0.064855 -0.128874
v 0.012612 0.064451 -0.127985
v 0.012667 0.047181 -0.135983
v 0.000436 0.079771 -0.116969
v 0.012539 0.079265 -0.116071
v 0.012612 0.064451 -0.127985
v 0.012360 0.096734 -0.082682
v 0.024038 0.094399 -0.080089
v 0.024225 0.088324 -0.097869
v 0.012452 0.090226 -0.100549
v 0.024225 0.088324 -0.097869
v 0.024401 0.077756 -0.113390
v 0.012270 0.099144 -0.063801
v 0.023855 0.096430 -0.061389
v 0.024038 0.094399 -0.080089
v 0.000436 0.097516 -0.083550
v 0.012360 0.096734 -0.082682
v 0.012452 0.090226 -0.100549
v 0.000436 0.090863 -0.101446
v 0.012452 0.090226 -0.100549
v 0.012539 0.079265 -0.116071
v 0.000436 0.100053 -0.064609
v 0.012270 0.099144 -0.063801
v 0.012360 0.096734 -0.082682
v 0.035227 0.090534 -0.075796
v 0.034945 0.091937 -0.057393
v 0.044894 0.086258 -0.061396
v 0.044830 0.086304 -0.058095
v 0.044894 0.086258 -0.061396
v 0.034945 0.091937 -0.057393
v 0.035227 0.090534 -0.075796
v 0.045160 0.084865 -0.074717
v 0.045394 0.082024 -0.085379
v 0.035227 0.090534 -0.075796
v 0.045071 0.085333 -0.070245
v 0.045160 0.084865 -0.074717
v 0.045394 0.082024 -0.085379
v 0.035513 0.085179 -0.093433
v 0.035227 0.090534 -0.075796
v 0.035784 0.075261 -0.108954
v 0.035513 0.085179 -0.093433
v 0.045662 0.077024 -0.096107
v 0.035513 0.085179 -0.093433
v 0.045451 0.080967 -0.087647
v 0.045662 0.077024 -0.096107
v 0.045662 0.077024 -0.096107
v 0.045846 0.072497 -0.102665
v 0.035784 0.075261 -0.108954
v 0.035784 0.075261 -0.108954
v 0.045862 0.071996 -0.103176
v 0.046116 0.064166 -0.111145
v 0.046116 0.064166 -0.111145
v 0.036014 0.061262 -0.120949
v 0.035784 0.075261 -0.108954
v 0.036014 0.061262 -0.120949
v 0.046290 0.057794 -0.115807
v 0.046569 0.045546 -0.122150
v 0.036014 0.061262 -0.120949
v 0.046267 0.058642 -0.115186
v 0.046290 0.057794 -0.115807
v 0.046569 0.045546 -0.122150
v 0.036189 0.044659 -0.129031
v 0.036014 0.061262 -0.120949
v 0.046569 0.045546 -0.122150
v 0.046625 0.042535 -0.123157
v 0.036189 0.044659 -0.129031
v 0.046116 0.064166 -0.111145
v 0.046267 0.058642 -0.115186
v 0.036014 0.061262 -0.120949
v 0.045846 0.072497 -0.102665
v 0.045862 0.071996 -0.103176
v 0.035784 0.075261 -0.108954
v 0.045394 0.082024 -0.085379
v 0.045451 0.080967 -0.087647
v 0.035513 0.085179 -0.093433
v 0.044894 0.086258 -0.061396
v 0.045071 0.085333 -0.070245
v 0.035227 0.090534 -0.075796
v 0.012360 0.096734 -0.082682
v 0.000436 0.097516 -0.083550
v 0.000436 0.100053 -0.064609
v 0.012539 0.079265 -0.116071
v 0.000436 0.079771 -0.116969
v 0.000436 0.090863 -0.101446
v 0.012452 0.090226 -0.100549
v 0.000436 0.090863 -0.101446
v 0.000436 0.097516 -0.083550
v 0.024038 0.094399 -0.080089
v 0.012360 0.096734 -0.082682
v 0.012270 0.099144 -0.063801
v 0.024401 0.077756 -0.113390
v 0.012539 0.079265 -0.116071
v 0.012452 0.090226 -0.100549
v 0.024225 0.088324 -0.097869
v 0.012452 0.090226 -0.100549
v 0.012360 0.096734 -0.082682
v 0.012612 0.064451 -0.127985
v 0.000436 0.064855 -0.128874
v 0.000436 0.079771 -0.116969
v 0.012667 0.047181 -0.135983
v 0.000436 0.047500 -0.136861
v 0.000436 0.064855 -0.128874
v 0.024662 0.046230 -0.133362
v 0.012667 0.047181 -0.135983
v 0.012612 0.064451 -0.127985
v 0.024550 0.063249 -0.125334
v 0.012612 0.064451 -0.127985
v 0.012539 0.079265 -0.116071
v 0.035227 0.090534 -0.075796
v 0.024038 0.094399 -0.080089
v 0.023855 0.096430 -0.061389
v 0.035784 0.075261 -0.108954
v 0.024401 0.077756 -0.113390
v 0.024225 0.088324 -0.097869
v 0.035513 0.085179 -0.093433
v 0.024225 0.088324 -0.097869
v 0.024038 0.094399 -0.080089
v 0.036014 0.061262 -0.120949
v 0.024550 0.063249 -0.125334
v 0.024401 0.077756 -0.113390
v 0.036189 0.044659 -0.129031
v 0.024662 0.046230 -0.133362
v 0.024550 0.063249 -0.125334
v 0.045908 0.085348 -0.058078
v 0.044830 0.086304 -0.058095
v 0.044720 0.085877 -0.052249
v 0.044894 0.086258 -0.061396
v 0.044830 0.086304 -0.058095
v 0.045908 0.085348 -0.058078
v 0.045982 0.085288 -0.061347
v 0.046282 0.083857 -0.074509
v 0.045071 0.085333 -0.070245
v 0.046282 0.083857 -0.074509
v 0.045160 0.084865 -0.074717
v 0.045071 0.085333 -0.070245
v 0.045394 0.082024 -0.085379
v 0.045160 0.084865 -0.074717
v 0.046335 0.083228 -0.076849
v 0.045160 0.084865 -0.074717
v 0.046282 0.083857 -0.074509
v 0.046335 0.083228 -0.076849
v 0.045451 0.080967 -0.087647
v 0.046521 0.081034 -0.085007
v 0.046680 0.077803 -0.091957
v 0.046680 0.077803 -0.091957
v 0.045662 0.077024 -0.096107
v 0.045451 0.080967 -0.087647
v 0.046680 0.077803 -0.091957
v 0.046763 0.076131 -0.095554
v 0.045662 0.077024 -0.096107
v 0.045662 0.077024 -0.096107
v 0.046763 0.076131 -0.095554
v 0.046909 0.071718 -0.102011
v 0.046116 0.064166 -0.111145
v 0.045862 0.071996 -0.103176
v 0.046979 0.068720 -0.105116
v 0.046909 0.071718 -0.102011
v 0.046979 0.068720 -0.105116
v 0.045862 0.071996 -0.103176
v 0.045862 0.071996 -0.103176
v 0.045846 0.072497 -0.102665
v 0.046909 0.071718 -0.102011
v 0.047100 0.063596 -0.110420
v 0.047206 0.057363 -0.115091
v 0.046267 0.058642 -0.115186
v 0.047206 0.057363 -0.115091
v 0.046290 0.057794 -0.115807
v 0.046267 0.058642 -0.115186
v 0.046569 0.045546 -0.122150
v 0.046290 0.057794 -0.115807
v 0.047216 0.056535 -0.115533
v 0.046290 0.057794 -0.115807
v 0.047206 0.057363 -0.115091
v 0.047216 0.056535 -0.115533
v 0.047345 0.045313 -0.121532
v 0.047366 0.042128 -0.122642
v 0.046625 0.042535 -0.123157
v 0.046625 0.042535 -0.123157
v 0.046569 0.045546 -0.122150
v 0.047345 0.045313 -0.121532
v 0.047216 0.056535 -0.115533
v 0.047345 0.045313 -0.121532
v 0.046569 0.045546 -0.122150
v 0.046267 0.058642 -0.115186
v 0.046116 0.064166 -0.111145
v 0.047100 0.063596 -0.110420
v 0.046979 0.068720 -0.105116
v 0.047100 0.063596 -0.110420
v 0.046116 0.064166 -0.111145
v 0.046909 0.071718 -0.102011
v 0.045846 0.072497 -0.102665
v 0.045662 0.077024 -0.096107
v 0.045451 0.080967 -0.087647
v 0.045394 0.082024 -0.085379
v 0.046521 0.081034 -0.085007
v 0.046335 0.083228 -0.076849
v 0.046521 0.081034 -0.085007
v 0.045394 0.082024 -0.085379
v 0.045071 0.085333 -0.070245
v 0.044894 0.086258 -0.061396
v 0.045982 0.085288 -0.061347
v 0.045908 0.085348 -0.058078
v 0.045982 0.085288 -0.061347
v 0.044894 0.086258 -0.061396
v -0.055481 0.071633 -0.048491
v -0.056456 0.070200 -0.063238
v -0.065114 0.055904 -0.046210
v -0.053697 0.068236 -0.018993
v -0.044012 0.076937 -0.010342
v -0.044306 0.081003 -0.024813
v -0.055481 0.071633 -0.048491
v -0.053697 0.068236 -0.018993
v -0.044395 0.081790 -0.028947
v -0.044395 0.081790 -0.028947
v -0.044672 0.084223 -0.041740
v -0.055481 0.071633 -0.048491
v -0.044672 0.084223 -0.041740
v -0.045036 0.085348 -0.058077
v -0.055481 0.071633 -0.048491
v -0.056456 0.070200 -0.063238
v -0.055481 0.071633 -0.048491
v -0.045110 0.085288 -0.061348
v -0.045036 0.085348 -0.058077
v -0.045110 0.085288 -0.061348
v -0.055481 0.071633 -0.048491
v -0.044306 0.081003 -0.024813
v -0.044395 0.081790 -0.028947
v -0.053697 0.068236 -0.018993
v -0.043051 0.077697 -0.010114
v -0.044012 0.076937 -0.010342
v -0.043774 0.072502 0.001885
v -0.044306 0.081003 -0.024813
v -0.044012 0.076937 -0.010342
v -0.043177 0.079585 -0.016779
v -0.044012 0.076937 -0.010342
v -0.043051 0.077697 -0.010114
v -0.043177 0.079585 -0.016779
v -0.044672 0.084223 -0.041740
v -0.044395 0.081790 -0.028947
v -0.043510 0.083691 -0.034349
v -0.044395 0.081790 -0.028947
v -0.043325 0.081811 -0.024631
v -0.043510 0.083691 -0.034349
v -0.043510 0.083691 -0.034349
v -0.043649 0.085102 -0.041638
v -0.044672 0.084223 -0.041740
v -0.044672 0.084223 -0.041740
v -0.043649 0.085102 -0.041638
v -0.043848 0.085877 -0.052249
v -0.043848 0.085877 -0.052249
v -0.045036 0.085348 -0.058077
v -0.044672 0.084223 -0.041740
v -0.044022 0.086258 -0.061397
v -0.045110 0.085288 -0.061348
v -0.045036 0.085348 -0.058077
v -0.045036 0.085348 -0.058077
v -0.043958 0.086304 -0.058094
v -0.044022 0.086258 -0.061397
v -0.043848 0.085877 -0.052249
v -0.043958 0.086304 -0.058094
v -0.045036 0.085348 -0.058077
v -0.044395 0.081790 -0.028947
v -0.044306 0.081003 -0.024813
v -0.043325 0.081811 -0.024631
v -0.043177 0.079585 -0.016779
v -0.043325 0.081811 -0.024631
v -0.044306 0.081003 -0.024813
v 0.000436 0.099205 -0.045506
v 0.000436 0.100053 -0.064609
v -0.011398 0.099144 -0.063801
v -0.022807 0.095229 -0.042596
v -0.022983 0.096430 -0.061389
v -0.034073 0.091937 -0.057393
v -0.011312 0.098208 -0.044776
v -0.011398 0.099144 -0.063801
v -0.022983 0.096430 -0.061389
v 0.000436 0.083488 0.009536
v 0.000436 0.095735 -0.026696
v -0.011230 0.094689 -0.026047
v 0.000436 0.095735 -0.026696
v 0.000436 0.099205 -0.045506
v -0.011312 0.098208 -0.044776
v -0.011079 0.082443 0.010037
v -0.011230 0.094689 -0.026047
v -0.022641 0.091569 -0.024111
v -0.011230 0.094689 -0.026047
v -0.011312 0.098208 -0.044776
v -0.022807 0.095229 -0.042596
v -0.022333 0.079327 0.011533
v -0.022641 0.091569 -0.024111
v -0.033546 0.086407 -0.020906
v -0.022641 0.091569 -0.024111
v -0.022807 0.095229 -0.042596
v -0.033803 0.090298 -0.038987
v -0.034073 0.091937 -0.057393
v -0.044022 0.086258 -0.061397
v -0.043958 0.086304 -0.058094
v -0.033803 0.090298 -0.038987
v -0.034073 0.091937 -0.057393
v -0.043848 0.085877 -0.052249
v -0.043848 0.085877 -0.052249
v -0.043649 0.085102 -0.041638
v -0.033803 0.090298 -0.038987
v -0.033546 0.086407 -0.020906
v -0.033803 0.090298 -0.038987
v -0.043510 0.083691 -0.034349
v -0.043510 0.083691 -0.034349
v -0.043325 0.081811 -0.024631
v -0.033546 0.086407 -0.020906
v -0.033072 0.074178 0.014009
v -0.033546 0.086407 -0.020906
v -0.043051 0.077697 -0.010114
v -0.033546 0.086407 -0.020906
v -0.043177 0.079585 -0.016779
v -0.043051 0.077697 -0.010114
v -0.043325 0.081811 -0.024631
v -0.043177 0.079585 -0.016779
v -0.033546 0.086407 -0.020906
v -0.043649 0.085102 -0.041638
v -0.043510 0.083691 -0.034349
v -0.033803 0.090298 -0.038987
v -0.043958 0.086304 -0.058094
v -0.043848 0.085877 -0.052249
v -0.034073 0.091937 -0.057393
v -0.033803 0.090298 -0.038987
v -0.033546 0.086407 -0.020906
v -0.022641 0.091569 -0.024111
v -0.033546 0.086407 -0.020906
v -0.033072 0.074178 0.014009
v -0.022333 0.079327 0.011533
v -0.022807 0.095229 -0.042596
v -0.022641 0.091569 -0.024111
v -0.011230 0.094689 -0.026047
v -0.022641 0.091569 -0.024111
v -0.022333 0.079327 0.011533
v -0.011079 0.082443 0.010037
v -0.011312 0.098208 -0.044776
v -0.011230 0.094689 -0.026047
v 0.000436 0.095735 -0.026696
v -0.011230 0.094689 -0.026047
v -0.011079 0.082443 0.010037
v 0.000436 0.083488 0.009536
v -0.022983 0.096430 -0.061389
v -0.022807 0.095229 -0.042596
v -0.011312 0.098208 -0.044776
v -0.034073 0.091937 -0.057393
v -0.033803 0.090298 -0.038987
v -0.022807 0.095229 -0.042596
v -0.011398 0.099144 -0.063801
v -0.011312 0.098208 -0.044776
v 0.000436 0.099205 -0.045506
v -0.056456 0.070200 -0.063238
v -0.057428 0.065835 -0.077337
v -0.066565 0.052649 -0.059116
v -0.057428 0.065835 -0.077337
v -0.058378 0.058190 -0.089864
v -0.068031 0.046639 -0.070861
v -0.045110 0.085288 -0.061348
v -0.045410 0.083857 -0.074510
v -0.056456 0.070200 -0.063238
v -0.057428 0.065835 -0.077337
v -0.056456 0.070200 -0.063238
v -0.045463 0.083228 -0.076849
v -0.045463 0.083228 -0.076849
v -0.045649 0.081034 -0.085008
v -0.057428 0.065835 -0.077337
v -0.058378 0.058190 -0.089864
v -0.045891 0.076131 -0.095554
v -0.046037 0.071718 -0.102012
v -0.058378 0.058190 -0.089864
v -0.057428 0.065835 -0.077337
v -0.045808 0.077803 -0.091957
v -0.045808 0.077803 -0.091957
v -0.045891 0.076131 -0.095554
v -0.058378 0.058190 -0.089864
v -0.058378 0.058190 -0.089864
v -0.046107 0.068720 -0.105116
v -0.046228 0.063596 -0.110420
v -0.046228 0.063596 -0.110420
v -0.059313 0.047657 -0.099962
v -0.058378 0.058190 -0.089864
v -0.046228 0.063596 -0.110420
v -0.046334 0.057363 -0.115091
v -0.059313 0.047657 -0.099962
v -0.059313 0.047657 -0.099962
v -0.046344 0.056535 -0.115534
v -0.046473 0.045313 -0.121533
v -0.046334 0.057363 -0.115091
v -0.046344 0.056535 -0.115534
v -0.059313 0.047657 -0.099962
v -0.046037 0.071718 -0.102012
v -0.046107 0.068720 -0.105116
v -0.058378 0.058190 -0.089864
v -0.045649 0.081034 -0.085008
v -0.045808 0.077803 -0.091957
v -0.057428 0.065835 -0.077337
v -0.045410 0.083857 -0.074510
v -0.045463 0.083228 -0.076849
v -0.056456 0.070200 -0.063238
v -0.045110 0.085288 -0.061348
v -0.044022 0.086258 -0.061397
v -0.044199 0.085333 -0.070245
v -0.044199 0.085333 -0.070245
v -0.045410 0.083857 -0.074510
v -0.045110 0.085288 -0.061348
v -0.044522 0.082024 -0.085380
v -0.045649 0.081034 -0.085008
v -0.045463 0.083228 -0.076849
v -0.045463 0.083228 -0.076849
v -0.044288 0.084865 -0.074717
v -0.044522 0.082024 -0.085380
v -0.044579 0.080967 -0.087647
v -0.044790 0.077024 -0.096108
v -0.045808 0.077803 -0.091957
v -0.045649 0.081034 -0.085008
v -0.044522 0.082024 -0.085380
v -0.044579 0.080967 -0.087647
v -0.044790 0.077024 -0.096108
v -0.045891 0.076131 -0.095554
v -0.045808 0.077803 -0.091957
v -0.044790 0.077024 -0.096108
v -0.044974 0.072497 -0.102666
v -0.046037 0.071718 -0.102012
v -0.046037 0.071718 -0.102012
v -0.044974 0.072497 -0.102666
v -0.044990 0.071996 -0.103176
v -0.045244 0.064165 -0.111145
v -0.046228 0.063596 -0.110420
v -0.046107 0.068720 -0.105116
v -0.046107 0.068720 -0.105116
v -0.044990 0.071996 -0.103176
v -0.045244 0.064165 -0.111145
v -0.046228 0.063596 -0.110420
v -0.045244 0.064165 -0.111145
v -0.045395 0.058642 -0.115186
v -0.045395 0.058642 -0.115186
v -0.046334 0.057363 -0.115091
v -0.046228 0.063596 -0.110420
v -0.045697 0.045545 -0.122151
v -0.046473 0.045313 -0.121533
v -0.046344 0.056535 -0.115534
v -0.046344 0.056535 -0.115534
v -0.045418 0.057793 -0.115807
v -0.045697 0.045545 -0.122151
v -0.046473 0.045313 -0.121533
v -0.045697 0.045545 -0.122151
v -0.045753 0.042535 -0.123157
v -0.045753 0.042535 -0.123157
v -0.046494 0.042128 -0.122643
v -0.046473 0.045313 -0.121533
v -0.046344 0.056535 -0.115534
v -0.046334 0.057363 -0.115091
v -0.045418 0.057793 -0.115807
v -0.045395 0.058642 -0.115186
v -0.045418 0.057793 -0.115807
v -0.046334 0.057363 -0.115091
v -0.044990 0.071996 -0.103176
v -0.046107 0.068720 -0.105116
v -0.046037 0.071718 -0.102012
v -0.046037 0.071718 -0.102012
v -0.045891 0.076131 -0.095554
v -0.044790 0.077024 -0.096108
v -0.045808 0.077803 -0.091957
v -0.045649 0.081034 -0.085008
v -0.044579 0.080967 -0.087647
v -0.045463 0.083228 -0.076849
v -0.045410 0.083857 -0.074510
v -0.044288 0.084865 -0.074717
v -0.044199 0.085333 -0.070245
v -0.044288 0.084865 -0.074717
v -0.045410 0.083857 -0.074510
v 0.000436 0.079771 -0.116969
v 0.000436 0.064855 -0.128874
v -0.011740 0.064451 -0.127985
v -0.023790 0.046230 -0.133362
v 0.000436 0.047500 -0.136861
v -0.011832 0.028725 -0.140708
v -0.023790 0.046230 -0.133362
v -0.023678 0.063249 -0.125334
v -0.011740 0.064451 -0.127985
v -0.011740 0.064451 -0.127985
v 0.000436 0.047500 -0.136861
v -0.023790 0.046230 -0.133362
v -0.023678 0.063249 -0.125334
v -0.023790 0.046230 -0.133362
v -0.035317 0.044659 -0.129031
v -0.023529 0.077756 -0.113390
v -0.023678 0.063249 -0.125334
v -0.035142 0.061262 -0.120949
v 0.000436 0.097516 -0.083550
v 0.000436 0.090863 -0.101446
v -0.011580 0.090226 -0.100549
v 0.000436 0.090863 -0.101446
v 0.000436 0.079771 -0.116969
v -0.011667 0.079265 -0.116071
v -0.011667 0.079265 -0.116071
v -0.011740 0.064451 -0.127985
v -0.023678 0.063249 -0.125334
v -0.011580 0.090226 -0.100549
v -0.011667 0.079265 -0.116071
v -0.023529 0.077756 -0.113390
v -0.011488 0.096734 -0.082682
v -0.011580 0.090226 -0.100549
v -0.023352 0.088324 -0.097869
v 0.000436 0.100053 -0.064609
v 0.000436 0.097516 -0.083550
v -0.011488 0.096734 -0.082682
v -0.011398 0.099144 -0.063801
v -0.011488 0.096734 -0.082682
v -0.023166 0.094399 -0.080089
v -0.023166 0.094399 -0.080089
v -0.023352 0.088324 -0.097869
v -0.034641 0.085179 -0.093433
v -0.023352 0.088324 -0.097869
v -0.023529 0.077756 -0.113390
v -0.034912 0.075261 -0.108954
v -0.022983 0.096430 -0.061389
v -0.023166 0.094399 -0.080089
v -0.034355 0.090534 -0.075796
v 0.000436 0.028967 -0.141574
v 0.000436 0.047500 -0.136861
v 0.012667 0.047181 -0.135983
v -0.035142 0.061262 -0.120949
v -0.035317 0.044659 -0.129031
v -0.045697 0.045545 -0.122151
v -0.045697 0.045545 -0.122151
v -0.045418 0.057793 -0.115807
v -0.035142 0.061262 -0.120949
v -0.035317 0.044659 -0.129031
v -0.045753 0.042535 -0.123157
v -0.045697 0.045545 -0.122151
v -0.034912 0.075261 -0.108954
v -0.035142 0.061262 -0.120949
v -0.045244 0.064165 -0.111145
v -0.035142 0.061262 -0.120949
v -0.045395 0.058642 -0.115186
v -0.045244 0.064165 -0.111145
v -0.034912 0.075261 -0.108954
v -0.044974 0.072497 -0.102666
v -0.044790 0.077024 -0.096108
v -0.044790 0.077024 -0.096108
v -0.034641 0.085179 -0.093433
v -0.034912 0.075261 -0.108954
v -0.034912 0.075261 -0.108954
v -0.044990 0.071996 -0.103176
v -0.044974 0.072497 -0.102666
v -0.034355 0.090534 -0.075796
v -0.034641 0.085179 -0.093433
v -0.044522 0.082024 -0.085380
v -0.044522 0.082024 -0.085380
v -0.044288 0.084865 -0.074717
v -0.034355 0.090534 -0.075796
v -0.034641 0.085179 -0.093433
v -0.044579 0.080967 -0.087647
v -0.044522 0.082024 -0.085380
v -0.034355 0.090534 -0.075796
v -0.044199 0.085333 -0.070245
v -0.044022 0.086258 -0.061397
v -0.044022 0.086258 -0.061397
v -0.034073 0.091937 -0.057393
v -0.034355 0.090534 -0.075796
v -0.044288 0.084865 -0.074717
v -0.044199 0.085333 -0.070245
v -0.034355 0.090534 -0.075796
v -0.044790 0.077024 -0.096108
v -0.044579 0.080967 -0.087647
v -0.034641 0.085179 -0.093433
v -0.045244 0.064165 -0.111145
v -0.044990 0.071996 -0.103176
v -0.034912 0.075261 -0.108954
v -0.045418 0.057793 -0.115807
v -0.045395 0.058642 -0.115186
v -0.035142 0.061262 -0.120949
v -0.034355 0.090534 -0.075796
v -0.034073 0.091937 -0.057393
v -0.022983 0.096430 -0.061389
v -0.034912 0.075261 -0.108954
v -0.034641 0.085179 -0.093433
v -0.023352 0.088324 -0.097869
v -0.034641 0.085179 -0.093433
v -0.034355 0.090534 -0.075796
v -0.023166 0.094399 -0.080089
v -0.023166 0.094399 -0.080089
v -0.022983 0.096430 -0.061389
v -0.011398 0.099144 -0.063801
v -0.011488 0.096734 -0.082682
v -0.011398 0.099144 -0.063801
v 0.000436 0.100053 -0.064609
v -0.023352 0.088324 -0.097869
v -0.023166 0.094399 -0.080089
v -0.011488 0.096734 -0.082682
v -0.023529 0.077756 -0.113390
v -0.023352 0.088324 -0.097869
v -0.011580 0.090226 -0.100549
v -0.023678 0.063249 -0.125334
v -0.023529 0.077756 -0.113390
v -0.011667 0.079265 -0.116071
v -0.011667 0.079265 -0.116071
v -0.011580 0.090226 -0.100549
v 0.000436 0.090863 -0.101446
v -0.011580 0.090226 -0.100549
v -0.011488 0.096734 -0.082682
v 0.000436 0.097516 -0.083550
v -0.035142 0.061262 -0.120949
v -0.034912 0.075261 -0.108954
v -0.023529 0.077756 -0.113390
v -0.035317 0.044659 -0.129031
v -0.035142 0.061262 -0.120949
v -0.023678 0.063249 -0.125334
v -0.011740 0.064451 -0.127985
v 0.000436 0.064855 -0.128874
v 0.000436 0.047500 -0.136861
v -0.011740 0.064451 -0.127985
v -0.011667 0.079265 -0.116071
v 0.000436 0.079771 -0.116969
v 0.067356 0.052831 -0.042384
v 0.071813 0.036314 -0.021415
v 0.073690 0.034614 -0.032626
v 0.065871 0.053511 -0.029326
v 0.070089 0.036228 -0.010003
v 0.071813 0.036314 -0.021415
v 0.057357 0.070103 -0.046964
v 0.065871 0.053511 -0.029326
v 0.067356 0.052831 -0.042384
v 0.055480 0.066690 -0.017753
v 0.063285 0.049814 -0.003327
v 0.065871 0.053511 -0.029326
v 0.054072 0.058199 0.010561
v 0.061482 0.041829 0.021868
v 0.063285 0.049814 -0.003327
v 0.055480 0.066690 -0.017753
v 0.044884 0.076937 -0.010341
v 0.044646 0.072502 0.001885
v 0.044005 0.058403 0.036086
v 0.043586 0.047450 0.059557
v 0.051789 0.044211 0.047470
v 0.054072 0.058199 0.010561
v 0.044444 0.068725 0.012297
v 0.044005 0.058403 0.036086
v 0.054072 0.058199 0.010561
v 0.044646 0.072502 0.001885
v 0.044444 0.068725 0.012297
v 0.044005 0.058403 0.036086
v 0.053122 0.043576 0.045099
v 0.054072 0.058199 0.010561
v 0.055919 0.042243 0.040127
v 0.061160 0.039096 0.028381
v 0.061482 0.041829 0.021868
v 0.054072 0.058199 0.010561
v 0.053122 0.043576 0.045099
v 0.055919 0.042243 0.040127
v 0.061482 0.041829 0.021868
v 0.061160 0.039096 0.028381
v 0.061717 0.038762 0.027132
v 0.064522 0.036593 0.019039
v 0.063285 0.049814 -0.003327
v 0.061482 0.041829 0.021868
v 0.061482 0.041829 0.021868
v 0.062631 0.038055 0.024495
v 0.064522 0.036593 0.019039
v 0.063285 0.049814 -0.003327
v 0.068126 0.033011 0.005669
v 0.070089 0.036228 -0.010003
v 0.063285 0.049814 -0.003327
v 0.066941 0.034189 0.010067
v 0.068126 0.033011 0.005669
v 0.070089 0.036228 -0.010003
v 0.068126 0.033011 0.005669
v 0.069663 0.031483 -0.000031
v 0.069663 0.031483 -0.000031
v 0.070331 0.030727 -0.002854
v 0.070089 0.036228 -0.010003
v 0.074291 0.026105 -0.020104
v 0.071813 0.036314 -0.021415
v 0.070089 0.036228 -0.010003
v 0.074291 0.026105 -0.020104
v 0.073690 0.034614 -0.032626
v 0.071813 0.036314 -0.021415
v 0.073690 0.034614 -0.032626
v 0.074431 0.025942 -0.020712
v 0.076456 0.023280 -0.030644
v 0.073690 0.034614 -0.032626
v 0.074291 0.026105 -0.020104
v 0.074431 0.025942 -0.020712
v 0.075679 0.030850 -0.043219
v 0.076456 0.023280 -0.030644
v 0.077747 0.021585 -0.036972
v 0.076456 0.023280 -0.030644
v 0.075679 0.030850 -0.043219
v 0.073690 0.034614 -0.032626
v 0.070089 0.036228 -0.010003
v 0.070519 0.030508 -0.003672
v 0.074291 0.026105 -0.020104
v 0.070331 0.030727 -0.002854
v 0.070519 0.030508 -0.003672
v 0.070089 0.036228 -0.010003
v 0.070089 0.036228 -0.010003
v 0.065871 0.053511 -0.029326
v 0.063285 0.049814 -0.003327
v 0.064522 0.036593 0.019039
v 0.066941 0.034189 0.010067
v 0.063285 0.049814 -0.003327
v 0.061717 0.038762 0.027132
v 0.062631 0.038055 0.024495
v 0.061482 0.041829 0.021868
v 0.061482 0.041829 0.021868
v 0.054072 0.058199 0.010561
v 0.055919 0.042243 0.040127
v 0.051789 0.044211 0.047470
v 0.053122 0.043576 0.045099
v 0.044005 0.058403 0.036086
v 0.044646 0.072502 0.001885
v 0.054072 0.058199 0.010561
v 0.055480 0.066690 -0.017753
v 0.063285 0.049814 -0.003327
v 0.055480 0.066690 -0.017753
v 0.054072 0.058199 0.010561
v 0.065871 0.053511 -0.029326
v 0.057357 0.070103 -0.046964
v 0.055480 0.066690 -0.017753
v 0.071813 0.036314 -0.021415
v 0.067356 0.052831 -0.042384
v 0.065871 0.053511 -0.029326
v -0.010848 0.051869 0.076052
v -0.004243 0.052175 0.077194
v 0.000436 0.083488 0.009536
v -0.004243 0.052175 0.077194
v 0.000176 0.052229 0.077393
v 0.000436 0.083488 0.009536
v 0.000436 0.083488 0.009536
v 0.009493 0.052028 0.076645
v 0.011719 0.051900 0.076165
v 0.000436 0.083488 0.009536
v 0.000436 0.052223 0.077372
v 0.009493 0.052028 0.076645
v 0.011951 0.082443 0.010038
v 0.015064 0.051706 0.075442
v 0.022757 0.050973 0.072707
v 0.011951 0.082443 0.010038
v 0.011719 0.051900 0.076165
v 0.015064 0.051706 0.075442
v 0.043075 0.059043 0.036369
v 0.043413 0.067411 0.017187
v 0.033944 0.074178 0.014009
v 0.040806 0.048125 0.062076
v 0.042719 0.047700 0.060492
v 0.043075 0.059043 0.036369
v 0.023206 0.079327 0.011533
v 0.022757 0.050973 0.072707
v 0.024574 0.050800 0.072061
v 0.024574 0.050800 0.072061
v 0.031741 0.049807 0.068353
v 0.023206 0.079327 0.011533
v 0.031741 0.049807 0.068353
v 0.040806 0.048125 0.062076
v 0.023206 0.079327 0.011533
v 0.043075 0.059043 0.036369
v 0.023206 0.079327 0.011533
v 0.040806 0.048125 0.062076
v 0.033944 0.074178 0.014009
v 0.043494 0.069425 0.012568
v 0.043923 0.077696 -0.010114
v 0.033944 0.074178 0.014009
v 0.043413 0.067411 0.017187
v 0.043494 0.069425 0.012568
v 0.033944 0.074178 0.014009
v 0.023206 0.079327 0.011533
v 0.043075 0.059043 0.036369
v 0.022757 0.050973 0.072707
v 0.023206 0.079327 0.011533
v 0.011951 0.082443 0.010038
v 0.011719 0.051900 0.076165
v 0.011951 0.082443 0.010038
v 0.000436 0.083488 0.009536
v 0.000176 0.052229 0.077393
v 0.000436 0.052223 0.077372
v 0.000436 0.083488 0.009536
v 0.044005 0.058403 0.036086
v 0.044444 0.068725 0.012297
v 0.043413 0.067411 0.017187
v 0.044444 0.068725 0.012297
v 0.043494 0.069425 0.012568
v 0.043413 0.067411 0.017187
v 0.043923 0.077696 -0.010114
v 0.043494 0.069425 0.012568
v 0.044646 0.072502 0.001885
v 0.043494 0.069425 0.012568
v 0.044444 0.068725 0.012297
v 0.044646 0.072502 0.001885
v 0.043075 0.059043 0.036369
v 0.042719 0.047700 0.060492
v 0.043586 0.047450 0.059557
v 0.043586 0.047450 0.059557
v 0.044005 0.058403 0.036086
v 0.043075 0.059043 0.036369
v 0.043413 0.067411 0.017187
v 0.043075 0.059043 0.036369
v 0.044005 0.058403 0.036086
v 0.070452 0.044160 -0.066598
v 0.075679 0.030850 -0.043219
v 0.077729 0.024981 -0.052699
v 0.072038 0.036028 -0.076425
v 0.077729 0.024981 -0.052699
v 0.079728 0.017201 -0.060673
v 0.068891 0.049817 -0.055028
v 0.073690 0.034614 -0.032626
v 0.075679 0.030850 -0.043219
v 0.060424 0.057002 -0.087998
v 0.070452 0.044160 -0.066598
v 0.072038 0.036028 -0.076425
v 0.073591 0.025953 -0.084198
v 0.074994 0.014494 -0.089942
v 0.069734 0.017712 -0.100716
v 0.069734 0.017712 -0.100716
v 0.062384 0.034359 -0.105558
v 0.073591 0.025953 -0.084198
v 0.061422 0.046673 -0.098077
v 0.072038 0.036028 -0.076425
v 0.073591 0.025953 -0.084198
v 0.058387 0.068732 -0.061570
v 0.067356 0.052831 -0.042384
v 0.068891 0.049817 -0.055028
v 0.059416 0.064479 -0.075548
v 0.068891 0.049817 -0.055028
v 0.070452 0.044160 -0.066598
v 0.055671 0.023882 -0.119750
v 0.047451 0.026693 -0.127131
v 0.047430 0.032793 -0.125896
v 0.062384 0.034359 -0.105558
v 0.063247 0.020842 -0.110720
v 0.055671 0.023882 -0.119750
v 0.055671 0.023882 -0.119750
v 0.047366 0.042128 -0.122642
v 0.062384 0.034359 -0.105558
v 0.061422 0.046673 -0.098077
v 0.062384 0.034359 -0.105558
v 0.047345 0.045313 -0.121532
v 0.062384 0.034359 -0.105558
v 0.047366 0.042128 -0.122642
v 0.047345 0.045313 -0.121532
v 0.075679 0.030850 -0.043219
v 0.077747 0.021585 -0.036972
v 0.078519 0.020032 -0.042767
v 0.077729 0.024981 -0.052699
v 0.079780 0.017497 -0.052230
v 0.080112 0.016048 -0.057635
v 0.077729 0.024981 -0.052699
v 0.078519 0.020032 -0.042767
v 0.079780 0.017497 -0.052230
v 0.079728 0.017201 -0.060673
v 0.080112 0.016048 -0.057635
v 0.080180 0.015748 -0.058757
v 0.073591 0.025953 -0.084198
v 0.079974 0.012461 -0.071024
v 0.079092 0.010734 -0.077468
v 0.073591 0.025953 -0.084198
v 0.079728 0.017201 -0.060673
v 0.080119 0.014775 -0.062385
v 0.080119 0.014775 -0.062385
v 0.079974 0.012461 -0.071024
v 0.073591 0.025953 -0.084198
v 0.074994 0.014494 -0.089942
v 0.078358 0.009294 -0.082841
v 0.076926 0.007701 -0.088788
v 0.074994 0.014494 -0.089942
v 0.079092 0.010734 -0.077468
v 0.078358 0.009294 -0.082841
v 0.069734 0.017712 -0.100716
v 0.074994 0.014494 -0.089942
v 0.075604 0.006702 -0.092514
v 0.075604 0.006702 -0.092514
v 0.073167 0.004863 -0.099380
v 0.069734 0.017712 -0.100716
v 0.063247 0.020842 -0.110720
v 0.069734 0.017712 -0.100716
v 0.070559 0.003526 -0.104369
v 0.070559 0.003526 -0.104369
v 0.068018 0.002224 -0.109229
v 0.063247 0.020842 -0.110720
v 0.055671 0.023882 -0.119750
v 0.063247 0.020842 -0.110720
v 0.064115 0.000720 -0.114840
v 0.064115 0.000720 -0.114840
v 0.063184 0.000361 -0.116179
v 0.055671 0.023882 -0.119750
v 0.056277 -0.001689 -0.123831
v 0.047499 0.001283 -0.131022
v 0.047496 0.014277 -0.129646
v 0.047496 0.014277 -0.129646
v 0.055671 0.023882 -0.119750
v 0.056277 -0.001689 -0.123831
v 0.047499 0.001283 -0.131022
v 0.056277 -0.001689 -0.123831
v 0.055676 -0.001867 -0.124497
v 0.055676 -0.001867 -0.124497
v 0.047505 -0.003703 -0.131347
v 0.047499 0.001283 -0.131022
v 0.047496 0.014277 -0.129646
v 0.047451 0.026693 -0.127131
v 0.055671 0.023882 -0.119750
v 0.063184 0.000361 -0.116179
v 0.056277 -0.001689 -0.123831
v 0.055671 0.023882 -0.119750
v 0.068018 0.002224 -0.109229
v 0.064115 0.000720 -0.114840
v 0.063247 0.020842 -0.110720
v 0.073167 0.004863 -0.099380
v 0.070559 0.003526 -0.104369
v 0.069734 0.017712 -0.100716
v 0.076926 0.007701 -0.088788
v 0.075604 0.006702 -0.092514
v 0.074994 0.014494 -0.089942
v 0.079092 0.010734 -0.077468
v 0.074994 0.014494 -0.089942
v 0.073591 0.025953 -0.084198
v 0.080180 0.015748 -0.058757
v 0.080119 0.014775 -0.062385
v 0.079728 0.017201 -0.060673
v 0.080112 0.016048 -0.057635
v 0.079728 0.017201 -0.060673
v 0.077729 0.024981 -0.052699
v 0.078519 0.020032 -0.042767
v 0.077729 0.024981 -0.052699
v 0.075679 0.030850 -0.043219
v 0.047430 0.032793 -0.125896
v 0.047366 0.042128 -0.122642
v 0.055671 0.023882 -0.119750
v 0.073591 0.025953 -0.084198
v 0.062384 0.034359 -0.105558
v 0.061422 0.046673 -0.098077
v 0.069734 0.017712 -0.100716
v 0.063247 0.020842 -0.110720
v 0.062384 0.034359 -0.105558
v 0.072038 0.036028 -0.076425
v 0.061422 0.046673 -0.098077
v 0.060424 0.057002 -0.087998
v 0.075679 0.030850 -0.043219
v 0.070452 0.044160 -0.066598
v 0.068891 0.049817 -0.055028
v 0.073690 0.034614 -0.032626
v 0.068891 0.049817 -0.055028
v 0.067356 0.052831 -0.042384
v 0.079728 0.017201 -0.060673
v 0.073591 0.025953 -0.084198
v 0.072038 0.036028 -0.076425
v 0.077729 0.024981 -0.052699
v 0.072038 0.036028 -0.076425
v 0.070452 0.044160 -0.066598
v 0.024662 0.046230 -0.133362
v 0.024740 0.028004 -0.138126
v 0.012704 0.028725 -0.140708
v 0.046804 0.032905 -0.126377
v 0.046912 0.025165 -0.127865
v 0.036313 0.026813 -0.133862
v 0.046804 0.032905 -0.126377
v 0.024740 0.028004 -0.138126
v 0.036189 0.044659 -0.129031
v 0.024740 0.028004 -0.138126
v 0.024662 0.046230 -0.133362
v 0.036189 0.044659 -0.129031
v 0.036189 0.044659 -0.129031
v 0.046625 0.042535 -0.123157
v 0.046804 0.032905 -0.126377
v 0.047165 0.001294 -0.131247
v 0.047200 -0.003758 -0.131553
v 0.036810 -0.005237 -0.137073
v 0.036423 -0.005276 -0.137216
v 0.036313 0.026813 -0.133862
v 0.047064 0.014309 -0.129952
v 0.047064 0.014309 -0.129952
v 0.047165 0.001294 -0.131247
v 0.036423 -0.005276 -0.137216
v 0.036313 0.026813 -0.133862
v 0.046912 0.025165 -0.127865
v 0.047064 0.014309 -0.129952
v 0.024740 0.028004 -0.138126
v 0.036313 0.026813 -0.133862
v 0.036423 -0.005276 -0.137216
v 0.036423 -0.005276 -0.137216
v 0.025779 -0.006329 -0.141149
v 0.024740 0.028004 -0.138126
v 0.024740 0.028004 -0.138126
v 0.024807 -0.006398 -0.141406
v 0.020806 -0.006681 -0.142462
v 0.020806 -0.006681 -0.142462
v 0.012704 0.028725 -0.140708
v 0.024740 0.028004 -0.138126
v 0.000436 0.028967 -0.141574
v 0.012704 0.028725 -0.140708
v 0.009065 -0.007197 -0.144389
v 0.012704 0.028725 -0.140708
v 0.012713 -0.007037 -0.143790
v 0.009065 -0.007197 -0.144389
v 0.020806 -0.006681 -0.142462
v 0.012713 -0.007037 -0.143790
v 0.012704 0.028725 -0.140708
v 0.025779 -0.006329 -0.141149
v 0.024807 -0.006398 -0.141406
v 0.024740 0.028004 -0.138126
v 0.036810 -0.005237 -0.137073
v 0.036423 -0.005276 -0.137216
v 0.047165 0.001294 -0.131247
v 0.036313 0.026813 -0.133862
v 0.024740 0.028004 -0.138126
v 0.046804 0.032905 -0.126377
v 0.012667 0.047181 -0.135983
v 0.012704 0.028725 -0.140708
v 0.000436 0.028967 -0.141574
v 0.046804 0.032905 -0.126377
v 0.046625 0.042535 -0.123157
v 0.047366 0.042128 -0.122642
v 0.047366 0.042128 -0.122642
v 0.047430 0.032793 -0.125896
v 0.046804 0.032905 -0.126377
v 0.047496 0.014277 -0.129646
v 0.047064 0.014309 -0.129952
v 0.046912 0.025165 -0.127865
v 0.046804 0.032905 -0.126377
v 0.047430 0.032793 -0.125896
v 0.047451 0.026693 -0.127131
v 0.047451 0.026693 -0.127131
v 0.046912 0.025165 -0.127865
v 0.046804 0.032905 -0.126377
v 0.047064 0.014309 -0.129952
v 0.047496 0.014277 -0.129646
v 0.047499 0.001283 -0.131022
v 0.047165 0.001294 -0.131247
v 0.047499 0.001283 -0.131022
v 0.047505 -0.003703 -0.131347
v 0.047505 -0.003703 -0.131347
v 0.047200 -0.003758 -0.131553
v 0.047165 0.001294 -0.131247
v 0.047499 0.001283 -0.131022
v 0.047165 0.001294 -0.131247
v 0.047064 0.014309 -0.129952
v 0.046912 0.025165 -0.127865
v 0.047451 0.026693 -0.127131
v 0.047496 0.014277 -0.129646
v -0.061209 0.053094 -0.006220
v -0.063699 0.056722 -0.032850
v -0.068471 0.041194 -0.015589
v -0.065114 0.055904 -0.046210
v -0.066565 0.052649 -0.059116
v -0.071947 0.038977 -0.039102
v -0.063699 0.056722 -0.032850
v -0.065114 0.055904 -0.046210
v -0.070150 0.041057 -0.027476
v -0.053697 0.068236 -0.018993
v -0.055481 0.071633 -0.048491
v -0.063699 0.056722 -0.032850
v -0.052348 0.059685 0.009595
v -0.053697 0.068236 -0.018993
v -0.061209 0.053094 -0.006220
v -0.053697 0.068236 -0.018993
v -0.052348 0.059685 0.009595
v -0.043774 0.072502 0.001885
v -0.043774 0.072502 0.001885
v -0.044012 0.076937 -0.010342
v -0.053697 0.068236 -0.018993
v -0.077634 0.020030 -0.042776
v -0.077074 0.021276 -0.038125
v -0.073828 0.034670 -0.049981
v -0.071947 0.038977 -0.039102
v -0.073828 0.034670 -0.049981
v -0.075583 0.023257 -0.030730
v -0.075583 0.023257 -0.030730
v -0.073607 0.025884 -0.020926
v -0.071947 0.038977 -0.039102
v -0.073435 0.026082 -0.020189
v -0.069804 0.030246 -0.004648
v -0.068471 0.041194 -0.015589
v -0.068471 0.041194 -0.015589
v -0.070150 0.041057 -0.027476
v -0.073435 0.026082 -0.020189
v -0.068471 0.041194 -0.015589
v -0.069804 0.030246 -0.004648
v -0.067362 0.033046 0.005803
v -0.067362 0.033046 0.005803
v -0.065675 0.037185 0.007969
v -0.068471 0.041194 -0.015589
v -0.065675 0.037185 0.007969
v -0.066119 0.034303 0.010493
v -0.065539 0.034889 0.012681
v -0.059450 0.045030 0.019595
v -0.061209 0.053094 -0.006220
v -0.065675 0.037185 0.007969
v -0.065675 0.037185 0.007969
v -0.065104 0.035250 0.014028
v -0.059450 0.045030 0.019595
v -0.059450 0.045030 0.019595
v -0.061736 0.038045 0.024456
v -0.061034 0.038627 0.026631
v -0.056574 0.041426 0.037076
v -0.052348 0.059685 0.009595
v -0.059450 0.045030 0.019595
v -0.059450 0.045030 0.019595
v -0.058919 0.039955 0.031586
v -0.056574 0.041426 0.037076
v -0.052348 0.059685 0.009595
v -0.051404 0.043911 0.046350
v -0.043133 0.058403 0.036086
v -0.043133 0.058403 0.036086
v -0.043572 0.068726 0.012297
v -0.052348 0.059685 0.009595
v -0.043133 0.058403 0.036086
v -0.051404 0.043911 0.046350
v -0.049556 0.044799 0.049663
v -0.049556 0.044799 0.049663
v -0.042714 0.047450 0.059557
v -0.043133 0.058403 0.036086
v -0.043572 0.068726 0.012297
v -0.043774 0.072502 0.001885
v -0.052348 0.059685 0.009595
v -0.056574 0.041426 0.037076
v -0.051404 0.043911 0.046350
v -0.052348 0.059685 0.009595
v -0.061034 0.038627 0.026631
v -0.058919 0.039955 0.031586
v -0.059450 0.045030 0.019595
v -0.065104 0.035250 0.014028
v -0.061736 0.038045 0.024456
v -0.059450 0.045030 0.019595
v -0.065539 0.034889 0.012681
v -0.065104 0.035250 0.014028
v -0.065675 0.037185 0.007969
v -0.067362 0.033046 0.005803
v -0.066119 0.034303 0.010493
v -0.065675 0.037185 0.007969
v -0.070150 0.041057 -0.027476
v -0.071947 0.038977 -0.039102
v -0.073435 0.026082 -0.020189
v -0.073607 0.025884 -0.020926
v -0.073435 0.026082 -0.020189
v -0.071947 0.038977 -0.039102
v -0.077074 0.021276 -0.038125
v -0.075583 0.023257 -0.030730
v -0.073828 0.034670 -0.049981
v -0.061209 0.053094 -0.006220
v -0.059450 0.045030 0.019595
v -0.052348 0.059685 0.009595
v -0.063699 0.056722 -0.032850
v -0.061209 0.053094 -0.006220
v -0.053697 0.068236 -0.018993
v -0.065114 0.055904 -0.046210
v -0.063699 0.056722 -0.032850
v -0.055481 0.071633 -0.048491
v -0.070150 0.041057 -0.027476
v -0.068471 0.041194 -0.015589
v -0.063699 0.056722 -0.032850
v -0.073828 0.034670 -0.049981
v -0.071947 0.038977 -0.039102
v -0.066565 0.052649 -0.059116
v -0.071947 0.038977 -0.039102
v -0.070150 0.041057 -0.027476
v -0.065114 0.055904 -0.046210
v -0.068471 0.041194 -0.015589
v -0.065675 0.037185 0.007969
v -0.061209 0.053094 -0.006220
v -0.043133 0.058403 0.036086
v -0.042203 0.059043 0.036369
v -0.042541 0.067411 0.017187
v -0.042541 0.067411 0.017187
v -0.043572 0.068726 0.012297
v -0.043133 0.058403 0.036086
v -0.043774 0.072502 0.001885
v -0.042622 0.069425 0.012568
v -0.043051 0.077697 -0.010114
v -0.042203 0.059043 0.036369
v -0.043133 0.058403 0.036086
v -0.042714 0.047450 0.059557
v -0.042714 0.047450 0.059557
v -0.041847 0.047700 0.060492
v -0.042203 0.059043 0.036369
v -0.043774 0.072502 0.001885
v -0.043572 0.068726 0.012297
v -0.042622 0.069425 0.012568
v -0.042541 0.067411 0.017187
v -0.042622 0.069425 0.012568
v -0.043572 0.068726 0.012297
v -0.043051 0.077697 -0.010114
v -0.042622 0.069425 0.012568
v -0.033072 0.074178 0.014009
v -0.022333 0.079327 0.011533
v -0.024046 0.050759 0.071906
v -0.022915 0.050892 0.072406
v -0.033266 0.049411 0.066876
v -0.022333 0.079327 0.011533
v -0.042203 0.059043 0.036369
v -0.042203 0.059043 0.036369
v -0.041847 0.047700 0.060492
v -0.033266 0.049411 0.066876
v -0.033266 0.049411 0.066876
v -0.024046 0.050759 0.071906
v -0.022333 0.079327 0.011533
v -0.042203 0.059043 0.036369
v -0.022333 0.079327 0.011533
v -0.033072 0.074178 0.014009
v -0.033072 0.074178 0.014009
v -0.042541 0.067411 0.017187
v -0.042203 0.059043 0.036369
v -0.011079 0.082443 0.010037
v -0.022333 0.079327 0.011533
v -0.021884 0.050988 0.072761
v -0.021884 0.050988 0.072761
v -0.013852 0.051730 0.075532
v -0.011079 0.082443 0.010037
v 0.000436 0.083488 0.009536
v -0.011079 0.082443 0.010037
v -0.010848 0.051869 0.076052
v -0.013852 0.051730 0.075532
v -0.010848 0.051869 0.076052
v -0.011079 0.082443 0.010037
v -0.022915 0.050892 0.072406
v -0.021884 0.050988 0.072761
v -0.022333 0.079327 0.011533
v -0.042622 0.069425 0.012568
v -0.042541 0.067411 0.017187
v -0.033072 0.074178 0.014009
v -0.068031 0.046639 -0.070861
v -0.069514 0.038085 -0.080744
v -0.075759 0.028152 -0.059569
v -0.069514 0.038085 -0.080744
v -0.070966 0.027579 -0.088468
v -0.077648 0.019716 -0.067495
v -0.066565 0.052649 -0.059116
v -0.068031 0.046639 -0.070861
v -0.073828 0.034670 -0.049981
v -0.058378 0.058190 -0.089864
v -0.059313 0.047657 -0.099962
v -0.069514 0.038085 -0.080744
v -0.060212 0.035134 -0.107411
v -0.061016 0.021425 -0.112514
v -0.072277 0.015725 -0.094108
v -0.059313 0.047657 -0.099962
v -0.060212 0.035134 -0.107411
v -0.070966 0.027579 -0.088468
v -0.046473 0.045313 -0.121533
v -0.060212 0.035134 -0.107411
v -0.059313 0.047657 -0.099962
v -0.061016 0.021425 -0.112514
v -0.060212 0.035134 -0.107411
v -0.046558 0.032792 -0.125896
v -0.060212 0.035134 -0.107411
v -0.046494 0.042128 -0.122643
v -0.046558 0.032792 -0.125896
v -0.061016 0.021425 -0.112514
v -0.046579 0.026693 -0.127131
v -0.046624 0.014276 -0.129646
v -0.046624 0.014276 -0.129646
v -0.061665 0.007059 -0.115725
v -0.061016 0.021425 -0.112514
v -0.046627 0.001282 -0.131022
v -0.046633 -0.003703 -0.131347
v -0.055255 -0.001751 -0.124061
v -0.046627 0.001282 -0.131022
v -0.061847 0.000237 -0.116643
v -0.061665 0.007059 -0.115725
v -0.061665 0.007059 -0.115725
v -0.046624 0.010842 -0.130010
v -0.046627 0.001282 -0.131022
v -0.061665 0.007059 -0.115725
v -0.065092 0.001379 -0.112382
v -0.070793 0.003993 -0.102626
v -0.061665 0.007059 -0.115725
v -0.061847 0.000237 -0.116643
v -0.062666 0.000484 -0.115722
v -0.062666 0.000484 -0.115722
v -0.065092 0.001379 -0.112382
v -0.061665 0.007059 -0.115725
v -0.061016 0.021425 -0.112514
v -0.070833 0.004019 -0.102528
v -0.072995 0.005450 -0.097189
v -0.061016 0.021425 -0.112514
v -0.061665 0.007059 -0.115725
v -0.070833 0.004019 -0.102528
v -0.072277 0.015725 -0.094108
v -0.075046 0.006807 -0.092124
v -0.076136 0.007780 -0.088492
v -0.072277 0.015725 -0.094108
v -0.072995 0.005450 -0.097189
v -0.075046 0.006807 -0.092124
v -0.070966 0.027579 -0.088468
v -0.078566 0.011041 -0.076321
v -0.078827 0.012143 -0.072208
v -0.070966 0.027579 -0.088468
v -0.072277 0.015725 -0.094108
v -0.078374 0.010783 -0.077283
v -0.078374 0.010783 -0.077283
v -0.078566 0.011041 -0.076321
v -0.070966 0.027579 -0.088468
v -0.077648 0.019716 -0.067495
v -0.078827 0.012143 -0.072208
v -0.079388 0.014512 -0.063368
v -0.075759 0.028152 -0.059569
v -0.077648 0.019716 -0.067495
v -0.079208 0.016029 -0.057705
v -0.079208 0.016029 -0.057705
v -0.079127 0.016713 -0.055156
v -0.075759 0.028152 -0.059569
v -0.073828 0.034670 -0.049981
v -0.075759 0.028152 -0.059569
v -0.077634 0.020030 -0.042776
v -0.079127 0.016713 -0.055156
v -0.077634 0.020030 -0.042776
v -0.075759 0.028152 -0.059569
v -0.079388 0.014512 -0.063368
v -0.079208 0.016029 -0.057705
v -0.077648 0.019716 -0.067495
v -0.078827 0.012143 -0.072208
v -0.077648 0.019716 -0.067495
v -0.070966 0.027579 -0.088468
v -0.076136 0.007780 -0.088492
v -0.078374 0.010783 -0.077283
v -0.072277 0.015725 -0.094108
v -0.072995 0.005450 -0.097189
v -0.072277 0.015725 -0.094108
v -0.061016 0.021425 -0.112514
v -0.070793 0.003993 -0.102626
v -0.070833 0.004019 -0.102528
v -0.061665 0.007059 -0.115725
v -0.055255 -0.001751 -0.124061
v -0.061847 0.000237 -0.116643
v -0.046627 0.001282 -0.131022
v -0.046624 0.014276 -0.129646
v -0.046624 0.010842 -0.130010
v -0.061665 0.007059 -0.115725
v -0.046558 0.032792 -0.125896
v -0.046579 0.026693 -0.127131
v -0.061016 0.021425 -0.112514
v -0.046473 0.045313 -0.121533
v -0.046494 0.042128 -0.122643
v -0.060212 0.035134 -0.107411
v -0.068031 0.046639 -0.070861
v -0.066565 0.052649 -0.059116
v -0.057428 0.065835 -0.077337
v -0.066565 0.052649 -0.059116
v -0.065114 0.055904 -0.046210
v -0.056456 0.070200 -0.063238
v -0.070966 0.027579 -0.088468
v -0.069514 0.038085 -0.080744
v -0.059313 0.047657 -0.099962
v -0.072277 0.015725 -0.094108
v -0.070966 0.027579 -0.088468
v -0.060212 0.035134 -0.107411
v -0.069514 0.038085 -0.080744
v -0.068031 0.046639 -0.070861
v -0.058378 0.058190 -0.089864
v -0.077648 0.019716 -0.067495
v -0.075759 0.028152 -0.059569
v -0.069514 0.038085 -0.080744
v -0.075759 0.028152 -0.059569
v -0.073828 0.034670 -0.049981
v -0.068031 0.046639 -0.070861
v -0.045932 0.032905 -0.126377
v -0.046558 0.032792 -0.125896
v -0.046494 0.042128 -0.122643
v -0.046494 0.042128 -0.122643
v -0.045753 0.042535 -0.123157
v -0.045932 0.032905 -0.126377
v -0.045932 0.032905 -0.126377
v -0.046040 0.025165 -0.127865
v -0.046579 0.026693 -0.127131
v -0.046624 0.014276 -0.129646
v -0.046579 0.026693 -0.127131
v -0.046040 0.025165 -0.127865
v -0.046040 0.025165 -0.127865
v -0.046192 0.014309 -0.129953
v -0.046624 0.014276 -0.129646
v -0.046293 0.001294 -0.131247
v -0.046627 0.001282 -0.131022
v -0.046624 0.010842 -0.130010
v -0.046624 0.010842 -0.130010
v -0.046192 0.014309 -0.129953
v -0.046293 0.001294 -0.131247
v -0.046293 0.001294 -0.131247
v -0.046328 -0.003758 -0.131553
v -0.046633 -0.003703 -0.131347
v -0.046633 -0.003703 -0.131347
v -0.046627 0.001282 -0.131022
v -0.046293 0.001294 -0.131247
v -0.046624 0.010842 -0.130010
v -0.046624 0.014276 -0.129646
v -0.046192 0.014309 -0.129953
v -0.046579 0.026693 -0.127131
v -0.046558 0.032792 -0.125896
v -0.045932 0.032905 -0.126377
v 0.000436 0.047500 -0.136861
v 0.000436 0.028967 -0.141574
v -0.011832 0.028725 -0.140708
v -0.045932 0.032905 -0.126377
v -0.045753 0.042535 -0.123157
v -0.035317 0.044659 -0.129031
v -0.035317 0.044659 -0.129031
v -0.023868 0.028004 -0.138126
v -0.045932 0.032905 -0.126377
v -0.045932 0.032905 -0.126377
v -0.023868 0.028004 -0.138126
v -0.035441 0.026813 -0.133862
v -0.035441 0.026813 -0.133862
v -0.046040 0.025165 -0.127865
v -0.045932 0.032905 -0.126377
v 0.000436 0.028967 -0.141574
v 0.000042 -0.007309 -0.144804
v -0.008032 -0.007202 -0.144404
v -0.008032 -0.007202 -0.144404
v -0.011832 0.028725 -0.140708
v 0.000436 0.028967 -0.141574
v 0.000436 0.028967 -0.141574
v 0.000435 -0.007304 -0.144786
v 0.000042 -0.007309 -0.144804
v -0.023868 0.028004 -0.138126
v -0.011832 0.028725 -0.140708
v -0.019764 -0.006692 -0.142501
v -0.011832 0.028725 -0.140708
v -0.011840 -0.007036 -0.143787
v -0.019764 -0.006692 -0.142501
v -0.023868 0.028004 -0.138126
v -0.031034 -0.005778 -0.139092
v -0.035553 -0.005278 -0.137225
v -0.023868 0.028004 -0.138126
v -0.023891 -0.006357 -0.141253
v -0.031034 -0.005778 -0.139092
v -0.035553 -0.005278 -0.137225
v -0.046293 0.001294 -0.131247
v -0.046192 0.014309 -0.129953
v -0.046293 0.001294 -0.131247
v -0.035553 -0.005278 -0.137225
v -0.036127 -0.005214 -0.136988
v -0.036127 -0.005214 -0.136988
v -0.046328 -0.003758 -0.131553
v -0.046293 0.001294 -0.131247
v -0.046192 0.014309 -0.129953
v -0.035441 0.026813 -0.133862
v -0.035553 -0.005278 -0.137225
v -0.046192 0.014309 -0.129953
v -0.046040 0.025165 -0.127865
v -0.035441 0.026813 -0.133862
v -0.035553 -0.005278 -0.137225
v -0.035441 0.026813 -0.133862
v -0.023868 0.028004 -0.138126
v -0.019764 -0.006692 -0.142501
v -0.023891 -0.006357 -0.141253
v -0.023868 0.028004 -0.138126
v -0.008032 -0.007202 -0.144404
v -0.011840 -0.007036 -0.143787
v -0.011832 0.028725 -0.140708
v 0.009065 -0.007197 -0.144389
v 0.000435 -0.007304 -0.144786
v 0.000436 0.028967 -0.141574
v -0.035317 0.044659 -0.129031
v -0.023790 0.046230 -0.133362
v -0.023868 0.028004 -0.138126
v -0.011832 0.028725 -0.140708
v -0.023868 0.028004 -0.138126
v -0.023790 0.046230 -0.133362
vn 0.7838 0.6068 0.1323
vn 0.7765 0.6272 0.0605
vn 0.7714 0.6218 0.1350
vn 0.7486 0.6342 0.1934
vn 0.7778 0.6165 0.1220
vn 0.2389 0.9689 0.0642
vn 0.3836 0.9194 0.0875
vn 0.3704 0.9070 0.2004
vn 0.3507 0.8823 0.3138
vn 0.2133 0.9234 0.3190
vn 0.0814 0.9955 0.0493
vn 0.2286 0.9546 0.1911
vn 0.0776 0.9798 0.1844
vn 0.0717 0.9444 0.3208
vn 0.4336 0.8486 0.3031
vn 0.4729 0.8634 0.1761
vn 0.4876 0.8375 0.2466
vn 0.4808 0.8738 0.0728
vn 0.4959 0.8508 0.1741
vn 0.4977 0.8643 0.0725
vn 0.4926 0.8662 0.0844
vn 0.4887 0.8515 0.1902
vn 0.0670 0.9452 0.3195
vn 0.0720 0.9809 0.1809
vn 0.2144 0.9598 0.1813
vn 0.0735 0.9963 0.0442
vn 0.2001 0.9276 0.3156
vn 0.3312 0.8915 0.3090
vn 0.3510 0.9180 0.1849
vn 0.3552 0.9327 0.0629
vn 0.2182 0.9747 0.0489
vn 0.6441 0.7327 0.2198
vn 0.6399 0.7363 0.2199
vn 0.6527 0.7414 0.1559
vn 0.6493 0.7445 0.1556
vn 0.6450 0.7480 0.1563
vn 0.6589 0.7493 0.0663
vn 0.6541 0.7534 0.0673
vn 0.6467 0.7465 0.1568
vn 0.6361 0.7391 0.2215
vn 0.6351 0.7221 0.2743
vn 0.8238 0.4170 -0.3841
vn 0.8149 0.3564 -0.4570
vn 0.8159 0.2799 -0.5059
vn 0.8329 0.5090 -0.2174
vn 0.8326 0.4077 -0.3749
vn 0.8280 0.4715 -0.3035
vn 0.8172 0.5610 -0.1322
vn 0.8266 0.5173 -0.2216
vn 0.7991 0.5994 -0.0470
vn 0.8252 0.5499 -0.1291
vn 0.7972 0.6037 0.0070
vn 0.8003 0.5996 0.0002
vn 0.8186 0.5634 -0.1112
vn 0.8309 0.5042 -0.2355
vn 0.8294 0.4291 -0.3577
vn 0.8159 0.2798 -0.5059
vn 0.8638 0.5037 0.0136
vn 0.8955 0.4099 -0.1737
vn 0.8826 0.4638 -0.0761
vn 0.3870 0.4069 -0.8275
vn 0.4012 0.5998 -0.6923
vn 0.4029 0.8776 -0.2599
vn 0.4067 0.7730 -0.4869
vn 0.3944 0.9167 -0.0638
vn 0.2473 0.6174 -0.7468
vn 0.2254 0.2421 -0.9437
vn 0.2369 0.4158 -0.8781
vn 0.0799 0.4191 -0.9044
vn 0.0837 0.6248 -0.7763
vn 0.2522 0.9165 -0.3105
vn 0.2529 0.8010 -0.5425
vn 0.2470 0.9636 -0.1022
vn 0.0862 0.9363 -0.3406
vn 0.0860 0.8141 -0.5744
vn 0.0845 0.9885 -0.1258
vn 0.4767 0.8771 -0.0596
vn 0.4950 0.8689 -0.0025
vn 0.5017 0.8386 -0.2124
vn 0.5006 0.8619 -0.0802
vn 0.4728 0.8453 -0.2490
vn 0.4754 0.7451 -0.4678
vn 0.5301 0.7736 -0.3473
vn 0.4993 0.7195 -0.4827
vn 0.5332 0.6119 -0.5842
vn 0.4780 0.5760 -0.6631
vn 0.5147 0.4035 -0.7565
vn 0.5162 0.5151 -0.6843
vn 0.4864 0.3866 -0.7836
vn 0.5135 0.2807 -0.8108
vn 0.5163 0.5148 -0.6844
vn 0.5331 0.6124 -0.5838
vn 0.5300 0.7736 -0.3472
vn 0.5006 0.8620 -0.0801
vn 0.0745 0.9884 -0.1324
vn 0.0769 0.8112 -0.5797
vn 0.0755 0.9346 -0.3475
vn 0.2207 0.9676 -0.1225
vn 0.2280 0.7959 -0.5608
vn 0.2237 0.9162 -0.3326
vn 0.0775 0.6219 -0.7792
vn 0.0759 0.4169 -0.9058
vn 0.2256 0.4100 -0.8837
vn 0.2298 0.6106 -0.7579
vn 0.3581 0.9286 -0.0973
vn 0.3712 0.7695 -0.5197
vn 0.3630 0.8829 -0.2978
vn 0.3755 0.5914 -0.7136
vn 0.3697 0.3984 -0.8394
vn 0.6614 0.7470 0.0670
vn 0.6635 0.7482 0.0024
vn 0.6712 0.7384 -0.0650
vn 0.6735 0.7365 -0.0637
vn 0.6771 0.7147 -0.1756
vn 0.6757 0.7156 -0.1770
vn 0.6845 0.6669 -0.2944
vn 0.6860 0.6659 -0.2933
vn 0.6868 0.6651 -0.2933
vn 0.6901 0.6046 -0.3976
vn 0.6870 0.5292 -0.4980
vn 0.6903 0.5282 -0.4944
vn 0.6908 0.5270 -0.4951
vn 0.6733 0.4507 -0.5862
vn 0.6718 0.4494 -0.5888
vn 0.6720 0.3525 -0.6512
vn 0.6737 0.3543 -0.6485
vn 0.6426 0.2559 -0.7222
vn 0.6480 0.2524 -0.7186
vn 0.6444 0.3662 -0.6712
vn 0.6838 0.4429 -0.5799
vn 0.6796 0.5353 -0.5016
vn 0.6889 0.6054 -0.3986
vn 0.6837 0.6679 -0.2941
vn 0.6818 0.7102 -0.1755
vn 0.6657 0.7434 -0.0644
vn 0.6654 0.7465 0.0014
vn -0.8524 0.5228 0.0056
vn -0.7459 0.6372 0.1942
vn -0.7761 0.6195 0.1183
vn -0.7860 0.6040 0.1319
vn -0.7732 0.6313 0.0607
vn -0.7989 0.6015 -0.0056
vn -0.7933 0.6089 0.0068
vn -0.7675 0.6265 0.1358
vn -0.6357 0.7216 0.2741
vn -0.6399 0.7363 0.2199
vn -0.6367 0.7387 0.2213
vn -0.6492 0.7445 0.1557
vn -0.6468 0.7464 0.1567
vn -0.6526 0.7414 0.1560
vn -0.6541 0.7534 0.0673
vn -0.6588 0.7494 0.0663
vn -0.6655 0.7464 0.0014
vn -0.6635 0.7482 0.0024
vn -0.6614 0.7470 0.0670
vn -0.6451 0.7480 0.1563
vn -0.6442 0.7326 0.2198
vn -0.0735 0.9963 0.0442
vn -0.3552 0.9327 0.0629
vn -0.2182 0.9747 0.0489
vn -0.0670 0.9452 0.3195
vn -0.0720 0.9809 0.1809
vn -0.2001 0.9276 0.3156
vn -0.2144 0.9598 0.1813
vn -0.3312 0.8915 0.3091
vn -0.3510 0.9180 0.1849
vn -0.4950 0.8689 -0.0025
vn -0.4926 0.8662 0.0844
vn -0.4808 0.8738 0.0728
vn -0.4887 0.8515 0.1902
vn -0.4728 0.8634 0.1760
vn -0.4335 0.8486 0.3031
vn -0.4876 0.8375 0.2465
vn -0.4876 0.8375 0.2466
vn -0.4959 0.8508 0.1741
vn -0.4977 0.8643 0.0725
vn -0.3704 0.9070 0.2004
vn -0.3507 0.8823 0.3138
vn -0.2286 0.9546 0.1911
vn -0.2133 0.9234 0.3190
vn -0.0776 0.9798 0.1844
vn -0.0717 0.9444 0.3208
vn -0.2389 0.9689 0.0642
vn -0.3836 0.9194 0.0875
vn -0.0814 0.9955 0.0493
vn -0.8720 0.4814 -0.0889
vn -0.8850 0.4242 -0.1917
vn -0.7955 0.6041 -0.0476
vn -0.8165 0.5650 -0.1186
vn -0.8148 0.5643 -0.1332
vn -0.8241 0.4762 -0.3068
vn -0.8279 0.5045 -0.2451
vn -0.8321 0.5100 -0.2179
vn -0.8274 0.4133 -0.3804
vn -0.8221 0.4303 -0.3728
vn -0.8096 0.3608 -0.4631
vn -0.8102 0.2836 -0.5131
vn -0.8102 0.2841 -0.5128
vn -0.8274 0.4132 -0.3804
vn -0.8218 0.5236 -0.2246
vn -0.8209 0.5559 -0.1309
vn -0.6657 0.7434 -0.0644
vn -0.6712 0.7385 -0.0650
vn -0.6818 0.7102 -0.1754
vn -0.6771 0.7146 -0.1755
vn -0.6860 0.6659 -0.2932
vn -0.6837 0.6678 -0.2942
vn -0.6869 0.6650 -0.2932
vn -0.6889 0.6054 -0.3986
vn -0.6908 0.5265 -0.4956
vn -0.6793 0.5355 -0.5018
vn -0.6869 0.5292 -0.4981
vn -0.6836 0.4431 -0.5800
vn -0.6732 0.4507 -0.5862
vn -0.6442 0.3663 -0.6714
vn -0.6715 0.3528 -0.6517
vn -0.6478 0.2523 -0.7188
vn -0.6420 0.2561 -0.7227
vn -0.6735 0.3550 -0.6484
vn -0.6715 0.4493 -0.5893
vn -0.6902 0.5282 -0.4946
vn -0.6903 0.6045 -0.3975
vn -0.6845 0.6670 -0.2944
vn -0.6756 0.7157 -0.1771
vn -0.6734 0.7365 -0.0637
vn -0.0775 0.6219 -0.7792
vn -0.1517 0.2926 -0.9441
vn -0.2369 0.4158 -0.8781
vn -0.1518 0.3708 -0.9162
vn -0.3697 0.3984 -0.8394
vn -0.3755 0.5914 -0.7136
vn -0.0755 0.9347 -0.3475
vn -0.0769 0.8112 -0.5797
vn -0.2298 0.6106 -0.7579
vn -0.2280 0.7959 -0.5608
vn -0.2237 0.9162 -0.3326
vn -0.0745 0.9884 -0.1324
vn -0.2207 0.9676 -0.1225
vn -0.3630 0.8829 -0.2979
vn -0.3712 0.7695 -0.5197
vn -0.3581 0.9286 -0.0973
vn 0.0758 0.2458 -0.9664
vn -0.4864 0.3866 -0.7836
vn -0.5147 0.4035 -0.7564
vn -0.5135 0.2806 -0.8109
vn -0.4780 0.5760 -0.6631
vn -0.5163 0.5149 -0.6844
vn -0.4993 0.7195 -0.4827
vn -0.4754 0.7451 -0.4678
vn -0.5332 0.6118 -0.5843
vn -0.4728 0.8453 -0.2490
vn -0.5017 0.8386 -0.2124
vn -0.5301 0.7735 -0.3473
vn -0.5006 0.8620 -0.0801
vn -0.4767 0.8771 -0.0596
vn -0.5006 0.8619 -0.0802
vn -0.5301 0.7736 -0.3473
vn -0.5163 0.5147 -0.6845
vn -0.3944 0.9167 -0.0638
vn -0.4067 0.7730 -0.4869
vn -0.4029 0.8776 -0.2599
vn -0.2470 0.9636 -0.1022
vn -0.0845 0.9885 -0.1258
vn -0.2522 0.9165 -0.3105
vn -0.2529 0.8010 -0.5425
vn -0.2473 0.6174 -0.7468
vn -0.0860 0.8141 -0.5744
vn -0.0862 0.9363 -0.3406
vn -0.4012 0.5998 -0.6923
vn -0.3870 0.4069 -0.8275
vn -0.0799 0.4167 -0.9055
vn -0.0837 0.6248 -0.7763
vn 0.9226 0.3732 0.0979
vn 0.9139 0.3806 0.1409
vn 0.8551 0.5137 0.0705
vn 0.8380 0.5223 0.1576
vn 0.8195 0.5268 0.2256
vn 0.7558 0.6107 0.2362
vn 0.7070 0.6360 0.3094
vn 0.7305 0.6215 0.2831
vn 0.7353 0.6324 0.2437
vn 0.7306 0.6214 0.2832
vn 0.8398 0.4846 0.2449
vn 0.7614 0.5892 0.2704
vn 0.8397 0.4846 0.2449
vn 0.8903 0.4119 0.1943
vn 0.8904 0.4095 0.1989
vn 0.9121 0.3639 0.1889
vn 0.9240 0.3494 0.1554
vn 0.9414 0.2872 0.1769
vn 0.9553 0.2491 0.1593
vn 0.9568 0.2511 0.1464
vn 0.9607 0.2490 0.1231
vn 0.9583 0.2560 0.1268
vn 0.9495 0.2788 0.1439
vn 0.9499 0.2903 0.1160
vn 0.9636 0.2512 0.0917
vn 0.9576 0.2432 0.1547
vn 0.9575 0.2434 0.1549
vn 0.9114 0.3850 0.1454
vn 0.9240 0.3495 0.1555
vn 0.8904 0.4095 0.1988
vn 0.8137 0.5313 0.2359
vn 0.7467 0.6143 0.2553
vn 0.7451 0.6277 0.2253
vn 0.8097 0.5498 0.2052
vn 0.8274 0.5493 0.1173
vn 0.9286 0.3608 0.0868
vn -0.1129 0.9047 0.4109
vn -0.0299 0.9079 0.4181
vn 0.1393 0.9037 0.4049
vn 0.0531 0.9069 0.4180
vn 0.2284 0.8853 0.4052
vn 0.1419 0.8985 0.4155
vn 0.4585 0.8116 0.3621
vn 0.4874 0.7874 0.3774
vn 0.2300 0.8823 0.4106
vn 0.3245 0.8584 0.3973
vn 0.4113 0.8327 0.3708
vn 0.3717 0.8422 0.3905
vn 0.4606 0.8310 0.3117
vn 0.4586 0.8116 0.3619
vn 0.3007 0.8423 0.4473
vn 0.1914 0.8900 0.4139
vn 0.0640 0.9059 0.4186
vn 0.0547 0.9068 0.4179
vn 0.6165 0.7180 0.3229
vn 0.6194 0.7156 0.3229
vn 0.6272 0.7278 0.2773
vn 0.6199 0.7337 0.2782
vn 0.5887 0.7282 0.3511
vn 0.6010 0.7201 0.3468
vn 0.6012 0.7285 0.3284
vn 0.9378 0.3471 -0.0121
vn 0.9439 0.3213 -0.0768
vn 0.9310 0.3620 0.0462
vn 0.8994 0.3969 -0.1833
vn 0.8922 0.2849 -0.3505
vn 0.8896 0.2903 -0.3525
vn 0.8983 0.3467 -0.2700
vn 0.8755 0.4831 -0.0089
vn 0.8918 0.4421 -0.0959
vn 0.6882 0.1463 -0.7107
vn 0.7807 0.2658 -0.5655
vn 0.7808 0.2657 -0.5655
vn 0.7897 0.3624 -0.4950
vn 0.7797 0.2106 -0.5896
vn 0.9649 0.2558 0.0600
vn 0.9646 0.2636 -0.0114
vn 0.9620 0.2672 0.0566
vn 0.9605 0.2776 -0.0160
vn 0.9466 0.2547 -0.1978
vn 0.9534 0.2607 -0.1517
vn 0.9349 0.3385 -0.1064
vn 0.9341 0.2175 -0.2832
vn 0.9265 0.3122 -0.2102
vn 0.9029 0.1968 -0.3821
vn 0.9045 0.2026 -0.3753
vn 0.8502 0.1771 -0.4959
vn 0.8515 0.1787 -0.4930
vn 0.7820 0.1572 -0.6031
vn 0.7893 0.1622 -0.5922
vn 0.6478 0.0804 -0.7576
vn 0.6996 0.1288 -0.7029
vn 0.6631 0.3101 -0.6813
vn 0.6349 0.0510 -0.7709
vn 0.6882 0.1464 -0.7106
vn 0.7194 0.1261 -0.6831
vn 0.7910 0.1553 -0.5918
vn 0.8521 0.1764 -0.4927
vn 0.9069 0.1944 -0.3739
vn 0.9422 0.2350 -0.2387
vn 0.9754 0.2082 -0.0722
vn 0.9632 0.2680 -0.0200
vn 0.9655 0.2556 0.0506
vn 0.7292 0.2297 -0.6446
vn 0.8903 0.2852 -0.3549
vn 0.8474 0.2358 -0.4757
vn 0.8978 0.3489 -0.2687
vn 0.9467 0.3207 -0.0291
vn 0.9386 0.3435 0.0321
vn 0.9529 0.2631 -0.1507
vn 0.9511 0.2951 -0.0907
vn 0.2174 0.2477 -0.9441
vn 0.5052 0.1697 -0.8462
vn 0.4288 0.1878 -0.8837
vn 0.3698 0.2364 -0.8985
vn 0.5135 0.2807 -0.8109
vn 0.4621 0.0568 -0.8850
vn 0.4360 0.0950 -0.8949
vn 0.4399 0.0923 -0.8933
vn 0.3530 0.0985 -0.9304
vn 0.3370 0.0927 -0.9369
vn 0.2480 0.0924 -0.9643
vn 0.2143 0.0972 -0.9719
vn 0.0720 0.0945 -0.9929
vn 0.1578 0.0848 -0.9838
vn 0.1577 0.0848 -0.9838
vn 0.2484 0.0924 -0.9642
vn 0.2984 0.3268 -0.8968
vn 0.3514 0.4218 -0.8358
vn 0.0731 0.2475 -0.9661
vn 0.6422 0.2538 -0.7233
vn 0.6170 0.2628 -0.7418
vn 0.5783 0.1618 -0.7996
vn 0.6192 0.1579 -0.7692
vn 0.6100 0.1578 -0.7765
vn 0.5801 0.0859 -0.8100
vn 0.5590 0.0546 -0.8274
vn 0.5520 0.0542 -0.8321
vn 0.5584 0.0864 -0.8250
vn 0.6068 0.1599 -0.7786
vn -0.8908 0.4317 0.1421
vn -0.9260 0.3775 0.0089
vn -0.9133 0.4009 0.0722
vn -0.8142 0.5691 0.1148
vn -0.7950 0.5698 0.2080
vn -0.7425 0.6314 0.2239
vn -0.7575 0.6089 0.2356
vn -0.9616 0.2712 0.0431
vn -0.9641 0.2575 0.0648
vn -0.9523 0.2822 0.1163
vn -0.9519 0.2667 0.1509
vn -0.9530 0.2730 0.1315
vn -0.9405 0.2984 0.1624
vn -0.9404 0.2942 0.1705
vn -0.8871 0.4199 0.1916
vn -0.8935 0.3965 0.2108
vn -0.8924 0.4152 0.1769
vn -0.7963 0.5531 0.2450
vn -0.8499 0.4708 0.2369
vn -0.7319 0.6192 0.2845
vn -0.7290 0.6229 0.2837
vn -0.7507 0.6093 0.2554
vn -0.7002 0.6421 0.3121
vn -0.7312 0.6366 0.2450
vn -0.7655 0.5839 0.2703
vn -0.8501 0.4705 0.2368
vn -0.9131 0.3555 0.1996
vn -0.9404 0.2941 0.1704
vn -0.9602 0.2602 0.1019
vn -0.9412 0.3090 0.1366
vn -0.9416 0.3203 0.1040
vn -0.8075 0.5451 0.2253
vn -0.8290 0.5385 0.1509
vn -0.8476 0.5275 0.0575
vn -0.9022 0.4136 0.1227
vn -0.9254 0.3789 0.0100
vn -0.9145 0.3986 0.0700
vn -0.8958 0.4083 0.1758
vn -0.6013 0.7284 0.3284
vn -0.6162 0.7183 0.3231
vn -0.6274 0.7277 0.2772
vn -0.6011 0.7200 0.3467
vn -0.5886 0.7282 0.3511
vn -0.6195 0.7340 0.2782
vn -0.6189 0.7159 0.3230
vn -0.4606 0.8310 0.3118
vn -0.2810 0.8706 0.4040
vn -0.3857 0.8414 0.3786
vn -0.4479 0.8065 0.3859
vn -0.3400 0.8538 0.3943
vn -0.3007 0.8423 0.4473
vn -0.4585 0.8116 0.3621
vn -0.1915 0.8902 0.4134
vn -0.2220 0.8864 0.4063
vn -0.0639 0.9055 0.4196
vn -0.1141 0.9013 0.4178
vn -0.2237 0.8839 0.4107
vn -0.4586 0.8116 0.3619
vn -0.9406 0.3136 -0.1303
vn -0.9411 0.2748 -0.1968
vn -0.9358 0.3471 -0.0608
vn -0.8866 0.3586 -0.2920
vn -0.8609 0.2211 -0.4582
vn -0.8773 0.2903 -0.3822
vn -0.7850 0.3574 -0.5061
vn -0.7590 0.2657 -0.5943
vn -0.7727 0.2136 -0.5978
vn -0.7291 0.1384 -0.6703
vn -0.7137 0.1833 -0.6760
vn -0.6379 0.0509 -0.7685
vn -0.6863 0.1149 -0.7181
vn -0.6966 0.0757 -0.7134
vn -0.8261 0.1851 -0.5323
vn -0.7278 0.1105 -0.6768
vn -0.7878 0.1197 -0.6043
vn -0.8721 0.2507 -0.4203
vn -0.8276 0.1578 -0.5386
vn -0.9191 0.2114 -0.3325
vn -0.8925 0.1856 -0.4111
vn -0.9352 0.3227 -0.1458
vn -0.9344 0.2320 -0.2704
vn -0.9361 0.2448 -0.2525
vn -0.9664 0.2264 -0.1220
vn -0.9626 0.2657 -0.0533
vn -0.9627 0.2675 -0.0412
vn -0.9655 0.2598 0.0178
vn -0.9548 0.2950 0.0361
vn -0.9577 0.2840 -0.0456
vn -0.9420 0.2704 -0.1988
vn -0.9281 0.2689 -0.2574
vn -0.8621 0.1999 -0.4656
vn -0.7786 0.4501 -0.4372
vn -0.6603 0.3292 -0.6750
vn -0.6966 0.0756 -0.7135
vn -0.7291 0.1382 -0.6703
vn -0.7727 0.2134 -0.5979
vn -0.8856 0.4489 -0.1192
vn -0.8689 0.4942 -0.0269
vn -0.8895 0.3441 -0.3008
vn -0.8784 0.2811 -0.3866
vn -0.8925 0.3986 -0.2111
vn -0.9373 0.3259 -0.1235
vn -0.9327 0.3566 -0.0546
vn -0.6173 0.2626 -0.7416
vn -0.6415 0.2540 -0.7238
vn -0.6100 0.1578 -0.7765
vn -0.6069 0.1599 -0.7786
vn -0.5797 0.1617 -0.7986
vn -0.5588 0.0875 -0.8247
vn -0.5768 0.0853 -0.8124
vn -0.5521 0.0542 -0.8320
vn -0.5593 0.0546 -0.8272
vn -0.5814 0.0858 -0.8091
vn -0.6194 0.1579 -0.7690
vn -0.0731 0.2458 -0.9666
vn -0.5135 0.2807 -0.8109
vn -0.4288 0.1878 -0.8837
vn -0.3514 0.4218 -0.8358
vn -0.5052 0.1697 -0.8462
vn -0.0481 0.0891 -0.9949
vn -0.0720 0.0945 -0.9929
vn 0.0444 0.0881 -0.9951
vn -0.2143 0.0972 -0.9719
vn -0.1560 0.0848 -0.9841
vn -0.3698 0.1048 -0.9232
vn -0.2820 0.0871 -0.9555
vn -0.4406 0.0922 -0.8930
vn -0.3436 0.2594 -0.9026
vn -0.4631 0.0568 -0.8845
vn -0.4362 0.0953 -0.8948
vn -0.5052 0.1698 -0.8462
vn -0.3530 0.0987 -0.9304
vn -0.2819 0.0871 -0.9555
vn -0.1557 0.0848 -0.9842
vn 0.0447 0.0881 -0.9951
vn -0.3698 0.2364 -0.8985
vn -0.2174 0.2477 -0.9441
s 1
usemtl material_0
f 1//1 2//1 3//1
f 4//2 5//2 6//2
f 7//3 8//3 9//3
f 10//4 11//4 12//4
f 13//5 14//5 15//5
f 16//6 17//6 18//6
f 19//7 20//7 21//7
f 22//8 23//8 24//8
f 25//9 26//9 27//9
f 28//10 29//10 30//10
f 31//11 32//11 33//11
f 34//12 35//12 36//12
f 37//13 38//13 39//13
f 40//14 41//14 42//14
f 43//15 44//15 45//15
f 46//16 47//16 48//16
f 49//17 50//17 51//17
f 52//18 53//18 54//18
f 55//19 56//19 57//19
f 58//20 59//20 60//20
f 61//21 62//21 63//21
f 64//22 65//22 66//22
f 67//17 68//17 69//17
f 70//23 71//23 72//23
f 73//24 74//24 75//24
f 76//25 77//25 78//25
f 79//26 80//26 81//26
f 82//27 83//27 84//27
f 85//28 86//28 87//28
f 88//29 89//29 90//29
f 91//30 92//30 93//30
f 94//31 95//31 96//31
f 97//32 98//32 99//32
f 100//33 101//33 102//33
f 103//34 104//34 105//34
f 106//35 107//35 108//35
f 109//36 110//36 111//36
f 112//37 113//37 114//37
f 115//38 116//38 117//38
f 118//39 119//39 120//39
f 121//40 122//40 123//40
f 124//41 125//41 126//41
f 127//42 128//42 129//42
f 130//43 131//43 132//43
f 133//44 134//44 135//44
f 136//45 137//45 138//45
f 139//46 140//46 141//46
f 142//47 143//47 144//47
f 145//48 146//48 147//48
f 148//49 149//49 150//49
f 151//50 152//50 153//50
f 154//51 155//51 156//51
f 157//52 158//52 159//52
f 160//53 161//53 162//53
f 163//54 164//54 165//54
f 166//55 167//55 168//55
f 169//56 170//56 171//56
f 172//57 173//57 174//57
f 175//58 176//58 177//58
f 178//59 179//59 180//59
f 181//60 182//60 183//60
f 184//61 185//61 186//61
f 187//62 188//62 189//62
f 190//63 191//63 192//63
f 193//64 194//64 195//64
f 196//65 197//65 198//65
f 199//66 200//66 201//66
f 202//67 203//67 204//67
f 205//68 206//68 207//68
f 208//69 209//69 210//69
f 211//70 212//70 213//70
f 214//71 215//71 216//71
f 217//72 218//72 219//72
f 220//73 221//73 222//73
f 223//74 224//74 225//74
f 226//75 227//75 228//75
f 229//76 230//76 231//76
f 232//77 233//77 234//77
f 235//78 236//78 237//78
f 238//79 239//79 240//79
f 241//80 242//80 243//80
f 244//81 245//81 246//81
f 247//82 248//82 249//82
f 250//83 251//83 252//83
f 253//84 254//84 255//84
f 256//85 257//85 258//85
f 259//86 260//86 261//86
f 262//87 263//87 264//87
f 265//88 266//88 267//88
f 268//89 269//89 270//89
f 271//90 272//90 273//90
f 274//91 275//91 276//91
f 277//92 278//92 279//92
f 280//93 281//93 282//93
f 283//94 284//94 285//94
f 286//95 287//95 288//95
f 289//96 290//96 291//96
f 292//97 293//97 294//97
f 295//98 296//98 297//98
f 298//99 299//99 300//99
f 301//100 302//100 303//100
f 304//101 305//101 306//101
f 307//102 308//102 309//102
f 310//103 311//103 312//103
f 313//104 314//104 315//104
f 316//105 317//105 318//105
f 319//106 320//106 321//106
f 322//107 323//107 324//107
f 325//108 326//108 327//108
f 328//109 329//109 330//109
f 331//110 332//110 333//110
f 334//111 335//111 336//111
f 337//112 338//112 339//112
f 340//113 341//113 342//113
f 343//114 344//114 345//114
f 346//115 347//115 348//115
f 349//116 350//116 351//116
f 352//117 353//117 354//117
f 355//118 356//118 357//118
f 358//119 359//119 360//119
f 361//120 362//120 363//120
f 364//121 365//121 366//121
f 367//122 368//122 369//122
f 370//123 371//123 372//123
f 373//124 374//124 375//124
f 376//125 377//125 378//125
f 379//126 380//126 381//126
f 382//127 383//127 384//127
f 385//128 386//128 387//128
f 388//129 389//129 390//129
f 391//130 392//130 393//130
f 394//131 395//131 396//131
f 397//132 398//132 399//132
f 400//133 401//133 402//133
f 403//134 404//134 405//134
f 406//135 407//135 408//135
f 409//136 410//136 411//136
f 412//137 413//137 414//137
f 415//138 416//138 417//138
f 418//139 419//139 420//139
f 421//140 422//140 423//140
f 424//141 425//141 426//141
f 427//142 428//142 429//142
f 430//143 431//143 432//143
f 433//144 434//144 435//144
f 436//145 437//145 438//145
f 439//146 440//146 441//146
f 442//147 443//147 444//147
f 445//148 446//148 447//148
f 448//149 449//149 450//149
f 451//150 452//150 453//150
f 454//151 455//151 456//151
f 457//152 458//152 459//152
f 460//153 461//153 462//153
f 463//154 464//154 465//154
f 466//155 467//155 468//155
f 469//156 470//156 471//156
f 472//157 473//157 474//157
f 475//158 476//158 477//158
f 478//159 479//159 480//159
f 481//160 482//160 483//160
f 484//161 485//161 486//161
f 487//162 488//162 489//162
f 490//163 491//163 492//163
f 493//164 494//164 495//164
f 496//165 497//165 498//165
f 499//166 500//166 501//166
f 502//167 503//167 504//167
f 505//168 506//168 507//168
f 508//169 509//169 510//169
f 511//170 512//170 513//170
f 514//171 515//171 516//171
f 517//172 518//172 519//172
f 520//173 521//173 522//173
f 523//174 524//174 525//174
f 526//175 527//175 528//175
f 529//176 530//176 531//176
f 532//177 533//177 534//177
f 535//178 536//178 537//178
f 538//179 539//179 540//179
f 541//180 542//180 543//180
f 544//181 545//181 546//181
f 547//182 548//182 549//182
f 550//183 551//183 552//183
f 553//184 554//184 555//184
f 556//185 557//185 558//185
f 559//186 560//186 561//186
f 562//187 563//187 564//187
f 565//188 566//188 567//188
f 568//189 569//189 570//189
f 571//190 572//190 573//190
f 574//191 575//191 576//191
f 577//192 578//192 579//192
f 580//193 581//193 582//193
f 583//194 584//194 585//194
f 586//195 587//195 588//195
f 589//196 590//196 591//196
f 592//197 593//197 594//197
f 595//198 596//198 597//198
f 598//199 599//199 600//199
f 601//200 602//200 603//200
f 604//201 605//201 606//201
f 607//202 608//202 609//202
f 610//203 611//203 612//203
f 613//204 614//204 615//204
f 616//205 617//205 618//205
f 619//206 620//206 621//206
f 622//207 623//207 624//207
f 625//208 626//208 627//208
f 628//209 629//209 630//209
f 631//210 632//210 633//210
f 634//211 635//211 636//211
f 637//212 638//212 639//212
f 640//213 641//213 642//213
f 643//214 644//214 645//214
f 646//215 647//215 648//215
f 649//216 650//216 651//216
f 652//217 653//217 654//217
f 655//218 656//218 657//218
f 658//219 659//219 660//219
f 661//220 662//220 663//220
f 664//221 665//221 666//221
f 667//222 668//222 669//222
f 670//223 671//223 672//223
f 673//224 674//224 675//224
f 676//225 677//225 678//225
f 679//226 680//226 681//226
f 682//227 683//227 684//227
f 685//228 686//228 687//228
f 688//229 689//229 690//229
f 691//230 692//230 693//230
f 694//231 695//231 696//231
f 697//232 698//232 699//232
f 700//233 701//233 702//233
f 703//234 704//234 705//234
f 706//235 707//235 708//235
f 709//236 710//236 711//236
f 712//237 713//237 714//237
f 715//238 716//238 717//238
f 718//239 719//239 720//239
f 721//240 722//240 723//240
f 724//241 725//241 726//241
f 727//242 728//242 729//242
f 730//243 731//243 732//243
f 733//244 734//244 735//244
f 736//245 737//245 738//245
f 739//246 740//246 741//246
f 742//247 743//247 744//247
f 745//248 746//248 747//248
f 748//249 749//249 750//249
f 751//250 752//250 753//250
f 754//251 755//251 756//251
f 757//252 758//252 759//252
f 760//253 761//253 762//253
f 763//254 764//254 765//254
f 766//255 767//255 768//255
f 769//256 770//256 771//256
f 772//257 773//257 774//257
f 775//250 776//250 777//250
f 778//258 779//258 780//258
f 781//259 782//259 783//259
f 784//260 785//260 786//260
f 787//261 788//261 789//261
f 790//262 791//262 792//262
f 793//263 794//263 795//263
f 796//264 797//264 798//264
f 799//265 800//265 801//265
f 802//266 803//266 804//266
f 805//267 806//267 807//267
f 808//268 809//268 810//268
f 811//269 812//269 813//269
f 814//270 815//270 816//270
f 817//271 818//271 819//271
f 820//272 821//272 822//272
f 823//273 824//273 825//273
f 826//274 827//274 828//274
f 829//275 830//275 831//275
f 832//276 833//276 834//276
f 835//277 836//277 837//277
f 838//278 839//278 840//278
f 841//279 842//279 843//279
f 844//280 845//280 846//280
f 847//281 848//281 849//281
f 850//282 851//282 852//282
f 853//283 854//283 855//283
f 856//284 857//284 858//284
f 859//285 860//285 861//285
f 862//286 863//286 864//286
f 865//287 866//287 867//287
f 868//288 869//288 870//288
f 871//289 872//289 873//289
f 874//290 875//290 876//290
f 877//291 878//291 879//291
f 880//292 881//292 882//292
f 883//293 884//293 885//293
f 886//294 887//294 888//294
f 889//295 890//295 891//295
f 892//296 893//296 894//296
f 895//297 896//297 897//297
f 898//298 899//298 900//298
f 901//299 902//299 903//299
f 904//300 905//300 906//300
f 907//301 908//301 909//301
f 910//302 911//302 912//302
f 913//303 914//303 915//303
f 916//304 917//304 918//304
f 919//305 920//305 921//305
f 922//306 923//306 924//306
f 925//307 926//307 927//307
f 928//308 929//308 930//308
f 931//309 932//309 933//309
f 934//310 935//310 936//310
f 937//311 938//311 939//311
f 940//312 941//312 942//312
f 943//313 944//313 945//313
f 946//314 947//314 948//314
f 949//315 950//315 951//315
f 952//316 953//316 954//316
f 955//317 956//317 957//317
f 958//318 959//318 960//318
f 961//319 962//319 963//319
f 964//320 965//320 966//320
f 967//321 968//321 969//321
f 970//322 971//322 972//322
f 973//323 974//323 975//323
f 976//324 977//324 978//324
f 979//325 980//325 981//325
f 982//326 983//326 984//326
f 985//327 986//327 987//327
f 988//328 989//328 990//328
f 991//329 992//329 993//329
f 994//330 995//330 996//330
f 997//331 998//331 999//331
f 1000//332 1001//332 1002//332
f 1003//333 1004//333 1005//333
f 1006//334 1007//334 1008//334
f 1009//335 1010//335 1011//335
f 1012//336 1013//336 1014//336
f 1015//337 1016//337 1017//337
f 1018//338 1019//338 1020//338
f 1021//339 1022//339 1023//339
f 1024//340 1025//340 1026//340
f 1027//341 1028//341 1029//341
f 1030//342 1031//342 1032//342
f 1033//343 1034//343 1035//343
f 1036//344 1037//344 1038//344
f 1039//345 1040//345 1041//345
f 1042//346 1043//346 1044//346
f 1045//347 1046//347 1047//347
f 1048//348 1049//348 1050//348
f 1051//349 1052//349 1053//349
f 1054//350 1055//350 1056//350
f 1057//351 1058//351 1059//351
f 1060//352 1061//352 1062//352
f 1063//353 1064//353 1065//353
f 1066//354 1067//354 1068//354
f 1069//355 1070//355 1071//355
f 1072//356 1073//356 1074//356
f 1075//357 1076//357 1077//357
f 1078//358 1079//358 1080//358
f 1081//359 1082//359 1083//359
f 1084//360 1085//360 1086//360
f 1087//361 1088//361 1089//361
f 1090//362 1091//362 1092//362
f 1093//363 1094//363 1095//363
f 1096//364 1097//364 1098//364
f 1099//365 1100//365 1101//365
f 1102//366 1103//366 1104//366
f 1105//367 1106//367 1107//367
f 1108//368 1109//368 1110//368
f 1111//369 1112//369 1113//369
f 1114//370 1115//370 1116//370
f 1117//371 1118//371 1119//371
f 1120//372 1121//372 1122//372
f 1123//373 1124//373 1125//373
f 1126//374 1127//374 1128//374
f 1129//375 1130//375 1131//375
f 1132//376 1133//376 1134//376
f 1135//377 1136//377 1137//377
f 1138//378 1139//378 1140//378
f 1141//379 1142//379 1143//379
f 1144//380 1145//380 1146//380
f 1147//381 1148//381 1149//381
f 1150//382 1151//382 1152//382
f 1153//383 1154//383 1155//383
f 1156//384 1157//384 1158//384
f 1159//385 1160//385 1161//385
f 1162//386 1163//386 1164//386
f 1165//387 1166//387 1167//387
f 1168//388 1169//388 1170//388
f 1171//389 1172//389 1173//389
f 1174//390 1175//390 1176//390
f 1177//391 1178//391 1179//391
f 1180//385 1181//385 1182//385
f 1183//392 1184//392 1185//392
f 1186//393 1187//393 1188//393
f 1189//394 1190//394 1191//394
f 1192//395 1193//395 1194//395
f 1195//396 1196//396 1197//396
f 1198//397 1199//397 1200//397
f 1201//398 1202//398 1203//398
f 1204//399 1205//399 1206//399
f 1207//400 1208//400 1209//400
f 1210//401 1211//401 1212//401
f 1213//402 1214//402 1215//402
f 1216//403 1217//403 1218//403
f 1219//404 1220//404 1221//404
f 1222//405 1223//405 1224//405
f 1225//406 1226//406 1227//406
f 1228//407 1229//407 1230//407
f 1231//408 1232//408 1233//408
f 1234//409 1235//409 1236//409
f 1237//410 1238//410 1239//410
f 1240//411 1241//411 1242//411
f 1243//412 1244//412 1245//412
f 1246//413 1247//413 1248//413
f 1249//414 1250//414 1251//414
f 1252//415 1253//415 1254//415
f 1255//416 1256//416 1257//416
f 1258//417 1259//417 1260//417
f 1261//418 1262//418 1263//418
f 1264//419 1265//419 1266//419
f 1267//420 1268//420 1269//420
f 1270//421 1271//421 1272//421
f 1273//422 1274//422 1275//422
f 1276//423 1277//423 1278//423
f 1279//424 1280//424 1281//424
f 1282//423 1283//423 1284//423
f 1285//425 1286//425 1287//425
f 1288//426 1289//426 1290//426
f 1291//427 1292//427 1293//427
f 1294//428 1295//428 1296//428
f 1297//429 1298//429 1299//429
f 1300//430 1301//430 1302//430
f 1303//431 1304//431 1305//431
f 1306//432 1307//432 1308//432
f 1309//433 1310//433 1311//433
f 1312//434 1313//434 1314//434
f 1315//435 1316//435 1317//435
f 1318//436 1319//436 1320//436
f 1321//437 1322//437 1323//437
f 1324//438 1325//438 1326//438
f 1327//429 1328//429 1329//429
f 1330//439 1331//439 1332//439
f 1333//440 1334//440 1335//440
f 1336//441 1337//441 1338//441
f 1339//442 1340//442 1341//442
f 1342//443 1343//443 1344//443
f 1345//444 1346//444 1347//444
f 1348//445 1349//445 1350//445
f 1351//446 1352//446 1353//446
f 1354//447 1355//447 1356//447
f 1357//448 1358//448 1359//448
f 1360//449 1361//449 1362//449
f 1363//450 1364//450 1365//450
f 1366//451 1367//451 1368//451
f 1369//452 1370//452 1371//452
f 1372//453 1373//453 1374//453
f 1375//454 1376//454 1377//454
f 1378//455 1379//455 1380//455
f 1381//456 1382//456 1383//456
f 1384//457 1385//457 1386//457
f 1387//458 1388//458 1389//458
f 1390//459 1391//459 1392//459
f 1393//460 1394//460 1395//460
f 1396//461 1397//461 1398//461
f 1399//462 1400//462 1401//462
f 1402//463 1403//463 1404//463
f 1405//464 1406//464 1407//464
f 1408//465 1409//465 1410//465
f 1411//466 1412//466 1413//466
f 1414//467 1415//467 1416//467
f 1417//468 1418//468 1419//468
f 1420//469 1421//469 1422//469
f 1423//470 1424//470 1425//470
f 1426//471 1427//471 1428//471
f 1429//472 1430//472 1431//472
f 1432//473 1433//473 1434//473
f 1435//474 1436//474 1437//474
f 1438//475 1439//475 1440//475
f 1441//476 1442//476 1443//476
f 1444//477 1445//477 1446//477
f 1447//478 1448//478 1449//478
f 1450//479 1451//479 1452//479
f 1453//480 1454//480 1455//480
f 1456//481 1457//481 1458//481
f 1459//482 1460//482 1461//482
f 1462//483 1463//483 1464//483
f 1465//484 1466//484 1467//484
f 1468//485 1469//485 1470//485
f 1471//486 1472//486 1473//486
f 1474//487 1475//487 1476//487
f 1477//488 1478//488 1479//488
f 1480//489 1481//489 1482//489
f 1483//490 1484//490 1485//490
f 1486//491 1487//491 1488//491
f 1489//492 1490//492 1491//492
f 1492//493 1493//493 1494//493
f 1495//494 1496//494 1497//494
f 1498//495 1499//495 1500//495
f 1501//496 1502//496 1503//496
f 1504//497 1505//497 1506//497
f 1507//498 1508//498 1509//498
f 1510//499 1511//499 1512//499
f 1513//500 1514//500 1515//500
f 1516//501 1517//501 1518//501
f 1519//502 1520//502 1521//502
f 1522//503 1523//503 1524//503
f 1525//504 1526//504 1527//504
f 1528//505 1529//505 1530//505
f 1531//506 1532//506 1533//506
f 1534//507 1535//507 1536//507
f 1537//508 1538//508 1539//508
f 1540//509 1541//509 1542//509
f 1543//510 1544//510 1545//510
f 1546//511 1547//511 1548//511
f 1549//512 1550//512 1551//512
f 1552//513 1553//513 1554//513
f 1555//514 1556//514 1557//514
f 1558//515 1559//515 1560//515
f 1561//516 1562//516 1563//516
f 1564//517 1565//517 1566//517
f 1567//518 1568//518 1569//518
f 1570//519 1571//519 1572//519
f 1573//520 1574//520 1575//520
f 1576//521 1577//521 1578//521
f 1579//522 1580//522 1581//522
f 1582//523 1583//523 1584//523
f 1585//524 1586//524 1587//524
f 1588//525 1589//525 1590//525
f 1591//526 1592//526 1593//526
f 1594//527 1595//527 1596//527
f 1597//528 1598//528 1599//528
f 1600//529 1601//529 1602//529
f 1603//530 1604//530 1605//530
f 1606//531 1607//531 1608//531
f 1609//532 1610//532 1611//532
f 1612//533 1613//533 1614//533
f 1615//534 1616//534 1617//534
f 1618//535 1619//535 1620//535
f 1621//536 1622//536 1623//536
f 1624//537 1625//537 1626//537
f 1627//538 1628//538 1629//538
f 1630//539 1631//539 1632//539
f 1633//540 1634//540 1635//540
f 1636//541 1637//541 1638//541
f 1639//542 1640//542 1641//542
f 1642//543 1643//543 1644//543
f 1645//544 1646//544 1647//544
f 1648//545 1649//545 1650//545
f 1651//546 1652//546 1653//546
f 1654//547 1655//547 1656//547
f 1657//548 1658//548 1659//548
f 1660//549 1661//549 1662//549
