# Blender 4.5.10 LTS
# www.blender.org
mtllib iiwa_link6_resp_coll_1.mtl
o node
v 0.004639 -0.052337 -0.133538
v 0.012828 -0.053677 -0.068146
v -0.000315 -0.054707 -0.069115
v 0.012828 -0.053677 -0.068146
v 0.043464 -0.045604 -0.033186
v -0.000315 -0.054707 -0.069115
v 0.043464 -0.045604 -0.033186
v -0.013455 -0.053676 -0.068111
v -0.000315 -0.054707 -0.069115
v -0.026594 -0.028544 -0.018167
v -0.013455 -0.053676 -0.068111
v 0.043464 -0.045604 -0.033186
v -0.063153 -0.009976 -0.133538
v -0.067485 0.002287 -0.100444
v -0.068063 0.017870 -0.133538
v -0.023361 -0.048402 -0.133538
v -0.061222 0.045306 -0.133538
v 0.004639 -0.052337 -0.133538
v 0.035931 0.073164 -0.133538
v -0.061222 0.045306 -0.133538
v 0.009360 0.082835 -0.133538
v -0.047341 -0.033418 -0.133538
v -0.061222 0.045306 -0.133538
v -0.023361 -0.048402 -0.133538
v -0.061222 0.045306 -0.133538
v -0.063153 -0.009976 -0.133538
v -0.068063 0.017870 -0.133538
v -0.061222 0.045306 -0.133538
v -0.047341 -0.033418 -0.133538
v -0.063153 -0.009976 -0.133538
v 0.053481 -0.026368 -0.133538
v 0.031820 -0.044543 -0.133538
v 0.004639 -0.052337 -0.133538
v -0.013047 -0.051260 -0.125456
v -0.023361 -0.048402 -0.133538
v 0.004639 -0.052337 -0.133538
v -0.013047 -0.051260 -0.125456
v -0.013455 -0.053676 -0.068111
v -0.023361 -0.048402 -0.133538
v 0.065876 -0.000954 -0.133538
v 0.053481 -0.026368 -0.133538
v 0.004639 -0.052337 -0.133538
v -0.067348 0.027567 -0.100445
v -0.061222 0.045306 -0.133538
v -0.068063 0.017870 -0.133538
v -0.061222 0.045306 -0.133538
v -0.067348 0.027567 -0.100445
v -0.061222 0.045306 -0.100538
v -0.036659 -0.041842 -0.125154
v -0.047341 -0.033418 -0.133538
v -0.023361 -0.048402 -0.133538
v -0.013974 -0.022533 -0.016643
v -0.026594 -0.028544 -0.018167
v 0.007677 -0.021074 -0.015756
v -0.007178 0.051001 -0.049393
v -0.013974 -0.022533 -0.016643
v 0.007677 -0.021074 -0.015756
v -0.019369 0.079441 -0.083501
v -0.014816 0.068308 -0.063500
v -0.000330 0.080683 -0.080338
v -0.061222 0.045306 -0.133538
v -0.018847 0.080863 -0.133538
v 0.009360 0.082835 -0.133538
v 0.043458 -0.036718 -0.125155
v 0.053481 -0.026368 -0.133538
v 0.043464 -0.045604 -0.033186
v 0.031820 -0.044543 -0.133538
v 0.043458 -0.036718 -0.125155
v 0.043464 -0.045604 -0.033186
v 0.043458 -0.036718 -0.125155
v 0.031820 -0.044543 -0.133538
v 0.053481 -0.026368 -0.133538
v 0.012828 -0.053677 -0.068146
v 0.020138 -0.049420 -0.125154
v 0.043464 -0.045604 -0.033186
v 0.020138 -0.049420 -0.125154
v 0.012828 -0.053677 -0.068146
v 0.004639 -0.052337 -0.133538
v 0.031820 -0.044543 -0.133538
v 0.020138 -0.049420 -0.125154
v 0.004639 -0.052337 -0.133538
v 0.056049 -0.021703 -0.066512
v 0.054368 -0.012247 -0.053029
v 0.043464 -0.045604 -0.033186
v 0.056049 -0.021703 -0.066512
v 0.066177 0.000393 -0.092233
v 0.054368 -0.012247 -0.053029
v -0.026594 -0.028544 -0.018167
v 0.026107 -0.028544 -0.018241
v 0.007677 -0.021074 -0.015756
v 0.026107 -0.028544 -0.018241
v -0.026594 -0.028544 -0.018167
v 0.043464 -0.045604 -0.033186
v 0.054368 -0.012247 -0.053029
v 0.059231 0.012565 -0.058421
v 0.043464 -0.045604 -0.033186
v 0.026107 -0.028544 -0.018241
v 0.021471 0.044355 -0.048221
v 0.007677 -0.021074 -0.015756
v -0.006826 -0.052170 -0.121281
v 0.004639 -0.052337 -0.133538
v -0.000315 -0.054707 -0.069115
v -0.006826 -0.052170 -0.121281
v -0.013047 -0.051260 -0.125456
v 0.004639 -0.052337 -0.133538
v -0.013455 -0.053676 -0.068111
v -0.006826 -0.052170 -0.121281
v -0.000315 -0.054707 -0.069115
v -0.013047 -0.051260 -0.125456
v -0.006826 -0.052170 -0.121281
v -0.013455 -0.053676 -0.068111
v -0.026594 -0.028544 -0.018167
v -0.044633 -0.024766 -0.037898
v -0.047424 -0.031885 -0.045052
v -0.059831 0.012566 -0.058256
v -0.044633 -0.024766 -0.037898
v -0.026594 -0.028544 -0.018167
v -0.053117 0.029050 -0.056282
v -0.026594 -0.028544 -0.018167
v -0.042229 0.041880 -0.054825
v -0.053117 0.029050 -0.056282
v -0.059831 0.012566 -0.058256
v -0.026594 -0.028544 -0.018167
v 0.015324 0.082212 -0.125340
v 0.035931 0.073164 -0.133538
v 0.009360 0.082835 -0.133538
v 0.009360 0.082835 -0.100538
v 0.015324 0.082212 -0.125340
v 0.009360 0.082835 -0.133538
v 0.067300 0.004305 -0.100538
v 0.065876 -0.000954 -0.133538
v 0.068063 0.023679 -0.133533
v 0.065876 -0.000954 -0.133538
v 0.067300 0.004305 -0.100538
v 0.066177 0.000393 -0.092233
v -0.063153 -0.009976 -0.100538
v -0.067485 0.002287 -0.100444
v -0.063153 -0.009976 -0.133538
v -0.063153 -0.009976 -0.100538
v -0.056479 -0.022099 -0.066141
v -0.067485 0.002287 -0.100444
v -0.047341 -0.033418 -0.133538
v -0.052717 -0.029258 -0.100465
v -0.063153 -0.009976 -0.133538
v -0.056479 -0.022099 -0.066141
v -0.062449 -0.003831 -0.063837
v -0.067485 0.002287 -0.100444
v -0.062449 -0.003831 -0.063837
v -0.056479 -0.022099 -0.066141
v -0.047424 -0.031885 -0.045052
v -0.044633 -0.024766 -0.037898
v -0.062449 -0.003831 -0.063837
v -0.047424 -0.031885 -0.045052
v -0.062449 -0.003831 -0.063837
v -0.044633 -0.024766 -0.037898
v -0.059831 0.012566 -0.058256
v -0.067485 0.002287 -0.100444
v -0.068063 0.017870 -0.100538
v -0.068063 0.017870 -0.133538
v -0.068063 0.017870 -0.100538
v -0.067348 0.027567 -0.100445
v -0.068063 0.017870 -0.133538
v -0.067348 0.027567 -0.100445
v -0.060491 0.041310 -0.075857
v -0.061222 0.045306 -0.100538
v -0.053117 0.029050 -0.056282
v -0.060491 0.041310 -0.075857
v -0.059831 0.012566 -0.058256
v -0.056479 -0.022099 -0.066141
v -0.047671 -0.035283 -0.066097
v -0.047424 -0.031885 -0.045052
v -0.052717 -0.029258 -0.100465
v -0.047671 -0.035283 -0.066097
v -0.056479 -0.022099 -0.066141
v -0.047671 -0.035283 -0.066097
v -0.052717 -0.029258 -0.100465
v -0.047341 -0.033418 -0.133538
v -0.047671 -0.035283 -0.066097
v -0.037586 -0.044107 -0.064155
v -0.047424 -0.031885 -0.045052
v -0.036659 -0.041842 -0.125154
v -0.037586 -0.044107 -0.064155
v -0.047341 -0.033418 -0.133538
v -0.037586 -0.044107 -0.064155
v -0.047671 -0.035283 -0.066097
v -0.047341 -0.033418 -0.133538
v -0.037586 -0.044107 -0.064155
v -0.026594 -0.028544 -0.018167
v -0.047424 -0.031885 -0.045052
v -0.050398 0.060130 -0.083881
v -0.047167 0.054250 -0.069016
v -0.035750 0.072164 -0.083639
v -0.060491 0.041310 -0.075857
v -0.047167 0.054250 -0.069016
v -0.050398 0.060130 -0.083881
v -0.047167 0.054250 -0.069016
v -0.053117 0.029050 -0.056282
v -0.042229 0.041880 -0.054825
v -0.047167 0.054250 -0.069016
v -0.060491 0.041310 -0.075857
v -0.053117 0.029050 -0.056282
v -0.058016 0.051859 -0.100457
v -0.061222 0.045306 -0.133538
v -0.061222 0.045306 -0.100538
v -0.060491 0.041310 -0.075857
v -0.058016 0.051859 -0.100457
v -0.061222 0.045306 -0.100538
v -0.058016 0.051859 -0.100457
v -0.060491 0.041310 -0.075857
v -0.050398 0.060130 -0.083881
v -0.018847 0.080863 -0.133538
v -0.005988 0.083242 -0.125154
v 0.009360 0.082835 -0.133538
v 0.027093 -0.046973 -0.125162
v 0.031820 -0.044543 -0.133538
v 0.043464 -0.045604 -0.033186
v 0.020138 -0.049420 -0.125154
v 0.027093 -0.046973 -0.125162
v 0.043464 -0.045604 -0.033186
v 0.027093 -0.046973 -0.125162
v 0.020138 -0.049420 -0.125154
v 0.031820 -0.044543 -0.133538
v 0.062940 -0.010525 -0.100515
v 0.065876 -0.000954 -0.133538
v 0.066177 0.000393 -0.092233
v 0.056049 -0.021703 -0.066512
v 0.062940 -0.010525 -0.100515
v 0.066177 0.000393 -0.092233
v 0.062940 -0.010525 -0.100515
v 0.056049 -0.021703 -0.066512
v 0.043464 -0.045604 -0.033186
v 0.037512 -0.035271 -0.025432
v 0.026107 -0.028544 -0.018241
v 0.043464 -0.045604 -0.033186
v 0.059231 0.012565 -0.058421
v 0.037512 -0.035271 -0.025432
v 0.043464 -0.045604 -0.033186
v 0.026107 -0.028544 -0.018241
v 0.037512 -0.035271 -0.025432
v 0.052523 0.029048 -0.056428
v 0.037512 -0.035271 -0.025432
v 0.059231 0.012565 -0.058421
v 0.052523 0.029048 -0.056428
v 0.005194 0.025507 -0.037532
v -0.007178 0.051001 -0.049393
v 0.007677 -0.021074 -0.015756
v 0.021471 0.044355 -0.048221
v 0.005194 0.025507 -0.037532
v 0.007677 -0.021074 -0.015756
v 0.005194 0.025507 -0.037532
v 0.021471 0.044355 -0.048221
v -0.007178 0.051001 -0.049393
v 0.037772 0.035241 -0.049898
v 0.026107 -0.028544 -0.018241
v 0.052523 0.029048 -0.056428
v 0.037772 0.035241 -0.049898
v 0.021471 0.044355 -0.048221
v 0.026107 -0.028544 -0.018241
v 0.056271 0.053522 -0.133538
v 0.066171 0.033164 -0.100541
v 0.068063 0.023679 -0.133533
v 0.065876 -0.000954 -0.133538
v 0.056271 0.053522 -0.133538
v 0.068063 0.023679 -0.133533
v 0.056271 0.053522 -0.133538
v 0.065876 -0.000954 -0.133538
v 0.004639 -0.052337 -0.133538
v -0.061222 0.045306 -0.133538
v 0.056271 0.053522 -0.133538
v 0.004639 -0.052337 -0.133538
v 0.056271 0.053522 -0.133538
v -0.061222 0.045306 -0.133538
v 0.035931 0.073164 -0.133538
v 0.059231 0.012565 -0.058421
v 0.059843 0.041307 -0.076021
v 0.052523 0.029048 -0.056428
v 0.025443 0.079175 -0.100535
v 0.036547 0.072992 -0.100533
v 0.035931 0.073164 -0.133538
v 0.066171 0.033164 -0.100541
v 0.067668 0.016398 -0.100546
v 0.068063 0.023679 -0.133533
v 0.067668 0.016398 -0.100546
v 0.067300 0.004305 -0.100538
v 0.068063 0.023679 -0.133533
v -0.063153 -0.009976 -0.100538
v -0.059725 -0.016883 -0.093669
v -0.056479 -0.022099 -0.066141
v -0.059725 -0.016883 -0.093669
v -0.052717 -0.029258 -0.100465
v -0.056479 -0.022099 -0.066141
v -0.059725 -0.016883 -0.093669
v -0.063153 -0.009976 -0.100538
v -0.063153 -0.009976 -0.133538
v -0.052717 -0.029258 -0.100465
v -0.059725 -0.016883 -0.093669
v -0.063153 -0.009976 -0.133538
v -0.066245 0.021257 -0.075580
v -0.062449 -0.003831 -0.063837
v -0.059831 0.012566 -0.058256
v -0.060491 0.041310 -0.075857
v -0.066245 0.021257 -0.075580
v -0.059831 0.012566 -0.058256
v -0.066245 0.021257 -0.075580
v -0.060491 0.041310 -0.075857
v -0.067348 0.027567 -0.100445
v -0.068063 0.017870 -0.100538
v -0.066245 0.021257 -0.075580
v -0.067348 0.027567 -0.100445
v -0.062449 -0.003831 -0.063837
v -0.066245 0.021257 -0.075580
v -0.067485 0.002287 -0.100444
v -0.066245 0.021257 -0.075580
v -0.068063 0.017870 -0.100538
v -0.067485 0.002287 -0.100444
v -0.013455 -0.053676 -0.068111
v -0.025960 -0.049824 -0.067509
v -0.023361 -0.048402 -0.133538
v -0.026594 -0.028544 -0.018167
v -0.025960 -0.049824 -0.067509
v -0.013455 -0.053676 -0.068111
v -0.037586 -0.044107 -0.064155
v -0.025960 -0.049824 -0.067509
v -0.026594 -0.028544 -0.018167
v -0.028350 -0.046378 -0.125154
v -0.036659 -0.041842 -0.125154
v -0.023361 -0.048402 -0.133538
v -0.028350 -0.046378 -0.125154
v -0.037586 -0.044107 -0.064155
v -0.036659 -0.041842 -0.125154
v -0.025960 -0.049824 -0.067509
v -0.028350 -0.046378 -0.125154
v -0.023361 -0.048402 -0.133538
v -0.028350 -0.046378 -0.125154
v -0.025960 -0.049824 -0.067509
v -0.037586 -0.044107 -0.064155
v -0.014816 0.068308 -0.063500
v -0.029011 0.050527 -0.053669
v -0.007178 0.051001 -0.049393
v -0.029011 0.050527 -0.053669
v -0.013974 -0.022533 -0.016643
v -0.007178 0.051001 -0.049393
v -0.026594 -0.028544 -0.018167
v -0.029011 0.050527 -0.053669
v -0.042229 0.041880 -0.054825
v -0.013974 -0.022533 -0.016643
v -0.029011 0.050527 -0.053669
v -0.026594 -0.028544 -0.018167
v -0.047167 0.054250 -0.069016
v -0.032679 0.064946 -0.068242
v -0.035750 0.072164 -0.083639
v -0.032679 0.064946 -0.068242
v -0.019369 0.079441 -0.083501
v -0.035750 0.072164 -0.083639
v -0.019369 0.079441 -0.083501
v -0.032679 0.064946 -0.068242
v -0.014816 0.068308 -0.063500
v -0.032679 0.064946 -0.068242
v -0.029011 0.050527 -0.053669
v -0.014816 0.068308 -0.063500
v -0.032679 0.064946 -0.068242
v -0.047167 0.054250 -0.069016
v -0.042229 0.041880 -0.054825
v -0.029011 0.050527 -0.053669
v -0.032679 0.064946 -0.068242
v -0.042229 0.041880 -0.054825
v -0.043814 0.067588 -0.133538
v -0.018847 0.080863 -0.133538
v -0.061222 0.045306 -0.133538
v -0.043814 0.067588 -0.133538
v -0.027301 0.077968 -0.125162
v -0.018847 0.080863 -0.133538
v -0.013537 0.082237 -0.100515
v -0.019369 0.079441 -0.083501
v -0.000330 0.080683 -0.080338
v -0.013537 0.082237 -0.100515
v -0.005988 0.083242 -0.125154
v -0.018847 0.080863 -0.133538
v 0.053481 -0.026368 -0.133538
v 0.057794 -0.021097 -0.100541
v 0.043464 -0.045604 -0.033186
v 0.057794 -0.021097 -0.100541
v 0.062940 -0.010525 -0.100515
v 0.043464 -0.045604 -0.033186
v 0.065876 -0.000954 -0.133538
v 0.057794 -0.021097 -0.100541
v 0.053481 -0.026368 -0.133538
v 0.062940 -0.010525 -0.100515
v 0.057794 -0.021097 -0.100541
v 0.065876 -0.000954 -0.133538
v 0.036547 0.072992 -0.100533
v 0.040717 0.069881 -0.125154
v 0.035931 0.073164 -0.133538
v 0.040717 0.069881 -0.125154
v 0.056271 0.053522 -0.133538
v 0.035931 0.073164 -0.133538
v 0.065599 0.021257 -0.075765
v 0.059843 0.041307 -0.076021
v 0.059231 0.012565 -0.058421
v 0.065599 0.021257 -0.075765
v 0.067668 0.016398 -0.100546
v 0.066171 0.033164 -0.100541
v 0.066177 0.000393 -0.092233
v 0.065599 0.021257 -0.075765
v 0.054368 -0.012247 -0.053029
v 0.065599 0.021257 -0.075765
v 0.059231 0.012565 -0.058421
v 0.054368 -0.012247 -0.053029
v 0.067300 0.004305 -0.100538
v 0.065599 0.021257 -0.075765
v 0.066177 0.000393 -0.092233
v 0.067668 0.016398 -0.100546
v 0.065599 0.021257 -0.075765
v 0.067300 0.004305 -0.100538
v 0.052925 0.058762 -0.100541
v 0.040717 0.069881 -0.125154
v 0.036547 0.072992 -0.100533
v 0.040717 0.069881 -0.125154
v 0.052925 0.058762 -0.100541
v 0.056271 0.053522 -0.133538
v 0.037772 0.035241 -0.049898
v 0.030759 0.061924 -0.063777
v 0.021471 0.044355 -0.048221
v 0.015324 0.082212 -0.125340
v 0.028136 0.077356 -0.125154
v 0.035931 0.073164 -0.133538
v 0.028136 0.077356 -0.125154
v 0.025443 0.079175 -0.100535
v 0.035931 0.073164 -0.133538
v 0.025443 0.079175 -0.100535
v 0.028136 0.077356 -0.125154
v 0.015324 0.082212 -0.125340
v 0.018985 0.081043 -0.100482
v 0.015324 0.082212 -0.125340
v 0.009360 0.082835 -0.100538
v 0.018985 0.081043 -0.100482
v 0.025443 0.079175 -0.100535
v 0.015324 0.082212 -0.125340
v -0.048100 0.063687 -0.125154
v -0.058016 0.051859 -0.100457
v -0.050398 0.060130 -0.083881
v -0.058016 0.051859 -0.100457
v -0.048100 0.063687 -0.125154
v -0.061222 0.045306 -0.133538
v -0.048100 0.063687 -0.125154
v -0.043814 0.067588 -0.133538
v -0.061222 0.045306 -0.133538
v -0.013537 0.082237 -0.100515
v -0.001460 0.083483 -0.108887
v -0.005988 0.083242 -0.125154
v -0.001460 0.083483 -0.108887
v 0.009360 0.082835 -0.100538
v 0.009360 0.082835 -0.133538
v -0.005988 0.083242 -0.125154
v -0.001460 0.083483 -0.108887
v 0.009360 0.082835 -0.133538
v 0.009360 0.082835 -0.100538
v -0.001460 0.083483 -0.108887
v -0.000330 0.080683 -0.080338
v -0.001460 0.083483 -0.108887
v -0.013537 0.082237 -0.100515
v -0.000330 0.080683 -0.080338
v -0.013537 0.082237 -0.100515
v -0.017694 0.081484 -0.100529
v -0.019369 0.079441 -0.083501
v -0.027301 0.077968 -0.125162
v -0.017694 0.081484 -0.100529
v -0.018847 0.080863 -0.133538
v -0.017694 0.081484 -0.100529
v -0.013537 0.082237 -0.100515
v -0.018847 0.080863 -0.133538
v -0.019369 0.079441 -0.083501
v -0.017694 0.081484 -0.100529
v -0.035750 0.072164 -0.083639
v 0.059843 0.041307 -0.076021
v 0.065599 0.021257 -0.075765
v 0.066171 0.033164 -0.100541
v 0.045667 0.051301 -0.064703
v 0.037772 0.035241 -0.049898
v 0.052523 0.029048 -0.056428
v 0.045667 0.051301 -0.064703
v 0.030759 0.061924 -0.063777
v 0.037772 0.035241 -0.049898
v 0.059843 0.041307 -0.076021
v 0.045667 0.051301 -0.064703
v 0.052523 0.029048 -0.056428
v 0.021471 0.044355 -0.048221
v 0.007501 0.063199 -0.057787
v -0.007178 0.051001 -0.049393
v 0.030759 0.061924 -0.063777
v 0.007501 0.063199 -0.057787
v 0.021471 0.044355 -0.048221
v 0.007501 0.063199 -0.057787
v -0.014816 0.068308 -0.063500
v -0.007178 0.051001 -0.049393
v 0.018985 0.081043 -0.100482
v 0.024002 0.076404 -0.079875
v 0.025443 0.079175 -0.100535
v 0.025443 0.079175 -0.100535
v 0.024002 0.076404 -0.079875
v 0.036547 0.072992 -0.100533
v 0.024002 0.076404 -0.079875
v 0.009360 0.082835 -0.100538
v -0.000330 0.080683 -0.080338
v 0.024002 0.076404 -0.079875
v 0.018985 0.081043 -0.100482
v 0.009360 0.082835 -0.100538
v -0.043814 0.067588 -0.133538
v -0.034046 0.074592 -0.108886
v -0.027301 0.077968 -0.125162
v -0.038428 0.071887 -0.100485
v -0.034046 0.074592 -0.108886
v -0.043814 0.067588 -0.133538
v -0.034046 0.074592 -0.108886
v -0.017694 0.081484 -0.100529
v -0.027301 0.077968 -0.125162
v -0.034046 0.074592 -0.108886
v -0.038428 0.071887 -0.100485
v -0.035750 0.072164 -0.083639
v -0.017694 0.081484 -0.100529
v -0.034046 0.074592 -0.108886
v -0.035750 0.072164 -0.083639
v -0.043814 0.067588 -0.100538
v -0.038428 0.071887 -0.100485
v -0.043814 0.067588 -0.133538
v -0.048100 0.063687 -0.125154
v -0.043814 0.067588 -0.100538
v -0.043814 0.067588 -0.133538
v -0.043814 0.067588 -0.100538
v -0.048100 0.063687 -0.125154
v -0.050398 0.060130 -0.083881
v -0.043814 0.067588 -0.100538
v -0.050398 0.060130 -0.083881
v -0.035750 0.072164 -0.083639
v -0.038428 0.071887 -0.100485
v -0.043814 0.067588 -0.100538
v -0.035750 0.072164 -0.083639
v 0.056482 0.053182 -0.100520
v 0.059843 0.041307 -0.076021
v 0.066171 0.033164 -0.100541
v 0.059843 0.041307 -0.076021
v 0.056482 0.053182 -0.100520
v 0.052925 0.058762 -0.100541
v 0.056271 0.053522 -0.133538
v 0.056482 0.053182 -0.100520
v 0.066171 0.033164 -0.100541
v 0.052925 0.058762 -0.100541
v 0.056482 0.053182 -0.100520
v 0.056271 0.053522 -0.133538
v 0.052925 0.058762 -0.100541
v 0.047632 0.060838 -0.080150
v 0.059843 0.041307 -0.076021
v 0.047632 0.060838 -0.080150
v 0.045667 0.051301 -0.064703
v 0.059843 0.041307 -0.076021
v 0.047632 0.060838 -0.080150
v 0.052925 0.058762 -0.100541
v 0.036547 0.072992 -0.100533
v 0.024002 0.076404 -0.079875
v 0.047632 0.060838 -0.080150
v 0.036547 0.072992 -0.100533
v 0.045667 0.051301 -0.064703
v 0.047632 0.060838 -0.080150
v 0.030759 0.061924 -0.063777
v 0.047632 0.060838 -0.080150
v 0.024002 0.076404 -0.079875
v 0.030759 0.061924 -0.063777
v 0.008551 0.072752 -0.067424
v 0.007501 0.063199 -0.057787
v 0.030759 0.061924 -0.063777
v 0.024002 0.076404 -0.079875
v 0.008551 0.072752 -0.067424
v 0.030759 0.061924 -0.063777
v 0.008551 0.072752 -0.067424
v 0.024002 0.076404 -0.079875
v -0.000330 0.080683 -0.080338
v -0.014816 0.068308 -0.063500
v 0.008551 0.072752 -0.067424
v -0.000330 0.080683 -0.080338
v 0.007501 0.063199 -0.057787
v 0.008551 0.072752 -0.067424
v -0.014816 0.068308 -0.063500
vn 0.0803 -0.9963 -0.0305
vn 0.0645 -0.9832 0.1705
vn -0.0514 -0.9514 0.3037
vn -0.1292 -0.8990 0.4184
vn -0.9828 -0.1733 -0.0644
vn -0.0000 -0.0000 -1.0000
vn -0.1371 -0.9758 -0.1701
vn -0.2357 -0.9709 -0.0426
vn -0.9691 0.2416 -0.0499
vn -0.9452 0.3264 -0.0000
vn -0.5218 -0.8351 -0.1742
vn -0.0273 -0.1914 0.9811
vn -0.0649 0.4110 0.9093
vn -0.1396 0.8514 0.5057
vn 0.6877 -0.7226 -0.0699
vn 0.5941 -0.8007 -0.0774
vn 0.6329 -0.7543 -0.1745
vn 0.2909 -0.9562 -0.0341
vn 0.2088 -0.9769 -0.0462
vn 0.2715 -0.9469 -0.1725
vn 0.9560 -0.1705 0.2387
vn 0.9578 -0.1652 0.2352
vn 0.0013 -0.3126 0.9499
vn 0.0010 -0.6583 0.7527
vn 0.9387 -0.1132 0.3255
vn 0.2734 0.3807 0.8834
vn -0.0586 -0.9974 -0.0412
vn -0.0948 -0.9927 -0.0751
vn -0.0811 -0.9960 -0.0383
vn -0.1165 -0.9923 -0.0426
vn -0.7286 -0.3218 0.6046
vn -0.7289 0.0744 0.6806
vn -0.4833 0.3174 0.8159
vn -0.6582 0.1806 0.7309
vn 0.3368 0.9253 -0.1746
vn 0.1040 0.9946 -0.0000
vn 0.9957 -0.0884 -0.0289
vn 0.9622 -0.2723 0.0019
vn -0.9429 -0.3331 -0.0000
vn -0.9407 -0.3329 0.0652
vn -0.8273 -0.5580 -0.0643
vn -0.9448 -0.3184 0.0768
vn -0.9135 -0.3287 0.2397
vn -0.8658 -0.1425 0.4796
vn -0.8413 -0.0489 0.5383
vn -0.9993 -0.0370 -0.0000
vn -0.9973 0.0735 -0.0000
vn -0.9420 0.3257 0.0806
vn -0.8279 0.2790 0.4866
vn -0.8276 -0.5525 0.0990
vn -0.8313 -0.5553 0.0247
vn -0.6973 -0.7164 -0.0232
vn -0.6669 -0.7344 0.1264
vn -0.5998 -0.7992 -0.0388
vn -0.6556 -0.7547 -0.0241
vn -0.3443 -0.8613 0.3738
vn -0.5844 0.7031 0.4051
vn -0.7373 0.5579 0.3809
vn -0.6298 0.4636 0.6232
vn -0.7110 0.4436 0.5457
vn -0.8983 0.4395 -0.0000
vn -0.8945 0.4364 0.0971
vn -0.8483 0.5122 0.1343
vn -0.0687 0.9824 -0.1734
vn 0.3795 -0.9236 -0.0538
vn 0.3315 -0.9424 -0.0450
vn 0.3306 -0.9398 -0.0861
vn 0.9583 -0.2859 0.0023
vn 0.9378 -0.3379 0.0790
vn 0.9107 -0.4102 0.0497
vn 0.2384 -0.4913 0.8377
vn 0.8129 0.0319 0.5815
vn 0.6108 0.2235 0.7596
vn 0.6733 0.1875 0.7152
vn 0.0047 0.4237 0.9058
vn 0.0977 0.4257 0.8996
vn 0.0673 0.4475 0.8917
vn 0.4913 0.3135 0.8126
vn 0.3019 0.3790 0.8748
vn 0.9288 0.3670 -0.0522
vn 0.0008 0.0001 -1.0000
vn 0.8292 0.2789 0.4843
vn 0.4865 0.8737 -0.0045
vn 0.9955 0.0889 0.0315
vn 0.9995 -0.0304 0.0052
vn -0.9057 -0.4230 0.0266
vn -0.8682 -0.4962 0.0083
vn -0.8958 -0.4445 -0.0000
vn -0.8724 -0.4887 -0.0097
vn -0.9330 0.0268 0.3588
vn -0.8592 0.2527 0.4448
vn -0.9547 0.2755 0.1123
vn -0.9954 0.0728 0.0626
vn -0.9883 -0.0932 0.1204
vn -0.9963 -0.0364 0.0775
vn -0.2957 -0.9547 -0.0322
vn -0.2555 -0.8889 0.3801
vn -0.3211 -0.8711 0.3716
vn -0.4779 -0.8754 -0.0731
vn -0.4788 -0.8770 -0.0399
vn -0.4274 -0.9033 -0.0363
vn -0.4491 -0.8928 -0.0348
vn -0.1691 0.5768 0.7992
vn -0.1836 0.4140 0.8916
vn -0.3239 0.3793 0.8668
vn -0.2891 0.3847 0.8766
vn -0.5479 0.7101 0.4422
vn -0.3649 0.8129 0.4539
vn -0.2886 0.8071 0.5150
vn -0.3076 0.6366 0.7072
vn -0.4647 0.5811 0.6682
vn -0.4397 0.5806 0.6852
vn -0.4629 0.8707 -0.1663
vn -0.0864 0.9874 0.1326
vn -0.1737 0.9847 -0.0130
vn 0.8359 -0.5484 -0.0217
vn 0.8986 -0.4375 0.0320
vn 0.8987 -0.4375 0.0320
vn 0.8978 -0.4379 -0.0474
vn 0.8982 -0.4371 -0.0468
vn 0.5732 0.8194 -0.0064
vn 0.6901 0.7146 -0.1141
vn 0.8604 0.2527 0.4425
vn 0.9939 0.0888 0.0656
vn 0.9582 -0.1604 0.2369
vn 0.9500 -0.1239 0.2867
vn 0.9926 -0.0572 0.1073
vn 0.9956 -0.0303 0.0891
vn 0.6558 0.7548 0.0157
vn 0.7142 0.6988 -0.0385
vn 0.3621 0.5033 0.7846
vn 0.3528 0.9259 -0.1349
vn 0.4609 0.8873 -0.0151
vn 0.3546 0.9345 -0.0302
vn 0.1829 0.9829 0.0193
vn 0.2780 0.9606 0.0042
vn -0.7504 0.6608 0.0152
vn -0.8047 0.5924 -0.0394
vn -0.7827 0.6115 -0.1156
vn -0.0947 0.9954 0.0116
vn 0.0598 0.9982 -0.0000
vn 0.0160 0.9997 -0.0193
vn -0.0162 0.9950 0.0982
vn -0.0341 0.9945 0.0989
vn -0.1777 0.9790 0.0999
vn -0.3295 0.9441 -0.0062
vn -0.1782 0.9839 -0.0123
vn -0.4055 0.9115 0.0694
vn 0.9492 0.2745 0.1538
vn 0.5107 0.4334 0.7425
vn 0.4061 0.5034 0.7627
vn 0.7285 0.4244 0.5377
vn 0.0802 0.4978 0.8636
vn 0.2338 0.5723 0.7860
vn -0.0607 0.6144 0.7866
vn 0.2761 0.9499 0.1466
vn 0.4810 0.8639 0.1494
vn 0.1669 0.9688 0.1833
vn 0.1792 0.9682 0.1743
vn -0.5181 0.8545 -0.0375
vn -0.5509 0.8343 -0.0187
vn -0.3990 0.9166 0.0248
vn -0.4445 0.8940 0.0560
vn -0.4133 0.9086 0.0595
vn -0.6238 0.7816 -0.0000
vn -0.6731 0.7395 -0.0000
vn -0.7288 0.6845 0.0184
vn -0.6329 0.7685 0.0939
vn -0.6220 0.7782 0.0861
vn 0.8967 0.4339 0.0873
vn 0.8342 0.5324 0.1436
vn 0.9001 0.4356 -0.0013
vn 0.8432 0.5376 0.0002
vn 0.8220 0.5472 0.1576
vn 0.7234 0.5426 0.4270
vn 0.6530 0.7516 0.0930
vn 0.5413 0.8183 0.1935
vn 0.5245 0.6930 0.4946
vn 0.4926 0.7396 0.4586
vn 0.2174 0.6812 0.6990
vn 0.2808 0.7692 0.5740
vn 0.1472 0.8848 0.4422
vn -0.0648 0.8299 0.5542
vn -0.0172 0.7110 0.7030
s 1
usemtl material_0
f 1//1 2//1 3//1
f 4//2 5//2 6//2
f 7//3 8//3 9//3
f 10//4 11//4 12//4
f 13//5 14//5 15//5
f 16//6 17//6 18//6
f 19//6 20//6 21//6
f 22//6 23//6 24//6
f 25//6 26//6 27//6
f 28//6 29//6 30//6
f 31//6 32//6 33//6
f 34//7 35//7 36//7
f 37//8 38//8 39//8
f 40//6 41//6 42//6
f 43//9 44//9 45//9
f 46//10 47//10 48//10
f 49//11 50//11 51//11
f 52//12 53//12 54//12
f 55//13 56//13 57//13
f 58//14 59//14 60//14
f 61//6 62//6 63//6
f 64//15 65//15 66//15
f 67//16 68//16 69//16
f 70//17 71//17 72//17
f 73//18 74//18 75//18
f 76//19 77//19 78//19
f 79//20 80//20 81//20
f 82//21 83//21 84//21
f 85//22 86//22 87//22
f 88//23 89//23 90//23
f 91//24 92//24 93//24
f 94//25 95//25 96//25
f 97//26 98//26 99//26
f 100//27 101//27 102//27
f 103//28 104//28 105//28
f 106//29 107//29 108//29
f 109//30 110//30 111//30
f 112//31 113//31 114//31
f 115//32 116//32 117//32
f 118//33 119//33 120//33
f 121//34 122//34 123//34
f 124//35 125//35 126//35
f 127//36 128//36 129//36
f 130//37 131//37 132//37
f 133//38 134//38 135//38
f 136//39 137//39 138//39
f 139//40 140//40 141//40
f 142//41 143//41 144//41
f 145//42 146//42 147//42
f 148//43 149//43 150//43
f 151//44 152//44 153//44
f 154//45 155//45 156//45
f 157//46 158//46 159//46
f 160//47 161//47 162//47
f 163//48 164//48 165//48
f 166//49 167//49 168//49
f 169//50 170//50 171//50
f 172//51 173//51 174//51
f 175//52 176//52 177//52
f 178//53 179//53 180//53
f 181//54 182//54 183//54
f 184//55 185//55 186//55
f 187//56 188//56 189//56
f 190//57 191//57 192//57
f 193//58 194//58 195//58
f 196//59 197//59 198//59
f 199//60 200//60 201//60
f 202//61 203//61 204//61
f 205//62 206//62 207//62
f 208//63 209//63 210//63
f 211//64 212//64 213//64
f 214//65 215//65 216//65
f 217//66 218//66 219//66
f 220//67 221//67 222//67
f 223//68 224//68 225//68
f 226//69 227//69 228//69
f 229//70 230//70 231//70
f 232//71 233//71 234//71
f 235//72 236//72 237//72
f 238//73 239//73 240//73
f 241//74 242//74 243//74
f 244//75 245//75 246//75
f 247//76 248//76 249//76
f 250//77 251//77 252//77
f 253//78 254//78 255//78
f 256//79 257//79 258//79
f 259//80 260//80 261//80
f 262//81 263//81 264//81
f 265//6 266//6 267//6
f 268//6 269//6 270//6
f 271//6 272//6 273//6
f 274//82 275//82 276//82
f 277//83 278//83 279//83
f 280//84 281//84 282//84
f 283//85 284//85 285//85
f 286//86 287//86 288//86
f 289//87 290//87 291//87
f 292//88 293//88 294//88
f 295//89 296//89 297//89
f 298//90 299//90 300//90
f 301//91 302//91 303//91
f 304//92 305//92 306//92
f 307//93 308//93 309//93
f 310//94 311//94 312//94
f 313//95 314//95 315//95
f 316//96 317//96 318//96
f 319//97 320//97 321//97
f 322//98 323//98 324//98
f 325//99 326//99 327//99
f 328//100 329//100 330//100
f 331//101 332//101 333//101
f 334//102 335//102 336//102
f 337//103 338//103 339//103
f 340//104 341//104 342//104
f 343//105 344//105 345//105
f 346//106 347//106 348//106
f 349//107 350//107 351//107
f 352//108 353//108 354//108
f 355//109 356//109 357//109
f 358//110 359//110 360//110
f 361//111 362//111 363//111
f 364//112 365//112 366//112
f 367//6 368//6 369//6
f 370//113 371//113 372//113
f 373//114 374//114 375//114
f 376//115 377//115 378//115
f 379//116 380//116 381//116
f 382//117 383//118 384//118
f 385//119 386//119 387//119
f 388//120 389//120 390//120
f 391//121 392//121 393//121
f 394//122 395//122 396//122
f 397//123 398//123 399//123
f 400//124 401//124 402//124
f 403//125 404//125 405//125
f 406//126 407//126 408//126
f 409//127 410//127 411//127
f 412//128 413//128 414//128
f 415//129 416//129 417//129
f 418//130 419//130 420//130
f 421//131 422//131 423//131
f 424//132 425//132 426//132
f 427//133 428//133 429//133
f 430//134 431//134 432//134
f 433//135 434//135 435//135
f 436//136 437//136 438//136
f 439//137 440//137 441//137
f 442//138 443//138 444//138
f 445//139 446//139 447//139
f 448//140 449//140 450//140
f 451//141 452//141 453//141
f 454//142 455//142 456//142
f 457//143 458//143 459//143
f 460//144 461//144 462//144
f 463//145 464//145 465//145
f 466//146 467//146 468//146
f 469//147 470//147 471//147
f 472//148 473//148 474//148
f 475//149 476//149 477//149
f 478//150 479//150 480//150
f 481//151 482//151 483//151
f 484//152 485//152 486//152
f 487//153 488//153 489//153
f 490//154 491//154 492//154
f 493//155 494//155 495//155
f 496//156 497//156 498//156
f 499//157 500//157 501//157
f 502//158 503//158 504//158
f 505//159 506//159 507//159
f 508//160 509//160 510//160
f 511//161 512//161 513//161
f 514//162 515//162 516//162
f 517//163 518//163 519//163
f 520//164 521//164 522//164
f 523//165 524//165 525//165
f 526//166 527//166 528//166
f 529//167 530//167 531//167
f 532//168 533//168 534//168
f 535//169 536//169 537//169
f 538//170 539//170 540//170
f 541//171 542//171 543//171
f 544//172 545//172 546//172
f 547//173 548//173 549//173
f 550//174 551//174 552//174
f 553//175 554//175 555//175
f 556//176 557//176 558//176
f 559//177 560//177 561//177
f 562//178 563//178 564//178
f 565//179 566//179 567//179
f 568//180 569//180 570//180
f 571//181 572//181 573//181
f 574//182 575//182 576//182
f 577//183 578//183 579//183
f 580//184 581//184 582//184
